<svg xmlns="http://www.w3.org/2000/svg" xmlns:xlink="http://www.w3.org/1999/xlink" viewBox="0 0 1062 581"><defs><style>.cls-1{isolation:isolate;}.cls-2{fill:#f4aa1b;opacity:0.15;}.cls-3{fill:#91278e;}.cls-20,.cls-3,.cls-4{opacity:0.1;}.cls-4{fill:#ec5039;}.cls-5{fill:#852880;}.cls-6{fill:#f5f5f5;}.cls-7{fill:#e8e8e9;}.cls-20,.cls-8{fill:#231f20;}.cls-9{fill:#5f1019;}.cls-10{fill:#3e1215;}.cls-11{fill:#fff;}.cls-12{fill:#7e298a;}.cls-13{fill:#690677;}.cls-14{fill:#4c1317;}.cls-15{fill:#29306e;}.cls-16{fill:#14355b;}.cls-17{fill:#731015;}.cls-18{fill:#eac74d;}.cls-19{fill:#9b9391;}.cls-19,.cls-32{mix-blend-mode:overlay;}.cls-20,.cls-33,.cls-35{mix-blend-mode:multiply;}.cls-21{fill:#2e1013;}.cls-22{fill:#86cdda;}.cls-23{fill:#a6d7df;}.cls-24{fill:#f9f9f9;}.cls-25{fill:#d8d8d7;}.cls-26{fill:#5fa9b6;}.cls-27{fill:#c6c6c6;}.cls-28{fill:#ebf2fa;}.cls-29{fill:#92bee5;}.cls-30{fill:#d2a265;}.cls-31{fill:#62ba46;}.cls-32{fill:#a7acac;}.cls-33{fill:#807f7f;}.cls-34{fill:url(#_ÂÁ_Ï_ÌÌ_È_ËÂÌÚ_641);}.cls-35{fill:#bba58a;}.cls-36{fill:url(#_ÂÁ_Ï_ÌÌ_È_ËÂÌÚ_584);}.cls-37{fill:url(#_ÂÁ_Ï_ÌÌ_È_ËÂÌÚ_670);}.cls-38{fill:url(#_ÂÁ_Ï_ÌÌ_È_ËÂÌÚ_7);}.cls-39{fill:url(#_ÂÁ_Ï_ÌÌ_È_ËÂÌÚ_365);}.cls-40{fill:#4e331d;}.cls-41{fill:url(#_ÂÁ_Ï_ÌÌ_È_ËÂÌÚ_364);}.cls-42{fill:#491e13;}.cls-43{fill:#ba7f40;}.cls-44{fill:#3b160d;}.cls-45{fill:#6c2d1b;}</style><linearGradient id="_ÂÁ_Ï_ÌÌ_È_ËÂÌÚ_641" x1="576.48" y1="298.34" x2="590.97" y2="272.87" gradientUnits="userSpaceOnUse"><stop offset="0.09" stop-color="#572d10"/><stop offset="0.49" stop-color="#8a4a20"/><stop offset="0.66" stop-color="#b3672a"/><stop offset="0.67" stop-color="#b3672a"/><stop offset="0.99" stop-color="#b96a2b"/></linearGradient><linearGradient id="_ÂÁ_Ï_ÌÌ_È_ËÂÌÚ_584" x1="579.43" y1="298.97" x2="604.54" y2="275.78" gradientUnits="userSpaceOnUse"><stop offset="0.09" stop-color="#5a2e10"/><stop offset="0.49" stop-color="#88481f"/><stop offset="0.64" stop-color="#c36e2e"/><stop offset="0.7" stop-color="#db7d34"/><stop offset="0.73" stop-color="#e3873d"/><stop offset="0.8" stop-color="#ef984b"/><stop offset="0.84" stop-color="#f49e50"/><stop offset="0.92" stop-color="#f29c4e"/><stop offset="0.95" stop-color="#ed9549"/><stop offset="0.97" stop-color="#e48a3e"/><stop offset="0.98" stop-color="#d77a31"/><stop offset="0.99" stop-color="#e38035"/></linearGradient><linearGradient id="_ÂÁ_Ï_ÌÌ_È_ËÂÌÚ_670" x1="582.64" y1="299.7" x2="607.64" y2="283.9" gradientUnits="userSpaceOnUse"><stop offset="0.09" stop-color="#572d10"/><stop offset="0.49" stop-color="#8a4a20"/><stop offset="0.78" stop-color="#b3672a"/><stop offset="0.96" stop-color="#b8692b"/><stop offset="0.99" stop-color="#b96a2b"/></linearGradient><linearGradient id="_ÂÁ_Ï_ÌÌ_È_ËÂÌÚ_7" x1="607.5" y1="286.21" x2="592.88" y2="311.55" gradientUnits="userSpaceOnUse"><stop offset="0" stop-color="#af6529"/><stop offset="0.01" stop-color="#b86f31"/><stop offset="0.03" stop-color="#c27a3a"/><stop offset="0.07" stop-color="#c88140"/><stop offset="0.16" stop-color="#ca8341"/><stop offset="0.21" stop-color="#c57d3c"/><stop offset="0.28" stop-color="#b76c2e"/><stop offset="0.3" stop-color="#b3672a"/><stop offset="0.51" stop-color="#8a4a20"/><stop offset="0.91" stop-color="#572d10"/></linearGradient><linearGradient id="_ÂÁ_Ï_ÌÌ_È_ËÂÌÚ_365" x1="638.63" y1="271.92" x2="595.12" y2="347.28" gradientUnits="userSpaceOnUse"><stop offset="0" stop-color="#d58037"/><stop offset="0.04" stop-color="#d08241"/><stop offset="0.1" stop-color="#cf8244"/><stop offset="0.3" stop-color="#cf8244"/><stop offset="0.57" stop-color="#cf8244"/><stop offset="0.62" stop-color="#cc8043"/><stop offset="0.65" stop-color="#c47b3f"/><stop offset="0.68" stop-color="#b9753a"/><stop offset="0.69" stop-color="#b06e34"/><stop offset="0.7" stop-color="#9b5d27"/><stop offset="0.73" stop-color="#7e441d"/><stop offset="0.82" stop-color="#793f1a"/><stop offset="1" stop-color="#743a18"/></linearGradient><linearGradient id="_ÂÁ_Ï_ÌÌ_È_ËÂÌÚ_364" x1="651.1" y1="274.12" x2="603.07" y2="357.32" gradientUnits="userSpaceOnUse"><stop offset="0" stop-color="#d58037"/><stop offset="0.04" stop-color="#d08241"/><stop offset="0.1" stop-color="#cf8244"/><stop offset="0.3" stop-color="#cf8244"/><stop offset="0.57" stop-color="#cf8244"/><stop offset="0.63" stop-color="#cc8043"/><stop offset="0.67" stop-color="#c47b3f"/><stop offset="0.7" stop-color="#b9753a"/><stop offset="0.71" stop-color="#b06e34"/><stop offset="0.74" stop-color="#9b5d27"/><stop offset="0.78" stop-color="#7e441d"/><stop offset="0.85" stop-color="#793f1a"/><stop offset="1" stop-color="#743a18"/></linearGradient></defs><g class="cls-1"><g id="Layer_1" data-name="Layer 1"><circle class="cls-2" cx="176.15" cy="119.23" r="19.35"/><circle class="cls-3" cx="266" cy="358" r="13.5"/><circle class="cls-4" cx="598.03" cy="75.79" r="64.29"/><circle class="cls-3" cx="502.62" cy="126.84" r="84.94"/><circle class="cls-2" cx="603.92" cy="173.8" r="55.43"/><path class="cls-5" d="M482.16,124.81l-2.22,5.7h-5.56l10.55-27.76H489l10.26,27.76h-5.63l-2.08-5.7Zm4.56-14.13h-.07l-3,9.83h6.42Z"/><path class="cls-5" d="M519.18,130.51h-6.39l-6.56-10.9h-.07v10.9h-5.27v-27H508c5.35,0,9,2.37,9,8.14,0,3.45-1.9,6.89-5.52,7.5Zm-13-14.59h.68c2.91,0,5-.86,5-4.16s-2.12-4-4.91-4h-.72Z"/><path class="cls-5" d="M539.19,130.51h-6.38l-6.57-10.9h-.07v10.9H520.9v-27H528c5.34,0,9,2.37,9,8.14,0,3.45-1.9,6.89-5.53,7.5Zm-13-14.59h.68c2.91,0,4.95-.86,4.95-4.16s-2.11-4-4.91-4h-.72Z"/><path class="cls-5" d="M546.19,130.51h-5.28v-27h5.28Z"/><path class="cls-5" d="M559.74,121.69h.08l6-18.22h5.67L561,131.23h-3.09l-10.32-27.76h5.66Z"/><path class="cls-5" d="M574.16,124.81l-2.22,5.7h-5.56l10.54-27.76H581l10.26,27.76h-5.63l-2.08-5.7Zm4.56-14.13h-.07l-3,9.83h6.42Z"/><path class="cls-5" d="M598.16,125.92h7.46v4.59H592.88v-27h5.28Z"/><ellipse id="Floor" class="cls-6" cx="531" cy="403.45" rx="192.52" ry="111.15"/><polygon class="cls-7" points="621.53 447.8 500.18 517.86 303.5 404.03 424.85 333.97 621.53 447.8"/><polygon class="cls-8" points="432.74 349.27 331.16 407.92 324.67 404.17 426.25 345.53 432.74 349.27"/><polygon class="cls-8" points="445.91 356.88 344.33 415.52 340.83 413.51 442.41 354.86 445.91 356.88"/><polygon class="cls-8" points="454.21 361.67 352.64 420.32 349.14 418.3 450.72 359.66 454.21 361.67"/><polygon class="cls-8" points="462.52 366.47 360.94 425.11 357.44 423.1 459.02 364.45 462.52 366.47"/><polygon class="cls-8" points="435.43 387.66 365.75 427.89 369.24 429.91 438.93 389.68 435.43 387.66"/><polygon class="cls-8" points="488.71 381.59 387.13 440.24 383.64 438.22 485.22 379.57 488.71 381.59"/><polygon class="cls-8" points="497.02 386.39 395.44 445.03 391.94 443.01 493.52 384.37 497.02 386.39"/><polygon class="cls-8" points="480.68 401.37 400.25 447.81 403.74 449.83 484.18 403.39 480.68 401.37"/><polygon class="cls-8" points="523.09 401.44 421.51 460.08 418.02 458.07 519.59 399.42 523.09 401.44"/><polygon class="cls-8" points="531.39 406.24 429.82 464.88 426.32 462.86 527.9 404.22 531.39 406.24"/><polygon class="cls-8" points="514.45 456.1 464.52 484.92 468.02 486.94 517.94 458.11 514.45 456.1"/><polygon class="cls-8" points="522.75 460.89 472.83 489.71 476.32 491.73 526.25 462.91 522.75 460.89"/><polygon class="cls-8" points="515.06 421.22 434.63 467.66 438.12 469.68 518.55 423.24 515.06 421.22"/><path class="cls-9" d="M621.46,424.26l-73.52,42.46-119.07-65.9,73.53-42.45c2.63-1.52,7.22-1.33,10.26.42L620.73,420c1.46.84,2.33-.52,2.51.52,0,.1,0,1,0,1.05A3,3,0,0,1,621.46,424.26Z"/><path class="cls-10" d="M621.46,423l-73.52,42.45L428.87,396.74l73.53-42.45c2.63-1.52,7.22-1.33,10.26.42l108.07,62.4C623.76,418.86,624.09,421.51,621.46,423Z"/><path class="cls-11" d="M620.38,423l-73.53,42.45L427.78,398.33l73.53-42.45c2.63-1.52,7.22-1.33,10.26.43L619.64,418.7c1.46.84,2.33-1.69,2.51-.66,0,.1,0,2.13,0,2.23A3,3,0,0,1,620.38,423Z"/><path class="cls-9" d="M621.46,420.31l-73.52,42.45-119.07-65.9L502.4,354.4c2.63-1.51,7.22-1.32,10.26.43l108.07,62.4c1.46.84,2.33-1.7,2.51-.66,0,.1,0,.95,0,1.05A3,3,0,0,1,621.46,420.31Z"/><path class="cls-12" d="M621.46,419.07l-73.52,42.45L428.87,392.78l73.53-42.45c2.63-1.52,7.22-1.33,10.26.42l108.07,62.4C623.76,414.9,624.09,417.55,621.46,419.07Z"/><path class="cls-13" d="M620.73,413.15l-108.07-62.4a10.25,10.25,0,0,0-2.36-1,8.88,8.88,0,0,1,1.2.58l108.07,62.39c3,1.76,3.37,4.41.74,5.92L547,461l.91.52,73.52-42.45C624.09,417.55,623.76,414.9,620.73,413.15Z"/><polygon class="cls-14" points="540.3 471.13 547.93 466.72 547.93 465.48 421.24 401.15 421.24 402.38 540.3 471.13"/><polygon class="cls-15" points="540.3 469.89 547.93 465.48 428.87 396.74 421.24 401.15 540.3 469.89"/><polygon class="cls-14" points="540.3 470.28 547.93 466.41 547.93 461.52 421.24 397.19 421.24 401.54 540.3 470.28"/><polygon class="cls-13" points="540.3 465.93 547.93 461.52 428.87 392.78 421.24 397.19 540.3 465.93"/><path class="cls-10" d="M539.34,470.56,421.25,402.38l-.9-.47a4,4,0,0,1-.62-.94,2.12,2.12,0,0,1,0-2.2,1.44,1.44,0,0,1,.27-.34l1.21-1.23,119,68.73-1.19,1.23a2.06,2.06,0,0,0-.32.41.73.73,0,0,0-.15.29A2.62,2.62,0,0,0,539.34,470.56Z"/><path class="cls-16" d="M539.34,470.56l1,.55-.9-.47Z"/><path class="cls-17" d="M540.3,465.93l-1.19,1.23a2.06,2.06,0,0,0-.32.41.73.73,0,0,0-.15.29,2.65,2.65,0,0,0-.24,1.61L419.73,401a2.12,2.12,0,0,1,0-2.2,1.44,1.44,0,0,1,.27-.34l1.21-1.23Z"/><path class="cls-13" d="M539.07,467.22l0-.06,1.19-1.23-119-68.73L420,398.43s0,0,0,.05Z"/><polygon class="cls-13" points="547.93 461.52 540.3 465.93 539.52 465.48 547.02 461 547.93 461.52"/><polygon class="cls-13" points="545.54 462.9 547.93 461.52 428.87 392.78 426.48 394.16 545.54 462.9"/><path class="cls-18" d="M461.22,388.22a4.15,4.15,0,0,1,2-.58,3.35,3.35,0,0,1,1.82.44c.53.31.79.66.76,1.05s-.37.77-1,1.14l-1.27.73,1.75,1,.78-.32.52.3-2.15,1.24-.51-.3.55-.45-4.67-2.7-.79.32-.52-.3.67-.38Zm1.66,2.42,1.27-.73c.4-.24.6-.47.58-.71s-.19-.46-.52-.65a2.28,2.28,0,0,0-1.12-.3,2.38,2.38,0,0,0-1.24.33l-1.27.73Z"/><path class="cls-18" d="M468.12,390.49l.38-.29-3.27-4.3.69-.4,7.42,1.91.5-.21.51.29-1.71,1-.52-.29.38-.31-1.49-.4-2.4,1.38.69.86.53-.21.52.29-1.72,1Zm.07-2.17,1.9-1.09-3.48-.94,0,0Z"/><path class="cls-18" d="M475,382.29l-.61.35-1-.4a3.18,3.18,0,0,0-.74.14,3.07,3.07,0,0,0-.82.35c-.43.24-.67.49-.72.72s.07.45.37.61a1.61,1.61,0,0,0,1,.17,6.44,6.44,0,0,0,1.59-.39,6.94,6.94,0,0,1,2.12-.43,3,3,0,0,1,1.61.36c.48.28.67.61.57,1a2.12,2.12,0,0,1-1.11,1.14,5.18,5.18,0,0,1-1.45.58,5.7,5.7,0,0,1-1.45.16l-1.11-.64.61-.34,1,.4a5.61,5.61,0,0,0,.87-.14,4.24,4.24,0,0,0,.9-.38,1.44,1.44,0,0,0,.71-.71c.06-.24-.05-.43-.35-.61a1.91,1.91,0,0,0-1-.21,5.28,5.28,0,0,0-1.55.36,7.76,7.76,0,0,1-2.14.47,2.8,2.8,0,0,1-1.63-.33.91.91,0,0,1-.57-1,2,2,0,0,1,1.09-1.16,4.93,4.93,0,0,1,1.35-.53,5.71,5.71,0,0,1,1.35-.18Z"/><path class="cls-18" d="M480.11,379.33l-.61.35-1-.39a3.28,3.28,0,0,0-.75.13,4,4,0,0,0-.81.35c-.43.25-.67.5-.72.73s.07.44.36.61a1.72,1.72,0,0,0,1,.17,7.64,7.64,0,0,0,1.59-.39,7,7,0,0,1,2.12-.44,3.07,3.07,0,0,1,1.61.37c.48.27.67.61.56,1a2.14,2.14,0,0,1-1.1,1.14,5.47,5.47,0,0,1-1.45.57,5.8,5.8,0,0,1-1.46.17l-1.1-.64.6-.35,1,.4a3.84,3.84,0,0,0,.87-.14,3.47,3.47,0,0,0,.9-.38c.41-.23.65-.47.71-.7s-.05-.44-.34-.61a1.82,1.82,0,0,0-1-.22,6,6,0,0,0-1.55.36,7.88,7.88,0,0,1-2.14.48,2.8,2.8,0,0,1-1.63-.33c-.47-.27-.66-.6-.57-1a2,2,0,0,1,1.09-1.16,5.15,5.15,0,0,1,1.35-.54,6.23,6.23,0,0,1,1.35-.17Z"/><path class="cls-18" d="M481.9,376.28a4.08,4.08,0,0,1,2-.58,3.5,3.5,0,0,1,1.83.44c.53.31.79.66.75,1.05s-.36.77-1,1.14l-1.26.73,1.75,1,.78-.32.51.29-2.14,1.24-.51-.3.55-.45-4.68-2.7-.78.32-.52-.3.67-.38Zm1.66,2.42,1.26-.73c.41-.23.6-.47.59-.71a.88.88,0,0,0-.52-.65,2.28,2.28,0,0,0-1.12-.3,2.36,2.36,0,0,0-1.24.33l-1.27.74Z"/><path class="cls-18" d="M492.83,373.45a2.42,2.42,0,0,1,1.4,1.67q.11.93-1.08,1.62a5,5,0,0,1-2.74.59,6.22,6.22,0,0,1-2.87-.83l-.09-.05a2.5,2.5,0,0,1-1.43-1.66c-.09-.61.25-1.13,1-1.58a5.07,5.07,0,0,1,2.8-.62,6.14,6.14,0,0,1,2.9.81Zm-.91.41a5.11,5.11,0,0,0-2.18-.69,3.53,3.53,0,0,0-2,.42c-.57.33-.79.71-.66,1.15a2.36,2.36,0,0,0,1.21,1.24l.1.06a5.23,5.23,0,0,0,2.17.7,3.28,3.28,0,0,0,2-.38c.6-.34.84-.74.74-1.18a2.27,2.27,0,0,0-1.21-1.26Z"/><path class="cls-18" d="M493,369.85a4.4,4.4,0,0,1,1.93-.62,3,3,0,0,1,1.74.41,1,1,0,0,1,.53.58.8.8,0,0,1-.17.7,2.89,2.89,0,0,1,1.22-.11,3.27,3.27,0,0,1,1.11.39l.47.28a1.58,1.58,0,0,0,.48.19.7.7,0,0,0,.38,0l.22-.1.53.3-.44.25a1.52,1.52,0,0,1-1,.2,2.73,2.73,0,0,1-1-.34l-.46-.27a2.09,2.09,0,0,0-1.07-.28,2,2,0,0,0-1,.26l-1.3.75,2,1.17.78-.32.51.3-2.14,1.24-.52-.3.56-.45-4.68-2.7-.78.32-.52-.3.67-.39Zm1.51,2.19,1.07-.61q.67-.39.72-.72c0-.22-.11-.42-.44-.61a1.94,1.94,0,0,0-1-.26,2.52,2.52,0,0,0-1.19.37l-1.14.66Z"/><path class="cls-18" d="M500.61,365.48l1.31.76-.69.39-.75-.35-1.32.76,4.68,2.7.78-.32.51.3L503,371l-.52-.3.56-.45-4.68-2.7-1.33.77.63.42-.7.4-1.31-.75Z"/><polygon class="cls-18" points="576.05 427.82 581.24 430.81 571.5 436.44 566.31 433.44 576.05 427.82"/><polygon class="cls-12" points="578.25 429.08 579.05 429.55 569.31 435.17 568.5 434.71 578.25 429.08"/><path class="cls-12" d="M575.71,431c1.07.61,1.06,1.61,0,2.23a4.27,4.27,0,0,1-3.86,0,1.18,1.18,0,0,1,0-2.23A4.24,4.24,0,0,1,575.71,431Z"/><path class="cls-18" d="M575.05,431.39a.78.78,0,0,1,0,1.47,2.83,2.83,0,0,1-2.55,0,.78.78,0,0,1,0-1.47A2.81,2.81,0,0,1,575.05,431.39Z"/><path class="cls-18" d="M548.69,417.64c-14.25,8.23-37.37,8.27-51.53.1s-14.09-21.52.16-29.75,37.37-8.27,51.53-.1S562.94,409.42,548.69,417.64ZM498,388.37c-13.88,8-14,21-.15,29s36.31,7.93,50.2-.09,14-21,.15-29S511.87,380.35,498,388.37Z"/><path class="cls-18" d="M548.69,417.64c-14.25,8.23-37.37,8.27-51.53.1s-14.09-21.52.16-29.75,37.37-8.27,51.53-.1S562.94,409.42,548.69,417.64ZM498,388.37c-13.88,8-14,21-.15,29s36.31,7.93,50.2-.09,14-21,.15-29S511.87,380.35,498,388.37Z"/><path class="cls-18" d="M530.21,407c-14.49,8.36-28.93,13.13-32.87,10.86l.67-.39c3.07,1.78,16.48-2.16,31.54-10.86s21.89-16.43,18.81-18.21L549,388C553,390.27,544.7,398.61,530.21,407Z"/><path class="cls-18" d="M548.76,417.68a.86.86,0,0,1-.62.08c-1.68-.42-16.89-4.28-30.07-11.89s-19.86-16.38-20.58-17.36h0c-.09-.12,0-.26.12-.36a.92.92,0,0,1,.62-.07c1.69.42,16.88,4.27,30.07,11.89s19.87,16.38,20.58,17.36C549,417.45,548.92,417.59,548.76,417.68Zm-50-28.87a71.21,71.21,0,0,0,20,16.68c11.75,6.78,25.1,10.55,28.88,11.54a71.39,71.39,0,0,0-20-16.68C515.88,393.57,502.53,389.8,498.75,388.81Z"/><path class="cls-18" d="M549.05,417.85c-7.77,4.49-25.7,1.44-40-6.79S489.55,392.48,497.32,388s25.7-1.44,40,6.79S556.82,413.36,549.05,417.85ZM498,388.37c-7.4,4.27-2.12,14.28,11.78,22.3s31.22,11.07,38.63,6.8,2.12-14.28-11.78-22.3S505.39,384.1,498,388.37Z"/><path class="cls-18" d="M549.05,417.85c-12.07,7-33.48,5.94-47.75-2.3s-16.05-20.6-4-27.56,33.49-5.94,47.75,2.3S561.12,410.89,549.05,417.85ZM498,388.37c-11.7,6.75-9.91,18.77,4,26.8s34.72,9.05,46.42,2.3,9.91-18.78-4-26.8S509.68,381.62,498,388.37Z"/><path class="cls-18" d="M502.25,390.83c-4.21,2.43-9.31,4.4-10.93,3.47a.72.72,0,0,1-.4-.79l.94,0a.31.31,0,0,0,.13.36c.74.43,4.84-.71,9.6-3.46s6.73-5.12,6-5.54a2.91,2.91,0,0,0-1.6.06l-.32-.51a3.92,3.92,0,0,1,2.59.06C509.87,385.46,506.46,388.4,502.25,390.83Z"/><path class="cls-18" d="M513.06,397.07c-9.87,5.7-22.14,10.4-25.59,8.41l-.6-.35.67-.39.6.35c2.34,1.36,12.65-1.7,24.25-8.4s16.85-12.59,14.59-14l-1-.35.5-.47,1.11.41C531.07,384.29,522.92,391.37,513.06,397.07Z"/><path class="cls-18" d="M544.64,415.31c-8.84,5.1-18.11,8.61-22.55,8.53l0-.54c4.13.07,13.32-3.45,21.85-8.37s14.53-10.12,14.5-12.57h.94C559.46,404.94,553.38,410.26,544.64,415.31Z"/><path class="cls-18" d="M521.87,402.16c-13.74,7.93-27.44,12.46-31.18,10.29l-.5-.37.76-.33.45.34c2.86,1.65,15.55-2.08,29.81-10.31s20.69-15.52,17.84-17.22l-.68-.28.55-.45.78.33C543.44,386.32,535.61,394.23,521.87,402.16Z"/><path class="cls-18" d="M537.8,411.36c-12,6.92-24.37,11.42-29.48,10.72a6,6,0,0,1-.83-.19l.44-.47c.18.05.39.09.62.13,4.73.65,17-3.89,28.59-10.58,11.35-6.55,19.23-13.6,18.35-16.4a1.26,1.26,0,0,0-.26-.45l.83-.25a1.66,1.66,0,0,1,.35.6C557.37,397.48,549.54,404.58,537.8,411.36Z"/><path class="cls-18" d="M554.56,423.23h-.41a5.76,5.76,0,0,1,1-3,12.55,12.55,0,0,1,2.28-2.69l.71-.63.76-.61,1.5-1.21a27.36,27.36,0,0,0,2.59-2.57,14.42,14.42,0,0,0,3.84-11.51c-.53-3.95-2.8-7.79-6.43-11.13a30.9,30.9,0,0,0-6.49-4.56,37.33,37.33,0,0,0-8.48-3.28l.07-.09a37.83,37.83,0,0,1,8.54,3.28,31.15,31.15,0,0,1,6.55,4.58c3.67,3.35,6,7.21,6.53,11.19a14.53,14.53,0,0,1-3.82,11.61,24.47,24.47,0,0,1-2.6,2.59l-1.5,1.23-.75.6-.7.62a12.66,12.66,0,0,0-2.23,2.66A5.65,5.65,0,0,0,554.56,423.23Z"/><path class="cls-18" d="M551.45,382.8a1.09,1.09,0,0,1,.4.88.66.66,0,0,1-.14.33l-.79-.42a8.65,8.65,0,0,1-1.36-.94c-.77-.69-.5-1.21-.5-1.21s.42.16.93.4c.25.13.54.27.79.43A4.23,4.23,0,0,1,551.45,382.8Z"/><path class="cls-18" d="M555.22,384.56a.91.91,0,0,1,.18.9.76.76,0,0,1-.2.33l-.2-.14c-.13-.08-.28-.21-.48-.35a5.28,5.28,0,0,1-1.12-1c-.6-.73-.2-1.23-.2-1.23s.38.19.82.47A4.61,4.61,0,0,1,555.22,384.56Z"/><path class="cls-18" d="M558.55,386.58a.92.92,0,0,1,0,.91,1,1,0,0,1-.27.31s-.26-.22-.57-.54a4.26,4.26,0,0,1-.89-1.1,1.11,1.11,0,0,1-.11-.91.81.81,0,0,1,.19-.32,8.35,8.35,0,0,1,.71.52A3.87,3.87,0,0,1,558.55,386.58Z"/><path class="cls-18" d="M561.44,388.81a1,1,0,0,1-.19.9,1.3,1.3,0,0,1-.32.29,5.27,5.27,0,0,1-.46-.57,3.41,3.41,0,0,1-.68-1.16,1.18,1.18,0,0,1,.07-.9,1,1,0,0,1,.27-.31,8.08,8.08,0,0,1,.6.56A3.4,3.4,0,0,1,561.44,388.81Z"/><path class="cls-18" d="M563.88,391.2a1.11,1.11,0,0,1-.35.88,1.33,1.33,0,0,1-.38.27,5.62,5.62,0,0,1-.36-.59,3.17,3.17,0,0,1-.44-1.19,1.23,1.23,0,0,1,.24-.9,1.08,1.08,0,0,1,.32-.29,6.54,6.54,0,0,1,.49.59A3,3,0,0,1,563.88,391.2Z"/><path class="cls-18" d="M565.87,393.72a1.33,1.33,0,0,1-.52.86,1.67,1.67,0,0,1-.42.24,4,4,0,0,1-.24-.61,2.73,2.73,0,0,1-.24-1.21,1.4,1.4,0,0,1,.41-.87,1.33,1.33,0,0,1,.38-.27,4.07,4.07,0,0,1,.37.62A2.79,2.79,0,0,1,565.87,393.72Z"/><path class="cls-18" d="M567.38,396.36a1.5,1.5,0,0,1-.68.82,1.94,1.94,0,0,1-.46.22,4.77,4.77,0,0,1-.13-.63,2.51,2.51,0,0,1,0-1.22,1.52,1.52,0,0,1,.56-.84,2,2,0,0,1,.42-.25,4.67,4.67,0,0,1,.26.64A2.68,2.68,0,0,1,567.38,396.36Z"/><path class="cls-18" d="M568.38,399.08a1.74,1.74,0,0,1-.82.78,2.06,2.06,0,0,1-.51.18v-.18c0-.11,0-.27,0-.45a2.7,2.7,0,0,1,.24-1.21,2,2,0,0,1,1.18-1,5.12,5.12,0,0,1,.13.65A2.56,2.56,0,0,1,568.38,399.08Z"/><path class="cls-18" d="M568.85,401.85a2.05,2.05,0,0,1-1,.72,2.59,2.59,0,0,1-.54.15s0-.27.11-.63a3.17,3.17,0,0,1,.48-1.19,2.31,2.31,0,0,1,1.36-.94,4,4,0,0,1,0,.66A2.51,2.51,0,0,1,568.85,401.85Z"/><path class="cls-18" d="M547.23,381.45c.81.6.54,1.06.54,1.06s-.37-.12-.82-.31c-.24-.1-.49-.21-.74-.34a8,8,0,0,1-.72-.39,1.72,1.72,0,0,1-.69-.74.47.47,0,0,1-.06-.3,1.28,1.28,0,0,1,.28.07l.66.21A5.85,5.85,0,0,1,547.23,381.45Z"/><path class="cls-18" d="M549.33,384.54a5.31,5.31,0,0,0,1.5-.09,2.09,2.09,0,0,0,.51-.16,6.18,6.18,0,0,0-.92-.3,8.59,8.59,0,0,0-1.94-.35,3.23,3.23,0,0,0-1.93.37s.37.11.9.23c.26.06.58.11.9.17A7.71,7.71,0,0,0,549.33,384.54Z"/><path class="cls-18" d="M552.71,386.13a5.57,5.57,0,0,0,1.51,0,2.91,2.91,0,0,0,.54-.12l-.22-.12a5.84,5.84,0,0,0-.61-.26,9.29,9.29,0,0,0-1.84-.5,3.62,3.62,0,0,0-2,.21s.34.14.85.3A12.58,12.58,0,0,0,552.71,386.13Z"/><path class="cls-18" d="M555.74,388a5.81,5.81,0,0,0,1.48.14,2.4,2.4,0,0,0,.57-.09s-.29-.19-.75-.43a8.12,8.12,0,0,0-1.73-.63,3.78,3.78,0,0,0-2,.06s.32.16.79.36A9.47,9.47,0,0,0,555.74,388Z"/><path class="cls-18" d="M558.38,390a5,5,0,0,0,1.45.24,2.88,2.88,0,0,0,.58-.05s-.26-.21-.66-.48a6.77,6.77,0,0,0-1.6-.73,4.09,4.09,0,0,0-1.48-.18,2.4,2.4,0,0,0-.57.09s.28.18.72.41A7.12,7.12,0,0,0,558.38,390Z"/><path class="cls-18" d="M560.62,392.18a4.48,4.48,0,0,0,1.39.33,2.55,2.55,0,0,0,.59,0A7.39,7.39,0,0,0,562,392a6.36,6.36,0,0,0-1.45-.83,4.15,4.15,0,0,0-1.44-.27,2.88,2.88,0,0,0-.58.05s.25.2.64.46A6.24,6.24,0,0,0,560.62,392.18Z"/><path class="cls-18" d="M562.44,394.51a4.77,4.77,0,0,0,1.33.41,3.2,3.2,0,0,0,.58,0,5.85,5.85,0,0,0-.46-.55,5.42,5.42,0,0,0-1.3-.92,3.78,3.78,0,0,0-1.37-.35,3.45,3.45,0,0,0-.59,0s.21.22.54.5A6,6,0,0,0,562.44,394.51Z"/><path class="cls-18" d="M563.82,396.93a4,4,0,0,0,1.25.49,3.7,3.7,0,0,0,.58.06,3.3,3.3,0,0,0-.37-.58,4.54,4.54,0,0,0-1.11-1,3.48,3.48,0,0,0-1.31-.44,3.2,3.2,0,0,0-.58,0,7.15,7.15,0,0,0,1.54,1.48Z"/><path class="cls-18" d="M564.74,399.42a3.58,3.58,0,0,0,1.15.57,3.23,3.23,0,0,0,.56.09l-.06-.17a2.33,2.33,0,0,0-.19-.42,4,4,0,0,0-.91-1.06,3.2,3.2,0,0,0-1.8-.57,6.23,6.23,0,0,0,1.25,1.56Z"/><path class="cls-18" d="M565.17,402a3.13,3.13,0,0,0,1,.63,2.28,2.28,0,0,0,.53.13,1.06,1.06,0,0,0,0-.17,1.73,1.73,0,0,0-.12-.44,3.06,3.06,0,0,0-.68-1.1,3,3,0,0,0-1.68-.69,3.57,3.57,0,0,0,.23.57A4.16,4.16,0,0,0,565.17,402Z"/><path class="cls-18" d="M568.77,404.65a2.72,2.72,0,0,1-1.66.76,1.44,1.44,0,0,1,.07-.18,4.64,4.64,0,0,1,.15-.44,4.18,4.18,0,0,1,.72-1.15,2.71,2.71,0,0,1,1.54-.85,3.54,3.54,0,0,1-.13.66A2.7,2.7,0,0,1,568.77,404.65Z"/><path class="cls-18" d="M568.1,407.42a3,3,0,0,1-1.79.64,3.92,3.92,0,0,1,.34-.6,5.48,5.48,0,0,1,1-1.1,3.23,3.23,0,0,1,1.72-.73,4.43,4.43,0,0,1-.28.64,3.46,3.46,0,0,1-.36.59A3.86,3.86,0,0,1,568.1,407.42Z"/><path class="cls-18" d="M566.86,410.13a3.42,3.42,0,0,1-1.93.5,5.91,5.91,0,0,1,.47-.56c.15-.16.34-.34.54-.52a4.47,4.47,0,0,1,.63-.5,3.69,3.69,0,0,1,1.88-.61,5.53,5.53,0,0,1-.42.62A4.24,4.24,0,0,1,566.86,410.13Z"/><path class="cls-18" d="M565.06,412.74a3.85,3.85,0,0,1-2,.35s.24-.23.61-.52a8.59,8.59,0,0,1,1.37-.94,5,5,0,0,1,1.4-.44,2.91,2.91,0,0,1,.59,0,3.45,3.45,0,0,1-.54.59A6,6,0,0,1,565.06,412.74Z"/><path class="cls-18" d="M562.7,415.18a4.11,4.11,0,0,1-1.5.28,2.76,2.76,0,0,1-.58,0l.2-.14.5-.34a7.9,7.9,0,0,1,1.57-.84,5.51,5.51,0,0,1,1.45-.34,3.45,3.45,0,0,1,.59,0,6.17,6.17,0,0,1-.63.55A7.09,7.09,0,0,1,562.7,415.18Z"/><path class="cls-18" d="M560,417.43a5.34,5.34,0,0,1-1.46.21,2.88,2.88,0,0,1-.58-.05,6.82,6.82,0,0,1,.69-.47,8.61,8.61,0,0,1,1.63-.73,4.39,4.39,0,0,1,2.11-.19s-.31.22-.76.5c-.23.13-.5.28-.78.42S560.3,417.34,560,417.43Z"/><path class="cls-18" d="M565.1,404.5a2.59,2.59,0,0,0,1.4.87l0-.17a2.74,2.74,0,0,0,0-.45,2.3,2.3,0,0,0-.46-1.14,2.49,2.49,0,0,0-1.52-.79,3.72,3.72,0,0,0,.11.58A3.62,3.62,0,0,0,565.1,404.5Z"/><path class="cls-18" d="M564.5,407a2.07,2.07,0,0,0,1.21,1,3.87,3.87,0,0,0,.1-.61,1.87,1.87,0,0,0-.22-1.18,2.11,2.11,0,0,0-1.33-.89,2.94,2.94,0,0,0,0,.58,4.19,4.19,0,0,0,.08.56A1.72,1.72,0,0,0,564.5,407Z"/><path class="cls-18" d="M563.37,409.47a1.7,1.7,0,0,0,1,1,3.55,3.55,0,0,0,.23-.6,2.5,2.5,0,0,0,.13-.57,1.77,1.77,0,0,0-.1-.61,1.67,1.67,0,0,0-1.12-1,3.66,3.66,0,0,0-.15.57A3.37,3.37,0,0,0,563.37,409.47Z"/><path class="cls-18" d="M561.74,411.83a1.32,1.32,0,0,0,.73,1.1,5.64,5.64,0,0,0,.39-.58,2.15,2.15,0,0,0,.27-1.17,1.19,1.19,0,0,0-.49-.81,1.82,1.82,0,0,0-.43-.24s-.1.24-.26.56A2.55,2.55,0,0,0,561.74,411.83Z"/><path class="cls-18" d="M559.59,414.06a1.28,1.28,0,0,0,.22.87,1.3,1.3,0,0,0,.3.28l.16-.15a2.06,2.06,0,0,0,.33-.4,2.76,2.76,0,0,0,.53-1.14,1,1,0,0,0-.34-.85,1.55,1.55,0,0,0-.36-.27,4.14,4.14,0,0,0-.35.55A2.65,2.65,0,0,0,559.59,414.06Z"/><path class="cls-18" d="M557,416.21a1,1,0,0,0,.13.91,1.3,1.3,0,0,0,.32.29s.23-.24.49-.56a3.27,3.27,0,0,0,.71-1.15,1,1,0,0,0-.46-1.15,5.74,5.74,0,0,0-.48.51,4.37,4.37,0,0,0-.38.52A2.73,2.73,0,0,0,557,416.21Z"/><path class="cls-18" d="M545.72,383.21a3.48,3.48,0,0,0,1.75-.39s-.37-.1-.9-.19c-.27-.05-.57-.1-.88-.13a7.53,7.53,0,0,0-1,0,3.54,3.54,0,0,0-1.26.26,1.12,1.12,0,0,0-.37.23,1.41,1.41,0,0,1,.25,0l.61.1A15.63,15.63,0,0,0,545.72,383.21Z"/><path class="cls-18" d="M542.67,381.76a16.42,16.42,0,0,0,1.8.21c.47,0,.79,0,.79,0a5.8,5.8,0,0,0-.62-.3,7.66,7.66,0,0,0-1.69-.48,9.5,9.5,0,0,0-1.88-.14c-.49,0-.79,0-.79,0s.26.1.69.23A16.15,16.15,0,0,0,542.67,381.76Z"/><path class="cls-18" d="M558.39,420.79l0,.24a25,25,0,0,0-5,.54,32.3,32.3,0,0,0-4.6,1.28l-1.08.4-1,.44-2.12.86c-1.45.55-2.94,1.06-4.49,1.5a63.34,63.34,0,0,1-20.12,2.21,66.57,66.57,0,0,1-19.38-3.77,41.11,41.11,0,0,1-7.91-3.78,20.92,20.92,0,0,1-5.69-4.93l.15,0a20.92,20.92,0,0,0,5.68,4.89,40.57,40.57,0,0,0,7.89,3.75A66.07,66.07,0,0,0,520,428.09a62.38,62.38,0,0,0,19.94-2.22c1.54-.44,3-.95,4.45-1.49l2.09-.86,1.06-.44,1.09-.41a32.92,32.92,0,0,1,4.67-1.32A26,26,0,0,1,558.39,420.79Z"/><path class="cls-18" d="M491.35,418a1.1,1.1,0,0,1-.43,1.16,3.14,3.14,0,0,1-.53-.53,2.26,2.26,0,0,1-.59-1.12,1.12,1.12,0,0,1,.64-1.11,4.45,4.45,0,0,1,.39.52,4.19,4.19,0,0,1,.3.52A1.77,1.77,0,0,1,491.35,418Z"/><path class="cls-18" d="M494.09,420a1.1,1.1,0,0,1,.06.86.84.84,0,0,1-.21.32l-.19-.13a4.7,4.7,0,0,1-.46-.35,3.6,3.6,0,0,1-.87-1.06,1,1,0,0,1,.36-1.17,5.45,5.45,0,0,1,.52.49A4,4,0,0,1,494.09,420Z"/><path class="cls-18" d="M497.27,421.71a1.17,1.17,0,0,1,.24.86.78.78,0,0,1-.14.33s-.34-.17-.76-.43a4.72,4.72,0,0,1-1.08-1,.89.89,0,0,1,.09-1.19s.29.19.63.46A4.71,4.71,0,0,1,497.27,421.71Z"/><path class="cls-18" d="M500.79,423.24a1.24,1.24,0,0,1,.41.83.7.7,0,0,1-.08.34s-.37-.15-.83-.38a5.33,5.33,0,0,1-1.28-.93,1,1,0,0,1-.3-.85.72.72,0,0,1,.15-.33s.32.17.72.42A4.89,4.89,0,0,1,500.79,423.24Z"/><path class="cls-18" d="M504.59,424.53a1.5,1.5,0,0,1,.57.81.57.57,0,0,1,0,.33s-.4-.12-.9-.32a6.33,6.33,0,0,1-1.44-.84,1.09,1.09,0,0,1-.46-.83.59.59,0,0,1,.08-.34s.35.15.79.37A6.14,6.14,0,0,1,504.59,424.53Z"/><path class="cls-18" d="M508.61,425.58a1.69,1.69,0,0,1,.71.77.64.64,0,0,1,.05.34s-.42-.1-1-.27a7.41,7.41,0,0,1-1.58-.75,1.32,1.32,0,0,1-.62-.79.6.6,0,0,1,0-.34s.38.12.86.31A7.09,7.09,0,0,1,508.61,425.58Z"/><path class="cls-18" d="M512.81,426.38a2.33,2.33,0,0,1,.85.72.65.65,0,0,1,.1.33s-.44-.07-1-.21a8.14,8.14,0,0,1-1.71-.64,1.52,1.52,0,0,1-.76-.76.53.53,0,0,1,0-.33s.4.09.91.26A8.25,8.25,0,0,1,512.81,426.38Z"/><path class="cls-18" d="M517.13,426.91a2.71,2.71,0,0,1,1,.67.63.63,0,0,1,.16.32l-.29,0c-.19,0-.45-.06-.74-.12a10.12,10.12,0,0,1-1.83-.52c-1-.5-1-1-1-1s.41.07,1,.2A9.32,9.32,0,0,1,517.13,426.91Z"/><path class="cls-18" d="M521.52,427.16a3.36,3.36,0,0,1,1.1.6.83.83,0,0,1,.23.31l-.3,0a6.14,6.14,0,0,1-.76-.06,10.57,10.57,0,0,1-1.92-.4c-1.14-.44-1.18-1-1.18-1s.42,0,1,.13A14.34,14.34,0,0,1,521.52,427.16Z"/><path class="cls-18" d="M489.05,415.93a1.28,1.28,0,0,1-.68,1,4.1,4.1,0,0,1-.33-.52,4,4,0,0,1-.23-.51,1.46,1.46,0,0,1,0-.55,1.1,1.1,0,0,1,.46-.73,1.46,1.46,0,0,1,.38-.2.92.92,0,0,0,.07.13,2.53,2.53,0,0,1,.16.36A3.3,3.3,0,0,1,489.05,415.93Z"/><path class="cls-18" d="M488.34,419.24a4,4,0,0,0,1.51.22,2.62,2.62,0,0,0,.59-.07l-.74-.46a10.79,10.79,0,0,0-1.63-.78,4.31,4.31,0,0,0-2.09-.29s.28.24.7.53a6.82,6.82,0,0,0,.74.47A8.44,8.44,0,0,0,488.34,419.24Z"/><path class="cls-18" d="M491.39,421.42a4.75,4.75,0,0,0,1.57.1,2.17,2.17,0,0,0,.55-.12l-.24-.11c-.14-.07-.37-.16-.6-.28a10.16,10.16,0,0,0-1.8-.65,4.43,4.43,0,0,0-2.12-.11,8,8,0,0,0,.81.47A8.12,8.12,0,0,0,491.39,421.42Z"/><path class="cls-18" d="M494.89,423.34a4.68,4.68,0,0,0,1.57,0,2.78,2.78,0,0,0,.53-.15s-.38-.16-.92-.33a11.07,11.07,0,0,0-1.92-.52,5.86,5.86,0,0,0-1.56-.07,2.92,2.92,0,0,0-.56.12s.36.19.89.41A10.63,10.63,0,0,0,494.89,423.34Z"/><path class="cls-18" d="M498.74,425a4.81,4.81,0,0,0,1.56-.11,2,2,0,0,0,.5-.19s-.4-.13-1-.27a12.26,12.26,0,0,0-2-.38,5.07,5.07,0,0,0-1.57,0,2.08,2.08,0,0,0-.53.15s.39.16,1,.34A12.29,12.29,0,0,0,498.74,425Z"/><path class="cls-18" d="M502.88,426.42a4.73,4.73,0,0,0,1.53-.21,1.7,1.7,0,0,0,.46-.22s-.42-.1-1-.2a11.58,11.58,0,0,0-2.06-.26,5.59,5.59,0,0,0-1.56.14,2.24,2.24,0,0,0-.5.19s.43.13,1,.28A12.63,12.63,0,0,0,502.88,426.42Z"/><path class="cls-18" d="M507.26,427.56a4.19,4.19,0,0,0,1.49-.3,1.66,1.66,0,0,0,.41-.24s-.44-.08-1.06-.14a12.54,12.54,0,0,0-2.09-.13,5.14,5.14,0,0,0-1.52.23,1.7,1.7,0,0,0-.46.22s.44.11,1.07.21A12.49,12.49,0,0,0,507.26,427.56Z"/><path class="cls-18" d="M511.82,428.43a3.68,3.68,0,0,0,1.43-.39,1.16,1.16,0,0,0,.37-.27s-.45,0-1.08-.07a13.5,13.5,0,0,0-2.11,0A4.71,4.71,0,0,0,509,428a1.33,1.33,0,0,0-.42.24s.47.08,1.11.15A13.08,13.08,0,0,0,511.82,428.43Z"/><path class="cls-18" d="M516.54,429a3.37,3.37,0,0,0,1.34-.47,1.11,1.11,0,0,0,.32-.29h-1.09a13.92,13.92,0,0,0-2.1.13,2.91,2.91,0,0,0-1.77.68s.47.06,1.12.08A12.42,12.42,0,0,0,516.54,429Z"/><path class="cls-18" d="M521.34,429.28a2.77,2.77,0,0,0,1.24-.55.91.91,0,0,0,.26-.31l-1.08.06a13,13,0,0,0-2.07.28c-1.31.27-1.63.78-1.63.78s.49,0,1.14,0A10.51,10.51,0,0,0,521.34,429.28Z"/><path class="cls-18" d="M525.92,427.12c1.22.31,1.51.81,1.51.81h-.3l-.77,0a9.6,9.6,0,0,1-2-.26c-1.23-.35-1.38-.88-1.38-.88s.43,0,1,.07A13.35,13.35,0,0,1,525.92,427.12Z"/><path class="cls-18" d="M530.28,426.77a2.78,2.78,0,0,1,1.67.7s-.45,0-1.06.06a9.45,9.45,0,0,1-2-.13c-1.28-.26-1.53-.77-1.53-.77s.42,0,1,0c.3,0,.63,0,1,.05S530,426.72,530.28,426.77Z"/><path class="cls-18" d="M534.53,426.12a3.18,3.18,0,0,1,1.81.57s-.44.08-1,.14c-.31,0-.65.06-1,.07a9,9,0,0,1-1-.06c-1.32-.15-1.69-.64-1.69-.64s.42-.06,1-.09A16.24,16.24,0,0,1,534.53,426.12Z"/><path class="cls-18" d="M538.62,425.18a3.6,3.6,0,0,1,1.91.42s-.42.11-1,.22a9.45,9.45,0,0,1-2,.16,3.85,3.85,0,0,1-1.41-.28,1.47,1.47,0,0,1-.41-.25l1-.15A11.21,11.21,0,0,1,538.62,425.18Z"/><path class="cls-18" d="M542.48,423.94a6.31,6.31,0,0,1,1.5.12,2.37,2.37,0,0,1,.49.18l-.26.09a4.87,4.87,0,0,1-.69.19,10,10,0,0,1-2,.3,4.09,4.09,0,0,1-1.47-.19,1.75,1.75,0,0,1-.46-.21s.4-.1,1-.2A10.55,10.55,0,0,1,542.48,423.94Z"/><path class="cls-18" d="M546.21,422.44a4.51,4.51,0,0,1,1.57.08,1.81,1.81,0,0,1,.5.18l-1,.29a10.35,10.35,0,0,1-2,.4,3.51,3.51,0,0,1-2-.26s.36-.13.88-.28l.9-.22A11,11,0,0,1,546.21,422.44Z"/><path class="cls-18" d="M526.18,429.23c1.25-.4,1.31-1,1.31-1l-.3,0-.76.09a14.8,14.8,0,0,0-2,.41c-1.26.37-1.47.9-1.47.9s.49,0,1.14-.08A9.34,9.34,0,0,0,526.18,429.23Z"/><path class="cls-18" d="M531,428.85c1.15-.5,1.11-1,1.11-1s-.45.06-1,.19a15.24,15.24,0,0,0-1.91.55c-1.17.45-1.27,1-1.27,1s.48-.05,1.12-.16c.31-.05.67-.12,1-.2A7.85,7.85,0,0,0,531,428.85Z"/><path class="cls-18" d="M535.67,428.13c1-.58.88-1.11.88-1.11s-.43.1-1,.27l-.89.31a6.46,6.46,0,0,0-.88.37c-1.07.54-1.06,1.08-1.06,1.08s.47-.08,1.07-.24A7.49,7.49,0,0,0,535.67,428.13Z"/><path class="cls-18" d="M540.19,427.09c.89-.66.62-1.18.62-1.18s-.4.14-.91.36a11,11,0,0,0-1.62.78,2,2,0,0,0-.76.81.53.53,0,0,0,0,.34,8.39,8.39,0,0,0,1-.31A8.12,8.12,0,0,0,540.19,427.09Z"/><path class="cls-18" d="M544.43,425.73a1.11,1.11,0,0,0,.48-.86.59.59,0,0,0-.1-.34l-.23.11-.6.3a7,7,0,0,0-1.44.9,1.62,1.62,0,0,0-.59.84.51.51,0,0,0,0,.34s.42-.14.95-.36A7.1,7.1,0,0,0,544.43,425.73Z"/><path class="cls-18" d="M548.32,424.17a1.33,1.33,0,0,0,.37-.84.58.58,0,0,0-.09-.33,8.78,8.78,0,0,0-.81.39,6.63,6.63,0,0,0-1.27.94c-.68.72-.33,1.22-.33,1.22s.39-.17.86-.44c.23-.13.49-.29.73-.45A3.18,3.18,0,0,0,548.32,424.17Z"/><path class="cls-18" d="M486,416.8a3.29,3.29,0,0,0,1.84.31,6.72,6.72,0,0,0-.54-.47c-.17-.13-.37-.28-.6-.43a5.43,5.43,0,0,0-.67-.41,3.72,3.72,0,0,0-1.27-.4,3,3,0,0,0-.54,0,.86.86,0,0,0,.13.16l.37.38A4.32,4.32,0,0,0,486,416.8Z"/><path class="cls-18" d="M485.59,414.34a3,3,0,0,0,.85,1,5.82,5.82,0,0,0,.52.36,2,2,0,0,0-.07-.46,4.26,4.26,0,0,0-.39-1,5.93,5.93,0,0,0-.71-1,2.93,2.93,0,0,0-.41-.39,1.79,1.79,0,0,0-.05.46A1.85,1.85,0,0,0,485.59,414.34Z"/><path class="cls-19" d="M623.21,416.7a3.09,3.09,0,0,1-1.74,2.37l-73.53,42.46-7.63,4.4L437.7,406.68c4.05-.45,8.64-.76,13.62-.94C504.24,403.67,602.92,414.4,623.21,416.7Z"/><path class="cls-20" d="M599.41,358H589.16l-10.92-1.54-2.59-1-13.72-8.91s-.93-6.47-1.37-10.77c-.63-6.23,2.41-8.64,2.41-8.64l11.61-8.09s-7.56-2.81-10.19-5.7a4,4,0,0,1-.44-5.45s-3.42-1.47-2.54-4.33.17-4.1,9.48-7.87,40,10.36,38.32,16.68S603.35,355.88,599.41,358Z"/><path class="cls-9" d="M756.67,383.16,681,426.84l-122.52-69,75.66-42.29c2.7-1.56,7.43-1.37,10.55.43l111.21,64.21c1.5.87,2.4-1.74,2.58-.68,0,.1,0,.8,0,.9A3.1,3.1,0,0,1,756.67,383.16Z"/><path class="cls-14" d="M673.15,431.87l1.08-.32a14.53,14.53,0,0,0,6.15-3.6l.63-.61v-1.59l-130.38-66.2v1.59Z"/><path class="cls-9" d="M475,405.72,550.63,362l122.52,68.25v1.09l-75.66,43.68c-2.71,1.56-7.43,1.37-10.55-.44l-111.21-64.2c-1.72-1-2.6-1.85-2.59-2.67,0-.17,0-2.12,0-2.28C473.41,405,474.06,406.24,475,405.72Z"/><path class="cls-10" d="M475,405.72c-.91.52-1.56-.76-1.79-.25-.08.16,0,2.11,0,2.28,0,.82.87,1.67,2.59,2.67l111.21,64.2a11.26,11.26,0,0,0,3.75,1.29v-80H491.94Z"/><path class="cls-12" d="M756.67,382.07,681,425.75,558.49,355l75.66-43.68c2.7-1.56,7.43-1.37,10.55.44L755.91,376C759,377.78,759.37,380.5,756.67,382.07Z"/><path class="cls-13" d="M755.91,376,644.7,311.77a11.08,11.08,0,0,0-3.28-1.2,10.3,10.3,0,0,1,2.23.94l111.21,64.2c3.12,1.81,3.46,4.53.75,6.09l-75.36,43.51.76.44,75.66-43.68C759.37,380.5,759,377.78,755.91,376Z"/><path class="cls-17" d="M681,425.74l-1.14.67h0L673.65,430l-.51.29L550.63,359.54l.49-.27a9.7,9.7,0,0,0,6-3.4l.19-.21,1.14-.65Z"/><path class="cls-13" d="M679.86,426.41l-.17.21a9.85,9.85,0,0,1-6,3.38L551.12,359.27a9.7,9.7,0,0,0,6-3.4l.19-.21,122.49,70.75Z"/><path class="cls-12" d="M475,403.23l75.66-43.68,122.52,70.74L597.49,474c-2.71,1.56-7.43,1.36-10.55-.44L475.73,409.32C472.6,407.52,472.27,404.79,475,403.23Z"/><path class="cls-13" d="M672.22,429.74l-76.07,43.93a10.6,10.6,0,0,1-6.79.85c2.81.8,6.06.64,8.13-.55l75.66-43.68Z"/><path class="cls-21" d="M752.2,382.25l-73.29,42-4.14,2.5L598.46,471s-4.11,1.65-10.5-2-107.57-62.39-107.57-62.39-2.33-1.53,0-2.76,245.91-33.56,270.77-25C754.62,379.92,752.2,382.25,752.2,382.25Z"/><path class="cls-22" d="M752.2,379.39a3.28,3.28,0,0,1-1.77,2.22L737.62,389,678.5,423.15l-3.73,3.64-4.13.89-58.1,33.55L599.09,469c-2.7,1.56-7.42,1.37-10.54-.44l-97-56L482,407c-1.7-1-2.57-2.21-2.57-3.41a5.24,5.24,0,0,1,.34-.53,5,5,0,0,1,.42-.48,4.29,4.29,0,0,1,.53-.51,8.35,8.35,0,0,1,1.45-1l13.09-7.55,19.84-11.44,38.77-21.64.09-.05,4.21-.9,3.92-3.84.08,0L598.21,334l.23-.13,31.72-18.31c4-2.3,10-2.53,13.4-.55L750,376.44A4.15,4.15,0,0,1,752.2,379.39Z"/><path class="cls-23" d="M750,376.44,643.56,315c-3.43-2-9.44-1.75-13.4.55l-31.72,18.31-.23.13-36.08,21.56-.09,0-3.92,3.84-4.21.9-.09.05-.86.48,116.68,67.37,1-.58,4.13-.89,3.73-3.64,71.93-41.54a3.23,3.23,0,0,0,1.77-2.22A4.12,4.12,0,0,0,750,376.44Z"/><path class="cls-11" d="M612.54,461.23,599.09,469c-2.69,1.56-7.42,1.37-10.53-.44L482,407c-1.71-1-2.57-2.21-2.57-3.41a3.83,3.83,0,0,1,.33-.53,4,4,0,0,1,.43-.48,4.19,4.19,0,0,1,.52-.51,8.44,8.44,0,0,1,1.46-1l13.08-7.55Z"/><path class="cls-24" d="M752.2,379.39a3.28,3.28,0,0,1-1.77,2.22L737.62,389,678.5,423.15l-3.73,3.64-51.93-30,0,0-64.68-37.32,3.92-3.84.08,0L598.21,334l.23-.13,31.72-18.31c4-2.3,10-2.53,13.4-.55L750,376.44A4.15,4.15,0,0,1,752.2,379.39Z"/><polygon class="cls-25" points="558.12 359.46 674.77 426.79 677.76 423.87 561.12 356.53 558.12 359.46"/><polygon class="cls-26" points="599.4 393.7 570.32 376.92 573.1 375.31 602.18 392.1 599.4 393.7"/><polygon class="cls-26" points="612.07 411.93 583 395.14 585.78 393.54 614.85 410.32 612.07 411.93"/><polygon class="cls-26" points="638.46 441.97 570.17 402.55 572.95 400.94 641.23 440.37 638.46 441.97"/><polygon class="cls-26" points="631.23 446.15 562.94 406.72 565.72 405.12 634 444.54 631.23 446.15"/><polygon class="cls-26" points="624.1 450.26 555.82 410.83 558.6 409.23 626.88 448.65 624.1 450.26"/><polygon class="cls-26" points="616.88 454.43 548.6 415.01 551.38 413.4 619.66 452.82 616.88 454.43"/><polygon class="cls-27" points="601.94 463.06 493.54 400.47 496.31 398.87 604.71 461.45 601.94 463.06"/><polygon class="cls-27" points="595.68 466.67 487.28 404.08 490.06 402.48 598.46 465.06 595.68 466.67"/><polygon class="cls-26" points="644.83 419.93 602.19 395.32 604.97 393.71 647.61 418.33 644.83 419.93"/><polygon class="cls-26" points="581.19 388.09 548.59 369.26 504.28 394.85 536.88 413.67 581.19 388.09"/><polygon class="cls-11" points="574.01 387.35 549.87 373.41 515.52 393.24 539.67 407.18 574.01 387.35"/><polygon class="cls-28" points="570.63 387.7 540.27 405.23 518.9 392.89 549.26 375.36 570.63 387.7"/><path class="cls-29" d="M544.22,397s5.17-1.56,9.59-3.27c2.21-.86,3.91-2.2,4.26-3.78l.69,1.11-.67-2.22a3.33,3.33,0,0,0-.24-.76v0h0a6.58,6.58,0,0,0-2.23-2.45l1.09.14-2.37-1-.84-1.06-2.53-.77.49-.52c-.26-.1-6,.19-6,.19h0a11.51,11.51,0,0,0-6.63,2.46c-1.77,1.52-3.45,3.2-4.51,4.3l-.71.75-.44.49L525,389.39l-6.06,3.5,10.68,6.17,10.69,6.17,6.06-3.5Z"/><polygon class="cls-27" points="668.03 337.37 603.72 374.5 601.61 373.28 665.92 336.15 668.03 337.37"/><polygon class="cls-27" points="671.88 339.59 607.56 376.73 605.45 375.5 669.76 338.37 671.88 339.59"/><polygon class="cls-27" points="675.72 341.81 611.41 378.94 609.29 377.72 673.61 340.59 675.72 341.81"/><polygon class="cls-27" points="687.3 348.5 622.98 385.63 620.87 384.41 685.18 347.27 687.3 348.5"/><polygon class="cls-27" points="691.14 350.71 626.83 387.85 624.71 386.63 689.03 349.49 691.14 350.71"/><polygon class="cls-27" points="694.99 352.94 630.67 390.07 628.56 388.85 692.87 351.71 694.99 352.94"/><polygon class="cls-27" points="701.18 356.51 662.04 379.11 659.93 377.89 699.07 355.29 701.18 356.51"/><polygon class="cls-27" points="705.02 358.73 665.89 381.33 663.77 380.1 702.91 357.51 705.02 358.73"/><polygon class="cls-27" points="708.87 360.95 669.73 383.55 667.62 382.32 706.75 359.73 708.87 360.95"/><polygon class="cls-27" points="647.41 362.6 615.25 381.16 613.14 379.94 645.29 361.38 647.41 362.6"/><path class="cls-27" d="M618.16,353.17l-12.66-7.31a2.6,2.6,0,0,1,0-4.5l5.66-3.27a6.72,6.72,0,0,1,6.72,0l12.66,7.31a2.6,2.6,0,0,1,0,4.5l-5.66,3.27A6.72,6.72,0,0,1,618.16,353.17Z"/><polygon class="cls-30" points="642.51 434.88 624.6 424.54 633.56 419.36 651.48 429.7 642.51 434.88"/><polygon class="cls-22" points="646.15 432.78 628.23 422.44 629.93 421.46 647.85 431.8 646.15 432.78"/><path class="cls-22" d="M641.52,429.13a7.68,7.68,0,0,1-6.94,0c-1.92-1.11-1.93-2.91,0-4a7.66,7.66,0,0,1,6.93,0C643.42,426.24,643.43,428,641.52,429.13Z"/><path class="cls-30" d="M640.28,428.41a5,5,0,0,1-4.47,0c-1.23-.72-1.24-1.87,0-2.58a4.9,4.9,0,0,1,4.46,0C641.5,426.55,641.51,427.7,640.28,428.41Z"/><path class="cls-31" d="M669.18,406.42a14.08,14.08,0,0,1-4.5-.71l-20.81-7.17c-2.43-.84-4-2.27-4.4-3.93a3.69,3.69,0,0,1,1.23-3.51l39-38c2.51-2.44,8-3.24,12.16-1.8l20.8,7.17c2.43.83,4,2.27,4.41,3.93a3.74,3.74,0,0,1-1.23,3.51l-39,38C675.17,405.53,672.21,406.42,669.18,406.42Zm18.09-55c-2.82,0-5.54.82-7.06,2.3l-39,38a2.94,2.94,0,0,0-1,2.79c.31,1.37,1.77,2.63,3.9,3.37L664.93,405c4,1.37,9,.64,11.36-1.61l39-38a2.91,2.91,0,0,0,1-2.78c-.3-1.38-1.76-2.63-3.9-3.37l-20.8-7.17A13.49,13.49,0,0,0,687.27,351.38Z"/><path class="cls-31" d="M669,404.82a11.07,11.07,0,0,1-3.59-.58l-19.68-6.77c-2-.68-3.24-1.83-3.54-3.18a3,3,0,0,1,1-2.85l38.18-37.21c2-2,6.36-2.59,9.71-1.44l19.68,6.78c2,.67,3.24,1.83,3.54,3.17a3,3,0,0,1-1,2.86l-38.19,37.2A9,9,0,0,1,669,404.82Zm-23-8.09,19.68,6.78c3.1,1.07,7.11.51,8.92-1.26l38.19-37.2a2.28,2.28,0,0,0,.78-2.14c-.24-1.06-1.37-2-3-2.61l-19.68-6.78c-3.1-1.07-7.11-.5-8.92,1.27L643.73,392a2.26,2.26,0,0,0-.79,2.13c.24,1.07,1.38,2,3,2.61Z"/><path class="cls-31" d="M668.32,392.66l4.67,2.18-.59.59-14.82-7,.69-.69,17.84,4-.61.61-5.61-1.25Zm-.19-2L663,389.5c-1.16-.26-2.2-.52-3.21-.77v0c.9.39,1.83.79,2.73,1.21l4.29,2Z"/><path class="cls-31" d="M660.63,385.66a3,3,0,0,1,.79-1.2,3.45,3.45,0,0,1,2.59-.78,13.36,13.36,0,0,1,3.81.76A10.76,10.76,0,0,1,671,386c.89.7,1,1.4.44,2a1.56,1.56,0,0,1-.61.41l6.54,2.2-.57.57Zm8.44,2.08a1.62,1.62,0,0,0,.65-.42c.69-.68-.13-1.52-2.38-2.28s-3.61-.66-4.24,0a1.05,1.05,0,0,0-.37.59Z"/><path class="cls-31" d="M664.13,382.18a2.86,2.86,0,0,1,.78-1.2,3.45,3.45,0,0,1,2.6-.79,13.71,13.71,0,0,1,3.81.76,10.48,10.48,0,0,1,3.14,1.52c.88.7,1,1.4.44,1.95a1.64,1.64,0,0,1-.61.41l6.54,2.2-.57.57Zm8.44,2.07a1.67,1.67,0,0,0,.65-.41c.69-.69-.13-1.52-2.38-2.28s-3.61-.66-4.24,0a1,1,0,0,0-.37.59Z"/><path class="cls-31" d="M667.65,378.7a2.69,2.69,0,0,1,.76-1.21,3.31,3.31,0,0,1,2.62-.83,12,12,0,0,1,3.44.7c2.16.72,3.22,1.57,3.33,2.23l.08,0a9.63,9.63,0,0,1,3.94.46c2.42.63,4.1,1.05,4.82,1.17l-.59.59c-.53-.08-2-.46-4.19-1-2.39-.62-3.47-.67-4.06-.18l-.54.54,7.07,2.38-.58.57Zm8,1.93.58-.58c.62-.61-.23-1.41-2.09-2-2.11-.71-3.45-.61-4.08,0a1.06,1.06,0,0,0-.37.63Z"/><path class="cls-31" d="M682.77,374c5.62,1.89,7.67,3.81,6.54,4.94s-5.34.86-10.28-.8c-5.18-1.74-7.69-3.76-6.51-4.94S677.93,372.37,682.77,374Zm-3.17,3.51c3.48,1.18,7.12,1.72,8,.82s-1.65-2.45-5.36-3.7c-3.24-1.09-7.09-1.77-8-.82S676,376.31,679.6,377.51Z"/><path class="cls-31" d="M692.82,375.09l-17.77-4,.62-.61,8.73,2c2.39.55,4.54,1.06,6.57,1.58h0c-1.76-.76-3.63-1.64-5.57-2.55L678.1,368l.61-.61,14.74,7.07Z"/><path class="cls-31" d="M690.16,367.54l-1.73,1.72,5.89,2,1.92-1.91,1.77.59-2.5,2.49-16.32-5.5,2.39-2.38,1.77.59-1.82,1.82,5.16,1.73,1.72-1.71Z"/><path class="cls-31" d="M682.64,363.76a3.84,3.84,0,0,1,.88-1.32,5,5,0,0,1,3.83-1.11,23.14,23.14,0,0,1,6.49,1.35,18.51,18.51,0,0,1,5.7,2.77c1.11.93,1.25,1.89.39,2.75a7,7,0,0,1-1.23,1Zm15,4.29a2.59,2.59,0,0,0,.7-.54c1.22-1.22-.63-2.72-5-4.21-3.84-1.3-6.88-1.53-8.09-.33a1.4,1.4,0,0,0-.45.75Z"/><path class="cls-32" d="M737.62,389,678.5,423.15l-3.73,3.64-4.13.89-58.1,33.55L599.09,469c-2.7,1.56-7.42,1.37-10.54-.44l-97-56c31.19-13.25,115.91-19.89,117.93-19.45s9.89,2.7,13.28,3.67l0,0,1.54.44,3.1-1.53C648.87,394.34,698.42,391.36,737.62,389Z"/><path class="cls-33" d="M578.24,356.48,589.16,358h10.25c2.59-1.41,5.26-17.88,7.28-30.84L567.19,350l8.47,5.49Z"/><path class="cls-34" d="M595.53,279.88c0,8.07-5.7,17.9-12.73,22s-12.73.8-12.73-7.26,5.7-17.9,12.73-22S595.53,271.81,595.53,279.88Z"/><path class="cls-35" d="M586.47,273.71c-7.64,4.41-13.83,15.09-13.83,23.85a15.38,15.38,0,0,0,.16,2.2,11.23,11.23,0,0,1-1.42-5.86c0-8.07,5.7-17.9,12.74-22a13.79,13.79,0,0,0-1.32.68c-7,4.06-12.73,13.89-12.73,22,0,3.85,1.31,6.59,3.44,8,2,4.92,7,6.32,13,2.89,7.63-4.41,13.82-15.09,13.82-23.85S594.1,269.3,586.47,273.71Z"/><path class="cls-36" d="M603.49,282c0,9.57-6.76,21.22-15.09,26s-15.09,1-15.09-8.6,6.75-21.22,15.09-26S603.49,272.41,603.49,282Z"/><path class="cls-35" d="M589.52,307.2c-8.34,4.81-15.1,1-15.1-8.61,0-8.64,5.52-19,12.73-24.43-7.75,5.21-13.84,16.16-13.84,25.24,0,9.56,6.75,13.42,15.09,8.6a21.8,21.8,0,0,0,2.36-1.6C590.35,306.68,589.94,307,589.52,307.2Z"/><path class="cls-37" d="M606.59,285.31c0,8.7-6.14,19.29-13.71,23.67s-13.72.87-13.72-7.83,6.14-19.29,13.72-23.66S606.59,276.62,606.59,285.31Z"/><path class="cls-38" d="M599.27,313.9l19.66-21-15-8.75h0c-1.9-1.41-4.7-1.38-7.82.42-5.74,3.31-10.39,11.33-10.39,17.91,0,3.18,1.1,5.43,2.87,6.54h0l.06,0a4.66,4.66,0,0,0,1.09.49Z"/><path class="cls-35" d="M614.41,290.28s-8.42-1.1-15.8,8.92a23.82,23.82,0,0,1-11.36.54c1.19-5.76,5.19-11.83,10-14.6,2.41-1.39,4.61-1.71,6.37-1.15-1.89-1.23-4.57-1.15-7.56.58-5.74,3.31-10.39,11.33-10.39,17.91,0,3.15,1.08,5.38,2.82,6.5a.1.1,0,0,0,0,0h0l0,0c1.43,1.34,4,2.42,8.59,2.2,9.41-.44,21-18.82,21-18.82Z"/><path class="cls-39" d="M661,287.61l-16-9.88-.09-.05,0,0h0a4.22,4.22,0,0,0-4.14.45L587.59,308.8a13.13,13.13,0,0,0-6,10.26v19.22a4.34,4.34,0,0,0,1.4,3.54l0,0,.24.14a1.28,1.28,0,0,0,.25.15l15.79,9.68,36.44-37.94,5-2.88a13.33,13.33,0,0,0,5.7-8.26Z"/><path class="cls-35" d="M585,342.38l-.25-.15-.24-.15,0,0a4.33,4.33,0,0,1-1.4-3.54V319.3a13.1,13.1,0,0,1,6-10.27l53.14-30.68a5.57,5.57,0,0,1,2.32-.79,4.37,4.37,0,0,0-3.84.56L587.59,308.8a13.13,13.13,0,0,0-6,10.26v19.22a4.34,4.34,0,0,0,1.4,3.54l0,0,.24.14a1.28,1.28,0,0,0,.25.15l15.79,9.68.42-.44Z"/><path class="cls-40" d="M600.29,328.82v18c0,3.54,2.5,5,5.58,3.18l49.84-28.78a12.27,12.27,0,0,0,5.59-9.62v-18c0-3.54-2.5-5-5.59-3.18l-49.84,28.77A12.31,12.31,0,0,0,600.29,328.82Z"/><path class="cls-41" d="M666.09,286,660,282.26l-.1-.07h0c-1.18-.64-2.8-.52-4.59.51l-58.91,34a14.55,14.55,0,0,0-6.6,11.38v21.31a4.85,4.85,0,0,0,1.55,3.93l0,0,.25.16.31.18,5.88,3.54,10.46-10.89,47.09-27.19a14.54,14.54,0,0,0,6.6-11.38V290.42Z"/><path class="cls-35" d="M593.14,353.94a3.14,3.14,0,0,1-.31-.18l-.25-.15,0,0a4.79,4.79,0,0,1-1.55-3.93V328.34A14.55,14.55,0,0,1,597.65,317l58.92-34a5.74,5.74,0,0,1,3-.86,4.8,4.8,0,0,0-4.33.6l-58.91,34a14.55,14.55,0,0,0-6.6,11.38v21.31a4.85,4.85,0,0,0,1.55,3.93l0,0,.25.16.31.18,5.88,3.54.31-.32Z"/><path class="cls-42" d="M596.35,332.1v21.31c0,4.18,2.95,5.86,6.59,3.76l58.92-34a14.55,14.55,0,0,0,6.6-11.38V290.46c0-4.18-3-5.86-6.6-3.76l-58.92,34A14.54,14.54,0,0,0,596.35,332.1Z"/><path class="cls-43" d="M664.54,285.82h0a5.1,5.1,0,0,0-1.1.22l-.17,0a7.7,7.7,0,0,0-1.36.62l-58.92,34a14.54,14.54,0,0,0-6.59,11.38v21.31c0,2.46,1,4,2.61,4.49-1.13-.71-1.84-2.14-1.84-4.16V332.43a14.53,14.53,0,0,1,6.6-11.38l58.43-33.74c3.5-1.84,6.31-.17,6.31,3.9v-.75C668.46,287.38,666.84,285.67,664.54,285.82Z"/><path class="cls-44" d="M662.71,294.29a1.79,1.79,0,0,0-.51-.48c-1.23-.71-3.25.27-5.06,1.32L607.82,323.6a12.62,12.62,0,0,0-5.71,9.86v14.7a3,3,0,0,0,1,2.59,1.75,1.75,0,0,0,.54.51,2.22,2.22,0,0,0,1.09.26,8.56,8.56,0,0,0,3.9-1.43l49.32-28.47a12.64,12.64,0,0,0,5.71-9.86v-15A2.83,2.83,0,0,0,662.71,294.29ZM603.65,350.2a3.07,3.07,0,0,1-.36-1.64v-14.7a11.75,11.75,0,0,1,5.33-9.19l49.32-28.47a9.26,9.26,0,0,1,3.67-1.46,1.21,1.21,0,0,1,.55.13,3.13,3.13,0,0,1,.3,1.52v15a11.75,11.75,0,0,1-5.32,9.19L607.82,349C605.79,350.2,604.39,350.59,603.65,350.2Z"/><path class="cls-44" d="M664.11,292.26a3.39,3.39,0,0,0-.9-.79c-1.25-.72-2.89-.58-4.6.42l-52.72,30.43a13.5,13.5,0,0,0-6.11,10.54v15.93a4.8,4.8,0,0,0,1.43,3.74,3.3,3.3,0,0,0,.91.8,3.45,3.45,0,0,0,1.74.45,5.8,5.8,0,0,0,2.86-.87l52.71-30.44a13.47,13.47,0,0,0,6.11-10.54V296A4.81,4.81,0,0,0,664.11,292.26ZM601,349.19V333.26a12.6,12.6,0,0,1,5.7-9.83L659.43,293a5.08,5.08,0,0,1,2.45-.76,2.61,2.61,0,0,1,1.33.34,2.34,2.34,0,0,1,.3.25,4.46,4.46,0,0,1,.79,2.78v15.93a12.57,12.57,0,0,1-5.69,9.82L605.89,351.8c-1.45.83-2.79,1-3.77.41a1.76,1.76,0,0,1-.3-.24A4.48,4.48,0,0,1,601,349.19Z"/><path class="cls-45" d="M605.31,351.89a2.12,2.12,0,0,1-1.09-.26,2.9,2.9,0,0,1-1.11-2.7v-14.7a12.62,12.62,0,0,1,5.72-9.86l49.31-28.47c1.82-1,3.84-2,5.07-1.32.7.41,1,1.25,1,2.58v15a12.61,12.61,0,0,1-5.71,9.86l-49.31,28.48A8.67,8.67,0,0,1,605.31,351.89Zm56.9-56.78a9.3,9.3,0,0,0-3.68,1.46L609.22,325a11.76,11.76,0,0,0-5.33,9.19v14.7c0,1.07.24,1.75.72,2,.73.42,2.15,0,4.22-1.17l49.31-28.47a11.73,11.73,0,0,0,5.33-9.19v-15c0-1-.22-1.66-.65-1.91A1.2,1.2,0,0,0,662.21,295.11Z"/><path class="cls-45" d="M604.46,354.15a3.46,3.46,0,0,1-1.75-.45c-1.24-.72-1.92-2.19-1.92-4.14V333.63a13.48,13.48,0,0,1,6.11-10.54l52.72-30.43c1.71-1,3.35-1.14,4.6-.42s1.92,2.18,1.92,4.14v15.93A13.5,13.5,0,0,1,660,322.85l-52.72,30.43A5.76,5.76,0,0,1,604.46,354.15Zm58-61.54a5,5,0,0,0-2.44.76l-52.72,30.44a12.56,12.56,0,0,0-5.69,9.82v15.93c0,1.65.53,2.86,1.5,3.42s2.33.42,3.78-.42l52.72-30.43a12.57,12.57,0,0,0,5.69-9.82V296.38c0-1.65-.53-2.87-1.51-3.43A2.58,2.58,0,0,0,662.47,292.61Z"/><circle class="cls-4" cx="933.63" cy="66.04" r="22.54"/><circle class="cls-4" cx="823.63" cy="173.04" r="11.87"/><circle class="cls-4" cx="839.39" cy="457.31" r="28.48"/></g></g></svg>