<svg id="Layer_1" data-name="Layer 1" xmlns="http://www.w3.org/2000/svg" xmlns:xlink="http://www.w3.org/1999/xlink" viewBox="0 0 1062 344"><defs><style>.cls-1{fill:none;}.cls-2{fill:#ec5039;opacity:0.1;}.cls-3{clip-path:url(#clip-path);}.cls-4{fill:#b3c5ff;}.cls-5{fill:#494c7f;}.cls-6{fill:#7f95db;}.cls-7{fill:#95a6db;}.cls-8{fill:#c9d6ff;}.cls-9{fill:#2c2858;}.cls-10,.cls-18{fill:#fff;}.cls-11{fill:#3f964f;}.cls-12{fill:#f37a50;}.cls-13{fill:#062440;}.cls-14{fill:#4a6edb;}.cls-15{fill:#607edb;}.cls-16{fill:#d65736;}.cls-17{fill:#d1dfff;}.cls-18{opacity:0.7;}.cls-19{fill:#e62552;}.cls-20{fill:#cf4e21;}.cls-21{fill:#ff80c9;}.cls-22{fill:#c4204a;}.cls-23{fill:#1f7ecc;}.cls-24{fill:#f3ac50;}.cls-25{fill:#ce2e2e;}.cls-26{fill:#ea59ac;}.cls-27{fill:#f09e9e;}.cls-28{fill:#ffe066;}.cls-29{fill:#e54141;}.cls-30{fill:#ce502e;}.cls-31{fill:#0d5a52;}.cls-32{fill:#c4dc8f;}.cls-33{fill:#b5ca8a;}.cls-34{fill:#0e6a41;}.cls-35{fill:#6eab3f;}.cls-36{fill:#f2491c;}.cls-37{fill:#f47b45;}</style><clipPath id="clip-path"><path class="cls-1" d="M695.47,172A164.47,164.47,0,1,1,531,7.53,164.47,164.47,0,0,1,695.47,172Z"/></clipPath></defs><circle class="cls-2" cx="922.01" cy="94.78" r="35.28"/><circle class="cls-2" cx="811.55" cy="264.43" r="18.93"/><circle class="cls-2" cx="77.79" cy="193.56" r="35.06"/><g class="cls-3"><path class="cls-4" d="M590.06,176.53H582.3V151.06l3.5-5.55a.45.45,0,0,1,.76,0l3.5,5.55Z"/><path class="cls-4" d="M574.7,176.53h-7.76V151.06l3.51-5.55a.44.44,0,0,1,.75,0l3.5,5.55Z"/><path class="cls-4" d="M559.35,176.53h-7.77V151.06l3.51-5.55a.44.44,0,0,1,.75,0l3.51,5.55Z"/><path class="cls-4" d="M544,176.53h-7.76V151.06l3.5-5.55a.44.44,0,0,1,.75,0l3.51,5.55Z"/><path class="cls-4" d="M528.63,176.53h-7.76V151.06l3.5-5.55a.45.45,0,0,1,.76,0l3.5,5.55Z"/><path class="cls-4" d="M513.27,176.53h-7.76V151.06l3.51-5.55a.44.44,0,0,1,.75,0l3.5,5.55Z"/><path class="cls-4" d="M497.91,176.53h-7.76V151.06l3.51-5.55a.44.44,0,0,1,.75,0l3.5,5.55Z"/><path class="cls-4" d="M482.56,176.53h-7.77V151.06l3.51-5.55a.44.44,0,0,1,.75,0l3.51,5.55Z"/><path class="cls-4" d="M467.2,176.53h-7.76V151.06l3.5-5.55a.44.44,0,0,1,.75,0l3.51,5.55Z"/><path class="cls-4" d="M451.84,176.53h-7.76V151.06l3.5-5.55a.45.45,0,0,1,.76,0l3.5,5.55Z"/><path class="cls-4" d="M436.48,176.53h-7.76V151.06l3.51-5.55a.44.44,0,0,1,.75,0l3.5,5.55Z"/><path class="cls-4" d="M421.12,176.53h-7.76V151.06l3.51-5.55a.44.44,0,0,1,.75,0l3.5,5.55Z"/><path class="cls-4" d="M390.41,176.53h-7.76V151.06l3.5-5.55a.44.44,0,0,1,.75,0l3.51,5.55Z"/><rect class="cls-4" x="380.66" y="160.64" width="207.14" height="3.98"/><polygon class="cls-5" points="591.33 122.92 606.37 123.21 621.86 62.84 611.99 56.47 591.33 122.92"/><rect class="cls-6" x="635.18" y="117.44" width="83.01" height="60.16"/><polygon class="cls-7" points="595.35 123.41 595.35 177.6 635.18 177.6 635.18 118.85 614.38 63.89 595.35 123.41"/><polygon class="cls-5" points="718.19 56.47 718.19 119.67 634.59 119.67 619.16 76.53 618.69 75.2 611.99 56.47 718.19 56.47"/><rect class="cls-8" x="652.63" y="133.92" width="13.98" height="27.21"/><rect class="cls-8" x="682.04" y="133.92" width="15.44" height="27.21"/><rect class="cls-8" x="606.09" y="133.92" width="15.44" height="27.21"/><path class="cls-8" d="M615.27,104.52a4.32,4.32,0,1,0,4.31,4.32A4.32,4.32,0,0,0,615.27,104.52Z"/><polygon class="cls-9" points="707.72 72.49 694 72.49 686.82 61.42 686.82 45.62 707.72 45.62 707.72 72.49"/><rect class="cls-9" x="684.05" y="43.83" width="26.44" height="5.86"/><path class="cls-10" d="M401.41,37H337.2a1.06,1.06,0,0,1-.95-1.54,12.52,12.52,0,0,1,11.22-7,12.71,12.71,0,0,1,3.88.61c0-.34,0-.7,0-1.05a11.76,11.76,0,0,1,22.28-5.28A13.49,13.49,0,0,1,387.83,30a9.62,9.62,0,0,1,5.2-1.51,9.73,9.73,0,0,1,9.4,7.18A1.05,1.05,0,0,1,401.41,37Z"/><path class="cls-10" d="M551.75,51h47a.78.78,0,0,0,.7-1.13,9.17,9.17,0,0,0-11.06-4.66c0-.25,0-.51,0-.77a8.61,8.61,0,0,0-16.31-3.86,9.66,9.66,0,0,0-1.62-.14,9.84,9.84,0,0,0-8.8,5.43A7.13,7.13,0,0,0,551,50.06.78.78,0,0,0,551.75,51Z"/><path class="cls-7" d="M440.41,51.94c-2.11-3.51-5.92-4.43-9.54-5.57,3.53,2.14,7.32,4.29,10.07,7.31a70.37,70.37,0,0,1,3.18-10.23C441.31,45.92,441.2,48.17,440.41,51.94Z"/><path class="cls-7" d="M455.85,35.34c-1.57-2.62-4.42-3.31-7.12-4.15,2.63,1.59,5.46,3.19,7.51,5.45A51.57,51.57,0,0,1,458.62,29C456.52,30.85,456.44,32.53,455.85,35.34Z"/><path class="cls-11" d="M524.2,176.29a9.24,9.24,0,0,0,.06,1.05h30.12a6.8,6.8,0,0,0-11.67-4.74,9.62,9.62,0,0,0-18.51,3.69Z"/><rect class="cls-11" x="365.21" y="176.63" width="340.69" height="171.95"/><path class="cls-12" d="M570,148.89c.37-1.24.84-1.95,1-2.72s-.2-1.55.39-1.81,1,2.43,1,2.43Z"/><path class="cls-13" d="M566.58,134.49l5.72-1.44a1.34,1.34,0,0,1,1.63,1l1.12,6.21a1.35,1.35,0,0,1-1,1.63l-1.34.29,3.81,13.9a.91.91,0,0,1-.64,1.11,1,1,0,0,1-.24,0,.89.89,0,0,1-.87-.67l-3.83-14-1.77.38a1.35,1.35,0,0,1-1.63-1l-1.95-5.82A1.34,1.34,0,0,1,566.58,134.49Z"/><path class="cls-8" d="M573.46,140.7h0a.6.6,0,0,0,.48-.68l-1-5.51a.58.58,0,0,0-.68-.47h0a.58.58,0,0,0-.47.68l1,5.51A.58.58,0,0,0,573.46,140.7Z"/><path class="cls-8" d="M571.47,141.19h0a.6.6,0,0,0,.44-.71L570.59,135a.59.59,0,0,0-.71-.44h0a.58.58,0,0,0-.43.71l1.31,5.45A.6.6,0,0,0,571.47,141.19Z"/><path class="cls-8" d="M569.3,141.71h0a.59.59,0,0,0,.4-.73l-1.61-5.37a.58.58,0,0,0-.73-.39h0a.59.59,0,0,0-.4.73l1.61,5.37A.59.59,0,0,0,569.3,141.71Z"/><path class="cls-12" d="M550.38,152.34c1.52,1.91,2.58,4.22,4.58,4.1,5.64-.31,14.54-6.72,14.54-6.72l2.1,2.66S558.74,163.32,554,162.83a11.83,11.83,0,0,1-8.72-5.35Z"/><path class="cls-12" d="M510.56,153.88c-2.86,4.26-7.13,10.29-5.87,13.57,2.43,6.27,12.74,11.5,12.74,11.5V175.3c-1.06-.53-6.4-7-6.63-9.17-.3-2.86,4.6-6.86,4.6-6.86Z"/><polygon class="cls-10" points="512.65 231.35 512.6 233.5 519.57 233.68 519.72 231.35 512.65 231.35"/><path class="cls-14" d="M512.6,233.17v2.52a.78.78,0,0,0,.78.78h12.29s-.23-3-5.16-3.12S512.6,233.17,512.6,233.17Z"/><polygon class="cls-10" points="532 231.35 531.88 233.5 538.41 233.68 538.41 231.38 532 231.35"/><polygon class="cls-14" points="542.07 178.06 538.41 231.38 531.88 231.35 529.04 176.92 542.07 178.06"/><polygon class="cls-15" points="518.78 177.1 512.65 231.35 519.72 231.35 534.27 177.1 518.78 177.1"/><path class="cls-11" d="M510,153.23a36.47,36.47,0,0,0,6.3,6.81s1.61-2.14,4-5.14a114.92,114.92,0,0,0-1.61,14.48c-.07,1.13-.12,2.17-.16,3.11-.11,2.67-.13,4.43-.13,4.43a14.29,14.29,0,0,0,2.37,1l1,.36a31.14,31.14,0,0,0,21-.19l.08,0c-.33-4.15-1.84-22.92-1.84-22.92l5.84,7.09,5.61-8.35s-6.46-7.75-13.38-11.07c-.53-.26-1.06-.48-1.59-.68a13.55,13.55,0,0,0-2.39-.66,21.13,21.13,0,0,0-9.34.13,15.07,15.07,0,0,0-1.53.49h0C520.14,143.6,515.74,146.92,510,153.23Z"/><path class="cls-13" d="M529.82,134.48a3.79,3.79,0,0,1-4.35-2.16c-.89-2.32.17-3.87.19-6.06s.08-3.68,0-4.78,4.52-.2,4.52-.2Z"/><path class="cls-12" d="M541,128.16c-.24,3.9-1.77,8.05-5.18,9.57-4.08,1.82-7.2-2.24-7.85-7.08s.58-9,4.78-10.09S541.38,121.8,541,128.16Z"/><path class="cls-12" d="M534.92,137.73l.59,4.53s-3.42,3.65-7.23-.56c.36-1.93.66-8.09.66-8.09Z"/><path class="cls-13" d="M533.26,115.65c4.79.82,5.2,3.88,7,4.86s2.3-2.3,4.28-1.12c4.27,2.69,2,8.24-1.1,9.42s-2.67-1.35-4.52-2.81-2.7-2-5,0c-1,.9-2.46,0-3.33-2a16.35,16.35,0,0,1-.75,3.32l-2.32-2.38.57-1.82c-.88.35-2.32-.18-2.41-1.19C525.2,117.42,529.07,114.93,533.26,115.65Z"/><path class="cls-12" d="M526.52,128.27a1.84,1.84,0,1,0,.84-2.75A2.06,2.06,0,0,0,526.52,128.27Z"/><path d="M537.64,130.12a.71.71,0,0,0,.71.71.7.7,0,0,0,.7-.71.7.7,0,0,0-.7-.7A.7.7,0,0,0,537.64,130.12Z"/><path d="M532.68,129.71a.7.7,0,0,0,.7.7.7.7,0,0,0,.71-.7.71.71,0,0,0-.71-.71A.7.7,0,0,0,532.68,129.71Z"/><path class="cls-13" d="M540,129.53a.3.3,0,0,0,.16-.05.29.29,0,0,0,.09-.41,2.44,2.44,0,0,0-2-1.2.3.3,0,0,0-.28.31.29.29,0,0,0,.31.27,1.86,1.86,0,0,1,1.52.94A.28.28,0,0,0,540,129.53Z"/><path class="cls-13" d="M532.05,128.72a.3.3,0,0,0,.24-.12,1.75,1.75,0,0,1,2-.6.29.29,0,1,0,.2-.55,2.34,2.34,0,0,0-2.69.81.29.29,0,0,0,.07.41A.34.34,0,0,0,532.05,128.72Z"/><path class="cls-16" d="M536.12,133.41a1.08,1.08,0,0,0,.56-.12.42.42,0,0,0,.21-.31,18.58,18.58,0,0,0,0-2.36.2.2,0,0,0-.21-.18.18.18,0,0,0-.18.2,19.07,19.07,0,0,1,0,2.27s0,0,0,.05a2,2,0,0,1-1.1-.05.2.2,0,0,0-.24.15.19.19,0,0,0,.14.23A3.64,3.64,0,0,0,536.12,133.41Z"/><path class="cls-16" d="M528.35,129h.08a1.06,1.06,0,0,0,.65-1,2.18,2.18,0,0,0-1-1.75.19.19,0,0,0-.26.09.2.2,0,0,0,.08.26,1.81,1.81,0,0,1,.81,1.39.66.66,0,0,1-.42.62.2.2,0,0,0-.1.26A.21.21,0,0,0,528.35,129Z"/><path class="cls-14" d="M531.88,232.88v2.53a.77.77,0,0,0,.77.78h12.29s-.23-3-5.16-3.12S531.88,232.88,531.88,232.88Z"/><path class="cls-12" d="M569.46,149.74c.94-1.47,2.56-3.9,4.87-3.54s3.2,5.38.7,6.51a7.57,7.57,0,0,1-5.11.23Z"/><path class="cls-16" d="M572.19,146.67c.49-.29-1.32,3.81,1.66,6.44a3.13,3.13,0,0,1-2.78-3A6.16,6.16,0,0,1,572.19,146.67Z"/><path class="cls-10" d="M518.37,206.17s21.21-.27,26.57-.27c-.28-7.8-1.66-21.22-2.17-29.28C542,165,541,152.69,539.1,142.82c-.53-.26-1.08-.49-1.61-.69l.92,11.1-10.76-.18-1.89-11.51c-.51.14-1,.3-1.53.49h0a197.59,197.59,0,0,1-2.35,35.49c0,.24-.07.47-.11.7C518.79,197.59,518.37,206.17,518.37,206.17Z"/><path class="cls-17" d="M539.46,158.18H527.28s0,7.12,5.85,7.12C540.24,165.3,539.46,158.18,539.46,158.18Z"/><path class="cls-10" d="M518.5,172.49l4.53,1.85.86-3.51s-1.46.39-5.23-1.45C518.59,170.51,518.54,171.55,518.5,172.49Z"/><path class="cls-12" d="M516.65,178.4c.78,2.19,2.6,3.5,5.55,3.71s1.26-4.19-.33-4.54c-1.87-.4-3.37-1-3.31-1.58a19.4,19.4,0,0,0-.1-2.25s-.87-.24-1,1A27.76,27.76,0,0,1,516.65,178.4Z"/><path class="cls-10" d="M532.67,133.81a.29.29,0,0,0-.4.27,2.29,2.29,0,0,0,1.6,1.92,2.58,2.58,0,0,0,2.61-.58.29.29,0,0,0-.18-.44,9,9,0,0,1-1.87-.38A8.51,8.51,0,0,1,532.67,133.81Z"/><path class="cls-18" d="M557.25,186.07s3-7.54-.65-10.84-6.27-2.23-9.39-5.71c-3.65-4.07,10.93-8.38,7.23-13.66-2.34-3.34-8.79-2.55-8.79-2.55s7.9-5.1,13.63.83c3.79,3.93-3.37,9.54,5.63,10.46,9.89,1,14.73-4.75,28.71,4.07,9.83,6.2,10.54,17.4,10.54,17.4Z"/><polygon class="cls-13" points="560.11 236.47 558.68 236.47 566.97 198.43 568.4 198.43 560.11 236.47"/><polygon class="cls-13" points="601.91 236.47 593.63 198.43 595.05 198.43 603.34 236.47 601.91 236.47"/><path class="cls-19" d="M604.2,187c0,9.2-10.52,16.66-23.5,16.66s-23.49-7.46-23.49-16.66c0-.33,0-.65,0-1s.06-.61.11-.91c1.31-2.66,11.26-4.73,23.34-4.73s22,2.07,23.35,4.73c.05.3.08.61.11.91S604.2,186.71,604.2,187Z"/><path class="cls-13" d="M604.2,185.76a1.55,1.55,0,0,1,0,.31c-.71,2.8-10.94,5-23.46,5s-22.75-2.22-23.45-5a1.06,1.06,0,0,1,0-.31,1.33,1.33,0,0,1,.15-.6c1.31-2.66,11.26-4.73,23.34-4.73s22,2.07,23.35,4.73A1.33,1.33,0,0,1,604.2,185.76Z"/><polygon class="cls-13" points="583.87 236.47 581.1 198.43 582.56 198.43 585.33 236.47 583.87 236.47"/><rect class="cls-13" x="565.75" y="208.12" width="30.34" height="1.36"/><path class="cls-20" d="M575.47,183.76c0,1.05-3,1.9-6.78,1.9s-6.78-.85-6.78-1.9v-1.17a51.93,51.93,0,0,1,6.78-.72,47.35,47.35,0,0,1,6.78.72Z"/><path class="cls-12" d="M575.47,182.59c0,1-3,1.89-6.78,1.89s-6.78-.84-6.78-1.89,3-1.89,6.78-1.89S575.47,181.54,575.47,182.59Z"/><rect class="cls-20" x="569.37" y="180.1" width="0.57" height="4.54" rx="0.25" transform="translate(197.47 650.6) rotate(-69.27)"/><rect class="cls-20" x="571.94" y="179.89" width="0.57" height="4.54" rx="0.25" transform="translate(199.33 652.87) rotate(-69.27)"/><rect class="cls-20" x="567.02" y="180.32" width="0.57" height="4.54" rx="0.25" transform="translate(195.74 648.55) rotate(-69.27)"/><rect class="cls-20" x="564.63" y="180.63" width="0.57" height="4.54" rx="0.25" transform="translate(193.92 646.51) rotate(-69.27)"/><path class="cls-20" d="M598.48,183.91c0,1.05-3,1.9-6.78,1.9s-6.78-.85-6.78-1.9v-1.17a51.93,51.93,0,0,1,6.78-.72,47.35,47.35,0,0,1,6.78.72Z"/><path class="cls-12" d="M598.48,182.74c0,1-3,1.9-6.78,1.9s-6.78-.85-6.78-1.9,3-1.89,6.78-1.89S598.48,181.7,598.48,182.74Z"/><rect class="cls-20" x="592.38" y="180.25" width="0.57" height="4.54" rx="0.25" transform="translate(212.19 672.23) rotate(-69.27)"/><path class="cls-20" d="M597,183.29l-3.78-1.43a.25.25,0,0,1-.14-.33l0-.05a.25.25,0,0,1,.32-.15l3.78,1.43a.26.26,0,0,1,.15.33l0,0A.26.26,0,0,1,597,183.29Z"/><rect class="cls-20" x="590.03" y="180.47" width="0.57" height="4.54" rx="0.25" transform="translate(210.47 670.17) rotate(-69.27)"/><path class="cls-20" d="M589.71,184l-3.77-1.43a.25.25,0,0,1-.15-.32l0-.06a.26.26,0,0,1,.33-.15l3.77,1.43a.26.26,0,0,1,.15.33l0,0A.26.26,0,0,1,589.71,184Z"/><path class="cls-20" d="M587.2,188.14c0,1.05-3,1.89-6.78,1.89s-6.78-.84-6.78-1.89V187a51.25,51.25,0,0,1,6.78-.73,46.73,46.73,0,0,1,6.78.73Z"/><path class="cls-12" d="M587.2,187c0,1.05-3,1.89-6.78,1.89s-6.78-.84-6.78-1.89,3-1.9,6.78-1.9S587.2,185.92,587.2,187Z"/><rect class="cls-20" x="581.1" y="184.48" width="0.57" height="4.54" rx="0.25" transform="translate(200.97 664.41) rotate(-69.27)"/><rect class="cls-20" x="583.67" y="184.27" width="0.57" height="4.54" rx="0.25" transform="matrix(0.35, -0.94, 0.94, 0.35, 202.81, 666.67)"/><rect class="cls-20" x="578.75" y="184.7" width="0.57" height="4.54" rx="0.25" transform="translate(199.23 662.35) rotate(-69.27)"/><path class="cls-20" d="M578.43,188.26l-3.77-1.43a.26.26,0,0,1-.15-.33l0-.05a.26.26,0,0,1,.33-.15l3.77,1.43a.25.25,0,0,1,.15.32l0,.06A.26.26,0,0,1,578.43,188.26Z"/><path class="cls-10" d="M603.34,174.86c.67,4.56-5.76-14.45-22.24-14.34C588.51,157.84,600.64,156.56,603.34,174.86Z"/><path class="cls-9" d="M442.64,127.24a3.22,3.22,0,0,1-2.15,4c-.36,1.54-2,3.63-4.91,1.43s-3.93-8.36,2.08-12.87c2.68-2,5.45-1.35,7.65-.23a8.13,8.13,0,0,1,11.23-4.64c6.28,2.87,5,8.31,5,8.31s3.53-3.58,7.62,1.16-.86,8.35-.86,8.35,4.65-1.1,5.8,3.61-6.65,9.7-6.65,9.7S454,157.7,444.17,150.27A10.25,10.25,0,0,1,442.5,135c-2.34.68-3.84-2.64-.69-5.34C443.33,128.33,442.64,127.24,442.64,127.24Z"/><polygon class="cls-12" points="455.19 130.84 457.94 135.25 455.97 139.37 454.01 136.48 455.19 130.84"/><path class="cls-12" d="M441.66,130.87c1.67,3,4.21,8.09,10.78,7.84,1.92-.29,3.65-3.35,2.9-7.39s-3.43-8.74-6-9S438.62,125.29,441.66,130.87Z"/><path class="cls-9" d="M454,123.15s-5.95,9.61-14.79,4.47C441.71,124.65,446.62,119.89,454,123.15Z"/><path class="cls-12" d="M453,127a1.79,1.79,0,1,0,2.37-1.53A2,2,0,0,0,453,127Z"/><path d="M445.16,133.88a.63.63,0,0,0,.88.07.62.62,0,0,0,.06-.88.61.61,0,0,0-.87-.06A.62.62,0,0,0,445.16,133.88Z"/><path d="M449.37,131.15a.71.71,0,0,0,1,.08.72.72,0,0,0,.07-1,.71.71,0,0,0-1-.07A.7.7,0,0,0,449.37,131.15Z"/><path class="cls-10" d="M449.76,136.19a.27.27,0,0,0,.05.43,2.1,2.1,0,0,0,2.66-2.51.27.27,0,0,0-.42-.08,6.32,6.32,0,0,1-1,1.22A6.52,6.52,0,0,1,449.76,136.19Z"/><path class="cls-16" d="M454.55,128.38a.23.23,0,0,0,.06-.3,1.08,1.08,0,0,1,0-.93.73.73,0,0,1,.44-.45.24.24,0,0,0,.17-.29.25.25,0,0,0-.3-.17,1.22,1.22,0,0,0-.76.72,1.59,1.59,0,0,0,.06,1.35.24.24,0,0,0,.33.09Z"/><path class="cls-16" d="M449.59,134.77l.2-.16a.21.21,0,1,0-.28-.32c-.19.18-.83.65-1.21.52-.16-.05-.27-.23-.33-.53v0l-.27-.92a.21.21,0,0,0-.26-.15.2.2,0,0,0-.14.26l.26.92a1,1,0,0,0,.62.84A1.76,1.76,0,0,0,449.59,134.77Z"/><path class="cls-9" d="M450.74,129.16a.25.25,0,0,0-.05-.41,1.83,1.83,0,0,0-2.14.54.24.24,0,0,0,.38.3,1.35,1.35,0,0,1,1.57-.4A.26.26,0,0,0,450.74,129.16Z"/><path class="cls-9" d="M444.4,133.37a.23.23,0,0,0,.09-.24.81.81,0,0,1,.52-1,.25.25,0,0,0,.15-.31.24.24,0,0,0-.3-.15,1.3,1.3,0,0,0-.84,1.52.24.24,0,0,0,.28.18A.18.18,0,0,0,444.4,133.37Z"/><path class="cls-21" d="M439.62,146.89s5.52.22,9.62-2c5.47-2.91,8.68-11,12.25-8.49,5.17,3.61-3.46,12.87-10.2,15.29-5.27,1.9-13.27.79-13.27.79Z"/><path class="cls-19" d="M427.48,149.46h0a4.08,4.08,0,0,1,4.23-3.91l9.75.39L440.07,154l-8.68-.34A4.08,4.08,0,0,1,427.48,149.46Z"/><path class="cls-19" d="M431.9,143.29h0a1.37,1.37,0,0,1,1.93.07l4.78,5.22-3.83-.15-3-3.21A1.36,1.36,0,0,1,431.9,143.29Z"/><rect class="cls-22" x="436.69" y="149.45" width="8.15" height="1.07" transform="translate(608.03 -284.52) rotate(92.26)"/><polygon class="cls-5" points="428.3 173.98 450.84 208.1 445.95 208.1 425.29 176.82 428.3 173.98"/><polygon class="cls-9" points="444.82 173.98 422.29 208.1 427.17 208.1 447.83 176.82 444.82 173.98"/><polygon class="cls-5" points="375.19 173.98 397.73 208.1 392.84 208.1 372.18 176.82 375.19 173.98"/><polygon class="cls-9" points="391.71 173.98 369.18 208.1 374.06 208.1 394.72 176.82 391.71 173.98"/><rect class="cls-23" x="369.18" y="171.76" width="81.44" height="5.15"/><path class="cls-18" d="M410.79,146.14c4.51.28,6.78-3.83,12.73-2.75a7.47,7.47,0,0,1,6.1,5.87s-2.3-2.94-7.79-2.41c-4,.39-7.11,3.61-12,2.25-3.73-1-4.07-5.71-4.07-5.71A6.63,6.63,0,0,0,410.79,146.14Z"/><path class="cls-18" d="M407.78,167.54s1.85-5.45-.83-7.84-4.55-1.62-6.81-4.15c-2.65-3,.47-5.9-2.21-9.73-1.7-2.43-6.38-1.85-6.38-1.85s5.74-3.7,9.89.6c2.75,2.85.62,7.26,7.15,7.93,7.19.73,14.27-5.18,24.42,1.22,7.14,4.5,6,13.85,6,13.85S424.27,163,423.25,163C421.63,162.9,407.78,167.54,407.78,167.54Z"/><path class="cls-24" d="M439.36,167.54a19.3,19.3,0,0,0-31.58,0Z"/><polygon class="cls-12" points="423.57 167.53 407.78 167.53 409.41 171.76 423.57 171.76 437.73 171.76 439.36 167.53 423.57 167.53"/><path class="cls-25" d="M424.28,163.74a3.84,3.84,0,0,1-.71,1.77,2.56,2.56,0,0,1,0-3.54A3.84,3.84,0,0,1,424.28,163.74Z"/><path class="cls-25" d="M414.92,163.94a5,5,0,0,1-2,1,5,5,0,0,1,1-2,4.87,4.87,0,0,1,2-1A5,5,0,0,1,414.92,163.94Z"/><path class="cls-25" d="M419.16,163.94a4.16,4.16,0,0,1-1.26,1.39,2.92,2.92,0,0,1,1.4-3.25A4.37,4.37,0,0,1,419.16,163.94Z"/><path class="cls-25" d="M431.78,163.94a5,5,0,0,0,2,1,5,5,0,0,0-1-2,4.87,4.87,0,0,0-2-1A5,5,0,0,0,431.78,163.94Z"/><path class="cls-25" d="M427.54,163.94a4.17,4.17,0,0,0,1.25,1.39,4.2,4.2,0,0,0-.14-1.86,4.29,4.29,0,0,0-1.25-1.39A4.2,4.2,0,0,0,427.54,163.94Z"/><path class="cls-13" d="M461.67,206.43,455,178.57a4,4,0,0,1,.11-2.94l10-18.39,12,2.62-14.3,18.23a11.61,11.61,0,0,1,2.43,4.58c1.1,5-.78,14.23,2,23.76Z"/><path class="cls-9" d="M473.57,206.43l-11.69-25.52a3.92,3.92,0,0,1-.45-2.9l6.36-20,10.91,2.29L468.61,179a11.59,11.59,0,0,1,3.25,4c2,4.71,3.7,13.46,6.9,23.42Z"/><path class="cls-26" d="M458.28,134.49c1.94.12,2.64-.81,3.53-.31,17.7,9.87,18.73,29.89,18.73,29.89-7.77,6.19-12.64-1.71-22.1,1.36,0,0,2-3.89,1.66-7.46-.59-5.47-1.32-12.84-5.48-17.91Z"/><path class="cls-21" d="M451.86,156.39s4.68-3.84,6-8.41c1.69-6.1-2.2-13.79,2.15-14.69,6.65-1.37,7.84,11.18,4.88,17.87-2.68,6-11.08,11.36-11.08,11.36Z"/><path class="cls-19" d="M443.7,167.59h0a4.16,4.16,0,0,1,.3-5.88l6.58-6,5.58,6.17-6.58,5.95A4.17,4.17,0,0,1,443.7,167.59Z"/><path class="cls-19" d="M443,159h0a1.4,1.4,0,0,1,1.46-1.33l7.21.4-2.9,2.62-4.45-.23A1.39,1.39,0,0,1,443,159Z"/><rect class="cls-22" x="449.61" y="157.94" width="8.32" height="1.09" transform="translate(267.2 -284.48) rotate(47.91)"/><path class="cls-19" d="M473.75,206.43c-3.63.27-5.53.72-5.95,3l10.45.15a.91.91,0,0,0,.86-.9v-2.22Z"/><path class="cls-19" d="M462.1,206.43c-3.57.27-5.44.72-5.85,3l10.29.15a.91.91,0,0,0,.85-.9v-2.22Z"/><polygon class="cls-19" points="473.56 206.44 470.29 200.28 477.56 199.31 479.12 206.44 473.56 206.44"/><polygon class="cls-19" points="461.52 206.44 459.25 200.37 466.36 199.92 467.39 206.44 461.52 206.44"/><rect class="cls-10" x="369.18" y="171.76" width="81.49" height="18.8"/><rect class="cls-27" x="444.4" y="171.76" width="6.27" height="6.27"/><rect class="cls-27" x="438.13" y="178.03" width="6.27" height="6.27"/><rect class="cls-27" x="431.86" y="171.78" width="6.27" height="6.27"/><rect class="cls-27" x="425.6" y="178.03" width="6.27" height="6.27"/><rect class="cls-27" x="419.33" y="171.78" width="6.27" height="6.27"/><rect class="cls-27" x="413.06" y="178.03" width="6.27" height="6.27"/><rect class="cls-27" x="406.79" y="171.78" width="6.27" height="6.27"/><rect class="cls-27" x="400.52" y="178.03" width="6.27" height="6.27"/><rect class="cls-27" x="394.25" y="171.78" width="6.27" height="6.27"/><rect class="cls-27" x="387.99" y="178.03" width="6.27" height="6.27"/><rect class="cls-27" x="381.72" y="171.78" width="6.27" height="6.27"/><rect class="cls-27" x="375.45" y="178.03" width="6.27" height="6.27"/><rect class="cls-27" x="369.18" y="171.78" width="6.27" height="6.27"/><rect class="cls-27" x="444.4" y="184.3" width="6.27" height="6.27"/><rect class="cls-27" x="431.86" y="184.31" width="6.27" height="6.27"/><rect class="cls-27" x="419.33" y="184.31" width="6.27" height="6.27"/><rect class="cls-27" x="406.79" y="184.31" width="6.27" height="6.27"/><rect class="cls-27" x="394.25" y="184.31" width="6.27" height="6.27"/><rect class="cls-27" x="381.72" y="184.31" width="6.27" height="6.27"/><rect class="cls-27" x="369.18" y="184.31" width="6.27" height="6.27"/><polygon class="cls-10" points="393.17 171.78 386.58 171.78 385.83 157.24 393.92 157.24 393.17 171.78"/><path class="cls-12" d="M389.88,170.59h0a2.75,2.75,0,0,1-2.74-2.61l-.47-9.65h6.42l-.47,9.65A2.75,2.75,0,0,1,389.88,170.59Z"/><path class="cls-12" d="M398.15,158.48a4.46,4.46,0,0,1-4.45,3l0-.62,0-.53.14-2.69,0-.44h-4.44a4.45,4.45,0,1,1,8.67,1.24Z"/><path class="cls-28" d="M395,155.66l.51-.73a.61.61,0,0,0-.3-.93l-.49-.17a.62.62,0,0,0-.81.57l0,.89A.61.61,0,0,0,395,155.66Z"/><path class="cls-28" d="M393.86,156.2l-.37-2.14a.33.33,0,0,0-.48-.24l-1.13.57a.34.34,0,0,0-.09.53l1.5,1.57A.34.34,0,0,0,393.86,156.2Z"/><path class="cls-28" d="M392.54,156l-.73-.51a.61.61,0,0,0-.93.3l-.17.5a.62.62,0,0,0,.57.8l.89,0A.61.61,0,0,0,392.54,156Z"/><path class="cls-28" d="M394,157.91l.37,2.14a.34.34,0,0,0,.48.24l1.13-.56a.34.34,0,0,0,.09-.54l-1.49-1.56A.34.34,0,0,0,394,157.91Z"/><path class="cls-28" d="M394.6,157.61l1.76,1.25a.34.34,0,0,0,.52-.17l.39-1.2a.33.33,0,0,0-.31-.44L394.8,157A.34.34,0,0,0,394.6,157.61Z"/><path class="cls-28" d="M394.79,157l2.14-.37a.33.33,0,0,0,.24-.48l-.56-1.13a.35.35,0,0,0-.54-.09l-1.56,1.5A.33.33,0,0,0,394.79,157Z"/><polygon class="cls-10" points="374.38 171.78 380.96 171.78 381.72 157.24 373.63 157.24 374.38 171.78"/><path class="cls-12" d="M377.67,170.59h0a2.75,2.75,0,0,0,2.74-2.61l.47-9.65h-6.42l.47,9.65A2.75,2.75,0,0,0,377.67,170.59Z"/><path class="cls-12" d="M369.4,158.48a4.46,4.46,0,0,0,4.45,3l0-.62,0-.53-.14-2.69,0-.44h4.44a4.45,4.45,0,1,0-8.67,1.24Z"/><path class="cls-28" d="M373.06,156.39l-1.25-1.76a.34.34,0,0,1,.17-.52l1.2-.39a.34.34,0,0,1,.44.31l.05,2.16A.33.33,0,0,1,373.06,156.39Z"/><path class="cls-28" d="M373.84,155.31l.15-.88a.61.61,0,0,1,.88-.44l.46.23a.61.61,0,0,1,.17,1l-.61.64A.61.61,0,0,1,373.84,155.31Z"/><path class="cls-28" d="M375,156l.73-.51a.61.61,0,0,1,.93.3l.16.5a.61.61,0,0,1-.56.8l-.89,0A.61.61,0,0,1,375,156Z"/><path class="cls-28" d="M373.54,157.91l-.37,2.14a.34.34,0,0,1-.48.24l-1.13-.56a.34.34,0,0,1-.09-.54l1.49-1.56A.34.34,0,0,1,373.54,157.91Z"/><path class="cls-28" d="M373,157.61l-1.77,1.25a.33.33,0,0,1-.51-.17l-.4-1.2a.34.34,0,0,1,.31-.44l2.17-.05A.34.34,0,0,1,373,157.61Z"/><path class="cls-28" d="M372.75,157l-2.13-.37a.33.33,0,0,1-.24-.48l.56-1.13a.34.34,0,0,1,.53-.09l1.57,1.5A.33.33,0,0,1,372.75,157Z"/><path class="cls-25" d="M422.19,159.14a1.51,1.51,0,1,1-1.51-1.51A1.51,1.51,0,0,1,422.19,159.14Z"/><path class="cls-25" d="M425.19,158.43a1.5,1.5,0,1,1-1.5-1.5A1.51,1.51,0,0,1,425.19,158.43Z"/><circle class="cls-25" cx="426.84" cy="158.97" r="1.5"/><path class="cls-29" d="M423.69,159.63a1.2,1.2,0,0,1-2.39,0,1.2,1.2,0,1,1,2.39,0Z"/><path class="cls-29" d="M426.39,159.63a1.2,1.2,0,1,1-1.2-1.2A1.19,1.19,0,0,1,426.39,159.63Z"/><path class="cls-26" d="M585.76,230c-5.12,1.77-5.77,4.27-9.41,10.86.54-4.1-1.87-9.09-1.87-9.09l-2.14,1.75s-1.08,11,2.52,13.45c5.7-3.05,7.11-7.58,7.11-7.58Z"/><path class="cls-26" d="M595.23,231.15c4.47,1.79,6.31,8.53,7.4,13,4.12-1.6,9.63-3.26,9.63-3.26l1.33,2.67A21.79,21.79,0,0,1,599.74,250c-2.76-3.83-4.51-10.81-4.51-10.81Z"/><path class="cls-12" d="M612.26,240.87c.48-.87-.22-4.39,1.07-5.24s.33,1.3.81,1.73,1.78-.87,2.86-2.27,5.57,2.89.09,6.46a28,28,0,0,1-3.5,2Z"/><path class="cls-21" d="M591.24,230.11c3.92.39,6.45,4.36,4,20.88-2.9.62-14,0-14,0s-4.72-19.43,3.39-20.93C588.46,230,591.24,230.11,591.24,230.11Z"/><path class="cls-12" d="M609.27,299l-18.92-17a3.43,3.43,0,0,1-1.37-2.16l-1.88-18.14,9.9-4-1.19,19.14s3.23,2.52,4.83,4c3.26,3.05,6.92,9.55,12.27,15.1Z"/><path class="cls-12" d="M581,303.42l-4.95-24.2c-.4-1.79-.33-2.71,0-3.5L585.42,260l8.82,4.06-11,13.38s.35,2.37.74,4.54c.8,4.39.53,12.14,1.3,21.22Z"/><path class="cls-9" d="M582.79,226.07a2.19,2.19,0,1,1-2.16-2.57A2.39,2.39,0,0,1,582.79,226.07Z"/><path class="cls-9" d="M598,227.2a2.2,2.2,0,1,1-.93-3.22A2.39,2.39,0,0,1,598,227.2Z"/><path class="cls-9" d="M598.37,222.3a2.2,2.2,0,1,1-1.92-2.75A2.39,2.39,0,0,1,598.37,222.3Z"/><path class="cls-9" d="M582.92,221.37c0,1.59-1,2.88-2.17,2.88s-2.16-1.29-2.16-2.88,1-2.88,2.16-2.88S582.92,219.78,582.92,221.37Z"/><path class="cls-12" d="M597.63,217a11.83,11.83,0,0,1-.12,1.7c-.73,5-5,9.92-9.66,9.92-4.16,0-7.28-4.17-8.52-8.35a17.63,17.63,0,0,1,0-4c0-5.78,3.87-9.55,9.06-9.55S597.63,211.23,597.63,217Z"/><path class="cls-12" d="M585.67,226.51v4a4,4,0,0,0,5.37,0,17.67,17.67,0,0,0,0-3.65Z"/><path class="cls-30" d="M586.44,223.7h0c-.72,0-1.19-.2-1.38-.56a1.31,1.31,0,0,1,.23-1.33.27.27,0,1,1,.46.28c-.22.36-.3.64-.22.79s.43.27.92.28a.25.25,0,0,1,.26.27A.27.27,0,0,1,586.44,223.7Z"/><path class="cls-16" d="M585.54,226.22c2.7.44,3.56-1.25,3.57-1.26a.29.29,0,0,0-.16-.39.32.32,0,0,0-.4.14c0,.06-.78,1.48-3.36.86a.3.3,0,0,0-.37.2.29.29,0,0,0,.23.35A4.74,4.74,0,0,0,585.54,226.22Z"/><path class="cls-10" d="M596.14,220.5c-1.19,2.74-16.3,1.71-16.3,1.71-.5,2.95,4.93,5.91,4.93,5.91S593,230.69,596,223A3.84,3.84,0,0,1,596.14,220.5Z"/><path class="cls-9" d="M597.67,217c-.08.94,0,3.15-.79,4a14.41,14.41,0,0,1-8.91-7.6c-1.81,4.1-8.72,6-8.72,6a4.79,4.79,0,0,1-.35-2.4c0-5.77,4.2-10.45,9.39-10.45A9.69,9.69,0,0,1,597.67,217Z"/><path class="cls-13" d="M603.41,272.64a43.94,43.94,0,0,1-28.93-.07c2.44-4.77,6.82-21.58,6.82-21.58h14C597.16,256.37,600.62,265.78,603.41,272.64Z"/><path class="cls-9" d="M582.45,230.51a1.85,1.85,0,1,1-1.82-2.16A2,2,0,0,1,582.45,230.51Z"/><ellipse class="cls-9" cx="580.75" cy="234.31" rx="1.68" ry="2"/><path class="cls-9" d="M597,230.84a1.84,1.84,0,1,1-1.61-2.31A2,2,0,0,1,597,230.84Z"/><path class="cls-9" d="M596.56,234.73a1.71,1.71,0,1,1-1.5-2.14A1.87,1.87,0,0,1,596.56,234.73Z"/><path class="cls-9" d="M582.32,238.17c0,1.24-1.57,3.07-1.57,3.07s-1.56-1.83-1.56-3.07.7-2.25,1.56-2.25S582.32,236.92,582.32,238.17Z"/><path class="cls-9" d="M596.06,238.61c0,1.24-1.7,3-1.7,3s-1.47-1.89-1.41-3.14.8-2.21,1.66-2.17S596.12,237.37,596.06,238.61Z"/><path d="M583.85,220.38a.78.78,0,1,1-.78-.78A.78.78,0,0,1,583.85,220.38Z"/><path d="M591.42,220.53a.84.84,0,1,1-.84-.84A.84.84,0,0,1,591.42,220.53Z"/><path class="cls-9" d="M592.3,219.75a.34.34,0,0,1-.21-.08,2.12,2.12,0,0,0-1.74-.54.31.31,0,0,1-.36-.25.31.31,0,0,1,.25-.36,2.72,2.72,0,0,1,2.27.7.3.3,0,0,1-.21.53Z"/><path class="cls-9" d="M581.92,219.69a.28.28,0,0,1-.22-.1.3.3,0,0,1,0-.43,2.71,2.71,0,0,1,2.42-.76.31.31,0,0,1,.22.37.3.3,0,0,1-.37.23,2.09,2.09,0,0,0-1.84.6A.31.31,0,0,1,581.92,219.69Z"/><path class="cls-12" d="M598.28,222c-.69,1-1.72,1.48-2.31,1.08s-.51-1.54.17-2.54,1.71-1.47,2.3-1.07S599,221,598.28,222Z"/><path class="cls-30" d="M596.84,222.41a.21.21,0,0,1-.19-.13,1.6,1.6,0,0,1,.13-1.36,1.34,1.34,0,0,1,.84-.7.2.2,0,1,1,.08.4.93.93,0,0,0-.57.5,1.21,1.21,0,0,0-.1,1,.21.21,0,0,1-.12.27Z"/><path class="cls-9" d="M612.61,295.76a7.12,7.12,0,0,1,2.78,2.35,1.28,1.28,0,0,1,0,1.72s-6.79,7.33-9.5,7.42a1.18,1.18,0,0,1-1.3-.7c-.68-2,2.12-2.36,4.39-7.64A34.65,34.65,0,0,1,612.61,295.76Z"/><path class="cls-12" d="M612.7,295.69c.13.9-2.84,4.72-3.9,5.13s-.22-1.53.27-2.28A9.14,9.14,0,0,1,612.7,295.69Z"/><path class="cls-9" d="M585.34,302.51a6.31,6.31,0,0,1,1,3,1.11,1.11,0,0,1-.83,1.25s-8.4,2.3-10.46,1.12a1,1,0,0,1-.64-1.12c.43-1.81,2.66-.77,6.78-3.63A29.16,29.16,0,0,1,585.34,302.51Z"/><path class="cls-12" d="M585.34,302.51c-.37.83-4.91,2.51-6,2.29s.86-1.24,1.67-1.61A9.25,9.25,0,0,1,585.34,302.51Z"/><path class="cls-31" d="M568,237.13l.71.25c3.74-10.55,8.29-11.08,8.29-11.08l0-.46C570.21,228.5,568,237.13,568,237.13Z"/><path class="cls-31" d="M569,236a2.29,2.29,0,0,0,3.3-1.23A4,4,0,0,0,569,236Z"/><path class="cls-31" d="M572.6,225.52c-.75,2.56.63,3.16.62,3.19A2.29,2.29,0,0,0,572.6,225.52Z"/><path class="cls-28" d="M577.23,220.45a3.68,3.68,0,1,0,1.16,3A3.76,3.76,0,0,0,577.23,220.45Z"/><path class="cls-28" d="M579.72,225.09a3.74,3.74,0,0,0-3.05,1.15,3.7,3.7,0,0,0,5.81.54A3.61,3.61,0,0,0,579.72,225.09Z"/><path class="cls-28" d="M578,223.31a3.61,3.61,0,0,0-1.33,2.94,3.7,3.7,0,0,0,4.49-3.72A3.82,3.82,0,0,0,578,223.31Z"/><path class="cls-12" d="M572.6,229.68l.41-.5a5.18,5.18,0,0,1,1.47,2.62,2.1,2.1,0,0,1-.94,1.72s-3.22.31-4-1c-.9-1.62.75-3.19.75-3.19s-.5-1.42.47-1.65C571.59,227.46,572.6,229.68,572.6,229.68Z"/><path class="cls-11" d="M705.91,176.08v1.26H669.83a8.13,8.13,0,0,1,13.95-5.66,11.5,11.5,0,0,1,22.13,4.4Z"/><path class="cls-32" d="M613.72,264.84a28.67,28.67,0,0,0,2.55,5.56,29.13,29.13,0,0,0-.45-6.1c-.56-2.18-1.42-3.85-2.06-3.69S613.16,262.66,613.72,264.84Z"/><path class="cls-33" d="M611.73,267.65a24.47,24.47,0,0,0,4.3,3.14,25.08,25.08,0,0,0-2.94-4.44c-1.35-1.42-2.72-2.32-3.14-1.92S610.37,266.23,611.73,267.65Z"/><path class="cls-32" d="M622.23,273.13a28.82,28.82,0,0,1-5.6-2.45,29.19,29.19,0,0,1,6.11.34c2.19.52,3.87,1.36,3.72,2S624.43,273.66,622.23,273.13Z"/><path class="cls-33" d="M619.46,275.18a25.11,25.11,0,0,1-3.21-4.25,24.6,24.6,0,0,1,4.49,2.86c1.44,1.33,2.36,2.68,2,3.1S620.9,276.51,619.46,275.18Z"/><path class="cls-13" d="M614.23,271.88c-1.7,1.72-3.06,3.13-2.72,3.47s1.74-1.05,3.43-2.77,3.07-3.13,2.72-3.48S615.92,270.15,614.23,271.88Z"/><path class="cls-13" d="M617.32,268.3a.81.81,0,1,0,1.14,0A.8.8,0,0,0,617.32,268.3Z"/><path class="cls-34" d="M688.3,322.38h-2.77a60.42,60.42,0,0,0-5.37-7.67,65.63,65.63,0,0,0-14.41-13.12,59.62,59.62,0,0,0-24-9.33c-1.58-.25-3-.41-4.57-.55a.25.25,0,1,1,0-.5c1.51.07,3,.21,4.53.39a60.65,60.65,0,0,1,14,3.41,61.59,61.59,0,0,1,10.86,5.34,67.66,67.66,0,0,1,15.13,12.92A58.36,58.36,0,0,1,688.3,322.38Z"/><path class="cls-34" d="M633.83,288.25c2.33.67,3.52,3.65,3.52,3.65s-2.6,1.89-4.93,1.22-3.51-3.66-3.51-3.66S631.5,287.57,633.83,288.25Z"/><path class="cls-34" d="M641.69,286.67c1.2,2.11,0,5.07,0,5.07s-3.18-.46-4.37-2.57.05-5.07.05-5.07S640.5,284.56,641.69,286.67Z"/><path class="cls-34" d="M636.81,293.26c1.64-1.78,4.84-1.52,4.84-1.52s.54,3.16-1.1,4.95-4.83,1.52-4.83,1.52S635.18,295.05,636.81,293.26Z"/><path class="cls-34" d="M649.56,287.38c.63,2.8-1.78,5.75-1.78,5.75s-3.46-1.61-4.1-4.42,1.78-5.75,1.78-5.75S648.92,284.57,649.56,287.38Z"/><path class="cls-34" d="M642.42,295.88c1.56-2.42,5.36-2.75,5.36-2.75s1.26,3.59-.3,6-5.35,2.75-5.35,2.75S640.86,298.3,642.42,295.88Z"/><path class="cls-34" d="M658.35,289.56c0,3.47-3.6,6.31-3.6,6.31s-3.65-2.8-3.67-6.27,3.6-6.32,3.6-6.32S658.33,286.08,658.35,289.56Z"/><path class="cls-34" d="M648.59,299.72c1.63-3.07,6.16-3.85,6.16-3.85s1.89,4.19.26,7.26-6.16,3.85-6.16,3.85S647,302.79,648.59,299.72Z"/><path class="cls-34" d="M666.22,293.26c-.8,3.38-5,5.29-5,5.29s-2.89-3.57-2.1-7,5-5.29,5-5.29S667,289.87,666.22,293.26Z"/><path class="cls-34" d="M655.73,303.3c1.15-3.29,5.51-4.75,5.51-4.75s2.5,3.86,1.35,7.14-5.5,4.74-5.5,4.74S654.59,306.58,655.73,303.3Z"/><path class="cls-34" d="M673.89,297.34c-.8,3.38-5,5.29-5,5.29s-2.89-3.57-2.1-6.95,5-5.3,5-5.3S674.68,294,673.89,297.34Z"/><path class="cls-34" d="M662.8,306.57c2-2.86,6.58-3.1,6.58-3.1s1.37,4.39-.61,7.24-6.58,3.1-6.58,3.1S660.82,309.42,662.8,306.57Z"/><path class="cls-34" d="M682.15,303.94c-.79,3.38-5,5.29-5,5.29s-2.9-3.58-2.1-7,5-5.29,5-5.29S683,300.55,682.15,303.94Z"/><path class="cls-34" d="M670.14,311.68c2.79-2.08,7.22-.85,7.22-.85s-.09,4.6-2.88,6.68-7.22.84-7.22.84S667.35,313.75,670.14,311.68Z"/><path class="cls-34" d="M684,319a3.79,3.79,0,0,1-.12.45l-.06.19a11.91,11.91,0,0,1-1.28,2.72h-9.33a7.86,7.86,0,0,1,3.56-4.05,7.67,7.67,0,0,1,5.17-.1h0a12.06,12.06,0,0,1,1.17.4C683.68,318.85,684,319,684,319Z"/><path class="cls-35" d="M681.25,302.53v9.84c-2.09-10.51-7.86-23.65-15.85-34a80.53,80.53,0,0,0-14-14.16,85.84,85.84,0,0,0-12.25-8c-.13-.07-.48-.23-.3-.56a.35.35,0,0,1,.46-.14,86.56,86.56,0,0,1,12.75,7.78A81.83,81.83,0,0,1,667,277.47,89.15,89.15,0,0,1,681.25,302.53Z"/><path class="cls-35" d="M636.79,250c2.53,2.1,2.39,6.45,2.39,6.45s-4.25.95-6.78-1.15-2.39-6.45-2.39-6.45S634.25,247.89,636.79,250Z"/><path class="cls-35" d="M647.42,252.28c.34,3.27-2.8,6.28-2.8,6.28s-3.7-2.29-4-5.56,2.79-6.28,2.79-6.28S647.07,249,647.42,252.28Z"/><path class="cls-35" d="M637.78,257.85c3-1.34,6.84.71,6.84.71s-1,4.23-4,5.57-6.84-.72-6.84-.72S634.78,259.18,637.78,257.85Z"/><path class="cls-35" d="M656.82,257.41c-.72,3.84-5.32,6.2-5.32,6.2s-3.43-3.87-2.71-7.71,5.33-6.2,5.33-6.2S657.54,253.57,656.82,257.41Z"/><path class="cls-35" d="M643.35,264.13c3.24-2.16,8.15-.52,8.15-.52s-.37,5.15-3.62,7.32-8.15.53-8.15.53S640.1,266.3,643.35,264.13Z"/><path class="cls-35" d="M666.59,264.87c-1.86,4.34-7.89,5.92-7.89,5.92s-3-5.46-1.18-9.79,7.89-5.91,7.89-5.91S668.44,260.54,666.59,264.87Z"/><path class="cls-35" d="M649,272.25c3.69-2.94,9.75-1.46,9.75-1.46s.08,6.24-3.61,9.17-9.75,1.46-9.75,1.46S645.26,275.19,649,272.25Z"/><path class="cls-35" d="M674.37,273.73c-2.81,3.78-9,3.9-9,3.9s-1.67-6,1.15-9.79,9.06-3.9,9.06-3.9S677.19,270,674.37,273.73Z"/><path class="cls-35" d="M655.9,280.56c3.2-3.47,9.42-2.93,9.42-2.93s1,6.16-2.17,9.62-9.42,2.93-9.42,2.93S652.7,284,655.9,280.56Z"/><path class="cls-35" d="M681.25,273.32v10.2c-2.23,2.42-5.94,3.09-7.66,3.27-.58.06-.93.07-.93.07a14.74,14.74,0,0,1-.38-2.14c-.24-2.1-.22-5.31,1.53-7.65C675.72,274.5,679.21,273.62,681.25,273.32Z"/><path class="cls-35" d="M662.93,288.45c4-2.48,9.85-.3,9.85-.3s-.66,6.21-4.67,8.69-9.85.29-9.85.29S658.92,290.93,662.93,288.45Z"/><path class="cls-35" d="M681.25,288.92v10.42c-.47.08-.88.12-1.2.15s-.67,0-.67,0A15.21,15.21,0,0,1,679,297c-.18-2.09-.05-5,1.58-7.21A7,7,0,0,1,681.25,288.92Z"/><path class="cls-35" d="M669.3,298.78c4.59-1.08,9.44,2.85,9.44,2.85s-2.6,5.67-7.19,6.75-9.44-2.85-9.44-2.85S664.71,299.85,669.3,298.78Z"/><path class="cls-35" d="M681.25,314v2.9c-1.5,1.48-4.1,3.53-7.11,3.58a4.83,4.83,0,0,1-.76,0,8.85,8.85,0,0,1-3.26-1l-.3-.16h0a12.87,12.87,0,0,1-1.64-1.07h0a16.51,16.51,0,0,1-2.66-2.51s.31-.41.87-1a16.91,16.91,0,0,1,1.52-1.44,10.16,10.16,0,0,1,6.06-2.63C677,310.59,679.71,312.59,681.25,314Z"/><path class="cls-35" d="M428.55,318.3a55,55,0,0,1,6.3-16.24,72.49,72.49,0,0,1,4.43-7.05,66.8,66.8,0,0,1,18-17.29,67.47,67.47,0,0,1,15.08-7.28h0a.28.28,0,0,0,.17-.35.29.29,0,0,0-.35-.18,67.14,67.14,0,0,0-34.37,24A73.9,73.9,0,0,0,433,301c-3.82,6.42-5.08,10.3-7.85,17.31Z"/><path class="cls-35" d="M474.91,265.89c-2.3,1.33-2.77,4.81-2.77,4.81s3.26,1.32,5.55,0,2.77-4.82,2.77-4.82S477.2,264.55,474.91,265.89Z"/><path class="cls-35" d="M466.14,266.29c-.71,2.56,1.39,5.38,1.39,5.38s3.25-1.33,4-3.89-1.39-5.38-1.39-5.38S466.85,263.74,466.14,266.29Z"/><path class="cls-35" d="M473.07,272c-2.22-1.47-5.54-.34-5.54-.34s.26,3.5,2.47,5,5.55.33,5.55.33S475.28,273.47,473.07,272Z"/><path class="cls-35" d="M458,269.13c.06,3.15,3.41,5.64,3.41,5.64s3.25-2.63,3.18-5.78-3.41-5.64-3.41-5.64S457.9,266,458,269.13Z"/><path class="cls-35" d="M467.8,276.27c-2.3-2.16-6.42-1.5-6.42-1.5s-.39,4.15,1.91,6.31,6.42,1.51,6.42,1.51S470.1,278.43,467.8,276.27Z"/><path class="cls-35" d="M449.2,273.77c.9,3.7,5.49,5.76,5.49,5.76s3.14-3.94,2.24-7.64-5.49-5.76-5.49-5.76S448.3,270.07,449.2,273.77Z"/><path class="cls-35" d="M462.26,282c-2.54-2.83-7.57-2.46-7.57-2.46s-.89,5,1.66,7.78,7.56,2.46,7.56,2.46S464.81,284.82,462.26,282Z"/><path class="cls-35" d="M441.82,279.79c1.74,3.38,6.69,4.31,6.69,4.31s2.13-4.57.39-8-6.69-4.31-6.69-4.31S440.08,276.4,441.82,279.79Z"/><path class="cls-35" d="M455.62,287.68c-2.09-3.18-7.11-3.58-7.11-3.58s-1.63,4.76.45,7.94,7.11,3.59,7.11,3.59S457.71,290.86,455.62,287.68Z"/><path class="cls-35" d="M434.75,286.16c1.74,3.38,6.69,4.31,6.69,4.31s2.13-4.57.39-8-6.7-4.31-6.7-4.31S433,282.77,434.75,286.16Z"/><path class="cls-35" d="M449,293c-2.87-2.51-7.81-1.55-7.81-1.55s-.3,5,2.56,7.54,7.81,1.54,7.81,1.54S451.84,295.53,449,293Z"/><path class="cls-35" d="M427.71,295.36c1.74,3.38,6.69,4.31,6.69,4.31s2.13-4.57.39-7.95-6.69-4.31-6.69-4.31S426,292,427.71,295.36Z"/><path class="cls-35" d="M442.53,300.4c-3.51-1.47-7.89,1-7.89,1s1.31,4.86,4.82,6.33,7.9-1,7.9-1S446,301.87,442.53,300.4Z"/><path class="cls-35" d="M437.23,309.23c-3.74-.7-7.5,2.66-7.5,2.66s2.31,4.47,6,5.17,7.51-2.66,7.51-2.66S441,309.92,437.23,309.23Z"/><path class="cls-34" d="M412.77,318.3H417c-.1-.71-.71-5.06-.78-5.92a96.88,96.88,0,0,1,.16-16.89,98.13,98.13,0,0,1,1.71-11.17,92.24,92.24,0,0,1,5.69-17.77,87.8,87.8,0,0,1,10.59-18.08c.88-1.19,2.92-3.68,3.58-4.42q1.5-1.73,3.07-3.37c1.7-1.79,3.7-3.71,4.9-4.78h0a.38.38,0,0,0-.5-.56c-1.79,1.53-3.5,3.11-5,4.56-1.14,1.11-2.24,2.25-3.32,3.42-.67.7-2.74,3.07-3.76,4.37A89.51,89.51,0,0,0,421.87,266a95.32,95.32,0,0,0-6.25,17.73,103.42,103.42,0,0,0-2.12,11.42c-.37,2.92-.61,5.83-.73,8.65Z"/><path class="cls-34" d="M446.69,228.82c-2.14,2.9-.84,7.49-.84,7.49s4.77-.12,6.9-3,.84-7.49.84-7.49S448.82,225.92,446.69,228.82Z"/><path class="cls-34" d="M436,234.07c.5,3.57,4.63,5.94,4.63,5.94s3.33-3.42,2.82-7-4.63-5.93-4.63-5.93S435.49,230.5,436,234.07Z"/><path class="cls-34" d="M447.71,237.43c-3.55-.62-7.08,2.58-7.08,2.58s2.22,4.21,5.77,4.84,7.08-2.58,7.08-2.58S451.26,238.06,447.71,237.43Z"/><path class="cls-34" d="M427.36,242c1.79,3.89,7.3,5.18,7.3,5.18s2.62-5,.83-8.91-7.3-5.18-7.3-5.18S425.58,238.12,427.36,242Z"/><path class="cls-34" d="M443.46,245.59c-4-1.44-8.8,1.6-8.8,1.6s1.76,5.38,5.78,6.82,8.81-1.59,8.81-1.59S447.49,247,443.46,245.59Z"/><path class="cls-34" d="M419,252.53c3.12,4.12,10,4.2,10,4.2s1.78-6.6-1.34-10.72-9.95-4.19-9.95-4.19S415.84,248.41,419,252.53Z"/><path class="cls-34" d="M439.66,255.7c-4.7-2.15-10.75,1-10.75,1s1.57,6.65,6.26,8.79,10.75-1,10.75-1S444.36,257.84,439.66,255.7Z"/><path class="cls-34" d="M423.69,265.75a14.42,14.42,0,0,1-1.82.27h0c-2.26.22-6.15.19-8.84-2l-.26-.22V253.55a11.26,11.26,0,0,1,7.1,2.1c2.29,1.88,3.21,4.93,3.58,7.18A17.7,17.7,0,0,1,423.69,265.75Z"/><path class="cls-34" d="M434.47,266.37c-4.32-2.83-10.78-.62-10.78-.62s.54,6.81,4.85,9.65,10.78.61,10.78.61S438.79,269.2,434.47,266.37Z"/><path class="cls-34" d="M418.33,277.5s-.38.09-1,.18a18.28,18.28,0,0,1-4.55.07V266.33a7.84,7.84,0,0,1,1.74,1.07c2.49,2,3.36,5.44,3.66,7.73A15.8,15.8,0,0,1,418.33,277.5Z"/><path class="cls-34" d="M429.09,276.61c-4.92-1.57-10.55,2.3-10.55,2.3s2.35,6.42,7.27,8,10.55-2.3,10.55-2.3S434,278.19,429.09,276.61Z"/><path class="cls-34" d="M425.06,289.28c-5.16.07-9.27,5.53-9.27,5.53s4.26,5.34,9.42,5.27,9.28-5.53,9.28-5.53S430.22,289.21,425.06,289.28Z"/><path class="cls-34" d="M423.24,303.13c-5,1.16-7.9,7.36-7.9,7.36s5.29,4.32,10.32,3.16,7.9-7.36,7.9-7.36S428.27,302,423.24,303.13Z"/><path class="cls-36" d="M474.49,262.77a2.63,2.63,0,0,0,2.78-1.67c.18-.62-2.25-.85-1.46-1.47a2.41,2.41,0,0,1,1.82-.1c1.71.38,1.59.63,2.8,1.41a6.21,6.21,0,0,0,2.8.6s4.23.41,5.54.57c.74-1.42,3.71-7.5,6.77-7.19,6.7,3.82-2.91,11.79-6.3,12.33-1.64.27-8.77-4-10.77-3.9l-.73.56a3.45,3.45,0,0,1-4.13,1.22C471.76,264.64,472.62,262.36,474.49,262.77Z"/><path class="cls-22" d="M510.39,274.69c-2.5-.41-6.49.69-8.72-.51-4.34,2.19-9.81,5.15-9.81,5.15,2.71,2.92,11.34,7.94,11.34,7.94,4.57-2.17,9.1-4.47,14.12-5.11a25.6,25.6,0,0,0-2.6-7.19A23.23,23.23,0,0,1,510.39,274.69Z"/><path class="cls-16" d="M487.72,283.09A80.86,80.86,0,0,0,501,291.53c2-1.63,2.22-2.2,2.76-4.72-3.45-3.11-7-5.84-10.57-8.81C491.06,279.87,487.72,283.09,487.72,283.09Z"/><path class="cls-12" d="M486.49,291c.43,1.75,1,3.42,1.55,5.13,4.67-1.39,7.93-1.72,12.8-3.05-.31-2.47-.55-4.94-.86-7.4C494.54,287.6,491,289.56,486.49,291Z"/><path class="cls-22" d="M519,275.56,499.75,286.5l2.42,5.39c2.6,1.3,11.48,2.57,15.79.1C522.94,289.16,522.31,277,519,275.56Z"/><path class="cls-22" d="M480.12,279.56c2.21,3,14.5,8.91,14.5,8.91l4.44-6.47c-2-1.52-12.57-9.6-16-9.6C481.15,272.84,477.26,275.69,480.12,279.56Z"/><path class="cls-14" d="M501.4,250.59c-1.59-.46-4.33.06-9,5.82,1.74,1.57,5.21,6.93,5.21,6.93s5.87-3.72,5.89-7.49S502.49,250.91,501.4,250.59Z"/><path class="cls-15" d="M499.23,250.91c2.07-1.2,3.81-1.74,8-1.74,2.62,0,8.27-.14,9.86,1-.55,3.35.62,2.62,1.22,6-1,5.62,1.12,13,2.21,22.15-5,1.14-13.15-4-23.66-1.63.18-2.27.77-9.9.77-12.42A83,83,0,0,1,499.23,250.91Z"/><path class="cls-12" d="M489.89,260.32a3.39,3.39,0,0,0,3.59-2.15c.24-.8-2.9-1.09-1.88-1.89a3.11,3.11,0,0,1,2.35-.14c2.2.49,2.05.82,3.61,1.82a8.06,8.06,0,0,0,3.61.77c0-.05,5.46.53,7.14.74,1-1.84,4.79-9.67,8.74-9.27,8.63,4.92-3.77,15.19-8.13,15.9-2.11.34-11.31-5.2-13.89-5l-.94.71c-1.68,2.62-4.48,1.81-5.33,1.58C486.38,262.73,487.49,259.79,489.89,260.32Z"/><path class="cls-14" d="M516.8,249.8c-1.89-.28-4.44.37-8.92,7.68,2.24,1.52,7,7.08,7,7.08s6.12-5.17,5.54-9.47S518.09,250,516.8,249.8Z"/><path class="cls-12" d="M500.27,233c-.77,3.74.79,12.92,6.47,12.92,4,0,8.14-3.86,8.93-11.8S502.41,222.69,500.27,233Z"/><path class="cls-12" d="M511.53,243.54a48.29,48.29,0,0,0,.28,6s-3.58,3.24-6.82.39a22.86,22.86,0,0,1,.84-5.86Z"/><path class="cls-13" d="M511.57,232.74c-1.57,1.41-7.86,2.55-13.38.73s0-3.23,1.95-2.76c-4-.47-4.5-1.83-2.21-2.66a6.19,6.19,0,0,1,3.25-.57s1.3-3.72,7.14-4.13c4.59-.32,11.51,2.74,10.24,11.9a8.52,8.52,0,0,1-5.81,7.26c.85-1,1.36-5.2,1.36-5.2Z"/><path class="cls-12" d="M512.75,236.35c-.7,1.21-.53,2.63.39,3.16a2.3,2.3,0,0,0,2.94-1.24c.7-1.21.53-2.63-.39-3.16A2.3,2.3,0,0,0,512.75,236.35Z"/><path d="M507.21,237.47a.72.72,0,1,0,.71-.71A.71.71,0,0,0,507.21,237.47Z"/><path d="M501.8,237.47a.71.71,0,1,0,.71-.71A.71.71,0,0,0,501.8,237.47Z"/><path class="cls-13" d="M509.23,236.33a.25.25,0,0,0,.18-.08.24.24,0,0,0,0-.34,2.28,2.28,0,0,0-2-.57.24.24,0,0,0-.17.3.24.24,0,0,0,.29.17,1.79,1.79,0,0,1,1.6.45A.24.24,0,0,0,509.23,236.33Z"/><path class="cls-13" d="M501.49,236.47a.22.22,0,0,0,.19-.09c.4-.5,1.37-.41,1.38-.41a.23.23,0,0,0,.26-.21.24.24,0,0,0-.21-.26,2.19,2.19,0,0,0-1.8.58.23.23,0,0,0,0,.34A.19.19,0,0,0,501.49,236.47Z"/><path class="cls-16" d="M505,241.63a2.58,2.58,0,0,0,.46,0,.27.27,0,0,0,.22-.31.27.27,0,0,0-.31-.21,1.3,1.3,0,0,1-1.21-.27l.35-1.4a.26.26,0,0,0-.19-.32.26.26,0,0,0-.32.19l-.42,1.64.07.1A1.56,1.56,0,0,0,505,241.63Z"/><path class="cls-16" d="M513.85,238.64l.09,0a.25.25,0,0,0,.16-.33,1.08,1.08,0,0,1,0-.94,1.47,1.47,0,0,1,1-.51.28.28,0,0,0,.24-.3.27.27,0,0,0-.29-.23,2,2,0,0,0-1.36.76,1.55,1.55,0,0,0-.08,1.39A.27.27,0,0,0,513.85,238.64Z"/><path class="cls-10" d="M504.19,242.63a.29.29,0,0,0-.22.42,2.33,2.33,0,0,0,4-.55.29.29,0,0,0-.33-.33,7.48,7.48,0,0,1-1.7.44A7.3,7.3,0,0,1,504.19,242.63Z"/><path class="cls-19" d="M519,275.56c-4.07-2.57-11.14,6.35-27.28,13.52,1.06,2,1.93,4.89,2.86,7,0,0,13.91-2.7,21.83-8.28,4.49.84,5-2.39,5.08-2.6C522,281,520.78,276.72,519,275.56Z"/><path class="cls-15" d="M486.49,291c-1.74-.19-3.32-.21-3.84.72s1.89,11.62,3.84,11.73S488,296.1,488,296.1Z"/><circle class="cls-37" cx="484.05" cy="249.29" r="5.57"/><path class="cls-10" d="M453.5,126.06s-.13,7.64-9,9.62c0,0,5.5,4.46,7.94,3,2.75-1.61,2.75-7.87,2.75-7.87Z"/><path class="cls-10" d="M529.85,127.31s-1,3.77,9.8,6.39c0,0-1.21,3.89-3.84,4,0,0-4.92,3-8-7.86Z"/><path class="cls-10" d="M500.72,239.66s10,.7,12.51-4c0,0-.24,3,.42,4,0,0-1,8.79-8.87,5.75A6.07,6.07,0,0,1,500.72,239.66Z"/></g></svg>