<svg id="Layer_1" data-name="Layer 1" xmlns="http://www.w3.org/2000/svg" viewBox="0 0 1062 472"><defs><style>.cls-1{fill:#ec5039;}.cls-1,.cls-10{opacity:0.1;}.cls-10,.cls-2{fill:#91278e;}.cls-3{fill:#fff;}.cls-4{fill:#f0a12c;}.cls-5,.cls-7{fill:#7e298a;}.cls-6{fill:#e85a43;}.cls-7{fill-rule:evenodd;}.cls-8{fill:#3dc6f3;}.cls-9{fill:none;stroke:#414042;stroke-miterlimit:10;}</style></defs><circle class="cls-1" cx="785.98" cy="236" r="207.39"/><circle class="cls-2" cx="785.98" cy="236.94" r="127.38" transform="matrix(0.16, -0.99, 0.99, 0.16, 426.2, 974.81)"/><circle class="cls-3" cx="785.98" cy="236.94" r="123.24" transform="translate(-27.8 128.96) rotate(-9.22)"/><path class="cls-4" d="M746,202.19a2.13,2.13,0,1,0,.51-3,2.12,2.12,0,0,0-.51,3"/><path class="cls-4" d="M737.21,200.59a3.36,3.36,0,0,0,4.72.8,3.41,3.41,0,0,0,.81-4.74,3.37,3.37,0,0,0-4.73-.81,3.42,3.42,0,0,0-.8,4.75"/><path class="cls-4" d="M725.09,202.08a4.75,4.75,0,0,0,6.65,1.13,4.8,4.8,0,0,0,1.12-6.68,4.76,4.76,0,0,0-6.65-1.14,4.81,4.81,0,0,0-1.12,6.69"/><path class="cls-4" d="M713.89,209.57a5.57,5.57,0,0,0,7.79,1.33,5.64,5.64,0,0,0,1.31-7.83,5.56,5.56,0,0,0-7.78-1.33,5.64,5.64,0,0,0-1.32,7.83"/><path class="cls-4" d="M706,222a6.21,6.21,0,0,0,8.7,1.47,6.28,6.28,0,0,0,1.48-8.75A6.26,6.26,0,1,0,706,222"/><path class="cls-5" d="M730.28,255.28a2.14,2.14,0,1,0,.4,4.26,2.14,2.14,0,0,0-.4-4.26"/><path class="cls-5" d="M735.17,248.33a3.41,3.41,0,1,0,3.69,3.07,3.4,3.4,0,0,0-3.69-3.07"/><path class="cls-5" d="M739.63,237.35a4.8,4.8,0,1,0,5.2,4.32,4.81,4.81,0,0,0-5.2-4.32"/><path class="cls-5" d="M738.45,224.43a5.61,5.61,0,1,0,6.08,5.06,5.6,5.6,0,0,0-6.08-5.06"/><path class="cls-5" d="M731.74,211.35a6.28,6.28,0,1,0,6.8,5.66,6.26,6.26,0,0,0-6.8-5.66"/><path class="cls-6" d="M689.26,215.5a2.16,2.16,0,0,0-1.16-2.8,2.14,2.14,0,1,0,1.16,2.8"/><path class="cls-6" d="M693.05,223.12a3.39,3.39,0,1,0-4.42,1.83,3.37,3.37,0,0,0,4.42-1.83"/><path class="cls-6" d="M700.6,232.23a4.78,4.78,0,1,0-6.24,2.58,4.81,4.81,0,0,0,6.24-2.58"/><path class="cls-6" d="M712.51,237.24a5.59,5.59,0,1,0-7.3,3,5.61,5.61,0,0,0,7.3-3"/><path class="cls-6" d="M727.14,237.42a6.25,6.25,0,1,0-8.16,3.39,6.29,6.29,0,0,0,8.16-3.39"/><path class="cls-7" d="M826.54,222.3a23.36,23.36,0,0,1,.71-4.5c.51-2.57,2.36-10.67,3.85-11.76,0,3.28-1.56,7.49-2.47,10.54a20.51,20.51,0,0,1-.6,2l-1.41,3.58a.7.7,0,0,1-.08.14m-16.28.86c-.17-1.63.58-4.1,2-3.89a15.15,15.15,0,0,1-2,3.89m15.17-.65.06.07s-.08,0-.06-.07m-31.5,8.27c.55-1.89,2.57-3.93,4.6-3.93.42,1.39-3,4.46-4.6,3.93M866.86,232c.13-1.61,4.5-4.81,6.85-5.48-1.2,3.29-6.31,7.75-6.85,5.48M866,256.85c.06-2.58,2.41-6.25,3.47-8,1.35-2,3.35-5.12,4.79-6.93-.08,3.36-3.3,8.87-5.4,12a8.4,8.4,0,0,1-2.86,3M761,219.78a21.23,21.23,0,0,0,2.91,10.46c.8,1.52,3.7,6.39,3.75,7.93.1,2.92-3.12,4.94-6.5,3-1-.58-1-.74-1.92-.81.27,2.29,3.27,6,6.72,6,2.5,0,4.06-.58,6.5-3.08,7.94-8.13-6-19.88-2.69-27.29a10.42,10.42,0,0,1,5.6-5c3.4-1.37,5.59,1.41,5.49-1.43-.14-4-6.58-3.95-9.5-2.88a15.92,15.92,0,0,0-7.94,6,11.06,11.06,0,0,0-1.6,3,12,12,0,0,0-.82,4m74.26,2.12c1.87,2.65,4.74.54,4.74-1.55,0-1.54-.92-2.6-2.27-2.5-2.56.18-4.14,1.69-2.47,4.05m-40.74,3.54a14.07,14.07,0,0,0-4.27,4.88,10.38,10.38,0,0,0-1.18,3c-.8,3.51.47,8.28,4.34,8.67l.27,0,.5,0c3.69.1,6.06-1.18,8.72-3.84a8.26,8.26,0,0,0,.94-1l2.6-3a66.55,66.55,0,0,0,4.66-7.49l1.29.66c-.1,1.33-2.09,4.83-2.74,6.13-1,2.05-2,4.73-.46,6.6a4.16,4.16,0,0,0,5.08,1.21,13.82,13.82,0,0,0,5.51-4.85,23.92,23.92,0,0,0,2,8.46c2,4.07,6.9,3,6.11,1.3a28.35,28.35,0,0,1-2-9.11,60.37,60.37,0,0,1,0-7.12c.15-1.43,2.38-5.1,3.38-7.46,2.41-5.66,4.44-10.67,5-17.1.1-1-.71-3.87-3.56-2.89a10.74,10.74,0,0,0-2.68,1c-7.08,4.58-8.39,20.6-8.49,27.94a3.35,3.35,0,0,1-.17,1.2c-.4,1-4.24,6.23-6.14,7.24,0-1.13,2.8-6.77,3.54-8.6,2.09-5.22-1.49-5.39-4.41-6.78,1.61-3,3.43-5.79,1-7.75a3.61,3.61,0,0,0-2.65-.82c-2.81.49-3.91,5-3.58,7.47.16,1.21,1,1.57,1.51,2.4-.32,1.35-3,4.82-3.86,5.9l-1.61,1.86a13.78,13.78,0,0,1-3.34,3.16c-2.21,1.52-6.09,2-6.79-.79a5.26,5.26,0,0,1-.22-1.55c5.06-.37,10.25-2.44,8-8.6-.92-2.51-4.65-1.41-6.35-.31m68.37,33.28c.29,1.35,1.22,1.53,2.68,1.74,1.71.24,4.26-1.79,5.41-2.9a21.84,21.84,0,0,0,5.31-7.93,20.87,20.87,0,0,0,.85-2.39c.66-2.26,1.22-8.93,1.49-9.52,1.09-1.39,5.05-4.13,6.48-5.8a5.11,5.11,0,0,0,1.66-3.9c-1.64.38-4.56,2.54-6.17,3.6a22,22,0,0,1-2.08,1.38c0-1.26-.17-1.59-.22-2.59-.23-4.43,1-6.12-2.41-6.49-5.81-.78-11,3.4-13,7.78-.83,1.63-4.09,6.69-5.51,7.07,0-3.7,2.34-10.35-1.48-11.53-4.35-1.35-6.2,1.88-8,4.64l-.09.13.27-3c.71-3.52.66-4.36-3.52-3.09-2.43.74-1,3.69-2.62,5.84-1.19,1.61-4.51,6.39-6.47,6.56a19.88,19.88,0,0,1,.83-5.9c.23-.93,1.43-4.86,1.26-5.5-.2-.82-4.4-5.26-6.65,3.38a15.76,15.76,0,0,0-.69,5.66c.8,5.79,6.83,6,10.71,1.09.37-.47.34-.57.84-.9a21.77,21.77,0,0,0-.23,3.26c.13,1.4.93,1,2,1.45.83.35,1.39,1.14,2.27.23.31-.32,4-9.32,6.57-11,0,3.42-.51,4.74-.66,7.36-.06,1.28-.09,2.57.71,3.44a2.89,2.89,0,0,0,2.81,1.2c3.64,0,6.42-3.92,8.16-6.65,4.88,3.19,10.11-1.66,11.44-5,0,1.17.24,4.71-.25,5.6-.68,1.24-3.58,4.4-4.66,5.76a45.93,45.93,0,0,0-4.43,7.36c-2.58,5.41-2.54,7.43-2.6,9.59m-78-13c.09-.83.19-3.68.32-4.55l2.18-16.24c.23-2.17.44-4.4.65-6.72,2.28-.12,3.63.48,5.39-2-.89-.4-2.1-.37-5-.37a50.84,50.84,0,0,0,.83-7.7c-1.77-1.19-5.34-1.64-6.08.42a41.58,41.58,0,0,0-1.18,7.07,21.49,21.49,0,0,0-4.34.43c.39,1.7,2.28,2,3.91,2-.32,3.74-.91,7.74-1.08,11.71l-.24,3.43a65.11,65.11,0,0,0,.22,8.76c.09,2.5,4.08,5.13,4.46,3.83"/><path class="cls-8" d="M759.27,267a12.9,12.9,0,0,1,.87-4.76,11.86,11.86,0,0,1,2.41-3.84,11.18,11.18,0,0,1,8.24-3.51,10.53,10.53,0,0,1,5.51,1.44,8.88,8.88,0,0,1,3.6,3.93l-1.5.55a8.25,8.25,0,0,0-3.19-3.28,8.92,8.92,0,0,0-4.55-1.18,9.12,9.12,0,0,0-3.85.82,9.78,9.78,0,0,0-3.14,2.25,10.31,10.31,0,0,0-2.1,3.39,11.66,11.66,0,0,0-.75,4.19,11.23,11.23,0,0,0,.8,4.22,11.61,11.61,0,0,0,2.14,3.48,10,10,0,0,0,3.14,2.37,8.76,8.76,0,0,0,3.8.86,9.38,9.38,0,0,0,2.62-.38,10.71,10.71,0,0,0,2.39-1A8.26,8.26,0,0,0,777.6,275a4.33,4.33,0,0,0,1.07-1.8l1.55.46a6.5,6.5,0,0,1-1.34,2.28,9.57,9.57,0,0,1-2.19,1.79,11.36,11.36,0,0,1-5.85,1.62,10.57,10.57,0,0,1-4.51-1,11.76,11.76,0,0,1-3.66-2.66,12.76,12.76,0,0,1-3.4-8.75Z"/><path class="cls-8" d="M770.84,279.89a11.11,11.11,0,0,1-4.73-1,12.35,12.35,0,0,1-3.82-2.78,13.12,13.12,0,0,1-2.59-4.1,13.91,13.91,0,0,1,0-10,12.35,12.35,0,0,1,2.52-4,11.74,11.74,0,0,1,8.61-3.67,11.17,11.17,0,0,1,5.78,1.51,9.54,9.54,0,0,1,3.8,4.16l.24.52-2.45.89-.22-.39a7.77,7.77,0,0,0-3-3.08,8.41,8.41,0,0,0-4.29-1.11,8.69,8.69,0,0,0-3.63.77,9.34,9.34,0,0,0-3,2.13,9.75,9.75,0,0,0-2,3.23,11,11,0,0,0-.72,4,10.57,10.57,0,0,0,.76,4,11.36,11.36,0,0,0,2,3.33,9.31,9.31,0,0,0,3,2.25,8.37,8.37,0,0,0,6,.45,10.36,10.36,0,0,0,2.28-1,8.14,8.14,0,0,0,1.78-1.39,3.85,3.85,0,0,0,.95-1.59l.14-.5,2.56.75-.17.51a7.1,7.1,0,0,1-1.44,2.46,10.41,10.41,0,0,1-2.31,1.9,12.27,12.27,0,0,1-2.88,1.24A11.68,11.68,0,0,1,770.84,279.89Zm-.05-24.5a10.76,10.76,0,0,0-4.36.89,10.63,10.63,0,0,0-3.5,2.45,11.32,11.32,0,0,0-2.31,3.68,12.46,12.46,0,0,0,2.42,13,11.35,11.35,0,0,0,3.51,2.55,10.49,10.49,0,0,0,7.24.52,11.16,11.16,0,0,0,2.63-1.13,8.59,8.59,0,0,0,2.07-1.7,6.09,6.09,0,0,0,1-1.59l-.54-.16a5.34,5.34,0,0,1-1,1.52,9,9,0,0,1-2,1.57,11.23,11.23,0,0,1-2.51,1.07,9.47,9.47,0,0,1-6.79-.5,10.65,10.65,0,0,1-3.31-2.5,12.28,12.28,0,0,1-2.23-3.63,11.62,11.62,0,0,1-.84-4.41,12.19,12.19,0,0,1,.79-4.37,10.78,10.78,0,0,1,2.2-3.56,10.41,10.41,0,0,1,3.31-2.37,9.89,9.89,0,0,1,8.87.38,8.77,8.77,0,0,1,3.16,3.1l.54-.2a8.46,8.46,0,0,0-3.13-3.21A10.16,10.16,0,0,0,770.79,255.39Z"/><path class="cls-8" d="M791.33,279.37a8.07,8.07,0,0,1-3.05-.57,7.79,7.79,0,0,1-2.46-1.55,7.11,7.11,0,0,1-1.64-2.3,7,7,0,0,1-.59-2.87,5.31,5.31,0,0,1,.73-2.75,6.61,6.61,0,0,1,2-2.16,10,10,0,0,1,3.09-1.42,14.8,14.8,0,0,1,3.94-.5,26.16,26.16,0,0,1,4,.32,18,18,0,0,1,3.67,1V264a7.86,7.86,0,0,0-2-5.67,7.18,7.18,0,0,0-5.44-2.12,10.38,10.38,0,0,0-3.69.75A18,18,0,0,0,786,259.1l-.72-1.13q4.54-3.11,8.42-3.1a8.72,8.72,0,0,1,6.54,2.46,9.28,9.28,0,0,1,2.39,6.74v12.39c0,.66.27,1,.81,1v1.46a1.2,1.2,0,0,1-.24,0H803a1.69,1.69,0,0,1-1.3-.57,2,2,0,0,1-.52-1.39v-2.09a10.79,10.79,0,0,1-4.24,3.3A13.59,13.59,0,0,1,791.33,279.37Zm.18-1.32a12.88,12.88,0,0,0,3.4-.46,12.26,12.26,0,0,0,3.07-1.25,8.07,8.07,0,0,0,2.23-1.84,3.44,3.44,0,0,0,.87-2.23V267.8a20.9,20.9,0,0,0-7.56-1.36,13.09,13.09,0,0,0-3.42.41,9.12,9.12,0,0,0-2.66,1.13,5.47,5.47,0,0,0-1.73,1.76,4.38,4.38,0,0,0-.62,2.3,5.69,5.69,0,0,0,.5,2.37,6.2,6.2,0,0,0,1.37,1.91,6.07,6.07,0,0,0,2,1.27A6.68,6.68,0,0,0,791.51,278.05Z"/><path class="cls-8" d="M791.33,279.89a8.69,8.69,0,0,1-3.24-.61,8.33,8.33,0,0,1-2.62-1.65,7.59,7.59,0,0,1-1.76-2.47,7.51,7.51,0,0,1-.64-3.08,5.89,5.89,0,0,1,.8-3,7.41,7.41,0,0,1,2.18-2.33,10.94,10.94,0,0,1,3.25-1.49,20.17,20.17,0,0,1,8.19-.19,19.18,19.18,0,0,1,3.07.73V264a7.38,7.38,0,0,0-1.88-5.31,6.62,6.62,0,0,0-5.07-2,9.69,9.69,0,0,0-3.5.72,17.08,17.08,0,0,0-3.8,2.09l-.45.32-1.29-2,.41-.28c3.12-2.12,6-3.19,8.72-3.19a9.23,9.23,0,0,1,6.91,2.62,9.8,9.8,0,0,1,2.53,7.1v12.39c0,.48.14.48.3.48H804v2.36l-.36.11a1.25,1.25,0,0,1-.4.07H803a2.21,2.21,0,0,1-1.68-.74,2.47,2.47,0,0,1-.66-1.74v-.71a11.6,11.6,0,0,1-3.51,2.39A14.09,14.09,0,0,1,791.33,279.89Zm2-14.12a14.22,14.22,0,0,0-3.8.48,9.6,9.6,0,0,0-2.94,1.34,6.32,6.32,0,0,0-1.87,2,4.86,4.86,0,0,0-.66,2.49,6.33,6.33,0,0,0,.55,2.66,6.59,6.59,0,0,0,1.52,2.14,7.48,7.48,0,0,0,2.29,1.44,7.7,7.7,0,0,0,2.86.53,13.1,13.1,0,0,0,5.39-1.11,10.53,10.53,0,0,0,3.12-2.11,9.81,9.81,0,0,1-1.6,1.16,13.33,13.33,0,0,1-3.2,1.31,10.35,10.35,0,0,1-6.24,0,6.9,6.9,0,0,1-2.2-1.38,6.69,6.69,0,0,1-1.48-2.08,6.18,6.18,0,0,1-.54-2.58,5,5,0,0,1,.68-2.57,6.1,6.1,0,0,1,1.9-1.92,9.49,9.49,0,0,1,2.81-1.2,13.6,13.6,0,0,1,3.55-.43,21.43,21.43,0,0,1,7.74,1.4l.34.13v4.82a3.79,3.79,0,0,1-.56,2l.65-.85V277a1.45,1.45,0,0,0,.38,1,1.15,1.15,0,0,0,.86.4v-.55a1.38,1.38,0,0,1-.82-1.43V264.07a8.84,8.84,0,0,0-2.24-6.38,8.25,8.25,0,0,0-6.17-2.3,14.45,14.45,0,0,0-7.71,2.73l.16.25a17.81,17.81,0,0,1,3.58-1.91,11,11,0,0,1,3.88-.79,7.73,7.73,0,0,1,5.82,2.28,8.38,8.38,0,0,1,2.17,6v3.3l-.71-.27a16.82,16.82,0,0,0-3.56-.92A25,25,0,0,0,793.38,265.77Zm.14,1.19a12.83,12.83,0,0,0-3.28.39,8.7,8.7,0,0,0-2.52,1.07,4.86,4.86,0,0,0-1.57,1.59,3.85,3.85,0,0,0-.54,2,5,5,0,0,0,.46,2.15,5.34,5.34,0,0,0,1.25,1.75,5.65,5.65,0,0,0,1.86,1.17,9.11,9.11,0,0,0,5.59,0,12.22,12.22,0,0,0,3-1.19,7.57,7.57,0,0,0,2.09-1.73,2.89,2.89,0,0,0,.75-1.9v-4.11A20.54,20.54,0,0,0,793.52,267Z"/><path class="cls-8" d="M817.61,256.69a9.46,9.46,0,0,0-5.69,2.07,10.12,10.12,0,0,0-3.37,5.26v14.9H807V255.23h1.5v6a11.49,11.49,0,0,1,3.28-4.1,8.63,8.63,0,0,1,4.37-1.87c.3,0,.59-.05.85-.05h.61Z"/><path class="cls-8" d="M809.06,279.43h-2.58V254.72H809v4.62a11.42,11.42,0,0,1,2.44-2.6,9.24,9.24,0,0,1,4.63-2,7.44,7.44,0,0,1,.91-.05h1.13v2.47l-.5,0a9,9,0,0,0-5.39,2,9.63,9.63,0,0,0-3.18,4.93Zm-1.54-1H808l0-14.52a10.66,10.66,0,0,1,3.54-5.52,9.9,9.9,0,0,1,5.5-2.15v-.46H817a7.45,7.45,0,0,0-.79.05,8.13,8.13,0,0,0-4.11,1.76,10.93,10.93,0,0,0-3.13,3.91l-1,2v-7.73h-.46Z"/><path class="cls-8" d="M827.81,279.37a10.57,10.57,0,0,1-4.51-1,11.7,11.7,0,0,1-3.67-2.68,13.2,13.2,0,0,1-2.48-13.46,12.05,12.05,0,0,1,2.42-3.83,11.64,11.64,0,0,1,3.59-2.59,10.43,10.43,0,0,1,4.47-1,10.79,10.79,0,0,1,4.55,1,11.18,11.18,0,0,1,3.64,2.62,12.05,12.05,0,0,1,2.44,3.89,12.76,12.76,0,0,1,.89,4.74v.36a.6.6,0,0,1,0,.32H817.88a12.19,12.19,0,0,0,1,4.07,11,11,0,0,0,2.18,3.26,10.3,10.3,0,0,0,3.1,2.16,8.9,8.9,0,0,0,3.71.8,9.52,9.52,0,0,0,2.53-.34,9.66,9.66,0,0,0,2.34-1,8.51,8.51,0,0,0,1.92-1.53,8.06,8.06,0,0,0,1.32-1.93l1.41.36a8,8,0,0,1-1.46,2.3,9.08,9.08,0,0,1-2.25,1.82,12.23,12.23,0,0,1-2.8,1.19A11.16,11.16,0,0,1,827.81,279.37Zm9.79-12.93a11.85,11.85,0,0,0-1-4.1,10.68,10.68,0,0,0-2.16-3.24,9.63,9.63,0,0,0-3.07-2.11,9.32,9.32,0,0,0-3.74-.75,9,9,0,0,0-3.73.77,9.53,9.53,0,0,0-3,2.14,10.89,10.89,0,0,0-2.09,3.23,12,12,0,0,0-.94,4.06Z"/><path class="cls-8" d="M827.81,279.89a11.11,11.11,0,0,1-4.73-1,12.25,12.25,0,0,1-3.83-2.8,13.42,13.42,0,0,1-2.56-4.13,13.65,13.65,0,0,1-.92-5,13.14,13.14,0,0,1,.9-4.88,12.41,12.41,0,0,1,2.52-4,12.12,12.12,0,0,1,3.76-2.71,10.9,10.9,0,0,1,4.68-1,11.37,11.37,0,0,1,4.77,1,12,12,0,0,1,3.8,2.73,12.85,12.85,0,0,1,2.54,4.06,13.34,13.34,0,0,1,.93,4.93v.36a.91.91,0,0,1-.2.68l-.15.16H818.46a11.78,11.78,0,0,0,.92,3.34,10.46,10.46,0,0,0,2.08,3.11,9.85,9.85,0,0,0,2.94,2,8.63,8.63,0,0,0,5.89.43,9.07,9.07,0,0,0,2.22-.93,7.67,7.67,0,0,0,1.8-1.43,7.38,7.38,0,0,0,1.23-1.8l.18-.39,2.4.62-.22.55a8.65,8.65,0,0,1-1.55,2.45A9.51,9.51,0,0,1,834,278.2a13.16,13.16,0,0,1-2.92,1.24A11.68,11.68,0,0,1,827.81,279.89Zm-.18-24.5a9.85,9.85,0,0,0-4.25.91,11.19,11.19,0,0,0-5.74,6.14,12,12,0,0,0-.84,4.5,12.46,12.46,0,0,0,.86,4.61,11.94,11.94,0,0,0,2.36,3.8,11.05,11.05,0,0,0,3.5,2.57,10.48,10.48,0,0,0,7.24.52,12.21,12.21,0,0,0,2.69-1.13,8.73,8.73,0,0,0,2.12-1.72,7.17,7.17,0,0,0,1.12-1.61l-.41-.11a8.51,8.51,0,0,1-1.21,1.68,8.82,8.82,0,0,1-2,1.63,10.39,10.39,0,0,1-2.47,1,9.65,9.65,0,0,1-6.58-.49,10.69,10.69,0,0,1-3.26-2.27,11.73,11.73,0,0,1-2.29-3.41,12.83,12.83,0,0,1-1.06-4.24l0-.56h21.31v-.16a12.35,12.35,0,0,0-.85-4.55,11.89,11.89,0,0,0-2.33-3.73,10.92,10.92,0,0,0-3.48-2.5A10.33,10.33,0,0,0,827.63,255.39ZM838.15,267H817.33l0-.55a12.9,12.9,0,0,1,1-4.23,11.56,11.56,0,0,1,2.19-3.39,9.89,9.89,0,0,1,11.08-2.28,10.43,10.43,0,0,1,3.24,2.23,11.39,11.39,0,0,1,2.27,3.39,12.66,12.66,0,0,1,1,4.28Zm-19.71-1H837a11.44,11.44,0,0,0-.87-3.37,10.2,10.2,0,0,0-2.06-3.08,8.9,8.9,0,0,0-10-2,9.19,9.19,0,0,0-2.87,2,10.21,10.21,0,0,0-2,3.08A11.56,11.56,0,0,0,818.44,265.92Z"/><path class="cls-8" d="M848.8,279.37a14,14,0,0,1-5.1-.91,11.5,11.5,0,0,1-4.19-2.82l.87-1.05a14.26,14.26,0,0,0,3.91,2.59,11.14,11.14,0,0,0,4.47.87,9.31,9.31,0,0,0,5.37-1.41,4.53,4.53,0,0,0,2-4,3.52,3.52,0,0,0-.52-2,4.28,4.28,0,0,0-1.53-1.37,11.71,11.71,0,0,0-2.48-1c-1-.29-2.12-.59-3.39-.89s-2.44-.6-3.4-.89a10.52,10.52,0,0,1-2.39-1,3.77,3.77,0,0,1-1.41-1.51,5.21,5.21,0,0,1-.45-2.32,6,6,0,0,1,2.52-5.17,8.12,8.12,0,0,1,2.69-1.25,12.66,12.66,0,0,1,3.26-.41,11.67,11.67,0,0,1,4.94,1,6.89,6.89,0,0,1,3,2.41l-1,.77a6.23,6.23,0,0,0-2.94-2.09,11.49,11.49,0,0,0-4.12-.73,11.12,11.12,0,0,0-2.64.3,6.05,6.05,0,0,0-2.16.95,4.89,4.89,0,0,0-1.48,1.66,4.83,4.83,0,0,0-.55,2.37,4.07,4.07,0,0,0,.36,1.82,3,3,0,0,0,1.16,1.21,8.29,8.29,0,0,0,2,.82q1.2.35,2.94.75c1.45.34,2.74.67,3.87,1a13.06,13.06,0,0,1,2.87,1.18,5,5,0,0,1,1.79,1.68,4.83,4.83,0,0,1,.62,2.56,6.09,6.09,0,0,1-.64,2.84,6.41,6.41,0,0,1-1.8,2.16,8.09,8.09,0,0,1-2.82,1.39A13.2,13.2,0,0,1,848.8,279.37Z"/><path class="cls-8" d="M848.8,279.89a14.56,14.56,0,0,1-5.28-.95,11.89,11.89,0,0,1-4.38-2.94l-.32-.34,1.51-1.82.4.36a13.83,13.83,0,0,0,3.77,2.51,10.61,10.61,0,0,0,4.26.82,8.82,8.82,0,0,0,5.08-1.32,4,4,0,0,0,1.82-3.53,3,3,0,0,0-.44-1.7,3.85,3.85,0,0,0-1.34-1.2,11.29,11.29,0,0,0-2.38-1c-1-.28-2.11-.58-3.36-.88s-2.47-.6-3.43-.89A10.93,10.93,0,0,1,842.2,266a4.18,4.18,0,0,1-1.6-1.72,5.65,5.65,0,0,1-.51-2.55,7,7,0,0,1,.74-3.3,6.77,6.77,0,0,1,2-2.29,8.74,8.74,0,0,1,2.86-1.33,13.17,13.17,0,0,1,3.39-.43,12.16,12.16,0,0,1,5.15,1,7.48,7.48,0,0,1,3.25,2.6l.27.41-1.86,1.37-.31-.42a5.72,5.72,0,0,0-2.7-1.92,11.14,11.14,0,0,0-3.94-.69,10.69,10.69,0,0,0-2.52.28,5.67,5.67,0,0,0-2,.88,4.29,4.29,0,0,0-1.33,1.48,4.4,4.4,0,0,0-.48,2.12,3.49,3.49,0,0,0,.31,1.59,2.42,2.42,0,0,0,1,1,7.8,7.8,0,0,0,1.88.76c.8.23,1.77.48,2.92.75,1.49.34,2.77.67,3.9,1a14.06,14.06,0,0,1,3,1.23,5.59,5.59,0,0,1,2,1.86,5.44,5.44,0,0,1,.69,2.83,6.78,6.78,0,0,1-.7,3.08,7,7,0,0,1-1.94,2.33,8.69,8.69,0,0,1-3,1.48A13.83,13.83,0,0,1,848.8,279.89Zm-8.59-4.28a11,11,0,0,0,3.68,2.37,13.63,13.63,0,0,0,4.91.87,13,13,0,0,0,3.53-.45,7.67,7.67,0,0,0,2.64-1.3,6.06,6.06,0,0,0,1.66-2,5.66,5.66,0,0,0,.58-2.61,4.3,4.3,0,0,0-.54-2.28,4.36,4.36,0,0,0-1.61-1.51,13.35,13.35,0,0,0-2.76-1.14c-1.09-.32-2.38-.66-3.84-1-1.17-.28-2.15-.53-3-.76a8.71,8.71,0,0,1-2.13-.87,3.45,3.45,0,0,1-1.36-1.43,4.51,4.51,0,0,1-.42-2,5.44,5.44,0,0,1,.61-2.61,5.36,5.36,0,0,1,1.64-1.84,6.93,6.93,0,0,1,2.34-1,12.22,12.22,0,0,1,2.76-.31,12.07,12.07,0,0,1,4.31.77,7.07,7.07,0,0,1,2.84,1.86l.23-.17a6.83,6.83,0,0,0-2.52-1.83,11.17,11.17,0,0,0-4.72-.91,12,12,0,0,0-3.12.39,7.59,7.59,0,0,0-2.52,1.17,5.63,5.63,0,0,0-1.69,1.94,5.83,5.83,0,0,0-.63,2.81,4.77,4.77,0,0,0,.4,2.09,3.25,3.25,0,0,0,1.23,1.3,9.24,9.24,0,0,0,2.26,1c.94.29,2,.58,3.36.89s2.42.6,3.43.89a12.43,12.43,0,0,1,2.59,1.05,4.89,4.89,0,0,1,1.7,1.53,4.11,4.11,0,0,1,.61,2.27,5.06,5.06,0,0,1-2.27,4.38,9.84,9.84,0,0,1-5.67,1.51,11.72,11.72,0,0,1-4.67-.91,14.27,14.27,0,0,1-3.65-2.33Z"/><circle class="cls-9" cx="785.98" cy="236" r="164.91"/><circle class="cls-10" cx="1038.6" cy="236.31" r="19.81"/><circle class="cls-10" cx="254.86" cy="238.86" r="32.36"/></svg>