<svg xmlns="http://www.w3.org/2000/svg" xmlns:xlink="http://www.w3.org/1999/xlink" viewBox="0 0 1062 337"><defs><style>.cls-1{isolation:isolate;}.cls-2{fill:#f5f5f5;}.cls-3{fill:#808184;}.cls-4{fill:#404041;}.cls-5{fill:#fff;}.cls-6{fill:#8c8993;}.cls-7{fill:#f1eff3;}.cls-8{fill:#b0bec5;}.cls-9{fill:#90a4ae;}.cls-10{fill:#cfd8dc;}.cls-11{fill:#2e4149;opacity:0.3;mix-blend-mode:multiply;}.cls-12{fill:#40a6bd;}.cls-13{fill:#156f85;}.cls-14{fill:#79f1f3;}.cls-15{fill:#e8ffff;}.cls-16{fill:#3c2415;}.cls-17{fill:#125732;}.cls-18{fill:#009148;}.cls-19{fill:#76ff03;}.cls-20{fill:#65e513;}.cls-21{fill:#00c853;}.cls-22{fill:#454b4c;}.cls-23{fill:#2e3333;}.cls-24{fill:#1f1f1f;}.cls-25{fill:#888f91;}.cls-26{fill:#747a7c;}.cls-27{fill:#585e60;}.cls-28{fill:#363d3d;}.cls-29{fill:#191c1c;}.cls-30{fill:#423130;}.cls-31{fill:#775454;}.cls-32{fill:#d6d6d6;}.cls-33{fill:#969294;}.cls-34{fill:#979a9b;}.cls-35{fill:#414849;}.cls-36{fill:#292d2d;}.cls-37{fill:#fcbe9f;}.cls-38{fill:url(#Áåçûìÿííûé_ãðàäèåíò_720);}.cls-39{fill:#f1f1f1;}.cls-40{fill:#191817;}.cls-41{fill:url(#Áåçûìÿííûé_ãðàäèåíò_720-2);}.cls-42{fill:#1b1d1e;}.cls-43{fill:url(#Áåçûìÿííûé_ãðàäèåíò_720-3);}.cls-44{fill:url(#Áåçûìÿííûé_ãðàäèåíò_720-4);}.cls-45{fill:#f3a984;}.cls-46{fill:#231f20;}.cls-47{fill:url(#Áåçûìÿííûé_ãðàäèåíò_720-5);}.cls-48{fill:#eeefef;}.cls-49{fill:none;}.cls-50{fill:#f1f1f4;}.cls-51{fill:#abe1e6;}.cls-52{fill:#8dc1c5;}.cls-53{fill:#ce3a45;}.cls-54{fill:#ec5039;opacity:0.1;}</style><linearGradient id="Áåçûìÿííûé_ãðàäèåíò_720" x1="14485.08" y1="110.24" x2="14519.81" y2="119.32" gradientTransform="matrix(-1, 0, 0, 1, 15047.87, 0)" gradientUnits="userSpaceOnUse"><stop offset="0" stop-color="#382f2b"/><stop offset="0.24" stop-color="#3b322e"/><stop offset="1" stop-color="#3e3531"/></linearGradient><linearGradient id="Áåçûìÿííûé_ãðàäèåíò_720-2" x1="14495.95" y1="94.64" x2="14507.03" y2="94.64" xlink:href="#Áåçûìÿííûé_ãðàäèåíò_720"/><linearGradient id="Áåçûìÿííûé_ãðàäèåíò_720-3" x1="14488.71" y1="176.1" x2="14521.01" y2="176.1" xlink:href="#Áåçûìÿííûé_ãðàäèåíò_720"/><linearGradient id="Áåçûìÿííûé_ãðàäèåíò_720-4" x1="14492.55" y1="135.38" x2="14518.79" y2="135.38" xlink:href="#Áåçûìÿííûé_ãðàäèåíò_720"/><linearGradient id="Áåçûìÿííûé_ãðàäèåíò_720-5" x1="14167.93" y1="3160.57" x2="14170.5" y2="3180.5" gradientTransform="matrix(-0.95, -0.3, -0.3, 0.95, 15024.31, 1342.34)" xlink:href="#Áåçûìÿííûé_ãðàäèåíò_720"/></defs><g class="cls-1"><g id="Layer_1" data-name="Layer 1"><path id="Floor" class="cls-2" d="M629.28,121.27c64.22,47.75,64.22,125.18,0,172.94s-168.37,47.75-232.6,0-64.23-125.18,0-172.94S565.05,73.51,629.28,121.27Z"/><polygon class="cls-3" points="507.87 302.45 404.59 242.7 406.3 234.18 507.87 292.95 507.87 302.45"/><polygon class="cls-4" points="507.87 302.45 507.87 292.95 651.3 210.14 651.3 219.65 507.87 302.45"/><polygon class="cls-5" points="507.23 292.67 406.3 234.18 406.94 230.99 507.87 289.48 507.23 292.67"/><polygon class="cls-6" points="507.87 292.95 507.87 289.38 651.3 206.58 651.3 210.14 507.87 292.95"/><polygon class="cls-7" points="512.98 285.98 410.01 228.57 547.17 149.38 650.13 206.79 512.98 285.98"/><polygon class="cls-8" points="553.45 3.46 410.01 86.27 416.29 89.88 553.45 10.69 553.45 3.46"/><polygon class="cls-9" points="553.45 10.69 416.29 89.88 416.29 232.19 553.45 153 553.45 10.69"/><polygon class="cls-10" points="410.01 228.57 416.29 232.19 416.29 89.88 410.01 86.27 410.01 228.57"/><path class="cls-11" d="M583.46,174a8.85,8.85,0,0,0-8.51,0,2.85,2.85,0,0,0,0,5.26,8.85,8.85,0,0,0,8.51,0,2.85,2.85,0,0,0,0-5.26Z"/><path class="cls-12" d="M580.68,174.77a6.12,6.12,0,0,0-5.53,0,1.69,1.69,0,0,0,0,3.19,6.12,6.12,0,0,0,5.53,0,1.69,1.69,0,0,0,0-3.19Z"/><path class="cls-13" d="M581,176.25l-2.54.41v1a1.77,1.77,0,0,1,.17,1,5.2,5.2,0,0,0,2-.62,3,3,0,0,0,.61-.46A2.25,2.25,0,0,0,581,176.25Z"/><path class="cls-14" d="M584.33,167.51H571.5s-1.89,7.49,3.75,9.77a7.12,7.12,0,0,0,5.33,0C586.22,175,584.33,167.51,584.33,167.51Z"/><path class="cls-12" d="M578.76,177.75a7.28,7.28,0,0,0,1.82-.47,6.68,6.68,0,0,0,1.22-.64c1.15-1.37,2.86-4.31,2-9.13h-4.42c-.09.24-.13.38-.13.38l1.06,1.73S581.4,175.5,578.76,177.75Z"/><path class="cls-12" d="M573.65,171.62c2.9,1.86,6.66,1.5,9.64,0a4.8,4.8,0,0,0,1.34-.93c0-.33,0-.66,0-1a2.49,2.49,0,0,1-.19.3,4.41,4.41,0,0,1-1.71,1.24,11,11,0,0,1-4.54,1.11,7.45,7.45,0,0,1-6.13-2.87,7.88,7.88,0,0,0,5.46,2.29,8.94,8.94,0,0,0,5.62-1.75,9.9,9.9,0,0,0,1.42-1.28c0-.23-.06-.43-.08-.6a9.18,9.18,0,0,1-1.17,1.24c-2.84,2.48-7.48,2.92-10.51.5a4.78,4.78,0,0,1-1.41-1.82c0,.23-.08.52-.12.85A6.8,6.8,0,0,0,573.65,171.62ZM574.9,176a6.54,6.54,0,0,0,3.83.46,6.74,6.74,0,0,0,3.47-2.1,20.28,20.28,0,0,1,2.3-2.35,8.2,8.2,0,0,0,.1-.85l-.21.16c-.72.55-1.36,1.22-2,1.81a11.86,11.86,0,0,1-2.38,1.67,3.6,3.6,0,0,1-3,.08,11.26,11.26,0,0,1-4.12-3.08,12.54,12.54,0,0,1-1.66-2.36c0,.09,0,.18,0,.26a13.15,13.15,0,0,0,3.44,4,7,7,0,0,0,3.45,1.69,5.48,5.48,0,0,0,3.8-1.54l.39-.31a9.88,9.88,0,0,1-2.2,1.93c-2.53,1.48-5.73.42-7.59-1.63a9.47,9.47,0,0,1-1.12-1.56,7,7,0,0,0,.17.73A7.66,7.66,0,0,0,574.9,176Z"/><path class="cls-13" d="M583.13,170.07a10.59,10.59,0,0,0,.86-.72c0-.18,0-.36,0-.55-.2.22-.42.43-.64.63a8.4,8.4,0,0,1-2.85,1.62l0,.37A8.85,8.85,0,0,0,583.13,170.07Zm-.41,1.22a11.68,11.68,0,0,1-2.21.8v.54a12.1,12.1,0,0,0,2.78-1,5.51,5.51,0,0,0,.67-.38c0-.25,0-.5,0-.76A5.73,5.73,0,0,1,582.72,171.29Zm-.38,1.88a12.72,12.72,0,0,1-2,1.47c0,.12,0,.24-.07.36a10.24,10.24,0,0,0,1.65-1.09l.39-.31a9.66,9.66,0,0,1-2.18,1.91,6.26,6.26,0,0,1-.21.61,8,8,0,0,0,2.3-1.72c.47-.49,1-1.11,1.52-1.66.07-.31.13-.64.18-1C583.37,172.22,582.87,172.71,582.34,173.17Z"/><path class="cls-15" d="M582.45,164.89a10,10,0,0,0-9.07,0,2.77,2.77,0,0,0,0,5.24,10.06,10.06,0,0,0,9.07,0,2.77,2.77,0,0,0,0-5.24Z"/><path class="cls-12" d="M581.85,165.24a8.62,8.62,0,0,0-7.87,0,2.4,2.4,0,0,0,0,4.54,8.71,8.71,0,0,0,7.87,0,2.4,2.4,0,0,0,0-4.54Z"/><path class="cls-16" d="M581.85,166.74a8.71,8.71,0,0,0-7.87,0,3.27,3.27,0,0,0-1.47,1.52,3.36,3.36,0,0,0,1.47,1.52,8.71,8.71,0,0,0,7.87,0,3.36,3.36,0,0,0,1.47-1.52A3.27,3.27,0,0,0,581.85,166.74Z"/><path class="cls-17" d="M572.59,162.74c0-.22.31-.39.48-.5a1.69,1.69,0,0,1,1-.25,2.76,2.76,0,0,0,.49.07.85.85,0,0,0,.49-.28,1.07,1.07,0,0,1,.72-.26,1.09,1.09,0,0,1,.73.34,1,1,0,0,0,.42.25,1.74,1.74,0,0,0,.45.06,1.35,1.35,0,0,1,.74.17,1,1,0,0,1,.38.71,1.82,1.82,0,0,1-.29,1,1.5,1.5,0,0,0-.23.84,2.83,2.83,0,0,0,.11.31v0s0,0,0,0a1.87,1.87,0,0,1,.07.22s0,.06-.07,0a1.67,1.67,0,0,0-.65-.3,2.15,2.15,0,0,0-.72.05,2.36,2.36,0,0,1-1.29-.08,1.25,1.25,0,0,1-.45-.34,1.91,1.91,0,0,1-.26-.56,1.15,1.15,0,0,0-.32-.58,1.53,1.53,0,0,0-.59-.2.73.73,0,0,1-.45-.32.59.59,0,0,0-.28-.26.51.51,0,0,0-.45,0,0,0,0,0,1,0,0A.32.32,0,0,1,572.59,162.74Z"/><path class="cls-18" d="M575.07,162.56l-.6,1.16a.08.08,0,0,0,0,0,1.53,1.53,0,0,0-.59-.2l-.11,0,.84-.81Zm-.24,1.92.27-1-.1-.38-.35.86a2.31,2.31,0,0,1,.1.28C574.78,164.33,574.8,164.41,574.83,164.48Z"/><path class="cls-17" d="M583.54,160.11c0-.22-.31-.4-.48-.5a1.62,1.62,0,0,0-1-.25,2.63,2.63,0,0,1-.49.07.9.9,0,0,1-.49-.28,1.11,1.11,0,0,0-.72-.27,1.15,1.15,0,0,0-.73.35,1.08,1.08,0,0,1-.41.25,2.42,2.42,0,0,1-.46.06,1.31,1.31,0,0,0-.73.17.94.94,0,0,0-.38.71,1.83,1.83,0,0,0,.28,1,1.63,1.63,0,0,1,.24.85l-.12.31h0a0,0,0,0,0,0,0,1.42,1.42,0,0,0-.07.22s0,.05.07,0a1.65,1.65,0,0,1,.66-.3,2.18,2.18,0,0,1,.72,0,2.23,2.23,0,0,0,1.28-.07,1.25,1.25,0,0,0,.45-.34,2,2,0,0,0,.26-.56,1.15,1.15,0,0,1,.32-.58,1.42,1.42,0,0,1,.6-.2.78.78,0,0,0,.44-.32.66.66,0,0,1,.28-.27.54.54,0,0,1,.45.05s0,0,0,0A.28.28,0,0,0,583.54,160.11Z"/><path class="cls-19" d="M580.48,158.89h-.15a1,1,0,0,0-.31.07l-.28,1.27.4-.25Zm-1.37,1.8.34-.3.28-1.27-.13.11a1.08,1.08,0,0,1-.41.25l-.1,0Z"/><path class="cls-18" d="M579.31,150.38a1.09,1.09,0,0,0-.69.81,9.75,9.75,0,0,0-.27,1.93c-.16,1.51-.27,3-.34,4.55a83.62,83.62,0,0,0-.23,9.88c0,.29.48.31.46,0-.15-2.84,0-6.25.13-9.09,0-1.41.11-2.81.21-4.21,0-.69.11-1.39.17-2.09s0-1.35.62-1.63C579.46,150.5,579.4,150.35,579.31,150.38Z"/><path class="cls-18" d="M585,146.38a1.58,1.58,0,0,0-1-.46,2.54,2.54,0,0,0-1.65.22,4.54,4.54,0,0,1-.68.38,1.32,1.32,0,0,1-.87-.13,1.68,1.68,0,0,0-1.21,0,1.81,1.81,0,0,0-.88.91,1.73,1.73,0,0,1-.46.61,2.62,2.62,0,0,1-.64.34,2.13,2.13,0,0,0-1,.67,1.49,1.49,0,0,0-.16,1.25,3,3,0,0,0,1,1.3,2.54,2.54,0,0,1,.83,1.1c0,.17,0,.35,0,.52v0a0,0,0,0,0,0,0c0,.12,0,.24,0,.36s.09.06.12,0a2.78,2.78,0,0,1,.79-.81,3.4,3.4,0,0,1,1.08-.34,3.58,3.58,0,0,0,1.84-.84,1.78,1.78,0,0,0,.46-.75,2.65,2.65,0,0,0,.06-1,2,2,0,0,1,.15-1,2.56,2.56,0,0,1,.76-.62,1.12,1.12,0,0,0,.46-.72,1.1,1.1,0,0,1,.27-.55.77.77,0,0,1,.68-.18.08.08,0,0,0,.07-.05A.55.55,0,0,0,585,146.38Z"/><path class="cls-19" d="M577.61,150c1.7-.33,3.41-.57,5.13-.76a1,1,0,0,1,.14-.47.91.91,0,0,1,.18-.21l-4.66.54a.25.25,0,0,0-.19.36l-.7.18C577.28,149.72,577.38,150.07,577.61,150Z"/><path class="cls-20" d="M582.21,151.55a1.78,1.78,0,0,0,.46-.75,1.27,1.27,0,0,0,.06-.28c-.75.12-1.5.24-2.24.38-.91.11-1.81.24-2.71.42a.22.22,0,0,0-.17.19h-.05a4,4,0,0,1,.49.51c1.3-.1,2.61-.19,3.91-.27A1.64,1.64,0,0,0,582.21,151.55Z"/><path class="cls-19" d="M578.91,148.62l3.26-.3,1.44-.13,0,0a1.06,1.06,0,0,0,.29-.31l-1.5.16-3.52.36C578.76,148.4,578.75,148.63,578.91,148.62Z"/><path class="cls-17" d="M584.16,146.11a1.37,1.37,0,0,1,.92.35l0-.08a1.58,1.58,0,0,0-1-.46,2.54,2.54,0,0,0-1.65.22,4.54,4.54,0,0,1-.68.38,1.32,1.32,0,0,1-.87-.13,1.68,1.68,0,0,0-1.21,0,1.81,1.81,0,0,0-.88.91,1.73,1.73,0,0,1-.46.61,2.62,2.62,0,0,1-.64.34,2.13,2.13,0,0,0-1,.67,1.49,1.49,0,0,0-.16,1.25,3,3,0,0,0,1,1.3,2.54,2.54,0,0,1,.83,1.1c0,.17,0,.35,0,.52v0a0,0,0,0,0,0,0s0,.08,0,.12v-.05c.38-1.91.49-3.92,2.24-5.12.36-.25.73-.46,1.1-.68s.79-.56,1.19-.83A2.24,2.24,0,0,1,584.16,146.11Z"/><path class="cls-21" d="M579.84,148.8a4,4,0,0,0-.62,1l-.72-2a2.09,2.09,0,0,0,.27-.43,2.47,2.47,0,0,1,.47-.65Q579.57,147.72,579.84,148.8Zm-1,2.2-.11-.14c-.27-.36-.54-.73-.8-1.1l-.8-1.2a1.57,1.57,0,0,0-.38.35c.24.37.49.73.74,1.09l.58.81c.2.29.41.57.62.86C578.7,151.44,578.75,151.22,578.81,151Zm2.73-3.47c0-.33.05-.66.08-1a.82.82,0,0,1-.27,0,11.6,11.6,0,0,0-.12,1.17Zm-1.14-1.24a1.78,1.78,0,0,0-.46,0c.06.72.13,1.43.21,2.15a5,5,0,0,1,.43-.34C580.53,147.52,580.46,146.9,580.4,146.29Z"/><path class="cls-17" d="M568.44,153.89c.61.31,1,.92,1.73,1.05a1.77,1.77,0,0,0,.94-.08,8.65,8.65,0,0,1,1-.42,1.4,1.4,0,0,1,1.14.24c.28.2.49.47.77.67a2.41,2.41,0,0,0,1.06.43,2.53,2.53,0,0,0,1.19,0c.07,0,.1-.06.11-.09s0-.14-.09-.28a3.15,3.15,0,0,1-.17-.6,6.72,6.72,0,0,1-.08-1.27,3.32,3.32,0,0,0-.32-1.7,1.49,1.49,0,0,0-1.24-.72,3.07,3.07,0,0,1-1-.2,2.22,2.22,0,0,1-.62-.43,1.57,1.57,0,0,0-1.2-.57,2.89,2.89,0,0,0-1.74.68,1.65,1.65,0,0,1-1,.4,3.29,3.29,0,0,0-1,0,2.62,2.62,0,0,0-1.29,1.17,2.72,2.72,0,0,0-.45,1.93c.07.37.4,0,.67-.3S567.6,153.46,568.44,153.89Z"/><path class="cls-18" d="M570.41,151.35h0c0-.1,0-.19.05-.29a.19.19,0,0,0-.23-.22.1.1,0,0,0-.15.06c-.05.2-.09.4-.14.6a21.56,21.56,0,0,0-.67,3,2.72,2.72,0,0,0,.8.44C570.18,153.73,570.29,152.54,570.41,151.35Zm2.66,3.22c.26-.86.51-1.73.77-2.6a.21.21,0,0,0,0-.19l0-.11a.21.21,0,0,0-.21-.26.23.23,0,0,0-.41,0l-.27.71.21-.68c0-.11-.15-.16-.19-.05-.3,1-.59,2-.92,3l.06,0A1.48,1.48,0,0,1,573.07,154.57Zm3-1c0-.11,0-.22,0-.34l-.62.49a20.12,20.12,0,0,0-1.65,1.41,1.78,1.78,0,0,0,.26.22,2.07,2.07,0,0,0,.32.19L576,154C576,153.85,576,153.71,576,153.57ZM570.71,155c.06-1.34.09-2.67.26-4,0-.09-.15-.12-.16,0a28.65,28.65,0,0,0-.4,4ZM569,151.09a.15.15,0,0,0,0-.07h-.09c-.19,0-.39,0-.58,0-.11.34-.21.67-.3,1a11.05,11.05,0,0,0-.48,1.61,2.37,2.37,0,0,1,.83.25C568.56,152.93,568.75,152,569,151.09Z"/><path class="cls-17" d="M577.73,160.64a24.39,24.39,0,0,0-.45-3.61,2.16,2.16,0,0,0-1.6-1.85c-.12,0-.17.36,0,.38,1.16.2,1.35,1.45,1.47,2.41.14,1.15.24,2.32.31,3.48.14,2.33.17,4,.19,6.28a.22.22,0,0,0,.43,0C578,165.13,577.94,163.24,577.73,160.64Z"/><path class="cls-18" d="M576.26,155.41q-.09-.28-.15-.57a6.72,6.72,0,0,1-.08-1.27,3.32,3.32,0,0,0-.32-1.7,1.49,1.49,0,0,0-1.24-.72,3.07,3.07,0,0,1-1-.2,2.22,2.22,0,0,1-.62-.43,1.57,1.57,0,0,0-1.2-.57,2.89,2.89,0,0,0-1.74.68,1.65,1.65,0,0,1-1,.4,3.29,3.29,0,0,0-1,0,2.62,2.62,0,0,0-1.29,1.17,2.72,2.72,0,0,0-.46,1.85,2.87,2.87,0,0,1,3.25-2.42,14.89,14.89,0,0,1,2.73.66,10.3,10.3,0,0,1,2.26.66c.82.44,1,1.27,1.47,2A2.82,2.82,0,0,0,576.26,155.41Z"/><path class="cls-20" d="M572.85,150.52a1.58,1.58,0,0,0-.44-.37c0,.73-.12,1.45-.18,2.17l.82.19c0-.59.05-1.18.06-1.77A1.78,1.78,0,0,1,572.85,150.52Zm1.91.67v.35c0,.53-.07,1.06-.09,1.59a3.1,3.1,0,0,1,.81,1.11c0-.86,0-1.72.08-2.58A1.4,1.4,0,0,0,574.76,151.19Zm-6.66.27-.39-.29a.09.09,0,0,0-.12,0h0a2.59,2.59,0,0,0-.56.49l.54.32a3.08,3.08,0,0,1,.94-.32Zm3.49.68.21.07c-.19-.74-.35-1.49-.5-2.24l-.13,0m-1.42,1.68a2.14,2.14,0,0,1,.35.06c-.22-.28-.44-.56-.68-.82l-.21.07Q569.49,151.32,569.75,151.68Zm1-.34-.15-.25c-.13-.23-.26-.46-.38-.69l-.35.23-.14.09.63,1.08.83.23Z"/><path class="cls-17" d="M578,159.69a6.7,6.7,0,0,0-.24-1.78c-.13-.39-.36-.92-.81-1-.94-.2-2.36,1.19-2.62,1.86,0,.1.31.36.35.27a5.31,5.31,0,0,1,1-1.34c.27-.27,1-.62,1.39-.34.21.14.31.58.37.81a15.16,15.16,0,0,1,.21,3.37c0,2.32,0,4.65,0,7,0,.31.47.3.48,0C578.1,165.56,578.14,162.62,578,159.69Z"/><path class="cls-17" d="M576.84,159a1.69,1.69,0,0,0-.51-.64,3,3,0,0,0-.68-.31c-.15-.06-.28-.32-.44-.32a3,3,0,0,1-.67,0,3.55,3.55,0,0,1-.7-.22,3.81,3.81,0,0,0-1.4-.36,1.32,1.32,0,0,0-.92.36,2.37,2.37,0,0,0-.46,1,2.19,2.19,0,0,1-.9,1.11,3.57,3.57,0,0,0-.88.81,1.14,1.14,0,0,0-.19,1,6,6,0,0,0,.48.9c.27.54,0,1-.06,1.55a1.08,1.08,0,0,0,.2.92.24.24,0,0,0,.22.15c.14,0,.14-.18.14-.29a1,1,0,0,1,.55-.81c1-.56,2.21-.17,3.08-.92a1.36,1.36,0,0,0,.38-.54c.11-.27.13-.59.42-.75a2.05,2.05,0,0,1,.7-.17,3,3,0,0,0,.77-.19,1.78,1.78,0,0,0,1-.94A1.74,1.74,0,0,0,576.84,159Z"/><path class="cls-18" d="M572.88,158.8a.2.2,0,0,0-.36,0l-.06-.13c0-.12-.23-.07-.18.05.45,1.16,1,2.29,1.46,3.43.08.17.15.34.22.51a.84.84,0,0,0,.12-.23,3,3,0,0,1,.2-.52A25.08,25.08,0,0,1,572.88,158.8Zm.77-.51-.11,0c-.23-.11-.42.22-.2.33l.17.08,0,0c1.11.62,2.21,1.25,3.26,2a1.35,1.35,0,0,0,.16-.29,1.41,1.41,0,0,0,.09-.58c-1.06-.5-2.11-1-3.16-1.53A.21.21,0,0,0,573.65,158.29Zm-1.63.86a.18.18,0,0,0-.35.1l0,.09a.18.18,0,0,0-.24.19l.06.31a.11.11,0,0,0-.06.12c.25,1.17.5,2.34.77,3.51a3.2,3.2,0,0,0,1.11-.29C572.87,161.85,572.43,160.5,572,159.15Z"/><path class="cls-18" d="M575.16,157.69a3.22,3.22,0,0,1-.62,0,3.55,3.55,0,0,1-.7-.22,3.81,3.81,0,0,0-1.4-.36,1.32,1.32,0,0,0-.92.36,2.37,2.37,0,0,0-.46,1,2.19,2.19,0,0,1-.9,1.11,3.57,3.57,0,0,0-.88.81,1.14,1.14,0,0,0-.19,1,6,6,0,0,0,.48.9c.27.54,0,1-.06,1.55a1.08,1.08,0,0,0,.2.92.33.33,0,0,0,.15.14c-.33-.84.24-2.17,1.13-3.58,1-1.66,2-1,2.94-2.32A7.74,7.74,0,0,1,575.16,157.69Z"/><path class="cls-20" d="M571,161.37l-.06.09c-.55.13-1.11.25-1.66.36a1.34,1.34,0,0,1-.12-.24c.65-.15,1.31-.29,2-.41Zm.32-1.42-1.92.33-.11.15a1.42,1.42,0,0,0-.2.41c.83,0,1.65-.08,2.47-.17.58-.54,1.13-.57,1.68-.93C572.59,159.8,572,159.86,571.31,160Zm0-2.18a6,6,0,0,0-.23.72c1,.11,2.09.17,3.14.19a8,8,0,0,1,.77-.83C573.75,157.81,572.53,157.76,571.3,157.77Z"/><path class="cls-17" d="M580.42,154.74a4.9,4.9,0,0,0-1.61,2.83,19.67,19.67,0,0,0-.73,3.88c-.15,1.4-.22,2.81-.27,4.22,0,.69,0,.51,0,1.21v1c0,.25-.06.54.12.72.43.41.32-1.06.31-1.25v-.87c0-.63,0-.4,0-1,0-1.27.08-2.54.2-3.81A21.41,21.41,0,0,1,579,158a5.82,5.82,0,0,1,1.53-3.15C580.64,154.82,580.52,154.67,580.42,154.74Z"/><path class="cls-17" d="M587.93,159.56c0-.32-.22-.59-.24-.91s.15-.6.08-.91c-.14-.59-.75-.82-1.17-1.16a1.31,1.31,0,0,1-.44-.88,3.73,3.73,0,0,0-.31-1s0,0,0,0a2.14,2.14,0,0,0-.1-.22,2.11,2.11,0,0,0-.45-.58,2.38,2.38,0,0,0-1.3-.61,2.6,2.6,0,0,0-2,.61,2.06,2.06,0,0,0-.69.17,3.16,3.16,0,0,0-1.07.74,5.27,5.27,0,0,0-.43.51l-.19.27c0,.06-.16.19-.15.26s0,0,.06-.06a1.08,1.08,0,0,1,.4-.3.53.53,0,0,1,.63.25,3.84,3.84,0,0,1,.28,1.12,1.76,1.76,0,0,0,1.1,1.08,2.57,2.57,0,0,0,.87.15,1.94,1.94,0,0,1,.54,0,1,1,0,0,1,.51.43c.44.54,1.08.49,1.72.5a1.6,1.6,0,0,1,1.18.41,1.29,1.29,0,0,1,.42,1.12c0,.15.25.07.32,0a.64.64,0,0,0,.25-.31A1.52,1.52,0,0,0,587.93,159.56Z"/><path class="cls-21" d="M584.12,158.48a13.46,13.46,0,0,0,0-1.68,24.53,24.53,0,0,0-.54-3.52,3.05,3.05,0,0,1,.43,0,2,2,0,0,1,.35.08,11,11,0,0,1,.62,5.69,1.53,1.53,0,0,1-.85-.29C584.11,158.68,584.12,158.58,584.12,158.48Zm2.31-2.08a17.08,17.08,0,0,1,.39,3.09,1.84,1.84,0,0,1,.27.37,15.75,15.75,0,0,0-.4-3.21l-.09-.07A.58.58,0,0,1,586.43,156.4ZM581.5,154l-.15.06a2.25,2.25,0,0,0-.46.24,6.39,6.39,0,0,1,.27,3.06,1.9,1.9,0,0,0,.82.57h0A5.56,5.56,0,0,0,581.5,154Zm1.11,4.07H583a7.86,7.86,0,0,0-.56-4.46l-.21.14A7.78,7.78,0,0,1,582.61,158.08Z"/><path class="cls-18" d="M587.93,159.56c0-.32-.22-.59-.24-.91s.15-.6.08-.91c-.14-.59-.75-.82-1.17-1.16a1.31,1.31,0,0,1-.44-.88,3.73,3.73,0,0,0-.31-1s0,0,0,0a2.14,2.14,0,0,0-.1-.22,2.11,2.11,0,0,0-.45-.58,2.38,2.38,0,0,0-1.3-.61,2.6,2.6,0,0,0-2,.61,2.41,2.41,0,0,1,2.37.86c1.28,1.25.68,1.84,1.6,2.33s2.34,2.9,1.23,3.57c.06.06.24,0,.3,0a.64.64,0,0,0,.25-.31A1.52,1.52,0,0,0,587.93,159.56Z"/><path class="cls-20" d="M584.46,153.41a4.24,4.24,0,0,0-1.48.49,1.83,1.83,0,0,0-.94,0,2.6,2.6,0,0,1,2-.61A1.91,1.91,0,0,1,584.46,153.41Zm1.77,2.59c-.33-.05-.67-.09-1-.11a1.54,1.54,0,0,1,.08.19q.51.06,1,.15A1.57,1.57,0,0,1,586.23,156Zm-.06-.29h0a3.75,3.75,0,0,0-.23-.79,6.66,6.66,0,0,0-1.34,0,3.22,3.22,0,0,1,.53.73h.75Z"/><path class="cls-17" d="M578.18,162.83a18.25,18.25,0,0,0-.2,2.67l0,1.41a12.21,12.21,0,0,0,0,1.6c0,.21.39.31.43.05a21.44,21.44,0,0,0,0-2.89,23.92,23.92,0,0,1,.07-2.81C578.45,162.72,578.21,162.69,578.18,162.83Z"/><path class="cls-18" d="M583.25,163.84c-.17-.22-.45-.26-.68-.39-.48-.26-.13-.69.08-1a1.28,1.28,0,0,0-.2-1.59,1.83,1.83,0,0,0-1.87-.41,3.25,3.25,0,0,0-1.63,1.14,3.32,3.32,0,0,0-2.22.07c-.79.31-1.6,1.13-1.19,2s1.79.51,2.62.54a1.31,1.31,0,0,1,.81.31c.2.16.35.37.54.54a1,1,0,0,0,.53.28c.3.06.62-.06.92,0a.8.8,0,0,1,.54.79c0,.16.12.39.33.35s.21-.27.26-.42a2.65,2.65,0,0,1,.82-1C583.19,164.79,583.57,164.23,583.25,163.84Z"/><path class="cls-20" d="M576.64,162.82a5.41,5.41,0,0,0-.81,1.26,1,1,0,0,1-.23-.27,6.48,6.48,0,0,1,1-1.36,5.66,5.66,0,0,1,1.23-1,3.25,3.25,0,0,1,.54,0A4.59,4.59,0,0,0,576.64,162.82Zm3.05-1.95a3.56,3.56,0,0,0-.74.71l-.4-.1a7.93,7.93,0,0,0-1.17,1.7,9.48,9.48,0,0,0-.55,1.16c.45,0,.94-.12,1.32-.11a17.22,17.22,0,0,1,1.55-3A.35.35,0,0,0,579.69,160.87Zm.69.62c0-.1-.11-.17-.2-.12a.2.2,0,0,0-.19.12c-.17.32-.33.64-.49,1a13.13,13.13,0,0,0-.79,1.9,1.51,1.51,0,0,1,.26.18.86.86,0,0,1,.14.13,19.2,19.2,0,0,1,1.28-2.95A.23.23,0,0,0,580.38,161.49Zm1.35.81a.19.19,0,0,0,0-.12.11.11,0,0,0-.15-.09.19.19,0,0,0-.25.15c-.17,1-.31,2.08-.42,3.13l.09,0a.75.75,0,0,1,.52.64"/><path class="cls-17" d="M582.91,165.08c.28-.29.66-.85.34-1.24-.17-.22-.45-.26-.68-.39-.48-.26-.13-.69.08-1a1.28,1.28,0,0,0-.2-1.59,1.83,1.83,0,0,0-1.87-.41,3.25,3.25,0,0,0-1.63,1.14,3.11,3.11,0,0,1,1.47.79c.93.75.56,1.37,1.34,1.87s-.07,1.41.09,2.29c.17-.05.19-.27.24-.42A2.65,2.65,0,0,1,582.91,165.08Z"/><path class="cls-18" d="M582,160.49l-.23-.08a22,22,0,0,0-1.61,1.73l.24.18C580.87,161.7,581.4,161.09,582,160.49ZM579.86,162c.4-.52.79-1.06,1.15-1.61a2.17,2.17,0,0,0-.43.08l-.25.09a14.44,14.44,0,0,0-.89,1.21A4.78,4.78,0,0,1,579.86,162Zm2.71,1.48c-.42-.23-.2-.59,0-.89-.52.17-1,.37-1.53.58a4.1,4.1,0,0,0,.36.76c.44-.14.88-.26,1.33-.37Z"/><polygon class="cls-11" points="550.61 163.55 528.44 176.59 528.44 132.89 550.61 119.85 550.61 163.55"/><g class="cls-1"><polygon class="cls-22" points="544.34 175.54 544.34 177.89 546.57 179.18 546.56 176.84 544.34 175.54"/><polygon class="cls-23" points="546.56 176.84 546.57 179.18 548.82 177.89 548.81 175.54 546.56 176.84"/></g><polygon class="cls-24" points="539.23 169.97 541.46 171.26 541.47 173.61 539.22 174.9 537 173.61 536.99 171.26 539.23 169.97"/><g class="cls-1"><polygon class="cls-22" points="536.99 171.26 537 173.61 539.22 174.9 539.22 172.56 536.99 171.26"/><polygon class="cls-23" points="539.22 172.56 539.22 174.9 541.47 173.61 541.46 171.26 539.22 172.56"/></g><polygon class="cls-25" points="547.13 133.15 536.11 126.75 536.23 170.84 547.25 177.24 547.13 133.15"/><polygon class="cls-26" points="563.57 123.66 552.55 117.25 536.11 126.75 547.13 133.15 563.57 123.66"/><polygon class="cls-27" points="547.13 133.15 547.25 177.24 563.69 167.75 563.57 123.66 547.13 133.15"/><polygon class="cls-22" points="550.8 135.44 548.05 133.84 548.17 177.93 550.93 179.53 550.8 135.44"/><polygon class="cls-28" points="567.25 125.94 564.49 124.34 548.05 133.84 550.8 135.44 567.25 125.94"/><polygon class="cls-23" points="550.8 135.44 550.93 179.53 567.37 170.03 567.25 125.94 550.8 135.44"/><path class="cls-29" d="M552.24,136.56a.26.26,0,0,1,.18,0c.09,0,.14.1.14.22v.08a.59.59,0,0,1-.09.24l0,.07a.68.68,0,0,1-.12.12l-.06,0-.07,0a.14.14,0,0,1-.11,0H552a.24.24,0,0,1-.09-.14v-.07a.64.64,0,0,1,.14-.38A.69.69,0,0,1,552.24,136.56Z"/><path class="cls-29" d="M553.66,135.8l.06-.06a.53.53,0,0,1,.12-.1.26.26,0,0,1,.18,0c.09,0,.14.09.14.22v.08a.92.92,0,0,1-.09.23l-.05.08-.11.12-.07,0-.06,0-.06,0h-.1a.19.19,0,0,1-.09-.14s0,0,0-.07a.63.63,0,0,1,.1-.31S553.65,135.83,553.66,135.8Z"/><path class="cls-29" d="M552.25,140.23a.26.26,0,0,1,.18,0c.09,0,.14.1.15.22s0,.05,0,.08a.59.59,0,0,1-.09.24l0,.07-.12.12-.06.05-.07,0a.14.14,0,0,1-.11,0H552a.24.24,0,0,1-.09-.14v-.07a.64.64,0,0,1,.14-.38A.69.69,0,0,1,552.25,140.23Z"/><path class="cls-29" d="M552.25,138.4c.18-.11.32,0,.32.18a.69.69,0,0,1-.32.55c-.17.1-.32,0-.32-.18A.68.68,0,0,1,552.25,138.4Z"/><path class="cls-29" d="M553.05,138.85c.18-.1.32,0,.32.18a.71.71,0,0,1-.32.56c-.17.1-.32,0-.32-.19A.72.72,0,0,1,553.05,138.85Z"/><path class="cls-29" d="M553.05,137c.17-.11.32,0,.32.18a.72.72,0,0,1-.32.55c-.18.1-.32,0-.32-.18A.69.69,0,0,1,553.05,137Z"/><path class="cls-29" d="M553.67,139.47l.06-.06a.53.53,0,0,1,.12-.1.26.26,0,0,1,.18,0c.09,0,.14.09.14.22v.08a.92.92,0,0,1-.09.23.35.35,0,0,1-.05.08l-.11.12-.07,0-.06,0-.06,0h-.1a.19.19,0,0,1-.09-.14s0,0,0-.07a.63.63,0,0,1,.1-.31Z"/><path class="cls-29" d="M553.72,137.57l.13-.1c.17-.1.32,0,.32.19a.69.69,0,0,1-.32.55.38.38,0,0,1-.13,0,.18.18,0,0,1-.1,0q-.09,0-.09-.21a.61.61,0,0,1,.09-.31Z"/><path class="cls-29" d="M552.27,143.9a.21.21,0,0,1,.26,0,.24.24,0,0,1,.06.17s0,0,0,.08a.73.73,0,0,1-.31.48c-.16.08-.29,0-.32-.12v-.07a.64.64,0,0,1,0-.23A.67.67,0,0,1,552.27,143.9Z"/><path class="cls-29" d="M552.26,142.07c.18-.11.32,0,.32.18a.69.69,0,0,1-.32.55c-.17.1-.32,0-.32-.18A.68.68,0,0,1,552.26,142.07Z"/><path class="cls-29" d="M553.06,142.52c.18-.1.32,0,.32.19a.71.71,0,0,1-.32.55c-.17.1-.32,0-.32-.19A.72.72,0,0,1,553.06,142.52Z"/><path class="cls-29" d="M553.06,140.69c.17-.1.32,0,.32.18a.72.72,0,0,1-.32.55c-.18.1-.32,0-.32-.18A.69.69,0,0,1,553.06,140.69Z"/><path class="cls-29" d="M553.64,143.22a.71.71,0,0,1,.1-.14.53.53,0,0,1,.12-.1c.11-.06.21-.06.27,0a.29.29,0,0,1,0,.17v.08a.71.71,0,0,1-.32.47.19.19,0,0,1-.12,0,.16.16,0,0,1-.1,0,.23.23,0,0,1-.09-.14s0,0,0-.07a.53.53,0,0,1,.06-.24A.25.25,0,0,1,553.64,143.22Z"/><path class="cls-29" d="M553.73,141.24l.13-.1c.17-.1.32,0,.32.19a.69.69,0,0,1-.32.55l-.12,0a.2.2,0,0,1-.11,0,.23.23,0,0,1-.09-.2.62.62,0,0,1,.09-.32Z"/><path class="cls-29" d="M552.28,147.57a.23.23,0,0,1,.17,0,.2.2,0,0,1,.15.22s0,.05,0,.08a.59.59,0,0,1-.09.24l0,.07-.12.12-.06.05-.07,0a.14.14,0,0,1-.11,0h-.05a.24.24,0,0,1-.09-.14v-.07a.64.64,0,0,1,.14-.38A.58.58,0,0,1,552.28,147.57Z"/><path class="cls-29" d="M552.27,145.74c.18-.11.32,0,.32.18a.69.69,0,0,1-.32.55c-.17.1-.32,0-.32-.18A.68.68,0,0,1,552.27,145.74Z"/><path class="cls-29" d="M553.07,146.19c.18-.1.32,0,.32.19a.71.71,0,0,1-.32.55c-.17.1-.32,0-.32-.19A.72.72,0,0,1,553.07,146.19Z"/><path class="cls-29" d="M553.07,144.36c.17-.1.32,0,.32.18a.69.69,0,0,1-.32.55c-.18.1-.32,0-.32-.18A.69.69,0,0,1,553.07,144.36Z"/><path class="cls-29" d="M553.7,146.81l0-.06a.53.53,0,0,1,.12-.1.26.26,0,0,1,.18,0c.09,0,.14.09.14.22v.08a.92.92,0,0,1-.09.23.35.35,0,0,1-.05.08l-.11.12-.07,0s0,0-.06,0l-.06,0h-.1a.23.23,0,0,1-.09-.14s0,0,0-.07a.63.63,0,0,1,.1-.31A.35.35,0,0,1,553.7,146.81Z"/><path class="cls-29" d="M553.74,144.91l.13-.1c.17-.1.32,0,.32.19a.69.69,0,0,1-.32.55l-.12,0a.2.2,0,0,1-.11,0,.23.23,0,0,1-.09-.2.62.62,0,0,1,.09-.32Z"/><path class="cls-29" d="M552.29,151.24a.23.23,0,0,1,.17,0,.2.2,0,0,1,.15.22s0,.05,0,.08a.59.59,0,0,1-.09.24l0,.07-.12.12-.06,0a.09.09,0,0,1-.07,0,.14.14,0,0,1-.11,0h-.05a.24.24,0,0,1-.09-.14v-.07a.64.64,0,0,1,.14-.38A.58.58,0,0,1,552.29,151.24Z"/><path class="cls-29" d="M552.28,149.41c.18-.11.32,0,.32.18a.69.69,0,0,1-.32.55c-.17.1-.32,0-.32-.18A.71.71,0,0,1,552.28,149.41Z"/><path class="cls-29" d="M553.08,149.86c.18-.1.32,0,.32.19a.71.71,0,0,1-.32.55c-.17.1-.32,0-.32-.19A.72.72,0,0,1,553.08,149.86Z"/><path class="cls-29" d="M553.08,148c.17-.1.32,0,.32.18a.69.69,0,0,1-.32.55c-.18.1-.32,0-.32-.18A.69.69,0,0,1,553.08,148Z"/><path class="cls-29" d="M553.71,150.48l0-.06a.53.53,0,0,1,.12-.1.26.26,0,0,1,.18,0c.09,0,.14.09.14.22v.08a.92.92,0,0,1-.09.23.35.35,0,0,1-.05.08L554,151l-.06,0-.07,0-.06,0h-.1a.23.23,0,0,1-.09-.14s0,0,0-.07a.63.63,0,0,1,.1-.31A.35.35,0,0,1,553.71,150.48Z"/><path class="cls-29" d="M553.75,148.58l.13-.1c.17-.1.32,0,.32.19a.69.69,0,0,1-.32.55l-.12,0a.2.2,0,0,1-.11,0,.23.23,0,0,1-.09-.2.62.62,0,0,1,.09-.32Z"/><path class="cls-29" d="M552.3,154.91a.21.21,0,0,1,.26,0,.24.24,0,0,1,.06.17.19.19,0,0,1,0,.08.69.69,0,0,1-.31.47c-.16.09-.28,0-.31-.11a.15.15,0,0,1,0-.07.64.64,0,0,1,0-.23A.67.67,0,0,1,552.3,154.91Z"/><path class="cls-29" d="M552.29,153.08c.18-.11.32,0,.32.18a.69.69,0,0,1-.32.55c-.17.1-.32,0-.32-.18A.71.71,0,0,1,552.29,153.08Z"/><path class="cls-29" d="M553.09,153.53c.18-.1.32,0,.32.18a.71.71,0,0,1-.32.56c-.17.1-.32,0-.32-.19A.72.72,0,0,1,553.09,153.53Z"/><path class="cls-29" d="M553.09,151.7c.17-.1.32,0,.32.18a.69.69,0,0,1-.32.55c-.18.1-.32,0-.32-.18A.69.69,0,0,1,553.09,151.7Z"/><path class="cls-29" d="M553.67,154.23a.71.71,0,0,1,.1-.14.53.53,0,0,1,.12-.1.2.2,0,0,1,.27,0,.29.29,0,0,1,.05.17v.08a.73.73,0,0,1-.31.47.43.43,0,0,1-.13.05l-.1,0a.28.28,0,0,1-.09-.14.2.2,0,0,0,0-.07.71.71,0,0,1,.06-.24A.25.25,0,0,1,553.67,154.23Z"/><path class="cls-29" d="M553.76,152.25l.13-.1c.17-.1.32,0,.32.19a.69.69,0,0,1-.32.55l-.12,0a.2.2,0,0,1-.11,0,.23.23,0,0,1-.09-.2.73.73,0,0,1,.09-.32Z"/><path class="cls-29" d="M552.31,158.58a.24.24,0,0,1,.18,0,.21.21,0,0,1,.14.22.22.22,0,0,1,0,.08.75.75,0,0,1-.08.24l0,.07a.68.68,0,0,1-.12.12l-.06,0a.09.09,0,0,1-.06,0,.17.17,0,0,1-.12,0h0a.2.2,0,0,1-.08-.14.15.15,0,0,1,0-.07.62.62,0,0,1,.14-.38A.58.58,0,0,1,552.31,158.58Z"/><path class="cls-29" d="M552.3,156.75c.18-.11.32,0,.32.18a.69.69,0,0,1-.32.55c-.17.1-.32,0-.32-.18A.71.71,0,0,1,552.3,156.75Z"/><path class="cls-29" d="M553.1,157.2c.18-.1.32,0,.32.18a.71.71,0,0,1-.32.56c-.17.1-.32,0-.32-.19A.72.72,0,0,1,553.1,157.2Z"/><path class="cls-29" d="M553.1,155.37c.17-.1.32,0,.32.18a.69.69,0,0,1-.32.55c-.18.1-.32,0-.32-.18A.69.69,0,0,1,553.1,155.37Z"/><path class="cls-29" d="M553.73,157.82l0-.06a.53.53,0,0,1,.12-.1.26.26,0,0,1,.18,0c.09,0,.14.09.14.22v.08a.65.65,0,0,1-.09.23.35.35,0,0,1,0,.08l-.11.12-.06,0-.07,0-.06,0h-.1a.28.28,0,0,1-.09-.14v-.07a.61.61,0,0,1,.09-.31A.35.35,0,0,1,553.73,157.82Z"/><path class="cls-29" d="M553.77,155.92l.13-.1c.18-.1.32,0,.32.19a.69.69,0,0,1-.32.55l-.12,0a.2.2,0,0,1-.11,0,.23.23,0,0,1-.09-.2.73.73,0,0,1,.09-.32Z"/><path class="cls-29" d="M552.32,162.25c.13-.08.24-.05.29.05a.28.28,0,0,1,0,.13.68.68,0,0,1-.32.55c-.18.11-.32,0-.32-.18a1,1,0,0,1,0-.16A.78.78,0,0,1,552.32,162.25Z"/><path class="cls-29" d="M552.31,160.42c.18-.11.32,0,.32.18a.69.69,0,0,1-.32.55c-.17.1-.32,0-.32-.18A.71.71,0,0,1,552.31,160.42Z"/><path class="cls-29" d="M553.11,160.87c.18-.1.32,0,.32.18a.73.73,0,0,1-.31.56c-.18.1-.32,0-.33-.19A.72.72,0,0,1,553.11,160.87Z"/><path class="cls-29" d="M553.11,159c.17-.1.32,0,.32.18a.69.69,0,0,1-.32.55c-.18.1-.32,0-.32-.18A.69.69,0,0,1,553.11,159Z"/><path class="cls-29" d="M553.69,161.57a.71.71,0,0,1,.1-.14.53.53,0,0,1,.12-.1c.14-.08.25-.05.3,0a.27.27,0,0,1,0,.13.68.68,0,0,1-.31.55.43.43,0,0,1-.13.05l-.1,0a.23.23,0,0,1-.09-.21.47.47,0,0,1,0-.16A1,1,0,0,1,553.69,161.57Z"/><path class="cls-29" d="M553.79,159.59a.58.58,0,0,1,.12-.1c.18-.1.32,0,.32.19a.69.69,0,0,1-.32.55.28.28,0,0,1-.12,0,.15.15,0,0,1-.1,0,.21.21,0,0,1-.1-.2.73.73,0,0,1,.09-.32A.76.76,0,0,1,553.79,159.59Z"/><path class="cls-29" d="M552.33,165.92c.11-.06.21-.06.26,0a.24.24,0,0,1,.06.17.22.22,0,0,1,0,.08.75.75,0,0,1-.08.24l0,.07a.68.68,0,0,1-.12.12l-.06,0-.06,0a.17.17,0,0,1-.12,0h0a.2.2,0,0,1-.08-.14.15.15,0,0,1,0-.07.74.74,0,0,1,0-.24A.69.69,0,0,1,552.33,165.92Z"/><path class="cls-29" d="M552.32,164.09c.18-.11.32,0,.32.18a.69.69,0,0,1-.32.55c-.17.1-.32,0-.32-.18A.71.71,0,0,1,552.32,164.09Z"/><path class="cls-29" d="M553.12,164.54c.18-.1.32,0,.32.18a.73.73,0,0,1-.31.56c-.18.1-.32,0-.32-.19A.68.68,0,0,1,553.12,164.54Z"/><path class="cls-29" d="M553.12,162.71c.17-.1.32,0,.32.18a.69.69,0,0,1-.32.55c-.18.1-.32,0-.32-.18A.69.69,0,0,1,553.12,162.71Z"/><path class="cls-29" d="M553.7,165.24a.71.71,0,0,1,.1-.14.53.53,0,0,1,.12-.1c.12-.07.21-.06.27,0a.38.38,0,0,1,.06.17s0,0,0,.08a.5.5,0,0,1-.09.23s0,0,0,.08l-.12.12-.06,0-.07,0-.06,0h0l0,0a.22.22,0,0,1-.09-.13v-.07a.69.69,0,0,1,0-.24Z"/><path class="cls-29" d="M553.8,163.26a.58.58,0,0,1,.12-.1c.18-.1.32,0,.32.19a.69.69,0,0,1-.32.55.28.28,0,0,1-.12,0,.15.15,0,0,1-.1,0,.22.22,0,0,1-.1-.21.73.73,0,0,1,.09-.31A.76.76,0,0,1,553.8,163.26Z"/><path class="cls-29" d="M552.34,169.59a.25.25,0,0,1,.18,0,.21.21,0,0,1,.14.22.22.22,0,0,1,0,.08.75.75,0,0,1-.08.24l-.05.07a.65.65,0,0,1-.11.12l-.07,0a.09.09,0,0,1-.06,0,.17.17,0,0,1-.12,0h0a.2.2,0,0,1-.08-.14.15.15,0,0,1,0-.07.64.64,0,0,1,.14-.38A.58.58,0,0,1,552.34,169.59Z"/><path class="cls-29" d="M552.33,167.76c.18-.11.32,0,.32.18a.69.69,0,0,1-.32.55c-.17.1-.31,0-.32-.18A.71.71,0,0,1,552.33,167.76Z"/><path class="cls-29" d="M553.13,168.21c.18-.1.32,0,.32.18a.73.73,0,0,1-.31.56c-.18.1-.32,0-.32-.19A.68.68,0,0,1,553.13,168.21Z"/><path class="cls-29" d="M553.13,166.38c.18-.11.32,0,.32.18a.69.69,0,0,1-.32.55c-.17.1-.32,0-.32-.18A.69.69,0,0,1,553.13,166.38Z"/><path class="cls-29" d="M553.76,168.83l0-.06a.53.53,0,0,1,.12-.1.26.26,0,0,1,.18,0c.09,0,.15.09.15.22s0,.05,0,.08a.5.5,0,0,1-.09.23l0,.08-.12.12-.06,0-.07,0-.06,0h0l0,0a.22.22,0,0,1-.09-.13v-.07a.61.61,0,0,1,.09-.31A.35.35,0,0,1,553.76,168.83Z"/><path class="cls-29" d="M553.81,166.93a.58.58,0,0,1,.12-.1c.18-.1.32,0,.32.19a.69.69,0,0,1-.32.55.28.28,0,0,1-.12,0,.16.16,0,0,1-.1,0,.22.22,0,0,1-.1-.21.73.73,0,0,1,.09-.31A.76.76,0,0,1,553.81,166.93Z"/><path class="cls-29" d="M552.35,173.26c.11-.06.21-.06.26,0a.24.24,0,0,1,.06.17.22.22,0,0,1,0,.08.68.68,0,0,1-.31.47c-.15.09-.28,0-.31-.11a.15.15,0,0,1,0-.07.74.74,0,0,1,.05-.24A.69.69,0,0,1,552.35,173.26Z"/><path class="cls-29" d="M552.34,171.43c.18-.11.32,0,.32.18a.71.71,0,0,1-.31.55c-.18.1-.32,0-.33-.18A.71.71,0,0,1,552.34,171.43Z"/><path class="cls-29" d="M553.14,171.88c.18-.1.32,0,.32.18a.7.7,0,0,1-.31.56c-.18.1-.32,0-.32-.19A.71.71,0,0,1,553.14,171.88Z"/><path class="cls-29" d="M553.14,170.05c.18-.11.32,0,.32.18a.69.69,0,0,1-.32.55c-.17.1-.32,0-.32-.18A.69.69,0,0,1,553.14,170.05Z"/><path class="cls-29" d="M553.72,172.58a.71.71,0,0,1,.1-.14.41.41,0,0,1,.13-.1c.11-.07.2-.06.26,0a.24.24,0,0,1,.06.17s0,0,0,.08a.73.73,0,0,1-.31.47.24.24,0,0,1-.13,0,.17.17,0,0,1-.1,0,.28.28,0,0,1-.09-.14v-.07a.69.69,0,0,1,0-.24Z"/><path class="cls-29" d="M553.82,170.6a.58.58,0,0,1,.12-.1c.18-.1.32,0,.32.19a.69.69,0,0,1-.32.55.28.28,0,0,1-.12,0,.16.16,0,0,1-.1,0,.22.22,0,0,1-.1-.21.73.73,0,0,1,.09-.31A.76.76,0,0,1,553.82,170.6Z"/><path class="cls-29" d="M552.35,175.1c.18-.11.32,0,.32.18a.71.71,0,0,1-.31.55c-.18.1-.32,0-.32-.18A.67.67,0,0,1,552.35,175.1Z"/><path class="cls-29" d="M553.15,175.55c.18-.1.32,0,.33.18a.74.74,0,0,1-.32.56c-.18.1-.32,0-.32-.19A.71.71,0,0,1,553.15,175.55Z"/><path class="cls-29" d="M553.15,173.72c.18-.11.32,0,.32.18a.69.69,0,0,1-.32.55c-.17.1-.32,0-.32-.18A.69.69,0,0,1,553.15,173.72Z"/><path class="cls-29" d="M553.83,174.27a.58.58,0,0,1,.12-.1c.18-.1.32,0,.32.19a.69.69,0,0,1-.32.55.28.28,0,0,1-.12,0,.16.16,0,0,1-.1,0,.22.22,0,0,1-.1-.21.63.63,0,0,1,.1-.31A.45.45,0,0,1,553.83,174.27Z"/><path class="cls-29" d="M555.44,134.72a.26.26,0,0,1,.18,0c.08,0,.14.09.14.22a.22.22,0,0,1,0,.08.63.63,0,0,1-.08.23l0,.08-.11.12-.07,0-.06,0a.26.26,0,0,1-.12,0l0,0a.17.17,0,0,1-.08-.13.17.17,0,0,1,0-.07.74.74,0,0,1,.14-.39A.46.46,0,0,1,555.44,134.72Z"/><path class="cls-29" d="M556.86,134l0-.06a.45.45,0,0,1,.13-.11.28.28,0,0,1,.17,0,.21.21,0,0,1,.15.23s0,.05,0,.08a.55.55,0,0,1-.09.23.43.43,0,0,1,0,.07l-.12.12-.06.05-.07,0h-.11l-.05,0a.22.22,0,0,1-.09-.13v-.07a.62.62,0,0,1,.09-.32Z"/><path class="cls-29" d="M555.45,138.39a.26.26,0,0,1,.18,0c.08,0,.14.09.14.22a.22.22,0,0,1,0,.08.63.63,0,0,1-.08.23l0,.08-.11.12-.07,0-.06,0a.26.26,0,0,1-.12,0l0,0a.17.17,0,0,1-.08-.13.17.17,0,0,1,0-.07.74.74,0,0,1,.14-.39A.55.55,0,0,1,555.45,138.39Z"/><path class="cls-29" d="M555.44,136.55c.18-.1.32,0,.32.18a.73.73,0,0,1-.31.56c-.18.1-.32,0-.32-.19A.68.68,0,0,1,555.44,136.55Z"/><path class="cls-29" d="M556.24,137c.18-.1.32,0,.32.18a.68.68,0,0,1-.31.55c-.18.1-.32,0-.32-.18A.71.71,0,0,1,556.24,137Z"/><path class="cls-29" d="M554.65,137.93c.17-.1.32,0,.32.18a.69.69,0,0,1-.32.55c-.18.11-.32,0-.32-.18A.69.69,0,0,1,554.65,137.93Z"/><path class="cls-29" d="M556.24,135.17c.18-.1.32,0,.32.19a.71.71,0,0,1-.32.55c-.17.1-.32,0-.32-.19A.69.69,0,0,1,556.24,135.17Z"/><path class="cls-29" d="M554.64,136.09c.18-.1.32,0,.32.19a.69.69,0,0,1-.32.55c-.17.1-.31,0-.31-.18A.7.7,0,0,1,554.64,136.09Z"/><path class="cls-29" d="M556.87,137.63l0-.06a.31.31,0,0,1,.13-.1.24.24,0,0,1,.17-.05.21.21,0,0,1,.15.23s0,0,0,.07a.54.54,0,0,1-.09.24.43.43,0,0,1,0,.07.68.68,0,0,1-.12.12l-.06,0-.07,0h-.11l0,0a.22.22,0,0,1-.09-.13V138a.62.62,0,0,1,.09-.32Z"/><path class="cls-29" d="M556.92,135.73a.38.38,0,0,1,.12-.1c.18-.1.32,0,.32.18a.68.68,0,0,1-.32.55.31.31,0,0,1-.12,0l-.1,0a.24.24,0,0,1-.1-.21.63.63,0,0,1,.1-.31A.45.45,0,0,1,556.92,135.73Z"/><path class="cls-29" d="M555.46,142.06c.11-.07.21-.06.26,0a.21.21,0,0,1,.06.17.22.22,0,0,1,0,.08.7.7,0,0,1-.31.47c-.15.09-.28,0-.31-.11a.17.17,0,0,1,0-.07.65.65,0,0,1,.32-.55Z"/><path class="cls-29" d="M555.45,140.22c.18-.1.32,0,.32.18a.73.73,0,0,1-.31.56c-.18.1-.32,0-.32-.19A.68.68,0,0,1,555.45,140.22Z"/><path class="cls-29" d="M556.25,140.68c.18-.1.32,0,.33.18a.72.72,0,0,1-.32.55c-.18.1-.32,0-.32-.18A.71.71,0,0,1,556.25,140.68Z"/><path class="cls-29" d="M554.66,141.6c.17-.1.32,0,.32.18a.69.69,0,0,1-.32.55c-.18.11-.32,0-.32-.18A.69.69,0,0,1,554.66,141.6Z"/><path class="cls-29" d="M556.25,138.84c.18-.1.32,0,.32.19a.69.69,0,0,1-.32.55c-.17.1-.32,0-.32-.18A.71.71,0,0,1,556.25,138.84Z"/><path class="cls-29" d="M554.65,139.77c.18-.11.32,0,.32.18a.69.69,0,0,1-.32.55c-.17.1-.31,0-.31-.18A.67.67,0,0,1,554.65,139.77Z"/><path class="cls-29" d="M556.83,141.37a.64.64,0,0,1,.1-.13.41.41,0,0,1,.13-.1.2.2,0,0,1,.26,0,.24.24,0,0,1,.06.18s0,.05,0,.07a.73.73,0,0,1-.31.48.38.38,0,0,1-.13,0,.18.18,0,0,1-.1,0,.22.22,0,0,1-.09-.13v-.07a.69.69,0,0,1,0-.24S556.82,141.4,556.83,141.37Z"/><path class="cls-29" d="M556.93,139.4a.58.58,0,0,1,.12-.1c.18-.1.32,0,.32.18a.69.69,0,0,1-.32.55.31.31,0,0,1-.12.05l-.1,0a.24.24,0,0,1-.1-.21.63.63,0,0,1,.1-.31A.45.45,0,0,1,556.93,139.4Z"/><path class="cls-29" d="M555.47,145.73a.26.26,0,0,1,.18,0c.08,0,.14.09.14.22a.25.25,0,0,1,0,.08.63.63,0,0,1-.08.23l-.05.07a.69.69,0,0,1-.11.13l-.07,0-.06,0a.17.17,0,0,1-.12,0l0,0a.16.16,0,0,1-.09-.13.17.17,0,0,1,0-.07.74.74,0,0,1,.14-.39A.55.55,0,0,1,555.47,145.73Z"/><path class="cls-29" d="M555.46,143.89c.18-.1.32,0,.32.18a.7.7,0,0,1-.31.56c-.18.1-.32,0-.32-.19A.71.71,0,0,1,555.46,143.89Z"/><path class="cls-29" d="M556.27,144.35c.17-.1.32,0,.32.18a.72.72,0,0,1-.32.55c-.18.1-.32,0-.32-.18A.69.69,0,0,1,556.27,144.35Z"/><path class="cls-29" d="M554.67,145.27c.18-.1.32,0,.32.18a.69.69,0,0,1-.32.55c-.18.11-.32,0-.32-.18A.69.69,0,0,1,554.67,145.27Z"/><path class="cls-29" d="M556.26,142.51c.18-.1.32,0,.32.19a.69.69,0,0,1-.32.55c-.17.1-.32,0-.32-.18A.71.71,0,0,1,556.26,142.51Z"/><path class="cls-29" d="M554.66,143.44c.18-.11.32,0,.32.18a.68.68,0,0,1-.31.55c-.18.1-.32,0-.32-.18A.7.7,0,0,1,554.66,143.44Z"/><path class="cls-29" d="M556.89,145l.05-.06a.41.41,0,0,1,.13-.1.25.25,0,0,1,.18-.05.21.21,0,0,1,.14.23s0,0,0,.07a.54.54,0,0,1-.09.24.43.43,0,0,1,0,.07.46.46,0,0,1-.12.12l-.06,0-.07,0h-.11l0,0a.17.17,0,0,1-.08-.13.2.2,0,0,1,0-.07.62.62,0,0,1,.09-.32Z"/><path class="cls-29" d="M556.94,143.07l.12-.1c.18-.1.32,0,.32.18a.69.69,0,0,1-.32.55.31.31,0,0,1-.12.05l-.1,0a.24.24,0,0,1-.1-.21.63.63,0,0,1,.1-.31A.45.45,0,0,1,556.94,143.07Z"/><path class="cls-29" d="M555.48,149.4a.26.26,0,0,1,.18,0c.08,0,.14.09.14.22a.25.25,0,0,1,0,.08.63.63,0,0,1-.08.23l-.05.07a.69.69,0,0,1-.11.13l-.07,0-.06,0a.25.25,0,0,1-.12,0l0,0a.16.16,0,0,1-.09-.13.17.17,0,0,1,0-.07.74.74,0,0,1,.14-.39A.55.55,0,0,1,555.48,149.4Z"/><path class="cls-29" d="M555.47,147.56c.18-.1.32,0,.32.18a.7.7,0,0,1-.31.56c-.18.1-.32,0-.32-.19A.71.71,0,0,1,555.47,147.56Z"/><path class="cls-29" d="M556.28,148c.17-.1.32,0,.32.18a.72.72,0,0,1-.32.55c-.18.1-.32,0-.32-.18A.69.69,0,0,1,556.28,148Z"/><path class="cls-29" d="M554.68,148.94c.18-.1.32,0,.32.18a.69.69,0,0,1-.32.55c-.17.11-.32,0-.32-.18A.69.69,0,0,1,554.68,148.94Z"/><path class="cls-29" d="M556.27,146.18c.18-.1.32,0,.32.19a.69.69,0,0,1-.32.55c-.17.1-.32,0-.32-.18A.71.71,0,0,1,556.27,146.18Z"/><path class="cls-29" d="M554.67,147.11c.18-.11.32,0,.33.18a.72.72,0,0,1-.32.55c-.18.1-.32,0-.32-.18A.7.7,0,0,1,554.67,147.11Z"/><path class="cls-29" d="M556.9,148.64l.05-.06a.31.31,0,0,1,.13-.1.25.25,0,0,1,.18,0,.21.21,0,0,1,.14.23.17.17,0,0,1,0,.07.68.68,0,0,1-.08.24l0,.07a.46.46,0,0,1-.12.12l-.06.05-.07,0h-.11l0,0a.17.17,0,0,1-.08-.13.2.2,0,0,1,0-.07.62.62,0,0,1,.09-.32Z"/><path class="cls-29" d="M557,146.74l.12-.1c.18-.1.32,0,.32.18a.69.69,0,0,1-.32.55.31.31,0,0,1-.12,0l-.1,0a.24.24,0,0,1-.1-.21.63.63,0,0,1,.1-.31A.71.71,0,0,1,557,146.74Z"/><path class="cls-29" d="M555.49,153.07a.2.2,0,0,1,.27,0,.25.25,0,0,1,0,.17.25.25,0,0,1,0,.08.67.67,0,0,1-.31.47c-.15.09-.28,0-.31-.11s0-.05,0-.07a.53.53,0,0,1,.06-.24A.62.62,0,0,1,555.49,153.07Z"/><path class="cls-29" d="M555.49,151.23c.17-.1.31,0,.32.18a.74.74,0,0,1-.32.56c-.18.1-.32,0-.32-.19A.69.69,0,0,1,555.49,151.23Z"/><path class="cls-29" d="M556.29,151.69c.17-.1.32,0,.32.18a.72.72,0,0,1-.32.55c-.18.1-.32,0-.32-.18A.69.69,0,0,1,556.29,151.69Z"/><path class="cls-29" d="M554.69,152.61c.18-.1.32,0,.32.18a.68.68,0,0,1-.32.55c-.17.11-.32,0-.32-.18A.69.69,0,0,1,554.69,152.61Z"/><path class="cls-29" d="M556.28,149.85c.18-.1.32,0,.32.19a.69.69,0,0,1-.32.55c-.17.1-.32,0-.32-.19A.72.72,0,0,1,556.28,149.85Z"/><path class="cls-29" d="M554.68,150.78c.18-.11.32,0,.33.18a.72.72,0,0,1-.32.55c-.18.1-.32,0-.32-.18A.7.7,0,0,1,554.68,150.78Z"/><path class="cls-29" d="M556.86,152.38a1.47,1.47,0,0,1,.1-.13.45.45,0,0,1,.13-.11.21.21,0,0,1,.26,0,.24.24,0,0,1,.06.18.17.17,0,0,1,0,.07.73.73,0,0,1-.31.48l-.12,0a.14.14,0,0,1-.11,0,.17.17,0,0,1-.08-.13.17.17,0,0,1,0-.07.69.69,0,0,1,.05-.24Z"/><path class="cls-29" d="M557,150.41l.12-.1c.18-.1.32,0,.32.18a.68.68,0,0,1-.32.55.31.31,0,0,1-.12.05l-.1,0a.24.24,0,0,1-.1-.21.63.63,0,0,1,.1-.31A.71.71,0,0,1,557,150.41Z"/><path class="cls-29" d="M555.5,156.74a.26.26,0,0,1,.18,0c.08,0,.14.09.14.22V157a.92.92,0,0,1-.09.23l-.05.07a.69.69,0,0,1-.11.13l-.07,0-.06,0a.25.25,0,0,1-.12,0l0,0a.16.16,0,0,1-.09-.13s0-.05,0-.07a.74.74,0,0,1,.14-.39A.46.46,0,0,1,555.5,156.74Z"/><path class="cls-29" d="M555.5,154.9c.17-.1.32,0,.32.18a.74.74,0,0,1-.32.56c-.18.1-.32,0-.32-.19A.69.69,0,0,1,555.5,154.9Z"/><path class="cls-29" d="M556.3,155.36c.17-.1.32,0,.32.18a.69.69,0,0,1-.32.55c-.18.1-.32,0-.32-.18A.69.69,0,0,1,556.3,155.36Z"/><path class="cls-29" d="M554.7,156.28c.18-.1.32,0,.32.18a.68.68,0,0,1-.32.55c-.17.11-.32,0-.32-.18A.69.69,0,0,1,554.7,156.28Z"/><path class="cls-29" d="M556.29,153.52c.18-.1.32,0,.32.19a.69.69,0,0,1-.32.55c-.17.1-.32,0-.32-.19A.72.72,0,0,1,556.29,153.52Z"/><path class="cls-29" d="M554.69,154.45c.18-.11.33,0,.33.18a.72.72,0,0,1-.32.55c-.18.1-.32,0-.32-.18A.7.7,0,0,1,554.69,154.45Z"/><path class="cls-29" d="M556.92,156l.05-.07.13-.1a.31.31,0,0,1,.18,0,.21.21,0,0,1,.14.23.17.17,0,0,1,0,.07.68.68,0,0,1-.08.24l-.05.07a.46.46,0,0,1-.12.12l-.06.05-.06,0h-.12l0,0a.17.17,0,0,1-.08-.13.2.2,0,0,1,0-.07.65.65,0,0,1,.09-.32Z"/><path class="cls-29" d="M557,154.08l.12-.1c.18-.1.32,0,.32.18a.68.68,0,0,1-.32.55.31.31,0,0,1-.12,0l-.1,0a.24.24,0,0,1-.1-.21.63.63,0,0,1,.1-.31A.71.71,0,0,1,557,154.08Z"/><path class="cls-29" d="M555.51,160.41c.13-.08.25,0,.3.05a.51.51,0,0,1,0,.13.69.69,0,0,1-.32.55c-.17.1-.32,0-.32-.18a.45.45,0,0,1,0-.16A.69.69,0,0,1,555.51,160.41Z"/><path class="cls-29" d="M555.51,158.57c.17-.1.32,0,.32.18a.74.74,0,0,1-.32.56c-.18.1-.32,0-.32-.19A.69.69,0,0,1,555.51,158.57Z"/><path class="cls-29" d="M556.31,159c.17-.1.32,0,.32.18a.69.69,0,0,1-.32.55c-.18.1-.32,0-.32-.18A.69.69,0,0,1,556.31,159Z"/><path class="cls-29" d="M554.71,160c.18-.1.32,0,.32.18a.68.68,0,0,1-.32.55c-.17.11-.32,0-.32-.18A.69.69,0,0,1,554.71,160Z"/><path class="cls-29" d="M556.3,157.19c.18-.1.32,0,.32.19a.69.69,0,0,1-.32.55c-.17.1-.32,0-.32-.19A.72.72,0,0,1,556.3,157.19Z"/><path class="cls-29" d="M554.7,158.12c.18-.11.33,0,.33.18a.72.72,0,0,1-.32.55c-.18.1-.32,0-.32-.18A.7.7,0,0,1,554.7,158.12Z"/><path class="cls-29" d="M556.88,159.72l.1-.14.13-.1c.13-.07.24,0,.29.06a.25.25,0,0,1,0,.13.69.69,0,0,1-.32.55l-.12,0a.2.2,0,0,1-.11,0,.23.23,0,0,1-.09-.2.88.88,0,0,1,0-.16A.77.77,0,0,1,556.88,159.72Z"/><path class="cls-29" d="M557,157.75l.12-.1c.18-.1.32,0,.32.18a.68.68,0,0,1-.32.55.31.31,0,0,1-.12.05l-.1,0a.24.24,0,0,1-.1-.21.63.63,0,0,1,.1-.31A.71.71,0,0,1,557,157.75Z"/><path class="cls-29" d="M555.52,164.08a.21.21,0,0,1,.27,0,.3.3,0,0,1,.05.18v.08a.92.92,0,0,1-.09.23l0,.07a.69.69,0,0,1-.11.13l-.07,0-.06,0a.25.25,0,0,1-.12,0l0,0a.16.16,0,0,1-.09-.13s0,0,0-.07a.53.53,0,0,1,.06-.24A.67.67,0,0,1,555.52,164.08Z"/><path class="cls-29" d="M555.52,162.24c.17-.1.32,0,.32.18a.74.74,0,0,1-.32.56c-.18.1-.32,0-.32-.19A.69.69,0,0,1,555.52,162.24Z"/><path class="cls-29" d="M556.32,162.7c.17-.1.32,0,.32.18a.69.69,0,0,1-.32.55c-.18.1-.32,0-.32-.18A.69.69,0,0,1,556.32,162.7Z"/><path class="cls-29" d="M554.72,163.62c.18-.1.32,0,.32.18a.68.68,0,0,1-.32.55c-.17.11-.32,0-.32-.18A.69.69,0,0,1,554.72,163.62Z"/><path class="cls-29" d="M556.31,160.86c.18-.1.32,0,.32.19a.69.69,0,0,1-.32.55c-.17.1-.32,0-.32-.19A.72.72,0,0,1,556.31,160.86Z"/><path class="cls-29" d="M554.72,161.79c.17-.11.32,0,.32.18a.72.72,0,0,1-.32.55c-.18.1-.32,0-.32-.18A.68.68,0,0,1,554.72,161.79Z"/><path class="cls-29" d="M556.89,163.39l.1-.14.13-.1a.2.2,0,0,1,.26,0,.24.24,0,0,1,.06.18.25.25,0,0,1,0,.08.7.7,0,0,1-.08.23l-.05.07a.65.65,0,0,1-.11.12l-.07,0-.06,0h-.12l-.05,0a.17.17,0,0,1-.08-.13.2.2,0,0,1,0-.07.69.69,0,0,1,.05-.24Z"/><path class="cls-29" d="M557,161.42a.53.53,0,0,1,.12-.1c.18-.1.32,0,.32.18a.7.7,0,0,1-.31.55.43.43,0,0,1-.13,0l-.1,0a.26.26,0,0,1-.1-.21.63.63,0,0,1,.1-.31A.71.71,0,0,1,557,161.42Z"/><path class="cls-29" d="M555.53,167.75a.26.26,0,0,1,.18,0c.09,0,.14.09.14.22V168a.92.92,0,0,1-.09.23.35.35,0,0,1,0,.08l-.11.12-.07,0-.06,0a.22.22,0,0,1-.11,0l-.05,0a.18.18,0,0,1-.09-.13s0-.05,0-.07a.74.74,0,0,1,.14-.39A.65.65,0,0,1,555.53,167.75Z"/><path class="cls-29" d="M555.53,165.91c.17-.1.32,0,.32.18a.71.71,0,0,1-.32.56c-.18.1-.32,0-.32-.19A.69.69,0,0,1,555.53,165.91Z"/><path class="cls-29" d="M556.33,166.37c.17-.1.32,0,.32.18a.69.69,0,0,1-.32.55c-.18.1-.32,0-.32-.18A.69.69,0,0,1,556.33,166.37Z"/><path class="cls-29" d="M554.73,167.29c.18-.1.32,0,.32.18a.69.69,0,0,1-.32.55c-.17.11-.32,0-.32-.18A.72.72,0,0,1,554.73,167.29Z"/><path class="cls-29" d="M556.32,164.53c.18-.1.32,0,.32.19a.71.71,0,0,1-.32.55c-.17.1-.32,0-.32-.19A.72.72,0,0,1,556.32,164.53Z"/><path class="cls-29" d="M554.73,165.45c.17-.1.32,0,.32.19a.72.72,0,0,1-.32.55c-.18.1-.32,0-.32-.18A.71.71,0,0,1,554.73,165.45Z"/><path class="cls-29" d="M557,167l.06-.07a.4.4,0,0,1,.12-.1.33.33,0,0,1,.18,0,.21.21,0,0,1,.14.23.17.17,0,0,1,0,.07.68.68,0,0,1-.08.24l-.05.07a.43.43,0,0,1-.11.12l-.07.05-.06,0H557l-.05,0a.17.17,0,0,1-.08-.13.2.2,0,0,1,0-.07.73.73,0,0,1,.09-.32Z"/><path class="cls-29" d="M557,165.09a.53.53,0,0,1,.12-.1c.18-.1.32,0,.32.18a.7.7,0,0,1-.31.55.43.43,0,0,1-.13.05l-.1,0a.23.23,0,0,1-.09-.21.53.53,0,0,1,.09-.31A.71.71,0,0,1,557,165.09Z"/><path class="cls-29" d="M555.54,171.42a.21.21,0,0,1,.27,0,.3.3,0,0,1,.05.18v.08a.71.71,0,0,1-.32.47c-.15.09-.28,0-.31-.11s0,0,0-.07a.53.53,0,0,1,.06-.24A.67.67,0,0,1,555.54,171.42Z"/><path class="cls-29" d="M555.54,169.58c.17-.1.32,0,.32.18a.71.71,0,0,1-.32.56c-.18.1-.32,0-.32-.19A.69.69,0,0,1,555.54,169.58Z"/><path class="cls-29" d="M556.34,170c.17-.1.32,0,.32.18a.69.69,0,0,1-.32.55c-.18.1-.32,0-.32-.18A.69.69,0,0,1,556.34,170Z"/><path class="cls-29" d="M554.74,171c.18-.1.32,0,.32.18a.69.69,0,0,1-.32.55c-.17.11-.32,0-.32-.18A.72.72,0,0,1,554.74,171Z"/><path class="cls-29" d="M556.33,168.2c.18-.1.32,0,.32.19a.73.73,0,0,1-.31.55c-.18.1-.32,0-.33-.19A.72.72,0,0,1,556.33,168.2Z"/><path class="cls-29" d="M554.74,169.12c.17-.1.32,0,.32.19a.72.72,0,0,1-.32.55c-.18.1-.32,0-.32-.18A.71.71,0,0,1,554.74,169.12Z"/><path class="cls-29" d="M556.91,170.73a1.34,1.34,0,0,1,.11-.14.58.58,0,0,1,.12-.1.22.22,0,0,1,.27,0,.3.3,0,0,1,.05.18.17.17,0,0,1,0,.07.7.7,0,0,1-.31.48.28.28,0,0,1-.12,0,.15.15,0,0,1-.1,0,.16.16,0,0,1-.09-.13.2.2,0,0,1,0-.07.53.53,0,0,1,.06-.24Z"/><path class="cls-29" d="M557,168.76a.53.53,0,0,1,.12-.1c.18-.1.32,0,.32.18a.71.71,0,0,1-.31.55.43.43,0,0,1-.13.05l-.1,0a.23.23,0,0,1-.09-.21.61.61,0,0,1,.09-.31A.71.71,0,0,1,557,168.76Z"/><path class="cls-29" d="M555.55,173.25c.17-.1.32,0,.32.18a.71.71,0,0,1-.32.56c-.18.1-.32,0-.32-.19A.69.69,0,0,1,555.55,173.25Z"/><path class="cls-29" d="M556.35,173.71c.18-.1.32,0,.32.18a.69.69,0,0,1-.32.55c-.18.1-.32,0-.32-.18A.69.69,0,0,1,556.35,173.71Z"/><path class="cls-29" d="M554.75,174.63c.18-.1.32,0,.32.18a.69.69,0,0,1-.32.55c-.17.1-.32,0-.32-.18A.72.72,0,0,1,554.75,174.63Z"/><path class="cls-29" d="M556.34,171.87c.18-.1.32,0,.32.19a.73.73,0,0,1-.31.55c-.18.1-.32,0-.33-.19A.72.72,0,0,1,556.34,171.87Z"/><path class="cls-29" d="M554.75,172.79c.17-.1.32,0,.32.19a.69.69,0,0,1-.32.55c-.18.1-.32,0-.32-.18A.71.71,0,0,1,554.75,172.79Z"/><path class="cls-29" d="M557,172.43a.53.53,0,0,1,.12-.1c.18-.1.32,0,.32.18a.68.68,0,0,1-.31.55.43.43,0,0,1-.13.05l-.1,0a.23.23,0,0,1-.09-.21.61.61,0,0,1,.09-.31A.71.71,0,0,1,557,172.43Z"/><path class="cls-29" d="M558.63,132.87a.26.26,0,0,1,.18,0c.09,0,.14.1.14.23v.07a1.17,1.17,0,0,1-.09.24l-.05.07a.43.43,0,0,1-.11.12l-.07.05-.06,0h-.11l-.05,0a.2.2,0,0,1-.09-.14s0,0,0-.07a.71.71,0,0,1,.14-.38A.94.94,0,0,1,558.63,132.87Z"/><path class="cls-29" d="M560.16,132l.07-.05a.26.26,0,0,1,.18,0,.21.21,0,0,1,.14.22.22.22,0,0,1,0,.08.75.75,0,0,1-.08.24l-.05.07a.43.43,0,0,1-.11.12l-.07,0a.09.09,0,0,1-.06,0,.25.25,0,0,1-.12,0l0,0a.18.18,0,0,1-.09-.14.15.15,0,0,1,0-.07.71.71,0,0,1,.14-.38A.43.43,0,0,1,560.16,132Z"/><path class="cls-29" d="M558.64,136.54a.26.26,0,0,1,.18,0c.09,0,.14.1.14.23v.07a1.17,1.17,0,0,1-.09.24l0,.07a.43.43,0,0,1-.11.12l-.07.05-.06,0h-.11l-.05,0a.2.2,0,0,1-.09-.14s0,0,0-.07a.71.71,0,0,1,.14-.38A.94.94,0,0,1,558.64,136.54Z"/><path class="cls-29" d="M558.64,134.71c.17-.1.32,0,.32.18a.69.69,0,0,1-.32.55c-.18.1-.32,0-.32-.18A.69.69,0,0,1,558.64,134.71Z"/><path class="cls-29" d="M559.44,135.17c.17-.11.32,0,.32.18a.69.69,0,0,1-.32.55c-.18.1-.32,0-.32-.18A.68.68,0,0,1,559.44,135.17Z"/><path class="cls-29" d="M557.84,136.09c.18-.1.32,0,.32.18a.69.69,0,0,1-.32.55c-.17.1-.32,0-.32-.18A.72.72,0,0,1,557.84,136.09Z"/><path class="cls-29" d="M559.43,133.33c.18-.1.32,0,.32.18a.71.71,0,0,1-.31.55c-.18.1-.32,0-.33-.18A.72.72,0,0,1,559.43,133.33Z"/><path class="cls-29" d="M557.84,134.25c.17-.1.32,0,.32.18a.71.71,0,0,1-.32.55c-.18.11-.32,0-.32-.18A.69.69,0,0,1,557.84,134.25Z"/><path class="cls-29" d="M560.18,135.67l.06,0a.26.26,0,0,1,.18,0,.21.21,0,0,1,.14.22.22.22,0,0,1,0,.08.75.75,0,0,1-.08.24l-.05.07a.43.43,0,0,1-.11.12l-.07.05-.06,0a.25.25,0,0,1-.12,0l0,0a.18.18,0,0,1-.09-.14.15.15,0,0,1,0-.07.71.71,0,0,1,.14-.38A.34.34,0,0,1,560.18,135.67Z"/><path class="cls-29" d="M560.17,133.83l.06,0c.18-.11.32,0,.32.18a.68.68,0,0,1-.31.55l-.07,0c-.14,0-.25,0-.25-.21A.7.7,0,0,1,560.17,133.83Z"/><path class="cls-29" d="M558.65,140.21a.22.22,0,0,1,.27,0,.3.3,0,0,1,.05.18v.07a.71.71,0,0,1-.32.48.19.19,0,0,1-.31-.12s0,0,0-.07a.53.53,0,0,1,.06-.23A.75.75,0,0,1,558.65,140.21Z"/><path class="cls-29" d="M558.65,138.38c.17-.1.32,0,.32.18a.69.69,0,0,1-.32.55c-.18.1-.32,0-.32-.18A.69.69,0,0,1,558.65,138.38Z"/><path class="cls-29" d="M559.45,138.84c.18-.11.32,0,.32.18a.69.69,0,0,1-.32.55c-.17.1-.32,0-.32-.18A.68.68,0,0,1,559.45,138.84Z"/><path class="cls-29" d="M557.85,139.76c.18-.11.32,0,.32.18a.69.69,0,0,1-.32.55c-.17.1-.32,0-.32-.18A.72.72,0,0,1,557.85,139.76Z"/><path class="cls-29" d="M559.44,137c.18-.1.32,0,.32.18a.71.71,0,0,1-.31.55c-.18.11-.32,0-.32-.18A.68.68,0,0,1,559.44,137Z"/><path class="cls-29" d="M557.85,137.92c.17-.1.32,0,.32.18a.71.71,0,0,1-.32.56c-.18.1-.32,0-.32-.19A.69.69,0,0,1,557.85,137.92Z"/><path class="cls-29" d="M560.19,139.34l.06-.05a.22.22,0,0,1,.27,0,.29.29,0,0,1,.05.17.22.22,0,0,1,0,.08.7.7,0,0,1-.31.48l-.06,0a.17.17,0,0,1-.25-.14.15.15,0,0,1,0-.07.49.49,0,0,1,.06-.23A.55.55,0,0,1,560.19,139.34Z"/><path class="cls-29" d="M560.18,137.5l.06,0c.18-.11.32,0,.32.18a.68.68,0,0,1-.31.55l-.07,0c-.14.05-.25,0-.25-.21A.7.7,0,0,1,560.18,137.5Z"/><path class="cls-29" d="M558.66,143.88a.26.26,0,0,1,.18,0c.09,0,.14.1.14.23v.07a.78.78,0,0,1-.09.24l0,.07a.43.43,0,0,1-.11.12l-.06.05-.07,0h-.11l0,0a.24.24,0,0,1-.09-.14s0,0,0-.07a.71.71,0,0,1,.14-.38A.94.94,0,0,1,558.66,143.88Z"/><path class="cls-29" d="M558.66,142.05c.17-.1.32,0,.32.18a.69.69,0,0,1-.32.55c-.18.1-.32,0-.32-.18A.69.69,0,0,1,558.66,142.05Z"/><path class="cls-29" d="M559.46,142.5c.18-.1.32,0,.32.19a.69.69,0,0,1-.32.55c-.17.1-.32,0-.32-.18A.71.71,0,0,1,559.46,142.5Z"/><path class="cls-29" d="M557.86,143.43c.18-.11.32,0,.32.18a.69.69,0,0,1-.32.55c-.17.1-.32,0-.32-.18A.72.72,0,0,1,557.86,143.43Z"/><path class="cls-29" d="M559.45,140.67c.18-.1.32,0,.32.18a.71.71,0,0,1-.31.55c-.18.11-.32,0-.32-.18A.68.68,0,0,1,559.45,140.67Z"/><path class="cls-29" d="M557.86,141.59c.17-.1.32,0,.32.18a.71.71,0,0,1-.32.56c-.18.1-.32,0-.32-.19A.69.69,0,0,1,557.86,141.59Z"/><path class="cls-29" d="M560.2,143l.06,0a.26.26,0,0,1,.18,0,.21.21,0,0,1,.14.22.22.22,0,0,1,0,.08.75.75,0,0,1-.08.24l0,.07a.43.43,0,0,1-.11.12l-.07,0-.06,0a.25.25,0,0,1-.12,0l0,0a.18.18,0,0,1-.09-.14.15.15,0,0,1,0-.07.71.71,0,0,1,.14-.38A.46.46,0,0,1,560.2,143Z"/><path class="cls-29" d="M560.19,141.17l.06,0c.18-.11.32,0,.33.18a.72.72,0,0,1-.32.55l-.07,0c-.14.05-.25,0-.25-.21A.74.74,0,0,1,560.19,141.17Z"/><path class="cls-29" d="M558.67,147.55a.26.26,0,0,1,.18,0c.09,0,.14.1.14.23v.07a.78.78,0,0,1-.09.24l0,.07a.43.43,0,0,1-.11.12l-.06,0-.07,0h-.11l0,0a.24.24,0,0,1-.09-.14v-.07a.58.58,0,0,1,.14-.38A.69.69,0,0,1,558.67,147.55Z"/><path class="cls-29" d="M558.67,145.72c.17-.1.32,0,.32.18a.69.69,0,0,1-.32.55c-.18.1-.32,0-.32-.18A.69.69,0,0,1,558.67,145.72Z"/><path class="cls-29" d="M559.47,146.17c.18-.1.32,0,.32.19a.69.69,0,0,1-.32.55c-.17.1-.32,0-.32-.18A.71.71,0,0,1,559.47,146.17Z"/><path class="cls-29" d="M557.87,147.1c.18-.11.32,0,.32.18a.69.69,0,0,1-.32.55c-.17.1-.32,0-.32-.18A.72.72,0,0,1,557.87,147.1Z"/><path class="cls-29" d="M559.46,144.34c.18-.1.32,0,.32.18a.68.68,0,0,1-.31.55c-.18.11-.32,0-.32-.18A.71.71,0,0,1,559.46,144.34Z"/><path class="cls-29" d="M557.87,145.26c.17-.1.32,0,.32.18a.71.71,0,0,1-.32.56c-.18.1-.32,0-.32-.19A.69.69,0,0,1,557.87,145.26Z"/><path class="cls-29" d="M560.21,146.67l.06,0a.26.26,0,0,1,.18,0,.21.21,0,0,1,.14.22v.08a1.17,1.17,0,0,1-.09.24l0,.07a.63.63,0,0,1-.11.12l-.07.05-.06,0a.25.25,0,0,1-.12,0l0,0a.18.18,0,0,1-.09-.14.15.15,0,0,1,0-.07.71.71,0,0,1,.14-.38A.74.74,0,0,1,560.21,146.67Z"/><path class="cls-29" d="M560.2,144.84l.07,0c.17-.11.32,0,.32.18a.72.72,0,0,1-.32.55l-.07,0c-.14.05-.25,0-.25-.21A.74.74,0,0,1,560.2,144.84Z"/><path class="cls-29" d="M558.68,151.22a.22.22,0,0,1,.27,0,.3.3,0,0,1,0,.18v.07a.73.73,0,0,1-.31.48c-.16.09-.29,0-.32-.12v-.07a.68.68,0,0,1,0-.23A.75.75,0,0,1,558.68,151.22Z"/><path class="cls-29" d="M558.68,149.39c.18-.1.32,0,.32.18a.69.69,0,0,1-.32.55c-.17.1-.32,0-.32-.18A.69.69,0,0,1,558.68,149.39Z"/><path class="cls-29" d="M559.48,149.84c.18-.1.32,0,.32.19a.69.69,0,0,1-.32.55c-.17.1-.32,0-.32-.18A.71.71,0,0,1,559.48,149.84Z"/><path class="cls-29" d="M557.88,150.77c.18-.11.32,0,.32.18a.69.69,0,0,1-.32.55c-.17.1-.31,0-.32-.18A.71.71,0,0,1,557.88,150.77Z"/><path class="cls-29" d="M559.47,148c.18-.1.32,0,.33.18a.71.71,0,0,1-.32.55c-.18.1-.32,0-.32-.18A.71.71,0,0,1,559.47,148Z"/><path class="cls-29" d="M557.88,148.93c.17-.1.32,0,.32.18a.71.71,0,0,1-.32.56c-.18.1-.32,0-.32-.19A.69.69,0,0,1,557.88,148.93Z"/><path class="cls-29" d="M560.22,150.34l.06,0a.22.22,0,0,1,.27,0,.29.29,0,0,1,.05.17v.08a.71.71,0,0,1-.32.48l-.06,0a.17.17,0,0,1-.25-.14.15.15,0,0,1,0-.07.49.49,0,0,1,.06-.23A.63.63,0,0,1,560.22,150.34Z"/><path class="cls-29" d="M560.21,148.51l.07,0c.17-.11.32,0,.32.18a.72.72,0,0,1-.32.55l-.07,0c-.14.05-.25,0-.25-.21A.74.74,0,0,1,560.21,148.51Z"/><path class="cls-29" d="M558.69,154.89a.26.26,0,0,1,.18,0c.09,0,.14.1.14.23v.07a.59.59,0,0,1-.09.24l0,.07a.43.43,0,0,1-.11.12l-.06,0-.07,0h-.11l0,0a.24.24,0,0,1-.09-.14v-.07a.64.64,0,0,1,.14-.38A.69.69,0,0,1,558.69,154.89Z"/><path class="cls-29" d="M558.69,153.06c.18-.1.32,0,.32.18a.69.69,0,0,1-.32.55c-.17.1-.32,0-.32-.18A.69.69,0,0,1,558.69,153.06Z"/><path class="cls-29" d="M559.49,153.51c.18-.1.32,0,.32.19a.69.69,0,0,1-.32.55c-.17.1-.32,0-.32-.18A.71.71,0,0,1,559.49,153.51Z"/><path class="cls-29" d="M557.89,154.44c.18-.11.32,0,.32.18a.71.71,0,0,1-.31.55c-.18.1-.32,0-.32-.18A.67.67,0,0,1,557.89,154.44Z"/><path class="cls-29" d="M559.48,151.68c.18-.1.32,0,.33.18a.71.71,0,0,1-.32.55c-.18.1-.32,0-.32-.18A.71.71,0,0,1,559.48,151.68Z"/><path class="cls-29" d="M557.89,152.6c.17-.1.32,0,.32.18a.71.71,0,0,1-.32.56c-.18.1-.32,0-.32-.19A.69.69,0,0,1,557.89,152.6Z"/><path class="cls-29" d="M560.23,154l.06,0a.26.26,0,0,1,.18,0c.09,0,.14.1.14.22v.08a1.17,1.17,0,0,1-.09.24l0,.07a.63.63,0,0,1-.11.12l-.07,0a.09.09,0,0,1-.06,0,.17.17,0,0,1-.12,0h0a.18.18,0,0,1-.09-.14s0,0,0-.07a.68.68,0,0,1,.14-.38Z"/><path class="cls-29" d="M560.22,152.18l.07,0c.17-.11.32,0,.32.18a.72.72,0,0,1-.32.55l-.07,0c-.14,0-.25,0-.25-.21A.74.74,0,0,1,560.22,152.18Z"/><path class="cls-29" d="M558.7,158.56c.14-.07.25-.05.3.06a.23.23,0,0,1,0,.13.74.74,0,0,1-.32.55c-.18.1-.32,0-.32-.19a.77.77,0,0,1,0-.15A.75.75,0,0,1,558.7,158.56Z"/><path class="cls-29" d="M558.7,156.73c.18-.1.32,0,.32.18a.69.69,0,0,1-.32.55c-.17.1-.32,0-.32-.18A.69.69,0,0,1,558.7,156.73Z"/><path class="cls-29" d="M559.5,157.18c.18-.1.32,0,.32.19a.69.69,0,0,1-.32.55c-.17.1-.32,0-.32-.18A.71.71,0,0,1,559.5,157.18Z"/><path class="cls-29" d="M557.9,158.11c.18-.11.32,0,.32.18a.71.71,0,0,1-.31.55c-.18.1-.32,0-.32-.18A.67.67,0,0,1,557.9,158.11Z"/><path class="cls-29" d="M559.5,155.35c.17-.1.32,0,.32.18a.72.72,0,0,1-.32.55c-.18.1-.32,0-.32-.18A.69.69,0,0,1,559.5,155.35Z"/><path class="cls-29" d="M557.9,156.27c.18-.1.32,0,.32.18a.71.71,0,0,1-.32.56c-.17.1-.32,0-.32-.19A.69.69,0,0,1,557.9,156.27Z"/><path class="cls-29" d="M560.24,157.69l.06-.05c.13-.08.25,0,.3.05a.51.51,0,0,1,0,.13.68.68,0,0,1-.32.55l-.06,0c-.15,0-.26,0-.26-.21a.5.5,0,0,1,0-.16A.67.67,0,0,1,560.24,157.69Z"/><path class="cls-29" d="M560.23,155.85l.07,0c.17-.11.32,0,.32.18a.69.69,0,0,1-.32.55l-.07,0c-.14.05-.25,0-.25-.21A.74.74,0,0,1,560.23,155.85Z"/><path class="cls-29" d="M558.72,162.23a.21.21,0,0,1,.26,0,.24.24,0,0,1,.06.18s0,.05,0,.07a.59.59,0,0,1-.09.24l0,.07a.68.68,0,0,1-.12.12l-.06.05-.07,0h-.11l0,0a.24.24,0,0,1-.09-.14v-.07a.68.68,0,0,1,.05-.23A.77.77,0,0,1,558.72,162.23Z"/><path class="cls-29" d="M558.71,160.4c.18-.1.32,0,.32.18a.69.69,0,0,1-.32.55c-.17.1-.32,0-.32-.18A.69.69,0,0,1,558.71,160.4Z"/><path class="cls-29" d="M559.51,160.85c.18-.1.32,0,.32.19a.69.69,0,0,1-.32.55c-.17.1-.32,0-.32-.18A.74.74,0,0,1,559.51,160.85Z"/><path class="cls-29" d="M557.91,161.78c.18-.11.32,0,.32.18a.68.68,0,0,1-.31.55c-.18.1-.32,0-.32-.18A.7.7,0,0,1,557.91,161.78Z"/><path class="cls-29" d="M559.51,159c.17-.1.32,0,.32.18a.72.72,0,0,1-.32.55c-.18.1-.32,0-.32-.18A.69.69,0,0,1,559.51,159Z"/><path class="cls-29" d="M557.91,159.94c.18-.1.32,0,.32.18a.71.71,0,0,1-.32.56c-.17.1-.32,0-.32-.19A.69.69,0,0,1,557.91,159.94Z"/><path class="cls-29" d="M560.25,161.36l.06-.05a.22.22,0,0,1,.27,0,.29.29,0,0,1,0,.17v.08a1.17,1.17,0,0,1-.09.24l0,.07a.63.63,0,0,1-.11.12l-.07,0a.09.09,0,0,1-.06,0,.14.14,0,0,1-.11,0h0a.2.2,0,0,1-.09-.14s0,0,0-.07a.49.49,0,0,1,.06-.23A.62.62,0,0,1,560.25,161.36Z"/><path class="cls-29" d="M560.24,159.52l.07,0c.17-.11.32,0,.32.18a.69.69,0,0,1-.32.55l-.06,0c-.15,0-.26,0-.26-.21A.74.74,0,0,1,560.24,159.52Z"/><path class="cls-29" d="M558.73,165.9a.23.23,0,0,1,.17,0,.21.21,0,0,1,.15.23s0,0,0,.07a.59.59,0,0,1-.09.24l0,.07a.68.68,0,0,1-.12.12l-.06,0-.07,0h-.11l0,0a.24.24,0,0,1-.09-.14v-.07a.64.64,0,0,1,.14-.38A.58.58,0,0,1,558.73,165.9Z"/><path class="cls-29" d="M558.72,164.07c.18-.1.32,0,.32.18a.69.69,0,0,1-.32.55c-.17.1-.32,0-.32-.18A.69.69,0,0,1,558.72,164.07Z"/><path class="cls-29" d="M559.52,164.52c.18-.1.32,0,.32.19a.69.69,0,0,1-.32.55c-.17.1-.32,0-.32-.18A.74.74,0,0,1,559.52,164.52Z"/><path class="cls-29" d="M557.92,165.45c.18-.11.32,0,.32.18a.68.68,0,0,1-.31.55c-.18.1-.32,0-.32-.18A.7.7,0,0,1,557.92,165.45Z"/><path class="cls-29" d="M559.52,162.69c.17-.1.32,0,.32.18a.72.72,0,0,1-.32.55c-.18.1-.32,0-.32-.18A.69.69,0,0,1,559.52,162.69Z"/><path class="cls-29" d="M557.92,163.61c.18-.1.32,0,.32.18a.68.68,0,0,1-.32.55c-.17.11-.32,0-.32-.18A.69.69,0,0,1,557.92,163.61Z"/><path class="cls-29" d="M560.26,165l.06-.05a.26.26,0,0,1,.18,0c.09,0,.14.1.14.22v.08a1.17,1.17,0,0,1-.09.24l0,.07a.43.43,0,0,1-.11.12l-.07,0-.06,0a.23.23,0,0,1-.11,0l0,0a.2.2,0,0,1-.09-.14s0,0,0-.07a.71.71,0,0,1,.14-.38A.68.68,0,0,1,560.26,165Z"/><path class="cls-29" d="M560.25,163.19l.07,0c.17-.11.32,0,.32.18a.69.69,0,0,1-.32.55l-.06,0c-.15.05-.26,0-.26-.21A.74.74,0,0,1,560.25,163.19Z"/><path class="cls-29" d="M558.74,169.57a.21.21,0,0,1,.26,0,.24.24,0,0,1,.06.17s0,.06,0,.08a.73.73,0,0,1-.31.48c-.16.09-.28,0-.32-.12v-.07a.68.68,0,0,1,.05-.23A.77.77,0,0,1,558.74,169.57Z"/><path class="cls-29" d="M558.73,167.74c.18-.1.32,0,.32.18a.69.69,0,0,1-.32.55c-.17.1-.32,0-.32-.18A.72.72,0,0,1,558.73,167.74Z"/><path class="cls-29" d="M559.53,168.19c.18-.1.32,0,.32.19a.69.69,0,0,1-.32.55c-.17.1-.32,0-.32-.18A.74.74,0,0,1,559.53,168.19Z"/><path class="cls-29" d="M557.94,169.12c.17-.11.31,0,.32.18a.72.72,0,0,1-.32.55c-.18.1-.32,0-.32-.18A.69.69,0,0,1,557.94,169.12Z"/><path class="cls-29" d="M559.53,166.36c.17-.1.32,0,.32.18a.69.69,0,0,1-.32.55c-.18.1-.32,0-.32-.18A.69.69,0,0,1,559.53,166.36Z"/><path class="cls-29" d="M557.93,167.28c.18-.1.32,0,.32.18a.68.68,0,0,1-.32.55c-.17.11-.32,0-.32-.18A.69.69,0,0,1,557.93,167.28Z"/><path class="cls-29" d="M560.27,168.7l.06,0c.11-.06.21-.06.27,0a.29.29,0,0,1,0,.17v.08a.67.67,0,0,1-.32.47l-.06,0a.17.17,0,0,1-.25-.14s0,0,0-.07a.57.57,0,0,1,.06-.24A.65.65,0,0,1,560.27,168.7Z"/><path class="cls-29" d="M560.26,166.86l.07,0c.17-.11.32,0,.32.18a.69.69,0,0,1-.32.55l-.06,0c-.15,0-.26,0-.26-.21A.74.74,0,0,1,560.26,166.86Z"/><path class="cls-29" d="M558.74,171.41c.18-.1.32,0,.32.18a.69.69,0,0,1-.32.55c-.17.1-.32,0-.32-.18A.72.72,0,0,1,558.74,171.41Z"/><path class="cls-29" d="M559.54,171.86c.18-.1.32,0,.32.19a.69.69,0,0,1-.32.55c-.17.1-.32,0-.32-.18A.74.74,0,0,1,559.54,171.86Z"/><path class="cls-29" d="M558,172.79c.17-.11.32,0,.32.18a.72.72,0,0,1-.32.55c-.18.1-.32,0-.32-.18A.69.69,0,0,1,558,172.79Z"/><path class="cls-29" d="M559.54,170c.17-.1.32,0,.32.18a.69.69,0,0,1-.32.55c-.18.1-.32,0-.32-.18A.69.69,0,0,1,559.54,170Z"/><path class="cls-29" d="M557.94,171c.18-.1.32,0,.32.18a.68.68,0,0,1-.32.55c-.17.11-.32,0-.32-.18A.69.69,0,0,1,557.94,171Z"/><path class="cls-29" d="M560.27,170.53l.07,0c.17-.11.32,0,.32.18a.69.69,0,0,1-.32.55l-.06,0c-.15.05-.26,0-.26-.21A.74.74,0,0,1,560.27,170.53Z"/><path class="cls-29" d="M561.83,131a.23.23,0,0,1,.17,0,.2.2,0,0,1,.15.22s0,0,0,.08a.59.59,0,0,1-.09.24.43.43,0,0,0,0,.07l-.12.12-.06,0a.11.11,0,0,1-.07,0,.14.14,0,0,1-.11,0h0a.28.28,0,0,1-.09-.14v-.07a.67.67,0,0,1,.14-.39A.69.69,0,0,1,561.83,131Z"/><path class="cls-29" d="M563.36,130.15l.06,0a.26.26,0,0,1,.18,0c.09,0,.14.09.14.22v.08a.92.92,0,0,1-.09.23.35.35,0,0,1,0,.08l-.11.12-.07,0-.06,0a.22.22,0,0,1-.11,0l0,0a.18.18,0,0,1-.09-.13s0,0,0-.07a.74.74,0,0,1,.14-.39Z"/><path class="cls-29" d="M561.84,134.7a.23.23,0,0,1,.17,0,.2.2,0,0,1,.15.22s0,.05,0,.08a.59.59,0,0,1-.09.24.43.43,0,0,0,0,.07l-.12.12-.06,0s0,0-.07,0a.14.14,0,0,1-.11,0h0a.28.28,0,0,1-.09-.14v-.07a.67.67,0,0,1,.14-.39A.69.69,0,0,1,561.84,134.7Z"/><path class="cls-29" d="M561.83,132.86c.18-.1.32,0,.32.19a.69.69,0,0,1-.32.55c-.17.1-.32,0-.32-.19A.72.72,0,0,1,561.83,132.86Z"/><path class="cls-29" d="M562.63,133.32c.18-.1.32,0,.32.18a.68.68,0,0,1-.32.55c-.17.11-.32,0-.32-.18A.72.72,0,0,1,562.63,133.32Z"/><path class="cls-29" d="M561,134.24c.17-.1.31,0,.32.18a.74.74,0,0,1-.32.56c-.18.1-.32,0-.32-.19A.69.69,0,0,1,561,134.24Z"/><path class="cls-29" d="M562.63,131.49c.17-.11.32,0,.32.18a.69.69,0,0,1-.32.55c-.18.1-.32,0-.32-.18A.68.68,0,0,1,562.63,131.49Z"/><path class="cls-29" d="M561,132.41c.18-.1.32,0,.32.18a.69.69,0,0,1-.32.55c-.17.1-.32,0-.32-.18A.69.69,0,0,1,561,132.41Z"/><path class="cls-29" d="M563.37,133.82l.06,0a.26.26,0,0,1,.18,0c.09,0,.14.09.14.22V134a.92.92,0,0,1-.09.23.35.35,0,0,1,0,.08l-.11.12-.06,0-.07,0a.22.22,0,0,1-.11,0l0,0a.18.18,0,0,1-.09-.13s0-.05,0-.07a.74.74,0,0,1,.14-.39Z"/><path class="cls-29" d="M563.36,132l.07-.05c.17-.1.32,0,.32.18a.71.71,0,0,1-.32.56l-.06,0c-.15,0-.26,0-.26-.22A.73.73,0,0,1,563.36,132Z"/><path class="cls-29" d="M561.85,138.37c.11-.06.2-.06.26,0a.24.24,0,0,1,.06.17.22.22,0,0,1,0,.08.73.73,0,0,1-.31.47c-.16.09-.28,0-.31-.11a.15.15,0,0,1,0-.07.65.65,0,0,1,.32-.55Z"/><path class="cls-29" d="M561.84,136.53c.18-.1.32,0,.32.19a.69.69,0,0,1-.32.55c-.17.1-.32,0-.32-.18A.74.74,0,0,1,561.84,136.53Z"/><path class="cls-29" d="M562.64,137c.18-.1.32,0,.32.18a.71.71,0,0,1-.32.56c-.17.1-.32,0-.32-.19A.72.72,0,0,1,562.64,137Z"/><path class="cls-29" d="M561.05,137.91c.17-.1.32,0,.32.19a.72.72,0,0,1-.32.55c-.18.1-.32,0-.32-.19A.69.69,0,0,1,561.05,137.91Z"/><path class="cls-29" d="M562.64,135.16c.17-.11.32,0,.32.18a.69.69,0,0,1-.32.55c-.18.1-.32,0-.32-.18A.68.68,0,0,1,562.64,135.16Z"/><path class="cls-29" d="M561,136.08c.18-.1.32,0,.32.18a.69.69,0,0,1-.32.55c-.17.1-.32,0-.32-.18A.69.69,0,0,1,561,136.08Z"/><path class="cls-29" d="M563.38,137.49l.06,0a.2.2,0,0,1,.27,0,.25.25,0,0,1,0,.17v.08a.73.73,0,0,1-.31.47l-.07,0a.18.18,0,0,1-.25-.14V138a.42.42,0,0,1,0-.24A.9.9,0,0,1,563.38,137.49Z"/><path class="cls-29" d="M563.37,135.66l.07,0c.17-.1.32,0,.32.19a.71.71,0,0,1-.32.55l-.06,0c-.15.05-.26,0-.26-.22A.71.71,0,0,1,563.37,135.66Z"/><path class="cls-29" d="M561.86,142a.24.24,0,0,1,.18,0,.2.2,0,0,1,.14.22.22.22,0,0,1,0,.08.59.59,0,0,1-.09.24.43.43,0,0,0,0,.07,1.36,1.36,0,0,1-.12.12l-.06,0-.06,0a.17.17,0,0,1-.12,0h0a.2.2,0,0,1-.08-.14.15.15,0,0,1,0-.07.67.67,0,0,1,.14-.39A.69.69,0,0,1,561.86,142Z"/><path class="cls-29" d="M561.85,140.2c.18-.1.32,0,.32.19a.69.69,0,0,1-.32.55c-.17.1-.32,0-.32-.18A.74.74,0,0,1,561.85,140.2Z"/><path class="cls-29" d="M562.65,140.66c.18-.1.32,0,.32.18a.68.68,0,0,1-.32.55c-.17.11-.32,0-.32-.18A.72.72,0,0,1,562.65,140.66Z"/><path class="cls-29" d="M561.06,141.58c.17-.1.32,0,.32.19a.74.74,0,0,1-.32.55c-.18.1-.32,0-.32-.19A.69.69,0,0,1,561.06,141.58Z"/><path class="cls-29" d="M562.65,138.83c.17-.11.32,0,.32.18a.69.69,0,0,1-.32.55c-.18.1-.32,0-.32-.18A.68.68,0,0,1,562.65,138.83Z"/><path class="cls-29" d="M561.05,139.75c.18-.1.32,0,.32.18a.69.69,0,0,1-.32.55c-.17.1-.32,0-.32-.18A.72.72,0,0,1,561.05,139.75Z"/><path class="cls-29" d="M563.39,141.16l.06,0a.26.26,0,0,1,.18,0c.09,0,.14.09.14.22v.08a.65.65,0,0,1-.09.23.35.35,0,0,1,0,.08l-.11.12-.06,0-.07,0a.14.14,0,0,1-.11,0l0,0a.18.18,0,0,1-.09-.13v-.07a.67.67,0,0,1,.14-.39Z"/><path class="cls-29" d="M563.38,139.33l.07-.05c.18-.1.32,0,.32.19a.71.71,0,0,1-.32.55l-.06,0c-.15,0-.26,0-.26-.22A.71.71,0,0,1,563.38,139.33Z"/><path class="cls-29" d="M561.87,145.71a.25.25,0,0,1,.18,0,.2.2,0,0,1,.14.22.22.22,0,0,1,0,.08.59.59,0,0,1-.09.24.43.43,0,0,0,0,.07,1.36,1.36,0,0,1-.12.12l-.06,0a.09.09,0,0,1-.06,0,.17.17,0,0,1-.12,0h-.05a.2.2,0,0,1-.08-.14.15.15,0,0,1,0-.07.67.67,0,0,1,.14-.39A.69.69,0,0,1,561.87,145.71Z"/><path class="cls-29" d="M561.86,143.87c.18-.1.32,0,.32.19a.69.69,0,0,1-.32.55c-.17.1-.32,0-.32-.18A.74.74,0,0,1,561.86,143.87Z"/><path class="cls-29" d="M562.66,144.33c.18-.1.32,0,.32.18a.7.7,0,0,1-.31.55c-.18.11-.32,0-.33-.18A.72.72,0,0,1,562.66,144.33Z"/><path class="cls-29" d="M561.07,145.25c.17-.1.32,0,.32.19a.71.71,0,0,1-.32.55c-.18.1-.32,0-.32-.19A.69.69,0,0,1,561.07,145.25Z"/><path class="cls-29" d="M562.66,142.5c.17-.11.32,0,.32.18a.69.69,0,0,1-.32.55c-.18.1-.32,0-.32-.18A.68.68,0,0,1,562.66,142.5Z"/><path class="cls-29" d="M561.06,143.42c.18-.1.32,0,.32.18a.69.69,0,0,1-.32.55c-.17.1-.32,0-.32-.18A.72.72,0,0,1,561.06,143.42Z"/><path class="cls-29" d="M563.4,144.83l.06,0a.26.26,0,0,1,.18,0c.09,0,.14.09.14.22v.08a.5.5,0,0,1-.09.23.35.35,0,0,1-.05.08l-.11.12-.06,0-.07,0a.14.14,0,0,1-.11,0l0,0a.22.22,0,0,1-.09-.13v-.07a.67.67,0,0,1,.14-.39Z"/><path class="cls-29" d="M563.4,143l.06-.05c.18-.1.32,0,.32.18a.71.71,0,0,1-.32.56l-.06,0c-.15,0-.26,0-.26-.22A.69.69,0,0,1,563.4,143Z"/><path class="cls-29" d="M561.88,149.38c.11-.06.21-.06.26,0a.24.24,0,0,1,.06.17.22.22,0,0,1,0,.08.73.73,0,0,1-.31.47c-.15.09-.28,0-.31-.11a.15.15,0,0,1,0-.07.65.65,0,0,1,.32-.55Z"/><path class="cls-29" d="M561.87,147.54c.18-.1.32,0,.32.19a.69.69,0,0,1-.32.55c-.17.1-.32,0-.32-.18A.74.74,0,0,1,561.87,147.54Z"/><path class="cls-29" d="M562.67,148c.18-.1.32,0,.32.18a.7.7,0,0,1-.31.55c-.18.11-.32,0-.32-.18A.68.68,0,0,1,562.67,148Z"/><path class="cls-29" d="M561.08,148.92c.17-.1.32,0,.32.19a.71.71,0,0,1-.32.55c-.18.1-.32,0-.32-.19A.69.69,0,0,1,561.08,148.92Z"/><path class="cls-29" d="M562.67,146.17c.18-.11.32,0,.32.18a.69.69,0,0,1-.32.55c-.18.1-.32,0-.32-.18A.68.68,0,0,1,562.67,146.17Z"/><path class="cls-29" d="M561.07,147.09c.18-.1.32,0,.32.18a.69.69,0,0,1-.32.55c-.17.1-.32,0-.32-.18A.72.72,0,0,1,561.07,147.09Z"/><path class="cls-29" d="M563.41,148.5l.06,0c.12-.07.21-.06.27,0a.3.3,0,0,1,.06.17s0,.05,0,.08a.73.73,0,0,1-.31.47l-.07,0a.18.18,0,0,1-.25-.14V149a.69.69,0,0,1,.05-.24A.9.9,0,0,1,563.41,148.5Z"/><path class="cls-29" d="M563.41,146.67l.06,0c.18-.1.32,0,.32.18a.71.71,0,0,1-.32.56l-.06,0c-.15.06-.26,0-.26-.21A.69.69,0,0,1,563.41,146.67Z"/><path class="cls-29" d="M561.89,153.05a.25.25,0,0,1,.18,0,.2.2,0,0,1,.14.22.22.22,0,0,1,0,.08.63.63,0,0,1-.08.23l0,.08-.11.12-.07,0a.09.09,0,0,1-.06,0,.17.17,0,0,1-.12,0h-.05a.2.2,0,0,1-.08-.14.15.15,0,0,1,0-.07.62.62,0,0,1,.14-.38A.58.58,0,0,1,561.89,153.05Z"/><path class="cls-29" d="M561.88,151.21c.18-.1.32,0,.32.19a.71.71,0,0,1-.31.55c-.18.1-.32,0-.33-.18A.74.74,0,0,1,561.88,151.21Z"/><path class="cls-29" d="M562.68,151.67c.18-.1.32,0,.32.18a.7.7,0,0,1-.31.55c-.18.11-.32,0-.32-.18A.71.71,0,0,1,562.68,151.67Z"/><path class="cls-29" d="M561.09,152.59c.17-.1.32,0,.32.19a.71.71,0,0,1-.32.55c-.18.1-.32,0-.32-.19A.69.69,0,0,1,561.09,152.59Z"/><path class="cls-29" d="M562.68,149.84c.18-.11.32,0,.32.18a.69.69,0,0,1-.32.55c-.18.1-.32,0-.32-.18A.68.68,0,0,1,562.68,149.84Z"/><path class="cls-29" d="M561.08,150.76c.18-.1.32,0,.32.18a.69.69,0,0,1-.32.55c-.17.1-.32,0-.32-.18A.72.72,0,0,1,561.08,150.76Z"/><path class="cls-29" d="M563.42,152.17l.07,0a.23.23,0,0,1,.17,0c.09,0,.15.09.15.22s0,.05,0,.08a.5.5,0,0,1-.09.23.43.43,0,0,1,0,.07l-.12.13-.06,0-.07,0a.22.22,0,0,1-.11,0l0,0a.22.22,0,0,1-.09-.13v-.07a.67.67,0,0,1,.14-.39Z"/><path class="cls-29" d="M563.42,150.34l.06-.05c.18-.1.32,0,.32.18a.71.71,0,0,1-.32.56l-.06,0c-.15.05-.26,0-.26-.22A.69.69,0,0,1,563.42,150.34Z"/><path class="cls-29" d="M561.9,156.72c.13-.08.24-.05.29.05a.28.28,0,0,1,0,.13.69.69,0,0,1-.32.55c-.18.1-.32,0-.32-.18a1,1,0,0,1,0-.16A.7.7,0,0,1,561.9,156.72Z"/><path class="cls-29" d="M561.89,154.88c.18-.1.32,0,.32.19a.71.71,0,0,1-.31.55c-.18.1-.32,0-.33-.18A.74.74,0,0,1,561.89,154.88Z"/><path class="cls-29" d="M562.69,155.34c.18-.1.32,0,.32.18a.67.67,0,0,1-.31.55c-.18.11-.32,0-.32-.18A.71.71,0,0,1,562.69,155.34Z"/><path class="cls-29" d="M561.1,156.26c.17-.1.32,0,.32.18a.71.71,0,0,1-.32.56c-.18.1-.32,0-.32-.19A.69.69,0,0,1,561.1,156.26Z"/><path class="cls-29" d="M562.69,153.51c.18-.11.32,0,.32.18a.69.69,0,0,1-.32.55c-.18.1-.32,0-.32-.18A.68.68,0,0,1,562.69,153.51Z"/><path class="cls-29" d="M561.09,154.43c.18-.1.32,0,.32.18a.69.69,0,0,1-.32.55c-.17.1-.32,0-.32-.18A.72.72,0,0,1,561.09,154.43Z"/><path class="cls-29" d="M563.43,155.84l.07,0c.13-.08.24-.05.29,0a.28.28,0,0,1,0,.13.72.72,0,0,1-.32.55l-.07,0c-.14.05-.25,0-.25-.21a.88.88,0,0,1,0-.16A.82.82,0,0,1,563.43,155.84Z"/><path class="cls-29" d="M563.43,154l.06,0c.18-.1.32,0,.32.18a.71.71,0,0,1-.32.56l-.06,0c-.15.05-.26,0-.26-.22A.69.69,0,0,1,563.43,154Z"/><path class="cls-29" d="M561.91,160.39c.11-.07.21-.06.26,0a.24.24,0,0,1,.06.17.22.22,0,0,1,0,.08.63.63,0,0,1-.08.23l0,.08-.11.12-.07,0-.06,0a.17.17,0,0,1-.12,0h0a.19.19,0,0,1-.09-.14.15.15,0,0,1,0-.07.65.65,0,0,1,.32-.55Z"/><path class="cls-29" d="M561.9,158.55c.18-.1.32,0,.32.19a.71.71,0,0,1-.31.55c-.18.1-.32,0-.32-.18A.7.7,0,0,1,561.9,158.55Z"/><path class="cls-29" d="M562.7,159c.18-.1.32,0,.33.18a.71.71,0,0,1-.32.55c-.18.11-.32,0-.32-.18A.71.71,0,0,1,562.7,159Z"/><path class="cls-29" d="M561.11,159.93c.17-.1.32,0,.32.18a.71.71,0,0,1-.32.56c-.18.1-.32,0-.32-.19A.69.69,0,0,1,561.11,159.93Z"/><path class="cls-29" d="M562.7,157.18c.18-.11.32,0,.32.18a.69.69,0,0,1-.32.55c-.18.1-.32,0-.32-.18A.68.68,0,0,1,562.7,157.18Z"/><path class="cls-29" d="M561.1,158.1c.18-.1.32,0,.32.18a.69.69,0,0,1-.32.55c-.17.1-.32,0-.32-.18A.72.72,0,0,1,561.1,158.1Z"/><path class="cls-29" d="M563.44,159.51l.07,0c.11-.07.2-.06.26,0a.21.21,0,0,1,.06.17s0,0,0,.08a.5.5,0,0,1-.09.23.43.43,0,0,1,0,.07l-.12.13-.06,0-.07,0a.22.22,0,0,1-.11,0l-.05,0a.22.22,0,0,1-.09-.13V160a.69.69,0,0,1,0-.24A.9.9,0,0,1,563.44,159.51Z"/><path class="cls-29" d="M563.44,157.68l.06-.05c.18-.1.32,0,.32.18a.71.71,0,0,1-.32.56l-.06,0c-.15,0-.26,0-.26-.22A.69.69,0,0,1,563.44,157.68Z"/><path class="cls-29" d="M561.92,164.06a.26.26,0,0,1,.18,0c.08,0,.14.09.14.22a.22.22,0,0,1,0,.08.63.63,0,0,1-.08.23l0,.08-.11.12-.07,0s0,0-.06,0a.17.17,0,0,1-.12,0l0,0a.16.16,0,0,1-.09-.13.15.15,0,0,1,0-.07.74.74,0,0,1,.14-.39A.69.69,0,0,1,561.92,164.06Z"/><path class="cls-29" d="M561.91,162.22c.18-.1.32,0,.32.19a.68.68,0,0,1-.31.55c-.18.1-.32,0-.32-.18A.73.73,0,0,1,561.91,162.22Z"/><path class="cls-29" d="M562.72,162.68c.17-.1.32,0,.32.18a.71.71,0,0,1-.32.55c-.18.11-.32,0-.32-.18A.69.69,0,0,1,562.72,162.68Z"/><path class="cls-29" d="M561.12,163.6c.17-.1.32,0,.32.18a.71.71,0,0,1-.32.56c-.18.1-.32,0-.32-.19A.69.69,0,0,1,561.12,163.6Z"/><path class="cls-29" d="M562.71,160.85c.18-.11.32,0,.32.18a.69.69,0,0,1-.32.55c-.17.1-.32,0-.32-.18A.68.68,0,0,1,562.71,160.85Z"/><path class="cls-29" d="M561.11,161.77c.18-.1.32,0,.32.18a.71.71,0,0,1-.31.55c-.18.1-.32,0-.33-.18A.72.72,0,0,1,561.11,161.77Z"/><path class="cls-29" d="M563.45,163.18l.07,0a.24.24,0,0,1,.18,0c.08,0,.14.09.14.22s0,.05,0,.08a.5.5,0,0,1-.09.23l0,.08-.12.12-.06,0-.07,0a.22.22,0,0,1-.11,0l-.05,0a.17.17,0,0,1-.08-.13.17.17,0,0,1,0-.07.67.67,0,0,1,.14-.39A.63.63,0,0,1,563.45,163.18Z"/><path class="cls-29" d="M563.45,161.35l.06,0c.18-.1.32,0,.32.18a.71.71,0,0,1-.32.56l-.06,0c-.15.05-.26,0-.26-.22A.71.71,0,0,1,563.45,161.35Z"/><path class="cls-29" d="M561.93,167.73c.11-.07.21-.06.26,0a.24.24,0,0,1,.06.17.22.22,0,0,1,0,.08.7.7,0,0,1-.31.47c-.15.09-.28,0-.31-.11a.17.17,0,0,1,0-.07.53.53,0,0,1,.06-.24A.62.62,0,0,1,561.93,167.73Z"/><path class="cls-29" d="M561.92,165.89c.18-.1.32,0,.32.19a.68.68,0,0,1-.31.55c-.18.1-.32,0-.32-.19A.71.71,0,0,1,561.92,165.89Z"/><path class="cls-29" d="M562.73,166.35c.17-.1.32,0,.32.18a.71.71,0,0,1-.32.55c-.18.11-.32,0-.32-.18A.69.69,0,0,1,562.73,166.35Z"/><path class="cls-29" d="M561.13,167.27c.18-.1.32,0,.32.18a.71.71,0,0,1-.32.56c-.17.1-.32,0-.32-.19A.69.69,0,0,1,561.13,167.27Z"/><path class="cls-29" d="M562.72,164.52c.18-.11.32,0,.32.18a.69.69,0,0,1-.32.55c-.17.1-.32,0-.32-.18A.68.68,0,0,1,562.72,164.52Z"/><path class="cls-29" d="M561.12,165.44c.18-.1.32,0,.32.18a.71.71,0,0,1-.31.55c-.18.1-.32,0-.32-.18A.68.68,0,0,1,561.12,165.44Z"/><path class="cls-29" d="M563.46,166.85l.07,0a.2.2,0,0,1,.26,0,.24.24,0,0,1,.06.18.25.25,0,0,1,0,.08.73.73,0,0,1-.31.47l-.07,0a.17.17,0,0,1-.24-.14.17.17,0,0,1,0-.07.69.69,0,0,1,0-.24A.9.9,0,0,1,563.46,166.85Z"/><path class="cls-29" d="M563.46,165l.06-.05c.18-.1.32,0,.32.18a.71.71,0,0,1-.32.56l-.06,0c-.15,0-.26,0-.26-.22A.69.69,0,0,1,563.46,165Z"/><path class="cls-29" d="M561.93,169.56c.18-.1.32,0,.33.19a.72.72,0,0,1-.32.55c-.18.1-.32,0-.32-.19A.71.71,0,0,1,561.93,169.56Z"/><path class="cls-29" d="M562.74,170c.17-.1.32,0,.32.18a.71.71,0,0,1-.32.55c-.18.11-.32,0-.32-.18A.69.69,0,0,1,562.74,170Z"/><path class="cls-29" d="M561.14,170.94c.18-.1.32,0,.32.18a.71.71,0,0,1-.32.56c-.17.1-.32,0-.32-.19A.69.69,0,0,1,561.14,170.94Z"/><path class="cls-29" d="M562.73,168.18c.18-.1.32,0,.32.19a.69.69,0,0,1-.32.55c-.17.1-.32,0-.32-.18A.71.71,0,0,1,562.73,168.18Z"/><path class="cls-29" d="M561.13,169.11c.18-.11.32,0,.32.18a.71.71,0,0,1-.31.55c-.18.1-.32,0-.32-.18A.71.71,0,0,1,561.13,169.11Z"/><path class="cls-29" d="M563.47,168.69l.06-.05c.18-.1.32,0,.32.18a.71.71,0,0,1-.32.56l-.06,0c-.15.05-.26,0-.26-.22A.69.69,0,0,1,563.47,168.69Z"/><path class="cls-29" d="M565,129.18a.45.45,0,0,1,.18,0,.21.21,0,0,1,.14.23.25.25,0,0,1,0,.08.7.7,0,0,1-.08.23l0,.07a.43.43,0,0,1-.11.12l-.07,0-.06,0a.25.25,0,0,1-.12,0l0,0a.16.16,0,0,1-.09-.13.17.17,0,0,1,0-.07.74.74,0,0,1,.14-.39A.58.58,0,0,1,565,129.18Z"/><path class="cls-29" d="M565,132.86a.28.28,0,0,1,.18-.05.21.21,0,0,1,.14.23.25.25,0,0,1,0,.08.7.7,0,0,1-.08.23l0,.07a.43.43,0,0,1-.11.12l-.07.05-.06,0a.25.25,0,0,1-.12,0l0,0a.16.16,0,0,1-.09-.13.17.17,0,0,1,0-.07.74.74,0,0,1,.14-.39A.46.46,0,0,1,565,132.86Z"/><path class="cls-29" d="M565,131c.18-.1.32,0,.33.18a.71.71,0,0,1-.32.55c-.18.11-.32,0-.32-.18A.71.71,0,0,1,565,131Z"/><path class="cls-29" d="M565.83,131.48c.17-.1.32,0,.32.18a.72.72,0,0,1-.32.55c-.18.1-.32,0-.32-.18A.69.69,0,0,1,565.83,131.48Z"/><path class="cls-29" d="M564.23,132.4c.18-.1.32,0,.32.18a.69.69,0,0,1-.32.55c-.17.1-.32,0-.32-.18A.69.69,0,0,1,564.23,132.4Z"/><path class="cls-29" d="M565.82,129.64c.18-.1.32,0,.32.18a.71.71,0,0,1-.32.56c-.17.1-.32,0-.32-.19A.69.69,0,0,1,565.82,129.64Z"/><path class="cls-29" d="M564.22,130.56c.18-.1.32,0,.32.19a.71.71,0,0,1-.31.55c-.18.1-.32,0-.32-.19A.68.68,0,0,1,564.22,130.56Z"/><path class="cls-29" d="M565,136.53a.21.21,0,0,1,.27,0,.3.3,0,0,1,.05.18.25.25,0,0,1,0,.08.67.67,0,0,1-.31.47c-.15.09-.28,0-.31-.11a.17.17,0,0,1,0-.07.53.53,0,0,1,.06-.24A.62.62,0,0,1,565,136.53Z"/><path class="cls-29" d="M565,134.69c.17-.1.31,0,.32.18a.71.71,0,0,1-.32.55c-.18.11-.32,0-.32-.18A.69.69,0,0,1,565,134.69Z"/><path class="cls-29" d="M565.84,135.15c.17-.1.32,0,.32.18a.72.72,0,0,1-.32.55c-.18.1-.32,0-.32-.18A.69.69,0,0,1,565.84,135.15Z"/><path class="cls-29" d="M564.24,136.07c.18-.1.32,0,.32.18a.69.69,0,0,1-.32.55c-.17.1-.32,0-.32-.18A.69.69,0,0,1,564.24,136.07Z"/><path class="cls-29" d="M565.83,133.31c.18-.1.32,0,.32.18a.71.71,0,0,1-.32.56c-.17.1-.32,0-.32-.19A.69.69,0,0,1,565.83,133.31Z"/><path class="cls-29" d="M564.23,134.23c.18-.1.32,0,.32.19a.68.68,0,0,1-.31.55c-.18.1-.32,0-.32-.18A.73.73,0,0,1,564.23,134.23Z"/><path class="cls-29" d="M565.05,140.2a.28.28,0,0,1,.18,0,.21.21,0,0,1,.14.23v.07a1,1,0,0,1-.09.24l0,.07a.43.43,0,0,1-.11.12l-.07.05-.06,0a.25.25,0,0,1-.12,0l0,0a.16.16,0,0,1-.09-.13.2.2,0,0,1,0-.07.74.74,0,0,1,.14-.39A.46.46,0,0,1,565.05,140.2Z"/><path class="cls-29" d="M565.05,138.36c.17-.1.32,0,.32.18a.72.72,0,0,1-.32.55c-.18.11-.32,0-.32-.18A.69.69,0,0,1,565.05,138.36Z"/><path class="cls-29" d="M565.85,138.82c.17-.11.32,0,.32.18a.69.69,0,0,1-.32.55c-.18.1-.32,0-.32-.18A.69.69,0,0,1,565.85,138.82Z"/><path class="cls-29" d="M564.25,139.74c.18-.1.32,0,.32.18a.69.69,0,0,1-.32.55c-.17.1-.32,0-.32-.18A.69.69,0,0,1,564.25,139.74Z"/><path class="cls-29" d="M565.84,137c.18-.1.32,0,.32.18a.71.71,0,0,1-.32.56c-.17.1-.32,0-.32-.19A.69.69,0,0,1,565.84,137Z"/><path class="cls-29" d="M564.24,137.9c.18-.1.32,0,.32.19a.68.68,0,0,1-.31.55c-.18.1-.32,0-.32-.18A.73.73,0,0,1,564.24,137.9Z"/><path class="cls-29" d="M565.06,143.87a.28.28,0,0,1,.18-.05.21.21,0,0,1,.14.23v.07a1,1,0,0,1-.09.24l0,.07a.43.43,0,0,1-.11.12.18.18,0,0,1-.07,0l-.06,0a.25.25,0,0,1-.12,0l0,0a.16.16,0,0,1-.09-.13.2.2,0,0,1,0-.07.74.74,0,0,1,.14-.39A.53.53,0,0,1,565.06,143.87Z"/><path class="cls-29" d="M565.06,142c.17-.1.32,0,.32.18a.72.72,0,0,1-.32.55c-.18.11-.32,0-.32-.18A.69.69,0,0,1,565.06,142Z"/><path class="cls-29" d="M565.86,142.49c.17-.11.32,0,.32.18a.69.69,0,0,1-.32.55c-.18.1-.32,0-.32-.18A.69.69,0,0,1,565.86,142.49Z"/><path class="cls-29" d="M564.26,143.41c.18-.1.32,0,.32.18a.69.69,0,0,1-.32.55c-.17.1-.32,0-.32-.18A.69.69,0,0,1,564.26,143.41Z"/><path class="cls-29" d="M565.85,140.65c.18-.1.32,0,.32.18a.71.71,0,0,1-.32.56c-.17.1-.32,0-.32-.19A.72.72,0,0,1,565.85,140.65Z"/><path class="cls-29" d="M564.25,141.57c.18-.1.32,0,.33.19a.72.72,0,0,1-.32.55c-.18.1-.32,0-.32-.18A.73.73,0,0,1,564.25,141.57Z"/><path class="cls-29" d="M565.07,147.54a.21.21,0,0,1,.27,0,.3.3,0,0,1,0,.18v.07a.71.71,0,0,1-.32.48c-.15.09-.28,0-.31-.11s0,0,0-.07a.53.53,0,0,1,.06-.24A.62.62,0,0,1,565.07,147.54Z"/><path class="cls-29" d="M565.07,145.7c.17-.1.32,0,.32.18a.71.71,0,0,1-.32.55c-.18.11-.32,0-.32-.18A.69.69,0,0,1,565.07,145.7Z"/><path class="cls-29" d="M565.87,146.16c.17-.11.32,0,.32.18a.69.69,0,0,1-.32.55c-.18.1-.32,0-.32-.18A.69.69,0,0,1,565.87,146.16Z"/><path class="cls-29" d="M564.27,147.08c.18-.1.32,0,.32.18a.69.69,0,0,1-.32.55c-.17.1-.32,0-.32-.18A.69.69,0,0,1,564.27,147.08Z"/><path class="cls-29" d="M565.86,144.32c.18-.1.32,0,.32.18a.71.71,0,0,1-.32.56c-.17.1-.32,0-.32-.19A.72.72,0,0,1,565.86,144.32Z"/><path class="cls-29" d="M564.27,145.24c.17-.1.32,0,.32.19a.72.72,0,0,1-.32.55c-.18.1-.32,0-.32-.18A.71.71,0,0,1,564.27,145.24Z"/><path class="cls-29" d="M565.08,151.2a.33.33,0,0,1,.18,0c.09,0,.14.1.14.23v.07a1,1,0,0,1-.09.24.18.18,0,0,1,0,.07.43.43,0,0,1-.11.12.18.18,0,0,1-.07.05l-.06,0a.22.22,0,0,1-.11,0l0,0a.16.16,0,0,1-.09-.13s0-.05,0-.07a.74.74,0,0,1,.14-.39A.72.72,0,0,1,565.08,151.2Z"/><path class="cls-29" d="M565.08,149.37c.17-.1.32,0,.32.18a.68.68,0,0,1-.32.55c-.18.11-.32,0-.32-.18A.69.69,0,0,1,565.08,149.37Z"/><path class="cls-29" d="M565.88,149.83c.17-.11.32,0,.32.18a.69.69,0,0,1-.32.55c-.18.1-.32,0-.32-.18A.68.68,0,0,1,565.88,149.83Z"/><path class="cls-29" d="M564.28,150.75c.18-.1.32,0,.32.18a.69.69,0,0,1-.32.55c-.17.1-.32,0-.32-.18A.72.72,0,0,1,564.28,150.75Z"/><path class="cls-29" d="M565.87,148c.18-.1.32,0,.32.18a.71.71,0,0,1-.32.56c-.17.1-.32,0-.32-.19A.72.72,0,0,1,565.87,148Z"/><path class="cls-29" d="M564.28,148.91c.17-.1.32,0,.32.19a.72.72,0,0,1-.32.55c-.18.1-.32,0-.32-.19A.71.71,0,0,1,564.28,148.91Z"/><path class="cls-29" d="M565.09,154.87a.2.2,0,0,1,.3.06.44.44,0,0,1,0,.13.69.69,0,0,1-.32.55c-.17.1-.32,0-.32-.18a.45.45,0,0,1,0-.16A.75.75,0,0,1,565.09,154.87Z"/><path class="cls-29" d="M565.09,153c.17-.1.32,0,.32.18a.68.68,0,0,1-.32.55c-.18.11-.32,0-.32-.18A.69.69,0,0,1,565.09,153Z"/><path class="cls-29" d="M565.89,153.5c.17-.11.32,0,.32.18a.69.69,0,0,1-.32.55c-.18.1-.32,0-.32-.18A.68.68,0,0,1,565.89,153.5Z"/><path class="cls-29" d="M564.29,154.42c.18-.1.32,0,.32.18a.69.69,0,0,1-.32.55c-.17.1-.32,0-.32-.18A.72.72,0,0,1,564.29,154.42Z"/><path class="cls-29" d="M565.88,151.66c.18-.1.32,0,.32.18a.73.73,0,0,1-.31.56c-.18.1-.32,0-.33-.19A.72.72,0,0,1,565.88,151.66Z"/><path class="cls-29" d="M564.29,152.58c.17-.1.32,0,.32.19a.72.72,0,0,1-.32.55c-.18.1-.32,0-.32-.19A.69.69,0,0,1,564.29,152.58Z"/><path class="cls-29" d="M565.1,158.54a.22.22,0,0,1,.27,0,.3.3,0,0,1,0,.18v.08a1.09,1.09,0,0,1-.09.23.18.18,0,0,1-.05.07.43.43,0,0,1-.11.12.18.18,0,0,1-.07.05l-.06,0a.22.22,0,0,1-.11,0l0,0a.16.16,0,0,1-.09-.13s0,0,0-.07a.53.53,0,0,1,.06-.24A.75.75,0,0,1,565.1,158.54Z"/><path class="cls-29" d="M565.1,156.71c.17-.1.32,0,.32.18a.68.68,0,0,1-.32.55c-.18.11-.32,0-.32-.18A.69.69,0,0,1,565.1,156.71Z"/><path class="cls-29" d="M565.9,157.17c.18-.11.32,0,.32.18a.69.69,0,0,1-.32.55c-.18.1-.32,0-.32-.18A.68.68,0,0,1,565.9,157.17Z"/><path class="cls-29" d="M564.3,158.09c.18-.1.32,0,.32.18a.69.69,0,0,1-.32.55c-.17.1-.32,0-.32-.18A.72.72,0,0,1,564.3,158.09Z"/><path class="cls-29" d="M565.89,155.33c.18-.1.32,0,.32.18a.73.73,0,0,1-.31.56c-.18.1-.32,0-.33-.19A.72.72,0,0,1,565.89,155.33Z"/><path class="cls-29" d="M564.3,156.25c.17-.1.32,0,.32.19a.69.69,0,0,1-.32.55c-.18.1-.32,0-.32-.19A.69.69,0,0,1,564.3,156.25Z"/><path class="cls-29" d="M565.11,162.21a.33.33,0,0,1,.18,0c.09,0,.14.1.14.23v.08a1.09,1.09,0,0,1-.09.23.18.18,0,0,1-.05.07.43.43,0,0,1-.11.12l-.06,0-.07,0a.22.22,0,0,1-.11,0l-.05,0a.18.18,0,0,1-.09-.13s0-.05,0-.07a.74.74,0,0,1,.14-.39A.94.94,0,0,1,565.11,162.21Z"/><path class="cls-29" d="M565.11,160.38c.17-.1.32,0,.32.18a.68.68,0,0,1-.32.55c-.18.11-.32,0-.32-.18A.69.69,0,0,1,565.11,160.38Z"/><path class="cls-29" d="M565.91,160.84c.18-.11.32,0,.32.18a.69.69,0,0,1-.32.55c-.18.1-.32,0-.32-.18A.68.68,0,0,1,565.91,160.84Z"/><path class="cls-29" d="M564.31,161.76c.18-.1.32,0,.32.18a.69.69,0,0,1-.32.55c-.17.1-.32,0-.32-.18A.72.72,0,0,1,564.31,161.76Z"/><path class="cls-29" d="M565.9,159c.18-.1.32,0,.32.18a.73.73,0,0,1-.31.56c-.18.1-.32,0-.32-.19A.68.68,0,0,1,565.9,159Z"/><path class="cls-29" d="M564.31,159.92c.17-.1.32,0,.32.19a.69.69,0,0,1-.32.55c-.18.1-.32,0-.32-.19A.69.69,0,0,1,564.31,159.92Z"/><path class="cls-29" d="M565.12,165.88a.22.22,0,0,1,.27,0,.3.3,0,0,1,.05.18v.08a.73.73,0,0,1-.31.47c-.16.09-.29,0-.32-.11v-.07a.42.42,0,0,1,.05-.24A.75.75,0,0,1,565.12,165.88Z"/><path class="cls-29" d="M565.12,164.05c.17-.1.32,0,.32.18a.68.68,0,0,1-.32.55c-.18.1-.32,0-.32-.18A.69.69,0,0,1,565.12,164.05Z"/><path class="cls-29" d="M565.92,164.51c.18-.11.32,0,.32.18a.69.69,0,0,1-.32.55c-.18.1-.32,0-.32-.18A.69.69,0,0,1,565.92,164.51Z"/><path class="cls-29" d="M564.32,165.43c.18-.1.32,0,.32.18a.69.69,0,0,1-.32.55c-.17.1-.32,0-.32-.18A.72.72,0,0,1,564.32,165.43Z"/><path class="cls-29" d="M565.91,162.67c.18-.1.32,0,.32.18a.7.7,0,0,1-.31.56c-.18.1-.32,0-.32-.19A.71.71,0,0,1,565.91,162.67Z"/><path class="cls-29" d="M564.32,163.59c.17-.1.32,0,.32.19a.69.69,0,0,1-.32.55c-.18.1-.32,0-.32-.19A.69.69,0,0,1,564.32,163.59Z"/><path class="cls-29" d="M565.13,167.72c.18-.1.32,0,.32.18a.69.69,0,0,1-.32.55c-.17.1-.32,0-.32-.18A.69.69,0,0,1,565.13,167.72Z"/><path class="cls-29" d="M565.93,168.18c.18-.11.32,0,.32.18a.69.69,0,0,1-.32.55c-.17.1-.32,0-.32-.18A.69.69,0,0,1,565.93,168.18Z"/><path class="cls-29" d="M564.33,169.1c.18-.1.32,0,.32.18a.69.69,0,0,1-.32.55c-.17.1-.31,0-.32-.18A.72.72,0,0,1,564.33,169.1Z"/><path class="cls-29" d="M565.92,166.34c.18-.1.32,0,.32.18a.67.67,0,0,1-.31.55c-.18.11-.32,0-.32-.18A.71.71,0,0,1,565.92,166.34Z"/><path class="cls-29" d="M564.33,167.26c.17-.1.32,0,.32.19a.71.71,0,0,1-.32.55c-.18.1-.32,0-.32-.19A.69.69,0,0,1,564.33,167.26Z"/><g class="cls-1"><polygon class="cls-27" points="538.28 135.13 544.29 138.59 544.29 137.47 544.3 136.3 539.24 133.38 538.29 132.83 538.28 135.13"/></g><g class="cls-1"><polygon class="cls-28" points="539.24 134.54 544.29 137.47 544.3 136.3 539.24 133.38 539.24 134.54"/></g><polygon class="cls-11" points="538.35 191.47 535.62 191.47 460.43 234.32 460.43 236.51 445.72 236.51 427.03 226.2 486.43 191.47 521.88 181.48 538.35 191.47"/><polygon class="cls-30" points="445.77 218 464.96 209.43 522.23 173.87 522.23 174.85 468.74 207.74 522.24 178.74 522.24 179.72 464.96 210.41 445.77 223.97 445.77 222.99 461.18 212.1 445.77 218.99 445.77 218"/><polygon class="cls-31" points="446.76 218.27 465.95 209.7 523.21 174.14 523.21 175.12 469.73 208.01 523.22 179.01 523.22 179.99 465.95 210.68 446.76 224.24 446.76 223.26 462.17 212.37 446.76 219.25 446.76 218.27"/><g class="cls-1"><polygon class="cls-31" points="445.81 217.48 445.81 228.17 446.83 227.58 448.04 216.19 445.81 217.48"/><polygon class="cls-30" points="445.81 217.48 444.28 216.59 444.28 227.27 445.81 228.17 445.81 217.48"/></g><polygon class="cls-31" points="539.37 180.18 539.37 190.87 538.35 191.47 537.15 180.08 539.37 180.18"/><polygon class="cls-30" points="537.15 180.08 535.62 179.19 536.82 190.57 538.35 191.47 537.15 180.08"/><polygon class="cls-30" points="460.52 224.97 498.54 205.87 536.98 180.84 536.98 181.82 502.32 204.18 536.98 185.71 536.98 186.69 498.54 206.85 460.52 230.94 460.52 229.96 491.83 210.4 460.52 225.96 460.52 224.97"/><polygon class="cls-31" points="461.51 225.24 499.23 206.14 537.96 181.11 537.96 182.09 503.08 204.47 537.97 185.98 537.97 186.96 499.53 207.12 461.51 231.21 461.51 230.23 491.19 211.48 461.51 226.22 461.51 225.24"/><g class="cls-1"><polygon class="cls-31" points="460.43 225.82 460.43 236.51 461.45 235.93 462.65 224.54 460.43 225.82"/><polygon class="cls-30" points="460.43 225.82 458.9 224.93 458.9 235.62 460.43 236.51 460.43 225.82"/></g><polygon class="cls-32" points="460.43 194.55 539.37 148.91 523.22 139.67 444.28 185.31 460.43 194.55"/><polygon class="cls-5" points="460.43 226.12 539.37 180.48 539.37 148.91 522.94 158.41 460.43 194.55 460.43 226.12"/><polygon class="cls-32" points="537.59 179.44 537.59 152 462.21 195.58 462.21 223.03 537.59 179.44"/><polygon class="cls-33" points="537.59 165.07 462.21 208.66 462.21 195.58 537.59 152 537.59 165.07"/><polygon class="cls-33" points="537.59 179.44 537.59 152 521.44 161.32 521.44 168.15 521.44 170.21 537.59 179.44"/><polygon class="cls-2" points="536.93 157.01 536.93 153.04 462.87 195.87 462.87 199.84 536.93 157.01"/><polygon class="cls-2" points="536.93 165.35 536.93 157.78 462.87 200.61 462.87 208.19 536.93 165.35"/><polygon class="cls-33" points="460.43 226.12 460.43 194.55 444.28 185.31 444.28 216.88 460.43 226.12"/><polygon class="cls-2" points="536.93 173.94 536.93 172.36 462.21 215.57 462.21 217.15 536.93 173.94"/><polygon class="cls-32" points="462.21 215.57 536.93 172.36 530.84 168.87 462.21 208.57 462.21 215.57"/><path class="cls-33" d="M527.44,160.86l1.28-.74a.37.37,0,0,0,.18-.31h0a.35.35,0,0,0-.53-.3l-1.28.74a.35.35,0,0,0-.18.3h0A.36.36,0,0,0,527.44,160.86Z"/><path class="cls-33" d="M527.44,167.12l1.28-.74a.35.35,0,0,0,.18-.3h0a.35.35,0,0,0-.53-.31l-1.28.74a.35.35,0,0,0-.18.31h0A.35.35,0,0,0,527.44,167.12Z"/><path class="cls-33" d="M471.11,193.53l1.28-.74a.37.37,0,0,0,.18-.31h0a.35.35,0,0,0-.53-.3l-1.28.74a.35.35,0,0,0-.18.3h0A.36.36,0,0,0,471.11,193.53Z"/><path class="cls-33" d="M471.11,199.79l1.28-.74a.35.35,0,0,0,.18-.31h0a.35.35,0,0,0-.53-.3l-1.28.74a.35.35,0,0,0-.18.31h0A.35.35,0,0,0,471.11,199.79Z"/><polygon class="cls-11" points="427.03 226.2 427.03 191.47 513.31 140.64 513.31 145.18 444.28 185.31 444.28 216.12 427.03 226.2"/><polygon class="cls-23" points="459.08 104.9 451.78 100.66 451.91 147.12 459.22 151.36 459.08 104.9"/><polygon class="cls-26" points="516.86 71.55 509.55 67.3 451.78 100.66 459.08 104.9 516.86 71.55"/><polygon class="cls-23" points="452.15 105.25 449.49 103.84 449.65 157.71 452.3 159.13 452.15 105.25"/><polygon class="cls-34" points="519.14 66.57 516.49 65.16 449.49 103.84 452.15 105.25 519.14 66.57"/><polygon class="cls-35" points="452.15 105.25 452.3 159.13 519.29 120.45 519.14 66.57 452.15 105.25"/><polygon class="cls-29" points="517.43 118.59 493.73 132.41 493.69 132.44 490.39 134.36 490.37 134.37 487.16 136.24 470.39 146.03 454.86 155.08 454.76 106.41 479.42 92.4 480.1 92.36 480.1 92.36 496.79 82.25 496.52 82.23 499.08 80.66 499.4 80.65 503.07 78.71 503.07 78.71 517.72 69.92 517.43 118.59"/><polygon class="cls-36" points="496.18 82.23 496.18 82.25 487.16 136.24 470.39 146.03 478.8 92.4 478.81 92.36 496.18 82.23"/><polygon class="cls-36" points="503.07 78.71 503.07 78.71 494.11 132.44 490.58 134.37 499.42 80.65 503.07 78.71"/><g id="_3" data-name="3"><path class="cls-37" d="M529.78,118.61c-1,4.57-1.95,9.26-1.95,9.26q-2.6,4.88-5.18,9.77c-.77,1.45-2,3.89-2.89,5.26l3.14,2.65s9.23-11.51,10.94-14.65a62.38,62.38,0,0,0,2.78-7.25C534.29,122,532,120.32,529.78,118.61Z"/><path class="cls-38" d="M538.16,108.5c-5.48-3.23-9.08,6-11.56,14.54.61,2.75,7.17,5.54,10.17,3.24C537.94,120.38,540.3,109.76,538.16,108.5Z"/><path class="cls-39" d="M526.67,122.84c-.22.76-.44,1.51-.64,2.25-.87,2.91,8.94,6.06,10.28,3.65.15-.9.24-1.4.51-2.73C535.31,127.94,527.1,125.7,526.67,122.84Z"/><path class="cls-40" d="M540.89,92.27c.15-1.34-.34-1.25.28-1.92,6-6.63,13.93,0,10.74,6.65-.64,1.33-.27,1.1-1.92,2s-5.23,1.37-6.67-.25A15.8,15.8,0,0,1,540.89,92.27Z"/><path class="cls-41" d="M541.17,90.35c.34-.39,2.44-1.72,6,0,5,2.43,4.83,6.59,4.79,6.68-.64,1.33-.27,1.1-1.92,2s-5.23,1.37-6.67-.25a15.8,15.8,0,0,1-2.43-6.46C541,90.93,540.55,91,541.17,90.35Z"/><path class="cls-37" d="M531.54,226.57c1.07-1.12,4.32-10.67,4.29-11.79-.2-9-3.57-23.49-3.82-25l-.07-.93c.12-5.84.55-32.19.55-32.19,2-2,4.27-5.36,7.52-1.16a15.47,15.47,0,0,1,2.73,5c2.76,7-1.23,31-1.23,31a47.65,47.65,0,0,1,.23,7.23c-.07,2-1.1,9.16-1.42,14.81a5.22,5.22,0,0,0,.47,2.53,3.54,3.54,0,0,1,.39,1.33,3.44,3.44,0,0,1-.26,1.68c-.27,1.33-.81,1.32-1.85,4.57a9.78,9.78,0,0,1-1.82,3.45,8.93,8.93,0,0,1-3,1.73,3.07,3.07,0,0,1-1.22.32,2.22,2.22,0,0,1-1.65-1C531.1,227.57,531.54,226.57,531.54,226.57Z"/><path class="cls-42" d="M531.79,226.23c.87.67,2.34,1.45,3.46,1,.87-.34,6.18-8.8,5.67-10.93,1.68,1.09,1.39,3.06,1.12,4.2a39.76,39.76,0,0,0-.86,7.12l-1,.53-1-.52-.05-2.08c-.14.35-1.89,3.84-2.38,4.12-2.75,1.53-6.36,1.79-7.09,1.09S529.6,228.53,531.79,226.23Z"/><path class="cls-42" d="M552.24,236.73c-.43,1.18-3.09,3.6-5.26,3.51-1.65-.07-2.79-.39-2.86-4.92.59-3.89,2-7.67,2.52-10.75.26-1.39,1-1.17,1.87-2.26a1.82,1.82,0,0,1,2.7,0c1.26,2.43.73,4.29.73,5.37C551.94,230.88,552.3,233.54,552.24,236.73Z"/><path class="cls-37" d="M543.07,164.81c1.18-2.35,5.6-.3,8-.17,2,.1,4.83.56,4.94,2.83.13,2.58-1.81,10.13-2.64,16.38-.38,2.91-.7,11.14-.71,13.12,0,3.5,1.18,6.93,1.2,10.42,0,3.17-2.14,12.9-2.49,15.08,0,4.41.17,7.3,0,10.43-.06.85-.13,1.65-.51,1.95-1.4,1.09-6.31.47-6-1,.81-4,1.56-8.61,1.85-11.67-.53-5.79-1.61-19.06-1.68-20.71,0-.83-.1-1.66-.18-2.47C542.48,175.44,541.27,168.38,543.07,164.81Z"/><path class="cls-43" d="M532.64,156.32c.31-1.58,12.83-5.59,18.66-4.53,4.45,6.44,5.93,7.1,5.92,18.9.7,8.78,1,13.14,1.92,22.62a3.64,3.64,0,0,1-1,2.95,16.59,16.59,0,0,1-9.46,4.13c-11.91,1.34-22.35-4.72-21.79-10.67C527.71,184.78,532.64,156.32,532.64,156.32Z"/><g id="_2" data-name="2"><path class="cls-44" d="M533.08,145c-.11,3-.44,11.37-.44,11.37a6,6,0,0,0,2.64,4.08,16.72,16.72,0,0,0,12,2.26c2.88-.45,4.75-.92,5.86-3-.72-2.42-.85-4.6-1.54-6.94s-1.27-3.3-1.21-5.46c.29-10.81,5.81-27.38,4.84-28.86s-13.59-8.14-18-10.35c-1.18-.6-3.52,0-4,1.24s.17,2.81-.14,4.76c-1.07,6.69-3.7,8.47-4,14.4C528.88,132.32,533.53,133.22,533.08,145Z"/></g><path class="cls-45" d="M547.53,106.89c-.49-.7-1.83-.33-2.65-.28-1.29.06-2.58.14-3.85.29-.32,0-1.91.11-2,.58-.13.81-1.1,2.59-1.14,3.41,0,0-1.5,5.64-.41,7.24l.83,2.69,1.56-1.39c5.21-.58,6.54-4.73,7.32-5.33-.43-3,.85-5,.6-6.09A8.75,8.75,0,0,0,547.53,106.89Z"/><path class="cls-39" d="M537.91,112.34a22,22,0,0,0-.42,5.79c-1.73-.79-3.33-1.41-3.33-1.41a42.17,42.17,0,0,1,3.6-5.9C538.22,110.18,537.86,112,537.91,112.34Z"/><path class="cls-37" d="M537.45,111.45c.34,1.26.72,2.77,1.93,3.15,1.46.45,5.28-1.33,7.11-3.67,2.13-2.72,3.5-6.26,2.76-8.18-.55-1.43-3.23-3.1-4.54-4.1a12.23,12.23,0,0,0-3.06-1.59c-3.1-1.19-5.73-.93-5.81,2.18a39.73,39.73,0,0,0,0,4.63A26.24,26.24,0,0,0,537.45,111.45Z"/><path class="cls-39" d="M539.88,119.43l5,3.11c2.21-1.7,4.39-5.93,4.33-7.76a10.13,10.13,0,0,0-2.09-2.86C547.26,114,544.23,117.71,539.88,119.43Z"/><path class="cls-40" d="M535.76,102.9c-1.28-2.8-1.17-11.4,5.41-12.55a10.69,10.69,0,0,1,8.17,2.6,10.56,10.56,0,0,1,2,11.06,18.55,18.55,0,0,1-3.3,4.47,7.39,7.39,0,0,0,.85-3.6,1.25,1.25,0,0,0-.83-1c-.65-.15-1.44.38-1.45,1.61,0,.21.12.78-.25.78s-.3-.51-.31-.72c-.08-3.4-6.51-3.93-7.07-7.43-1.18,1.47-2.11,1.23-2.55,1.51-.72.44-.74,1.44-.72,2.21C535.78,102.42,535.76,102.9,535.76,102.9Z"/><path class="cls-39" d="M546.74,153.47s5.68,29.37-7.18,26.6c0,0-7.9-2.73-10.14-6.44-1.65-2.73,3.55-25.76,3.55-25.76S535.8,153.47,546.74,153.47Z"/><path class="cls-39" d="M533,146a13.9,13.9,0,0,0,6.1,4.43c8,3.26,11.62-.21,11.62-.21a4.72,4.72,0,0,1,1,2.24s-4.21,4.18-13,.1a13.16,13.16,0,0,1-5.81-4.36A3.38,3.38,0,0,1,533,146Z"/></g><path class="cls-37" d="M519.76,142.9c-.8,1.21-4.56,3.84-5.41,5a4.4,4.4,0,0,0-.19,3.95c.73.74,4.19,1.49,5,.92.55-.4,1.12-2.69,1.44-3.12a25.73,25.73,0,0,0,2.34-4.07A4.78,4.78,0,0,0,519.76,142.9Z"/><polygon class="cls-46" points="527.57 151.97 538.07 157.85 535.8 161.71 525.43 155.4 527.57 151.97"/><path class="cls-37" d="M535.33,153.44,547.8,141.8s2.37-12.32,3.13-16.53l7.62,2.39a72.36,72.36,0,0,1-4.17,16.16c-2.7,2.48-16,12.45-16,12.45a16.51,16.51,0,0,0-1.3,1.35c-1.19,1.7-2.76,3.68-4.12,2.92a19.78,19.78,0,0,1-2.6-1.51c-.28-.2-.93-.76-1-1.1C529.29,156.69,531.74,153.12,535.33,153.44Z"/><path class="cls-47" d="M554.13,118.11c6.19-.31,5.88,9.51,4.65,19.42-1.85,2.63-9.82,2-11.59-2.12C549,128.89,551.71,118.24,554.13,118.11Z"/><path class="cls-39" d="M558.81,137.27q-.16,1.41-.36,2.79c-.43,3.77-12.05,1.62-12.09-1.79.33-1.05.49-1.63.92-3.17C547.76,138,557.08,140.13,558.81,137.27Z"/><path class="cls-48" d="M535.83,103.87s2.81,6.57,10.58,2.37l1.68,2.24s-2.16,6.08-8.21,6.82C539.88,115.3,535.91,112.52,535.83,103.87Z"/><rect class="cls-49" x="513.21" y="139.66" width="23.12" height="21.02" transform="translate(1049.54 300.34) rotate(-180)"/><path class="cls-50" d="M519.24,146.12l-5.4,5.39s0,0,0,0-.07.23.1.56l-.11.13,0,0c0,.09-.2.34,1.67,2.22s2.13,1.71,2.21,1.66h0l.13-.12c.33.18.49.16.57.11l0,0,5.39-5.39a.14.14,0,0,0,0-.1l.07-2.11a.16.16,0,0,0,0-.11l-2.32-2.32a.12.12,0,0,0-.1,0l-2.11.06A.12.12,0,0,0,519.24,146.12Z"/><path class="cls-51" d="M522.82,145.25l-1,1,1.85,1.85,1-1a.17.17,0,0,0,0-.23l-1.62-1.62A.16.16,0,0,0,522.82,145.25Z"/><path class="cls-52" d="M523.58,145l-.39.39,1.35,1.35.39-.39a.11.11,0,0,0,0-.17L523.75,145A.12.12,0,0,0,523.58,145Z"/><path class="cls-51" d="M526.33,147.77h0l.47,0h0a0,0,0,0,0,0,0,2.62,2.62,0,0,0-.7-1.53l-1.67-1.66s0,0,0,0l-.53.53a0,0,0,0,0,0,.06l.82.81h0a2.82,2.82,0,0,1,1.14.79,1.71,1.71,0,0,1,.43,1Z"/><path class="cls-51" d="M522.71,151.49,520,154.24a18.48,18.48,0,0,1-2.31-2l3.05-3.05A27.34,27.34,0,0,1,522.71,151.49Z"/><path class="cls-52" d="M520.7,149.23l-3.05,3.05a18.47,18.47,0,0,1-2-2.32l2.73-2.74A24.12,24.12,0,0,1,520.7,149.23Z"/><path class="cls-53" d="M518.42,150.75l-.39-.39a.17.17,0,0,1,0-.12.16.16,0,0,1,0-.11l.52-.52a.17.17,0,0,1,.12-.05h0a.16.16,0,0,1,.11.05l.39.39.4-.39a.17.17,0,0,1,.23,0l.51.52a.16.16,0,0,1,.05.11.17.17,0,0,1-.05.12l-.39.39.39.39a.17.17,0,0,1,0,.24l-.51.51a.15.15,0,0,1-.23,0l-.4-.39-.39.39a.16.16,0,0,1-.11.05.17.17,0,0,1-.12-.05l-.52-.51a.17.17,0,0,1,0-.24Z"/><polygon class="cls-5" points="518.67 149.73 518.15 150.24 518.66 150.75 518.15 151.26 518.67 151.78 519.17 151.27 519.68 151.78 520.2 151.26 519.69 150.75 520.2 150.24 519.68 149.73 519.17 150.24 518.67 149.73"/><path class="cls-5" d="M525.79,149.5a.81.81,0,1,0,1.61,0,7.24,7.24,0,0,0-.81-1.9A7.29,7.29,0,0,0,525.79,149.5Z"/><path class="cls-37" d="M519.76,142.9c-.8,1.21-4.56,3.84-5.41,5a4.4,4.4,0,0,0-.19,3.95,3.41,3.41,0,0,0,3.49.46c.55-.41.37-3.93.69-4.36,1-1.31,4.93-2.24,5.24-2.93C522.82,143.59,521.13,143.2,519.76,142.9Z"/><circle class="cls-54" cx="838.56" cy="287.37" r="11.73"/><circle class="cls-54" cx="150.33" cy="239.92" r="22.64"/><circle class="cls-54" cx="921.23" cy="186.01" r="21.11"/></g></g></svg>