<svg id="Layer_1" data-name="Layer 1" xmlns="http://www.w3.org/2000/svg" viewBox="0 0 1062 231"><defs><style>.cls-1{fill:#ec5039;}.cls-1,.cls-2{opacity:0.1;}.cls-2{fill:#91278e;}.cls-3{fill:#f4aa1b;opacity:0.15;}.cls-4{fill:#852880;}</style></defs><circle class="cls-1" cx="588.88" cy="71.04" r="64.12"/><circle class="cls-2" cx="493.72" cy="121.96" r="84.72"/><circle class="cls-3" cx="594.75" cy="168.8" r="55.28"/><path class="cls-4" d="M428.51,122.54h-5.26v-27h7.16c5.65,0,9.33,2.25,9.33,8.37,0,5.72-3.11,8.51-8.62,8.51h-2.61Zm0-14.45h1.08c3.11,0,4.79-.68,4.79-4.19s-2-4-4.94-4h-.93Z"/><path class="cls-4" d="M460.39,122.54H454l-6.55-10.88h-.07v10.88h-5.26v-27h7.12c5.33,0,9,2.36,9,8.12,0,3.43-1.9,6.86-5.51,7.47ZM447.4,108h.68c2.9,0,4.94-.86,4.94-4.15s-2.11-4-4.9-4h-.72Z"/><path class="cls-4" d="M467.36,100.14v5.94h8.37v4.58h-8.37V118h8.69v4.58H462.1v-27h13.95v4.57Z"/><path class="cls-4" d="M498.23,109v4.11H489.5V109Z"/><path class="cls-4" d="M517.55,116.85l-2.22,5.69h-5.54L520.3,94.85h4.08l10.23,27.69H529l-2.08-5.69Zm4.54-14.09H522l-3,9.8h6.4Z"/><path class="cls-4" d="M554.47,122.54H548.1l-6.55-10.88h-.07v10.88h-5.26v-27h7.12c5.33,0,9,2.36,9,8.12,0,3.43-1.9,6.86-5.51,7.47Zm-13-14.56h.68c2.9,0,4.94-.86,4.94-4.15s-2.11-4-4.9-4h-.72Z"/><path class="cls-4" d="M574.43,122.54h-6.37l-6.55-10.88h-.07v10.88h-5.26v-27h7.12c5.33,0,9,2.36,9,8.12,0,3.43-1.9,6.86-5.51,7.47Zm-13-14.56h.68c2.9,0,4.94-.86,4.94-4.15s-2.11-4-4.9-4h-.72Z"/><path class="cls-4" d="M581.4,122.54h-5.26v-27h5.26Z"/><path class="cls-4" d="M594.92,113.74H595l6-18.17h5.65l-10.48,27.68H593.1L582.8,95.57h5.65Z"/><path class="cls-4" d="M609.3,116.85l-2.21,5.69h-5.55l10.52-27.69h4.08l10.23,27.69h-5.62l-2.07-5.69Zm4.55-14.09h-.07l-3,9.8h6.4Z"/><path class="cls-4" d="M633.24,118h7.44v4.58H628v-27h5.26Z"/><circle class="cls-3" cx="971.7" cy="58.01" r="21.8"/><circle class="cls-3" cx="73.7" cy="152.01" r="21.8"/></svg>