<svg id="Layer_1" data-name="Layer 1" xmlns="http://www.w3.org/2000/svg" xmlns:xlink="http://www.w3.org/1999/xlink" viewBox="0 0 487 308"><defs><style>.cls-1,.cls-5{fill:#3977bc;}.cls-1,.cls-6{opacity:0.24;}.cls-2{clip-path:url(#clip-path);}.cls-3{fill:#c0dff5;}.cls-4{opacity:0.41;}.cls-7{opacity:0.4;}.cls-8{opacity:0.35;}.cls-9{fill:#2dbcb5;}.cls-10,.cls-12{fill:#0f2433;}.cls-10,.cls-11{opacity:0.43;}.cls-13{opacity:0.49;}.cls-14{fill:#f0a12c;}.cls-15,.cls-17{fill:#7e298a;}.cls-16{fill:#e85a43;}.cls-17{fill-rule:evenodd;}.cls-18{fill:#1a181d;}.cls-19{fill:#98c3e8;}.cls-20{fill:#e68e2d;}.cls-21{fill:#9ea0a3;}.cls-22{fill:url(#linear-gradient);}.cls-23{fill:url(#linear-gradient-2);}.cls-24{fill:#fff;}.cls-25{fill:#58595b;}.cls-26{fill:#1f2e56;}.cls-27{fill:#0f1b24;}.cls-28{fill:#1e3c51;}.cls-29{fill:#bb323f;}.cls-30{fill:#dd4f68;}.cls-31{fill:#6f111c;}.cls-32{fill:#183063;}.cls-33{fill:#853838;}.cls-34{fill:#f4c081;}.cls-35{fill:#293c73;}.cls-36{fill:#203e79;}.cls-37{fill:#c78969;}.cls-38{fill:#43454a;}.cls-39{fill:#372c32;}.cls-40{fill:#d9dbdc;}.cls-41{fill:#d3ebfa;}.cls-42{fill:#5c8d9e;}.cls-43{fill:#699fae;}.cls-44{fill:#1d1953;}</style><clipPath id="clip-path"><circle class="cls-1" cx="241.32" cy="154" r="151.01" transform="translate(78.17 389.23) rotate(-87.8)"/></clipPath><linearGradient id="linear-gradient" x1="274.51" y1="212.46" x2="314.12" y2="212.46" gradientUnits="userSpaceOnUse"><stop offset="0" stop-color="#615eaa"/><stop offset="1" stop-color="#38c6f4"/></linearGradient><linearGradient id="linear-gradient-2" x1="278.9" y1="213.58" x2="311.56" y2="213.58" xlink:href="#linear-gradient"/></defs><circle class="cls-1" cx="241.32" cy="154" r="151.01" transform="translate(78.17 389.23) rotate(-87.8)"/><g class="cls-2"><path class="cls-3" d="M48.42,98.05c.8-16.17,6.76-32,17.82-43.86s25.62-19.95,40.82-25.54c30.29-11.14,66.41-12,92.89,6.41,20.08,14,32.83,37.65,54.88,48.29,17,8.22,36.81,7.31,55.72,7.45s39.27,2.07,53.62,14.38c8.05,6.91,13.38,16.47,17.41,26.28,20.73,50.39,9.71,109.77-18.12,156.62H69.14S43.26,202.44,48.42,98.05Z"/><g class="cls-4"><polygon class="cls-5" points="397.99 172.5 197.54 172.5 197.54 26.65 198.4 26.65 198.4 171.64 397.99 171.64 397.99 172.5"/></g><g class="cls-6"><path class="cls-5" d="M196.53,251.16V5.13a13.93,13.93,0,0,1,.12-1.72c-19-2.84-39.21.4-57.34,7.6-15.2,6-29.76,14.79-40.82,27.56s-17,29.88-17.82,47.34c-3.1,67.55,5,127.81,11.92,165.25Z"/></g><g class="cls-7"><rect class="cls-5" x="59.95" y="251.04" width="320.74" height="0.86"/></g><g class="cls-6"><path class="cls-5" d="M380.84,251.16A196.54,196.54,0,0,0,391,208.94H189.23v42.22Z"/></g><g class="cls-8"><path class="cls-5" d="M389.44,219.78v-.86h-13.1v-9.31h-.86v9.31H319.35v-9.31h-.86v9.31h-50v-9.31h-.86v9.31H215.12v-9.53h-.86v9.53H188.92v.86h40.17v14.71H188.92v.86h25.34v16.41h.86V235.35h75.62v.1h.86v-.1h60.79v.1h.86v-.1h36.19v-.86H353.25V219.78ZM230,234.49V219.78h60.79v14.71Zm122.44,0H291.6V219.78h60.79Z"/><rect class="cls-5" x="268.07" y="235.45" width="0.86" height="16.1"/><rect class="cls-5" x="319.13" y="235.45" width="0.86" height="16.1"/></g><path class="cls-9" d="M227.28,208.86c.06.73,3.31-8.44,2-12.69a13.89,13.89,0,0,0-9.11-9,19.14,19.14,0,0,0-7.23-31.37c4.93-6.15,1.2-16.33-5.94-19.69-3.79-1.78-8.7-1.89-11.83.9a11.69,11.69,0,0,0-3.3,6.37,20.83,20.83,0,0,0,4.45,17.5c-5.69,1-9,7.62-8.31,13.35s4.39,10.65,8.29,14.91c-5,.26-8,6.68-6.15,11.36s6.92,7.37,11.89,8.11Z"/><path class="cls-10" d="M220.42,186.81a.43.43,0,0,0-.6.08c-3.16,4.11-6.74,6.37-10.65,6.76-1.52-8.57-3.15-20-4.62-31.21a10.47,10.47,0,0,0,8.77-6.48.43.43,0,0,0-.79-.36,9.61,9.61,0,0,1-8.08,6c-1.25-9.64-2.37-19.08-3.18-26.37a.43.43,0,0,0-.48-.38.43.43,0,0,0-.38.47c.13,1.13,1.42,12.71,3.18,26.33-.22,0-.44,0-.67,0h0a18.8,18.8,0,0,1-6.42-1.23.43.43,0,1,0-.33.79,19.55,19.55,0,0,0,6.74,1.27l.82,0c1.38,10.58,3,22.27,4.62,31.2-6.49.16-11.67-4.84-11.73-4.89a.42.42,0,0,0-.6,0,.43.43,0,0,0,0,.61c.22.22,5.31,5.16,12,5.16l.52,0c1.26,7,2.49,12.08,3.52,13.4a.42.42,0,0,0,.34.17.43.43,0,0,0,.33-.7c-.93-1.2-2.09-6.07-3.34-12.93,4.12-.43,7.88-2.81,11.17-7.09A.44.44,0,0,0,220.42,186.81Z"/><path class="cls-9" d="M302.86,209.43c-.05.74-3.31-8.44-2-12.68a13.89,13.89,0,0,1,9.11-9,19.14,19.14,0,0,1,7.23-31.37c-4.94-6.16-1.2-16.34,5.94-19.69,3.79-1.79,8.7-1.9,11.82.89a11.56,11.56,0,0,1,3.3,6.37,20.81,20.81,0,0,1-4.44,17.51c5.69,1,9,7.61,8.3,13.35s-4.38,10.65-8.29,14.91c5,.25,8,6.68,6.15,11.35s-6.91,7.38-11.89,8.12Z"/><path class="cls-10" d="M309.73,187.39a.42.42,0,0,1,.6.08c3.15,4.11,6.74,6.37,10.64,6.75,1.53-8.56,3.16-20,4.62-31.21a10.44,10.44,0,0,1-8.76-6.48.43.43,0,1,1,.78-.35,9.59,9.59,0,0,0,8.09,6c1.25-9.64,2.37-19.08,3.18-26.37a.43.43,0,1,1,.85.1c-.12,1.13-1.42,12.71-3.18,26.32.23,0,.44,0,.67,0h0a18.46,18.46,0,0,0,6.42-1.23.43.43,0,0,1,.56.23.44.44,0,0,1-.23.57,19.75,19.75,0,0,1-6.74,1.27l-.82,0c-1.38,10.59-3,22.28-4.62,31.2,6.5.17,11.68-4.84,11.73-4.89a.43.43,0,0,1,.6.62c-.22.22-5.31,5.15-12,5.15l-.52,0c-1.27,7-2.5,12.09-3.52,13.41a.43.43,0,0,1-.34.16.46.46,0,0,1-.27-.09.43.43,0,0,1-.07-.6c.93-1.2,2.1-6.08,3.34-12.94-4.12-.43-7.87-2.81-11.16-7.09A.42.42,0,0,1,309.73,187.39Z"/><path class="cls-9" d="M236.72,208.49A8.52,8.52,0,1,1,241.1,192c-3.07-5.08-5.7-10.72-5.59-16.65s3.68-12.14,9.43-13.62c6.43-1.66,12.68,2.8,17.84,7,1-5.86,2.43-12.34,7.39-15.61a11,11,0,0,1,15.12,15.58,16.85,16.85,0,0,1,8.76,9.7c1.34,4.27.28,9.38-3.11,12.3a10.44,10.44,0,0,1,3.35,18Z"/><g class="cls-11"><path class="cls-12" d="M290.61,190.44c-4,5-13.09,1.29-15.05.39a158.39,158.39,0,0,1,.89-17.1,11.15,11.15,0,0,0,1.87.16,7.35,7.35,0,0,0,7.37-5l-.8-.29c-1.95,5.29-7.07,4.59-8.35,4.32,1.14-10.8,2.85-19.5,2.89-19.68l-.84-.17c0,.18-1.76,8.92-2.9,19.79-5.48.28-12.6-4.39-12.67-4.44l-.48.72c.31.2,7.3,4.81,13.06,4.58-1.16,11.53-1.62,25.21,1.28,33.6l.81-.28c-1.4-4.08-2-9.44-2.12-15.2a23.74,23.74,0,0,0,8.85,2.11,8.32,8.32,0,0,0,6.86-2.93Z"/><path class="cls-12" d="M262.75,178.27l-.82.24a10.86,10.86,0,0,0,10.64,7.32,15.65,15.65,0,0,0,1.89-.11l-.1-.86C265.08,186,262.85,178.59,262.75,178.27Z"/><path class="cls-12" d="M265.84,200.11c-2.4,2-6.5,1.56-7.3,1.45a74.09,74.09,0,0,0-2-10.2,6.89,6.89,0,0,0,.46-.69l-.76-.41h0a202,202,0,0,0-10.88-28.7l-.78.37c.1.22,7.17,15.13,11,29.28-3.91,4.43-14.18.45-14.29.41l-.32.79a26.86,26.86,0,0,0,8.74,1.78,8.72,8.72,0,0,0,6.13-2c1.48,5.69,2.4,11.2,2.08,15.51l.86.06a31.87,31.87,0,0,0-.12-5.3,14.53,14.53,0,0,0,1.81.11,9.35,9.35,0,0,0,5.95-1.78,6.35,6.35,0,0,0,2.13-5.13h-.86A5.52,5.52,0,0,1,265.84,200.11Z"/></g><path class="cls-9" d="M348.22,208.49A8.52,8.52,0,1,1,352.61,192c-3.07-5.08-5.71-10.72-5.6-16.65s3.69-12.14,9.43-13.62c6.44-1.66,12.69,2.8,17.85,7,.95-5.86,2.43-12.34,7.39-15.61a11,11,0,0,1,15.11,15.58,16.87,16.87,0,0,1,8.77,9.7c1.33,4.27.28,9.38-3.11,12.3a10.45,10.45,0,0,1,3.34,18Z"/><g class="cls-11"><path class="cls-12" d="M402.11,190.44c-4,5-13.08,1.29-15,.39a155.87,155.87,0,0,1,.89-17.1,11.12,11.12,0,0,0,1.86.16,7.36,7.36,0,0,0,7.38-5l-.81-.29c-1.94,5.29-7.07,4.59-8.34,4.32,1.13-10.8,2.85-19.5,2.89-19.68l-.85-.17c0,.18-1.76,8.92-2.89,19.79-5.49.28-12.6-4.39-12.68-4.44l-.47.72c.3.2,7.3,4.81,13.06,4.58-1.17,11.53-1.62,25.21,1.28,33.6l.81-.28c-1.41-4.08-2-9.44-2.12-15.2a23.62,23.62,0,0,0,8.84,2.11,8.34,8.34,0,0,0,6.87-2.93Z"/><path class="cls-12" d="M374.26,178.27l-.83.24a10.88,10.88,0,0,0,10.64,7.32,15.92,15.92,0,0,0,1.9-.11l-.1-.86C376.59,186,374.35,178.59,374.26,178.27Z"/><path class="cls-12" d="M377.35,200.11c-2.41,2-6.5,1.56-7.3,1.45a72.72,72.72,0,0,0-2-10.2,5.58,5.58,0,0,0,.47-.69l-.76-.41h0a200.13,200.13,0,0,0-10.89-28.7l-.77.37c.1.22,7.17,15.13,11,29.28-3.91,4.43-14.18.45-14.29.41l-.31.79a26.85,26.85,0,0,0,8.73,1.78,8.69,8.69,0,0,0,6.13-2c1.49,5.69,2.4,11.2,2.09,15.51l.85.06a31.81,31.81,0,0,0-.11-5.3,14.26,14.26,0,0,0,1.81.11,9.37,9.37,0,0,0,5.95-1.78,6.34,6.34,0,0,0,2.12-5.13h-.85A5.55,5.55,0,0,1,377.35,200.11Z"/></g><g class="cls-11"><rect class="cls-5" x="95.8" y="16.31" width="0.86" height="233.93"/></g><g class="cls-11"><rect class="cls-5" x="86.03" y="120.92" width="0.86" height="18.97"/></g><rect class="cls-1" x="59.45" y="98.5" width="25.87" height="9.77"/><g class="cls-13"><path class="cls-5" d="M63,176.3a.42.42,0,0,1-.31-.13.44.44,0,0,1,0-.61L79.1,159.81a.44.44,0,0,1,.61,0,.43.43,0,0,1,0,.61L63.34,176.18A.44.44,0,0,1,63,176.3Z"/></g><g class="cls-13"><path class="cls-5" d="M69.1,176.91a.43.43,0,0,1-.29-.75l6.66-6.06a.44.44,0,0,1,.61,0,.43.43,0,0,1,0,.61l-6.66,6.06A.48.48,0,0,1,69.1,176.91Z"/></g><g class="cls-13"><path class="cls-5" d="M211.47,115.12a.43.43,0,0,1-.29-.76l15.75-13.93a.43.43,0,0,1,.61,0,.42.42,0,0,1,0,.6L211.75,115A.43.43,0,0,1,211.47,115.12Z"/></g><g class="cls-13"><path class="cls-5" d="M221.76,112.09a.44.44,0,0,1-.29-.12.43.43,0,0,1,0-.6l6.66-7.27a.43.43,0,0,1,.61,0,.44.44,0,0,1,0,.61L222.08,112A.43.43,0,0,1,221.76,112.09Z"/></g><g class="cls-13"><path class="cls-5" d="M284.77,128.44a.42.42,0,0,1-.3-.12.43.43,0,0,1,0-.61l13.93-13.93a.43.43,0,0,1,.61,0,.42.42,0,0,1,0,.6l-13.93,13.94A.47.47,0,0,1,284.77,128.44Z"/></g><g class="cls-13"><path class="cls-5" d="M293.86,126.63a.45.45,0,0,1-.32-.14.43.43,0,0,1,0-.61l7.27-6.66a.43.43,0,1,1,.58.63l-7.27,6.66A.42.42,0,0,1,293.86,126.63Z"/></g><path class="cls-14" d="M256.91,69.41a1.48,1.48,0,0,0,2.08.36,1.51,1.51,0,0,0,.35-2.09,1.49,1.49,0,1,0-2.43,1.73"/><path class="cls-14" d="M250.79,68.3a2.36,2.36,0,0,0,3.3.56,2.4,2.4,0,0,0,.56-3.32,2.37,2.37,0,1,0-3.86,2.76"/><path class="cls-14" d="M242.32,69.34a3.34,3.34,0,1,0,.79-4.67,3.32,3.32,0,0,0-.79,4.67"/><path class="cls-14" d="M234.51,74.57a3.88,3.88,0,0,0,5.43.92,3.91,3.91,0,1,0-5.43-.92"/><path class="cls-14" d="M229,83.22a4.34,4.34,0,0,0,6.07,1,4.39,4.39,0,0,0,1-6.11,4.33,4.33,0,0,0-6.08-1,4.39,4.39,0,0,0-1,6.11"/><path class="cls-15" d="M245.94,106.48a1.5,1.5,0,0,0,.28,3,1.5,1.5,0,0,0-.28-3"/><path class="cls-15" d="M249.37,101.63a2.38,2.38,0,1,0,2.57,2.14,2.38,2.38,0,0,0-2.57-2.14"/><path class="cls-15" d="M252.48,94a3.34,3.34,0,1,0,3.63,3,3.34,3.34,0,0,0-3.63-3"/><path class="cls-15" d="M251.65,84.94a3.92,3.92,0,1,0,4.25,3.54,3.91,3.91,0,0,0-4.25-3.54"/><path class="cls-15" d="M247,75.81a4.38,4.38,0,1,0,4.75,4,4.38,4.38,0,0,0-4.75-4"/><path class="cls-16" d="M217.3,78.71a1.49,1.49,0,1,0-1.94.81,1.5,1.5,0,0,0,1.94-.81"/><path class="cls-16" d="M220,84a2.38,2.38,0,0,0-1.28-3.11,2.36,2.36,0,0,0-3.09,1.28A2.37,2.37,0,1,0,220,84"/><path class="cls-16" d="M225.23,90.39a3.36,3.36,0,0,0-1.8-4.38,3.31,3.31,0,0,0-4.35,1.8,3.33,3.33,0,1,0,6.15,2.58"/><path class="cls-16" d="M233.54,93.89a3.9,3.9,0,1,0-5.1,2.11,3.89,3.89,0,0,0,5.1-2.11"/><path class="cls-16" d="M243.76,94a4.36,4.36,0,1,0-5.7,2.37,4.39,4.39,0,0,0,5.7-2.37"/><path class="cls-17" d="M313.17,83.45a17,17,0,0,1,.49-3.14c.36-1.79,1.65-7.44,2.69-8.21,0,2.3-1.1,5.23-1.73,7.36-.16.56-.22.9-.41,1.4l-1,2.5-.05.09m-11.37.61c-.13-1.14.4-2.87,1.36-2.72a10.9,10.9,0,0,1-1.36,2.72m10.59-.45,0,0s-.05,0,0,0m-22,5.77a3.87,3.87,0,0,1,3.22-2.75c.29,1-2.13,3.12-3.22,2.75m50.93.82c.09-1.12,3.14-3.36,4.78-3.82-.84,2.29-4.41,5.4-4.78,3.82m-.64,17.38c0-1.81,1.68-4.36,2.42-5.61.94-1.37,2.34-3.57,3.34-4.84-.05,2.35-2.29,6.2-3.76,8.36a5.91,5.91,0,0,1-2,2.09M267.42,81.7a14.7,14.7,0,0,0,2,7.3c.56,1.07,2.59,4.46,2.62,5.54.07,2-2.18,3.45-4.54,2.12-.71-.4-.71-.52-1.34-.56.19,1.59,2.28,4.22,4.69,4.22,1.74,0,2.84-.41,4.54-2.15,5.55-5.68-4.21-13.89-1.88-19.06a7.22,7.22,0,0,1,3.92-3.46c2.37-1,3.9,1,3.83-1-.1-2.79-4.6-2.76-6.64-2a11.11,11.11,0,0,0-5.54,4.18,7.77,7.77,0,0,0-1.12,2.1,8.58,8.58,0,0,0-.57,2.78m51.86,1.48c1.3,1.85,3.3.38,3.3-1.09,0-1.07-.64-1.81-1.58-1.74-1.79.13-2.89,1.18-1.72,2.83m-28.45,2.47a9.93,9.93,0,0,0-3,3.4,7.32,7.32,0,0,0-.81,2.06c-.57,2.45.32,5.79,3,6.06h.19l.35,0c2.58.07,4.23-.82,6.09-2.68a5.54,5.54,0,0,0,.65-.71l1.82-2.12a46.79,46.79,0,0,0,3.25-5.23l.91.46c-.08.93-1.46,3.37-1.92,4.28-.72,1.43-1.41,3.31-.32,4.61a2.9,2.9,0,0,0,3.55.84,9.59,9.59,0,0,0,3.84-3.38,17,17,0,0,0,1.36,5.91c1.43,2.83,4.82,2.11,4.27.9a19.68,19.68,0,0,1-1.37-6.36,43.53,43.53,0,0,1,0-5c.1-1,1.66-3.55,2.36-5.2,1.69-4,3.1-7.45,3.52-11.94.07-.72-.5-2.7-2.48-2a7.33,7.33,0,0,0-1.88.7c-4.94,3.2-5.86,14.38-5.93,19.51a2.07,2.07,0,0,1-.12.83c-.27.69-2.95,4.36-4.28,5.06,0-.79,1.95-4.73,2.47-6,1.46-3.65-1-3.77-3.08-4.74,1.12-2.12,2.39-4,.72-5.41a2.51,2.51,0,0,0-1.85-.57c-2,.34-2.73,3.47-2.5,5.21.11.85.67,1.1,1.05,1.68-.22.94-2.07,3.37-2.69,4.12l-1.12,1.3a9.66,9.66,0,0,1-2.34,2.21c-1.54,1.06-4.24,1.37-4.74-.56a3.62,3.62,0,0,1-.15-1.08c3.53-.25,7.15-1.71,5.57-6-.65-1.76-3.24-1-4.43-.22m47.73,23.23c.21.94.86,1.07,1.87,1.22,1.2.17,3-1.25,3.78-2a15.18,15.18,0,0,0,3.71-5.53,14.85,14.85,0,0,0,.59-1.67c.46-1.58.86-6.24,1.05-6.65.76-1,3.52-2.88,4.52-4a3.54,3.54,0,0,0,1.16-2.72c-1.15.26-3.19,1.77-4.31,2.51a16.65,16.65,0,0,1-1.45,1c0-.88-.12-1.11-.16-1.81-.15-3.09.68-4.27-1.68-4.53C343.59,84.05,340,87,338.56,90c-.58,1.14-2.86,4.67-3.85,4.94,0-2.59,1.64-7.23-1-8.06-3-.94-4.33,1.32-5.61,3.24l-.06.1.19-2.08c.49-2.46.46-3-2.47-2.16-1.69.52-.72,2.57-1.82,4.07-.83,1.13-3.15,4.47-4.52,4.58a14.15,14.15,0,0,1,.58-4.12,22.65,22.65,0,0,0,.88-3.84c-.14-.57-3.07-3.66-4.64,2.36a10.86,10.86,0,0,0-.48,4c.55,4,4.77,4.19,7.48.76.25-.33.23-.4.58-.63a16.38,16.38,0,0,0-.16,2.28c.1,1,.65.68,1.42,1,.58.25,1,.8,1.58.16.22-.22,2.83-6.51,4.59-7.69,0,2.4-.36,3.31-.46,5.15a3.24,3.24,0,0,0,.49,2.39,2,2,0,0,0,2,.84c2.54,0,4.48-2.73,5.7-4.64,3.4,2.23,7.06-1.16,8-3.53,0,.83.17,3.3-.17,3.92-.47.87-2.5,3.07-3.25,4a32.35,32.35,0,0,0-3.1,5.14c-1.8,3.78-1.77,5.18-1.82,6.69m-54.44-9.09c.06-.58.13-2.57.22-3.18l1.52-11.34c.16-1.51.31-3.07.46-4.69,1.59-.08,2.53.33,3.76-1.41-.62-.28-1.47-.26-3.52-.26a35.07,35.07,0,0,0,.58-5.38c-1.23-.82-3.73-1.14-4.25.3a30.37,30.37,0,0,0-.82,4.93,15.55,15.55,0,0,0-3,.3c.27,1.19,1.59,1.37,2.73,1.37-.22,2.61-.63,5.4-.76,8.17l-.17,2.4a45.7,45.7,0,0,0,.16,6.12c.06,1.74,2.85,3.57,3.12,2.67"/><polygon class="cls-18" points="271.78 109.54 270.96 109.54 271.25 107.45 269.47 107.45 269.18 109.54 268.35 109.54 268.99 104.97 269.81 104.97 269.56 106.76 271.35 106.76 271.6 104.97 272.42 104.97 271.78 109.54"/><path class="cls-18" d="M276.15,108c-.17,1.23-.65,1.68-1.77,1.68s-1.58-.48-1.41-1.74.65-1.69,1.79-1.69,1.57.49,1.39,1.75m-2.34,0c-.12.82,0,1,.57,1s.83-.25.95-1.1,0-1-.57-1-.83.21-.95,1.11"/><path class="cls-18" d="M277.63,108.55c0,.27,0,.35.32.35h.29l0,.61a2.15,2.15,0,0,1-.68.1.72.72,0,0,1-.78-.9l.54-3.81h.79Z"/><path class="cls-18" d="M278.93,109.54l.46-3.25h.78l-.45,3.25Zm1.21-4.66a.2.2,0,0,1,.22.25l-.05.36c0,.15-.1.22-.25.22h-.36a.2.2,0,0,1-.22-.25l0-.36a.22.22,0,0,1,.25-.22Z"/><path class="cls-18" d="M283.73,109.54h-.63l0-.63a2,2,0,0,1-1.4.71c-.63,0-1-.41-.83-1.75s.75-1.67,1.48-1.67a7.44,7.44,0,0,1,1.05.09,4.44,4.44,0,0,1,.05-.62l.11-.77h.8Zm-1.74-.61a1.67,1.67,0,0,0,1.11-.61l.21-1.5h-.6c-.74,0-.88.11-1,1.08s-.06,1,.29,1"/><path class="cls-18" d="M288.16,106.39l-.44,3.15h-.63l0-.55a1.83,1.83,0,0,1-1.35.63c-.77,0-1.07-.43-.89-1.75.22-1.51.79-1.67,1.67-1.67a8.36,8.36,0,0,1,1.62.19m-1.07,1.9.21-1.44h-.59c-.75,0-.9.11-1,1.06s-.06,1,.29,1a1.58,1.58,0,0,0,1.12-.66"/><path class="cls-18" d="M292.2,106.29a10,10,0,0,1-.92,2.73c-.71,1.37-1.39,1.75-2.32,1.87l-.13-.54a2,2,0,0,0,1.33-.81h-.33a.38.38,0,0,1-.4-.32l-.59-2.93h.84l.42,2.55a.12.12,0,0,0,.12.11h.3l.09-.18a9.2,9.2,0,0,0,.76-2.48Z"/><path class="cls-18" d="M298.3,107.14c-.3,2.17-.93,2.47-2.45,2.47-.49,0-1.13,0-1.68-.06l.68-4.88c.48,0,1.21-.07,1.63-.07,1.55,0,2.08.61,1.82,2.54m-1.84-1.8h-.83l-.49,3.52h.7c1,0,1.31-.23,1.54-1.8s0-1.73-.92-1.73"/><path class="cls-18" d="M298.55,109.54l.45-3.25h.79l-.45,3.25Zm1.21-4.66a.2.2,0,0,1,.21.25l0,.36c0,.15-.1.22-.25.22h-.36a.2.2,0,0,1-.22-.25l0-.36a.22.22,0,0,1,.25-.22Z"/><path class="cls-18" d="M302.57,105.41c-.37,0-.51.08-.57.47l-.06.41h.94l-.08.59h-.95l-.42,3a1,1,0,0,1-1.09,1,6.05,6.05,0,0,1-.85-.06l.13-.57h.46c.37,0,.51-.08.58-.46l.4-2.87h-.57l.07-.55.57,0,.09-.54a1,1,0,0,1,1.09-1,8.35,8.35,0,0,1,1,.06l-.12.57Z"/><path class="cls-18" d="M305.23,105.41c-.37,0-.52.08-.58.47l-.06.41h1l-.08.59h-.95l-.42,3a1,1,0,0,1-1.09,1,6.18,6.18,0,0,1-.86-.06l.14-.57h.46c.36,0,.51-.08.58-.46l.4-2.87h-.58l.08-.55.57,0,.09-.54a1,1,0,0,1,1.09-1,8.78,8.78,0,0,1,1,.06l-.14.57Z"/><path class="cls-18" d="M309,107.28c-.09.66-.49.89-1.3.94l-1,.09c0,.55.29.65.73.65a10.52,10.52,0,0,0,1.21-.08l.05.53a4,4,0,0,1-1.37.21c-1.17,0-1.56-.6-1.41-1.79s.63-1.63,1.82-1.63,1.38.43,1.29,1.08m-1.39-.44c-.57,0-.76.17-.88.94l.92-.1c.36,0,.52-.12.57-.47s-.14-.37-.61-.37"/><path class="cls-18" d="M312,107h-.21a2.42,2.42,0,0,0-1.17.54l-.28,2h-.79l.45-3.24h.61V107a2.18,2.18,0,0,1,1.4-.78h.19Z"/><path class="cls-18" d="M315.61,107.28c-.09.66-.49.89-1.3.94l-1,.09c0,.55.29.65.73.65a10.52,10.52,0,0,0,1.21-.08l0,.53a4,4,0,0,1-1.37.21c-1.16,0-1.56-.6-1.41-1.79s.63-1.63,1.82-1.63,1.38.43,1.29,1.08m-1.39-.44c-.57,0-.76.17-.88.94l.92-.1c.36,0,.52-.12.57-.47s-.14-.37-.61-.37"/><path class="cls-18" d="M319.52,107.12l-.34,2.42h-.8l.3-2.2c.05-.37,0-.46-.24-.45a2.16,2.16,0,0,0-1.19.62l-.28,2h-.79l.45-3.25h.63V107a2.21,2.21,0,0,1,1.49-.76.72.72,0,0,1,.78.92"/><path class="cls-18" d="M321.41,108.55c0,.28,0,.35.31.35h.45l0,.6a3.26,3.26,0,0,1-.82.11c-.59,0-.87-.36-.79-1l.25-1.77h-.58l.07-.56.6,0,.13-.93h.79l-.13.93h.93l-.07.59h-.95Z"/><path class="cls-18" d="M323.91,108.55c0,.27,0,.35.32.35h.29l0,.61a2.13,2.13,0,0,1-.67.1.73.73,0,0,1-.79-.9l.54-3.81h.8Z"/><path class="cls-18" d="M328.47,106.29a10,10,0,0,1-.91,2.73c-.72,1.37-1.4,1.75-2.33,1.87l-.12-.54a2,2,0,0,0,1.32-.81h-.33a.39.39,0,0,1-.4-.32l-.58-2.93H326l.41,2.55a.13.13,0,0,0,.13.11h.3l.08-.18a8.85,8.85,0,0,0,.76-2.48Z"/><path class="cls-18" d="M329.58,108.63c.2,0,.3.1.25.3l0,.34a.26.26,0,0,1-.3.27h-.19c-.22,0-.3-.1-.28-.31l.05-.33a.28.28,0,0,1,.31-.27Zm.31-.52h-.63l.1-1.29.26-1.89h.79l-.26,1.89Z"/></g><path class="cls-19" d="M275.15,272.74h37.07a6.62,6.62,0,0,0,.73-2.22H275.56A6,6,0,0,0,275.15,272.74Z"/><path class="cls-20" d="M296.76,256.16l-14.25,10.15s-1.81,1-1.81,4.21h32.24s1.47-2.12,1.18-9.86C314.12,260.66,308.61,253.66,296.76,256.16Z"/><path class="cls-21" d="M272.27,272.74h37.07a6.94,6.94,0,0,0,.73-2.22,31.7,31.7,0,0,0,.45-7.64s-5.51-7-17.37-4.5l-18.64,9.8a5,5,0,0,0-1.83,2.34A5.79,5.79,0,0,0,272.27,272.74Z"/><path class="cls-22" d="M274.51,164.05s1.5,12.24,6.85,19.09l4.36,10.1,9.52,24.84,6.5,36.88s6.81,7.21,12.38,5.7c0,0-.81-29.49-4.67-41.71l-7.71-22.31-1.29-22.07.42-6.69c-1.36.08-3,.11-5,0l-.7-2.93a29.54,29.54,0,0,1-3-.17c-5.27-.43-9.65-.64-13.24-.73C277.28,164.05,275.82,164,274.51,164.05Z"/><path class="cls-23" d="M278.9,164.09c1.33,5.85,4.07,17.56,6.11,22.91,0,0,2.36,25.72,6.64,28.29a112.32,112.32,0,0,0,3.22,13.08s-.65,24.86-1.72,30c0,0,5.15,5.79,17.37,4.5l1-30s.54-16.72-1.18-25.08c0,0-1.93-20.58-4.28-34.73a55.93,55.93,0,0,0-.11-6c-1.48.51-4.42,1.06-10.05.88l-.7-2.93a29.54,29.54,0,0,1-3-.17C286.87,164.39,282.49,164.18,278.9,164.09Z"/><path class="cls-24" d="M272.27,272.74h37.07a6.94,6.94,0,0,0,.73-2.22H272.68A5.79,5.79,0,0,0,272.27,272.74Z"/><path class="cls-25" d="M301.27,133.31c5.93,9.48,11,4.51,11,4.51.48-6.13,3.69-15.77,3.69-15.77,9.81-21.24,7.56-24.07,7.56-24.07h0C314.62,90.65,306,108,306,108,301.13,119.33,301.27,133.31,301.27,133.31Z"/><path class="cls-26" d="M301.27,133.31s-.14-14,4.68-25.33c0,0,8.67-17.33,17.52-10-.14-.31-2.7-5.24-17-11.63,0,0-10.29-.86-15.6,28.12C290.83,114.46,292.73,122.05,301.27,133.31Z"/><path class="cls-25" d="M305.45,86.45S301.27,75.6,289.7,73.92l-.6,2.65s12.19-1.49,14.76,14.27A10.64,10.64,0,0,0,305.45,86.45Z"/><path class="cls-19" d="M287.92,119.46l2.66,14.06,1.42,18,1.08,4.61.38,1.62,1.15,4.88.55,2.35.7,2.93,1.32,0c1.42,0,2.64,0,3.69-.07a27.81,27.81,0,0,0,3.53-.43,10.73,10.73,0,0,0,1.51-.41,3.43,3.43,0,0,0,1.39-.72,38.15,38.15,0,0,1,.54-4.07c.13-.71.27-1.4.42-2,.5-2.23,1-3.86,1-3.86.81-5.53-2.62-22.19-2.62-22.19,1.22-6.11-.63-9-.63-9a35.65,35.65,0,0,0-.28-14.47c2.25-15.43-9.84-24.12-9.84-24.12-3.67-3.51-7.94,1.93-7.94,1.93C281.39,95.58,287.92,119.46,287.92,119.46Z"/><rect class="cls-27" x="352.58" y="261.9" width="33.68" height="5.01"/><path class="cls-27" d="M384.18,260.19h2.09v1.71a6.3,6.3,0,0,1,.56,2.68,6.37,6.37,0,0,1-.56,2.68V269h-2.09c-1.47,0-2.66-2-2.66-4.39S382.71,260.19,384.18,260.19Z"/><path class="cls-28" d="M383.61,264.58c0,2.42,1.19,4.39,2.66,4.39s2.65-2,2.65-4.39-1.18-4.39-2.65-4.39S383.61,262.15,383.61,264.58Z"/><path class="cls-27" d="M384.86,264.58c0,1.29.63,2.33,1.41,2.33s1.41-1,1.41-2.33-.63-2.34-1.41-2.34S384.86,263.29,384.86,264.58Z"/><path class="cls-27" d="M350.49,260.19h2.09v1.71a6.3,6.3,0,0,1,.57,2.68,6.37,6.37,0,0,1-.57,2.68V269h-2.09c-1.46,0-2.65-2-2.65-4.39S349,260.19,350.49,260.19Z"/><path class="cls-28" d="M349.93,264.58c0,2.42,1.19,4.39,2.65,4.39s2.66-2,2.66-4.39-1.19-4.39-2.66-4.39S349.93,262.15,349.93,264.58Z"/><path class="cls-27" d="M351.17,264.58c0,1.29.63,2.33,1.41,2.33s1.41-1,1.41-2.33-.63-2.34-1.41-2.34S351.17,263.29,351.17,264.58Z"/><path class="cls-29" d="M359.39,193l-14.15,20.58,36.87,49.49,14.58-21.62S391.55,211,359.39,193Z"/><path class="cls-30" d="M308.6,213.58h36.64L359.39,193c-22.54-7.34-44.27,3.75-44.27,3.75S307.55,213.17,308.6,213.58Z"/><polygon class="cls-29" points="319.2 207.15 339.03 207.15 335.23 213.58 315.41 213.58 319.2 207.15"/><polygon class="cls-31" points="308.6 213.58 346.78 263.06 382.12 263.06 345.25 213.58 308.6 213.58"/><polygon class="cls-30" points="335.23 213.58 340.88 222.4 321.43 222.17 315.41 213.58 335.23 213.58"/><path class="cls-25" d="M335.57,221.59a.8.8,0,0,0,.47-.15.81.81,0,0,0,.21-1.14l-28.52-40.85a.82.82,0,1,0-1.34.94l28.51,40.85A.81.81,0,0,0,335.57,221.59Z"/><path class="cls-25" d="M323.86,221.59a.84.84,0,0,0,.47-.15.82.82,0,0,0,.2-1.14l-28.35-40.85a.82.82,0,1,0-1.35.94l28.35,40.85A.83.83,0,0,0,323.86,221.59Z"/><path class="cls-32" d="M258.31,159.6a4.9,4.9,0,0,1,1.4-.46c1.64-.3,3.22-.68,4.79-1.12.31-6.39.87-14,.87-14,.41-5.91,2.67-15.5,4.58-22.86.11-2.39.22-4.65.38-6.79-1.24.89-2.63-5.48-2.26-13.57a17.71,17.71,0,0,1-3.6-1,42.21,42.21,0,0,0-.25,5.67c0,3.92-.81,7-1.56,10.69-1.35,6.71-3.09,13.36-3.86,20.19-.57,5.06-.54,10-.79,15.22C257.9,153.48,258.29,156.66,258.31,159.6Z"/><path class="cls-33" d="M271,69.9a26.82,26.82,0,0,0,2.78-.18s.8,0,2.07-.18c3.46-.39,10.49-1.61,14.71-5.24a10.91,10.91,0,0,0,2.19-2.52s3.56-5.57,3-11a9,9,0,0,0-4-6.81s-11.45-8.81-19.9,2.81c-.41.57-.81,1.17-1.21,1.84A64.67,64.67,0,0,0,267,57.17a54.18,54.18,0,0,0-2.49,9.45S263.4,70.08,271,69.9Z"/><path class="cls-33" d="M267,57.17c1.18,3,2.69,6.46,4.9,8.82a32,32,0,0,0,4,3.55c3.46-.39,10.49-1.61,14.71-5.24a10.91,10.91,0,0,0,2.19-2.52s3.56-5.57,3-11c-.09,1.95-.8,3.54-3,2.73-1.24-.46-1.85-2-2.89-2.8a3.58,3.58,0,0,0-3.09-.72c-2,.33-3.3,1.67-5.59,1.51-3.6-.23-5.31-4.33-8.9-4.69l-.45,0c-.41.57-.81,1.17-1.21,1.84A64.67,64.67,0,0,0,267,57.17Z"/><path class="cls-34" d="M271,69.91c.82,0,1.75-.08,2.78-.2l.41,0c1.72-.12,8.55-.74,13.71-3.57a7,7,0,0,1-2.91-.77c2-6.2,0-7.15,0-7.15-3.7-2.73-5.66,2.34-5.66,2.34l-2.82-.9,1.2-5.61a5.76,5.76,0,0,1,0-7.13,15.46,15.46,0,0,1-3.48-2.81,20.38,20.38,0,0,0-3.55,4.52,62.81,62.81,0,0,0-3.42,7.74,55.09,55.09,0,0,0-2.78,10.26S263.4,70.08,271,69.91Z"/><path class="cls-34" d="M271,69.91a14.25,14.25,0,0,1,2.44,1.88,11.84,11.84,0,0,1,3.63,5.93,108.52,108.52,0,0,1,11.47-8c-.33-.35-.66-1.54,2-5.47a21.59,21.59,0,0,1-8.08,4,42.48,42.48,0,0,1-8.7,1.45,26.82,26.82,0,0,1-2.78.18Z"/><path class="cls-35" d="M275,79.37a15.9,15.9,0,0,0,.22,2.12,30.22,30.22,0,0,0,.67,3c.23.86.49,1.69.74,2.41.61,1.77,1.13,3,1.13,3a22.31,22.31,0,0,1,3.73-5.47A126.82,126.82,0,0,1,292,73.92l-1.42-5.09a14.62,14.62,0,0,0-2,1,108.52,108.52,0,0,0-11.47,8C275.79,78.72,275,79.37,275,79.37Z"/><path class="cls-36" d="M264.36,164.82s2.67-.7,10.15-.77c1.31,0,2.77,0,4.39,0,3.59.09,8,.3,13.24.73a29.54,29.54,0,0,0,3,.17l-.55-2.35-1.15-4.88-.38-1.62L292,151.53l-1.42-18-2.66-14.06s-6.53-23.88,0-31c0,0,4.27-5.44,7.94-1.93,0,0,12.09,8.69,9.84,24.12a35.65,35.65,0,0,1,.28,14.47s1.85,2.89.63,9c0,0,3.43,16.66,2.62,22.19,0,0-.47,1.63-1,3.86-.15.64-.29,1.33-.42,2a11,11,0,0,0,3.64-3.39l-2.9-44.07s-1.75-22.11-3.06-24.29A33.56,33.56,0,0,0,292,73.92a126.82,126.82,0,0,0-10.54,10.53,22.31,22.31,0,0,0-3.73,5.47s-2.14,11.14-4.43,19.24c-.17.59-.34,1.16-.51,1.7,0,0-1.31,4.43-2.84,10.31-1.91,7.36-4.17,17-4.58,22.86,0,0-.56,7.6-.87,14C264.38,160.73,264.32,163.22,264.36,164.82Z"/><path class="cls-36" d="M287.92,119.46l2.66,14.06,1.42,18,2.61,11.11c6.17.41,13.41-1.94,13.65-2.43.5-2.23,1-3.86,1-3.86.81-5.53-2.62-22.19-2.62-22.19,1.22-6.11-.63-9-.63-9a35.65,35.65,0,0,0-.28-14.47c2.25-15.43-9.84-24.12-9.84-24.12-3.67-3.51-7.94,1.93-7.94,1.93C281.39,95.58,287.92,119.46,287.92,119.46Z"/><path class="cls-37" d="M262.13,97.83s-.09,1,2.34,2a17.71,17.71,0,0,0,3.6,1l.49.08a10.35,10.35,0,0,0,3.37-1,88.14,88.14,0,0,1,2.47-11.27,10.41,10.41,0,0,0-1.5-3.28,27.74,27.74,0,0,1-4.58,12.08c-.49.74-.81,1.16-.81,1.16a7.41,7.41,0,0,1-2.81-.07A16.32,16.32,0,0,1,262.13,97.83Z"/><path class="cls-24" d="M270,121.17c1.53-5.88,2.84-10.31,2.84-10.31.17-.54.34-1.11.51-1.7,2.29-8.1,4.43-19.24,4.43-19.24s-.52-1.22-1.13-3c-.25-.72-.51-1.55-.74-2.41a40.79,40.79,0,0,0-1.46,4.15,88.14,88.14,0,0,0-2.47,11.27c-.22,1.33-.42,2.78-.63,4.31-.38,3-.72,6.36-1,10.13C270.17,116.52,270.06,118.78,270,121.17Z"/><path class="cls-25" d="M270.33,114.38c.25-3.77.59-7.14,1-10.13.21-1.53.41-3,.63-4.31a88.14,88.14,0,0,1,2.47-11.27,40.79,40.79,0,0,1,1.46-4.15,30.22,30.22,0,0,1-.67-3c-4,4.17-6.27,11.64-6.27,11.64-.2,1.12-.37,2.24-.5,3.35C267.23,106.47,268.87,115.42,270.33,114.38Z"/><path class="cls-34" d="M262.13,97.83s3.22,1.28,5.38.8c0,0,4.75-6.06,5.39-13.24,0,0-3.69-.69-6,0A18.53,18.53,0,0,0,262.13,97.83Z"/><path class="cls-25" d="M270.56,62l-.05-.07,2-4.09,0-.09h9.92v4A8.34,8.34,0,0,1,277,66.09a3.36,3.36,0,0,1-.63.06h0C273.25,66.15,270.67,62.18,270.56,62Zm11.62-3.93h-9.4l-1.9,3.83c.38.55,2.78,3.91,5.47,3.91a2.75,2.75,0,0,0,.57,0,7.91,7.91,0,0,0,5.26-4.15Z"/><path class="cls-24" d="M271,69.91c.82,0,1.75-.08,2.78-.2l.41,0L277,65.93c-2.14-.88-3.32-4.09-3.83-6.12-.11-.43-.11-.88-.25-1.29-.36-1,.07-.44-.77-.89a19.67,19.67,0,0,0-4.37-1.15l-.45-.13a55.09,55.09,0,0,0-2.78,10.26S263.4,70.08,271,69.91Z"/><path class="cls-34" d="M280.47,59.4c.26-1,.36-3.24,1.46-3.8s2.41.93,2.74,1.93a5.57,5.57,0,0,1-.12,3.08c-.45,1.58-1.89,4.06-3.86,2.92C279.12,62.63,280.16,60.65,280.47,59.4Z"/><polygon class="cls-38" points="308.6 178.43 294.61 177.39 293.91 179.1 294.61 180.37 308.6 181.4 307.96 179.73 308.6 178.43"/><polygon class="cls-39" points="308.6 181.4 309.46 180.6 308.6 178.43 307.96 179.73 308.6 181.4"/><path class="cls-34" d="M296.58,175.86a6.68,6.68,0,0,0,4.29,6.93c1.17.5,4.26,1.23,5-.42.32-.68-.4-1.74-.62-2.34-.27-.78-.34-1.66-.54-2.46-.77-3.12-.39-6.7-.33-10.12a27.81,27.81,0,0,1-3.53.43c-1.05.07-2.27.1-3.69.07a13.52,13.52,0,0,0-.27,3.19C296.86,172.75,296.65,174.25,296.58,175.86Z"/><path class="cls-40" d="M378.89,217.9a76,76,0,0,0-13-13.43l-2.6-1.92c-.79-.53-1.51-.92-2.08-1.27a7.67,7.67,0,0,0-1.86-.94,7.08,7.08,0,0,0,1.62,1.31c.53.4,1.21.84,1.95,1.41l2.47,2A90.17,90.17,0,0,1,378,218.59,158.62,158.62,0,0,1,388.28,234c2.41,4.08,3.77,6.69,3.91,6.62s-1-2.8-3.22-7A117.89,117.89,0,0,0,378.89,217.9Z"/><path class="cls-40" d="M376.22,220.58a76.35,76.35,0,0,0-13-13.43l-2.6-1.92c-.79-.53-1.51-.92-2.08-1.27a7.22,7.22,0,0,0-1.86-.94,7.76,7.76,0,0,0,1.62,1.31c.53.4,1.21.84,1.95,1.41l2.47,2a90.17,90.17,0,0,1,12.57,13.5,159.88,159.88,0,0,1,10.28,15.37c2.41,4.09,3.77,6.7,3.91,6.63s-1-2.8-3.21-7A120.62,120.62,0,0,0,376.22,220.58Z"/><path class="cls-40" d="M373.54,223.26a76,76,0,0,0-13-13.43l-2.6-1.92c-.79-.53-1.51-.92-2.08-1.27a7.47,7.47,0,0,0-1.85-.94,7.16,7.16,0,0,0,1.61,1.31c.53.4,1.21.84,2,1.41l2.47,2A89.68,89.68,0,0,1,372.64,224a158,158,0,0,1,10.28,15.37c2.41,4.09,3.77,6.7,3.91,6.63s-1-2.81-3.21-7A120.62,120.62,0,0,0,373.54,223.26Z"/><path class="cls-37" d="M271,69.91a14.25,14.25,0,0,1,2.44,1.88c6.19-1,9.05-3.52,9.05-3.52a42.48,42.48,0,0,1-8.7,1.45,26.82,26.82,0,0,1-2.78.18Z"/><path class="cls-26" d="M138.2,260.05s-1.58,8,0,14.06h38.44s1.26-3.79-2.72-7l-19.26-7Z"/><path class="cls-34" d="M151.39,60.47a11.84,11.84,0,0,0,1.78,2.5v5.21l15.39,8.68v-6.2s4,3.73,7.2,0c0,0,3.87-13.18,2.21-23.35-.94-5.78-3.67-10.58-9.91-11.43,0,0-17.89-2.74-19.11,13.43C149,49.31,148.77,55.65,151.39,60.47Z"/><path class="cls-26" d="M151.39,60.47c1.87,1.49,4.15,2.1,6.42.59,1.51-1,1.6-3.16,2.65-4.5,1.16-1.52,3.17-1.84,4.51-3.08s1.52-2.85,2.53-4c1.45-1.67,2.78-1.12,5.11-1.25a17.3,17.3,0,0,0,5.36-.92c-.94-5.78-3.67-10.58-9.91-11.43,0,0-17.89-2.74-19.11,13.43C149,49.31,148.77,55.65,151.39,60.47Z"/><path class="cls-24" d="M139.2,177.08s8.28,83.29,8.28,84.55,5.59,3.79,16.46,0l13.63-84.13s8-51.75,1.34-76.3a37.7,37.7,0,0,0-1.34-4,67.55,67.55,0,0,0-2.2-7.78c-2.52-7.36-7.37-17.61-15.27-20,0,0-8-7.33-16.82,7.47,0,0-7.15,6.83-2.52,31.22,0,0,1.5,29.46-1.56,41.65A105.37,105.37,0,0,0,139.2,177.08Z"/><path class="cls-41" d="M147.49,261.63c-6.31.84-9.29-1.58-9.29-1.58l1-83S147.49,260.37,147.49,261.63Z"/><path class="cls-35" d="M147.49,261.63s-1.59,8,0,14.06h38.43s1.26-3.79-2.72-7l-19.26-7Z"/><path class="cls-24" d="M149.66,69.43l20.91,9.35s3.07-1.48,6.09-7.15c-5.87-2.5-13-8.11-13-8.11-2.32-8.08,0-16,1-18.69,6.22-2.09,13-1.3,17.72-.23.05-2.12.06-4.37,0-6.74,0,0-15.17-9.86-35.17-1.34C147.23,36.52,144,53.43,149.66,69.43Z"/><path class="cls-41" d="M182.39,37.85c-22.66,1.5-35.16-1.33-35.16-1.33C167.22,28,182.39,37.85,182.39,37.85Z"/><g class="cls-7"><path class="cls-24" d="M163.66,63.52s7.13,5.61,13,8.11c2.68-5,5.34-13.41,5.73-27-4.69-1.07-11.5-1.86-17.72.23C163.68,47.55,161.34,55.44,163.66,63.52Z"/></g><path class="cls-41" d="M154.54,90.31s7,11,24.37,10.89a37.7,37.7,0,0,0-1.34-4,67.55,67.55,0,0,0-2.2-7.78Z"/><path class="cls-42" d="M237,59.48a10.83,10.83,0,0,1,3.47-2.62c.11,0,2.74.27,2.74.27l.62,2.19-1.36,1.59-2.87.22Z"/><path class="cls-24" d="M241.82,74.15c4.15,0,2.83-2.51,2.83-2.51C245,67.7,248,58.38,248,58.38c1.23-3,3.28-3.46,3.62-3.51-.68,0-8.14.32-12.61,2.64a2,2,0,0,1,.9,1.89l-1,12.16C238.59,74.64,241.82,74.15,241.82,74.15Z"/><path class="cls-42" d="M229.47,76.24l9.78-2.7,3.81-1.34,3-1c2.35-1.73.52-2.84.52-2.84,3.14-1.85,1.17-3.29,1.17-3.29,2.79-2.24.57-4,.57-4a2.32,2.32,0,0,0-1-3.56,15.46,15.46,0,0,0-4.86.47,48.51,48.51,0,0,0-5.15,1.47c-2.63.9-7.74,6.53-7.74,6.53l-5,2.82C224.68,75.61,229.47,76.24,229.47,76.24Z"/><path class="cls-43" d="M229.46,76.21l9.79-2.7,3.8-1.34c2.25-2.2.4-3.57.4-3.57a2.06,2.06,0,0,0,.1-3.28,2.76,2.76,0,0,0-.21-3.82c1.25-2.81-.63-3.67-.9-3.61h0a52.39,52.39,0,0,0-5.15,1.47c-2.62.9-7.74,6.53-7.74,6.53l-4.95,2.83C224.68,75.58,229.46,76.21,229.46,76.21Z"/><path class="cls-24" d="M238.1,57.09a.9.9,0,0,0,1,.42c3.67-1.91,9.36-2.45,11.65-2.59l1-.05h.05c3.07-2.72.4-6.42.4-6.42l-1.1,0-9.47.19a3.51,3.51,0,0,0-1.77.44h0a1.75,1.75,0,0,0-.87,1.32l-1,5.19A2.72,2.72,0,0,0,238.1,57.09Z"/><path class="cls-43" d="M238.1,57.09a2.26,2.26,0,0,0,1.92-.92l1.24-5.68c.23-1.26-.7-1.45-1.49-1.39h0a1.82,1.82,0,0,0-.86,1.2.94.94,0,0,0,0,.12l-1,5.19c0,.16,0,.31,0,.45v0A2,2,0,0,0,238.1,57.09Z"/><path class="cls-44" d="M237.86,56.07v0a.91.91,0,0,0,.09.22,1.83,1.83,0,0,0,1.53-.74l1-4.49c.18-1-.56-1.16-1.18-1.11h0a1.39,1.39,0,0,0-.38.33.94.94,0,0,0,0,.12l-1,5.19C237.86,55.78,237.86,55.93,237.86,56.07Z"/><path class="cls-44" d="M250.7,54.92l1-.05h.05c3.07-2.72.4-6.42.4-6.42l-1.1,0S253.52,52.43,250.7,54.92Z"/><path class="cls-43" d="M243.19,51.38l7-.33c0-.57-.17-1.3-.51-1.3l-4.93.09S243.75,49.61,243.19,51.38Z"/><path class="cls-44" d="M244.07,54.14l5.28-1.28a1.14,1.14,0,0,0,.85-1.18s0-.29,0-.63l-7,.33a7.9,7.9,0,0,0-.23,1S242.5,54.51,244.07,54.14Z"/><path class="cls-24" d="M169.08,76l33.67-.71L229.1,64.77l6.23,11.17L205.62,92s-23.92,4.39-42.28,2.3c0,0-12.75-1.87-11.29-11.2C152.05,83.06,152.52,76,169.08,76Z"/><rect class="cls-40" x="223.22" y="143.14" width="22.21" height="10.86" rx="4.11"/><rect class="cls-25" x="193.18" y="148.65" width="55.49" height="120.01"/><rect class="cls-35" x="193.18" y="268.66" width="49.95" height="4.08"/><rect class="cls-40" x="193.18" y="241.18" width="55.49" height="9.55"/></svg>