<svg xmlns="http://www.w3.org/2000/svg" xmlns:xlink="http://www.w3.org/1999/xlink" viewBox="0 0 487 381"><defs><style>.cls-1{isolation:isolate;}.cls-2{fill:#ec5039;}.cls-2,.cls-4{opacity:0.1;}.cls-3{fill:#f5f5f5;}.cls-4{fill:#231f20;}.cls-15,.cls-4{mix-blend-mode:multiply;}.cls-5{fill:#6c0b7a;}.cls-6{fill:#7e298a;}.cls-50,.cls-7{fill:#fff;}.cls-8{fill:#f0a12c;}.cls-9{fill:#d5d6d5;}.cls-10{fill:#e85a43;}.cls-11{fill:#47270f;}.cls-12{fill:#af2024;}.cls-13{fill:#408f42;}.cls-14{fill:url(#radial-gradient);}.cls-15{fill:#4a9744;}.cls-15,.cls-28{opacity:0.3;}.cls-16{fill:#fff4de;}.cls-17{fill:#f6bc39;}.cls-18{fill:#260e0b;}.cls-19{fill:#121515;}.cls-20{fill:#b88a75;}.cls-21{fill:#212428;}.cls-22{fill:#e0e5f0;}.cls-23{fill:#dcaf9c;}.cls-24{fill:#143d66;}.cls-25{fill:#0d0e0e;}.cls-26{fill:#e8ad92;}.cls-27{fill:#f9b7a1;}.cls-29{fill:#eeefef;}.cls-30{fill:#643216;}.cls-31{fill:#542b14;}.cls-32{fill:#9d5024;}.cls-33{fill:#fcc20e;}.cls-34{fill:#acbdcd;}.cls-35{fill:#0b2f4b;}.cls-36{fill:#e8ebed;}.cls-37{fill:#d0dbe5;}.cls-38{fill:#f6f8fc;}.cls-39{fill:#c7d5e2;}.cls-40{fill:#d9dad8;}.cls-41{fill:#f3f4f1;}.cls-42{fill:#ec9e21;}.cls-43{fill:#d39229;}.cls-44{fill:#9a6c29;}.cls-45{fill:#e2e2e2;}.cls-46{fill:#131416;}.cls-47{fill:#202226;}.cls-48{fill:#edf0f3;}.cls-49{fill:#f4f5f5;}.cls-50{mix-blend-mode:screen;}.cls-51{fill:url(#radial-gradient-2);}.cls-52{fill:#971c1f;}.cls-53{fill:#5e0d12;}.cls-54{fill:#88181b;}.cls-55{fill:#203e79;}.cls-56{fill:url(#linear-gradient);}.cls-57{fill:url(#linear-gradient-2);}.cls-58{fill:#f47b45;}.cls-59{fill:#f89c70;}.cls-60{fill:#853838;}</style><radialGradient id="radial-gradient" cx="2507.01" cy="2021.02" r="22.15" gradientTransform="translate(-1641.54 -2285.44) rotate(11.5)" gradientUnits="userSpaceOnUse"><stop offset="0" stop-color="#a0cc3a"/><stop offset="1" stop-color="#2c6833"/></radialGradient><radialGradient id="radial-gradient-2" cx="2347.42" cy="2151.47" r="22.15" xlink:href="#radial-gradient"/><linearGradient id="linear-gradient" x1="18808.65" y1="279.68" x2="18800.33" y2="344.42" gradientTransform="matrix(-1, 0, 0, 1, 19158.6, 0)" gradientUnits="userSpaceOnUse"><stop offset="0" stop-color="#615eaa"/><stop offset="1" stop-color="#38c6f4"/></linearGradient><linearGradient id="linear-gradient-2" x1="18804.36" y1="311.04" x2="18825.58" y2="311.04" xlink:href="#linear-gradient"/></defs><g class="cls-1"><g id="Layer_1" data-name="Layer 1"><circle class="cls-2" cx="37.96" cy="306.73" r="16.8"/><ellipse id="Floor" class="cls-3" cx="269.98" cy="255.92" rx="195.85" ry="113.08"/><path class="cls-4" d="M423.85,201c-32.51-16.72-107.16-.9-166.72,35.32s-81.51,79.15-49,95.87c18.73,9.63,51.44,8.45,87.18-1.19.43,5.73,4.39,11.39,12,15.77,16.08,9.28,42.14,9.28,58.22,0s16.08-24.33,0-33.61a48.57,48.57,0,0,0-11.61-4.69c7.13-3.59,14.15-7.45,21-11.6C434.43,260.66,456.36,217.74,423.85,201Z"/><path class="cls-5" d="M209.52,24.22c-54,32.29-96.88,109.24-95.75,171.86.57,31,11.81,52.67,29.57,62.74l33.76,16.39c12-1.16,22.79-16,36.53-24.24,54-32.29,96.89-109.23,95.75-171.85C309,59.3,314,41.19,306,29.59L268.86,11.87C252.21,7.3,231.65,11,209.52,24.22"/><path class="cls-6" d="M234.82,36.87c-54,32.3-96.88,109.24-95.75,171.86s45.84,87.2,99.86,54.89,96.88-109.24,95.75-171.85-45.85-87.2-99.86-54.9"/><path class="cls-5" d="M234.94,240.25c42.88-25.63,76.91-86.72,76-136.43-.53-29.53-13.32-48.29-32.57-53.38C302,52,318.34,71.68,319,105.14c.9,49.71-33.14,110.8-76,136.44-17.42,10.41-33.55,13.27-46.71,9.78,11.49.75,24.69-2.72,38.72-11.11"/><path class="cls-7" d="M231.68,60.23c17.41-10.41,33.55-13.26,46.7-9.79,19.25,5.09,32,23.85,32.57,53.37.9,49.72-33.13,110.81-76,136.45-14,8.38-27.22,11.86-38.71,11.1-23.65-1.54-40-21.24-40.56-54.69-.9-49.71,33.14-110.8,76-136.44"/><path class="cls-8" d="M236.52,73.34a13,13,0,0,0-5.75,10.31c.07,3.75,2.75,5.23,6,3.29a13,13,0,0,0,5.75-10.31c-.07-3.76-2.75-5.23-6-3.29"/><path class="cls-8" d="M239.06,213.49a13,13,0,0,0-5.75,10.32c.07,3.75,2.75,5.22,6,3.28a13,13,0,0,0,5.75-10.3c-.07-3.76-2.75-5.24-6-3.3"/><path class="cls-8" d="M177.34,179.55a13,13,0,0,0-5.74,10.32c.07,3.76,2.74,5.23,6,3.3a13,13,0,0,0,5.73-10.32c-.06-3.75-2.74-5.24-6-3.3"/><path class="cls-9" d="M237.64,91.19a8.17,8.17,0,0,0-3.58,6.42l.1,57.48c0,1.12,2.43-.49,3.16-.09,0,0,50.91-6.68,51.61-7.92,1.39-2.49,1.41-10.54-1.74-8.67l-44.68,5.7-1.14-50.86c0-2.31-1.72-3.25-3.73-2.06"/><path class="cls-10" d="M237.54,140.43c-4.69,2.81-8.39,9.46-8.3,14.89s4,7.53,8.65,4.73,8.39-9.46,8.29-14.86-4-7.55-8.64-4.76"/><path class="cls-6" d="M430.87,208.18c8.63,5.2,8.33,13.48-.66,18.49s-23.29,4.88-31.92-.32-8.34-13.47.66-18.49S422.23,203,430.87,208.18Z"/><path class="cls-11" d="M414.51,227.65c-5.62,0-11-1.32-14.83-3.61-3.25-1.95-5-4.37-5-6.81s2.07-5.07,5.56-7a30,30,0,0,1,14.39-3.33c5.61,0,11,1.31,14.83,3.61,3.25,1.95,5,4.37,5,6.81s-2.07,5.06-5.57,7A30,30,0,0,1,414.51,227.65Z"/><path class="cls-12" d="M403.07,236.24c-.76-.47-1.74-1.15-2.45-1.7A17.07,17.07,0,0,1,399,233.1a30.25,30.25,0,0,1-2.14-2.38,25.4,25.4,0,0,1-1.73-2.55,20.42,20.42,0,0,1-1.25-2.47c-.39-1-.83-2.28-1.12-3.27a21.48,21.48,0,0,1-.53-2.63c-.1-.64-.17-1.49-.2-2.13.15,3.14,2.23,6.25,6.28,8.68,8.63,5.2,22.92,5.34,31.92.32,4.47-2.49,6.8-5.8,6.94-9.13a15.43,15.43,0,0,1-.15,1.79c-.06.53-.16,1.23-.27,1.75-.18.8-.46,1.87-.7,2.66a15.75,15.75,0,0,1-.6,1.62c-.3.72-.76,1.66-1.13,2.35-.23.44-.58,1-.86,1.43a22.41,22.41,0,0,1-2.68,3.37,23,23,0,0,1-5.33,4.11c-.35.2-.83.45-1.2.62s-1,.46-1.41.62c-.66.26-1.56.55-2.23.77-.35.1-.81.21-1.16.29l-1.05.21-1.05.15c-.92.12-1.67.15-2,.16a19.22,19.22,0,0,1-2,0,20.09,20.09,0,0,1-2-.2l-1-.17-1.06-.24c-.34-.08-.79-.21-1.12-.31s-.79-.25-1.13-.37-.89-.35-1.27-.51l-1.2-.56A16.39,16.39,0,0,1,403.07,236.24Z"/><path class="cls-13" d="M438.2,208.2c-.07-1-1.18-1.58-2-2.2a18.35,18.35,0,0,0,0-2.57,9.81,9.81,0,0,0,1.11-2.22c.15-1-.59-1.55-1.43-1.84a1.57,1.57,0,0,0-1.37-2.39q-.37-.81-.81-1.59a3.32,3.32,0,0,0-1.11-1.76c-.25-.35-.5-.7-.76-1a2.22,2.22,0,0,0-1.3-2.58c-1.38-.75-2.39-1-3.25-2.48a5.6,5.6,0,0,0-2-2.29c-1-.63-2,.47-3,.31l-.57-.21-.07,0a13.93,13.93,0,0,0-3.24-2c-1.23-.43-2.26,1-3.53.45-.83-.33-1.07-1.66-2.05-1.76a4,4,0,0,0-2.69.58c-.51.39-.9.74-1.42,1.16-1.28,1.05-1.83-.24-2.83-.3-2.78-.17-4.17,3.16-6,4.72l-.14.1c-.85.64-2,.53-2.48,1.65-.21.46-.42.87-.64,1.26a18.94,18.94,0,0,0-1.79,2.4l-.45.45a4.47,4.47,0,0,0-1.57,3.88c-.18.55-.33,1.13-.46,1.7a2.06,2.06,0,0,0-2.22,1.48c-.46,1.17.38,2.25,1.31,2.93a10.33,10.33,0,0,0-.92,2.51.36.36,0,0,0,.27.42c1,.34,1.25.07,1,.86a6.14,6.14,0,0,0-.26,2.48,1.48,1.48,0,0,0,1.55,1.33c-.15,2-.19,4.59,2.14,4,0,.92-.06,2.14.57,2.72s1.71,0,2,1c.77,2.41,2.09,3.32,3.89,1.87,1,2,2.52,3.84,4.49,2.42.82,1.48,1.78,1.76,3.63,1.11,1.67-.59,2.79,1.49,4.48,1.38a5.18,5.18,0,0,0,2.83-1.26l.49-.05a2.48,2.48,0,0,0,2.91-.07,7.63,7.63,0,0,1,4.25-1,2.88,2.88,0,0,0,2.26-1.07c.76-.87,0-1.62,1.77-1.85a6.85,6.85,0,0,0,2.54-1.1A1.78,1.78,0,0,0,432,217a2.56,2.56,0,0,0,.2-.26c2-.87,4.3-2.66,3.32-4,1-.63,1.57-1.43,1-2.53C437.43,209.75,438.27,209.18,438.2,208.2Z"/><path class="cls-14" d="M438.2,208.2c-.07-1-1.18-1.58-2-2.2a18.35,18.35,0,0,0,0-2.57,9.81,9.81,0,0,0,1.11-2.22c.15-1-.59-1.55-1.43-1.84a1.57,1.57,0,0,0-1.37-2.39q-.37-.81-.81-1.59a3.32,3.32,0,0,0-1.11-1.76c-.25-.35-.5-.7-.76-1a2.22,2.22,0,0,0-1.3-2.58c-1.38-.75-2.39-1-3.25-2.48a5.6,5.6,0,0,0-2-2.29c-1-.63-2,.47-3,.31l-.57-.21-.07,0a13.93,13.93,0,0,0-3.24-2c-1.23-.43-2.26,1-3.53.45-.83-.33-1.07-1.66-2.05-1.76a4,4,0,0,0-2.69.58c-.51.39-.9.74-1.42,1.16-1.28,1.05-1.83-.24-2.83-.3-2.78-.17-4.17,3.16-6,4.72l-.14.1c-.85.64-2,.53-2.48,1.65-.21.46-.42.87-.64,1.26a18.94,18.94,0,0,0-1.79,2.4l-.45.45a4.47,4.47,0,0,0-1.57,3.88c-.18.55-.33,1.13-.46,1.7a2.06,2.06,0,0,0-2.22,1.48c-.46,1.17.38,2.25,1.31,2.93a10.33,10.33,0,0,0-.92,2.51.36.36,0,0,0,.27.42c1,.34,1.25.07,1,.86a6.14,6.14,0,0,0-.26,2.48,1.48,1.48,0,0,0,1.55,1.33c-.15,2-.19,4.59,2.14,4,0,.92-.06,2.14.57,2.72s1.71,0,2,1c.77,2.41,2.09,3.32,3.89,1.87,1,2,2.52,3.84,4.49,2.42.82,1.48,1.78,1.76,3.63,1.11,1.67-.59,2.79,1.49,4.48,1.38a5.18,5.18,0,0,0,2.83-1.26l.49-.05a2.48,2.48,0,0,0,2.91-.07,7.63,7.63,0,0,1,4.25-1,2.88,2.88,0,0,0,2.26-1.07c.76-.87,0-1.62,1.77-1.85a6.85,6.85,0,0,0,2.54-1.1A1.78,1.78,0,0,0,432,217a2.56,2.56,0,0,0,.2-.26c2-.87,4.3-2.66,3.32-4,1-.63,1.57-1.43,1-2.53C437.43,209.75,438.27,209.18,438.2,208.2Z"/><path class="cls-15" d="M406.76,199.23a.12.12,0,0,0-.17,0c-.19.12-.25.36-.36.54a1.92,1.92,0,0,1-.65.65,1.05,1.05,0,0,1-1.51-.15.14.14,0,0,0-.13-.12.14.14,0,0,0-.22.11c-.52.52-1,1-1.79.75a1.13,1.13,0,0,1-.69-.59,1.35,1.35,0,0,1,0-.82.65.65,0,0,0,.1-.15.1.1,0,0,0-.09-.15h-.05a.13.13,0,0,0-.12,0,6.08,6.08,0,0,0-.72.24,2,2,0,0,1-1,0,.57.57,0,0,1-.5-.48c0-.3.21-.52.23-.81,0-.06-.07-.11-.12-.09a.69.69,0,0,0-.24.14c-.26,0-.55.15-.81.16a.92.92,0,0,1-.73-.38.94.94,0,0,1-.12-.73.78.78,0,0,1,.24-.38l.2-.08a.14.14,0,0,0,.07-.22l0,0a.1.1,0,0,0-.09-.15.63.63,0,0,0-.41.19,1.91,1.91,0,0,1-1.37,0c-.34-.18-.15-.68,0-.93a3.54,3.54,0,0,1,2.19-1.8c.11,0,.08-.21,0-.19a3.43,3.43,0,0,0-2.57,2.16.86.86,0,0,0,.24,1,1.69,1.69,0,0,0,1.26.14,1.17,1.17,0,0,0-.05.11,1.22,1.22,0,0,0,1,1.6,1.76,1.76,0,0,0,.75,0,1.06,1.06,0,0,0,.44,1,2.25,2.25,0,0,0,1.84,0,1.54,1.54,0,0,0,.92,1.42,1.88,1.88,0,0,0,2.22-.67,1.4,1.4,0,0,0,1.57.28C406,200.75,407.17,199.85,406.76,199.23Z"/><path class="cls-15" d="M431,198.09c-.1-.31-.43-.63-.77-.55a.13.13,0,0,0-.08.16c.08.2.28.3.4.48a.5.5,0,0,1-.06.55,1.2,1.2,0,0,1-1,.42.57.57,0,0,0-.12-.18c-.1-.13-.32,0-.3.15a1.52,1.52,0,0,1-.15,1.25,1,1,0,0,1-.5.35,1,1,0,0,1-.55-.08.37.37,0,0,0-.2-.19.12.12,0,0,0-.17.05c-.11.21,0,.43,0,.65a1.23,1.23,0,0,1-.29.76c-.39.48-.9.38-1.42.24l0-.05c-.07-.06-.23,0-.24.08s.11.45,0,.68a.9.9,0,0,1-.62.45,1.65,1.65,0,0,1-1.56-.45.11.11,0,0,0-.18.12h0c-.14.27-.08.59-.22.88a.57.57,0,0,1-.66.31c-.64-.1-1.14-.8-1.37-1.35,0-.08-.13,0-.11,0a2,2,0,0,0,1.55,1.64c.58.07,1.08-.56,1.08-1.13a1.93,1.93,0,0,0,1.68.28,1.26,1.26,0,0,0,.87-1.1,1.32,1.32,0,0,0,1.4-.25,1.64,1.64,0,0,0,.52-.93,2.66,2.66,0,0,0,0-.3,1.24,1.24,0,0,0,1.19-.3,1.57,1.57,0,0,0,.45-1.3,1.26,1.26,0,0,0,1.32-.55A.94.94,0,0,0,431,198.09Z"/><path class="cls-15" d="M419.41,209a.3.3,0,0,0-.51.23,5.08,5.08,0,0,1,0,.78,1.23,1.23,0,0,1-.43.62c-.64.5-1.06-.13-1.43-.6a.16.16,0,0,0-.3.13s0,0,0,.06a.28.28,0,0,0-.07.17,1.63,1.63,0,0,1-.59,1.26c-.46.33-.82-.24-1-.61a.26.26,0,0,0-.49-.11,3.15,3.15,0,0,1-.87,1.33c-.56.4-.86-.13-1.12-.56a.76.76,0,0,0,0-.15.23.23,0,0,0-.46-.05c-.12.55-.24,1.25-1,1a1.85,1.85,0,0,1-1-1.15,1.79,1.79,0,0,0,0-.23c0-.21-.3-.14-.36,0-.19.49-.25,1.27-1,.89a1.67,1.67,0,0,1-.55-.51c-.13-.19-.16-.5-.35-.65l-.07,0c0-.1,0-.19-.08-.23a.25.25,0,0,0-.36,0c-.15.16-.16.44-.31.62a.64.64,0,0,1-.51.19,1.46,1.46,0,0,1-1-.57,2,2,0,0,1-.14-.4c0-.05,0-.1,0-.15a.21.21,0,0,0-.39-.15h0a.31.31,0,0,0-.13.21c-.23.4-.52.8-1,.53s-.6-.88-.77-1.39a.18.18,0,0,0-.33,0c-.2.12-.31.39-.49.56a.81.81,0,0,1-.83.16c-.67-.27-.62-1-.58-1.62a.19.19,0,0,0-.34-.08.43.43,0,0,1,0,.05c-.22.07-.35.27-.54.41a1,1,0,0,1-.76.2c-.7-.13-.68-1.06-.59-1.58a.17.17,0,0,0-.32-.08v0h0c-.38.22-.7.54-1.18.42-.17,0-.38-.28-.33-.45a2.31,2.31,0,0,1,.18-.35c.16-.3.36-.58.53-.87.05-.07.32-.43.09-.47s-.5.51-.61.67a3.19,3.19,0,0,0-.54,1c-.09.43.36.81.74.86a1.5,1.5,0,0,0,1-.26,1.38,1.38,0,0,0,.72,1.44,1.2,1.2,0,0,0,1,0,2.16,2.16,0,0,0,.49-.29,1.59,1.59,0,0,0,.89,1.43,1.21,1.21,0,0,0,1.08-.07,1.87,1.87,0,0,0,.44-.35,1.85,1.85,0,0,0,1,1.17,1.09,1.09,0,0,0,1.29-.36,1.93,1.93,0,0,0,.69.67,1.35,1.35,0,0,0,1.93-.37,2.06,2.06,0,0,0,.23.47,1.84,1.84,0,0,0,.89.74.92.92,0,0,0,1.17-.5,2,2,0,0,0,1.18,1,1.08,1.08,0,0,0,1.25-.7,1,1,0,0,0,1.13.52,2.25,2.25,0,0,0,1.35-1.24,1.11,1.11,0,0,0,1.27.56,1.61,1.61,0,0,0,.94-1.27,1.34,1.34,0,0,0,1.62.28C419.37,210.86,420,209.63,419.41,209Z"/><path class="cls-15" d="M433.71,210.9a1,1,0,0,0,1.07-.65.86.86,0,0,0-.29-1.07,1.12,1.12,0,0,0,.75-1.12,1.17,1.17,0,0,0-.44-.89.31.31,0,0,0-.09-.07,1.29,1.29,0,0,0,.91-1,1.08,1.08,0,0,0-1-1.21.21.21,0,0,0-.12.38c.34.19.77.33.66.82s-.5.63-.85.77a.51.51,0,0,0-.48.08.11.11,0,0,0,0,.16c.16.18.44.17.63.31a.84.84,0,0,1,.33.58c.1.55-.38.88-.86.93a.11.11,0,0,0-.1.13.19.19,0,0,0,.11.28c.35.13.59.36.45.75a.94.94,0,0,1-.88.48.15.15,0,0,0-.1.07.09.09,0,0,0-.08.11,3.18,3.18,0,0,1,.06,1.47,1.18,1.18,0,0,1-1.4.74.17.17,0,0,0-.2.17.32.32,0,0,0-.14,0,.09.09,0,0,0-.08.12c.07.34.67.53.38.94s-.67.27-1,.19a1.53,1.53,0,0,0-.29-.14c-.22-.07-.32.21-.17.34.33.27.94.6.33.93a2.86,2.86,0,0,1-1.64.08.13.13,0,0,0-.13.17h0a.16.16,0,0,0-.16.19c0,.24.26.35.32.58s-.14.33-.28.41a2.56,2.56,0,0,1-1.29.22.58.58,0,0,0-.21-.17.17.17,0,0,0-.27.14c0,.22.24.62.07.81a1.07,1.07,0,0,1-.76.18,4.55,4.55,0,0,0-1.38,0,.28.28,0,0,0-.09.06c-.15.21-.08.47-.15.7a.54.54,0,0,1-.4.37,1.92,1.92,0,0,1-1.28-.35.12.12,0,0,0-.17.16s.06.07.08.11a3.19,3.19,0,0,0-.11.33.94.94,0,0,1-.37.5c-.38.26-.78-.11-1.05-.34a.11.11,0,0,0-.13,0,.43.43,0,0,0-.23-.19.22.22,0,0,0-.28.14c-.09.24.06.49,0,.75a1,1,0,0,1-.56.47c-.65.29-1.12-.11-1.38-.68a.17.17,0,0,0-.29,0,.24.24,0,0,0-.23.21c-.07.47-.29.92-.82.86a1.46,1.46,0,0,1-.9-.61.24.24,0,0,0-.11-.21.28.28,0,0,0-.2,0,.25.25,0,0,0-.18.18c-.12.42-.33.79-.82.81a1.31,1.31,0,0,1-1-.52.22.22,0,0,0-.43-.1.76.76,0,0,1-.77.56c-.31,0-.49-.3-.63-.55v0a.22.22,0,0,0-.37-.24,2.43,2.43,0,0,1-1.21.93c-.72.21-1.07-.31-1.27-.92-.05-.16-.33-.17-.33,0v0a1.17,1.17,0,0,0-.37.27,1.58,1.58,0,0,1-.64.26.58.58,0,0,1-.52-.15c-.19-.19-.11-.51-.19-.75a.09.09,0,0,0-.15,0v0s-.06-.05-.09-.05c-.22,0-.32.26-.47.4a1,1,0,0,1-.71.27c-.52,0-.64-.48-.64-.91l0,0a.14.14,0,0,0,0-.11c0-.06,0-.11,0-.16s-.2-.17-.25,0a.66.66,0,0,0,0,.15,3.59,3.59,0,0,0-.72.32,1.1,1.1,0,0,1-.67.13c-.13,0-.06-.29,0-.38.07-.34.34-.65.34-1,0-.07-.08-.13-.14-.09a1.71,1.71,0,0,0-.61,1.08.68.68,0,0,0,.18.72,1,1,0,0,0,.83,0,3.78,3.78,0,0,0,.79-.31,1,1,0,0,0,.76.93,1.24,1.24,0,0,0,.92-.14,1.91,1.91,0,0,0,.38-.3,1,1,0,0,0,.74.86,1.47,1.47,0,0,0,.9-.13,1.84,1.84,0,0,0,.51-.33c.42,1.17,2,1,2.82.07a1.06,1.06,0,0,0,.85.63,1.1,1.1,0,0,0,1.05-.5,1.36,1.36,0,0,0,1.19.62,1.24,1.24,0,0,0,1.13-.78,1.46,1.46,0,0,0,1.14.64,1.08,1.08,0,0,0,1-.78,1.48,1.48,0,0,0,1.69.52,1.61,1.61,0,0,0,1-.81,1.24,1.24,0,0,0,.11-.45,1,1,0,0,0,1.17.33,1.17,1.17,0,0,0,.59-.55,2.21,2.21,0,0,0,.16-.4,1.44,1.44,0,0,0,1.21.16,1.23,1.23,0,0,0,.73-1.19l.32.1a3.39,3.39,0,0,0,1.23.06,1,1,0,0,0,.84-.55,1,1,0,0,0,0-.6,1.83,1.83,0,0,0,1.56-.27.78.78,0,0,0,.33-.74,1.35,1.35,0,0,0-.19-.43,2.13,2.13,0,0,0,1.78-.26.63.63,0,0,0,.14-1,1.18,1.18,0,0,0,.9-.4.75.75,0,0,0,.1-.76.92.92,0,0,0-.21-.33,1.4,1.4,0,0,0,1.61-.7A1.68,1.68,0,0,0,433.71,210.9Z"/><path class="cls-15" d="M418.3,190.74a1.3,1.3,0,0,0-.7-.85,2.28,2.28,0,0,0,.82-2.92,1.76,1.76,0,0,0-1.51-.88,2.86,2.86,0,0,0-.92.18,2.17,2.17,0,0,0-1.19-1.72c-.67-.37-2.48-.56-2.41.49a3,3,0,0,1,2,.05c.62.33.68,1.82.71,2a.25.25,0,0,0,.21.18c.51.08.92-.42,1.44-.48a.92.92,0,0,1,.9.58c.48,1-.21,1.83-1,2.51-.12.1,0,.23.06.29s.56.41.61.7a.7.7,0,0,1-.25.6,1.33,1.33,0,0,1-1.7,0c-.2-.12-.49,0-.4.23a2.89,2.89,0,0,1-.54,1.06,1.16,1.16,0,0,1-1,.37c-.91-.07-1.28-.81-1.83-1.3a.25.25,0,0,0-.21,0h0c-.62.21-1.2,1.29-1.9,1.38a2,2,0,0,1-1.57-.68,1.81,1.81,0,0,1-.57-1.22c0-.14.19-.47.11-.64a.17.17,0,0,0-.11-.25c-.76-.24-2.75.27-2.54-1a1.69,1.69,0,0,1,.81-1,4.07,4.07,0,0,1,1.43-.5c.21,0,.78,0,.67-.3-.22-.5-1.91-.39-1.54-1.24s1.49-.86,2.26-.71c.11,0,.17-.13.06-.16a2.44,2.44,0,0,0-2.78.69.91.91,0,0,0,.11,1.06,1.85,1.85,0,0,0,.44.36,2.76,2.76,0,0,0-2.1,1.86,1.17,1.17,0,0,0,.69,1.17,3.47,3.47,0,0,0,1.9.3,1.84,1.84,0,0,0-.09.48,2.39,2.39,0,0,0,.9,1.64,2.77,2.77,0,0,0,2,.74,3,3,0,0,0,1.89-1.17,2.75,2.75,0,0,0,2,1.15,2,2,0,0,0,1.48-.43,1.67,1.67,0,0,0,.68-1,2.09,2.09,0,0,0,2.2-.37A1.31,1.31,0,0,0,418.3,190.74Z"/><path class="cls-15" d="M425.2,193.26c-.08-.21-.25-.57-.51-.54-.07,0-.1,0-.12.1s0,.22.11.34a1.41,1.41,0,0,1,.21.56c0,.17,0,.53-.24.55a.39.39,0,0,1-.25-.08s0-.09-.07-.14a.11.11,0,0,0-.18,0,.13.13,0,0,0-.12.23l.09.08a2,2,0,0,1,0,.48.91.91,0,0,1-.43.53c-.52.32-1.14-.08-1.47-.48a.09.09,0,0,0-.15.1,1.39,1.39,0,0,0,1.69.7,1.32,1.32,0,0,0,.73-1.08.28.28,0,0,0,.13,0c.37,0,.52-.17.63-.51A1.39,1.39,0,0,0,425.2,193.26Z"/><path class="cls-15" d="M428.52,210.45c0-.23-.07-.62-.34-.67a.15.15,0,0,0-.14.06c-.08.13,0,.23,0,.36a1.23,1.23,0,0,1,.05.6c0,.17-.19.5-.38.47a.42.42,0,0,1-.22-.15.8.8,0,0,0,0-.15.1.1,0,0,0-.17-.05c-.12,0-.27.08-.18.19l.06.1a1.83,1.83,0,0,1-.15.45.87.87,0,0,1-.56.4c-.59.16-1.08-.4-1.29-.87a.09.09,0,0,0-.17.05,1.4,1.4,0,0,0,1.44,1.14,1.27,1.27,0,0,0,1-.83l.12.07c.35.12.55,0,.75-.32A1.34,1.34,0,0,0,428.52,210.45Z"/><path class="cls-15" d="M401.09,216.85c-.31.19-.51.53-.9.56s-.42-.54-.47-.81c0-.1-.18-.17-.22,0a1.1,1.1,0,0,0-.06.26c-.22.14-.44.57-.68.26a1.38,1.38,0,0,1-.14-1.12.1.1,0,0,0-.19-.06,1.42,1.42,0,0,0,.14,1.45.54.54,0,0,0,.54.14.87.87,0,0,0,.37-.25.78.78,0,0,0,.53.54,1.09,1.09,0,0,0,1.21-.84A.09.09,0,0,0,401.09,216.85Z"/><path class="cls-16" d="M394.76,211.89a2,2,0,0,0,1.38,1c.44,0,.52-.46.19-1a2,2,0,0,0-1.38-1C394.51,210.85,394.43,211.31,394.76,211.89Z"/><path class="cls-16" d="M396.5,212c-.33.28-.25.82.19,1.2a1.11,1.11,0,0,0,1.38.16c.33-.29.25-.82-.19-1.2A1.1,1.1,0,0,0,396.5,212Z"/><path class="cls-16" d="M398.15,213.46c-.66-.28-1.19-.21-1.19.17s.53.91,1.19,1.2,1.2.21,1.2-.17S398.82,213.75,398.15,213.46Z"/><path class="cls-16" d="M398.07,214.9a2,2,0,0,0-1.38-1c-.44,0-.52.47-.19,1a2,2,0,0,0,1.38,1C398.32,215.94,398.4,215.47,398.07,214.9Z"/><path class="cls-16" d="M396.33,214.83c.33-.29.25-.83-.19-1.2a1.12,1.12,0,0,0-1.38-.17c-.33.29-.25.83.19,1.2A1.12,1.12,0,0,0,396.33,214.83Z"/><path class="cls-16" d="M394.68,213.32c.66.29,1.19.21,1.19-.16s-.53-.92-1.19-1.2-1.2-.22-1.2.16S394,213,394.68,213.32Z"/><path class="cls-17" d="M395.53,213.39a1.84,1.84,0,0,0,1.39.88c.49,0,.65-.39.37-.88a1.84,1.84,0,0,0-1.38-.88C395.42,212.51,395.25,212.91,395.53,213.39Z"/><path class="cls-16" d="M411.88,201.34a1.31,1.31,0,0,1-1.1,1.44c-.6,0-1.09-.65-1.09-1.44s.49-1.45,1.09-1.45A1.31,1.31,0,0,1,411.88,201.34Z"/><path class="cls-16" d="M409.52,201.43a1.14,1.14,0,1,1-1.1,1.9,1.3,1.3,0,0,1-.7-1.67A1.32,1.32,0,0,1,409.52,201.43Z"/><path class="cls-16" d="M408.42,203.53a1.14,1.14,0,1,1-.7,1.67A1.3,1.3,0,0,1,408.42,203.53Z"/><ellipse class="cls-16" cx="410.78" cy="205.53" rx="1.1" ry="1.44"/><path class="cls-16" d="M412.05,205.43a1.14,1.14,0,1,1,1.8-.23A1.31,1.31,0,0,1,412.05,205.43Z"/><path class="cls-16" d="M413.15,203.33a1.14,1.14,0,1,1,.7-1.67A1.31,1.31,0,0,1,413.15,203.33Z"/><path class="cls-17" d="M412,203.43a1.23,1.23,0,1,1-1.23-1.22A1.23,1.23,0,0,1,412,203.43Z"/><g class="cls-1"><path class="cls-16" d="M411.82,219.22a1.08,1.08,0,0,1,.45.45.93.93,0,0,1,0,.13.58.58,0,0,1-.12.55,2,2,0,0,0-1.21.11l-.18-.12a2.27,2.27,0,0,0-.58-.22l-.07-.12c-.2-.44.1-.88.68-1A1.52,1.52,0,0,1,411.82,219.22Z"/><path class="cls-16" d="M414.26,219.56c.43.25.32.71-.24,1l-.17.09a2.79,2.79,0,0,0-.94.07.81.81,0,0,0-.29-.25,1.59,1.59,0,0,0-.43-.16.58.58,0,0,0,.12-.55l.15-.1A2,2,0,0,1,414.26,219.56Z"/><path class="cls-17" d="M412.62,220.51a.81.81,0,0,1,.29.25c.16.26.07.55-.28.75l-.09.05a2.05,2.05,0,0,1-1.21.12,1.82,1.82,0,0,1-.44-.17.71.71,0,0,1-.34-.38.56.56,0,0,1,.34-.62l.09,0a2,2,0,0,1,1.21-.11A1.59,1.59,0,0,1,412.62,220.51Z"/><path class="cls-16" d="M414.86,221c.28.16.41.37.32.57s-.9.52-1.67.4l-.21,0a2,2,0,0,1-.58-.22l-.18-.12.09-.05c.35-.2.44-.49.28-.75a2.79,2.79,0,0,1,.94-.07l.22,0A2.22,2.22,0,0,1,414.86,221Z"/><path class="cls-16" d="M410.55,221.13a.71.71,0,0,0,.34.38,1.82,1.82,0,0,0,.44.17.59.59,0,0,0-.13.54.71.71,0,0,1-.14.1,2,2,0,0,1-1.8.14c-.42-.25-.32-.71.25-1l.16-.08A2.27,2.27,0,0,1,410.55,221.13Z"/><path class="cls-16" d="M413.3,221.9a.75.75,0,0,1,.07.12c.2.45-.1.88-.68,1a1.5,1.5,0,0,1-1-.19,1.12,1.12,0,0,1-.44-.45s0-.08-.05-.13a.59.59,0,0,1,.13-.54,2.05,2.05,0,0,0,1.21-.12l.18.12A2,2,0,0,0,413.3,221.9Z"/></g><path class="cls-16" d="M410.8,220.34l.18.12-.09,0a.56.56,0,0,0-.34.62,2.27,2.27,0,0,0-.88.21l-.22,0a2.38,2.38,0,0,1-.78-.25c-.29-.17-.42-.38-.33-.58s.9-.52,1.67-.4l.21,0A2.27,2.27,0,0,1,410.8,220.34Z"/><g class="cls-1"><path class="cls-16" d="M401.59,189.72a.91.91,0,0,1,.52.11l.07.06a.29.29,0,0,1,0,.37,3,3,0,0,0-1.09.51h-.2a2.92,2.92,0,0,0-.59.08l-.09-.05c-.3-.19-.11-.56.41-.82A2.19,2.19,0,0,1,401.59,189.72Z"/><path class="cls-16" d="M403.93,189c.46,0,.47.31,0,.71l-.14.11a3.83,3.83,0,0,0-.86.39.69.69,0,0,0-.32-.05,1.86,1.86,0,0,0-.45.06.29.29,0,0,0,0-.37.57.57,0,0,1,.11-.11A3.09,3.09,0,0,1,403.93,189Z"/><path class="cls-17" d="M402.63,190.2a.69.69,0,0,1,.32.05c.22.09.2.3-.08.54l-.07.06a3,3,0,0,1-1.1.51,1.86,1.86,0,0,1-.45.06.6.6,0,0,1-.41-.1c-.11-.11-.06-.29.17-.49l.08-.06a3,3,0,0,1,1.09-.51A1.86,1.86,0,0,1,402.63,190.2Z"/><path class="cls-16" d="M404.82,189.66c.3,0,.47.07.44.22s-.73.64-1.48.85l-.2.05a2.84,2.84,0,0,1-.59.08h-.19l.07-.06c.28-.24.3-.45.08-.54a3.83,3.83,0,0,1,.86-.39,1.66,1.66,0,0,1,.21-.06A3.46,3.46,0,0,1,404.82,189.66Z"/><path class="cls-16" d="M400.84,191.32a.6.6,0,0,0,.41.1,1.86,1.86,0,0,0,.45-.06.27.27,0,0,0,0,.37l-.12.11a3.06,3.06,0,0,1-1.64.74c-.46,0-.46-.31,0-.71l.14-.11A3.42,3.42,0,0,1,400.84,191.32Z"/><path class="cls-16" d="M403.58,190.78l.09.05c.3.19.12.56-.4.82a2.37,2.37,0,0,1-1,.25,1,1,0,0,1-.52-.11.22.22,0,0,1-.07-.06.27.27,0,0,1,0-.37,3,3,0,0,0,1.1-.51H403A2.84,2.84,0,0,0,403.58,190.78Z"/></g><path class="cls-16" d="M400.89,190.76h.2l-.08.06c-.23.2-.28.38-.17.49a3.42,3.42,0,0,0-.77.44l-.21.06a3.47,3.47,0,0,1-.79.14c-.3,0-.48-.07-.44-.23s.72-.63,1.47-.84l.2,0A2.92,2.92,0,0,1,400.89,190.76Z"/><path class="cls-16" d="M429.42,211.51a2.48,2.48,0,0,1-1.73,1.3c-.54,0-.65-.58-.23-1.3a2.48,2.48,0,0,1,1.72-1.29C429.73,210.22,429.83,210.8,429.42,211.51Z"/><path class="cls-16" d="M427.25,211.6c.41.36.31,1-.23,1.5a1.39,1.39,0,0,1-1.73.2c-.42-.35-.31-1,.23-1.5A1.41,1.41,0,0,1,427.25,211.6Z"/><path class="cls-16" d="M425.18,213.48c.83-.36,1.5-.27,1.5.2s-.67,1.15-1.5,1.5-1.49.27-1.49-.2S424.36,213.84,425.18,213.48Z"/><path class="cls-16" d="M425.29,215.27A2.47,2.47,0,0,1,427,214c.54,0,.64.58.23,1.29a2.48,2.48,0,0,1-1.73,1.3C425,216.57,424.87,216,425.29,215.27Z"/><path class="cls-16" d="M427.46,215.18c-.42-.35-.31-1,.23-1.5a1.39,1.39,0,0,1,1.73-.2c.41.36.31,1-.24,1.5A1.38,1.38,0,0,1,427.46,215.18Z"/><path class="cls-16" d="M429.52,213.3c-.82.36-1.49.27-1.49-.2s.67-1.14,1.49-1.5,1.5-.26,1.5.2S430.35,213,429.52,213.3Z"/><path class="cls-17" d="M428.45,213.39a2.28,2.28,0,0,1-1.73,1.1c-.61,0-.82-.49-.46-1.1a2.29,2.29,0,0,1,1.73-1.1C428.59,212.29,428.8,212.79,428.45,213.39Z"/><path class="cls-16" d="M424.85,190.34a2.47,2.47,0,0,1-1.73,1.29c-.54,0-.65-.58-.23-1.29a2.46,2.46,0,0,1,1.73-1.3C425.16,189,425.27,189.62,424.85,190.34Z"/><path class="cls-16" d="M422.68,190.43c.42.35.31,1-.23,1.49a1.41,1.41,0,0,1-1.73.21c-.42-.36-.31-1,.23-1.5A1.39,1.39,0,0,1,422.68,190.43Z"/><path class="cls-16" d="M420.62,192.3c.82-.35,1.49-.26,1.49.21s-.67,1.14-1.49,1.5-1.5.26-1.5-.21S419.79,192.66,420.62,192.3Z"/><path class="cls-16" d="M420.72,194.09a2.49,2.49,0,0,1,1.73-1.29c.54,0,.65.58.23,1.29a2.46,2.46,0,0,1-1.73,1.3C420.41,195.39,420.3,194.81,420.72,194.09Z"/><path class="cls-16" d="M422.89,194c-.42-.36-.31-1,.23-1.5a1.41,1.41,0,0,1,1.73-.21c.42.36.31,1-.23,1.5A1.41,1.41,0,0,1,422.89,194Z"/><path class="cls-16" d="M425,192.13c-.83.35-1.5.26-1.5-.21s.67-1.14,1.5-1.49,1.49-.27,1.49.2S425.78,191.77,425,192.13Z"/><path class="cls-17" d="M423.89,192.22a2.31,2.31,0,0,1-1.74,1.09c-.61,0-.81-.49-.46-1.09a2.26,2.26,0,0,1,1.73-1.1C424,191.12,424.23,191.61,423.89,192.22Z"/><path class="cls-18" d="M283.2,164a133,133,0,0,1,.86,15.37c-6.52,4.56-9.3-4.53-11.87-11.34C271.2,165.38,282.92,162.21,283.2,164Z"/><path class="cls-19" d="M274.64,288.58c-.2,2.38-.26,4.85-.34,5.92l-1.12.1c0-2.33.23-4.28.3-6.06Z"/><path class="cls-20" d="M274.11,246.34q-.25,2.73-.53,5.47c-.28,2.9-1,5.83-.77,8.71.53,7.35,1.34,14.68,2.16,22l-1.47,6.12,2.44,8.65,6.42.11c-.56,0-2-12.25-2.16-13.51-.38-3.36.15-6.18.62-9.49l1.83-12.79a27.71,27.71,0,0,0,.52-6.08,25,25,0,0,1,0-2.87c0-.8.6-2.39.34-3.13-.37-1.08-2.25-1.19-3.3-1.49Z"/><path class="cls-21" d="M282.36,297.4l0,1.69-4.65-.08a2.06,2.06,0,0,1-2-1.57l-1.61-6.68-.6-2.12.46-1.9s3.53,9.2,3.92,9.2,3.73-.05,3.73-.05l.13-1.3Z"/><path class="cls-22" d="M288.38,203.28c1.19,1.95,2,3.55,3.92,2.36l-.62-.83c1.95-1.19,3.88-5.59,2.69-7.53L284.52,181a4.12,4.12,0,0,0-5.67-1.36h0a4.11,4.11,0,0,0-1.35,5.67Z"/><path class="cls-22" d="M266.07,181.42c.55-.86,5.4-.72,9.39-.72s5.79-1.21,5.79,2.77-.58,22.19-4.56,22.19S263.92,184.78,266.07,181.42Z"/><polygon class="cls-6" points="275.39 183.28 276.22 182.8 277.05 182.32 280.6 194.25 279.21 199.96 275.36 193.52 275.39 183.28"/><path class="cls-6" d="M274.86,183.48c-.21.32-.21,1,0,1.06l1.4.57c.2.09.53-.1.74-.42l1.4-2.2c.2-.31.2-1,0-1.05l-1.77.09Z"/><path class="cls-19" d="M266.73,292.61c-.12,2.39-.11,4.86-.15,5.93l-1.12.13c0-2.33.1-4.28.12-6.06Z"/><path class="cls-23" d="M264.88,250.41l-.36,5.48c-.2,2.91-.79,5.86-.5,8.74.76,7.33,1.81,14.62,2.85,21.92l-1.27,6.16,2.71,8.57,6.42-.09c-.57,0-2.41-12.18-2.59-13.44-.48-3.34,0-6.18.33-9.5q.7-6.42,1.42-12.84a28.43,28.43,0,0,0,.33-6.1,25,25,0,0,1-.11-2.87c0-.8.52-2.4.24-3.13-.41-1.07-2.28-1.13-3.35-1.39Z"/><path class="cls-21" d="M274.73,301.19l0,1.69-4.66.06a2,2,0,0,1-2-1.5l-1.82-6.63-.66-2.1.39-1.91s3.82,9.08,4.21,9.07,3.73-.17,3.73-.17l.09-1.3Z"/><path class="cls-24" d="M261.88,265.82c-1.86-2-3.93-20.12-3.28-27.55.26-3,3.89-11.27,4-11.54.15-.46,7.51-2.31,13.68-1.6a57.4,57.4,0,0,1,9.16,2s1.16,21.86-.16,37.82C284.77,271,266,270.27,261.88,265.82Z"/><path class="cls-21" d="M285.81,227.81c.63,7.26,1.08,14.79.64,20.08-.13,1.64-2.18,2.91-5.15,3.82-.4,0-2.32-17.67-2.32-17.67s-.28,18.33-1,18.46c-7.59,1.4-17.86.95-20.27-1.65-.83-.9.19-17.4,2.7-31.1.53-2.95,1.14-5.77,1.81-8.27,0-.12.06-.24.08-.36,3.13-12.22-2.31-24.2-2.32-24.91,0-2.55,9.13-8,9.13-8s4.92,9.21,8.36,16.4a40.51,40.51,0,0,1,1.72,4.08,37.3,37.3,0,0,0,.38-4.13A44.33,44.33,0,0,0,277,178l5.23,1a2.73,2.73,0,0,1,2,1.55c.18.39,2.5,8.5,2.72,10.35.36,3.16-2.62,11.64-3,14.74-.21,1.57.55,7.89,1.33,15.51C285.39,223.3,285.6,225.55,285.81,227.81Z"/><path class="cls-19" d="M283.56,204.31c-4.26,0-10.39,2.19-12.52-1-2.74-5.48-2.35-16.45-8.92-20.12-1.25,1.12-2.16,2.22-2.16,3s5.55,12.91,2.24,25.27c-3.79,14.16-5.53,38.28-4.52,39.37,2,2.14,9.27,2.82,16,2.22a10.49,10.49,0,0,1-3.7-1.86C255.08,239.5,261.21,209.64,283.56,204.31Z"/><path class="cls-19" d="M279.5,225.25c0,.18,0,.35,0,.5l-19.12-6c.53-2.95,1.14-5.77,1.81-8.27,0-.12.06-.24.08-.36s.08,0,.12,0l19.15,8.88a1.88,1.88,0,0,0-.16.23c.61.09,1.28.22,2,.38s1.2.31,1.79.51c.22,2.13.43,4.38.64,6.64C283.85,227.12,281.38,225.59,279.5,225.25Z"/><path class="cls-25" d="M280.93,200.23c0-1-.7-1.41-1.56-.9a3.46,3.46,0,0,0-1.58,2.72c0,1,.71,1.4,1.58.9A3.47,3.47,0,0,0,280.93,200.23Z"/><path class="cls-25" d="M281.19,211.41c0-1-.71-1.41-1.58-.91a3.48,3.48,0,0,0-1.56,2.73c0,1,.7,1.4,1.56.9A3.49,3.49,0,0,0,281.19,211.41Z"/><path class="cls-7" d="M279.4,182.54c2.37-2.58-1-5.38-1.53-5.56-.33-.13-1.15,1.17-1.66,1.75-1.15,1.31-.59,4-.59,4S278.72,183.28,279.4,182.54Z"/><path class="cls-26" d="M269,176.54l0,1.44,0,2.75a5.31,5.31,0,0,0,.82,1h0a3.22,3.22,0,0,0,.39.33,4.21,4.21,0,0,0,1.4.72,7.59,7.59,0,0,0,2.58.35A2.52,2.52,0,0,0,275,183a2,2,0,0,0,1.27-1,4.25,4.25,0,0,0,.37-1l-.17-3.47-.1-1.69Z"/><path class="cls-11" d="M272.19,168c-1-2.6-1.44-5.87-.13-8.43,1.65-3.22,3-4.8,5.37-3.12a9,9,0,0,1,1.88.76A17.2,17.2,0,0,1,283.2,164C283.78,167.5,274.76,174.79,272.19,168Z"/><path class="cls-11" d="M264.7,171.76c4.3,4.21,5.45,7.7,9.75,4.88s7.72-9.92,6.7-15.85c-1.1-6.31-10.25-8.37-15.39-5.45C258.3,159.57,260.52,167.68,264.7,171.76Z"/><path class="cls-27" d="M266.18,168.88c.28,1.79,1.51,7,2.82,8,1.84,1.35,6.13,3.5,8.55,1.86,3.23-2.18,3.74-8,3.74-13.74s-4.36-6.8-8.07-4.36S265.3,163.23,266.18,168.88Z"/><path class="cls-27" d="M266.28,169.12c.52,1.5,1.24,2.38,2.19,2.26s1.45-1.13,1.25-2.7-1.58-2.73-2.53-2.6S265.7,167.43,266.28,169.12Z"/><path class="cls-11" d="M270.65,156.88c1.83-2.7,5.68-1.11,7.88.19,3.94,2.32,4.46,9,5.3,13.17.05.24-.17.56-.46.45-4.8-1.92-11.05-8.14-13.38-13C269.58,157.58,270.33,157.34,270.65,156.88Z"/><path class="cls-7" d="M265.66,182.44c1,1.53,4.51,4.5,6.1,4.25,1-.16,3.43-2.92,3.86-4a7.45,7.45,0,0,1-3.95,0,4.21,4.21,0,0,1-1.4-.72,3.22,3.22,0,0,1-.39-.33h0a5.31,5.31,0,0,1-.82-1l0-2.75C267.78,178.74,264.23,180.22,265.66,182.44Z"/><path class="cls-22" d="M256.73,212.74a4.47,4.47,0,0,0,4.33,4.59h0a4.46,4.46,0,0,0,4.57-4.36l.7-23.81a4.47,4.47,0,0,0-4.34-4.59h0a4.47,4.47,0,0,0-4.57,4.36Z"/><path class="cls-11" d="M258.83,168.73c.23-3.53,2.15-10.8,6.26-13,3.88-2.06,8.65,1.88,7.59,4.71-2,5.43-5,17.67-1.43,21.55.26.29-3.86,2.09-7.73,0S258.53,173.6,258.83,168.73Z"/><g class="cls-28"><path class="cls-18" d="M261.43,172.75c-.7-3.56.48-7.4,1.42-10.79a27.31,27.31,0,0,1,1.59-5c.14-.27.53-.78.86-1.35l-.21.1c-4.11,2.18-6,9.45-6.26,13-.3,4.87,1,11.27,4.69,13.28s8,.29,7.73,0a7.57,7.57,0,0,1-1.57-4.44C266.1,178.74,262.43,177.82,261.43,172.75Z"/></g><path class="cls-29" d="M270,170.71a11.69,11.69,0,0,0,11.1-1.07s.57,8.76-4.56,9.67-6.89-1.74-6.89-1.74S268.84,172.75,270,170.71Z"/><g class="cls-1"><polygon class="cls-30" points="374.35 217.81 374.22 262.99 298.46 218.78 298.59 173.59 374.35 217.81"/><polygon class="cls-31" points="260.52 284.55 225.63 264.28 225.76 309.46 260.65 329.74 260.52 284.55"/><polygon class="cls-32" points="409.24 197.53 333.48 153.32 298.59 173.59 339.43 197.43 225.63 264.28 260.52 284.55 374.25 217.75 374.35 217.81 409.24 197.53"/><polygon class="cls-30" points="409.24 197.53 387.18 210.35 387.18 210.16 260.52 284.55 260.65 329.74 379.77 259.77 409.11 242.72 409.24 197.53"/><polygon class="cls-21" points="268.43 307.78 344.65 263.78 344.64 241.68 268.43 285.68 268.43 307.78"/><path class="cls-33" d="M277.35,286.84l3.62-2.09c1.44-.83,2.48-.76,2.48,1.57s-.63,2.92-1.19,3.5l1.39,2.74L281.2,294l-1-2.71-.66.21V295l-2.15,1.24Zm3.34,2.07c.57-.33.6-.68.6-1.35s-.11-.83-.6-.54l-1.18.68v1.89Z"/><path class="cls-33" d="M284.15,285.08a3.8,3.8,0,0,1,2.06-3.36s2.33-1.34,3.62-1.88v2.08l-2.95,1.71a1,1,0,0,0-.58,1.05v.55l3-1.57v2.06l-3,1.83v.56c0,.68.37.46.69.27l2.84-1.64v2.07c-1.14.83-3.51,2.24-3.51,2.24-.71.44-2.17,1.11-2.17-.84Z"/><path class="cls-33" d="M293.12,277.63a6.71,6.71,0,0,1,2.93-1.18v1.93a18.86,18.86,0,0,0-2.26,1.09c-.93.54-1.32.71-1.32,3.31,0,2.1.21,2.41,1.33,1.77s2.25-1.41,2.25-1.41v1.93a10.3,10.3,0,0,1-2.92,2.09c-2.05,1.14-2.81,0-2.81-3.16S290.92,278.9,293.12,277.63Z"/><path class="cls-33" d="M296.7,277.84a3.77,3.77,0,0,1,2.06-3.36s2.32-1.34,3.62-1.88v2.08l-3,1.71a1,1,0,0,0-.58,1V278l3-1.58v2.05l-3,1.84v.56c0,.68.37.46.69.27l2.85-1.64v2.07c-1.15.83-3.51,2.24-3.51,2.24-.72.44-2.17,1.11-2.17-.84Z"/><path class="cls-33" d="M303,272l3.61-2.08c1.13-.65,2.5-1.12,2.5,1.59,0,3-1.48,4.1-2.5,4.59a11.17,11.17,0,0,1-1.46.59v3.43L303,281.38Zm3.39,2.14a1.4,1.4,0,0,0,.56-1.35c0-.64-.17-.86-.56-.63l-1.24.71v2Z"/><path class="cls-33" d="M309.61,268.22l6.28-3.63v2.22l-2.1,1.22v7.13l-2.15,1.24v-7.13l-2,1.17Z"/><path class="cls-33" d="M316.59,264.18l2.15-1.24v9.36l-2.14,1.24Z"/><path class="cls-33" d="M322.87,260.5c1.91-1.11,3.35-1.52,3.35,2.87,0,4.12-1.36,5.45-3.35,6.59s-3.36,1.53-3.36-2.72S321,261.57,322.87,260.5Zm0,7.24c.95-.55,1.21-1.15,1.21-3.14,0-2.17-.21-2.46-1.21-1.88s-1.21,1-1.21,3.28C321.66,268,321.78,268.37,322.87,267.74Z"/><path class="cls-33" d="M327,258.19l2.17-1.26,2.31,3.45V255.6l2.15-1.24v9.35L331.46,265l-2.32-3.31v4.66L327,267.54Z"/></g><path class="cls-34" d="M344.33,182.14l-.91-.53.74-.42h0V181l.55-.32V180l-.1,0V180l-.71.42-.16-.09-.93.54V181l-.21.12-1.64-.95v.11h0v-.1l-.09.05h0v.66l2.78,1.6a4.27,4.27,0,0,1-3.49.11,1,1,0,0,1-.57-.85v.66a1,1,0,0,0,.57.85,4.44,4.44,0,0,0,4-.34l.14-.09h0l.08,0h0a1.75,1.75,0,0,0,.9-1.3v-.66A1.75,1.75,0,0,1,344.33,182.14Zm-1.64-.84h0v0Z"/><polygon class="cls-35" points="344.72 180.02 344 180.43 343.91 180.38 344.62 179.96 344.72 180.02"/><polygon class="cls-35" points="344.16 180.53 343.23 181.07 343.07 180.97 342.97 180.92 342.82 180.83 343.75 180.29 343.91 180.38 344 180.43 344.16 180.53"/><path class="cls-36" d="M343,180.92l-.37.22-1.64-.95a4.45,4.45,0,0,1,3.66-.23l-.71.42-.16-.09-.93.54Z"/><path class="cls-36" d="M344.71,180c.83.51.65,1.42-.38,2.12l-1.64-.95.38-.21.16.09.93-.54-.16-.1Z"/><path class="cls-34" d="M344.32,182.14v.66l-.08,0v-.65Z"/><path class="cls-35" d="M344.32,182.14l-.08.06-3.38-1.95.09-.05,1.65.94.37-.22.1.06-.38.21,1.64.95Z"/><path class="cls-36" d="M344.24,182.2l-.14.08a4.44,4.44,0,0,1-4,.34c-.94-.54-.68-1.57.57-2.29l.14-.08Z"/><path class="cls-37" d="M257.42,258.3,269,265l.21.1h0l.21.06h0l.23,0h0l.23,0h.32l.17,0,.13,0,.14,0,.06,0L271,265l6.21-3.59-1.67-1V260l-.91.53-.23-.13v.26l-2.49,1.44-.2-.11v.23l-3.38,2-1.55-.9v-.4l-.35.2-1.54-.89v-.4l-.35.2-1.54-.89v-.4l-.35.2-1.54-.89v-.4l-.34.2-1.54-.89v-1.15l1.59-.93,1.54.89v.4l.39-.22-.9-.52V256.3l1.59-.93.31.17v-.35l1.59-.92.31.17v-.35l1.59-.93.31.18V253l1.6-.93.3.18v-.35L271,251l.3.17v-.35l1.59-.93.31.18v-.35l1.6-.93.3.18v-.36l1.6-.92.3.17v-.35l1.6-.92,1.54.89v.4l.34-.2,1.54.89V249l.45-.25,1.78,1,1,.59.52.3v.41l.35-.21,1.54.9V253l-3.3,1.91-.15-.09V255l-2.43,1.41,1.68,1v.45l7.6-4.38.07,0,0,0,.05,0,0,0,0,0,.05-.06,0,0,0-.05,0,0s0,0,0,0,0,0,0,0,0,0,0,0,0,0,0,0a.08.08,0,0,1,0,0v.91l-.43.18a4.61,4.61,0,0,0-1.52,1.49L271,266.19l-.2.09-.06,0-.06,0-.08,0-.12,0h-.05l-.13,0h-.62l-.14,0h-.09l-.06,0-.14,0h0l-.21-.1-11.58-6.74a.69.69,0,0,1-.41-.56v-1.15A.69.69,0,0,0,257.42,258.3Z"/><path class="cls-36" d="M291.15,252.26l-11.59-6.73a2.18,2.18,0,0,0-2,0l-20.14,11.62a.61.61,0,0,0,0,1.15L269,265a2.22,2.22,0,0,0,2,0l20.15-11.63A.61.61,0,0,0,291.15,252.26Z"/><polygon class="cls-35" points="280.29 250.67 281.83 251.56 280.24 252.48 278.7 251.59 280.29 250.67"/><polygon class="cls-35" points="282.75 251.42 284.29 252.31 282.7 253.24 281.16 252.35 282.75 251.42"/><polygon class="cls-35" points="284.98 250.25 286.76 251.28 287.79 251.88 288.3 252.18 285.61 253.74 284.07 252.85 284.9 252.37 283.11 251.33 284.98 250.25"/><polygon class="cls-35" points="280.96 252.47 282.5 253.36 280.9 254.28 279.36 253.4 280.96 252.47"/><polygon class="cls-35" points="288.66 252.38 290.2 253.27 286.91 255.18 285.37 254.29 288.66 252.38"/><polygon class="cls-35" points="285.21 254.38 286.75 255.27 284.26 256.72 282.71 255.83 285.21 254.38"/><polygon class="cls-35" points="280.29 255.04 281.83 255.93 280.23 256.86 278.69 255.97 280.29 255.04"/><polygon class="cls-35" points="281.1 248.01 282.64 248.91 281.05 249.83 279.51 248.94 281.1 248.01"/><polygon class="cls-35" points="279.2 249.12 280.74 250 279.15 250.93 277.61 250.04 279.2 249.12"/><polygon class="cls-35" points="282.99 249.1 284.53 249.99 282.06 251.43 280.51 250.54 282.99 249.1"/><polygon class="cls-35" points="277.3 250.22 278.84 251.11 277.25 252.03 275.71 251.15 277.3 250.22"/><polygon class="cls-35" points="275.4 251.32 276.94 252.21 275.35 253.14 273.81 252.25 275.4 251.32"/><polygon class="cls-35" points="278.48 251.72 280.02 252.61 278.42 253.54 276.88 252.65 278.48 251.72"/><polygon class="cls-35" points="273.5 252.43 275.04 253.31 273.45 254.24 271.9 253.35 273.5 252.43"/><polygon class="cls-35" points="276.66 252.78 278.2 253.66 276.61 254.59 275.06 253.7 276.66 252.78"/><polygon class="cls-35" points="283.86 252.97 285.4 253.86 283.81 254.78 282.27 253.89 283.86 252.97"/><polygon class="cls-35" points="271.6 253.53 273.14 254.42 271.55 255.34 270 254.45 271.6 253.53"/><polygon class="cls-35" points="279.16 253.51 280.7 254.4 279.11 255.33 277.57 254.44 279.16 253.51"/><polygon class="cls-35" points="274.85 253.83 276.38 254.72 274.79 255.65 273.25 254.76 274.85 253.83"/><polygon class="cls-35" points="282.06 254.01 283.61 254.9 282.01 255.83 280.47 254.93 282.06 254.01"/><polygon class="cls-35" points="277.37 254.55 278.91 255.44 277.31 256.37 275.77 255.48 277.37 254.55"/><polygon class="cls-35" points="269.7 254.63 271.24 255.52 269.65 256.45 268.1 255.56 269.7 254.63"/><polygon class="cls-35" points="273.03 254.88 274.57 255.78 272.98 256.7 271.43 255.81 273.03 254.88"/><polygon class="cls-35" points="275.57 255.6 277.11 256.49 275.51 257.41 273.98 256.52 275.57 255.6"/><polygon class="cls-35" points="267.8 255.73 269.34 256.63 267.75 257.55 266.21 256.66 267.8 255.73"/><polygon class="cls-35" points="271.21 255.94 272.75 256.83 271.16 257.75 269.62 256.86 271.21 255.94"/><polygon class="cls-35" points="278.44 256.12 279.98 257.01 278.38 257.93 276.84 257.05 278.44 256.12"/><polygon class="cls-35" points="273.77 256.63 275.31 257.53 273.72 258.45 272.18 257.56 273.77 256.63"/><polygon class="cls-35" points="265.9 256.84 267.44 257.73 265.85 258.65 264.3 257.76 265.9 256.84"/><polygon class="cls-35" points="269.39 257 270.94 257.88 269.34 258.81 267.8 257.92 269.39 257"/><polygon class="cls-35" points="276.66 257.14 278.2 258.04 276.6 258.97 275.06 258.07 276.66 257.14"/><polygon class="cls-35" points="271.98 257.68 273.52 258.57 271.92 259.5 270.38 258.61 271.98 257.68"/><polygon class="cls-35" points="274.86 258.19 276.4 259.08 274.81 260.01 273.27 259.12 274.86 258.19"/><polygon class="cls-35" points="263.28 258.36 264.82 259.25 263.22 260.18 261.68 259.29 263.28 258.36"/><polygon class="cls-35" points="270.18 258.72 271.72 259.61 270.13 260.54 268.59 259.65 270.18 258.72"/><polygon class="cls-35" points="282.55 255.92 284.09 256.81 277.08 260.89 275.54 260 282.55 255.92"/><polygon class="cls-35" points="273.09 259.22 274.63 260.11 273.03 261.04 271.49 260.15 273.09 259.22"/><polygon class="cls-35" points="267.5 258.09 269.04 258.98 265.11 261.26 263.57 260.38 267.5 258.09"/><polygon class="cls-35" points="268.38 259.77 269.92 260.66 267 262.36 265.45 261.47 268.38 259.77"/><polygon class="cls-35" points="275.31 260.13 276.85 261.02 274.36 262.46 272.82 261.57 275.31 260.13"/><polygon class="cls-35" points="271.27 260.27 272.81 261.17 268.88 263.45 267.34 262.56 271.27 260.27"/><polygon class="cls-35" points="272.62 261.69 274.16 262.58 270.78 264.54 269.24 263.65 272.62 261.69"/><polygon class="cls-35" points="272.35 249.68 274.63 251 268.88 254.31 266.61 252.99 272.35 249.68"/><path class="cls-37" d="M291.52,238.59l0,0-.29-.17-.29-.17a.71.71,0,0,0-.72.07l-20.52,11.85a2.23,2.23,0,0,0-1,1.75l0,13.65a.71.71,0,0,0,.29.65l.73.42a.7.7,0,0,1-.3-.65l0-13.65a2.23,2.23,0,0,1,1-1.75l20.52-11.85a.74.74,0,0,1,.72-.07Z"/><path class="cls-38" d="M270.38,250.57l20.52-11.85c.56-.32,1-.06,1,.58L292,253a2.23,2.23,0,0,1-1,1.75l-20.52,11.85c-.56.32-1,.06-1-.58l0-13.65A2.23,2.23,0,0,1,270.38,250.57Z"/><g class="cls-1"><polygon class="cls-34" points="243.55 266.45 243.55 266.71 257.98 275.14 257.98 274.87 243.55 266.45"/><polygon class="cls-39" points="257.98 274.87 257.98 275.14 268.93 268.79 268.93 268.52 257.98 274.87"/><polygon class="cls-40" points="243.55 266.45 257.98 274.87 268.93 268.52 254.49 260.1 243.55 266.45"/></g><g class="cls-1"><polygon class="cls-34" points="234.05 265.55 234.05 265.81 248.48 274.23 248.48 273.97 234.05 265.55"/><polygon class="cls-39" points="248.48 273.97 248.48 274.23 259.42 267.88 259.42 267.62 248.48 273.97"/><polygon class="cls-40" points="234.05 265.55 248.48 273.97 259.42 267.62 244.99 259.19 234.05 265.55"/></g><g class="cls-1"><polygon class="cls-34" points="243.55 265.54 243.55 265.81 257.98 274.23 257.98 273.96 243.55 265.54"/><polygon class="cls-39" points="257.98 273.96 257.98 274.23 268.93 267.88 268.93 267.61 257.98 273.96"/><polygon class="cls-41" points="243.55 265.54 257.98 273.96 268.93 267.61 254.49 259.19 243.55 265.54"/></g><g class="cls-1"><polygon class="cls-42" points="236.24 264.93 236.25 265.72 250.67 274.14 250.67 273.36 236.24 264.93"/><polygon class="cls-43" points="250.67 273.36 250.67 274.14 261.62 267.8 261.62 267.01 250.67 273.36"/><polygon class="cls-44" points="236.24 264.93 250.67 273.36 261.62 267.01 247.19 258.58 236.24 264.93"/></g><g class="cls-1"><polygon class="cls-34" points="234.05 265.55 234.05 265.81 248.48 274.23 248.48 273.97 234.05 265.55"/><polygon class="cls-39" points="248.48 273.97 248.48 274.23 259.42 267.88 259.42 267.62 248.48 273.97"/><polygon class="cls-40" points="234.05 265.55 248.48 273.97 259.42 267.62 244.99 259.19 234.05 265.55"/></g><g class="cls-1"><polygon class="cls-34" points="235.75 265.35 235.76 265.61 250.18 274.04 250.18 273.77 235.75 265.35"/><polygon class="cls-39" points="250.18 273.77 250.18 274.04 261.13 267.69 261.13 267.42 250.18 273.77"/><polygon class="cls-45" points="235.75 265.35 250.18 273.77 261.13 267.42 246.7 259 235.75 265.35"/></g><g class="cls-1"><polygon class="cls-34" points="234.03 263.56 234.03 263.82 248.46 272.24 248.46 271.98 234.03 263.56"/><polygon class="cls-39" points="248.46 271.98 248.46 272.24 259.41 265.89 259.41 265.63 248.46 271.98"/><polygon class="cls-41" points="234.03 263.56 248.46 271.98 259.41 265.63 244.98 257.2 234.03 263.56"/></g><g class="cls-1"><polygon class="cls-42" points="236.24 263.44 236.25 264.23 250.67 272.66 250.67 271.87 236.24 263.44"/><polygon class="cls-43" points="250.67 271.87 250.67 272.66 261.03 266.65 261.04 267.42 261.62 267.8 261.62 266.31 261.62 265.52 250.67 271.87"/><polygon class="cls-33" points="236.24 263.44 250.67 271.87 261.62 265.52 247.19 257.09 236.24 263.44"/></g><g class="cls-1"><polygon class="cls-46" points="259.16 276.88 267.76 271.88 266.13 274.19 257.53 279.18 259.16 276.88"/><polygon class="cls-47" points="259.17 275.63 267.76 270.64 269.84 276.02 261.25 281.02 259.17 275.63"/><polygon class="cls-46" points="259.17 275.63 261.25 281.02 260.78 281.06 259.16 276.88 257.53 279.18 257.06 278.6 259.17 275.63"/></g><path class="cls-21" d="M316.41,171a.42.42,0,0,0,.26.37l.46.27v-.59l.92-.54.91.52-.52.31-.39-.22-.4.23.39.22.92-.54v0l.45-.26a1.2,1.2,0,0,1,.15-.37l-.29-.17v-.6l.93-.54.2.12v-.24l.93-.53.2.11v-.23l.93-.54.9.52v.15l.13-.08.91.53v.14l.13-.07.9.53v.14l.13-.07.91.52v.15l.12-.08.91.53v.14l.13-.07.9.52v.15l.13-.07.9.52v.14l.13-.07.91.52v.15l.12-.07.91.53v.14l.13-.07.9.52v.14l.13-.07.91.53v.14l.13-.07.9.53v.14l.13-.08.9.53h0v.14l.13-.07.91.53v.53l.46-.27.91.53v.55l.43-.25a.45.45,0,0,0,.26-.37v.6a.45.45,0,0,1-.26.37l-5.28,3.07a1.42,1.42,0,0,1-1.27,0L316.67,172a.45.45,0,0,1-.27-.37C316.4,171.44,316.4,171.24,316.41,171Z"/><path class="cls-19" d="M316.66,170.68l5.28-3.07a1.42,1.42,0,0,1,1.27,0l15.39,8.88c.35.2.35.53,0,.74l-5.28,3.07a1.4,1.4,0,0,1-1.26,0l-15.39-8.89A.39.39,0,0,1,316.66,170.68Z"/><polygon class="cls-48" points="322.46 167.86 321.53 168.4 322.44 168.92 323.36 168.38 322.46 167.86"/><polygon class="cls-48" points="323.49 168.45 322.57 168.99 323.48 169.51 324.4 168.98 323.49 168.45"/><polygon class="cls-48" points="324.53 169.05 323.6 169.59 324.51 170.11 325.43 169.57 324.53 169.05"/><polygon class="cls-48" points="322.36 169.11 321.43 169.65 322.35 170.17 323.27 169.63 322.36 169.11"/><polygon class="cls-48" points="320.2 169.17 319.27 169.71 320.18 170.23 321.1 169.69 320.2 169.17"/><polygon class="cls-48" points="325.56 169.65 324.63 170.19 325.54 170.71 326.47 170.17 325.56 169.65"/><polygon class="cls-48" points="321.23 169.77 320.31 170.31 321.21 170.83 322.14 170.29 321.23 169.77"/><polygon class="cls-48" points="326.59 170.24 325.67 170.78 326.57 171.3 327.5 170.77 326.59 170.24"/><polygon class="cls-48" points="322.26 170.37 321.34 170.9 322.24 171.43 323.17 170.89 322.26 170.37"/><polygon class="cls-48" points="327.63 170.84 326.7 171.38 327.61 171.9 328.53 171.36 327.63 170.84"/><polygon class="cls-48" points="324.87 170.56 323.94 171.1 326.48 172.56 327.4 172.02 324.87 170.56"/><polygon class="cls-48" points="329.69 172.03 328.77 172.57 329.67 173.09 330.6 172.56 329.69 172.03"/><polygon class="cls-48" points="327.53 172.09 326.6 172.63 327.51 173.16 328.43 172.62 327.53 172.09"/><polygon class="cls-48" points="323.65 171.26 322.58 171.89 321.97 172.25 321.66 172.42 323.19 173.31 324.12 172.77 323.64 172.5 324.71 171.88 323.65 171.26"/><polygon class="cls-48" points="330.72 172.63 329.8 173.17 330.71 173.69 331.63 173.16 330.72 172.63"/><polygon class="cls-48" points="328.56 172.69 327.63 173.23 328.54 173.75 329.47 173.22 328.56 172.69"/><polygon class="cls-48" points="327.09 173.16 326.17 173.69 327.07 174.22 328 173.68 327.09 173.16"/><polygon class="cls-48" points="331.76 173.23 330.83 173.76 331.74 174.29 332.67 173.75 331.76 173.23"/><polygon class="cls-48" points="329.59 173.29 328.67 173.82 329.58 174.35 330.5 173.81 329.59 173.29"/><polygon class="cls-48" points="328.11 173.74 327.19 174.28 328.1 174.8 329.02 174.27 328.11 173.74"/><polygon class="cls-48" points="332.79 173.82 331.87 174.36 332.77 174.88 333.7 174.35 332.79 173.82"/><polygon class="cls-48" points="330.63 173.89 329.7 174.42 330.61 174.94 331.53 174.41 330.63 173.89"/><polygon class="cls-48" points="323.62 173.78 322.69 174.31 324.5 175.35 325.42 174.82 323.62 173.78"/><polygon class="cls-48" points="329.13 174.33 328.21 174.87 329.12 175.4 330.04 174.86 329.13 174.33"/><polygon class="cls-48" points="333.82 174.42 332.9 174.96 333.81 175.48 334.73 174.94 333.82 174.42"/><polygon class="cls-48" points="331.66 174.48 330.73 175.02 331.64 175.54 332.57 175 331.66 174.48"/><polygon class="cls-48" points="330.15 174.92 329.23 175.46 330.14 175.98 331.06 175.45 330.15 174.92"/><polygon class="cls-48" points="334.86 175.01 333.93 175.55 334.84 176.08 335.76 175.54 334.86 175.01"/><polygon class="cls-48" points="332.69 175.08 331.77 175.61 332.68 176.14 333.6 175.6 332.69 175.08"/><polygon class="cls-48" points="331.17 175.51 330.25 176.05 331.16 176.57 332.08 176.04 331.17 175.51"/><polygon class="cls-48" points="335.89 175.61 334.97 176.15 335.87 176.67 336.8 176.13 335.89 175.61"/><polygon class="cls-48" points="333.72 175.67 332.8 176.21 333.71 176.73 334.63 176.2 333.72 175.67"/><polygon class="cls-48" points="332.2 176.1 331.27 176.64 332.18 177.16 333.1 176.63 332.2 176.1"/><polygon class="cls-48" points="337.26 176.4 336.34 176.94 337.25 177.47 338.17 176.93 337.26 176.4"/><polygon class="cls-48" points="333.22 176.69 332.29 177.23 333.2 177.75 334.12 177.21 333.22 176.69"/><polygon class="cls-48" points="325.54 174.88 324.61 175.42 329.05 177.98 329.97 177.45 325.54 174.88"/><polygon class="cls-48" points="334.8 176.3 333.88 176.83 336.12 178.12 337.04 177.59 334.8 176.3"/><polygon class="cls-48" points="334.24 177.28 333.32 177.82 334.98 178.78 335.91 178.24 334.24 177.28"/><polygon class="cls-48" points="330.11 177.53 329.19 178.06 330.72 178.95 331.65 178.41 330.11 177.53"/><polygon class="cls-48" points="331.83 178.52 330.91 179.06 332.71 180.1 333.64 179.56 331.83 178.52"/><polygon class="cls-48" points="321.33 168.52 320.4 169.05 321.31 169.58 322.24 169.04 321.33 168.52"/><polygon class="cls-48" points="323.39 169.71 322.47 170.25 323.38 170.77 324.3 170.23 323.39 169.71"/><polygon class="cls-48" points="318.05 170.55 317.13 171.09 318.04 171.62 318.96 171.07 318.05 170.55"/><polygon class="cls-48" points="319.08 171.15 318.96 171.22 318.16 171.68 319.07 172.21 319.99 171.67 319.9 171.62 319.08 171.15"/><polygon class="cls-48" points="320.08 170.55 319.96 170.63 319.16 171.09 320.06 171.62 320.99 171.07 320.9 171.02 320.08 170.55"/><polygon class="cls-48" points="328.65 171.44 327.73 171.98 328.64 172.5 329.56 171.96 328.65 171.44"/><polygon class="cls-48" points="320.08 171.72 319.16 172.26 320.06 172.78 320.99 172.25 320.08 171.72"/><polygon class="cls-48" points="325.05 171.98 324.12 172.51 325.03 173.04 325.96 172.5 325.05 171.98"/><polygon class="cls-48" points="326.07 172.56 325.14 173.1 326.05 173.63 326.98 173.09 326.07 172.56"/><polygon class="cls-48" points="321.56 172.59 320.63 173.13 322.51 174.21 323.43 173.67 321.56 172.59"/><polygon class="cls-48" points="331.51 177.01 330.58 177.55 331.49 178.08 332.42 177.54 331.51 177.01 331.51 177.01"/><polygon class="cls-48" points="331.41 176.96 330.5 176.43 329.57 176.97 330.48 177.49 331.41 176.96 331.41 176.96"/><polygon class="cls-48" points="330.38 176.37 329.48 175.84 328.55 176.38 329.46 176.9 330.38 176.37 330.38 176.37"/><polygon class="cls-48" points="329.38 175.78 328.47 175.26 327.54 175.79 328.45 176.32 329.38 175.78 329.38 175.78"/><polygon class="cls-48" points="328.32 175.18 327.41 174.65 326.49 175.19 327.39 175.71 328.32 175.18 328.32 175.18"/><polygon class="cls-48" points="327.31 174.59 326.4 174.07 325.48 174.61 326.38 175.13 327.31 174.59 327.31 174.59"/><polygon class="cls-48" points="326.29 174 325.38 173.48 324.45 174.01 325.37 174.54 326.29 174 326.29 174"/><polygon class="cls-48" points="325.28 173.42 324.37 172.89 323.45 173.43 324.35 173.96 325.28 173.42 325.28 173.42"/><polygon class="cls-48" points="334.78 178.9 332.54 177.61 331.62 178.15 333.85 179.44 334.78 178.9 334.78 178.9"/><g class="cls-1"><path class="cls-38" d="M329,163l-4.18,2.44a.44.44,0,0,1,.45,0l4.19-2.43A.49.49,0,0,0,329,163Z"/><polygon class="cls-48" points="339.15 173.53 343.34 171.09 329.41 163.05 325.22 165.49 339.15 173.53"/><path class="cls-34" d="M339.15,173.53l4.19-2.44a1.42,1.42,0,0,1,.64,1.11v.38a.44.44,0,0,1-.19.41l-4.18,2.44a.47.47,0,0,0,.18-.42v-.37A1.39,1.39,0,0,0,339.15,173.53Z"/><path class="cls-34" d="M325.22,165.48c-.35-.2-.64,0-.65.37v.38a1.43,1.43,0,0,0,.64,1.11l13.93,8c.36.21.65,0,.65-.37v-.37a1.39,1.39,0,0,0-.64-1.11Z"/></g><path class="cls-21" d="M349,146.87,322.1,131.35a.91.91,0,0,0-.94-.09l-1.92,1.11a.93.93,0,0,1,.94.09l1.28.74-1.31.76a.55.55,0,0,0-.24.51l-.05,17-1.06.62,10.52,6.12-1.92,1.12,12.31,7.1.13,2.69-10.77-6.22L327.14,164l-.09,1.62,13,7.49L342,172l-.08-1.71-.24-5,6.71,3.82v.74a.92.92,0,0,1-.39.85l1.92-1.11a1,1,0,0,0,.39-.85v-2.67l.05-16.9A2.92,2.92,0,0,0,349,146.87Z"/><polygon class="cls-19" points="327.15 163.97 327.15 163.97 327.41 159.29 339.72 166.39 339.95 171.37 340.03 173.07 327.06 165.59 327.15 163.97"/><path class="cls-49" d="M346.9,148.87l-26.55-15.32c-.45-.27-.82-.05-.82.46l0,17.89,28.18,16.27.06-17.89A1.82,1.82,0,0,0,346.9,148.87Z"/><polygon class="cls-50" points="328.4 137.51 326.94 136.67 319.04 141.92 319.04 143.27 328.4 137.51"/><path class="cls-50" d="M336,142.27l-5.28-3-10.87,6.7,0,7.13,0,0S330.94,145.6,336,142.27Z"/><path class="cls-19" d="M347.07,148a2.92,2.92,0,0,1,1.33,2.29l0,16.9v1.92l-29.54-17v-1.93l.05-16.9c0-.84.6-1.18,1.33-.76Zm.21,19.7,0-17.39a1.75,1.75,0,0,0-.79-1.38L320.72,134c-.44-.26-.8-.05-.8.45l-.05,17.4,27.41,15.82Z"/><path class="cls-19" d="M348.34,169.1v.74c0,.84-.6,1.18-1.33.76l-26.89-15.52a2.91,2.91,0,0,1-1.32-2.29v-.74Z"/><path class="cls-27" d="M291,219.35c1.26-1.43,4.25-1.63,5.25-1.34a22.07,22.07,0,0,1,1.44,3.46c.71,2.15,1.18,4.67.42,6.15-1.61,3.17-3,2.66-4.27,1.75C291.9,228,293,221.11,291,219.35Z"/><path class="cls-22" d="M289.74,195.14a4.36,4.36,0,0,1,5.12,3.48l3.74,20.88c-1.73-.22-6.58-.06-7.64.85l-4.75-20.09A4.41,4.41,0,0,1,289.74,195.14Z"/><path class="cls-27" d="M278.5,223.25c-.56-1.81.83-4.47,1.59-5.18a22.19,22.19,0,0,1,3.71.57c2.2.52,4.6,1.42,5.48,2.84,1.86,3,.69,4-.74,4.56C286.39,227,281.09,222.41,278.5,223.25Z"/><path class="cls-22" d="M257.18,211.71a4.39,4.39,0,0,1,5.65-2.57L282,218c-1.09,1.36-2.25,4.32-2,5.7l-20.21-6.35A4.41,4.41,0,0,1,257.18,211.71Z"/><path class="cls-6" d="M248.48,304.21c8.63,5.2,8.33,13.47-.66,18.49s-23.29,4.87-31.92-.32-8.34-13.47.66-18.49S239.85,299,248.48,304.21Z"/><path class="cls-11" d="M232.12,323.67c-5.62,0-11-1.31-14.83-3.6-3.25-2-5-4.38-5-6.81s2.07-5.07,5.56-7a30.16,30.16,0,0,1,14.39-3.32c5.61,0,11,1.31,14.83,3.6,3.25,2,5,4.38,5,6.81s-2.06,5.07-5.56,7A30.12,30.12,0,0,1,232.12,323.67Z"/><path class="cls-12" d="M220.68,332.27c-.76-.47-1.73-1.16-2.44-1.7a17.36,17.36,0,0,1-1.65-1.44c-.67-.68-1.55-1.63-2.15-2.39a25.72,25.72,0,0,1-1.72-2.54,22,22,0,0,1-1.25-2.47c-.4-1-.83-2.28-1.13-3.28a23.07,23.07,0,0,1-.52-2.63c-.1-.63-.16-1.48-.2-2.12.15,3.13,2.23,6.24,6.28,8.68,8.63,5.19,22.92,5.34,31.92.32,4.47-2.5,6.8-5.8,6.93-9.13a13.21,13.21,0,0,1-.14,1.78,17.42,17.42,0,0,1-.28,1.76c-.17.8-.45,1.87-.69,2.66-.15.49-.4,1.14-.6,1.61-.3.72-.76,1.66-1.13,2.36-.23.44-.58,1-.86,1.43a22.3,22.3,0,0,1-2.67,3.37,23.22,23.22,0,0,1-5.34,4.11l-1.19.62c-.42.2-1,.45-1.42.62-.66.25-1.56.55-2.23.76-.35.11-.81.22-1.16.29s-.73.16-1,.21-.73.12-1.05.16c-.92.12-1.67.15-2,.16s-1.09,0-2,0a20.09,20.09,0,0,1-2-.2l-1-.18c-.32-.06-.74-.16-1.05-.23l-1.13-.31-1.13-.38c-.39-.13-.89-.34-1.27-.5l-1.2-.56A16.39,16.39,0,0,1,220.68,332.27Z"/><path class="cls-13" d="M255.81,304.23c-.07-1-1.18-1.58-2-2.2a18.32,18.32,0,0,0-.05-2.57,10.48,10.48,0,0,0,1.11-2.22c.15-1-.59-1.55-1.43-1.84a1.57,1.57,0,0,0-1.37-2.39q-.37-.81-.81-1.59a3.24,3.24,0,0,0-1.11-1.76c-.25-.35-.5-.7-.77-1a2.21,2.21,0,0,0-1.29-2.58c-1.37-.74-2.39-1-3.25-2.47a5.63,5.63,0,0,0-2-2.3c-1-.62-2,.47-3,.32l-.56-.22-.07,0a13.77,13.77,0,0,0-3.24-2c-1.23-.42-2.26,1-3.52.46-.84-.33-1.08-1.67-2.06-1.76a4,4,0,0,0-2.69.58c-.51.39-.9.73-1.42,1.16-1.28,1-1.84-.25-2.83-.31-2.78-.17-4.17,3.17-6,4.72l-.12.1c-.86.64-2,.53-2.49,1.66-.21.45-.42.87-.64,1.25a20.06,20.06,0,0,0-1.79,2.41q-.21.23-.45.45a4.44,4.44,0,0,0-1.57,3.87c-.18.56-.33,1.13-.46,1.71a2.06,2.06,0,0,0-2.22,1.48c-.46,1.16.38,2.24,1.31,2.92a10.56,10.56,0,0,0-.92,2.52.35.35,0,0,0,.27.41c1,.34,1.25.08,1,.86a6.19,6.19,0,0,0-.26,2.49,1.47,1.47,0,0,0,1.54,1.32c-.14,2-.18,4.59,2.15,4,0,.92-.07,2.14.57,2.72s1.72,0,2,1c.77,2.41,2.08,3.32,3.88,1.86.95,2.06,2.52,3.84,4.49,2.43.82,1.47,1.78,1.76,3.63,1.11,1.67-.59,2.79,1.49,4.48,1.37a5.17,5.17,0,0,0,2.83-1.25l.49-.05a2.48,2.48,0,0,0,2.91-.07,7.63,7.63,0,0,1,4.25-1,2.87,2.87,0,0,0,2.26-1.07c.76-.87,0-1.63,1.77-1.85a6.87,6.87,0,0,0,2.54-1.11,1.77,1.77,0,0,0,.68-2.7c.07-.09.13-.18.2-.26,2-.87,4.3-2.67,3.32-4.06,1-.62,1.57-1.42,1-2.52C255,305.78,255.87,305.2,255.81,304.23Z"/><path class="cls-51" d="M255.81,304.23c-.07-1-1.18-1.58-2-2.2a18.32,18.32,0,0,0-.05-2.57,10.48,10.48,0,0,0,1.11-2.22c.15-1-.59-1.55-1.43-1.84a1.57,1.57,0,0,0-1.37-2.39q-.37-.81-.81-1.59a3.24,3.24,0,0,0-1.11-1.76c-.25-.35-.5-.7-.77-1a2.21,2.21,0,0,0-1.29-2.58c-1.37-.74-2.39-1-3.25-2.47a5.63,5.63,0,0,0-2-2.3c-1-.62-2,.47-3,.32l-.56-.22-.07,0a13.77,13.77,0,0,0-3.24-2c-1.23-.42-2.26,1-3.52.46-.84-.33-1.08-1.67-2.06-1.76a4,4,0,0,0-2.69.58c-.51.39-.9.73-1.42,1.16-1.28,1-1.84-.25-2.83-.31-2.78-.17-4.17,3.17-6,4.72l-.12.1c-.86.64-2,.53-2.49,1.66-.21.45-.42.87-.64,1.25a20.06,20.06,0,0,0-1.79,2.41q-.21.23-.45.45a4.44,4.44,0,0,0-1.57,3.87c-.18.56-.33,1.13-.46,1.71a2.06,2.06,0,0,0-2.22,1.48c-.46,1.16.38,2.24,1.31,2.92a10.56,10.56,0,0,0-.92,2.52.35.35,0,0,0,.27.41c1,.34,1.25.08,1,.86a6.19,6.19,0,0,0-.26,2.49,1.47,1.47,0,0,0,1.54,1.32c-.14,2-.18,4.59,2.15,4,0,.92-.07,2.14.57,2.72s1.72,0,2,1c.77,2.41,2.08,3.32,3.88,1.86.95,2.06,2.52,3.84,4.49,2.43.82,1.47,1.78,1.76,3.63,1.11,1.67-.59,2.79,1.49,4.48,1.37a5.17,5.17,0,0,0,2.83-1.25l.49-.05a2.48,2.48,0,0,0,2.91-.07,7.63,7.63,0,0,1,4.25-1,2.87,2.87,0,0,0,2.26-1.07c.76-.87,0-1.63,1.77-1.85a6.87,6.87,0,0,0,2.54-1.11,1.77,1.77,0,0,0,.68-2.7c.07-.09.13-.18.2-.26,2-.87,4.3-2.67,3.32-4.06,1-.62,1.57-1.42,1-2.52C255,305.78,255.87,305.2,255.81,304.23Z"/><path class="cls-15" d="M224.38,295.26a.15.15,0,0,0-.19-.05c-.18.12-.24.37-.35.55a1.92,1.92,0,0,1-.65.65,1,1,0,0,1-1.5-.15.19.19,0,0,0-.14-.13.15.15,0,0,0-.23.11c-.51.53-1,1-1.78.75a1.08,1.08,0,0,1-.69-.58,1.43,1.43,0,0,1,0-.82.54.54,0,0,0,.1-.16.1.1,0,0,0-.09-.14h0a.13.13,0,0,0-.12,0,6.08,6.08,0,0,0-.72.24,2,2,0,0,1-1,0,.56.56,0,0,1-.5-.48c0-.29.21-.52.23-.8,0-.06-.07-.11-.12-.09a.84.84,0,0,0-.25.13c-.25,0-.54.16-.8.16a.87.87,0,0,1-.73-.38.93.93,0,0,1-.12-.73A.83.83,0,0,1,215,293l.2-.07a.15.15,0,0,0,.07-.23s0,0,0,0,0-.13-.09-.14a.62.62,0,0,0-.42.19,1.94,1.94,0,0,1-1.36,0c-.34-.18-.15-.69,0-.94a3.56,3.56,0,0,1,2.19-1.79c.11,0,.08-.21,0-.19a3.39,3.39,0,0,0-2.57,2.15.86.86,0,0,0,.24,1,1.69,1.69,0,0,0,1.26.13.61.61,0,0,0-.05.12,1.2,1.2,0,0,0,.09,1,1.24,1.24,0,0,0,.89.61,1.71,1.71,0,0,0,.74,0,1.12,1.12,0,0,0,.45,1,2.29,2.29,0,0,0,1.84,0,1.55,1.55,0,0,0,.92,1.42,1.92,1.92,0,0,0,2.23-.67,1.37,1.37,0,0,0,1.56.27C223.57,296.78,224.78,295.87,224.38,295.26Z"/><path class="cls-15" d="M248.58,294.12a.75.75,0,0,0-.77-.56.14.14,0,0,0-.08.16c.08.21.28.31.4.49a.51.51,0,0,1-.06.55,1.21,1.21,0,0,1-1,.42.76.76,0,0,0-.12-.19c-.1-.12-.33,0-.3.15a1.52,1.52,0,0,1-.15,1.25,1,1,0,0,1-.5.35.87.87,0,0,1-.55-.07.43.43,0,0,0-.2-.2.12.12,0,0,0-.17.06c-.1.21,0,.42,0,.65a1.17,1.17,0,0,1-.29.75c-.39.49-.9.38-1.42.25a.1.1,0,0,0,0-.05c-.07-.06-.23,0-.23.08s.1.44,0,.68a.86.86,0,0,1-.61.45,1.7,1.7,0,0,1-1.57-.45.1.1,0,0,0-.17.11h0c-.14.26-.08.59-.21.88a.58.58,0,0,1-.67.31,2.11,2.11,0,0,1-1.37-1.36.06.06,0,1,0-.11,0,2,2,0,0,0,1.55,1.64c.58.08,1.08-.55,1.08-1.12a1.94,1.94,0,0,0,1.68.28,1.26,1.26,0,0,0,.87-1.1,1.34,1.34,0,0,0,1.4-.25,1.64,1.64,0,0,0,.52-.94,2.51,2.51,0,0,0,0-.3,1.25,1.25,0,0,0,1.19-.3,1.56,1.56,0,0,0,.45-1.29,1.3,1.3,0,0,0,1.32-.55A1,1,0,0,0,248.58,294.12Z"/><path class="cls-15" d="M237,305a.31.31,0,0,0-.51.23,5.08,5.08,0,0,1,0,.78,1.21,1.21,0,0,1-.43.63c-.64.49-1.06-.13-1.43-.6a.16.16,0,0,0-.3.13v.05a.29.29,0,0,0-.07.18,1.65,1.65,0,0,1-.59,1.26c-.46.33-.81-.25-1-.62a.26.26,0,0,0-.49-.1,3.21,3.21,0,0,1-.87,1.33c-.56.39-.86-.13-1.12-.56,0-.05,0-.1,0-.15a.23.23,0,0,0-.46,0c-.13.55-.24,1.25-1,1a1.86,1.86,0,0,1-1-1.15c0-.08,0-.16,0-.23s-.3-.14-.36,0c-.19.49-.25,1.28-1,.9a1.82,1.82,0,0,1-.55-.52c-.13-.19-.16-.5-.35-.64a.08.08,0,0,0-.07,0,.27.27,0,0,0-.08-.24.25.25,0,0,0-.36,0c-.16.16-.16.44-.31.61a.64.64,0,0,1-.51.19,1.4,1.4,0,0,1-1-.57,1.07,1.07,0,0,1-.14-.39s0-.1,0-.15a.21.21,0,0,0-.39-.15h0c-.08,0-.11.11-.13.2-.24.4-.53.8-1,.53s-.6-.88-.77-1.38a.18.18,0,0,0-.33,0c-.2.12-.31.4-.49.56a.77.77,0,0,1-.83.16c-.67-.26-.62-1-.59-1.61a.18.18,0,0,0-.33-.08.43.43,0,0,0,0,.05c-.23.07-.35.26-.54.41a1,1,0,0,1-.76.2c-.7-.14-.68-1.06-.59-1.58a.16.16,0,0,0-.32-.08h0c-.38.22-.7.54-1.19.42-.16,0-.37-.28-.32-.46a1.38,1.38,0,0,1,.18-.34c.16-.3.35-.58.53-.87.05-.07.32-.44.09-.47s-.5.51-.61.66a3.24,3.24,0,0,0-.54,1c-.09.43.36.8.74.86a1.56,1.56,0,0,0,1-.27,1.41,1.41,0,0,0,.72,1.45,1.25,1.25,0,0,0,1,0,2,2,0,0,0,.51-.3,1.57,1.57,0,0,0,.88,1.44,1.24,1.24,0,0,0,1.08-.08,1.58,1.58,0,0,0,.44-.34,1.86,1.86,0,0,0,1,1.16,1.08,1.08,0,0,0,1.29-.35,1.93,1.93,0,0,0,.69.67,1.34,1.34,0,0,0,1.93-.38,2.06,2.06,0,0,0,.23.47,1.79,1.79,0,0,0,.89.74.91.91,0,0,0,1.17-.49,1.91,1.91,0,0,0,1.19.95,1.06,1.06,0,0,0,1.24-.7,1,1,0,0,0,1.13.53,2.23,2.23,0,0,0,1.34-1.24,1.11,1.11,0,0,0,1.28.55,1.61,1.61,0,0,0,.95-1.26,1.35,1.35,0,0,0,1.61.28C237,306.89,237.64,305.66,237,305Z"/><path class="cls-15" d="M251.32,306.92a1,1,0,0,0,1.07-.65.88.88,0,0,0-.29-1.07,1.09,1.09,0,0,0,.74-1.12,1.12,1.12,0,0,0-.43-.88.73.73,0,0,0-.09-.08,1.27,1.27,0,0,0,.91-1,1.08,1.08,0,0,0-1-1.2.2.2,0,0,0-.12.37c.34.2.77.33.67.83s-.51.62-.86.77a.48.48,0,0,0-.48.08.12.12,0,0,0,0,.16c.16.18.44.17.63.31a.84.84,0,0,1,.33.58c.1.55-.39.87-.86.93-.08,0-.11.06-.1.12a.2.2,0,0,0,.11.29c.35.13.59.36.45.74a.93.93,0,0,1-.88.49.11.11,0,0,0-.1.07.09.09,0,0,0-.08.11,3.18,3.18,0,0,1,.06,1.47,1.16,1.16,0,0,1-1.39.73.2.2,0,0,0-.22.18h-.13a.1.1,0,0,0-.08.13c.07.34.67.53.39.94s-.68.26-1,.19a1,1,0,0,0-.3-.14c-.21-.07-.31.2-.15.33.32.27.93.61.32.93a2.78,2.78,0,0,1-1.64.09.12.12,0,0,0-.13.17h0a.15.15,0,0,0-.16.18c0,.24.26.36.33.59s-.15.33-.3.4a2.61,2.61,0,0,1-1.28.23.39.39,0,0,0-.21-.17.17.17,0,0,0-.27.13c0,.22.24.63.07.82a1.07,1.07,0,0,1-.76.18,4.55,4.55,0,0,0-1.38,0,.15.15,0,0,0-.09.06c-.15.2-.08.46-.14.7a.59.59,0,0,1-.41.37,1.92,1.92,0,0,1-1.28-.35c-.09-.05-.23,0-.17.15a.83.83,0,0,0,.08.12,2.55,2.55,0,0,0-.11.33,1.08,1.08,0,0,1-.37.5c-.38.25-.77-.12-1.05-.35a.15.15,0,0,0-.13,0,.41.41,0,0,0-.24-.18.22.22,0,0,0-.27.14c-.09.24.06.49,0,.74a1.06,1.06,0,0,1-.56.48c-.65.28-1.12-.12-1.38-.69a.17.17,0,0,0-.29,0,.25.25,0,0,0-.23.21c-.07.46-.29.91-.82.86a1.52,1.52,0,0,1-.9-.62.22.22,0,0,0-.11-.2.23.23,0,0,0-.2,0,.29.29,0,0,0-.19.17c-.11.43-.32.8-.81.82a1.31,1.31,0,0,1-1-.53.22.22,0,0,0-.43-.09.77.77,0,0,1-.77.56c-.31,0-.49-.3-.64-.56,0,0,0,0,0,0a.22.22,0,0,0-.36-.24,2.5,2.5,0,0,1-1.22.93c-.72.22-1.07-.3-1.27-.91-.05-.17-.34-.17-.33,0v0a1.31,1.31,0,0,0-.37.26,1.34,1.34,0,0,1-.64.26.55.55,0,0,1-.52-.15c-.19-.19-.11-.51-.19-.74,0-.08-.09-.09-.15,0s0,0,0,0-.06-.05-.09-.05c-.22,0-.32.26-.47.4a1,1,0,0,1-.71.26c-.52,0-.64-.47-.64-.9,0,0,0,0,0,0a.16.16,0,0,0,0-.12c0-.05,0-.1,0-.15s-.2-.18-.25-.05a.83.83,0,0,0,0,.15,3.85,3.85,0,0,0-.71.33,1.13,1.13,0,0,1-.67.13c-.14,0-.07-.3,0-.38.08-.35.34-.66.34-1,0-.07-.08-.13-.14-.09a1.74,1.74,0,0,0-.61,1.09.66.66,0,0,0,.18.72,1,1,0,0,0,.83,0,3.65,3.65,0,0,0,.78-.3,1.06,1.06,0,0,0,.77.93,1.2,1.2,0,0,0,.92-.15,1.83,1.83,0,0,0,.38-.29,1,1,0,0,0,.74.86,1.47,1.47,0,0,0,.9-.13,2.31,2.31,0,0,0,.51-.33c.42,1.17,2,1,2.82.07a1.07,1.07,0,0,0,1.89.13,1.39,1.39,0,0,0,1.2.62,1.26,1.26,0,0,0,1.13-.78,1.49,1.49,0,0,0,1.14.64,1.08,1.08,0,0,0,1-.78,1.47,1.47,0,0,0,1.69.51,1.6,1.6,0,0,0,1-.8,1.24,1.24,0,0,0,.11-.46,1.05,1.05,0,0,0,1.17.34,1.09,1.09,0,0,0,.58-.56,2,2,0,0,0,.18-.39,1.49,1.49,0,0,0,1.2.16,1.24,1.24,0,0,0,.73-1.19l.31.09a3.29,3.29,0,0,0,1.25.06.87.87,0,0,0,.85-1.14,1.84,1.84,0,0,0,1.56-.28.76.76,0,0,0,.33-.73,1.26,1.26,0,0,0-.19-.43,2.14,2.14,0,0,0,1.78-.27.62.62,0,0,0,.14-1,1.23,1.23,0,0,0,.91-.41.77.77,0,0,0,.09-.76,1.12,1.12,0,0,0-.2-.32,1.4,1.4,0,0,0,1.6-.71A1.68,1.68,0,0,0,251.32,306.92Z"/><path class="cls-15" d="M235.91,286.76a1.31,1.31,0,0,0-.7-.84A2.26,2.26,0,0,0,236,283a1.73,1.73,0,0,0-1.5-.88,3.11,3.11,0,0,0-.92.17,2.17,2.17,0,0,0-1.19-1.71c-.67-.38-2.48-.56-2.41.48a3,3,0,0,1,2.05.06c.61.33.68,1.82.7,2a.23.23,0,0,0,.21.19c.51.08.92-.42,1.44-.48a.9.9,0,0,1,.9.57c.48,1-.21,1.84-1,2.52-.11.1,0,.23.07.29s.56.41.61.69a.74.74,0,0,1-.25.61,1.33,1.33,0,0,1-1.7,0c-.2-.12-.49,0-.4.23a2.78,2.78,0,0,1-.55,1.05,1.17,1.17,0,0,1-1,.38c-.91-.07-1.28-.81-1.83-1.3a.2.2,0,0,0-.21,0h0c-.62.21-1.2,1.29-1.9,1.38a2,2,0,0,1-1.57-.68,1.87,1.87,0,0,1-.58-1.22c0-.15.2-.47.12-.65a.17.17,0,0,0-.11-.25c-.76-.24-2.75.28-2.54-1a1.74,1.74,0,0,1,.81-1,4.05,4.05,0,0,1,1.43-.49c.21,0,.79,0,.67-.3-.23-.51-1.91-.4-1.54-1.24s1.49-.87,2.26-.71c.11,0,.17-.13.06-.17a2.46,2.46,0,0,0-2.78.7.89.89,0,0,0,.11,1.06,1.83,1.83,0,0,0,.44.35,2.79,2.79,0,0,0-2.1,1.87,1.16,1.16,0,0,0,.69,1.16,3.49,3.49,0,0,0,1.91.31,1.51,1.51,0,0,0-.1.48,2.41,2.41,0,0,0,.9,1.64,2.74,2.74,0,0,0,2,.73,3,3,0,0,0,1.89-1.16,2.73,2.73,0,0,0,2,1.15,2.14,2.14,0,0,0,1.49-.43,1.69,1.69,0,0,0,.67-1.05,2.07,2.07,0,0,0,2.2-.38A1.3,1.3,0,0,0,235.91,286.76Z"/><path class="cls-15" d="M242.8,289.29c-.07-.21-.24-.57-.5-.55a.15.15,0,0,0-.12.1c0,.15,0,.23.11.35a1.36,1.36,0,0,1,.21.56c0,.16,0,.53-.24.55a.41.41,0,0,1-.25-.08.91.91,0,0,0-.07-.14.1.1,0,0,0-.18,0c-.12,0-.23.14-.12.23l.09.07a2.57,2.57,0,0,1,0,.48.9.9,0,0,1-.43.54c-.52.32-1.14-.08-1.47-.48-.08-.09-.22,0-.16.1a1.4,1.4,0,0,0,1.7.69,1.28,1.28,0,0,0,.72-1.08.37.37,0,0,0,.14,0c.37,0,.52-.18.62-.51A1.27,1.27,0,0,0,242.8,289.29Z"/><path class="cls-15" d="M246.13,306.47c0-.22-.07-.62-.34-.66a.1.1,0,0,0-.13.06c-.09.13,0,.22,0,.36a1.19,1.19,0,0,1,.05.59c0,.17-.19.51-.38.47a.33.33,0,0,1-.22-.15.8.8,0,0,0,0-.15.11.11,0,0,0-.17,0c-.12-.05-.27.07-.18.19l.06.1a2,2,0,0,1-.15.45.88.88,0,0,1-.56.4c-.59.16-1.08-.4-1.28-.87-.05-.11-.2-.07-.17,0a1.38,1.38,0,0,0,1.43,1.14,1.28,1.28,0,0,0,1-.84.57.57,0,0,0,.13.08c.34.12.54,0,.74-.32A1.31,1.31,0,0,0,246.13,306.47Z"/><path class="cls-15" d="M218.7,312.88c-.31.19-.51.53-.9.56s-.42-.54-.47-.81c0-.1-.18-.17-.22-.05a.88.88,0,0,0-.06.26c-.22.15-.44.57-.68.26a1.35,1.35,0,0,1-.14-1.11c0-.11-.15-.17-.19-.07a1.42,1.42,0,0,0,.14,1.45.52.52,0,0,0,.54.14.84.84,0,0,0,.37-.24.76.76,0,0,0,.54.53,1.07,1.07,0,0,0,1.2-.83C218.84,312.89,218.76,312.83,218.7,312.88Z"/><path class="cls-16" d="M212.37,307.91a2,2,0,0,0,1.39,1c.43,0,.51-.46.18-1a2,2,0,0,0-1.38-1C212.12,306.87,212,307.34,212.37,307.91Z"/><path class="cls-16" d="M214.11,308c-.33.29-.25.83.19,1.21a1.13,1.13,0,0,0,1.38.16c.33-.29.25-.83-.19-1.2A1.12,1.12,0,0,0,214.11,308Z"/><path class="cls-16" d="M215.76,309.49c-.66-.28-1.19-.21-1.19.16s.53.92,1.19,1.2,1.2.22,1.2-.16S216.43,309.78,215.76,309.49Z"/><path class="cls-16" d="M215.68,310.92a2,2,0,0,0-1.38-1c-.44,0-.52.46-.19,1a2,2,0,0,0,1.38,1C215.93,312,216,311.5,215.68,310.92Z"/><path class="cls-16" d="M213.94,310.85c.33-.28.25-.82-.18-1.2a1.14,1.14,0,0,0-1.39-.16c-.33.29-.25.82.19,1.2A1.1,1.1,0,0,0,213.94,310.85Z"/><path class="cls-16" d="M212.29,309.35c.66.28,1.19.21,1.19-.16s-.53-.92-1.19-1.21-1.2-.21-1.2.17S211.62,309.06,212.29,309.35Z"/><path class="cls-17" d="M213.15,309.42a1.84,1.84,0,0,0,1.38.88c.49,0,.66-.4.37-.88a1.81,1.81,0,0,0-1.38-.88C213,308.54,212.86,308.93,213.15,309.42Z"/><path class="cls-16" d="M229.49,297.36a1.31,1.31,0,0,1-1.1,1.45c-.6,0-1.09-.65-1.09-1.45a1.14,1.14,0,1,1,2.19,0Z"/><path class="cls-16" d="M227.13,297.46a1.14,1.14,0,1,1-1.8.23A1.31,1.31,0,0,1,227.13,297.46Z"/><path class="cls-16" d="M226,299.56a1.14,1.14,0,1,1,1.1,1.9,1.32,1.32,0,0,1-1.8-.23A1.3,1.3,0,0,1,226,299.56Z"/><path class="cls-16" d="M227.3,301.56c0-.8.49-1.45,1.09-1.45a1.5,1.5,0,1,1-1.09,1.45Z"/><path class="cls-16" d="M229.66,301.46a1.14,1.14,0,1,1,1.8-.23A1.31,1.31,0,0,1,229.66,301.46Z"/><path class="cls-16" d="M230.76,299.36a1.14,1.14,0,1,1,.7-1.67A1.3,1.3,0,0,1,230.76,299.36Z"/><path class="cls-17" d="M229.62,299.46a1.23,1.23,0,1,1-1.23-1.23A1.23,1.23,0,0,1,229.62,299.46Z"/><g class="cls-1"><path class="cls-16" d="M229.43,315.25a1.08,1.08,0,0,1,.45.45.65.65,0,0,1,0,.13.58.58,0,0,1-.12.54,2.05,2.05,0,0,0-1.21.12.81.81,0,0,0-.18-.12,2,2,0,0,0-.58-.22l-.07-.12c-.21-.45.1-.88.68-1A1.52,1.52,0,0,1,229.43,315.25Z"/><path class="cls-16" d="M231.86,315.59c.43.25.33.71-.24,1l-.16.08a2.54,2.54,0,0,0-.94.08.81.81,0,0,0-.29-.25,1.38,1.38,0,0,0-.43-.17.58.58,0,0,0,.12-.54l.15-.1A2,2,0,0,1,231.86,315.59Z"/><path class="cls-17" d="M230.23,316.54a.81.81,0,0,1,.29.25c.16.25.07.55-.28.75l-.08,0a2,2,0,0,1-1.22.11,1.47,1.47,0,0,1-.43-.16.75.75,0,0,1-.35-.39.55.55,0,0,1,.34-.61l.09-.05a2.05,2.05,0,0,1,1.21-.12A1.38,1.38,0,0,1,230.23,316.54Z"/><path class="cls-16" d="M232.47,317c.28.17.42.38.32.58s-.9.51-1.67.4l-.21,0a2.27,2.27,0,0,1-.58-.22.83.83,0,0,1-.17-.12l.08,0c.35-.2.44-.5.28-.75a2.54,2.54,0,0,1,.94-.08l.22,0A2.45,2.45,0,0,1,232.47,317Z"/><path class="cls-16" d="M228.16,317.15a.75.75,0,0,0,.35.39,1.47,1.47,0,0,0,.43.16.61.61,0,0,0-.13.55l-.14.1a2.08,2.08,0,0,1-1.8.14c-.43-.25-.32-.72.25-1l.16-.09A2.46,2.46,0,0,1,228.16,317.15Z"/><path class="cls-16" d="M230.91,317.93a.47.47,0,0,1,.07.12c.21.44-.1.88-.68,1a1.58,1.58,0,0,1-1-.19,1.05,1.05,0,0,1-.45-.46l-.05-.12a.61.61,0,0,1,.13-.55,2,2,0,0,0,1.22-.11.83.83,0,0,0,.17.12A2.27,2.27,0,0,0,230.91,317.93Z"/></g><path class="cls-16" d="M228.41,316.37a.81.81,0,0,1,.18.12l-.09.05a.55.55,0,0,0-.34.61,2.46,2.46,0,0,0-.88.21.83.83,0,0,1-.22,0,2.24,2.24,0,0,1-.78-.25c-.29-.17-.42-.37-.33-.57s.9-.52,1.67-.4l.21,0A2,2,0,0,1,228.41,316.37Z"/><g class="cls-1"><path class="cls-16" d="M219.2,285.75a.91.91,0,0,1,.52.11l.07.05a.3.3,0,0,1,0,.38,3,3,0,0,0-1.09.5h-.2a3,3,0,0,0-.59.09l-.09-.05c-.3-.19-.11-.56.41-.83A2.2,2.2,0,0,1,219.2,285.75Z"/><path class="cls-16" d="M221.54,285.07c.46,0,.46.3,0,.7l-.14.11a4.33,4.33,0,0,0-.86.39.85.85,0,0,0-.32,0,2.6,2.6,0,0,0-.45.07.3.3,0,0,0,0-.38l.11-.11A3.15,3.15,0,0,1,221.54,285.07Z"/><path class="cls-17" d="M220.24,286.22a.85.85,0,0,1,.32,0c.21.09.2.3-.08.55l-.07.06a3.18,3.18,0,0,1-1.1.51l-.45.06a.59.59,0,0,1-.41-.11c-.11-.11-.06-.28.17-.49l.08-.06a3,3,0,0,1,1.09-.5A2.6,2.6,0,0,1,220.24,286.22Z"/><path class="cls-16" d="M222.43,285.69c.3,0,.47.07.44.22s-.73.64-1.47.84l-.21.06a3.88,3.88,0,0,1-.59.08h-.19l.07-.06c.28-.25.29-.46.08-.55a4.33,4.33,0,0,1,.86-.39l.21-.06A3.38,3.38,0,0,1,222.43,285.69Z"/><path class="cls-16" d="M218.45,287.34a.59.59,0,0,0,.41.11l.45-.06a.29.29,0,0,0,0,.37l-.11.11a3.11,3.11,0,0,1-1.64.73c-.46,0-.46-.3,0-.7a.69.69,0,0,1,.13-.11A3.7,3.7,0,0,1,218.45,287.34Z"/><path class="cls-16" d="M221.19,286.81l.09,0c.3.19.12.56-.4.83a2.37,2.37,0,0,1-1,.25,1.06,1.06,0,0,1-.52-.11l-.08-.06a.29.29,0,0,1,0-.37,3.18,3.18,0,0,0,1.1-.51h.19A3.88,3.88,0,0,0,221.19,286.81Z"/></g><path class="cls-16" d="M218.5,286.78h.2l-.08.06c-.23.21-.28.38-.17.49a3.7,3.7,0,0,0-.77.45l-.21.06a3.38,3.38,0,0,1-.79.13c-.3,0-.48-.07-.44-.22s.72-.63,1.47-.84l.2-.05A3,3,0,0,1,218.5,286.78Z"/><path class="cls-16" d="M247,307.54a2.47,2.47,0,0,1-1.73,1.29c-.54,0-.65-.57-.23-1.29a2.46,2.46,0,0,1,1.73-1.3C247.34,306.24,247.44,306.82,247,307.54Z"/><path class="cls-16" d="M244.86,307.63c.41.35.31,1-.23,1.5a1.39,1.39,0,0,1-1.73.2c-.42-.36-.31-1,.23-1.5A1.39,1.39,0,0,1,244.86,307.63Z"/><path class="cls-16" d="M242.79,309.51c.83-.36,1.5-.27,1.5.2s-.67,1.14-1.5,1.5-1.49.26-1.49-.2S242,309.86,242.79,309.51Z"/><path class="cls-16" d="M242.9,311.3a2.46,2.46,0,0,1,1.73-1.3c.54,0,.64.58.23,1.3a2.49,2.49,0,0,1-1.73,1.29C242.59,312.59,242.48,312,242.9,311.3Z"/><path class="cls-16" d="M245.07,311.21c-.42-.36-.31-1,.23-1.5a1.39,1.39,0,0,1,1.73-.2c.41.35.31,1-.23,1.5A1.41,1.41,0,0,1,245.07,311.21Z"/><path class="cls-16" d="M247.13,309.33c-.82.36-1.49.27-1.49-.2s.67-1.15,1.49-1.5,1.5-.27,1.5.2S248,309,247.13,309.33Z"/><path class="cls-17" d="M246.06,309.42a2.26,2.26,0,0,1-1.73,1.1c-.61,0-.82-.49-.47-1.1a2.29,2.29,0,0,1,1.74-1.1C246.21,308.32,246.41,308.81,246.06,309.42Z"/><path class="cls-16" d="M242.46,286.36a2.48,2.48,0,0,1-1.73,1.3c-.54,0-.64-.58-.23-1.3a2.47,2.47,0,0,1,1.73-1.29C242.77,285.07,242.88,285.65,242.46,286.36Z"/><path class="cls-16" d="M240.29,286.45c.42.36.31,1-.23,1.5a1.39,1.39,0,0,1-1.73.2c-.41-.36-.31-1,.23-1.5A1.41,1.41,0,0,1,240.29,286.45Z"/><path class="cls-16" d="M238.23,288.33c.82-.36,1.49-.26,1.49.2s-.67,1.14-1.49,1.5-1.5.27-1.5-.2S237.4,288.69,238.23,288.33Z"/><path class="cls-16" d="M238.33,290.12a2.49,2.49,0,0,1,1.73-1.29c.54,0,.65.58.23,1.29a2.46,2.46,0,0,1-1.73,1.3C238,291.42,237.92,290.84,238.33,290.12Z"/><path class="cls-16" d="M240.5,290c-.41-.36-.31-1,.23-1.5a1.41,1.41,0,0,1,1.73-.2c.42.36.31,1-.23,1.5A1.39,1.39,0,0,1,240.5,290Z"/><path class="cls-16" d="M242.57,288.15c-.83.36-1.5.27-1.5-.2s.67-1.14,1.5-1.5,1.49-.26,1.49.2S243.39,287.79,242.57,288.15Z"/><path class="cls-17" d="M241.49,288.24a2.26,2.26,0,0,1-1.73,1.1c-.61,0-.81-.49-.46-1.1a2.29,2.29,0,0,1,1.73-1.1C241.64,287.14,241.84,287.64,241.49,288.24Z"/><path class="cls-27" d="M298.61,226.37c.09-.74,2-.47,2.44-.38l3.09.6a24.41,24.41,0,0,1-3.57-1.06c-.26-.1-.79-.28-.71-.65.13-.74,3.18,0,3.78.16l1.11.23a2.06,2.06,0,0,1,.61,1.55,6.37,6.37,0,0,1-.44,2.59A8.72,8.72,0,0,1,304,231c-1.3-.38-2.17-.65-3.54-1a1.27,1.27,0,0,1-.67-.37c-.57-.73,2.58-.29,3.59-.47a21.52,21.52,0,0,1-3.83-.7c-.29-.08-.88-.33-.68-.78s.75-.37,1.05-.34l1.91.19a13.69,13.69,0,0,1-2.91-.68A.44.44,0,0,1,298.61,226.37Z"/><g class="cls-1"><polygon class="cls-52" points="296.38 223.87 296.01 223.65 303.28 219.45 303.66 219.67 296.38 223.87"/><polygon class="cls-53" points="296.79 235.64 296.76 224.09 296.76 224.09 296.76 224.09 296.01 223.65 296.04 235.2 296.41 235.42 296.41 235.41 296.41 235.42 296.79 235.64"/><polygon class="cls-54" points="296.38 223.87 303.66 219.67 303.68 231.22 296.41 235.42 296.38 223.87"/></g><g class="cls-1"><polygon class="cls-38" points="296.77 224.62 296.4 224.41 303.67 220.21 304.04 220.42 296.77 224.62"/><polygon class="cls-54" points="297.13 224.3 304.4 220.1 304.44 231.66 297.16 235.85 297.13 224.3"/></g><g class="cls-1"><polygon class="cls-52" points="297.5 224.52 297.13 224.3 304.4 220.1 304.78 220.32 297.5 224.52"/><polygon class="cls-53" points="297.54 236.07 297.5 224.52 297.5 224.52 297.5 224.52 296.01 223.65 296.04 235.2 297.16 235.85 297.16 235.85 297.16 235.85 297.54 236.07"/><polygon class="cls-52" points="297.81 224.28 296.54 223.54 296.54 223.56 296.32 223.56 296.01 223.65 297.5 224.52 297.81 224.28"/><polygon class="cls-54" points="297.5 224.52 304.78 220.32 304.81 231.87 297.54 236.07 297.5 224.52"/></g><g id="globe"><path class="cls-33" d="M302,229.38a6.58,6.58,0,0,0,2-3.63h0a.77.77,0,0,0,0-.15,2.27,2.27,0,0,0-.76-2.32l-.05,0,0,0a1.73,1.73,0,0,0-.46-.12,1.94,1.94,0,0,0-.71,0h-.08a2.85,2.85,0,0,0-.71.3,5.83,5.83,0,0,0-2,2.13c-1.09,1.9-1.1,3.95,0,4.59l.05,0,0,0a2,2,0,0,0,.37.11,2.16,2.16,0,0,0,1.19-.17l.08,0h0l.3-.16a3.82,3.82,0,0,0,.68-.5.39.39,0,0,0,.1-.08Zm.38-2.1a8.9,8.9,0,0,0,.7-1.63l.32,0,.39-.11a5.54,5.54,0,0,1-.69,2.18Zm-3.83,1v0a3.54,3.54,0,0,1,.6-.12,1.6,1.6,0,0,0-.05.21,5.44,5.44,0,0,0-.17,1.28A2.18,2.18,0,0,1,298.59,228.24Zm.35-.3a1.89,1.89,0,0,0-.34.09,5.35,5.35,0,0,1,.7-2.25l.68.38a8.62,8.62,0,0,0-.73,1.73A1.54,1.54,0,0,0,298.94,227.94Zm2.1-3.69c0,.1.07.19.11.27a8.72,8.72,0,0,0-1.06,1.45l-.68-.39a5.6,5.6,0,0,1,1.53-1.7C301,224,301,224.13,301,224.25Zm.18.4a1.83,1.83,0,0,0,.69.74l-.7,1.21-1-.57A8,8,0,0,1,301.22,224.65Zm-1.12,1.58,1,.56-.74,1.3a2,2,0,0,0-1-.21A7.61,7.61,0,0,1,300.1,226.23Zm1.12.63,1,.55a7.8,7.8,0,0,1-1.06,1.43,2,2,0,0,0-.65-.69Zm.11-.2.69-1.21a1.91,1.91,0,0,0,1,.21,8.35,8.35,0,0,1-.67,1.55Zm1.85-1.21a2.81,2.81,0,0,0,.08-.31,6.33,6.33,0,0,0,.18-1.31,2.17,2.17,0,0,1,.4,1.39v.09A3.11,3.11,0,0,1,303.18,225.45Zm.09-1.79a5.53,5.53,0,0,1-.23,1.8,1.87,1.87,0,0,1-.91-.2l1-1.72Zm-.27-.18-1,1.72a1.93,1.93,0,0,1-.66-.7,5.67,5.67,0,0,1,1.42-1.1Zm-1.49.68-.21.21a2.73,2.73,0,0,1-.2-.59l.12-.08a2.35,2.35,0,0,1,1.31-.35A6.7,6.7,0,0,0,301.51,224.16Zm-2.38,5.61a6,6,0,0,1,.2-1.69,1.91,1.91,0,0,1,.92.2l-.93,1.63A1.33,1.33,0,0,1,299.13,229.77Zm.3.2.93-1.62a1.76,1.76,0,0,1,.63.64,5.75,5.75,0,0,1-1.37,1.06Zm1.79-.22a2.23,2.23,0,0,1-1.37.35,6.33,6.33,0,0,0,1-.82l.17-.16a2.65,2.65,0,0,1,.21.6Zm.11-.46a1.53,1.53,0,0,0-.13-.32,8.45,8.45,0,0,0,1.11-1.5l.72.41a5.6,5.6,0,0,1-1.6,1.74C301.4,229.51,301.37,229.4,301.33,229.29Z"/><path class="cls-33" d="M303.05,226.5l-1.47.63.24.31c-2.28,3.24-3.55,1.7-3.55,1.7.82,2.65,3.35-.25,4-1.11l.28.36Z"/></g><path class="cls-33" d="M298.05,233l.42-.24c.13-.08.29-.13.29.18a.54.54,0,0,1-.29.54l-.17.07v.4l-.25.14Zm.39.25c.06,0,.07-.08.07-.16s0-.1-.07-.07l-.14.08v.23Z"/><path class="cls-33" d="M299,232.45l.29-.17.29.92-.26.15-.06-.16-.25.15,0,.22-.26.15Zm.22.53-.07-.26-.08.34Z"/><path class="cls-33" d="M299.61,232.39a.5.5,0,0,1,.25-.44.86.86,0,0,1,.4-.18V232l-.31.16c-.07,0-.09.06-.09.13h0c0,.05,0,.07.07,0l.12-.07c.2-.12.24.06.24.17v.05a.52.52,0,0,1-.26.49,1.1,1.1,0,0,1-.4.18v-.23l.34-.17s.07-.06.07-.11v0c0-.05,0-.06-.06,0l-.12.07c-.25.14-.25-.1-.25-.17Z"/><path class="cls-33" d="M300.37,231.94a.53.53,0,0,1,.26-.44,1.14,1.14,0,0,1,.4-.18v.23a2.29,2.29,0,0,0-.31.16c-.07,0-.09.06-.09.12v0s0,.06.07,0l.12-.07c.2-.11.24.06.24.18V232a.49.49,0,0,1-.26.48,1,1,0,0,1-.4.18v-.22l.34-.18c.05,0,.07-.06.07-.1v0s0-.06-.07,0l-.11.06c-.25.15-.26-.09-.26-.16Z"/><path class="cls-33" d="M301.15,231.21l.42-.24c.13-.08.29-.13.29.18a.54.54,0,0,1-.29.54l-.17.07v.4l-.25.14Zm.39.25a.17.17,0,0,0,.07-.16c0-.07,0-.1-.07-.07l-.14.08v.23Z"/><path class="cls-33" d="M302.31,230.54c.22-.13.39-.18.39.33a.73.73,0,0,1-.39.77c-.24.13-.4.18-.4-.32S302.09,230.66,302.31,230.54Zm0,.84c.11-.06.14-.13.14-.37s0-.28-.14-.22-.14.12-.14.39S302.18,231.45,302.31,231.38Z"/><path class="cls-33" d="M302.78,230.27l.43-.25c.16-.09.29-.08.29.19a.47.47,0,0,1-.14.4l.16.32-.29.17-.12-.32-.08,0v.4l-.25.15Zm.39.24c.07,0,.07-.08.07-.16s0-.1-.07-.06l-.13.08v.22Z"/><path class="cls-33" d="M303.55,229.82l.74-.42v.26l-.25.14v.83l-.25.15V230l-.24.13Z"/><path class="cls-27" d="M306.12,232.41l-.93,0a8.8,8.8,0,0,1-.85-3.42,16.08,16.08,0,0,1,.53-5.21c2.41.93,4.5,4.7,5,4.64l1.55-.39,1.83.63c2.79,2.47,3.42,3.82-4.51,3C307.92,231.8,307.41,232.51,306.12,232.41Z"/><path class="cls-27" d="M307.2,224.35l-2.82-2.14s-.42-.39-.51-.07a2.33,2.33,0,0,0,1,2c.31.24,1.25,1.09,1.25,1.09a12.12,12.12,0,0,0,.93,3.2s.92,1.73,1.53,1.38a1.34,1.34,0,0,0,.53-1.43L308.6,227S307.4,224.7,307.2,224.35Z"/><path class="cls-55" d="M357.62,233.55s5.1,5.12,1.52,11.3-30.33.14-32.93-2.14-19.34-9.4-20.32-11.35,1.14-3.91,3.74-3.58,12.67,3.21,20.81,8.42C330.44,236.2,352.19,231.37,357.62,233.55Z"/><path class="cls-55" d="M354.63,341.77s.42,3.08-.14,4.34a3.16,3.16,0,0,1-4.34.84A44.59,44.59,0,0,1,346,343s-4.49-2.38-4.9-3.64,1.11-2.38,2.38-2.1,4.9,2.52,6.58,2.52S354.07,340.23,354.63,341.77Z"/><path class="cls-56" d="M359.25,276.19s-3.92,64.68-4.41,66.55-5.57,2.95-6.52,0c-.59-1.89-2.07-61.75-2.07-61.75Z"/><path class="cls-55" d="M341.67,345.62a1,1,0,0,1,.34.75c0,.89,0,2.87-.53,3.64a3.77,3.77,0,0,1-4.87.91c-1.81-1-7.4-5.16-8.53-6.08a3.35,3.35,0,0,1-1.13-1.78,1,1,0,0,1,.58-1.18,4.85,4.85,0,0,1,3.35-.38c1.85.62,4.18,2.62,6.69,2.51A6.15,6.15,0,0,1,341.67,345.62Z"/><path class="cls-57" d="M333,276.89c.28-2.69,3.5-3.57,6.46-2.65,5.65-.3,14.41-.06,14.71,4.33.46,6.49-2.59,11.13-5.53,14.28-2.17,2.33-3.61,6.78-4.22,9-.51,17.15-1.65,41.34-2.36,43.66-1.14,3.73-6.77,3.56-7-.07C333.92,333.12,333,276.89,333,276.89Z"/><path class="cls-55" d="M333,278.91c.67,3.32,10.13,5,15.66,4.09s11.49-3.59,11.29-10c0,0-1.05-15.33-.63-18.06a77.08,77.08,0,0,0,1.47-12.61,14.89,14.89,0,0,0-3.17-8.77s-3.1-3.54-12.83-1.55c0,0-7.94,1.73-11.59,7.6,0,0-2.52,6.44-1.68,19.88S333,278.91,333,278.91Z"/><path class="cls-58" d="M352.39,224.89s-.84,4.9,0,7.14c.14,1.12-4.76,4.9-9.1,3.92-2.52-.55-2.38-1.82-2.38-1.82s2.1-3.5,1.82-6.86S349.45,224.19,352.39,224.89Z"/><circle class="cls-59" cx="347.56" cy="215.02" r="11.55" transform="translate(127.99 559.72) rotate(-89.25)"/><path class="cls-59" d="M336,215.79s-.14,11.57,2.38,13.91,6.4-2.19,12.58-3.64-5-13.62-5-13.62Z"/><path class="cls-60" d="M357.44,206.21a14.72,14.72,0,0,0-9.8-4.79c-6.2-.4-9.2,1.59-11.6,1.4a3.61,3.61,0,0,0-3.8,4.79c.8,3,2.6,6,6.6,6s5-.61,5-.61-3.2,1.4-3.6,4.2a62.23,62.23,0,0,0-.4,7h1s.8-4.59,2.4-4.59,1.6,5,.2,5.79l-1.4.8s2.69,5,4.15,5.19,6.25-3.38,6.25-3.38,8-3.81,8.8-10S357.44,206.21,357.44,206.21Z"/><path class="cls-59" d="M321.39,251.39c1.92-1.43,2.29-4.17,0-6.22L310.13,232c0-.07,0-.12,0-.13,0-.53-.1-1.06-.17-1.58-.12-1-.59-2-.73-3,0-.31,0-1.28-.32-1.49a.31.31,0,0,0-.23,0c-1.15.43-.55,1.85-.4,2.68.06.32,0,.68.07,1l-1.67-2.26c-.32-.43-1.85-2.66-2.37-2.26-.25.19,0,.61.09.83a22.62,22.62,0,0,0,1.7,2.73l-1.66-2.16c-.25-.33-1.31-1.58-1.79-1.15a.38.38,0,0,0-.07.47,11.9,11.9,0,0,0,1.61,2.24c-.41-.45-.83-.89-1.25-1.34-.18-.19-.55-.53-.87-.38s-.15.68,0,.9a18.94,18.94,0,0,0,2.09,2.64c-.76-.46-2.55-2.55-2.6-1.75a1,1,0,0,0,.22.61c.73,1.13,1.14,1.82,1.86,2.93a13,13,0,0,0,1.22,1.55c.47.49.84.87,1.28,1.39.08.1,9.21,16,9.21,16a4.31,4.31,0,0,0,6.09.88Z"/><path class="cls-55" d="M336.6,238.26s5.13,2.44,2.93,8.79S321,255.84,319,253.88s-10.5-12-12.94-19.53c0,0,1-2.93,4.88-1.71,0,0,9.28,11.72,10.74,12.94S334.16,237.77,336.6,238.26Z"/><path class="cls-3" d="M336,220.09s2.41,3,5.38,2a7.55,7.55,0,0,0,.66,4.09l1,3.19s-4.54,2.66-5.5-.9A77.68,77.68,0,0,1,336,220.09Z"/></g></g></svg>