<svg id="Layer_1" data-name="Layer 1" xmlns="http://www.w3.org/2000/svg" viewBox="0 0 487 374"><defs><style>.cls-1,.cls-16{fill:#91278e;}.cls-1,.cls-12{opacity:0.1;}.cls-2{fill:#f5f5f5;}.cls-3{fill:#e0e0e0;}.cls-4{fill:#231f20;}.cls-5{fill:#1a1a1a;}.cls-6{fill:#263238;}.cls-7{fill:none;stroke:#e6e6e6;stroke-miterlimit:10;}.cls-18,.cls-8{fill:#7e298a;}.cls-9{fill:#f0a12c;}.cls-10{fill:#fafbfb;}.cls-11{opacity:0.2;}.cls-13,.cls-20,.cls-23{fill:#fff;}.cls-13{opacity:0.35;}.cls-14{opacity:0.05;}.cls-15{fill:#f1f0f0;}.cls-17{fill:#e85a43;}.cls-18{fill-rule:evenodd;}.cls-19{fill:#3dc6f3;}.cls-20{opacity:0.4;}.cls-21{opacity:0.15;}.cls-22{fill:#c24b37;}</style></defs><circle class="cls-1" cx="31.36" cy="173.86" r="10.64"/><circle class="cls-1" cx="382.36" cy="265.86" r="20.36"/><path id="Floor" class="cls-2" d="M334.65,170.58c64.23,37.08,64.23,97.2,0,134.28s-168.36,37.09-232.59,0-64.23-97.21,0-134.29S270.42,133.5,334.65,170.58Z"/><path id="Shadow" class="cls-3" d="M251.27,325.5l90-51.94c2-1.13,2-3,0-4.12L170.92,171.11a7.88,7.88,0,0,0-7.14,0l-90,51.94c-2,1.14-2,3,0,4.12L244.13,325.5A7.88,7.88,0,0,0,251.27,325.5Z"/><g id="Device"><g id="Device-2" data-name="Device"><path class="cls-4" d="M335.78,255.91c1.28,1,1.14,2.4-.41,3.29l-84.91,49a6.86,6.86,0,0,1-6.18,0L82,214.53c-1.57-.91-1.7-2.34-.36-3.32a6.86,6.86,0,0,0-2.73,5.11v4.08A6.76,6.76,0,0,0,82,225.75l162.26,93.69a6.8,6.8,0,0,0,6.18,0l84.91-49a6.81,6.81,0,0,0,3.09-5.35V261A6.86,6.86,0,0,0,335.78,255.91Z"/><path class="cls-5" d="M335.37,255.63,173.1,162a6.83,6.83,0,0,0-6.18,0L82,211c-1.7,1-1.7,2.58,0,3.56l162.27,93.69a6.86,6.86,0,0,0,6.18,0l84.91-49C337.07,258.22,337.07,256.62,335.37,255.63Zm-22-7.57c1.46.84,1.47,2.2,0,3.05l-77.2,44.58a5.89,5.89,0,0,1-5.3,0L104.51,222.74c-1.47-.84-1.46-2.21,0-3.05l77.2-44.58c1.47-.85,3-1.33,4.44-.49Z"/><path class="cls-6" d="M81.65,211.21a6.86,6.86,0,0,0-2.73,5.11v4.08A6.78,6.78,0,0,0,82,225.75l162.26,93.69a6.4,6.4,0,0,0,3.1.74V309a6.44,6.44,0,0,1-3.09-.74L82,214.53C80.44,213.62,80.31,212.19,81.65,211.21Z"/><path d="M132.61,191.27a1.26,1.26,0,0,0,0-2.39,4.58,4.58,0,0,0-4.14,0,1.26,1.26,0,0,0,0,2.39A4.58,4.58,0,0,0,132.61,191.27Z"/><path class="cls-7" d="M289.77,280.93c2.69-1.56,2.69-4.08,0-5.63a10.74,10.74,0,0,0-9.75,0c-2.7,1.55-2.7,4.07,0,5.63A10.8,10.8,0,0,0,289.77,280.93Z"/><path d="M130.57,199.2l16-9.23c.95-.55,1-1.41.11-1.93a3.7,3.7,0,0,0-3.35.06l-16,9.23c-1,.55-1,1.42-.11,1.93A3.7,3.7,0,0,0,130.57,199.2Z"/><path class="cls-8" d="M186.15,174.62c-1.45-.84-3-.36-4.44.49l-77.2,44.58c-1.46.84-1.47,2.21,0,3.05l126.34,72.95a5.89,5.89,0,0,0,5.3,0l77.2-44.58c1.47-.85,1.46-2.21,0-3.05Z"/><path class="cls-9" d="M186.15,174.62c-1.45-.84-3-.36-4.44.49l-77.2,44.58c-1.46.84-1.47,2.21,0,3.05l126.34,72.95a5.89,5.89,0,0,0,5.3,0l77.2-44.58c1.47-.85,1.46-2.21,0-3.05Z"/></g><path class="cls-4" d="M113.4,223.69l-.82-.47c-.18-.11-.18-.27,0-.37l.09-.06a.72.72,0,0,1,.64,0l.82.48a.19.19,0,0,1,0,.37l-.08.05A.74.74,0,0,1,113.4,223.69Z"/><path class="cls-4" d="M114.87,222.85l-1.42-.83c-.18-.1-.18-.26,0-.37l.09-.05a.72.72,0,0,1,.64,0l1.42.82a.19.19,0,0,1,0,.37l-.09.06A.72.72,0,0,1,114.87,222.85Z"/><path class="cls-4" d="M116.33,222l-2-1.17a.19.19,0,0,1,0-.37l.08-.05a.74.74,0,0,1,.65,0l2,1.17c.18.1.18.26,0,.37L117,222A.74.74,0,0,1,116.33,222Z"/><path class="cls-4" d="M117.8,221.15l-3.49-2a.19.19,0,0,1,0-.37l.09-.05a.68.68,0,0,1,.65,0l3.48,2a.19.19,0,0,1,0,.37l-.09.05A.72.72,0,0,1,117.8,221.15Z"/><path class="cls-4" d="M122,219a.29.29,0,0,1-.16,0l-.52-.3-1.64,1a.21.21,0,0,1-.24,0l-.19-.1a.3.3,0,0,1-.08-.07.15.15,0,0,1,0-.08l-.09-2.06a.2.2,0,0,1,0-.09.24.24,0,0,1,.09-.08l.23-.13a.38.38,0,0,1,.19-.06.33.33,0,0,1,.17,0l1.79,1,.37-.21a.41.41,0,0,1,.18-.07.33.33,0,0,1,.16.05l.12.07c.06,0,.08.06.08.09s0,.07-.11.11l-.36.21.51.29s.08.06.07.09,0,.07-.11.11l-.28.16A.6.6,0,0,1,122,219Zm-1-.65-1.28-.74.09,1.43Z"/><path class="cls-4" d="M123.65,217.69a3,3,0,0,1-1.66-.4c-.51-.3-.74-.62-.7-1s.37-.69.95-1A4.74,4.74,0,0,1,123,215a2.87,2.87,0,0,1,.69-.19s.08,0,.1,0,0,0,0,0l.07.21a0,0,0,0,1,0,.06l-.09,0a3.21,3.21,0,0,0-1,.39c-.4.22-.61.46-.64.7s.15.47.54.7a2.16,2.16,0,0,0,1.21.32,2.44,2.44,0,0,0,1.18-.35,3.57,3.57,0,0,0,.38-.25,1.82,1.82,0,0,0,.24-.23l-.84-.49-.68.4a.38.38,0,0,1-.18.06.28.28,0,0,1-.17-.05l-.12-.06s-.08-.07-.07-.1,0-.06.11-.1l1.09-.63a.52.52,0,0,1,.21-.07.39.39,0,0,1,.2.06l1.18.68a.25.25,0,0,1,.09.07.06.06,0,0,1,0,.07,2.49,2.49,0,0,1-1,.9A3.92,3.92,0,0,1,123.65,217.69Z"/><path class="cls-4" d="M146.46,201.68l1.94,1.12a.62.62,0,0,0,.53,0l1.95-1.12a.17.17,0,0,0,0-.31l-1.95-1.12a.53.53,0,0,0-.52,0l-1.95,1.12A.17.17,0,0,0,146.46,201.68Z"/><path class="cls-4" d="M147.8,200.16a1.91,1.91,0,0,0-1.66,0c-.38.21-.38.55,0,.77l.66.38.5-.09-.67-.39a.31.31,0,0,1,0-.58.69.69,0,0,1,.68,0l.67.39.49-.1Z"/><path class="cls-4" d="M183.17,179.71a1.9,1.9,0,0,0-.94.21l-4.92,2.84c-.43.24-.43.63,0,.87l1.79,1a2,2,0,0,0,.94.21,2.15,2.15,0,0,0,.45,0,1.66,1.66,0,0,0,.49-.17l4.92-2.84c.42-.25.43-.63,0-.88l-1.79-1A1.9,1.9,0,0,0,183.17,179.71Zm-3.13,5a.83.83,0,0,1-.4-.11l-1.79-1a.36.36,0,0,1,0-.67l4.92-2.84a1.14,1.14,0,0,1,.26-.09l.14,0a.83.83,0,0,1,.4.11l1.79,1a.35.35,0,0,1,0,.66l-4.92,2.84A.8.8,0,0,1,180,184.67Z"/><path class="cls-4" d="M180.18,184.32l-.07,0-1.61-.93a.26.26,0,0,1,0-.49l4.43-2.56.09,0,.07,0,1.62.93a.27.27,0,0,1,0,.5l-4.43,2.55A.16.16,0,0,1,180.18,184.32Z"/><path class="cls-4" d="M184.36,179.78a1.27,1.27,0,0,1,1,.2l.33.19c.37.21.53.47.35.59l-.32.2L184,180Z"/><path class="cls-4" d="M156.19,228.22a8,8,0,0,0,3.47-1c2-1.16,2.53-2.74-.66-4.73a3.9,3.9,0,0,1-2.1,2.82c-2.73,1.58-5.85,2-8.36.54s-1.63-3.58,1.11-5.16a11.63,11.63,0,0,1,11.61,0c4.66,2.68,3.61,5.53.32,7.43a13,13,0,0,1-5.62,1.68Zm1.17-6.55a6.55,6.55,0,0,0-6,0c-1.31.76-1.57,1.85-.12,2.69a4.55,4.55,0,0,0,4.68-.23A2.56,2.56,0,0,0,157.36,221.67Z"/><path class="cls-4" d="M163.1,216.49a3.62,3.62,0,0,1,3.33-.23c.85.49.66,1.31-.39,1.92a3.68,3.68,0,0,1-3.36.24C161.84,217.93,162.05,217.1,163.1,216.49Zm6.45,3.72a3.6,3.6,0,0,1,3.32-.23c.85.49.67,1.32-.39,1.92a3.7,3.7,0,0,1-3.35.25C168.28,221.66,168.49,220.82,169.55,220.21Z"/><path class="cls-4" d="M170.66,215.72c-4.06-2.34-4.06-4.78-.74-6.7s7.55-1.9,11.59.43,4.16,4.84.85,6.76S174.71,218.05,170.66,215.72Zm8.08-4.68c-3.39-1.95-5.57-1.94-7.12-1s-1.59,2.16,1.8,4.12,5.71,2,7.24,1.11S182.13,213,178.74,211Z"/><path class="cls-4" d="M183.54,208.27c-4-2.33-4-4.77-.74-6.69s7.56-1.9,11.59.43,4.17,4.84.85,6.76S187.59,210.61,183.54,208.27Zm8.09-4.67c-3.39-1.95-5.57-1.93-7.13-1s-1.59,2.16,1.8,4.12,5.71,2,7.25,1.11S195,205.56,191.63,203.6Z"/><path class="cls-8" d="M162.77,246.31l64.85-37.44a5.49,5.49,0,0,1,5,0l16.58,9.57c1.37.79,1.37,2.07,0,2.87l-64.85,37.43a5.46,5.46,0,0,1-5,0l-16.58-9.58C161.4,248.38,161.4,247.1,162.77,246.31Z"/><path class="cls-10" d="M169.71,247.58l11.6,6.7a2.37,2.37,0,0,0,2.14,0l17.1-9.88a.65.65,0,0,0,0-1.23l-11.6-6.7a2.37,2.37,0,0,0-2.14,0l-17.1,9.87A.66.66,0,0,0,169.71,247.58Z"/><polygon class="cls-8" points="187.22 244.36 200.99 243.81 187.28 243.61 187.83 236.21 185.59 245.34 169.27 246.95 182.59 246.33 182.26 254.53 183.28 246.29 187.09 246.11 187.22 244.36"/><path class="cls-10" d="M194.46,233l16.76-9.63a3,3,0,0,1,2.69,0c.73.42.71,1.12-.06,1.56l-16.75,9.63a3,3,0,0,1-2.7,0C193.67,234.09,193.7,233.39,194.46,233Z"/><path class="cls-10" d="M199.61,235.93l34-19.63a3,3,0,0,1,2.7,0c.72.42.7,1.12-.06,1.56l-34,19.62a3,3,0,0,1-2.7,0C198.83,237.06,198.85,236.37,199.61,235.93Z"/><path class="cls-10" d="M204.77,238.9l34-19.62a3,3,0,0,1,2.7,0c.73.42.7,1.11-.06,1.55l-34,19.63a3,3,0,0,1-2.7,0C204,240,204,239.34,204.77,238.9Z"/></g><g id="Open_Envelope" data-name="Open Envelope"><path class="cls-8" d="M155.34,111.06,265.28,47.59l4.4,2.54a4.58,4.58,0,0,1,2.06,3.58v81.1a4.61,4.61,0,0,1-2.06,3.58L163.87,199.48a4.62,4.62,0,0,1-4.13,0l-2.33-1.35a4.59,4.59,0,0,1-2.07-3.58Z"/><path class="cls-11" d="M155.34,111.06,265.28,47.59l4.4,2.54a4.58,4.58,0,0,1,2.06,3.58v81.1a4.61,4.61,0,0,1-2.06,3.58L163.87,199.48a4.62,4.62,0,0,1-4.13,0l-2.33-1.35a4.59,4.59,0,0,1-2.07-3.58Z"/><path class="cls-8" d="M264.67,40.46l.45-.25-1.71-1h0A3.74,3.74,0,0,0,263,39L214.57,21.07a3.33,3.33,0,0,0-3.71,1.19l-54.13,79a9.32,9.32,0,0,0-1.39,4.51v5.25l1.67,1L265.28,47.59V42.34A3.55,3.55,0,0,0,264.67,40.46Z"/><path class="cls-12" d="M213.1,22.64a2.41,2.41,0,0,0-.56.59l-54.13,79a8.43,8.43,0,0,0-1,2.26l-1.68-1a10.62,10.62,0,0,1,.44-1.2l0,0a4.23,4.23,0,0,1,.23-.48.25.25,0,0,1,0-.07,3.58,3.58,0,0,1,.29-.48l54.12-79a2.78,2.78,0,0,1,.27-.33l.29-.26Z"/><path class="cls-13" d="M265.1,40.2a3.21,3.21,0,0,0-.46-.22L216.25,22.05a3.31,3.31,0,0,0-3.15.59l-1.68-1a3.34,3.34,0,0,1,3.15-.6L263,39a3.11,3.11,0,0,1,.45.22Z"/><path class="cls-8" d="M156.44,101.77c.1-.17.19-.33.29-.47C156.63,101.44,156.54,101.6,156.44,101.77Z"/><path class="cls-8" d="M211.13,21.93l.29-.26Z"/><path class="cls-8" d="M155.72,103.56a9,9,0,0,1,.44-1.2A9,9,0,0,0,155.72,103.56Z"/><path class="cls-8" d="M156.17,102.32l.24-.47Z"/><path class="cls-11" d="M156.16,102.36s0,0,0,0S156.16,102.35,156.16,102.36Z"/><path class="cls-11" d="M156.41,101.85l0-.08Z"/><path class="cls-11" d="M210.86,22.26a2.16,2.16,0,0,1,.27-.33A2.16,2.16,0,0,0,210.86,22.26Z"/><path class="cls-8" d="M212.54,23.23l-54.13,79a9.4,9.4,0,0,0-1.4,4.51V112L267,48.56V43.31A3.8,3.8,0,0,0,264.64,40L216.25,22.05A3.31,3.31,0,0,0,212.54,23.23Z"/><path class="cls-14" d="M267,43.31a3.53,3.53,0,0,0-.58-1.85l-109,63.07v0a8.34,8.34,0,0,0-.38,2.23V112L267,48.56Z"/><path class="cls-15" d="M262.26,21a1.26,1.26,0,0,0-.52-1.15l-3.35-1.94a1.25,1.25,0,0,0-1.26.13L167,70.13a3.94,3.94,0,0,0-1.79,3.09v108a1.25,1.25,0,0,0,.53,1.15c.32.19,3,1.75,3.35,1.93a1.23,1.23,0,0,0,1.26-.12l90.17-52.06a3.94,3.94,0,0,0,1.79-3.09Z"/><path class="cls-10" d="M170.3,184.18l90.17-52.06a3.94,3.94,0,0,0,1.79-3.09V21c0-1.14-.8-1.6-1.79-1L170.3,72.06a4,4,0,0,0-1.79,3.09v108C168.51,184.29,169.31,184.75,170.3,184.18Z"/><path class="cls-8" d="M187.08,79a8.67,8.67,0,0,1-.35,1.89,8.46,8.46,0,0,1-.69,1.58,5.66,5.66,0,0,1-.89,1.21,3.86,3.86,0,0,1-1,.76,2,2,0,0,1-1.37.33,1.2,1.2,0,0,1-.7-.44c-.1.22-.21.45-.33.67a3.35,3.35,0,0,1-.43.68,3.88,3.88,0,0,1-.63.66,4.14,4.14,0,0,1-.93.6,1.8,1.8,0,0,1-1.18.24,1.39,1.39,0,0,1-.88-.61,3.69,3.69,0,0,1-.52-1.38,9.37,9.37,0,0,1-.12-2.07,13.53,13.53,0,0,1,.29-2.27,9.79,9.79,0,0,1,.62-2,6.35,6.35,0,0,1,.92-1.55,3.69,3.69,0,0,1,1.2-1,1.4,1.4,0,0,1,1.08-.23,1.08,1.08,0,0,1,.55.51v-.23a1.36,1.36,0,0,1,.16-.57.93.93,0,0,1,.35-.38l.93-.47a.25.25,0,0,1,.33,0,.53.53,0,0,1,.12.42L183.41,81c0,.41.06.69.24.82a.52.52,0,0,0,.61,0,1.55,1.55,0,0,0,.63-.66,3.23,3.23,0,0,0,.34-1.34c.05-.48.08-1,.1-1.49s0-1,0-1.41a8.81,8.81,0,0,0-.34-2.3,2.6,2.6,0,0,0-.86-1.33,2,2,0,0,0-1.46-.31,6.19,6.19,0,0,0-2.11.72,7,7,0,0,0-1.87,1.38A9,9,0,0,0,177.23,77a12.07,12.07,0,0,0-1,2.31,14.07,14.07,0,0,0-.55,2.56c0,.23-.06.54-.08.92s0,.77-.06,1.17,0,.8,0,1.18,0,.69,0,.92a7,7,0,0,0,.37,2,3.15,3.15,0,0,0,.87,1.33,2.09,2.09,0,0,0,1.37.47,3.89,3.89,0,0,0,1.83-.52,9.69,9.69,0,0,0,1.27-.75,8.54,8.54,0,0,0,1-.76,8,8,0,0,0,.7-.76c.19-.24.37-.48.53-.72l.33-.45a1,1,0,0,1,.31-.26l1.32-.67a.28.28,0,0,1,.34,0c.1.08.13.23.11.46a1,1,0,0,1-.14.46c-.26.49-.56,1-.89,1.55a12,12,0,0,1-1.17,1.59,12.39,12.39,0,0,1-1.6,1.53A11.82,11.82,0,0,1,179.83,92a5.49,5.49,0,0,1-2.7.73,2.92,2.92,0,0,1-1.92-.78A4.48,4.48,0,0,1,174,90a10.27,10.27,0,0,1-.44-2.85c0-.23,0-.56,0-1s0-.83,0-1.27,0-.86.06-1.27,0-.72.07-1a17.77,17.77,0,0,1,.66-3.39A17.33,17.33,0,0,1,175.82,76a14.63,14.63,0,0,1,2.08-2.86,10.17,10.17,0,0,1,2.76-2.09,7,7,0,0,1,3.06-.92,2.88,2.88,0,0,1,2,.7,4.07,4.07,0,0,1,1.11,2,13.07,13.07,0,0,1,.38,3c0,.44,0,1,0,1.56S187.12,78.53,187.08,79ZM179,82.17A3.57,3.57,0,0,0,179.2,84a.63.63,0,0,0,.94.21,2.21,2.21,0,0,0,1-1.2,6.4,6.4,0,0,0,.4-2.16,3.65,3.65,0,0,0-.25-1.82q-.3-.54-1-.21a2.33,2.33,0,0,0-1,1.21A6.34,6.34,0,0,0,179,82.17Z"/><path class="cls-3" d="M168.51,183.15a1.38,1.38,0,0,0,.42,1.09l-3.24-1.87a1.24,1.24,0,0,1-.53-1.15v-108a3.59,3.59,0,0,1,.53-1.76L169,73.39a3.62,3.62,0,0,0-.53,1.77Z"/><path class="cls-16" d="M217.66,133.38c-15.66,8-29.16-1.86-30.11-22.07s11-43.18,26.69-51.22S243.4,62,244.35,82.15,233.32,125.34,217.66,133.38Zm-3.36-72.1c-15.15,7.78-26.73,30-25.82,49.56s14,29.13,29.12,21.35,26.73-30,25.82-49.56S229.45,53.5,214.3,61.28Z"/><path class="cls-9" d="M206.57,91.32c.16.19.46.11.67-.2a.85.85,0,0,0,.07-.91c-.17-.2-.46-.12-.67.19a.85.85,0,0,0-.07.92"/><path class="cls-9" d="M204.59,91.86c.26.32.74.18,1.07-.31a1.36,1.36,0,0,0,.11-1.46c-.26-.32-.74-.18-1.06.31a1.34,1.34,0,0,0-.12,1.46"/><path class="cls-9" d="M201.91,93.68c.37.44,1,.25,1.5-.44a1.88,1.88,0,0,0,.16-2c-.37-.45-1-.25-1.5.43a1.89,1.89,0,0,0-.16,2.06"/><path class="cls-9" d="M199.51,97.11c.44.53,1.22.3,1.76-.51a2.2,2.2,0,0,0,.19-2.4c-.44-.52-1.22-.29-1.76.51a2.22,2.22,0,0,0-.19,2.4"/><path class="cls-9" d="M197.92,101.58c.48.59,1.36.33,2-.57a2.48,2.48,0,0,0,.21-2.69c-.48-.58-1.36-.33-2,.58a2.44,2.44,0,0,0-.21,2.68"/><path class="cls-8" d="M203.78,108.39a1,1,0,0,0-.4.89c0,.32.29.46.55.29a1,1,0,0,0,.39-.89c0-.33-.28-.46-.54-.29"/><path class="cls-8" d="M204.78,105.83a1.57,1.57,0,0,0-.63,1.42c.06.51.45.72.86.46a1.57,1.57,0,0,0,.63-1.42c-.06-.52-.45-.73-.86-.46"/><path class="cls-8" d="M205.62,102.16a2.25,2.25,0,0,0-.88,2c.09.73.63,1,1.21.65a2.23,2.23,0,0,0,.89-2c-.09-.73-.63-1-1.22-.65"/><path class="cls-8" d="M205.19,98.58a2.59,2.59,0,0,0-1,2.33c.1.86.74,1.2,1.42.76a2.6,2.6,0,0,0,1-2.33c-.1-.86-.74-1.2-1.42-.76"/><path class="cls-8" d="M203.52,95.58a2.92,2.92,0,0,0-1.17,2.62c.12,1,.84,1.33,1.59.84a2.89,2.89,0,0,0,1.17-2.61c-.12-1-.83-1.34-1.59-.85"/><path class="cls-17" d="M194.1,101.64c.09-.37,0-.67-.29-.68s-.52.29-.61.66.05.66.3.67.52-.28.6-.65"/><path class="cls-17" d="M195.05,103.39c.14-.58-.07-1.06-.47-1.07s-.82.46-1,1,.08,1.06.47,1.07.82-.45,1-1"/><path class="cls-17" d="M196.86,105.15c.19-.82-.11-1.49-.66-1.51s-1.16.64-1.36,1.46.1,1.49.66,1.51,1.16-.64,1.36-1.46"/><path class="cls-17" d="M199.58,105.23c.22-1-.12-1.75-.77-1.76s-1.36.74-1.59,1.7.12,1.75.77,1.77,1.36-.75,1.59-1.71"/><path class="cls-17" d="M202.84,103.61c.25-1.08-.13-2-.86-2s-1.52.84-1.77,1.91.13,2,.86,2,1.52-.84,1.77-1.91"/><path class="cls-18" d="M224.8,87.88a10.39,10.39,0,0,1,.09-1.37,17.93,17.93,0,0,1,.7-3.83,18.33,18.33,0,0,1-.4,3.32c-.05.25-.06.4-.11.64l-.27,1.19a.43.43,0,0,0,0,0M221.18,90c-.06-.45.07-1.24.38-1.34a7.1,7.1,0,0,1-.38,1.34m3.37-1.92h0s0,0,0,0m-6.91,6a2.58,2.58,0,0,1,1-1.65c.12.35-.61,1.63-1,1.65m16.28-8a5.7,5.7,0,0,1,1.45-2.36c-.23,1.08-1.3,3-1.45,2.36m.12,7.26a10.45,10.45,0,0,1,.67-2.71c.28-.72.68-1.85,1-2.54a14.77,14.77,0,0,1-1.05,4.06,3.8,3.8,0,0,1-.6,1.19m-23.88,1.35a5.42,5.42,0,0,0,.79,2.67,7.5,7.5,0,0,1,.94,1.85c.06.83-.63,1.78-1.41,1.62-.23,0-.23-.09-.44,0,.09.63.81,1.37,1.58,1a3.09,3.09,0,0,0,1.41-1.63c1.66-3.25-1.61-5-1-7.54a4.9,4.9,0,0,1,1.19-2.07c.74-.79,1.26-.24,1.2-1-.08-1.13-1.52-.38-2.16.26a7.64,7.64,0,0,0-1.69,2.63,5.37,5.37,0,0,0-.31,1,5,5,0,0,0-.13,1.24m16.58-7.9c.46.55,1.07-.38,1-1s-.24-.65-.54-.46c-.57.34-.9,1-.5,1.44m-9,5.69a7.19,7.19,0,0,0-.89,1.89,5.07,5.07,0,0,0-.22,1c-.13,1.1.21,2.33,1.08,2l.06,0,.11,0a4.17,4.17,0,0,0,1.9-2.1,3.71,3.71,0,0,0,.19-.4l.54-1.17c.31-.76.71-1.93.94-2.69l.3,0a14.78,14.78,0,0,1-.53,2.08c-.21.71-.39,1.59,0,1.95s.77.17,1.15-.23a6.78,6.78,0,0,0,1.17-2,6.58,6.58,0,0,0,.54,2.21c.51.94,1.58.08,1.38-.32a8.3,8.3,0,0,1-.56-2.4c0-.41-.11-1.62-.09-2a24.21,24.21,0,0,1,.66-2.53,25.54,25.54,0,0,0,.89-5.5c0-.3-.21-1-.84-.42a3.65,3.65,0,0,0-.58.6c-1.51,2.12-1.59,6.88-1.52,9a1.26,1.26,0,0,1,0,.36,13.84,13.84,0,0,1-1.27,2.79c0-.33.53-2.27.67-2.88.4-1.75-.4-1.38-1.07-1.45.32-1.06.69-2.06.13-2.35a.63.63,0,0,0-.61.07,3.22,3.22,0,0,0-.69,2.56c.05.33.23.34.37.52a14.24,14.24,0,0,1-.79,2.14l-.33.71a7.37,7.37,0,0,1-.7,1.3c-.47.69-1.33,1.26-1.53.55a2.25,2.25,0,0,1-.07-.42c1.13-.69,2.26-1.88,1.67-3.39-.24-.62-1.06.13-1.42.64m15.68,1.75c.09.35.3.3.63.19s.92-1,1.16-1.46a11,11,0,0,0,1.08-2.88c.07-.31.1-.46.16-.79.11-.72.15-2.71.2-2.91.23-.52,1.07-1.76,1.37-2.41a2.41,2.41,0,0,0,.32-1.31A12.18,12.18,0,0,0,237,84.37c-.17.25-.28.43-.45.64,0-.37-.06-.44-.08-.72-.11-1.25.14-1.87-.63-1.59-1.3.44-2.4,2.23-2.79,3.72a11,11,0,0,1-1.13,2.67c-.05-1.07.38-3.25-.49-3.15s-1.36,1.25-1.73,2.25v0l0-.89c.11-1.09.08-1.33-.83-.48-.53.49-.18,1.18-.51,2A9.08,9.08,0,0,1,227,91.47a9.2,9.2,0,0,1,.1-1.79,13.49,13.49,0,0,0,.21-1.73c-.06-.21-1.05-1-1.43,1.74a6.23,6.23,0,0,0-.08,1.71c.25,1.57,1.6.94,2.4-.92a1.45,1.45,0,0,1,.18-.35,6,6,0,0,0,0,1c0,.39.22.18.47.19s.33.17.51-.19a22.37,22.37,0,0,1,1.32-3.92c0,1,0,1.42,0,2.19,0,.37,0,.75.2.91s.27.21.64,0c.82-.41,1.38-1.86,1.74-2.85,1.12.36,2.23-1.63,2.47-2.76a8.21,8.21,0,0,1,0,1.64c-.14.44-.74,1.68-1,2.19a22.63,22.63,0,0,0-.89,2.63,8.74,8.74,0,0,0-.46,3.06m-17.55,5.17c0-.25,0-1.08,0-1.34l.26-4.93c0-.65,0-1.31.06-2,.51-.3.82-.28,1.18-1.2-.21,0-.48.13-1.13.47a20.34,20.34,0,0,0,.07-2.31,1.13,1.13,0,0,0-1.34.82,18.41,18.41,0,0,0-.17,2.16,7.54,7.54,0,0,0-1,.62c.11.45.53.3.9.12,0,1.11-.1,2.33-.09,3.49v1a23.48,23.48,0,0,0,.17,2.49c.06.71,1,1,1.05.59"/><path class="cls-19" d="M210.4,108.44a5.63,5.63,0,0,1,.13-1.47,6,6,0,0,1,.49-1.39,4.91,4.91,0,0,1,.78-1.16,3.56,3.56,0,0,1,1-.79,1.76,1.76,0,0,1,1.25-.21,1.28,1.28,0,0,1,.85.72l-.33.32a1.17,1.17,0,0,0-.75-.57,1.51,1.51,0,0,0-1,.18,2.79,2.79,0,0,0-.85.67,4.44,4.44,0,0,0-.67,1,5,5,0,0,0-.42,1.22,4.7,4.7,0,0,0-.11,1.29,3.14,3.14,0,0,0,.23,1.12,2.07,2.07,0,0,0,.53.76,1.31,1.31,0,0,0,.73.32,1.47,1.47,0,0,0,.86-.19,2.63,2.63,0,0,0,.57-.41,3.52,3.52,0,0,0,.52-.57,3.59,3.59,0,0,0,.4-.64,1.88,1.88,0,0,0,.22-.64l.35-.05a3.21,3.21,0,0,1-.27.81,4.24,4.24,0,0,1-.46.77,4.7,4.7,0,0,1-.6.66,4.22,4.22,0,0,1-.68.48,1.89,1.89,0,0,1-1,.23,1.52,1.52,0,0,1-.86-.35,2.13,2.13,0,0,1-.6-.85A3.49,3.49,0,0,1,210.4,108.44Z"/><path class="cls-19" d="M213.15,110.82a1.87,1.87,0,0,1-1.06.25,1.63,1.63,0,0,1-.9-.36,2.49,2.49,0,0,1-.63-.88,3.84,3.84,0,0,1-.27-1.34,5.59,5.59,0,0,1,.13-1.52,5.94,5.94,0,0,1,.51-1.45,5.6,5.6,0,0,1,.82-1.21,3.88,3.88,0,0,1,1.05-.83,1.88,1.88,0,0,1,1.31-.22,1.35,1.35,0,0,1,.9.76l.06.12-.53.54-.06-.09a1.08,1.08,0,0,0-.7-.55,1.5,1.5,0,0,0-1,.18,2.92,2.92,0,0,0-.8.63,4.31,4.31,0,0,0-.63,1A4.81,4.81,0,0,0,211,107a4.66,4.66,0,0,0-.11,1.23,3.07,3.07,0,0,0,.23,1.07,1.75,1.75,0,0,0,.5.72,1.21,1.21,0,0,0,.69.31,1.83,1.83,0,0,0,1.35-.56,4.35,4.35,0,0,0,.5-.55,3.79,3.79,0,0,0,.38-.6,2,2,0,0,0,.19-.56l0-.16.58-.08,0,.16a3.49,3.49,0,0,1-.29.88,4.16,4.16,0,0,1-.49.81,4,4,0,0,1-.62.68A3,3,0,0,1,213.15,110.82Zm-.34-7a3.39,3.39,0,0,0-1,.76,5.08,5.08,0,0,0-.75,1.1,5.81,5.81,0,0,0-.46,1.33,5.14,5.14,0,0,0-.12,1.41,3.66,3.66,0,0,0,.25,1.22,2.23,2.23,0,0,0,.58.82,1.56,1.56,0,0,0,.82.33,2.29,2.29,0,0,0,1.62-.68,4.27,4.27,0,0,0,.57-.63,4.08,4.08,0,0,0,.44-.72,3.71,3.71,0,0,0,.21-.58l-.12,0a2.21,2.21,0,0,1-.21.55,3.79,3.79,0,0,1-.42.68,4.5,4.5,0,0,1-.55.6,2.06,2.06,0,0,1-1.52.63,1.42,1.42,0,0,1-.77-.34,2.13,2.13,0,0,1-.54-.79,3.2,3.2,0,0,1-.25-1.17,5.14,5.14,0,0,1,.12-1.35,5.53,5.53,0,0,1,.44-1.28,5.27,5.27,0,0,1,.7-1.06,3.09,3.09,0,0,1,.9-.71,1.58,1.58,0,0,1,1.09-.19,1.2,1.2,0,0,1,.74.52l.12-.11a1.19,1.19,0,0,0-.74-.57A1.78,1.78,0,0,0,212.81,103.78Z"/><path class="cls-19" d="M217.71,108.33a1.43,1.43,0,0,1-.68.19,1.06,1.06,0,0,1-.57-.17,1.1,1.1,0,0,1-.4-.47,1.89,1.89,0,0,1-.17-.76,2.48,2.48,0,0,1,.13-.88,3.06,3.06,0,0,1,.42-.85,4,4,0,0,1,.67-.76,4.48,4.48,0,0,1,.87-.6,5.63,5.63,0,0,1,.9-.36,2.71,2.71,0,0,1,.83-.15l0-.73a1.81,1.81,0,0,0-.53-1.4,1.09,1.09,0,0,0-1.24,0,3.14,3.14,0,0,0-.81.64,7,7,0,0,0-.85,1.07l-.17-.24a5.64,5.64,0,0,1,1.83-1.86,1.32,1.32,0,0,1,1.49,0,2.13,2.13,0,0,1,.63,1.67l.16,3.56c0,.19.08.26.2.19l0,.42s0,0-.06,0l0,0a.25.25,0,0,1-.3,0,.47.47,0,0,1-.14-.34l0-.6a5.46,5.46,0,0,1-.9,1.44A4.32,4.32,0,0,1,217.71,108.33Zm0-.4a3.76,3.76,0,0,0,.75-.52,5,5,0,0,0,.67-.71,4.33,4.33,0,0,0,.47-.79,1.63,1.63,0,0,0,.16-.74l-.06-1.28a3.8,3.8,0,0,0-1.7.47,3.61,3.61,0,0,0-.76.51,3.8,3.8,0,0,0-.58.63,2.74,2.74,0,0,0-.36.7,1.89,1.89,0,0,0-.1.74,1.45,1.45,0,0,0,.14.62.91.91,0,0,0,.33.39.82.82,0,0,0,.47.14A1.37,1.37,0,0,0,217.74,107.93Z"/><path class="cls-19" d="M217.72,108.48a1.64,1.64,0,0,1-.73.2,1.15,1.15,0,0,1-.61-.18A1.19,1.19,0,0,1,216,108a1.94,1.94,0,0,1-.18-.81,2.65,2.65,0,0,1,.13-1,4,4,0,0,1,.46-.92,4.37,4.37,0,0,1,.7-.8,4.89,4.89,0,0,1,1.83-1,2.64,2.64,0,0,1,.69-.14l0-.53a1.74,1.74,0,0,0-.5-1.31,1,1,0,0,0-1.15,0,3,3,0,0,0-.77.61,6.62,6.62,0,0,0-.82,1l-.1.14-.31-.43.09-.13a5.73,5.73,0,0,1,1.9-1.92,1.42,1.42,0,0,1,1.57,0,2.27,2.27,0,0,1,.66,1.76l.17,3.56c0,.14,0,.12.07.11l.12-.06,0,.67-.08.08-.09.06,0,0a.34.34,0,0,1-.39,0,.59.59,0,0,1-.17-.43v-.2a5.86,5.86,0,0,1-.75,1.09A4.64,4.64,0,0,1,217.72,108.48Zm.27-4.3a3.8,3.8,0,0,0-.84.58,3.6,3.6,0,0,0-.64.72,3.22,3.22,0,0,0-.39.79,2,2,0,0,0-.11.79,1.81,1.81,0,0,0,.15.7,1.16,1.16,0,0,0,.37.44,1,1,0,0,0,.53.16,1.42,1.42,0,0,0,.65-.18,3.86,3.86,0,0,0,1.18-.94,4.59,4.59,0,0,0,.67-1,4.21,4.21,0,0,1-.34.52,5.4,5.4,0,0,1-.7.74,2.41,2.41,0,0,1-1.39.71.9.9,0,0,1-.51-.15,1.13,1.13,0,0,1-.35-.42,1.74,1.74,0,0,1-.16-.68,2.3,2.3,0,0,1,.12-.82,2.94,2.94,0,0,1,.39-.77,3.88,3.88,0,0,1,.62-.67,3.57,3.57,0,0,1,.78-.53,4.05,4.05,0,0,1,1.75-.48h.07l.07,1.38a2.06,2.06,0,0,1-.1.63l.13-.32.05,1a.37.37,0,0,0,.1.26.2.2,0,0,0,.2,0v-.16c-.12,0-.19-.11-.2-.32l-.17-3.57a2.05,2.05,0,0,0-.58-1.57,1.27,1.27,0,0,0-1.41,0,5.23,5.23,0,0,0-1.68,1.67l0,0a7.17,7.17,0,0,1,.77-1,3.45,3.45,0,0,1,.85-.67,1.18,1.18,0,0,1,1.33,0,2,2,0,0,1,.57,1.49l0,1h-.16a2.87,2.87,0,0,0-.81.14A5.43,5.43,0,0,0,218,104.18Zm0,.33a3.27,3.27,0,0,0-.72.49,3,3,0,0,0-.55.59,3,3,0,0,0-.33.64,1.8,1.8,0,0,0-.09.65,1.32,1.32,0,0,0,.13.56.91.91,0,0,0,.3.36.73.73,0,0,0,.43.13,2.17,2.17,0,0,0,1.25-.65,5.11,5.11,0,0,0,.64-.68,3.36,3.36,0,0,0,.44-.74,1.29,1.29,0,0,0,.14-.63l0-1.18A4,4,0,0,0,218,104.51Z"/><path class="cls-19" d="M223.27,98.8a3.45,3.45,0,0,0-1.24,1.25,4.85,4.85,0,0,0-.68,1.89l.2,4.29-.35.18-.32-6.82.34-.17.08,1.73A5.86,5.86,0,0,1,222,99.6a3.35,3.35,0,0,1,.95-1l.19-.11.14-.07Z"/><path class="cls-19" d="M221.67,106.32l-.58.3-.33-7.12.57-.29.06,1.33a5.81,5.81,0,0,1,.51-1,3.55,3.55,0,0,1,1-1.09l.2-.12.26-.13,0,.71-.11.06a3.36,3.36,0,0,0-1.18,1.19,4.78,4.78,0,0,0-.64,1.78Zm-.36-.12.11-.06-.19-4.18a5.38,5.38,0,0,1,.72-2,3.7,3.7,0,0,1,1.2-1.25v-.13h0l-.18.1a3.07,3.07,0,0,0-.89,1,5.83,5.83,0,0,0-.65,1.48l-.19.69-.1-2.22-.11.05Z"/><path class="cls-19" d="M225.85,104.15a1.82,1.82,0,0,1-1,.24A1.6,1.6,0,0,1,224,104a2.44,2.44,0,0,1-.6-.86,3.78,3.78,0,0,1-.26-1.28,5.48,5.48,0,0,1,.13-1.45,5.8,5.8,0,0,1,.49-1.38,5.54,5.54,0,0,1,.76-1.16,3.28,3.28,0,0,1,1-.78,1.92,1.92,0,0,1,1-.25,1.46,1.46,0,0,1,.85.34,2.16,2.16,0,0,1,.6.84,3.66,3.66,0,0,1,.26,1.26v.11a.24.24,0,0,1,0,.09L223.48,102a3.22,3.22,0,0,0,.28,1.06,1.85,1.85,0,0,0,.53.68,1.32,1.32,0,0,0,.72.27,1.57,1.57,0,0,0,.84-.2,2.64,2.64,0,0,0,.56-.38,3.76,3.76,0,0,0,.91-1.21,3.24,3.24,0,0,0,.27-.71l.32,0a4,4,0,0,1-.29.82,5.73,5.73,0,0,1-.48.79,5.48,5.48,0,0,1-.61.66A3.61,3.61,0,0,1,225.85,104.15Zm2-4.84a3.29,3.29,0,0,0-.26-1.07,1.85,1.85,0,0,0-.53-.68,1.31,1.31,0,0,0-.71-.26,1.69,1.69,0,0,0-.84.21,2.84,2.84,0,0,0-.83.66,4.75,4.75,0,0,0-.65,1,6,6,0,0,0-.42,1.17,5.44,5.44,0,0,0-.15,1.27Z"/><path class="cls-19" d="M225.85,104.3a1.89,1.89,0,0,1-1.07.25,1.57,1.57,0,0,1-.89-.37,2.29,2.29,0,0,1-.62-.89A4.07,4.07,0,0,1,223,102a6,6,0,0,1,.14-1.51,6,6,0,0,1,.51-1.44,5.41,5.41,0,0,1,.8-1.21,3.45,3.45,0,0,1,1-.82,2,2,0,0,1,1.08-.26,1.56,1.56,0,0,1,.88.35,2.25,2.25,0,0,1,.62.88,3.67,3.67,0,0,1,.27,1.31v.11a.45.45,0,0,1,0,.22l0,.06L223.61,102a3.24,3.24,0,0,0,.25.86,1.84,1.84,0,0,0,.51.66,1.28,1.28,0,0,0,.68.25,1.85,1.85,0,0,0,1.32-.55,4,4,0,0,0,.48-.52,3,3,0,0,0,.38-.62,3.56,3.56,0,0,0,.25-.66l0-.13.54-.1,0,.19a4.41,4.41,0,0,1-.31.88,4.33,4.33,0,0,1-.51.82,4.17,4.17,0,0,1-.63.69A3,3,0,0,1,225.85,104.3Zm-.37-7a3.07,3.07,0,0,0-.93.74,5.8,5.8,0,0,0-.74,1.11,5.89,5.89,0,0,0-.46,1.32,4.68,4.68,0,0,0-.12,1.39,3.54,3.54,0,0,0,.25,1.23,2,2,0,0,0,.58.82,1.43,1.43,0,0,0,.81.34,2.29,2.29,0,0,0,1.62-.68,5.86,5.86,0,0,0,.59-.63,5,5,0,0,0,.45-.74,5.37,5.37,0,0,0,.22-.59h-.09a4.12,4.12,0,0,1-.25.63,4.25,4.25,0,0,1-.43.7,3.25,3.25,0,0,1-.54.57,2.06,2.06,0,0,1-1.47.62,1.38,1.38,0,0,1-.76-.28,1.86,1.86,0,0,1-.55-.72,3.47,3.47,0,0,1-.3-1.1l0-.15,4.75-2.44v-.05a3.38,3.38,0,0,0-.25-1.21,2,2,0,0,0-.57-.81,1.38,1.38,0,0,0-.81-.32A1.89,1.89,0,0,0,225.48,97.28ZM228,99.4l-4.64,2.38v-.16a6,6,0,0,1,.16-1.33,6.12,6.12,0,0,1,.45-1.22,4.65,4.65,0,0,1,.68-1,2.46,2.46,0,0,1,1.76-.91,1.45,1.45,0,0,1,.75.27,1.86,1.86,0,0,1,.55.72,3.47,3.47,0,0,1,.28,1.12Zm-4.4,2,4.14-2.13a2.63,2.63,0,0,0-.24-.87,1.68,1.68,0,0,0-.5-.65,1.25,1.25,0,0,0-.67-.25,2.15,2.15,0,0,0-1.57.82,4.29,4.29,0,0,0-.62.91,5.25,5.25,0,0,0-.54,2.17Z"/><path class="cls-19" d="M230.53,101.75a2.7,2.7,0,0,1-1.15.33,1.49,1.49,0,0,1-1-.34l.17-.4a1.82,1.82,0,0,0,.91.3,2.19,2.19,0,0,0,1-.26,3.28,3.28,0,0,0,1.18-1,2.2,2.2,0,0,0,.4-1.37,1,1,0,0,0-.14-.51.67.67,0,0,0-.36-.22,1.8,1.8,0,0,0-.57,0c-.22,0-.48.07-.77.13a7.59,7.59,0,0,1-.76.13,1.23,1.23,0,0,1-.55,0,.54.54,0,0,1-.34-.27,1.5,1.5,0,0,1-.13-.61,3,3,0,0,1,.11-1,3,3,0,0,1,.39-.82,3.07,3.07,0,0,1,.58-.67,3.52,3.52,0,0,1,.72-.49,2.14,2.14,0,0,1,1.11-.29.94.94,0,0,1,.71.35l-.22.34a.84.84,0,0,0-.69-.26,2,2,0,0,0-.92.26,3.3,3.3,0,0,0-.59.38,2.63,2.63,0,0,0-.47.53,2.78,2.78,0,0,0-.31.65,2.25,2.25,0,0,0-.09.74,1.13,1.13,0,0,0,.11.48.42.42,0,0,0,.27.22,1.18,1.18,0,0,0,.46,0c.18,0,.4-.07.67-.12s.62-.12.87-.15a2,2,0,0,1,.66,0,.65.65,0,0,1,.42.28,1.27,1.27,0,0,1,.17.66,2.62,2.62,0,0,1-.1.89,3.63,3.63,0,0,1-.37.83,3.53,3.53,0,0,1-.61.73A4.44,4.44,0,0,1,230.53,101.75Z"/><path class="cls-19" d="M230.53,101.9a2.59,2.59,0,0,1-1.19.33,1.59,1.59,0,0,1-1-.34l-.07-.06.31-.7.1.06a1.73,1.73,0,0,0,.87.29,2,2,0,0,0,1-.25,3.1,3.1,0,0,0,1.12-1A2,2,0,0,0,232,99a.77.77,0,0,0-.12-.44.52.52,0,0,0-.31-.19,1.62,1.62,0,0,0-.54,0c-.23,0-.48.07-.77.13a7.73,7.73,0,0,1-.77.13,1.37,1.37,0,0,1-.58,0,.61.61,0,0,1-.38-.31,1.75,1.75,0,0,1-.15-.67,3.19,3.19,0,0,1,.13-1,3.44,3.44,0,0,1,.41-.89,4.21,4.21,0,0,1,.62-.71,3.82,3.82,0,0,1,.75-.51,2.35,2.35,0,0,1,1.16-.3,1,1,0,0,1,.76.38l.07.09-.4.6-.07-.08a.79.79,0,0,0-.63-.25,2.13,2.13,0,0,0-.89.26,2.59,2.59,0,0,0-.56.37,2.46,2.46,0,0,0-.43.48,1.93,1.93,0,0,0-.27.58,1.76,1.76,0,0,0-.08.66,1.05,1.05,0,0,0,.09.42.35.35,0,0,0,.23.18,1,1,0,0,0,.42,0,5.22,5.22,0,0,0,.66-.12c.34-.07.63-.12.89-.15a2.17,2.17,0,0,1,.68,0,.8.8,0,0,1,.47.31,1.49,1.49,0,0,1,.19.73,3.48,3.48,0,0,1-.11,1,3.77,3.77,0,0,1-.41.89,3.59,3.59,0,0,1-.64.77A4.12,4.12,0,0,1,230.53,101.9Zm-2-.25a1.36,1.36,0,0,0,.85.26,2.46,2.46,0,0,0,1.11-.31,3.46,3.46,0,0,0,.78-.53,3.61,3.61,0,0,0,.57-.68,3.22,3.22,0,0,0,.34-.76,2.5,2.5,0,0,0,.1-.82,1.28,1.28,0,0,0-.15-.59.59.59,0,0,0-.38-.25,1.86,1.86,0,0,0-.63,0q-.37,0-.87.15c-.27,0-.49.1-.67.12a1.12,1.12,0,0,1-.49,0,.47.47,0,0,1-.32-.25,1.27,1.27,0,0,1-.12-.54,2.23,2.23,0,0,1,.1-.82,2.64,2.64,0,0,1,.34-.72,2.74,2.74,0,0,1,.51-.57,3.56,3.56,0,0,1,.61-.4,2.36,2.36,0,0,1,1-.28,1,1,0,0,1,.66.22l0-.08a.91.91,0,0,0-.59-.24,2.11,2.11,0,0,0-1.07.28,4.43,4.43,0,0,0-.69.47,3,3,0,0,0-.54.63,2.72,2.72,0,0,0-.35.75,2.51,2.51,0,0,0-.1.88,1.43,1.43,0,0,0,.11.55.49.49,0,0,0,.29.24,1.48,1.48,0,0,0,.52,0,5.5,5.5,0,0,0,.76-.13l.78-.13a1.93,1.93,0,0,1,.59,0,.67.67,0,0,1,.4.25,1.11,1.11,0,0,1,.17.58,2.53,2.53,0,0,1-.45,1.53,3.42,3.42,0,0,1-1.24,1.08,2.28,2.28,0,0,1-1.06.27,1.93,1.93,0,0,1-.84-.25Z"/><path class="cls-8" d="M269,135.89a.57.57,0,0,1-.11.16L223,121.53a7.9,7.9,0,0,0-9.91,3l-49,72.79-1.81,1h0a1.46,1.46,0,0,1-1.4.16l50.37-75a7.91,7.91,0,0,1,9.91-3.06Z"/><path class="cls-20" d="M208.62,131.72l.11-.1-44.58,65.75-1.82,1h0a1.5,1.5,0,0,1-1.41.15l45.94-67.92Z"/><path class="cls-20" d="M269,135.89a.88.88,0,0,1-.12.17L223,121.52a7.9,7.9,0,0,0-9.9,3l-1.81-1a7.9,7.9,0,0,1,9.89-3Z"/><path class="cls-8" d="M271.71,53.19h0c-.1-.59-.41-.76-.82-.48a2.55,2.55,0,0,0-.53.55l-.23.32-45.21,68.73-6.75,9.41a3.87,3.87,0,0,1-3.72,1.39l-5.82-1.39-44.49-16.37a2.13,2.13,0,0,0-.9,0,1.93,1.93,0,0,0-.34.11l1.67-1,42.65,15.63,5.62,2a3.85,3.85,0,0,0,3.72-1.4l6.75-9.39,45.43-69.06a2,2,0,0,1,.51-.47l-3.93-2.26,1.65-.95,2.72,1.56A4.73,4.73,0,0,1,271.71,53.19Z"/><path class="cls-20" d="M224.91,122.31l-6.75,9.4a3.85,3.85,0,0,1-3.72,1.39l-5.82-1.38.11-.1.28-.44,3.82.9a3.8,3.8,0,0,0,3.71-1.39l6.69-9.3Z"/><path class="cls-12" d="M269.67,50.12,267,48.55l-1.65,1,3.93,2.27h0a1.91,1.91,0,0,0-.51.47l-45.44,69.05-.06.09h0l1.68.92,45.21-68.74.23-.32a2.47,2.47,0,0,1,.53-.54c.4-.28.72-.12.82.48h0A4.7,4.7,0,0,0,269.67,50.12Z"/><path class="cls-8" d="M165,116.66l-9.7-5.6v83.49a4.59,4.59,0,0,0,2.07,3.58l2.33,1.35a4.62,4.62,0,0,0,4.13,0l1.17-.68Z"/><path class="cls-21" d="M165,116.66l-9.7-5.6v83.49a4.59,4.59,0,0,0,2.07,3.58l2.33,1.35a4.62,4.62,0,0,0,4.13,0l1.17-.68Z"/><path class="cls-8" d="M271.75,53.71v81.1a4.18,4.18,0,0,1-.65,2.09,4.57,4.57,0,0,1-1.21,1.36l-.08,0a.51.51,0,0,1-.13.09l-105.8,61.08h0a1.48,1.48,0,0,1-1.41.16,1.26,1.26,0,0,1-.62-1c0-.11,0-.23,0-.37v-81.1a1.79,1.79,0,0,1,2.32-1.83l44.49,16.37,5.82,1.39a3.87,3.87,0,0,0,3.72-1.39l6.75-9.41,45.21-68.73.23-.32C271.12,52.19,271.75,52.39,271.75,53.71Z"/><path class="cls-8" d="M269.68,138.39l.13-.08.08-.05a4.32,4.32,0,0,0,1.21-1.36,4.23,4.23,0,0,0,.64-2.05l-46.83-12.54,31.36,23.82Z"/><path class="cls-11" d="M269.68,138.39l.13-.08.08-.05a4.32,4.32,0,0,0,1.21-1.36,4.23,4.23,0,0,0,.64-2.05l-46.83-12.54,31.36,23.82Z"/><path class="cls-8" d="M161.81,198.28a1.43,1.43,0,0,0,.64,1.36,1.48,1.48,0,0,0,1.41-.16h0l36.42-21,8.32-46.72-46.81,65.21Z"/><path class="cls-21" d="M213.11,124.57l-50.66,75.07a1.43,1.43,0,0,1-.64-1.36v-1.35l49.48-73.39,0,0Z"/><path class="cls-8" d="M271.1,136.9a4.32,4.32,0,0,1-1.21,1.36l-.08.05L163.88,199.47h0a1.48,1.48,0,0,1-1.41.16l50.66-75.09a8,8,0,0,1,10-3Z"/><path class="cls-21" d="M155.72,103.56l1.68,1a8.54,8.54,0,0,0-.38,2.26V112l-1.69-1v-5.25A8.19,8.19,0,0,1,155.72,103.56Z"/><polygon class="cls-8" points="164.56 114.45 162.89 115.42 161.19 114.44 157.01 112.03 158.63 111.07 164.56 114.45"/><path class="cls-12" d="M164.64,114.48l-6-3.41L157,112l4.18,2.41,1.7,1h0a1.6,1.6,0,0,1,.31-.1,2.35,2.35,0,0,1,.91,0l3.38,1.25,38.83,14.3.61-.9Z"/></g><g id="Notification"><path class="cls-22" d="M291.3,118.32l-7.83-4.54h0l-.07,0h0c-3.42-1.93-8.11-1.64-13.29,1.35-10.43,6-18.9,20.69-18.9,32.74,0,6,2.11,10.25,5.52,12.22h0l7.13,4.09,1.67-2.8a18.74,18.74,0,0,0,5.42-2.11c10.44-6,18.9-20.68,18.91-32.73a19.88,19.88,0,0,0-.6-4.83Z"/><path class="cls-21" d="M251.92,141.49a30.61,30.61,0,0,0-.72,6.35c0,6,2.11,10.25,5.52,12.22h0l7.13,4.09,1.67-2.8a18.74,18.74,0,0,0,5.42-2.11,30.41,30.41,0,0,0,5.16-3.8Z"/><path class="cls-17" d="M277.54,119.39c-10.43,6-18.9,20.69-18.9,32.74s8.46,16.94,18.9,10.91,18.9-20.68,18.9-32.73S288,113.37,277.54,119.39Z"/><path class="cls-23" d="M285,136.17v-4.63c0-5.28-3.21-7.71-7.18-5.42h0c-4,2.29-7.17,8.43-7.17,13.71V144a16.38,16.38,0,0,1-2.41,8.08v0a4.39,4.39,0,0,0-.59,2.11h0c0,1.34.81,1.95,1.81,1.37l16.76-9.68a4.33,4.33,0,0,0,1.8-3.45h0a1.7,1.7,0,0,0-.53-1.4h0C286,140.34,285,138.67,285,136.17Z"/><path class="cls-23" d="M281.28,150.16a8.24,8.24,0,0,1-3.45,6.58c-1.9,1.09-3.44-.07-3.44-2.61Z"/></g></svg>