<svg xmlns="http://www.w3.org/2000/svg" xmlns:xlink="http://www.w3.org/1999/xlink" viewBox="0 0 487 359"><defs><style>.cls-1,.cls-18,.cls-19{fill:none;}.cls-2{isolation:isolate;}.cls-3{clip-path:url(#clip-path);}.cls-4{fill:#eaeeec;}.cls-5{fill:#de8c47;}.cls-6{fill:#fbbb88;}.cls-7{fill:#f1aa94;}.cls-8{fill:#ef8f71;}.cls-9{fill:#c8cacb;}.cls-10{fill:#dfe0e1;}.cls-11{fill:#3dc6f3;}.cls-12{opacity:0.44;}.cls-13{fill:#fff;}.cls-14{fill:#34a4ca;}.cls-15{fill:#226292;}.cls-16{fill:#082c56;}.cls-17{fill:#164d77;}.cls-18,.cls-19{stroke:#837e7c;stroke-miterlimit:10;mix-blend-mode:multiply;}.cls-18{stroke-width:6.32px;}.cls-19{stroke-width:4.74px;}.cls-20{fill:#455829;}.cls-21{fill:#5a6d36;}.cls-22{fill:#80a75f;}.cls-23{fill:#6e9151;}.cls-24{fill:#6e9252;}.cls-25{fill:#809869;}.cls-26{fill:#97b37c;}.cls-27{fill:#ee4042;}.cls-28{fill:#d1373a;}.cls-29{fill:#718c4c;}.cls-30{fill:#3977bc;opacity:0.24;}.cls-31{fill:#fbc096;}.cls-32{fill:#d23770;}.cls-33{fill:#be1e2d;}.cls-34{fill:#e38b2b;}.cls-35{fill:#f2f0ea;}.cls-36{fill:#404041;}.cls-37{fill:#643c19;}.cls-38{fill:#834f28;}.cls-39{fill:#fabd9e;}.cls-40{fill:#f2a983;}.cls-41{fill:#5e3f24;}.cls-42{fill:#ef5276;}.cls-43{fill:#eeefef;}.cls-44{fill:#2dbcb5;}.cls-45{fill:#58595b;}.cls-46{fill:#f6ac7c;}.cls-47{fill:#322a25;}.cls-48{fill:#ffc524;}</style><clipPath id="clip-path"><circle class="cls-1" cx="243.5" cy="179.5" r="173.47" transform="translate(54.75 415.9) rotate(-87.79)"/></clipPath></defs><g class="cls-2"><g id="Layer_1" data-name="Layer 1"><g class="cls-3"><polygon class="cls-4" points="21.22 3.52 21.22 272.21 184.19 272.21 465.78 272.21 465.78 3.52 21.22 3.52"/><polygon class="cls-5" points="184.19 266.9 21.22 266.9 21.22 272.21 184.19 272.21 465.78 272.21 465.78 266.9 184.19 266.9"/><rect class="cls-6" x="21.22" y="272.21" width="444.56" height="83.27"/><rect class="cls-7" x="311.29" y="48.71" width="116.8" height="223.08"/><rect class="cls-8" x="315.32" y="53.56" width="108.74" height="213.39"/><rect class="cls-9" x="311.29" y="239.97" width="116.8" height="31.82"/><polygon class="cls-10" points="335.83 271.79 321.68 271.79 336.25 239.97 350.39 239.97 335.83 271.79"/><polygon class="cls-10" points="350.75 271.79 343.68 271.79 358.24 239.97 365.32 239.97 350.75 271.79"/><polygon class="cls-10" points="388.56 271.79 374.98 271.79 389.54 239.97 403.12 239.97 388.56 271.79"/><rect class="cls-7" x="321.68" y="62.17" width="96.01" height="82.49"/><rect class="cls-11" x="327.12" y="66.34" width="85.13" height="74.16"/><g class="cls-12"><polygon class="cls-13" points="412.25 104.17 412.25 84.16 327.12 117.81 327.12 137.83 412.25 104.17"/><polygon class="cls-13" points="412.25 80.4 412.25 69.28 327.12 102.94 327.12 114.05 412.25 80.4"/></g><path class="cls-7" d="M413.57,164.37v66.49H325.8V164.37h87.77m4.12-4.12h-96V235h96V160.25Z"/><path class="cls-7" d="M417.14,152a4.42,4.42,0,1,1-4.42-4.42A4.41,4.41,0,0,1,417.14,152Z"/><rect class="cls-11" x="136.67" y="54.59" width="151.82" height="154.06"/><path class="cls-7" d="M131.23,50.42V212.81h162.7V50.42ZM288.49,129H215.2V54.59h73.29ZM210,54.59V129h-73.3V54.59Zm-73.3,79.64H210v74.41h-73.3Zm78.53,74.41V134.23h73.29v74.41Z"/><polygon class="cls-14" points="206.4 54.59 206.4 125.62 136.67 125.62 136.67 129 209.97 129 209.97 54.59 206.4 54.59"/><polygon class="cls-14" points="284.92 134.23 284.92 205.26 215.2 205.26 215.2 208.65 288.49 208.65 288.49 134.23 284.92 134.23"/><polygon class="cls-14" points="206.4 134.23 206.4 205.26 136.67 205.26 136.67 208.65 209.97 208.65 209.97 134.23 206.4 134.23"/><polygon class="cls-14" points="284.92 54.59 284.92 125.62 215.2 125.62 215.2 129 288.49 129 288.49 54.59 284.92 54.59"/><g class="cls-12"><polygon class="cls-13" points="209.97 93.13 209.97 73.12 136.67 108.99 136.67 129 209.97 93.13"/><polygon class="cls-13" points="209.97 69.36 209.97 58.24 136.67 94.11 136.67 105.23 209.97 69.36"/></g><g class="cls-12"><polygon class="cls-13" points="288.49 93.13 288.49 73.12 215.2 108.99 215.2 129 288.49 93.13"/><polygon class="cls-13" points="288.49 69.36 288.49 58.24 215.2 94.11 215.2 105.23 288.49 69.36"/></g><g class="cls-12"><polygon class="cls-13" points="209.97 171.58 209.97 151.57 136.67 187.44 136.67 207.46 209.97 171.58"/><polygon class="cls-13" points="209.97 147.81 209.97 136.69 136.67 172.56 136.67 183.68 209.97 147.81"/></g><g class="cls-12"><polygon class="cls-13" points="288.49 171.58 288.49 151.57 215.2 187.44 215.2 207.46 288.49 171.58"/><polygon class="cls-13" points="288.49 147.81 288.49 136.69 215.2 172.56 215.2 183.68 288.49 147.81"/></g><rect class="cls-15" x="21.22" y="100.06" width="97.45" height="178.27"/><rect class="cls-16" x="90.41" y="105.41" width="24.34" height="2.55"/><rect class="cls-16" x="90.41" y="109.99" width="24.34" height="2.55"/><rect class="cls-16" x="90.41" y="114.58" width="24.34" height="2.55"/><rect class="cls-16" x="90.41" y="119.16" width="24.34" height="2.55"/><rect class="cls-16" x="90.41" y="172.07" width="24.34" height="2.55"/><rect class="cls-16" x="90.41" y="176.65" width="24.34" height="2.55"/><rect class="cls-16" x="90.41" y="181.23" width="24.34" height="2.55"/><rect class="cls-17" x="90.41" y="139.52" width="3.69" height="9.63"/><rect class="cls-16" x="57.78" y="105.41" width="24.34" height="2.55"/><rect class="cls-16" x="57.78" y="109.99" width="24.34" height="2.55"/><rect class="cls-16" x="57.78" y="114.58" width="24.34" height="2.55"/><rect class="cls-16" x="57.78" y="119.16" width="24.34" height="2.55"/><rect class="cls-16" x="57.78" y="172.07" width="24.34" height="2.55"/><rect class="cls-16" x="57.78" y="176.65" width="24.34" height="2.55"/><rect class="cls-16" x="57.78" y="181.23" width="24.34" height="2.55"/><rect class="cls-17" x="57.78" y="139.52" width="3.69" height="9.63"/><rect class="cls-16" x="25.15" y="105.41" width="24.34" height="2.55"/><rect class="cls-16" x="25.15" y="109.99" width="24.34" height="2.55"/><rect class="cls-16" x="25.15" y="114.58" width="24.34" height="2.55"/><rect class="cls-16" x="25.15" y="119.16" width="24.34" height="2.55"/><rect class="cls-16" x="25.15" y="172.07" width="24.34" height="2.55"/><rect class="cls-16" x="25.15" y="176.65" width="24.34" height="2.55"/><rect class="cls-16" x="25.15" y="181.23" width="24.34" height="2.55"/><rect class="cls-17" x="25.15" y="139.52" width="3.69" height="9.63"/><rect class="cls-16" x="90.41" y="194.44" width="24.34" height="2.55"/><rect class="cls-16" x="90.41" y="199.02" width="24.34" height="2.55"/><rect class="cls-16" x="90.41" y="203.6" width="24.34" height="2.55"/><rect class="cls-16" x="90.41" y="208.18" width="24.34" height="2.55"/><rect class="cls-16" x="90.41" y="261.1" width="24.34" height="2.55"/><rect class="cls-16" x="90.41" y="265.68" width="24.34" height="2.55"/><rect class="cls-16" x="90.41" y="270.26" width="24.34" height="2.55"/><rect class="cls-17" x="90.41" y="228.54" width="3.69" height="9.63"/><rect class="cls-16" x="57.78" y="194.44" width="24.34" height="2.55"/><rect class="cls-16" x="57.78" y="199.02" width="24.34" height="2.55"/><rect class="cls-16" x="57.78" y="203.6" width="24.34" height="2.55"/><rect class="cls-16" x="57.78" y="208.18" width="24.34" height="2.55"/><rect class="cls-16" x="57.78" y="261.1" width="24.34" height="2.55"/><rect class="cls-16" x="57.78" y="265.68" width="24.34" height="2.55"/><rect class="cls-16" x="57.78" y="270.26" width="24.34" height="2.55"/><rect class="cls-17" x="57.78" y="228.54" width="3.69" height="9.63"/><rect class="cls-16" x="25.15" y="194.44" width="24.34" height="2.55"/><rect class="cls-16" x="25.15" y="199.02" width="24.34" height="2.55"/><rect class="cls-16" x="25.15" y="203.6" width="24.34" height="2.55"/><rect class="cls-16" x="25.15" y="208.18" width="24.34" height="2.55"/><rect class="cls-16" x="25.15" y="261.1" width="24.34" height="2.55"/><rect class="cls-16" x="25.15" y="265.68" width="24.34" height="2.55"/><rect class="cls-16" x="25.15" y="270.26" width="24.34" height="2.55"/><rect class="cls-17" x="25.15" y="228.54" width="3.69" height="9.63"/><line class="cls-18" x1="86.19" y1="100.06" x2="86.19" y2="278.32"/><line class="cls-18" x1="53.7" y1="100.06" x2="53.7" y2="278.32"/><line class="cls-19" x1="118.67" y1="189.19" x2="21.22" y2="189.19"/><path class="cls-20" d="M140.21,243.53a37.76,37.76,0,0,1,1.25,19.29h.76c1.21-4.35,1-9.35.31-13.93A23,23,0,0,0,141,243.3c.08.44.14.9.18,1.36Z"/><path class="cls-21" d="M101,219.36a13.22,13.22,0,0,0-8.21-.77,13.3,13.3,0,0,1,6.42,3.18A7.3,7.3,0,0,1,101,219.36Z"/><path class="cls-21" d="M116.28,229.06a36.7,36.7,0,0,1-8.11-5.14,9.17,9.17,0,0,0-4.16-.79,4.15,4.15,0,0,0-2.15,1.2c4.17,4.39,7.93,9.78,14.3,10.76,3.72.53,7.72-.53,11.44-.8,5.86-.27,7.19,2.13,10.65,6.92l2,2.32,1,1.13c0-.46-.1-.92-.18-1.36-1.44-8-8.43-11.17-15.45-12.53a12.27,12.27,0,0,1-2.12.38A12,12,0,0,1,116.28,229.06Z"/><path class="cls-22" d="M140.57,232.29l.36.23-.37-.28Z"/><path class="cls-22" d="M142.72,233.58l0,0Z"/><path class="cls-22" d="M142.29,232.57v0Z"/><path class="cls-22" d="M142.44,232.89v0Z"/><path class="cls-22" d="M142.13,232.25h0Z"/><path class="cls-22" d="M142.63,231.77a8.92,8.92,0,0,1,.21,2.17.05.05,0,0,0,0,0l0,.07-1.43-1.08c3.88,3.27,4.1,11.73,4.27,14.16.36,4.77.08,7.2.08,12.05v3.72h1.14c.27-2.75-.12-13.2-.32-14.94C146,242.68,145.58,236.38,142.63,231.77Z"/><path class="cls-22" d="M142,231.94h0Z"/><path class="cls-22" d="M142.58,233.23a0,0,0,0,1,0,0A0,0,0,0,0,142.58,233.23Z"/><path class="cls-23" d="M142.82,233.9c0-.11-.07-.22-.1-.32l0,0-.12-.31a0,0,0,0,1,0,0c0-.11-.09-.21-.13-.31v0l-.14-.3v0a2.8,2.8,0,0,0-.15-.3h0c-.06-.1-.11-.2-.16-.3h0c-2.19-3.9-6.28-5.19-10.48-5.37h0l-.3,0H128.9l-.63,0h0c-.84,0-1.67.14-2.47.23h0l-.3,0c-7.6.91-13.58-7.43-21.45-3.76a9.17,9.17,0,0,1,4.16.79c2.81,1.19,5.35,3.45,8.11,5.14a12,12,0,0,0,7.14,2.09,12.27,12.27,0,0,0,2.12-.38c2-.53,4-1.45,5.93-2,4.14-1.13,5.48.36,8.72,3.23l.37.28.37.28.49.37,1.43,1.08Z"/><path class="cls-22" d="M104,223.13c7.87-3.67,13.85,4.67,21.45,3.76l.3,0h0c.8-.09,1.63-.18,2.47-.23h0l.63,0h2.26l.3,0h0c4.2.18,8.29,1.47,10.48,5.37h0c.05.1.1.2.16.3h0a2.8,2.8,0,0,1,.15.3v0l.14.3v0c0,.1.09.2.13.31a0,0,0,0,0,0,0l.12.31,0,0c0,.1.07.21.1.32a.05.05,0,0,1,0,0,8.92,8.92,0,0,0-.21-2.17c-1.17-5.32-7.08-10.39-12.11-10.79-4.29-.43-7.41.84-12-.73-4.65-2-10.49-5.14-15.81-2.14a9.48,9.48,0,0,0-1.8,1.25,7.3,7.3,0,0,0-1.79,2.41c-1.8,4,.87,8.59.87,8.59,0-2.41.52-4.66,1.83-6A4.15,4.15,0,0,1,104,223.13Z"/><path class="cls-24" d="M151.57,237.84c-.11-2-1.06-5.08-.82-6.73h0c-.05.12-.09.24-.14.35l-.71.31c-.08-.26-.16-.52-.23-.78l-.06-.17c0,.13,0,.27.07.41A78.72,78.72,0,0,1,151.1,239a79.46,79.46,0,0,1-.23,9.09c-.1,4.44.65,10.08-.15,14.71h.88c.28-1.91.25-4.32.33-5.62a86.72,86.72,0,0,0,.23-9.67C152.05,244.34,151.7,241,151.57,237.84Z"/><path class="cls-22" d="M149.9,231.77l.71-.31c0-.11.09-.23.14-.35,1.26-3.72-1.14-11.79-4-16.32-3.43-5.38-11.1-10.24-17.25-11.84a28.15,28.15,0,0,0-5-1c2.87,1.57,6.21,3.72,8,6.59,1.76,2.61,2.08,5.64,3.18,8.44,1.62,4.07,5.21,3.73,8.28,6a17.06,17.06,0,0,1,5.56,7.84l.06.17C149.74,231.25,149.82,231.51,149.9,231.77Z"/><path class="cls-25" d="M157.34,237.64a19.56,19.56,0,0,0-.88-2.68h0c.16,5.67-.06,6.15-.53,12-.42,4.82.62,10.86-.29,15.88h.93c0-3.93.14-7.86.14-11.79,0-4.41,1.23-11.36,1.23-15.39h0c0,.35-.09.7-.13,1.06Z"/><path class="cls-22" d="M198.59,203.76a6.36,6.36,0,0,0-.76-.31h0l-.23-.07h-.06l-.21-.05h-.07l-.22,0h-.07l-.24,0h-.06l-.28,0h-.77l-.23,0-.12,0-.22,0-.14,0-.21,0-.14,0-.23,0-.14,0-.25.07-.12,0-.39.11-1.26.16.06,0h0c5.94,2,8,4.87,9.55,10.84C202.53,210.49,201.87,205.43,198.59,203.76Z"/><path class="cls-26" d="M192.13,203.8l1.26-.16.39-.11.12,0,.25-.07.14,0,.23,0,.14,0,.21,0,.14,0,.22,0,.12,0,.23,0h.77l.28,0h.06l.24,0H197l.22,0h.07l.21.05h.06l.23.07h0a6.36,6.36,0,0,1,.76.31h0c-7.36-5.79-11.72-5-14.8-5-12.43-.12-16.53,6.93-19.2,7.71a8.08,8.08,0,0,0-6.15,6.77,15,15,0,0,1-.79,4.57c-.78,1.57-2,2.67-2.83,4.25-2.63,5.4-.09,8.59,1.64,12.9a19.56,19.56,0,0,1,.88,2.68l.47-.94c0-.36.09-.71.13-1.06.84-6.49,2.55-10.79,8.53-14.53,3.47-2.2,6.62-3.93,9.29-7.08,2.68-3,4.73-6.61,8.35-8.5a14.25,14.25,0,0,1,8.08-1.71h0Z"/><path class="cls-22" d="M195.63,220.72c-2.36,1.42-4,2.84-6.85,3.31a64.26,64.26,0,0,1-8.27.47c-6.25.12-10.86,3.31-13.58,8.85-1,2.09-.42,8.5-1.72,10.21-3,3.92-3.19,14.78-2.86,19.26h.53a70.07,70.07,0,0,1,.63-12.11c.36-2.36,1-5.31,2.83-7a17.53,17.53,0,0,0,2.84-2.36c.83-.95,1.18-2.25,2.13-3.19,3.54-4,11.21-4.37,16.06-5.91,5.78-1.89,7.31-7.08,9.21-12.4C196.34,220.13,196,220.61,195.63,220.72Z"/><path class="cls-27" d="M135.08,262.85v3.48a1.34,1.34,0,0,0,1.33,1.33H169.3a1.34,1.34,0,0,0,1.33-1.33v-3.48Z"/><path class="cls-28" d="M166.3,292c3.37-5.49,8.55-16.54,1.61-24.38H137.8c-7.32,7.21-1.84,18.72,1.63,24.38Z"/><polygon class="cls-29" points="172.96 247.69 172.96 247.69 172.84 247.61 172.96 247.69"/><path class="cls-21" d="M165.08,255.75a30,30,0,0,0-.74,7.07h1.13c-.63-5.58,1.83-12.47,6.82-14.85l.59-.62C169.37,247.53,165.59,253.53,165.08,255.75Z"/><path class="cls-21" d="M184.67,255.56c-.37-3.51-2-7.95-5.92-9.24-1.66-.55-5.17-.55-5.91,1.29l.12.08.43.29c5.73,3.14,6.29,8.32,5.92,14.24-.31,4.47,2.61,13.84,2.61,13.84.51-3.43,0-6.52.9-10C183.93,262.58,185,259.44,184.67,255.56Z"/><path class="cls-29" d="M190.58,257.78c-.37-5-9.42-20-15.52-12.75l-2.18,2.32-.59.62h0a6.94,6.94,0,0,1,.78-.22l-.11-.07-.12-.08c.74-1.84,4.25-1.84,5.91-1.29,3.88,1.29,5.55,5.73,5.92,9.24.37,3.88-.74,7-1.85,10.54-.91,3.44-.39,6.53-.9,10h.13C183.74,269.2,191.24,265.82,190.58,257.78Z"/><path class="cls-21" d="M130.87,242.88a2,2,0,0,1,.42.48l-.57.27c6.08,3.39,8.86,12.38,7.57,19.19h1.05a33,33,0,0,0-.38-10C138.41,250.45,134.7,244.41,130.87,242.88Z"/><path class="cls-29" d="M130.87,242.88c-1.68-1.52-6.89-3.2-8.73-2.76a9.51,9.51,0,0,0-7.28,8.08c-.46,3.39.91,6.14,2.27,9.21,1.14,3.08.46,5.82,1.14,8.9a6.8,6.8,0,0,1,.22,2.1,23.37,23.37,0,0,0,3-14.39c-.45-5.17,2.1-7.58,9.15-10.33l.12-.06.57-.27A2,2,0,0,0,130.87,242.88Z"/></g><circle class="cls-30" cx="243.5" cy="179.5" r="173.47" transform="translate(54.75 415.9) rotate(-87.79)"/><path class="cls-31" d="M357.23,176.13c3.22,5.51,4.9,11.11,7,15.22a4.52,4.52,0,0,1,.49,2.23c-.09,2,.35,2.07,0,7.84-1,4.33-1.41,4.13-2.71,4.82-4.18,2.22-3.39-6.25-3.85-5.62-2.77,3.75-2.87-2.74-2.6-3.45.17-.46,1.38-2,2.62-4.36a144.22,144.22,0,0,0-9.36-13,28.65,28.65,0,0,1-2.24-3c-1.45-2.34-2.95-4.41-4.19-6.7a11.11,11.11,0,0,1-1.74-5,6.35,6.35,0,0,1,2.39-4.83,8.55,8.55,0,0,1,5.18-1.78c1.85,0,.8-2.53,1.71-.91s1.29,4.91,2.19,8.66C353.09,170.23,355.15,172.59,357.23,176.13Z"/><g id="_2" data-name="2"><path class="cls-32" d="M252.51,138.57c-2,3,.77,2.33.77,2.33s9.76-8.43,10-12.37C263.33,128.53,259.48,128.21,252.51,138.57Z"/><path class="cls-31" d="M274.57,160.63c1.63,1.42,3.67,3,5.73,2.3s2.95-3.37,3.35-5.65c1.71-9.88,1.86-12.31,2.42-13.21.44-.71,2.62-3.79,3.5-5.18,2-3.18,1.79-3.5,1.13-4.57-.2-.32-.63-.9-1.14-.84a2.37,2.37,0,0,0-.23-1.36,2.47,2.47,0,0,0-2.89-1.47,2.39,2.39,0,0,0-4.13-.49,9.56,9.56,0,0,0-1.05,2.11c-1.91-.2-4.66,2.6-3.66,4.63a6.67,6.67,0,0,1,.62,4.78,63.44,63.44,0,0,1-1.14,6.54c-9.13-9.69-8.64-7.59-12.33-12.68-1.41-1.95-3.43-6.3-5-8.1-2.9-3.28-7.77-5.11-11.81-3.45a1.81,1.81,0,0,0-1.22,1.12,1.88,1.88,0,0,0,.19,1.08,46.3,46.3,0,0,0,5.75,9.68c3.26,4.59,6.31,9.48,9.84,13.87C265.77,153.85,270.62,157.16,274.57,160.63Z"/><path class="cls-33" d="M241.68,115.1l8,23.17,3.63,2.63s2.81-10.59,10-12.37C263.33,128.53,248.56,114.47,241.68,115.1Z"/><path class="cls-34" d="M198.63,295.93c.31,1.52,6.68,12.2,9.34,13.82,1.53.93,8,1.15,9.73.45a2.44,2.44,0,0,0,1.78-2.1c0-.49.15-2.2-.32-2.76-2.09-2.51-9.56-10.82-10.65-13.84-.4-1.1-.24-2.44-1-3.3-.63-.7-8.61,3.25-8.79,4A11.12,11.12,0,0,0,198.63,295.93Z"/><path class="cls-34" d="M240.73,291.12a4.7,4.7,0,0,0,.26,3.24,4,4,0,0,0,1.61,1.14c2.14,1.16,4.32,2.25,6.41,3.51,4.92,3,8.83,9.7,15.88,4.54,2.85-1.64,2.49-5.48-.13-7.16-3.31-2.12-9.82-2.94-13.23-6.81A5.53,5.53,0,0,1,250,286a2.55,2.55,0,0,0-.1-1.17c-.31-.69-1.24-.79-2-.8l-3.7,0c-.63,0-1.63.05-2,.61a2,2,0,0,0-.27.78C241.58,287.3,241.14,289.24,240.73,291.12Z"/><path class="cls-35" d="M198.63,293.8c.31,1.53,6.68,12.21,9.34,13.82,1.53.93,8,1.15,9.73.45s2.46-2.06,1.11-3.68c-2.1-2.52-9.21-12-10.3-15-.4-1.1-.24-2.44-1-3.3-.63-.69-7.43.55-7.61,1.32C199.48,289.05,198.27,292,198.63,293.8Z"/><path class="cls-35" d="M241,289.1a9.2,9.2,0,0,0-.27,1.81c0,1.74,1.39,2.31,2.74,3,1.87,1,3.74,1.94,5.55,3,4.92,3,9.64,9.71,15.88,4.55,6.45-5.63-7.27-7-13.36-14A5.53,5.53,0,0,1,250,284a2.55,2.55,0,0,0-.1-1.17c-.31-.69-1.24-.8-2-.8l-3.7,0c-.63,0-1.63.05-2,.61a2,2,0,0,0-.27.77C241.58,285.25,241.4,287.21,241,289.1Z"/><path class="cls-36" d="M248.69,190.87a4.66,4.66,0,0,0-4.88-2.11c-.83.18-1.58.59-2.39.83-3.88,1.13-7.82-1.81-11.86-1.79l-21.82.74c-4.47,6.59-5.47,14.52-5.61,22.47-.19,10.39,2.69,20.91-1,31.06-1,2.71-2.41,5.24-3.28,8-1.87,5.91-1,12.32.22,18.4a71.35,71.35,0,0,1,1.27,18.67c-.25,2.54,9.12,3,9.12.34,0-4.37,1.45-16.64,3.45-30.85a28.11,28.11,0,0,1,3.59-10.18c4.78-8.23,7.41-18.18,8.95-27.5.57-3.52,1.31-7.9,1.31-7.9a6.26,6.26,0,0,0,3.82,0,68.82,68.82,0,0,0,2.11,9.43l2.88,9.29c1.09,3.5,2.18,7,3.55,10.41a11.57,11.57,0,0,1,1.24,4.94,13.7,13.7,0,0,1-.71,2.94c-3.67,12.22,3,23,3,35.1,0,2.7,8.72,2.69,8.72.16,0-9.88,1.14-18,.58-27.86a10.52,10.52,0,0,1,0-2.57,11.67,11.67,0,0,1,.81-2.42c1.66-4.25,1.41-8.46,1.72-13C255.48,209.71,249.46,192.17,248.69,190.87Z"/><path class="cls-33" d="M209.16,148.35c8.16,31.36,6.64,25.67-1.68,40.09-3.72,6.43,13.69,12.54,21.45,12.33,11.4-.32,22-4.81,20.75-10.29a72.88,72.88,0,0,1-.43-29.2c.44-2.32,2.65-5.79,4.36-8.83a12.63,12.63,0,0,0,1.14-9.82c-.55-1.85-1.28-3.66-2-5.45L245,117.84a4.64,4.64,0,0,0-1.59-2.37c-1.08-.66-2.46-.32-3.67,0-10.07,3-20.1,6.42-29.18,11.69C198.64,134.15,207.2,140.81,209.16,148.35Z"/><path class="cls-37" d="M220.26,198.24c.76.54-3,20.65-4.91,26.5-.79,2.45-4.18,4-6.46,3.79-1.88-.2-13.24-6-14.08-7.21-2-2.9-.36-9.88,2.59-24.65,1-5.22,4.12-8.31,8.25-6.24S216.37,195.48,220.26,198.24Z"/><path class="cls-38" d="M220.36,198.52l-3.2,1.64a3.41,3.41,0,0,0-1.66,1.9l-2,5.57A2.42,2.42,0,0,1,210.2,209L197,202.67a2.42,2.42,0,0,1-1.25-3l2.47-7.28s.91-1.65,4.62-2.64S221.3,196.89,220.36,198.52Z"/><path class="cls-38" d="M237.59,115.19c7.39,11.79,6.9,21.48,4.57,31-3.12,12.71-25.65,55.39-25.65,55.39l3.46-1.79c4.49-8.09,20.72-41.89,22.79-48.38C248.75,136.26,244.56,114.4,237.59,115.19Z"/><path class="cls-39" d="M206.84,206c-.5-1.1-1.7-4.13-.06-4.79,1-.41,2.51.56,3.51.66a1.68,1.68,0,0,0,2.06-1.44c.22-1.17-1.52-1.19-2.27-1.63-6.47-3.78-8.33-1.35-9.46-6.36-1-4.3-.33-23.44-1.56-25.18,0,0,9.73-8.51,14.59-19.42a50.91,50.91,0,0,0-1.18-5.72,71,71,0,0,0-2.5-8l-6.29.13c-.49,1.34-.87,2.75-1.29,4.09-1.62,5.2-4.29,10-6.94,14.77l-5.34,9.57c-.94,1.69-1.92,3.5-1.87,5.44.09,3.45,5,20,6.24,26.59.42,2.33.86,4.65,1.19,7,.36,2.52.36,5.05.71,7.6.19,1.31,3.27,4.31,3.78,4.75a5.4,5.4,0,0,0,6.33.33c2-1.33,3.74-3.35,3-5.11C209.24,208.69,207.18,206.71,206.84,206Z"/><path class="cls-33" d="M210.27,127.39s-7.22,2.26-17,25.68c0,0,2.66,7,13.94,8.52l11.22-11.46Z"/><path class="cls-39" d="M232.34,132.93c10.32-2.28,8.51-7.52,6.94-10.36-2.36-4.27-4.06-3.49-8-3a24.71,24.71,0,0,0-5.43.87,26.54,26.54,0,0,0-5.74,2.36C212.8,126.63,224.58,134.65,232.34,132.93Z"/><path class="cls-40" d="M221.34,123.36c-1.31,2.31,4.54,6.47,8,6.86s8.9-.51,9.4-4a39.35,39.35,0,0,1-1.34-7.3c-.22-1.88-.93-2.92-1.15-4.8a8.69,8.69,0,0,0-1.16-4,5.6,5.6,0,0,0-4.41-2.17c-2.25-.09-6.26.76-7.43,3a5.41,5.41,0,0,0-.51,2.8C223.1,119.16,222.41,121.51,221.34,123.36Z"/><path class="cls-41" d="M220.67,97.44c2-1.48,4.82.33,7-1.29,1.44-1.34,1.31-2.52.61-3.55-2.46-3.67-4.58-1.14-5.26-5.89a5.13,5.13,0,0,0-3.58-5.8c-4.73-1.39-10,2.3-9,7.63.71,3.95,5.13,6.87,1.83,18.29A9.55,9.55,0,0,0,219,100,5.34,5.34,0,0,1,220.67,97.44Z"/><path class="cls-42" d="M224.14,86.45s2.17,1.48,2.43,2.54c1.7,1.73-5.92,9-7.43,7.92,0,0-1.62-1.53-2-1.88C214.07,92,221.56,84.47,224.14,86.45Z"/><path class="cls-39" d="M241.28,90.48a32.4,32.4,0,0,0-5.88-3.07,76.52,76.52,0,0,0-12.23,7.89c-5.49,4.31-5.29,10.39-4,16.36.08.11.13.23.2.34a29.76,29.76,0,0,0,2.7,3.33,50.65,50.65,0,0,0,6.83,6.42c4.56,3.45,9.84,5.6,12.18,4.61,2.13-.9,3.32-4,4-8.94C246.79,105.41,248.77,95.32,241.28,90.48Z"/><path class="cls-41" d="M246.24,98c-1-8.31-9.78-13.33-17.69-12a14.94,14.94,0,0,0-8,4.32c-4.81,4.7-5.37,13.42-2.55,19.47a28,28,0,0,0,6.44,7.92,21.37,21.37,0,0,1-2.42-6.42c-.14-1.17-.09-2.78,1.82-3,1.18-.15,2.56,1.1,2.56,4.1,0,.39-.31,1.48.82,1.87a1.14,1.14,0,0,0,1.44-1,16.07,16.07,0,0,1,6-11.42C241.86,96.12,244.72,97,246.24,98Z"/><path class="cls-38" d="M202.83,189.78a4.21,4.21,0,0,1,1.39,0L213,163.41c-.5-2.14-1.2-4.95-1.2-4.95l-10.18,31.71C202,190,202.38,189.9,202.83,189.78Z"/><path class="cls-43" d="M226.32,111.33s13,1.72,19.82-1.43c0,0,.26,15.71-5.67,17.13s-16-9.25-16-9.25Z"/></g><path class="cls-42" d="M328.22,282.76a6.27,6.27,0,0,0-4.39-.5,8.14,8.14,0,0,0-3.35,1.41c-1.14.85-1.34,2.37-1.35,3.72a12.49,12.49,0,0,0,.23,2c.46,1.84,5.82,8.57,6.66,9.32,4.07,3.69,7.79,4,11.13,2.61a3.22,3.22,0,0,0,2.12-3.31,6,6,0,0,0-.92-2.06c-4.78-7-6.32-9.45-8.63-11.89A6.44,6.44,0,0,0,328.22,282.76Z"/><path class="cls-35" d="M337.45,299.77c-3.35,1.4-7.67,1.09-11.74-2.6-.83-.76-6.64-8.14-6.55-9.74,0-.21,0-.47,0-.75a8.18,8.18,0,0,0,0,2.78c.27,2,5.72,9,6.55,9.74,4.07,3.69,8.39,4,11.74,2.6a3.14,3.14,0,0,0,1.77-4A2.94,2.94,0,0,1,337.45,299.77Z"/><path class="cls-42" d="M310.45,254c-1.54.46-3.19.74-3.6,2.46s.22,3.06.57,11.47a8.1,8.1,0,0,0,.88,4.2,29.55,29.55,0,0,0,4.23,4.2c4.92,3.69,10.64-.79,8.61-3.4-1.47-1.91-2-3.11-2.87-4.13a4.58,4.58,0,0,1-1.12-2.82c0-1,0-2.67,0-5.25a4.64,4.64,0,0,0-.54-2.19,23.89,23.89,0,0,0-2.14-3.66,2.08,2.08,0,0,0-1.48-.79C312.37,254.07,311.51,254,310.45,254Z"/><path class="cls-35" d="M313.64,276a32.3,32.3,0,0,1-4.64-4.41,8.3,8.3,0,0,1-1-4.22c-.35-8.4-.66-9.52-.28-11.11.33-1.4,1.88-1.83,3.56-2.18,0,0-3.89-.39-4.67,2.45-.43,1.58-.06,3.23.29,11.64a8.16,8.16,0,0,0,.95,4.21,32.39,32.39,0,0,0,4.64,4.42c4.19,3.14,9,.07,9-2.52A5.1,5.1,0,0,1,313.64,276Z"/><path class="cls-31" d="M321.35,280.84a6.67,6.67,0,0,1-.29,3.11c-.41,1.05.28,1.53,1.34,1.84a8.91,8.91,0,0,0,5.43-.18,3.21,3.21,0,0,0,1.18-.67c1.06-1.05-.27-3.17-.53-4.38-.94-4.34.86-8.73,2-13,.15-.58.26-1.3-.19-1.71a1.71,1.71,0,0,0-.88-.32c-1.66-.27-3.71-.17-5.21-.88-.68-.32-1.43-.43-2.12-.75A6.17,6.17,0,0,0,320,263c.12,3.89.58,7.72.9,11.61Q321.09,277.75,321.35,280.84Z"/><path class="cls-31" d="M315.17,253.8a8.67,8.67,0,0,1-2.57,1.43,1.93,1.93,0,0,0-.62.23,1.42,1.42,0,0,0-.46.71,7,7,0,0,0,2,7.66,2.36,2.36,0,0,0,1.06.58,3.07,3.07,0,0,0,2.24-1,27.5,27.5,0,0,1,6.35-3.71,3.66,3.66,0,0,0,1.16-.64,2.92,2.92,0,0,0,.75-1.58,9.59,9.59,0,0,0-.51-5.08,5,5,0,0,0-1.28-2.12c-1.2-1.06-2.41-.68-3.54.14Z"/><path class="cls-44" d="M350.5,159c-3.46-7-6-11.39-7.42-12.84a8.11,8.11,0,0,0-6.3-2.23c-.33.06-.22,7.5-.36,10.7a22.14,22.14,0,0,0,.23,5.46c.37,1.79,3.2,5.52,3.9,5.48C344.7,165.3,351,160.07,350.5,159Z"/><path class="cls-36" d="M345.39,238.05c-1.65-12.36-2.32-24.62-3.61-38.4-1.19.6-2.54,1-3.73,1.61a29.5,29.5,0,0,0-5.09,3.06,26.06,26.06,0,0,0-4.87,5.64,20.41,20.41,0,0,0-2.58,4.57,16.57,16.57,0,0,0-.19,9.16c.65,3,1.74,5.95,2.41,9a67.3,67.3,0,0,1,1.21,11.52l6,12.9a5.6,5.6,0,0,0,5-1,11.83,11.83,0,0,0,3.3-4.08,19.27,19.27,0,0,0,2.65-9.05A36,36,0,0,0,345.39,238.05Z"/><path class="cls-45" d="M318.15,190.67c-3.59.62-7.45,3.73-10,7.05A19.43,19.43,0,0,0,304.47,208a18.58,18.58,0,0,0,1.72,10.26c3.91,9.25,13,32.15,13.18,33.75.41,3.65-2.91,9.08-2.91,9.08-1.41,5.72,13.44,10.79,17.15,4.2A46.15,46.15,0,0,0,337.13,255a20.13,20.13,0,0,0-.6-7.13c-1.21-3.95-5.25-18.3-7-26.47-.82-3.85,1.66-7.22,4.71-9.71,1.19-1,2.32-1.9,3.5-2.94,2.25-2,4.5-4,4.35-5.65-.27-2.92-.68-8.22-.68-8.22s-8.7-2.56-12.93-3.27C325.35,191.13,321.3,190.13,318.15,190.67Z"/><path class="cls-44" d="M305.22,155.86c-1.06.74-1.52,2.41-1,4.22a79.21,79.21,0,0,1,3.09,12.17c.75,4.75,1.12,9.54,1.48,14.33.29,3.74.55,7.61-.7,11.14.24,2.61,7.35,5.21,11.73,5.81,7.27,1,12.66-.68,18-3.78a9.6,9.6,0,0,0,3.76-3.41c.8-2.6-1.17-10.54-.09-22.5.84-9.34-.76-7.4.6-18.73.29-2.39,1.57-5.34-.59-9a4.66,4.66,0,0,0-4.71-2.19C329.32,145,311.66,151.34,305.22,155.86Z"/><path class="cls-31" d="M325.13,161.23C334.67,164.8,338.22,152,333,148c-1.38-1-2.82-2-4.48-1.52a84.74,84.74,0,0,0-11.29,4.26C311.57,153.26,322.31,160.18,325.13,161.23Z"/><path class="cls-46" d="M319.85,153.65c3.66,3.21,8.13,3.25,11,1.57,2.49-1.45,1.15-7.36,1.13-7.86-.37-8.16-.79-5.15-2.12-6.93a4.75,4.75,0,0,0-2.91-1.69,12.32,12.32,0,0,0-3.43-.1c-1.31.1-2.75.3-3.57,1.32-1.5,1.85,0,3.51,0,5.43a12.51,12.51,0,0,1-1,5.46A2.82,2.82,0,0,0,319.85,153.65Z"/><path class="cls-31" d="M335.63,148.18c-.54,2-1.15,4.41-3.07,5-2.33.72-8.41-2.11-11.32-5.83-3.4-4.35-4.07-9.38-2.89-12.43a20.71,20.71,0,0,1,5.71-7.14,19.09,19.09,0,0,1,4.89-2.52c4.93-1.9,9.13-1.48,9.25,3.47a60.25,60.25,0,0,1,0,7.36C337.48,144,336.42,145.29,335.63,148.18Z"/><path class="cls-47" d="M329.17,121.82a1.48,1.48,0,0,1-.53-2.12c.34-.6,1-.74,1.51-1.22.77-.78,1.5-1.93,2.34-2.62a15.62,15.62,0,0,1,1.07-3c2.52-4.58,11.72-3.26,10.05,8.8-.58,4.14-2,7.55.59,12.88-6.85-2.06-7.65-12.46-7.74-14.39a1.13,1.13,0,0,0-1.33-1.15C332.61,119.64,329.72,122.24,329.17,121.82Z"/><path class="cls-48" d="M328.26,121.13a9.2,9.2,0,0,1,1.34-2c.73-.94,1.57-1.92,2.39-3,1.59-2.07,6.28,1.77,5.2,3.56-.16.3-2.23,2.42-2.23,2.42-.56,1.23-4.74,1.84-5.86,1.18A1.61,1.61,0,0,1,328.26,121.13Z"/><path class="cls-47" d="M338.77,131.27c.56-5.73.26-11.7-7-14.42-6.71-2.51-14.94.47-18.4,6.45a11,11,0,0,0-1.32,5.88c.92,11.8,4.84,11,7.56,15.69a8.26,8.26,0,0,0-.08-2.33c-.2-.75-.52-1.46-.77-2.2a6.92,6.92,0,0,1-.45-2.1,1.75,1.75,0,0,1,1.54-1.77c.87-.05,1.9,1.05,2.17,1.84.14.4.15.84.33,1.23s.64.71,1,.52a1,1,0,0,0,.42-.49c.89-1.71.17-3.82,1.56-5.33,4-4.28,9.24-5.87,11.75-5.28a1.85,1.85,0,0,1,1.11,1.49,38.74,38.74,0,0,1,0,5.76S338.36,135.47,338.77,131.27Z"/><path class="cls-48" d="M313.76,125.81l-1.67.27c-2,.31-.38,1.94.21,3.75,1,3.13,2.05,2.54,2.05,2.54.72-.17,1.79-.49,1.79-.49C317.91,131.24,316.81,125.33,313.76,125.81Z"/><path class="cls-47" d="M311.4,125.42c-4.56-2.55-10.13,3-2.89,12.84,2.86,3.86,4.93,6.9,5.85,11.49C317,141.65,317.4,128.79,311.4,125.42Z"/><path class="cls-43" d="M322.16,138.82A13.94,13.94,0,0,0,337.35,141s.89.3.48,2.06-1.5,9.51-5.27,10.14-12.09-3.79-12.94-8.31Z"/><path class="cls-31" d="M294.06,182.35c-3.22,5.5-4.9,11.1-7,15.21a4.52,4.52,0,0,0-.49,2.23c.08,2-.35,2.07,0,7.84-.14,1.18.92,2.84,2,3.84,4.84,4.44,5.06-3.69,5.63-3.16,4.83,4.51,1.8-4.22,1.53-4.93-.17-.46-1.38-2-2.62-4.36a144.22,144.22,0,0,1,9.36-13,31.72,31.72,0,0,0,2.24-3c1.45-2.34,2.95-4.41,4.19-6.7a11,11,0,0,0,1.73-5,6.3,6.3,0,0,0-2.39-4.84,8.52,8.52,0,0,0-5.17-1.78c-1.86,0-.81-2.53-1.72-.91s-1.28,4.91-2.18,8.66C298.2,176.44,296.14,178.8,294.06,182.35Z"/><path class="cls-44" d="M305.84,155.73a2.45,2.45,0,0,0-1.52,1c-2.52,3.4-6.44,12.65-6.44,12.65-1.08,2.92,11.41,8.32,13,6.27,2.11-3.88,2.67-4.36,3.75-8.64C316.22,160.58,309.38,155.19,305.84,155.73Z"/></g></g></svg>