<svg id="Layer_1" data-name="Layer 1" xmlns="http://www.w3.org/2000/svg" xmlns:xlink="http://www.w3.org/1999/xlink" viewBox="0 0 1062 549"><defs><style>.cls-1,.cls-60{fill:none;}.cls-2{fill:#f4aa1b;opacity:0.15;}.cls-3{fill:#91278e;}.cls-3,.cls-4{opacity:0.1;}.cls-4{fill:#ec5039;}.cls-5{fill:#852880;}.cls-6{fill:#f5f5f5;}.cls-7{fill:#918e8a;}.cls-8{fill:#262322;}.cls-9{fill:url(#_ÂÁ_Ï_ÌÌ_È_ËÂÌÚ_93);}.cls-10,.cls-11{fill:#322a25;}.cls-11{opacity:0.7;}.cls-12{isolation:isolate;}.cls-13{fill:#2b2420;}.cls-14{fill:#382f2b;}.cls-15{fill:#473e3a;}.cls-16{clip-path:url(#clip-path);}.cls-17{fill:#dad6d4;}.cls-18{fill:#c0bbb8;}.cls-19{fill:#f0b994;}.cls-20{fill:#f2f0ea;}.cls-21{fill:#e38b2b;}.cls-22{fill:#fffcf5;}.cls-23{fill:#edb187;}.cls-24{fill:#2b2825;}.cls-25{fill:url(#_ÂÁ_Ï_ÌÌ_È_ËÂÌÚ_945);}.cls-26{fill:#6b421b;}.cls-27{fill:#8d5a2c;opacity:0.3;mix-blend-mode:screen;}.cls-28{fill:url(#_ÂÁ_Ï_ÌÌ_È_ËÂÌÚ_941);}.cls-29{fill:#d48028;}.cls-30{fill:#faa831;}.cls-31{fill:#ffcd45;}.cls-32,.cls-33{opacity:0.8;}.cls-32{fill:url(#_ÂÁ_Ï_ÌÌ_È_ËÂÌÚ_2);}.cls-33{fill:url(#_ÂÁ_Ï_ÌÌ_È_ËÂÌÚ_2-2);}.cls-34{fill:#eeefef;}.cls-35{fill:#d23770;}.cls-36{fill:#fbc096;}.cls-37{fill:#ef5276;}.cls-38{fill:#897b6f;}.cls-39{fill:#643c19;}.cls-40{fill:#834f28;}.cls-41{fill:#fabd9e;}.cls-42{fill:#f2a983;}.cls-43{fill:#5e3f24;}.cls-44{fill:#f6ac7c;}.cls-45{fill:url(#_ÂÁ_Ï_ÌÌ_È_ËÂÌÚ_697);}.cls-46{fill:#2b5eab;}.cls-47{fill:#ffc524;}.cls-48{fill:#e42e5f;}.cls-49{fill:#f6a52e;}.cls-50{fill:#61cbe8;}.cls-51{opacity:0.53;}.cls-52{opacity:0.37;}.cls-53{fill:#f0a12c;}.cls-54{opacity:0.47;}.cls-55{fill:#7e298a;}.cls-56{fill:#e85a43;}.cls-57{fill:#7071b5;}.cls-58{fill:#1a1a1a;}.cls-59{fill:#263238;}.cls-60{stroke:#e6e6e6;stroke-miterlimit:10;}.cls-61{fill:#f9fcfd;}.cls-62{fill:#203e79;}.cls-63{fill:#fafbfc;}.cls-64{fill:#231f20;}.cls-65{fill:#fff;}.cls-66{fill:#f89c70;}.cls-67{fill:url(#linear-gradient);}.cls-68{fill:url(#linear-gradient-2);}.cls-69{fill:#f47b45;}.cls-70{fill:#853838;}.cls-71{fill:#a1a9b0;}.cls-72{fill:#a2a2a3;}.cls-73{fill:#e0e0df;}</style><linearGradient id="_ÂÁ_Ï_ÌÌ_È_ËÂÌÚ_93" x1="857.6" y1="348.34" x2="869.62" y2="369.15" gradientUnits="userSpaceOnUse"><stop offset="0" stop-color="#473e3a"/><stop offset="1" stop-color="#382f2b"/></linearGradient><clipPath id="clip-path"><path class="cls-1" d="M867.76,339.18l-1.61.93-2.27-1.31-.14-48.64H868Zm-13.15-54.26v48.53l2.28,1.31,1.61-.93V287Z"/></clipPath><linearGradient id="_ÂÁ_Ï_ÌÌ_È_ËÂÌÚ_945" x1="799.83" y1="350.12" x2="808.58" y2="365.29" gradientUnits="userSpaceOnUse"><stop offset="0" stop-color="#8d5a2c"/><stop offset="0.05" stop-color="#88572b"/><stop offset="0.25" stop-color="#7b4f27"/><stop offset="0.51" stop-color="#734a25"/><stop offset="1" stop-color="#714924"/></linearGradient><linearGradient id="_ÂÁ_Ï_ÌÌ_È_ËÂÌÚ_941" x1="800.57" y1="349.68" x2="805.05" y2="357.43" gradientUnits="userSpaceOnUse"><stop offset="0" stop-color="#754a23"/><stop offset="1" stop-color="#5c3b1c"/></linearGradient><linearGradient id="_ÂÁ_Ï_ÌÌ_È_ËÂÌÚ_2" x1="822.6" y1="223.16" x2="825.31" y2="227.85" gradientUnits="userSpaceOnUse"><stop offset="0" stop-color="#1a1a1a"/><stop offset="1" stop-color="#232323"/></linearGradient><linearGradient id="_ÂÁ_Ï_ÌÌ_È_ËÂÌÚ_2-2" x1="814.55" y1="227.81" x2="817.26" y2="232.5" xlink:href="#_ÂÁ_Ï_ÌÌ_È_ËÂÌÚ_2"/><linearGradient id="_ÂÁ_Ï_ÌÌ_È_ËÂÌÚ_697" x1="801.23" y1="458.11" x2="787.59" y2="461.1" gradientUnits="userSpaceOnUse"><stop offset="0" stop-color="#2b5eab"/><stop offset="1" stop-color="#114b9b"/></linearGradient><linearGradient id="linear-gradient" x1="243.76" y1="457.19" x2="237.36" y2="506.99" gradientUnits="userSpaceOnUse"><stop offset="0" stop-color="#615eaa"/><stop offset="1" stop-color="#38c6f4"/></linearGradient><linearGradient id="linear-gradient-2" x1="240.46" y1="481.31" x2="256.78" y2="481.31" xlink:href="#linear-gradient"/></defs><circle class="cls-2" cx="925.27" cy="84.64" r="19.14"/><circle class="cls-2" cx="130.27" cy="175.64" r="15.06"/><circle class="cls-3" cx="494.05" cy="464.03" r="21.53"/><circle class="cls-4" cx="579.09" cy="77.87" r="64.12"/><circle class="cls-3" cx="483.93" cy="128.79" r="84.72"/><circle class="cls-2" cx="584.96" cy="175.63" r="55.28"/><path class="cls-5" d="M463.78,112.62a7.79,7.79,0,0,0-5.94-2.86c-5,0-7.94,4.65-7.94,9.3s3,9.08,7.91,9.08a8.23,8.23,0,0,0,6-2.86v6.26a14.19,14.19,0,0,1-6.12,1.61c-7.58,0-13.2-6.55-13.2-14,0-7.65,5.4-14.41,13.31-14.41a12.58,12.58,0,0,1,6,1.57Z"/><path class="cls-5" d="M482.24,116.09V105.46h5.26v27h-5.26V120.38h-9.73v12.06h-5.26v-27h5.26v10.63Z"/><path class="cls-5" d="M496.62,110V116H505v4.58h-8.37v7.3h8.69v4.58H491.36v-27h13.95V110Z"/><path class="cls-5" d="M526.85,112.62a7.79,7.79,0,0,0-5.94-2.86c-5,0-7.94,4.65-7.94,9.3s3,9.08,7.9,9.08a8.24,8.24,0,0,0,6-2.86v6.26a14.19,14.19,0,0,1-6.12,1.61c-7.58,0-13.2-6.55-13.2-14,0-7.65,5.4-14.41,13.31-14.41a12.58,12.58,0,0,1,6,1.57Z"/><path class="cls-5" d="M544,105.46h6.48l-10.23,12.45L551,132.44h-6.76l-8.62-12.13h-.08v12.13h-5.25v-27h5.25v11.38h.08Z"/><path class="cls-5" d="M560.83,118.91V123H552.1v-4.12Z"/><path class="cls-5" d="M569.56,132.44H564.3v-27h5.26Z"/><path class="cls-5" d="M573.39,104.75h3.79l14.2,18.85h.07V105.46h5.26V133h-3.79l-14.2-18.85h-.08v18.32h-5.25Z"/><ellipse id="Floor" class="cls-6" cx="794.74" cy="411.61" rx="164.47" ry="94.95"/><g id="_8" data-name="8"><path class="cls-7" d="M870.26,406.64l.51-2.6.33.19-.37,3.15-.32-.19A.48.48,0,0,1,870.26,406.64Z"/><path class="cls-7" d="M871.1,404.23l.64-.38a9.35,9.35,0,0,0,1.47.48,4,4,0,0,1-.37.78l-1,1.6a2.07,2.07,0,0,1-.59.59c-.46.26-.74,0-.64-.47Z"/><path class="cls-8" d="M874.66,404.08l-.14-.08a2.24,2.24,0,0,0-2.29.07c-2,1.28-3.39,4.74-1.27,6.05l.14.08a2.07,2.07,0,0,0,1.48.24,4.5,4.5,0,0,0,3-3.19A2.64,2.64,0,0,0,874.66,404.08Z"/><path class="cls-7" d="M872.8,408.11l.52-2.6.32.18-.37,3.16-.32-.19A.48.48,0,0,1,872.8,408.11Z"/><path class="cls-7" d="M873.12,408.3l.52-2.61,2.31-1.33v.48a3.38,3.38,0,0,1-.57,1.74l-1,1.59a1.84,1.84,0,0,1-.59.59C873.3,409,873,408.77,873.12,408.3Z"/><path class="cls-7" d="M876.29,403.45V404a.79.79,0,0,1-.47.66l-1.44.83a2.48,2.48,0,0,1-2.28,0l-1.24-.72a.77.77,0,0,1-.46-.65v-.56Z"/><path class="cls-7" d="M845.67,392.45l.52-2.6.32.18-.36,3.16-.33-.19A.51.51,0,0,1,845.67,392.45Z"/><path class="cls-7" d="M846.51,390l.65-.37a9.55,9.55,0,0,0,1.46.47,3.15,3.15,0,0,1-.37.79l-1,1.59a1.66,1.66,0,0,1-.59.59c-.45.26-.73,0-.64-.46Z"/><path class="cls-8" d="M850.08,389.89l-.15-.09a2.24,2.24,0,0,0-2.28.08c-2,1.28-3.4,4.73-1.27,6l.14.09a2.17,2.17,0,0,0,1.48.24,4.54,4.54,0,0,0,3-3.2A2.63,2.63,0,0,0,850.08,389.89Z"/><path class="cls-7" d="M848.21,393.91l.52-2.6.32.19-.36,3.15-.33-.19C848.23,394.38,848.16,394.19,848.21,393.91Z"/><path class="cls-7" d="M848.53,394.1l.52-2.6,2.31-1.34v.48a3.26,3.26,0,0,1-.57,1.74l-1,1.6a1.84,1.84,0,0,1-.59.59C848.72,394.83,848.44,394.58,848.53,394.1Z"/><path class="cls-7" d="M851.71,389.26v.56a.8.8,0,0,1-.48.66l-1.43.83a2.48,2.48,0,0,1-2.28,0l-1.24-.72a.79.79,0,0,1-.47-.65v-.56Z"/><path class="cls-9" d="M885.49,335.65l-24.11-13.92c-2.49-1.44-4.74-1.65-6.24-.76s-13,7.3-14.78,8.44a4.65,4.65,0,0,0-1.89,4.17v43.9c0,4.57,3.7,10.41,8.27,13l24.11,13.92c2.29,1.31,4.35,1.59,5.85.95s12.91-7.32,14.83-8.44a4.69,4.69,0,0,0,2.23-4.36V348.69C893.76,344.13,890.06,338.29,885.49,335.65Z"/><path class="cls-10" d="M870.85,404.45l-24.11-13.92c-4.57-2.64-8.27-8.48-8.27-13v-43.9c0-4.57,3.7-6.13,8.27-3.5L870.85,344c4.57,2.63,8.27,8.47,8.27,13V401C879.12,405.52,875.42,407.08,870.85,404.45Z"/><path class="cls-10" d="M854.42,321.33c.34.16.68.34,1,.53l25.62,14.79c5.15,3,9.33,9.61,9.33,14.8v46.2l-.45.26,0-.6a2.09,2.09,0,0,0,0-.25V352a13.77,13.77,0,0,0-.84-4.88,19.76,19.76,0,0,0-1.91-3.71,23.13,23.13,0,0,0-8-7.31l-23.15-13.37a11.21,11.21,0,0,0-1.81-.84l-.57-.19C854.58,321.22,853.62,321.78,854.42,321.33Z"/><polygon class="cls-11" points="858.72 330.34 861.43 328.77 874.14 336.11 871.43 337.67 858.72 330.34"/><g class="cls-12"><polygon class="cls-13" points="861.56 331.47 863.22 330.5 863.23 326.07 861.57 327.03 861.56 331.47"/><polygon class="cls-14" points="871.45 337.18 873.11 336.21 873.13 329.83 871.47 330.79 871.45 337.18"/><polygon class="cls-15" points="871.47 330.79 873.13 329.83 861.29 323 859.64 323.96 871.47 330.79"/><polygon class="cls-10" points="859.64 323.96 859.62 330.34 861.56 331.47 861.57 327.03 869.52 331.62 869.51 336.05 871.45 337.18 871.47 330.79 859.64 323.96"/></g><path class="cls-10" d="M867.76,339.18l-1.61.93-2.27-1.31,1.61-.93Zm-11.53-6.66-1.62.93,2.28,1.31,1.61-.93Z"/><g class="cls-16"><polygon class="cls-17" points="857.68 337.05 856.13 336.15 856.13 285.5 857.68 286.4 857.68 337.05"/><polygon class="cls-17" points="866.95 291.75 865.39 290.85 865.39 341.5 866.95 342.4 866.95 291.75"/><polygon class="cls-18" points="856.85 336.13 855.29 335.24 855.29 284.59 856.85 285.48 856.85 321.43 856.85 336.13"/><polygon class="cls-18" points="866.11 290.83 864.56 289.94 864.56 340.59 866.11 341.48 866.11 325.24 866.11 290.83"/><path class="cls-18" d="M867,294.2l-.37.08-.87-.28-1.15-.66V291l2.39,1.38Zm-9.27-7-2.39-1.38v2.39l1.13.65.88.28.38-.09Z"/></g><g id="Axonometric_Cube" data-name="Axonometric Cube"><polygon id="Cube_face_-_left" data-name="Cube face - left" class="cls-14" points="867.72 293.42 869.4 292.45 869.4 288.99 867.72 289.95 867.72 293.42"/><polygon id="Cube_face_-_right" data-name="Cube face - right" class="cls-10" points="853.49 285.2 867.72 293.42 867.72 289.95 853.49 281.74 853.49 285.2"/><polygon id="Cube_face_-_top" data-name="Cube face - top" class="cls-15" points="867.72 289.95 869.4 288.99 855.17 280.77 853.49 281.74 867.72 289.95"/></g><g id="_2" data-name="2"><path class="cls-19" d="M863.74,280.77c-3-1.44-6.92-3.52-8.45-3.75-1.37-.19-3.82,5.37-1.74,6.6.32.18,2.88,1.77,3.63,2.29a5.87,5.87,0,0,0,4,1c1.71-.2,4.05-.35,4.05-.35l2.51,1.46S864.44,281.1,863.74,280.77Z"/><path class="cls-20" d="M855.76,276.45l-19.09-6.17s-.87-21.45-3.59-31.63c-.72-2.69-2.73-5.84-6.73-5.79-3.12-.17-5.42,1.19-6.25,5.09-2.25,10.57,5.73,43.49,7,44.87s26.83,1.59,26.83,1.59C856,284.74,858.7,277.22,855.76,276.45Z"/><path class="cls-19" d="M860,290.35c.52.61,1.34,1.16,2.07.83s.83-1.36.69-2.17a3.65,3.65,0,0,1,0-2.4c.28-.48.82-.8,1-1.34.21-.74-.46-1.46-1.17-1.78a5.37,5.37,0,0,0-3.22-.29,12.8,12.8,0,0,0-2.88.95c-1.22.55-.06,1.08.52,1.76C858.2,287.27,858.86,289,860,290.35Z"/><path class="cls-21" d="M814.81,400.71c.06,1,.05,4.65.84,5.36,1.9,1.69,3.61,1.57,6,3.21,1.63,1.11,6.16,4.22,8.12,4.68,9.29,2.18,10.93.31,11.18-2.58.15-1.72-2.49-3.42-2.65-3.54-1.38-1-6.88-1.4-9.74-2.82-3-1.5-6.07-2.91-9-4.53C818.26,399.77,814.89,400.35,814.81,400.71Z"/><path class="cls-20" d="M816.24,404.12c-2.5-2.25-1-6.26-.74-9.6a13.34,13.34,0,0,0,0-2.19,3.47,3.47,0,0,1,3-3.72l7.83-1c.09,1.19.18,2.38.26,3.57.19,2.94.4,6,1.68,8.62.94,2,7.74,5.13,11,8.36,3.88,3.89.19,5.13-2.47,4.92A29.38,29.38,0,0,1,825.69,410c-2.63-1.54-3.51-2.9-6.27-4.2A12,12,0,0,1,816.24,404.12Z"/><path class="cls-21" d="M816.67,425.57c-.46-1.86-3.12-5.55-5-6.14a9,9,0,0,1-3.85-2.23c-2.32-2.38-5.74-3.5-8.5-5.24l-5-.35c0,1-.3,4.74.25,5.63,3.13,5.17,8.64,10.77,12.84,12.14,4.7,1.53,8.38.69,9.24-1A4.25,4.25,0,0,0,816.67,425.57Z"/><path class="cls-20" d="M795.74,415.92c-2.45-2.2-1-6.15-.72-9.43a6.74,6.74,0,0,1,5.88-6.17l4.79-.59c.09,1.16.18,2.33.26,3.5.19,2.89.4,5.86,1.65,8.48,1,2.17,7.14,7.07,9.07,13.86.3,1.05-.79,1.71-2.16,2.09a9.86,9.86,0,0,1-7-.83,26.2,26.2,0,0,1-5.08-3.28C798.68,420.37,796.27,416.4,795.74,415.92Z"/><path class="cls-14" d="M834.26,324.35c.14-2.76.13-5.51,0-8.27-.1-2.3-.19-5.24-.13-7.62.11-5.33-12.28-2.55-17.7-3.7-5-1.07-19.43,1.83-24.9,8.33a66.58,66.58,0,0,0-.49,10.3c.18,9,.5,11.6,2.15,40.7-2.6,17.9.11,18.81.45,44.54,0,4.24,13.44,4.5,13.57-.26,0,0,1.09-40.15,7.17-64.6,0,0,.3,9.18-.31,13.1-1.33,14.52,1.75,16.63.63,42.31-.17,4,14,3.7,13.53-.23C828.16,395.25,832.52,358.64,834.26,324.35Z"/><path class="cls-20" d="M834,307.84S831.78,270.5,832.4,250a31.49,31.49,0,0,0-1.13-9.76c-.86-3-2-5.44-3.69-6.71-3.46-3-26.14,6-36.9,17.41a6.73,6.73,0,0,0-1.56,5.72c.6,5.31,3.49,14.59,4.82,30.5a57.22,57.22,0,0,1-.33,12.68c-.61,4.25-1.2,6.52-1.89,11.74-.43,3,6.27,8.16,15.77,8.33C818.69,320.05,831,313.72,834,307.84Z"/><path class="cls-13" d="M791.53,313.09c2.32,12.32,37.33,9.48,42.6-4.63,0,0-.06-1-.15-2.63-10.8,16.51-39.06,14.34-42.18,5.13A4.23,4.23,0,0,0,791.53,313.09Z"/><path class="cls-18" d="M823.92,314a24.21,24.21,0,0,1-7.35,2.65v4l.48.39a21,21,0,0,0,7.35-2.64v-4Z"/><path class="cls-22" d="M820,241.31c0-.14-.08-.28-.13-.42-.17-.5-1.39-2.42-1.34-2.95s1.53-.15,3,1.72c2,2.52,4,9.53,4,9.53s-7.2-3.08-7.25-3.3c-.13-.52,1.69-2,1.78-2.58A4.82,4.82,0,0,0,820,241.31Z"/><path class="cls-23" d="M804.14,232.63c.74-1.19,2.92-.74,4.25-.77,2.08,0,4.16-.06,6.24,0,.51,0,3.08,0,3.24.71.29,1.31,2,4.09,2.15,5.43.86,4.4,1.64,7.22-1,8.33l-1.46,6.38-3-4.71c-6.06,1.73-9.11-2.56-10.1-3.23.43-4.9-.79-9.72-.49-11.57A1.74,1.74,0,0,1,804.14,232.63Z"/><path class="cls-22" d="M814.51,248.05,811,255.19c-8.21-2.92-10-10.41-9.28-11.66a12.69,12.69,0,0,1,2.71-3.36C804.42,248,812.61,248.24,814.51,248.05Z"/><polygon class="cls-24" points="826.91 223.4 816.6 217.44 817.44 217.44 826.89 222.9 826.91 223.4"/><path class="cls-19" d="M822.18,237.94c-.45,2-1.09,4.46-3,4.89a15.41,15.41,0,0,1-5.85-.23,13.78,13.78,0,0,1-8.7-6.24c-2.65-4.11-5.67-7.16-4.11-11.79.77-2.29,7.43-4.66,9.4-6.35a18.66,18.66,0,0,1,4.67-2.75c4.73-2.13,8.84-1.94,9.16,2.94a60.86,60.86,0,0,1,.28,7.27A47.89,47.89,0,0,1,822.18,237.94Z"/><path class="cls-24" d="M816.05,207.23c-6.75-1.54-13.09.29-14.56,5.22-6.9,4.3-2.71,19.25,1.71,21.74-1.42-2.46-2.12-3.66-2-5.12.05-.88.51-1.91,1.39-2,3.7-.5,3.55,4.5,5,4.79,2.52.5.12-5.44,2.47-8,.77-.85,7.1-7.19,13.58-6.26C825,213.91,821.79,208.55,816.05,207.23Z"/><g class="cls-12"><path class="cls-25" d="M818.47,344a10.74,10.74,0,0,0-1.73-2.72,8,8,0,0,0-1.94-1.63l-39.4-22.75a3.14,3.14,0,0,0-3.15-.31l-10.53,6.13,45.62,56.88,10.54-6.12a3.14,3.14,0,0,0,1.3-2.87l.06-23.27A8.27,8.27,0,0,0,818.47,344Z"/><path class="cls-26" d="M804.26,345.74,764.86,323c-2.45-1.41-4.43-.26-4.44,2.56l-.07,23.28a9.75,9.75,0,0,0,4.42,7.68l39.4,22.75c2.46,1.41,4.46.29,4.47-2.55l.06-23.28A9.76,9.76,0,0,0,804.26,345.74Z"/><path class="cls-27" d="M816.74,341.25l-10.53,6.13a10.63,10.63,0,0,1,1.72,2.72L818.47,344A10.74,10.74,0,0,0,816.74,341.25Z"/></g><path class="cls-28" d="M814.22,373.74l.06-23.66a8.21,8.21,0,0,0-.75-3.27,10.54,10.54,0,0,0-1.71-2.68,7.36,7.36,0,0,0-1.9-1.6l-39.84-23a2.74,2.74,0,0,0-2.21-.41l.72-.42a3.78,3.78,0,0,1,1.65.55l39.84,23a8.26,8.26,0,0,1,2,1.67,11,11,0,0,1,1.75,2.77,8.47,8.47,0,0,1,.79,3.4l-.07,23.66a4.37,4.37,0,0,1-.37,1.86l-.6.35A3.59,3.59,0,0,0,814.22,373.74Z"/><g id="Axonometric_Cube-2" data-name="Axonometric Cube"><polygon class="cls-29" points="771.52 322.34 771.52 322.98 775.2 325.11 775.2 324.47 771.52 322.34"/><polygon id="Cube_face_-_right-2" data-name="Cube face - right" class="cls-30" points="779.16 322.83 775.2 325.11 775.2 324.47 779.16 322.19 779.16 322.83"/><polygon id="Cube_face_-_top-2" data-name="Cube face - top" class="cls-31" points="775.2 324.47 771.52 322.34 775.47 320.06 779.16 322.19 775.2 324.47"/></g><g id="Axonometric_Cube-3" data-name="Axonometric Cube"><polygon class="cls-29" points="799.97 338.77 799.97 339.41 803.66 341.54 803.66 340.9 799.97 338.77"/><polygon id="Cube_face_-_right-3" data-name="Cube face - right" class="cls-30" points="807.62 339.26 803.66 341.54 803.66 340.9 807.62 338.62 807.62 339.26"/><polygon id="Cube_face_-_top-3" data-name="Cube face - top" class="cls-31" points="803.66 340.9 799.97 338.77 803.93 336.49 807.62 338.62 803.66 340.9"/></g><path class="cls-26" d="M787.73,327.81c-2.12-.64-3.15.32-4.33.36a2.78,2.78,0,0,1-1.71-.55,1.29,1.29,0,0,1,.4-2.18,9.66,9.66,0,0,1,6.23-.64C788.63,324.88,788.28,328,787.73,327.81Z"/><path class="cls-19" d="M791.26,328.42a13.81,13.81,0,0,1,.26-3.75,11.47,11.47,0,0,1,.46-3.49c.1-.25.29-.52.55-.48a.64.64,0,0,1,.28.18,7.06,7.06,0,0,1,2,3.09,6,6,0,0,1-.2,3.88,2.33,2.33,0,0,1-.45.74,3.13,3.13,0,0,1-1,.64c-.45.2-1,.39-1.4.1A1.3,1.3,0,0,1,791.26,328.42Z"/><path class="cls-19" d="M792.75,332.11c-1,.35-3.74-.06-6.66-1.91-3.64-2.3.58-8.23,1.14-9.8.73-2,5.92-2.92,5.84-1.85-.16,2.14.43,6.19.53,9.67a24.11,24.11,0,0,1,1.19,3.21Z"/><path class="cls-26" d="M792.1,330.34a9.18,9.18,0,0,1,2,4.43s1.65,1.53,3.21.63c.53-.31.2-1.56,0-2a12.6,12.6,0,0,0-3.08-5.21C793.25,327.12,791.28,329.4,792.1,330.34Z"/><path class="cls-20" d="M788,255.39c-3.77,10.13-4.56,32.48-4.53,34.35.06,5.05,2.63,31.14,2.63,31.14.12,2.77,8.5,2.92,8.5.63l2.1-31.16s4.09-23.78,2.13-33.92c-.52-2.73-.82-5.07-4.15-6.17C792.66,249.61,790.11,249.6,788,255.39Z"/><polygon class="cls-24" points="812.48 231.37 802.52 225.62 803.37 225.62 812.5 230.89 812.48 231.37"/><path class="cls-24" d="M820.54,226.41a1.5,1.5,0,0,0-1.8.84l.1.51c.17-.33.78-1.33,1.71-.92Z"/><path class="cls-32" d="M824.13,228.53c-1.75,1.08-3.34.44-3.55-1.42l0-.3a3.88,3.88,0,0,1,1.76-3.39L824.6,222c1.11-.69,2.12-.28,2.26.9l0,.3A6.1,6.1,0,0,1,824.13,228.53Z"/><path class="cls-33" d="M816.08,233.18c-1.74,1.07-3.33.44-3.55-1.43l0-.3a3.86,3.86,0,0,1,1.76-3.38l2.29-1.42c1.12-.68,2.13-.28,2.26.91l0,.3A6.13,6.13,0,0,1,816.08,233.18Z"/><path class="cls-24" d="M826.93,222.91a1.45,1.45,0,0,0-.73-1.18,1.71,1.71,0,0,0-1.63.22l-2.3,1.42a4,4,0,0,0-1.79,3.45l0,.29a2.17,2.17,0,0,0,1.13,1.82,1.89,1.89,0,0,0,.85.19,3.26,3.26,0,0,0,1.67-.53,6.17,6.17,0,0,0,2.8-5.38Zm-2.84,5.57a2.55,2.55,0,0,1-2.39.34,2.08,2.08,0,0,1-1.06-1.72l0-.3a3.79,3.79,0,0,1,1.73-3.32l2.29-1.42a2,2,0,0,1,1-.32,1.18,1.18,0,0,1,.5.11,1.3,1.3,0,0,1,.66,1.07l0,.3A6,6,0,0,1,824.09,228.48Z"/><path class="cls-24" d="M818.15,226.38a1.71,1.71,0,0,0-1.63.22l-2.3,1.41a4,4,0,0,0-1.79,3.45l0,.3a2.2,2.2,0,0,0,1.12,1.82,2,2,0,0,0,.86.18,3.21,3.21,0,0,0,1.66-.52,6.17,6.17,0,0,0,2.8-5.39l0-.3A1.41,1.41,0,0,0,818.15,226.38Zm-2.1,6.74a2.54,2.54,0,0,1-2.4.34,2,2,0,0,1-1.06-1.71l0-.3a3.84,3.84,0,0,1,1.73-3.33l2.3-1.41a2,2,0,0,1,1-.32,1.18,1.18,0,0,1,.5.1,1.31,1.31,0,0,1,.66,1.08l0,.3A6,6,0,0,1,816.05,233.12Z"/><path class="cls-34" d="M806.31,230s6,7.78,17.64.68c0,0-.43,11.32-5.21,12.76s-13.51-3.39-14.87-8.22Z"/></g></g><g id="_2-2" data-name="2"><path class="cls-35" d="M766,313.1c-1.85,2.74.7,2.1.7,2.1s8.81-7.61,9.07-11.16C775.78,304,772.3,303.75,766,313.1Z"/><path class="cls-36" d="M785.92,333c1.47,1.28,3.31,2.66,5.17,2.08s2.66-3,3-5.11c1.54-8.91,1.68-11.1,2.19-11.92.4-.64,2.36-3.42,3.15-4.67,1.83-2.88,1.62-3.16,1-4.12-.18-.3-.58-.82-1-.76a2.17,2.17,0,0,0-.2-1.23,2.23,2.23,0,0,0-2.61-1.33,2.16,2.16,0,0,0-3.73-.44,8.29,8.29,0,0,0-.94,1.9c-1.73-.17-4.21,2.35-3.31,4.18a6.06,6.06,0,0,1,.56,4.32,56.89,56.89,0,0,1-1,5.9c-8.24-8.74-7.79-6.86-11.12-11.44-1.28-1.76-3.1-5.69-4.54-7.32-2.62-3-7-4.61-10.66-3.11-.48.2-1,.5-1.1,1a1.7,1.7,0,0,0,.17,1,41.31,41.31,0,0,0,5.19,8.73c2.94,4.14,5.69,8.56,8.88,12.52C778,326.89,782.35,329.88,785.92,333Z"/><path class="cls-20" d="M782.22,299.77l5.51-2.23s2.5,6.9,4.54,9.81L790.52,310C787.27,307.92,782.22,299.77,782.22,299.77Z"/><path class="cls-20" d="M790.75,309.13c-1.12-3.44-2-6.71-1.4-10.72l5.42-.45c-1.39,3.25-1.82,5.36-1.41,8.26Z"/><path class="cls-36" d="M788.63,309.79a6,6,0,0,1,1-1.77,2.35,2.35,0,0,1,1.68-1.08,1.35,1.35,0,0,1,1.31,1.34c0,1.13-1.45,1.74-1.79,2.82-.26.8.13,1.66.11,2.5a1.45,1.45,0,0,1-.19.87c0,.06-.64.55-.7.46a12,12,0,0,1-.89-2.27,6.36,6.36,0,0,1-.7-1.92A2.9,2.9,0,0,1,788.63,309.79Z"/><path class="cls-37" d="M756.24,291.92l7.19,20.91,3.28,2.37s2.53-9.56,9.07-11.16C775.78,304,762.44,291.36,756.24,291.92Z"/><path class="cls-10" d="M730.55,293.45c-9,4.51-10.93,7.54-12.34,13.62-3.25,14,.79,42.2,14.29,40.88,1-.1,4,4,4.74,3.26C757.81,330.29,761.64,277.84,730.55,293.45Z"/><path class="cls-21" d="M717.39,455.1c.28,1.37,6,11,8.43,12.46,1.38.84,7.22,1.05,8.78.41a2.21,2.21,0,0,0,1.61-1.89c0-.44.13-2-.29-2.49-1.89-2.27-8.63-9.77-9.61-12.49-.36-1-.22-2.2-.92-3s-7.77,2.93-7.94,3.63A10,10,0,0,0,717.39,455.1Z"/><path class="cls-21" d="M755.38,450.75a4.22,4.22,0,0,0,.24,2.93,3.42,3.42,0,0,0,1.45,1c1.93,1.06,3.9,2,5.78,3.18,4.44,2.66,8,8.75,14.33,4.09,2.57-1.48,2.25-4.94-.11-6.46-3-1.91-8.87-2.65-11.94-6.14a4.91,4.91,0,0,1-1.34-3.24,2.48,2.48,0,0,0-.1-1.05c-.28-.62-1.12-.72-1.8-.72l-3.34,0c-.57,0-1.47.05-1.84.55a1.63,1.63,0,0,0-.24.7C756.15,447.31,755.75,449.06,755.38,450.75Z"/><path class="cls-20" d="M717.39,453.18c.28,1.37,6,11,8.43,12.46,1.38.85,7.22,1.05,8.78.41s2.22-1.86,1-3.32c-1.89-2.27-8.31-10.83-9.29-13.55-.36-1-.22-2.2-.92-3-.57-.63-6.71.49-6.88,1.19C718.16,448.89,717.06,451.58,717.39,453.18Z"/><path class="cls-20" d="M755.62,448.93a8.23,8.23,0,0,0-.25,1.64c0,1.57,1.25,2.08,2.48,2.73,1.68.88,3.37,1.74,5,2.72,4.44,2.68,8.7,8.76,14.33,4.1,5.82-5.08-6.55-6.35-12-12.61a4.86,4.86,0,0,1-1.34-3.23,2.48,2.48,0,0,0-.1-1c-.28-.62-1.12-.72-1.8-.72l-3.34,0c-.57,0-1.47,0-1.84.55a1.54,1.54,0,0,0-.24.69C756.15,445.46,756,447.23,755.62,448.93Z"/><path class="cls-38" d="M762.56,360.29a4.2,4.2,0,0,0-4.4-1.9c-.75.16-1.43.53-2.15.74-3.51,1-7.06-1.63-10.71-1.61l-19.69.67c-4,5.95-4.93,13.1-5.06,20.28-.18,9.38,2.43,18.87-.9,28-.89,2.45-2.18,4.74-3,7.21-1.69,5.34-.92,11.12.2,16.61A64.4,64.4,0,0,1,718,447.16c-.22,2.29,8.24,2.73,8.24.3,0-3.94,1.3-15,3.1-27.83a25.34,25.34,0,0,1,3.25-9.19c4.31-7.43,6.68-16.41,8.07-24.82.52-3.17,1.18-7.12,1.18-7.12a5.65,5.65,0,0,0,3.45,0,63.85,63.85,0,0,0,1.9,8.51c.87,2.79,1.73,5.58,2.6,8.38,1,3.16,2,6.33,3.2,9.4a10.21,10.21,0,0,1,1.12,4.45,12.17,12.17,0,0,1-.63,2.65c-3.32,11,2.7,20.75,2.74,31.68,0,2.44,7.87,2.43,7.87.14,0-8.91,1-16.25.52-25.13a9.56,9.56,0,0,1,0-2.33,11.37,11.37,0,0,1,.72-2.18c1.5-3.84,1.28-7.64,1.56-11.71C768.7,377.29,763.26,361.46,762.56,360.29Z"/><path class="cls-37" d="M726.89,321.93c7.36,28.29,6,23.16-1.52,36.17-3.35,5.81,12.36,11.32,19.36,11.13,10.29-.29,19.82-4.35,18.73-9.29a65.87,65.87,0,0,1-.39-26.35c.39-2.09,2.39-5.22,3.93-8a11.38,11.38,0,0,0,1-8.87c-.5-1.67-1.15-3.3-1.8-4.92l-7-17.45a4.05,4.05,0,0,0-1.44-2.13,4.1,4.1,0,0,0-3.31,0c-9.08,2.7-18.13,5.79-26.32,10.55C717.4,309.11,725.12,315.12,726.89,321.93Z"/><path class="cls-10" d="M766.77,313.68c0-3.44-2.5-16.9-9.06-21.5-1.27-.89-3.69-.59-3.82,1.12S754,296,755.34,297C763.65,303,765.56,312.17,766.77,313.68Z"/><path class="cls-39" d="M736.91,367c.68.48-2.71,18.63-4.43,23.9-.71,2.21-3.78,3.64-5.83,3.43-1.7-.18-11.95-5.41-12.71-6.51-1.8-2.62-.32-8.91,2.34-22.24.94-4.71,3.72-7.5,7.44-5.63S733.4,364.46,736.91,367Z"/><path class="cls-40" d="M737,367.2l-2.88,1.48a3,3,0,0,0-1.51,1.71l-1.79,5a2.17,2.17,0,0,1-3,1.23l-11.92-5.71a2.19,2.19,0,0,1-1.13-2.68l2.24-6.57s.81-1.49,4.16-2.38S737.85,365.73,737,367.2Z"/><path class="cls-40" d="M752.55,292c6.66,10.64,6.22,19.38,4.12,27.95-2.82,11.47-23.14,50-23.14,50l3.12-1.61c4.05-7.31,18.7-37.8,20.56-43.66C762.62,311,758.84,291.29,752.55,292Z"/><path class="cls-41" d="M724.8,373.93c-.46-1-1.53-3.73-.06-4.33.91-.36,2.27.51,3.17.6a1.51,1.51,0,0,0,1.86-1.3c.2-1-1.37-1.07-2-1.47-5.84-3.41-7.51-1.22-8.54-5.74-.88-3.88-.29-21.15-1.4-22.72,0,0,8.78-7.67,13.17-17.52a45.59,45.59,0,0,0-1.07-5.17,64.18,64.18,0,0,0-2.26-7.23l-5.67.11c-.44,1.21-.79,2.48-1.16,3.69-1.46,4.7-3.88,9-6.27,13.33q-2.41,4.32-4.81,8.64a9.82,9.82,0,0,0-1.69,4.91c.08,3.11,4.55,18,5.62,24,.38,2.1.78,4.2,1.08,6.32s.32,4.56.64,6.85c.17,1.19,2.95,3.9,3.41,4.3a4.85,4.85,0,0,0,5.71.29c1.83-1.2,3.38-3,2.69-4.61C727,376.38,725.1,374.59,724.8,373.93Z"/><path class="cls-37" d="M727.89,303s-6.51,2-15.34,23.17c0,0,2.4,6.3,12.59,7.69l10.11-10.34Z"/><path class="cls-41" d="M747.81,308c9.32-2.06,7.68-6.79,6.26-9.35-2.13-3.85-3.66-3.15-7.2-2.75a22.37,22.37,0,0,0-4.9.79,23.33,23.33,0,0,0-5.17,2.13C730.18,302.33,740.81,309.57,747.81,308Z"/><path class="cls-42" d="M737.89,299.37c-1.19,2.08,4.09,5.84,7.21,6.19s8-.46,8.49-3.65a35,35,0,0,1-1.22-6.59c-.19-1.69-.83-2.63-1-4.33a7.85,7.85,0,0,0-1.05-3.64,5,5,0,0,0-4-2c-2-.08-5.65.69-6.71,2.72a4.83,4.83,0,0,0-.46,2.53C739.48,295.59,738.85,297.7,737.89,299.37Z"/><path class="cls-43" d="M737.28,276c1.8-1.33,4.35.3,6.3-1.16,1.29-1.2,1.18-2.27.55-3.21-2.22-3.31-4.14-1-4.75-5.31a4.63,4.63,0,0,0-3.23-5.23c-4.27-1.26-9,2.08-8.17,6.88.65,3.57,4.64,6.21,1.66,16.51a8.66,8.66,0,0,0,6.1-6.13A4.8,4.8,0,0,1,737.28,276Z"/><path class="cls-37" d="M740.41,266.07s2,1.33,2.19,2.28c1.53,1.57-5.34,8.15-6.7,7.16,0,0-1.46-1.38-1.83-1.7C731.32,271.06,738.09,264.28,740.41,266.07Z"/><path class="cls-41" d="M755.88,269.71a29.92,29.92,0,0,0-5.3-2.78,69.18,69.18,0,0,0-11,7.12c-5,3.89-4.78,9.38-3.62,14.77a3,3,0,0,0,.18.3,26,26,0,0,0,2.44,3,46.25,46.25,0,0,0,6.15,5.8c4.13,3.11,8.88,5.06,11,4.16,1.92-.81,3-3.65,3.62-8.06C760.85,283.18,762.63,274.07,755.88,269.71Z"/><path class="cls-43" d="M760.35,276.52c-.92-7.5-8.82-12-16-10.8a13.44,13.44,0,0,0-7.22,3.91c-4.35,4.23-4.85,12.11-2.31,17.56a25.38,25.38,0,0,0,5.81,7.15,19.19,19.19,0,0,1-2.18-5.79c-.13-1.06-.08-2.52,1.64-2.73,1.07-.14,2.31,1,2.31,3.7,0,.35-.28,1.33.74,1.69a1,1,0,0,0,1.3-.88A14.5,14.5,0,0,1,749.86,280C756.4,274.79,759,275.58,760.35,276.52Z"/><path class="cls-40" d="M721.18,359.31a4,4,0,0,1,1.26,0l7.89-23.78c-.45-1.93-1.09-4.46-1.09-4.46l-9.17,28.61C720.4,359.54,720.77,359.42,721.18,359.31Z"/><path class="cls-10" d="M735,313.69c.64,6.14-5,18.88-5.15,19.91a18.12,18.12,0,0,0,1.27,5.76c.5.26,5.54-7.87,7.08-11.48,6.71-15.74-3.93-27.3-5.2-27.63s-4.82,1.7-5.59,2.89C732,303.14,734.79,311.29,735,313.69Z"/><path class="cls-34" d="M742.38,288.52s11.71,1.55,17.88-1.29c0,0,.23,14.18-5.11,15.46s-14.48-8.35-14.48-8.35Z"/></g><g id="_12" data-name="12"><g id="_12-2" data-name="12"><path class="cls-37" d="M785.8,403.41c-.13-2.55.09-5.14-.48-7.63a8.8,8.8,0,0,0-1.15-2.84c-1.84-2.85,4.81-5-4.66-10.13-3.49-1.88-9.34-.73-15,2.95s-7.89,7.57-8.46,13.53c-.23,2.4-.38,4.57-.47,6.58-2,1-3.5,4.41-3.51,5.77-.12,14.42,9.33,21.44,12.78,20.64a11.11,11.11,0,0,0,13.51-.68,26.67,26.67,0,0,0,5-5.6C789.61,417.24,786.22,412.14,785.8,403.41Z"/><path class="cls-44" d="M807,403.79l-7.47-11.39c-4.45.69-6.18,3.6-2.53,10.91,0,0,4.81,10.05,7.91,10.93S807,403.79,807,403.79Z"/><path class="cls-37" d="M786.93,508a5.55,5.55,0,0,0-3.95-.46,7.4,7.4,0,0,0-3,1.27,4,4,0,0,0-1.21,3.36,10.28,10.28,0,0,0,.2,1.76c.42,1.67,5.26,7.74,6,8.42,3.67,3.33,7,3.62,10,2.36a2.94,2.94,0,0,0,1.91-3,5.56,5.56,0,0,0-.83-1.86c-4.31-6.35-5.7-8.53-7.79-10.73A5.65,5.65,0,0,0,786.93,508Z"/><path class="cls-20" d="M795.26,523.35c-3,1.26-6.92,1-10.59-2.35-.75-.68-6-7.34-5.91-8.79,0-.19,0-.42,0-.67a7.39,7.39,0,0,0,0,2.51c.24,1.83,5.16,8.11,5.91,8.79,3.67,3.33,7.57,3.61,10.59,2.34a2.84,2.84,0,0,0,1.61-3.58A2.67,2.67,0,0,1,795.26,523.35Z"/><path class="cls-37" d="M770.9,482.08c-1.39.42-2.88.68-3.25,2.23s.2,2.76.52,10.34a7.26,7.26,0,0,0,.79,3.79,26.41,26.41,0,0,0,3.82,3.79c4.44,3.33,9.6-.7,7.77-3.06-1.33-1.73-1.84-2.81-2.6-3.73a4.21,4.21,0,0,1-1-2.55c0-.95,0-2.4,0-4.73a4.27,4.27,0,0,0-.49-2,22.52,22.52,0,0,0-1.93-3.3,1.93,1.93,0,0,0-1.33-.72C772.64,482.11,771.85,482.08,770.9,482.08Z"/><path class="cls-20" d="M773.78,501.88a29.53,29.53,0,0,1-4.19-4,7.46,7.46,0,0,1-.86-3.8c-.32-7.58-.6-8.59-.26-10,.3-1.26,1.7-1.65,3.22-2,0,0-3.51-.34-4.22,2.22-.39,1.42-.06,2.91.27,10.5a7.35,7.35,0,0,0,.85,3.8,30.07,30.07,0,0,0,4.19,4c3.78,2.83,8.07.06,8.13-2.28A4.59,4.59,0,0,1,773.78,501.88Z"/><path class="cls-36" d="M780.74,506.27a6.08,6.08,0,0,1-.27,2.81c-.37.94.26,1.37,1.22,1.65a8,8,0,0,0,4.9-.16,3,3,0,0,0,1.06-.6c1-1-.24-2.86-.48-4-.85-3.91.77-7.87,1.79-11.74.14-.53.24-1.17-.16-1.54a1.63,1.63,0,0,0-.8-.3c-1.5-.24-3.34-.15-4.7-.78-.62-.3-1.29-.39-1.92-.69a5.49,5.49,0,0,0-1.91-.77c.11,3.52.53,7,.81,10.48Q780.5,503.48,780.74,506.27Z"/><path class="cls-36" d="M775.16,481.87a7.57,7.57,0,0,1-2.32,1.29,1.66,1.66,0,0,0-.56.21,1.29,1.29,0,0,0-.42.64,6.36,6.36,0,0,0,1.81,6.91,2.15,2.15,0,0,0,1,.52,2.76,2.76,0,0,0,2-.86,24.89,24.89,0,0,1,5.73-3.34,3.28,3.28,0,0,0,1-.58,2.55,2.55,0,0,0,.67-1.42,8.78,8.78,0,0,0-.45-4.59,4.62,4.62,0,0,0-1.16-1.91c-1.09-1-2.17-.61-3.19.12Z"/><path class="cls-20" d="M807,396.3c-3.12-6.35-5.39-10.28-6.7-11.59a7.28,7.28,0,0,0-5.68-2c-.3.05-.2,6.77-.33,9.66a19.75,19.75,0,0,0,.22,4.92c.33,1.61,2.88,5,3.51,5C801.81,402,807.53,397.29,807,396.3Z"/><path class="cls-45" d="M802.43,467.66c-1.49-11.16-2.1-22.22-3.26-34.66-1.07.55-2.29.91-3.36,1.46a26,26,0,0,0-4.59,2.76,23.31,23.31,0,0,0-4.4,5.09,18,18,0,0,0-2.33,4.12,15,15,0,0,0-.18,8.27c.6,2.73,1.58,5.37,2.18,8.1a61.37,61.37,0,0,1,1.1,10.4L793,484.83a5,5,0,0,0,4.51-.86,10.69,10.69,0,0,0,3-3.68,17.4,17.4,0,0,0,2.39-8.17A31.84,31.84,0,0,0,802.43,467.66Z"/><path class="cls-46" d="M777.85,424.9c-3.24.56-6.72,3.36-9.05,6.37a17.46,17.46,0,0,0-3.29,9.26,16.75,16.75,0,0,0,1.55,9.26c3.53,8.35,11.73,29,11.89,30.46.37,3.28-2.63,8.19-2.63,8.19-1.27,5.16,12.13,9.73,15.48,3.78A41.14,41.14,0,0,0,795,483a18.13,18.13,0,0,0-.53-6.44c-1.1-3.56-4.74-16.51-6.3-23.88-.74-3.48,1.5-6.51,4.25-8.76,1.07-.88,2.09-1.72,3.15-2.66,2-1.78,4.07-3.61,3.93-5.09-.24-2.64-.62-7.42-.62-7.42s-7.85-2.32-11.66-2.95C784.34,425.32,780.7,424.41,777.85,424.9Z"/><path class="cls-20" d="M766.18,393.49a3.39,3.39,0,0,0-.87,3.81,72.12,72.12,0,0,1,2.79,11c.67,4.29,1,8.61,1.33,12.93.26,3.38.5,6.87-.63,10.06.21,2.35,6.63,4.69,10.58,5.24a23.73,23.73,0,0,0,16.23-3.42A8.62,8.62,0,0,0,799,430c.72-2.35-1.06-9.51-.08-20.3.76-8.43-.69-6.68.54-16.91.27-2.15,1.42-4.82-.53-8.16a4.21,4.21,0,0,0-4.25-2C787.93,383.7,772,389.41,766.18,393.49Z"/><path class="cls-36" d="M784.15,398.34c8.6,3.22,11.81-8.37,7.05-12-1.24-.94-2.54-1.82-4-1.37A76.62,76.62,0,0,0,777,388.84C771.91,391.15,781.61,397.39,784.15,398.34Z"/><path class="cls-44" d="M779.38,391.49a8.6,8.6,0,0,0,10,1.42c2.24-1.3,1-6.64,1-7.09-.32-7.37-.7-4.65-1.91-6.25a4.28,4.28,0,0,0-2.62-1.53,11.5,11.5,0,0,0-3.1-.09,4.39,4.39,0,0,0-3.22,1.19c-1.35,1.68,0,3.17,0,4.9a11.3,11.3,0,0,1-.9,4.93A2.56,2.56,0,0,0,779.38,391.49Z"/><path class="cls-36" d="M793.63,386.56c-.5,1.8-1,4-2.78,4.51-2.1.65-7.58-1.9-10.21-5.26-3.07-3.92-3.68-8.46-2.61-11.22a18.53,18.53,0,0,1,5.16-6.43,17,17,0,0,1,4.41-2.29c4.44-1.7,8.23-1.33,8.34,3.13a54.65,54.65,0,0,1,0,6.65C795.29,382.8,794.34,384,793.63,386.56Z"/><path class="cls-10" d="M787.8,362.77a1.32,1.32,0,0,1-.48-1.91c.3-.54.93-.67,1.36-1.1.69-.7,1.35-1.74,2.11-2.37a14.26,14.26,0,0,1,1-2.71c2.27-4.13,10.57-2.95,9.06,7.94-.52,3.74-1.84,6.81.53,11.62-6.17-1.86-6.89-11.24-7-13a1,1,0,0,0-1.2-1C790.9,360.81,788.29,363.15,787.8,362.77Z"/><path class="cls-47" d="M787,362.15a8.81,8.81,0,0,1,1.21-1.77c.66-.85,1.42-1.73,2.16-2.67,1.44-1.86,5.66,1.6,4.69,3.22-.14.26-2,2.18-2,2.18-.5,1.11-4.27,1.66-5.28,1.06A1.46,1.46,0,0,1,787,362.15Z"/><path class="cls-10" d="M796.46,371.3c.5-5.17.23-10.55-6.31-13a14.12,14.12,0,0,0-16.61,5.82,9.93,9.93,0,0,0-1.18,5.3c.83,10.66,4.36,9.91,6.82,14.16a7.39,7.39,0,0,0-.08-2.1c-.18-.68-.47-1.32-.69-2a6.28,6.28,0,0,1-.41-1.9,1.57,1.57,0,0,1,1.39-1.59c.78-.05,1.72.94,2,1.65.13.36.14.76.3,1.11s.58.64.92.47a.94.94,0,0,0,.39-.44c.8-1.54.15-3.45,1.41-4.81,3.56-3.86,8.34-5.29,10.6-4.77a1.7,1.7,0,0,1,1,1.35,35.31,35.31,0,0,1,0,5.2S796.09,375.09,796.46,371.3Z"/><path class="cls-47" d="M773.89,366.38l-1.51.24c-1.79.27-.34,1.75.19,3.38.93,2.83,1.85,2.29,1.85,2.29.65-.15,1.62-.43,1.62-.43C777.64,371.28,776.64,365.94,773.89,366.38Z"/><path class="cls-10" d="M771.76,366c-4.12-2.31-9.14,2.74-2.61,11.58,2.58,3.48,4.45,6.22,5.28,10.37C776.79,380.66,777.18,369.06,771.76,366Z"/><path class="cls-47" d="M798.71,412.87c2.76-2.75,5.92-10.64,5.84-12.17-.25-5.09-3.7-11.39-7.08-15.22a10.37,10.37,0,0,0-2.77-2.3c-.38,1.29-.75,2.19-1.07,3.38,1.45,1.92,2.79,3.91,4.12,5.91.72,1.07,3.6,6.74,3.6,8.06,0,.72-2,5.2-2.25,6.81Z"/><path class="cls-36" d="M808.5,414.81a4.75,4.75,0,0,0,2-3,19.08,19.08,0,0,0,.33-5.39c0-1-.08-1.93-.11-2.89a4.47,4.47,0,0,0-.17-1.27,3.92,3.92,0,0,0-.65-1.14q-1.9-2.67-4-5.19a3.08,3.08,0,0,0-1.4-1.11,2.86,2.86,0,0,0-1.13,0l-2.32.25c-.82.1-1.82.33-2,1.13-.27,1,.91,1.76,1.25,2.73.11.3.13.63.23.93a3.17,3.17,0,0,0,1.65,1.67,17.9,17.9,0,0,1,2.13,1.11,1,1,0,0,1,.46.59,1.18,1.18,0,0,1-.22.76,14.64,14.64,0,0,0-1.73,6.86C802.72,413.62,805.82,416.38,808.5,414.81Z"/><path class="cls-47" d="M776.27,405c.22,5.83-2.88,12.14-6.82,16.45-.62.68-.66,3.58.11,3.08a24.72,24.72,0,0,0,7.16-8c7.1-13.09-1.91-25-4.64-26.25-1.88-.2-4.53,1.73-4.69,2.45C772.68,393.19,776.11,400.73,776.27,405Z"/><path class="cls-34" d="M781.46,378.12a12.6,12.6,0,0,0,13.72,1.94s.8.28.43,1.86-1.35,8.58-4.76,9.15-10.91-3.42-11.67-7.5Z"/></g><path class="cls-18" d="M716.33,502.75l-.59-3-.37.22.42,3.61.37-.22A.56.56,0,0,0,716.33,502.75Z"/><path class="cls-18" d="M715.37,500l-.74-.43a11,11,0,0,1-1.68.54,4.59,4.59,0,0,0,.42.9l1.19,1.83a2.14,2.14,0,0,0,.67.67c.52.3.84,0,.73-.53Z"/><path class="cls-8" d="M711.29,499.82l.16-.1a2.57,2.57,0,0,1,2.62.09c2.32,1.46,3.89,5.42,1.45,6.92l-.16.1a2.39,2.39,0,0,1-1.69.27,5.16,5.16,0,0,1-3.39-3.66C710.09,502.86,709.59,500.86,711.29,499.82Z"/><path class="cls-18" d="M713.42,504.43l-.59-3-.37.22.42,3.6.37-.21C713.41,505,713.48,504.74,713.42,504.43Z"/><path class="cls-18" d="M713.05,504.64l-.59-3-2.64-1.53v.54a3.87,3.87,0,0,0,.65,2l1.19,1.83a2,2,0,0,0,.67.67C712.84,505.48,713.16,505.19,713.05,504.64Z"/><path class="cls-18" d="M709.42,499.1v.64a.91.91,0,0,0,.54.76l1.65.95a2.86,2.86,0,0,0,2.61,0l1.41-.83a.89.89,0,0,0,.54-.75v-.63Z"/><path class="cls-18" d="M742.35,487.73l-.59-3-.37.21.42,3.61.37-.21C742.34,488.27,742.42,488,742.35,487.73Z"/><path class="cls-18" d="M741.39,485l-.74-.42a12.18,12.18,0,0,1-1.68.54,4.35,4.35,0,0,0,.43.9l1.18,1.83a2.14,2.14,0,0,0,.67.67c.52.3.84,0,.73-.54Z"/><path class="cls-8" d="M737.31,484.8l.16-.1a2.57,2.57,0,0,1,2.62.09c2.32,1.46,3.89,5.42,1.45,6.92l-.16.09a2.33,2.33,0,0,1-1.69.28,5.18,5.18,0,0,1-3.39-3.66C736.11,487.84,735.61,485.84,737.31,484.8Z"/><path class="cls-18" d="M739.44,489.41l-.59-3-.37.21.42,3.61.37-.21C739.43,490,739.5,489.72,739.44,489.41Z"/><path class="cls-18" d="M739.07,489.62l-.59-3-2.65-1.52v.54a3.8,3.8,0,0,0,.66,2l1.18,1.83a2,2,0,0,0,.67.68C738.86,490.46,739.18,490.17,739.07,489.62Z"/><path class="cls-18" d="M735.44,484.07v.64a.92.92,0,0,0,.54.76l1.65.95a2.89,2.89,0,0,0,2.61,0l1.42-.83a.91.91,0,0,0,.53-.75v-.64Z"/><g class="cls-12"><path class="cls-37" d="M752.15,439.48c-.58-.67-2.3-.33-4.83,1.13l-28.63,16.53a31.49,31.49,0,0,0-4.21,3,29.49,29.49,0,0,0-6.78,7.47L696.42,488.2c-.74,1.34-.86,2.25-.47,2.71l11.6,13.23,56.2-51.43Z"/><path class="cls-48" d="M758.9,453.85c4.25-2.45,6.22-1.76,4.38,1.56L752,476c-1.83,3.31-6.77,8-11,10.45L712.37,503c-4.24,2.45-6.18,1.74-4.35-1.57L719.3,480.8c1.82-3.31,6.74-8,11-10.42Z"/></g><path class="cls-48" d="M698.32,493.61l.44.5L711.93,470a29.52,29.52,0,0,1,6.7-7.38,32.77,32.77,0,0,1,4.17-2.93l28.62-16.52-.31-.55-28.63,16.53a32.26,32.26,0,0,0-4.25,3,30.23,30.23,0,0,0-6.86,7.57Z"/><polygon class="cls-17" points="747.4 458.47 746.51 457.42 758.66 434.44 759.55 435.49 747.4 458.47"/><polygon class="cls-49" points="759.55 435.49 758.66 434.44 761.07 433.08 761.96 434.12 759.55 435.49"/><polygon class="cls-18" points="761.96 434.12 749.81 457.1 747.4 458.47 759.55 435.49 761.96 434.12"/><polygon class="cls-17" points="736.55 464.74 735.66 463.69 747.8 440.71 748.7 441.75 736.55 464.74"/><polygon class="cls-49" points="748.7 441.75 747.8 440.71 750.21 439.34 751.11 440.39 748.7 441.75"/><polygon class="cls-18" points="751.11 440.39 738.96 463.37 736.55 464.74 748.7 441.75 751.11 440.39"/><g class="cls-12"><path class="cls-14" d="M762.94,433.36,761.48,432a.51.51,0,0,0-.53,0l-15.56,9,2.07,4.23,15.56-9A2.3,2.3,0,0,0,762.94,433.36Z"/><path class="cls-10" d="M745.92,441.06l.2.17,1.26,1.15A2,2,0,0,1,748,444l-.23.82a.5.5,0,0,1-.8.36l-.19-.17-1.27-1.15a2,2,0,0,1-.57-1.66l.22-.82A.51.51,0,0,1,745.92,441.06Z"/></g><path class="cls-36" d="M756.11,417.39c-2.91,5-4.42,10-6.31,13.73a4.11,4.11,0,0,0-.44,2,63.29,63.29,0,0,0,0,7.07c1.7,2.19,2.16,2.93,3.49,3.07.57.05,4.29-1.83,4.45-2.51a12,12,0,0,0,.33-4.39c-.16-.41-1.25-1.81-2.37-3.94a131.51,131.51,0,0,1,8.45-11.74,28.56,28.56,0,0,0,2-2.75c1.31-2.11,2.66-4,3.78-6a10.17,10.17,0,0,0,1.57-4.52,5.73,5.73,0,0,0-2.16-4.36,7.7,7.7,0,0,0-4.67-1.61c-1.68,0-.73-2.28-1.55-.82s-1.15,4.43-2,7.82C759.84,412.07,758,414.19,756.11,417.39Z"/><g class="cls-12"><path class="cls-14" d="M752.25,439.52l-1.46-1.31a.51.51,0,0,0-.53,0L745.39,441l2.07,4.23,4.87-2.85A2.3,2.3,0,0,0,752.25,439.52Z"/><path class="cls-10" d="M745.92,441.06l.2.17,1.26,1.15A2,2,0,0,1,748,444l-.23.82a.5.5,0,0,1-.8.36l-.19-.17-1.27-1.15a2,2,0,0,1-.57-1.66l.22-.82A.51.51,0,0,1,745.92,441.06Z"/></g><path class="cls-20" d="M766.74,393.38a2.15,2.15,0,0,0-1.37.89c-2.27,3.08-5.81,11.42-5.81,11.42-1,2.63,10.29,7.51,11.71,5.66,1.91-3.51,2.41-3.94,3.38-7.8C776.11,397.75,769.93,392.89,766.74,393.38Z"/></g><path id="Floor-2" data-name="Floor" class="cls-6" d="M369,364.6c61.4,35.45,61.4,92.93,0,128.38s-160.95,35.45-222.36,0-61.4-92.93,0-128.38S307.62,329.15,369,364.6Z"/><path class="cls-50" d="M217.45,297.84v1.68a1.29,1.29,0,0,0,1.93,1.11l7.92-4.59a1.31,1.31,0,0,0,.64-1.12v-1.68a1.29,1.29,0,0,0-1.93-1.11l-7.91,4.6A1.28,1.28,0,0,0,217.45,297.84Z"/><path class="cls-50" d="M192.42,320.64v1.68a1.29,1.29,0,0,0,1.93,1.11l33-19a1.29,1.29,0,0,0,.64-1.12v-1.68a1.28,1.28,0,0,0-1.92-1.11l-33,19A1.27,1.27,0,0,0,192.42,320.64Z"/><g class="cls-51"><path class="cls-50" d="M206.06,329.5v1.68a1.29,1.29,0,0,0,1.93,1.11l19.38-11.19A1.3,1.3,0,0,0,228,320V318.3a1.29,1.29,0,0,0-1.93-1.11L206.7,328.38A1.29,1.29,0,0,0,206.06,329.5Z"/></g><path class="cls-50" d="M197.55,326v1.68a1.28,1.28,0,0,0,1.93,1.11l27.86-16.08a1.3,1.3,0,0,0,.64-1.12V310a1.28,1.28,0,0,0-1.93-1.11L198.2,324.92A1.3,1.3,0,0,0,197.55,326Z"/><g class="cls-52"><path class="cls-53" d="M370,323.26a1.44,1.44,0,0,1,.66,1.13l0,11.43c0,.42-.3.59-.66.38l-14.47-8.36a1.42,1.42,0,0,1-.66-1.13l0-11.43c0-.42.3-.58.66-.37Z"/></g><g class="cls-54"><path class="cls-55" d="M375.31,343.59a1.45,1.45,0,0,1,.65,1.13l0,11.43c0,.42-.3.59-.66.38l-14.47-8.36a1.41,1.41,0,0,1-.65-1.13l0-11.43c0-.42.29-.58.66-.37Z"/></g><g class="cls-52"><path class="cls-56" d="M230.92,375.27a1,1,0,0,1,.42.74l0,7.38c0,.27-.19.38-.43.24l-9.35-5.39a1,1,0,0,1-.42-.74l0-7.38c0-.27.19-.38.43-.25Z"/></g><g class="cls-54"><path class="cls-57" d="M234.35,388.41a.93.93,0,0,1,.42.73l0,7.38c0,.27-.19.38-.43.25l-9.34-5.4a.93.93,0,0,1-.43-.73l0-7.39c0-.27.2-.37.43-.24Z"/></g><path class="cls-58" d="M327,291.65l.15.13c.45.36.89.75,1.32,1.15l.16.14c.43.42.86.84,1.28,1.29a1.14,1.14,0,0,1,.11.11c.44.48.88,1,1.31,1.48v0c.44.52.86,1.06,1.27,1.62h0c.37.5.73,1,1.08,1.55l.62,1c.17.28.35.55.52.84l.22.4c.27.48.54,1,.79,1.45a1.09,1.09,0,0,0,.08.15q.45.9.84,1.8a.36.36,0,0,1,0,.09,29,29,0,0,1,2.6,11.43l6.93-4a28.12,28.12,0,0,0-2.07-10.13h0l-.3-.75-.24-.55,0-.09,0-.1c-.11-.25-.22-.5-.34-.75s-.26-.55-.4-.82l-.06-.12c0-.06-.06-.11-.08-.16l-.34-.65c-.14-.27-.3-.53-.45-.8s-.14-.27-.22-.4l-.09-.16-.43-.68-.62-1-.1-.15c-.32-.48-.65-.94-1-1.4h0l-.69-.91-.58-.71v0h0l-.6-.71-.6-.66-.1-.11-.11-.11-.43-.45c-.21-.22-.43-.43-.65-.64l-.2-.19-.16-.15-.32-.3-.69-.6-.31-.25-.15-.13-.23-.18-.68-.52-.5-.36-.09-.06-.08-.06-.66-.43-.66-.41-.15-.09-66.17-38.2-.5-.28-.63-.33-.41-.19-.1,0-.12-.06-.62-.26-.63-.24-.1,0-.1,0-.42-.13c-.21-.07-.42-.13-.64-.18l-.3-.07-.13,0-.2,0c-.23,0-.46-.08-.68-.11l-.41,0-.14,0h-.14l-.73,0-.31,0h-.49a8.86,8.86,0,0,0-.9.13h0l-.19.06a8.11,8.11,0,0,0-.88.24l-.1,0-.14.06a6.23,6.23,0,0,0-1,.48l-6.93,4a7.24,7.24,0,0,1,1-.49l.14-.05a6.82,6.82,0,0,1,1-.28l.19-.06a8.56,8.56,0,0,1,1.16-.14h.24a9.39,9.39,0,0,1,1.18,0h.14a11.7,11.7,0,0,1,1.28.2l.14,0c.45.1.9.23,1.36.38l.1,0c.48.17,1,.37,1.47.59l.1,0c.5.23,1,.5,1.54.8L324,289.54c.52.3,1,.63,1.55,1l.09.06C326.09,290.92,326.56,291.28,327,291.65Z"/><path class="cls-59" d="M346.34,311.58l0-.75-.06-.76-.09-.76c0-.25-.07-.51-.11-.77s-.09-.53-.13-.79-.11-.54-.17-.81-.12-.54-.19-.81l-.21-.82-.24-.82-.26-.8-.27-.79c-.1-.26-.19-.51-.29-.76l-6.93,4c.1.25.19.5.28.76s.19.52.28.79.17.53.26.8l.24.82.21.82c.07.27.13.54.19.81s.11.54.17.81.09.52.13.78.08.52.11.78l.09.76.06.75q0,.39,0,.75c0,.24,0,.47,0,.7L339,475.08c0,.59,0,1.16-.08,1.7,0,.05,0,.1,0,.15-.05.5-.12,1-.21,1.45l0,.18c-.1.45-.21.88-.34,1.29,0,.08-.05.15-.07.23-.13.38-.28.75-.44,1.1l0,.12a9.42,9.42,0,0,1-.63,1.13l-.1.14a6.57,6.57,0,0,1-.6.79c-.07.09-.15.17-.23.26a7.6,7.6,0,0,1-.58.56l-.26.22a7.94,7.94,0,0,1-.89.63l6.93-4a7.94,7.94,0,0,0,.89-.63l.26-.21c.2-.18.39-.37.58-.57l.24-.26a7.73,7.73,0,0,0,.59-.79l.1-.14,0,0a8.29,8.29,0,0,0,.59-1.06s0,0,0,0l0-.12c.11-.24.22-.48.31-.73s.08-.25.13-.38.05-.15.07-.23a1.29,1.29,0,0,0,.07-.21c.08-.25.15-.52.21-.79l.06-.29,0-.18.06-.28c0-.25.08-.49.11-.74s0-.29,0-.43a.78.78,0,0,0,0-.14c0-.06,0-.12,0-.18,0-.24,0-.48,0-.73s0-.49,0-.75v0l.45-158.78C346.35,312,346.35,311.81,346.34,311.58Z"/><path class="cls-58" d="M324,289.54c8.56,4.94,15.48,16.92,15.45,26.76L339,475.08c0,9.84-7,13.81-15.55,8.87l-66.18-38.21c-8.55-4.94-15.47-16.93-15.45-26.76l.45-158.78c0-9.84,7-13.8,15.56-8.86Z"/><path class="cls-58" d="M299.57,290.72a4.15,4.15,0,0,1,1.87,3.24c0,1.2-.85,1.68-1.89,1.08l-17.06-9.85a4.1,4.1,0,0,1-1.87-3.25c0-1.19.85-1.67,1.88-1.07Z"/><path class="cls-60" d="M290.59,442a11.14,11.14,0,0,1,5,8.74c0,3.21-2.28,4.51-5.07,2.89a11.09,11.09,0,0,1-5.05-8.73C285.52,441.67,287.8,440.37,290.59,442Z"/><path class="cls-53" d="M332.63,323.79a3.43,3.43,0,0,1,1.55,2.69l-.38,132.67c0,1-.7,1.39-1.56.89L249,412a3.44,3.44,0,0,1-1.56-2.69l.38-132.67c0-1,.7-1.39,1.56-.89Z"/><path class="cls-61" d="M343.05,369.82h0a1,1,0,0,1-1-1v-29.5a1,1,0,0,1,1-1h0a1,1,0,0,1,1,1v29.5A1,1,0,0,1,343.05,369.82Z"/><path class="cls-61" d="M343.05,406.53h0a1,1,0,0,1-1-1V376a1,1,0,0,1,1-1h0a1,1,0,0,1,1,1v29.51A1,1,0,0,1,343.05,406.53Z"/><path class="cls-62" d="M343.05,451.64h0a1,1,0,0,1-1-1V435.37a1,1,0,0,1,1-1h0a1,1,0,0,1,1,1v15.29A1,1,0,0,1,343.05,451.64Z"/><polygon class="cls-63" points="310.27 393.25 270.89 370.52 270.89 318.02 310.27 340.75 310.27 393.25"/><polygon class="cls-64" points="293.59 333.27 290.58 331.53 290.58 335.55 293.59 337.29 293.59 333.27"/><polygon class="cls-64" points="290.58 339.56 290.58 335.55 287.56 333.81 287.56 337.82 290.58 339.56"/><polygon class="cls-64" points="275.51 326.85 275.51 330.87 275.51 334.88 278.52 336.62 281.54 338.36 281.54 334.35 281.54 330.33 278.52 328.59 275.51 326.85"/><polygon class="cls-64" points="299.62 340.77 299.62 344.78 299.62 348.8 302.63 350.54 305.64 352.28 305.64 348.26 305.64 344.25 302.63 342.5 299.62 340.77"/><polygon class="cls-64" points="281.54 370.51 281.54 366.49 281.54 362.47 278.52 360.73 275.51 358.99 275.51 363.01 275.51 367.03 278.52 368.76 281.54 370.51"/><polygon class="cls-64" points="290.58 351.62 293.59 353.36 293.59 349.34 290.58 347.6 290.58 351.62"/><polygon class="cls-64" points="296.6 359.12 296.6 355.1 293.59 353.36 293.59 357.38 296.6 359.12"/><polygon class="cls-64" points="284.55 356.17 284.55 360.19 287.56 361.93 290.58 363.67 290.58 359.65 290.58 355.64 287.56 353.9 287.56 357.91 284.55 356.17"/><path class="cls-64" d="M284.55,356.17v-4l3,1.74v-4l-3-1.74v-4l3,1.74,3,1.74v-4l-3-1.74-3-1.74v-8l3,1.74v-4l-3-1.74-12.05-7v20.09l3,1.74v-4l3,1.74v4l3,1.74v4l-3-1.74v4l3,1.73ZM274,336V324l9,5.22v12.05Z"/><polygon class="cls-64" points="272.5 345.2 272.5 349.21 275.51 350.95 275.51 346.94 272.5 345.2"/><polygon class="cls-64" points="299.62 364.87 299.62 368.89 302.63 370.63 302.63 374.65 305.64 376.39 305.64 372.37 305.64 368.35 302.63 366.61 299.62 364.87"/><polygon class="cls-64" points="302.63 362.6 305.64 364.33 305.64 360.32 302.63 358.58 302.63 362.6"/><polygon class="cls-64" points="299.62 376.93 296.6 375.19 296.6 371.17 296.6 367.15 296.6 363.13 293.59 361.39 293.59 365.41 290.58 363.67 290.58 367.69 293.59 369.43 293.59 373.45 293.59 377.46 296.6 379.2 299.62 380.94 299.62 384.96 302.63 386.7 302.63 382.69 302.63 378.67 302.63 374.65 299.62 372.91 299.62 376.93"/><polygon class="cls-64" points="305.64 384.42 305.64 388.44 308.66 390.18 308.66 386.16 308.66 382.15 308.66 378.13 305.64 376.39 305.64 380.4 305.64 384.42"/><polygon class="cls-64" points="308.66 370.09 308.66 366.07 305.64 364.33 305.64 368.35 308.66 370.09"/><path class="cls-64" d="M290.58,371.71v-4l-3-1.74-3-1.74v-4l-6-3.48v-4l-3-1.75v4l-3-1.74V369.3l12.05,7v-4l3,1.73v-4ZM283,373.39l-9-5.23V356.11l9,5.22Z"/><polygon class="cls-64" points="287.56 373.98 287.56 378 290.58 379.74 293.59 381.48 293.59 377.46 290.58 375.73 287.56 373.98"/><path class="cls-64" d="M296.6,335v8l-3-1.74-3-1.74v4l3,1.74v4l3,1.74,3,1.74v4l3,1.74v-4l3,1.74v4l3,1.74V342Zm1.51,14.93V337.89l9,5.22v12.05Z"/><polygon class="cls-65" points="268.73 330.97 266.69 329.79 266.69 310 281.54 318.58 281.54 321.29 268.73 313.89 268.73 330.97"/><polygon class="cls-65" points="314.46 401.27 299.62 392.7 299.62 389.99 312.42 397.39 312.42 380.3 314.46 381.47 314.46 401.27"/><polygon class="cls-65" points="281.54 382.27 266.69 373.69 266.69 353.89 268.73 355.07 268.73 372.16 281.54 379.56 281.54 382.27"/><polygon class="cls-65" points="314.46 357.37 312.42 356.2 312.42 339.12 299.62 331.73 299.62 329.02 314.46 337.58 314.46 357.37"/><path class="cls-55" d="M295.64,406.15a9.3,9.3,0,0,1,4.21,7.29v1.72c0,2.68-1.9,3.76-4.24,2.42L273.47,404.8a9.34,9.34,0,0,1-4.22-7.3v-1.72c0-2.67,1.91-3.76,4.25-2.41Z"/><path class="cls-66" d="M276.12,406.62a12.11,12.11,0,0,0,1.88-1.5c.37-.5.87-3.38.37-3.51s-.88,1.88-.88,1.88-.12-5.26-.75-6-2.63,3-2.75,3.63-.63,3.26-.63,3.26S274.11,406.62,276.12,406.62Z"/><path class="cls-62" d="M237.86,421.71s-3.92,3.94-1.17,8.69,21.53-7,23.53-8.76,15.15-13.52,15.9-15-.88-3-2.88-2.75-10,8.76-16.27,12.76C257,416.63,242,420,237.86,421.71Z"/><path class="cls-62" d="M240.16,505a9,9,0,0,0,.11,3.34,2.43,2.43,0,0,0,3.34.64,34.85,34.85,0,0,0,3.23-3s3.45-1.84,3.77-2.8-.86-1.83-1.83-1.62-3.77,1.94-5.06,1.94S240.59,503.76,240.16,505Z"/><path class="cls-67" d="M236.61,454.51s3,49.75,3.39,51.19,4.29,2.27,5,0c.46-1.46,1.6-47.49,1.6-47.49Z"/><path class="cls-62" d="M250.13,507.91a.78.78,0,0,0-.27.58,6.77,6.77,0,0,0,.42,2.8,2.89,2.89,0,0,0,3.74.7c1.4-.76,5.69-4,6.56-4.68a2.59,2.59,0,0,0,.87-1.37.78.78,0,0,0-.44-.9,3.76,3.76,0,0,0-2.58-.3c-1.43.48-3.22,2-5.15,1.94A4.67,4.67,0,0,0,250.13,507.91Z"/><path class="cls-68" d="M256.78,455c-.22-2.06-2.69-2.74-5-2-4.35-.24-11.08-.05-11.31,3.33a14.27,14.27,0,0,0,4.25,11c1.67,1.79,2.78,5.22,3.25,6.89.39,13.2,1.27,31.8,1.81,33.58.88,2.87,5.21,2.74,5.4-.05C256.09,498.3,256.78,455,256.78,455Z"/><path class="cls-62" d="M256.79,456.6c-.51,2.55-7.78,3.83-12,3.15s-8.83-2.77-8.68-7.7c0,0,.81-11.8.48-13.89a59.86,59.86,0,0,1-1.13-9.7,11.46,11.46,0,0,1,2.44-6.75s2.38-2.72,9.87-1.19c0,0,6.1,1.33,8.91,5.84,0,0,1.94,5,1.29,15.29S256.79,456.6,256.79,456.6Z"/><path class="cls-69" d="M241.88,415.05s.65,3.77,0,5.5c-.1.86,3.67,3.76,7,3,1.94-.43,1.84-1.4,1.84-1.4a10.27,10.27,0,0,1-1.4-5.28C249.53,414.3,244.15,414.51,241.88,415.05Z"/><circle class="cls-66" cx="245.6" cy="407.46" r="8.89" transform="translate(-164.97 647.81) rotate(-89.27)"/><path class="cls-66" d="M254.49,408.05s.1,8.9-1.84,10.7-4.91-1.68-9.67-2.8,3.86-10.48,3.86-10.48Z"/><path class="cls-66" d="M274.21,421.2s-.85-3.47-.56-3.75,1.4,1.22,1.4,1.22.57-3.57,1-3.94,2.34,1.5,2.62,2.53-1.12,5.16-1.69,5.26S274.49,422.89,274.21,421.2Z"/><path class="cls-62" d="M254,425.33s-3.95,1.88-2.26,6.76,14.27,6.76,15.77,5.26,8.08-9.2,9.95-15c0,0-.75-2.25-3.75-1.31,0,0-7.14,9-8.26,10S255.9,425,254,425.33Z"/><path class="cls-70" d="M238,400.69a11.31,11.31,0,0,1,7.53-3.7c4.77-.3,7.08,1.24,8.93,1.08a2.79,2.79,0,0,1,2.92,3.69c-.62,2.31-2,4.62-5.08,4.62s-3.84-.46-3.84-.46,2.46,1.07,2.77,3.23a49,49,0,0,1,.3,5.38h-.77s-.61-3.54-1.84-3.54-1.23,3.85-.16,4.46l1.08.62s-2.06,3.83-3.19,4-4.81-2.61-4.81-2.61-6.15-2.92-6.77-7.69S238,400.69,238,400.69Z"/><polygon class="cls-71" points="149.59 310.96 149.62 319.94 148.61 320.53 148.59 311.55 149.59 310.96"/><path class="cls-71" d="M158.06,307.14c.7.33,1.11,1.13,1.11,2.58a8.18,8.18,0,0,1-1.11,4.14,9.4,9.4,0,0,1-3.46,3.29,18.37,18.37,0,0,1-1.83,1l0-8.83a19.37,19.37,0,0,1,2.14-1.43C156.34,307,157.37,306.8,158.06,307.14Zm-3.26,9a6.38,6.38,0,0,0,3.31-5.72c0-2.13-1-2.87-3.17-1.64a8.36,8.36,0,0,0-1.18.8l0,7.08a7,7,0,0,0,1-.52"/><path class="cls-71" d="M169.32,299.43a3.88,3.88,0,0,1,1.86-.67l-.24,1.08a3.62,3.62,0,0,0-1.58.54,6.26,6.26,0,0,0-3,5.47c0,2.19,1.12,3,3,1.87A6.7,6.7,0,0,0,171,306.4l.21.79a8.52,8.52,0,0,1-2.06,1.62c-2.2,1.27-3.87.63-3.87-2.31A8.4,8.4,0,0,1,169.32,299.43Z"/><path class="cls-71" d="M174.81,295.93v4h0a4.54,4.54,0,0,1,.73-1.25,3.88,3.88,0,0,1,1.05-.94c.75-.43,1.95-.59,2,1.63v3.84l-1,.59V300.1c0-1-.34-1.72-1.31-1.16a3.32,3.32,0,0,0-1.36,2,1.9,1.9,0,0,0-.07.6v3.89l-1,.59,0-9.46Z"/><path class="cls-71" d="M186.17,295.27a3.94,3.94,0,0,1,0,.57l-3.94,2.28c0,1.57.91,1.72,1.93,1.13a6.43,6.43,0,0,0,1.55-1.23l.18.74a8.11,8.11,0,0,1-1.86,1.47c-1.73,1-2.77.29-2.77-1.66a5.89,5.89,0,0,1,2.62-5C185.68,292.52,186.17,294.09,186.17,295.27Zm-4,2,3-1.72c0-.75-.27-1.75-1.42-1.08a3.7,3.7,0,0,0-1.56,2.8"/><path class="cls-71" d="M191.43,289.21a3.14,3.14,0,0,1,1.42-.48l-.23,1a2.12,2.12,0,0,0-1.19.38,4.17,4.17,0,0,0-2,3.58c0,1.49.84,1.92,1.95,1.28a5,5,0,0,0,1.25-1l.18.78a6.77,6.77,0,0,1-1.61,1.29c-1.69,1-2.8.3-2.81-1.67A6.2,6.2,0,0,1,191.43,289.21Z"/><path class="cls-71" d="M196.41,283.46v6h0c.14-.3.33-.7.49-1l1.64-3.18,1.23-.7-2.16,3.9,2.49,2.37-1.25.72-1.94-2-.52,1v2.43l-1,.58,0-9.46Z"/><polygon class="cls-71" points="204.49 284.22 204.49 285.09 201.63 286.74 201.63 285.87 204.49 284.22"/><polygon class="cls-71" points="207.09 286.76 207.07 280.31 208.09 279.72 208.11 286.17 207.09 286.76"/><path class="cls-71" d="M207.55,279c-.36.2-.61,0-.61-.37a1.34,1.34,0,0,1,.63-1.1c.39-.22.63-.05.63.37A1.3,1.3,0,0,1,207.55,279Z"/><path class="cls-71" d="M214,276.18c.77-.44,2-.6,2,1.6v3.86l-1,.59v-3.72c0-1-.34-1.71-1.3-1.16a3.27,3.27,0,0,0-1.37,2,2.22,2.22,0,0,0-.07.59v3.87l-1,.59v-4.7c0-.67,0-1.2-.05-1.72l.9-.52.06,1,0,0A4.51,4.51,0,0,1,214,276.18Z"/><path class="cls-72" d="M224.41,355.48,151.8,397.84a14.06,14.06,0,0,1-2.34-1.35,4.23,4.23,0,0,1-1.42-3.55V342.26a12.7,12.7,0,0,1,5.74-9.95l70.63-40.77a4.3,4.3,0,0,1,3.65-.6,6.14,6.14,0,0,1,1.95,1.12l.14,53.47a12.7,12.7,0,0,1-5.74,10"/><path class="cls-73" d="M225.15,356.15l-70.62,40.78c-3.18,1.83-5.75.34-5.75-3.32V342.93a12.7,12.7,0,0,1,5.74-9.95l70.63-40.78c3.17-1.83,5.75-.34,5.75,3.32V346.2a12.71,12.71,0,0,1-5.75,9.95"/><polygon class="cls-55" points="192.57 367.2 156.69 387.91 156.69 385.42 192.57 364.7 192.57 367.2"/><polygon class="cls-55" points="223.41 304.75 187.8 325.31 187.8 322.91 223.41 302.35 223.41 304.75"/><polygon class="cls-55" points="223.41 309.61 187.8 330.17 187.8 327.77 223.41 307.21 223.41 309.61"/><polygon class="cls-55" points="222.72 333.51 187.12 354.07 187.12 351.67 222.72 331.11 222.72 333.51"/><polygon class="cls-55" points="201.03 332.25 187.8 339.89 187.8 337.49 201.03 329.85 201.03 332.25"/><polygon class="cls-55" points="223.07 319.52 209.84 327.16 209.84 324.76 223.07 317.13 223.07 319.52"/><polygon class="cls-55" points="201.03 337.16 187.8 344.8 187.8 342.4 201.03 334.76 201.03 337.16"/><polygon class="cls-55" points="223.07 324.44 209.84 332.07 209.84 329.68 223.07 322.04 223.07 324.44"/><polygon class="cls-55" points="183.15 325.43 183.15 363.84 156 379.51 156 341.11 183.15 325.43"/><path class="cls-65" d="M182.22,356.13v7.05l-25.3,14.6V370.4a13.74,13.74,0,0,1,1.41-1.44c1.4-1.2,2.67-2.25,3.4-2.84a7.7,7.7,0,0,0,1.29-1.37,17.4,17.4,0,0,0,1.93-3.06,13,13,0,0,0,.12-3.82c-.33-.24-.57-.46-.6-.59-.11-.53-.22-1.24-.31-2,0,0-.69-.48-.81-.77a15.07,15.07,0,0,1-.3-3,1.75,1.75,0,0,1,.29-.41c.08,0,.21.1.21.1l.27.25c0-1-.25-3.39-.21-4.32a11.66,11.66,0,0,1,5.47-8.87l.32-.2.33-.18c3.24-1.69,5.34-.52,5.47,2.56,0,.89-.22,3.59-.22,4.57l.27-.57a1.54,1.54,0,0,1,.22-.34c.1-.06.28.08.28.08a20,20,0,0,1-.29,3.36,7.5,7.5,0,0,1-.45,1c-.19.37-.37.69-.37.69-.08.85-.19,1.68-.3,2.33a7.84,7.84,0,0,1-.61,1.29c-.06.88-.18,3.12.13,3.68.23.41,1.22.68,1.9.82a2.37,2.37,0,0,0,1.34-.14c.73-.26,2-.69,3.35-1.08a3.54,3.54,0,0,1,1.77,0"/></svg>