<svg id="Layer_1" data-name="Layer 1" xmlns="http://www.w3.org/2000/svg" xmlns:xlink="http://www.w3.org/1999/xlink" viewBox="0 0 1062 487"><defs><style>.cls-1,.cls-30{fill:none;}.cls-2{fill:#ec5039;}.cls-2,.cls-3{opacity:0.1;}.cls-3{fill:#91278e;}.cls-4{fill:#f4aa1b;opacity:0.15;}.cls-5{fill:#852880;}.cls-6{fill:#3f69b5;}.cls-7{fill:#9eb0da;}.cls-8{fill:#fff;}.cls-9{fill:#50c1ef;}.cls-10{fill:#520074;}.cls-11{fill:#fca691;}.cls-12{fill:#7e298a;}.cls-13{fill:#643d16;}.cls-14{fill:#ffeeda;}.cls-15{fill:#eeefef;}.cls-16{fill:#533012;}.cls-17{fill:#e3897c;}.cls-18{fill:#9c3b34;}.cls-19{clip-path:url(#clip-path);}.cls-20{fill:#e88d7d;}.cls-21{fill:#fabcaa;}.cls-22{fill:#ffa28a;}.cls-23{fill:#30120d;}.cls-24{fill:#98d3dd;}.cls-25{fill:#322210;}.cls-26{fill:#230a07;}.cls-27{fill:#fcc287;}.cls-28{fill:#001b22;}.cls-29{fill:#603813;}.cls-30{stroke:#faaf40;stroke-miterlimit:10;stroke-width:0.95px;}.cls-31{fill:#faaf40;}.cls-32{fill:#031e26;}.cls-33{fill:#37003b;}.cls-34{fill:#dddfe0;}.cls-35{clip-path:url(#clip-path-2);}.cls-36{fill:#fbc0a4;}.cls-37{fill:#50005b;}.cls-38{fill:url(#linear-gradient);}.cls-39{fill:#3e3533;}.cls-40{fill:#302624;}.cls-41{fill:#330e00;}.cls-42{fill:url(#linear-gradient-2);}.cls-43{fill:#f8e8d8;}.cls-44{fill:url(#linear-gradient-3);}.cls-45{fill:#f69d7d;}.cls-46{fill:url(#radial-gradient);}.cls-47{fill:url(#radial-gradient-2);}.cls-48{fill:#cb4453;}.cls-49{fill:#dd5664;}.cls-50{fill:url(#linear-gradient-4);}.cls-51{fill:url(#linear-gradient-5);}.cls-52{fill:#999;}.cls-53{fill:#b2b2b2;}.cls-54{fill:#f7605c;}.cls-55{fill:#df3f33;}.cls-56{fill:#ff8383;}.cls-57{fill:#ffa08d;}.cls-58{fill:#ffc5b3;}.cls-59{fill:#cc8c46;}.cls-60{fill:#d89c55;}.cls-61{fill:#e8b470;}.cls-62{fill:#232323;}.cls-63{fill:#c1c1c1;}.cls-64{fill:#ddd;}.cls-65{fill:#045999;}.cls-66{fill:#2a78b7;}.cls-67{fill:#e28a79;}.cls-68{fill:#efa895;}.cls-69{fill:#1e1e1e;}.cls-70{fill:#ffad97;}.cls-71{fill:#000206;}.cls-72{fill:#333;}.cls-73{fill:#43b2ef;}.cls-74{fill:#6fc5ff;}.cls-75{fill:#bc7a39;}.cls-76{fill:#f2c38b;}.cls-77{fill:#e0e0e0;}</style><clipPath id="clip-path"><rect class="cls-1" x="660.6" y="315.48" width="140.85" height="163.95"/></clipPath><clipPath id="clip-path-2"><rect class="cls-1" x="764.58" y="305.57" width="114.16" height="173.86"/></clipPath><linearGradient id="linear-gradient" x1="858.9" y1="444.84" x2="882.58" y2="422.07" gradientUnits="userSpaceOnUse"><stop offset="0" stop-color="#302624" stop-opacity="0.5"/><stop offset="0.24" stop-color="#302624" stop-opacity="0.36"/><stop offset="0.99" stop-color="#302624" stop-opacity="0"/></linearGradient><linearGradient id="linear-gradient-2" x1="823.9" y1="427.65" x2="827.99" y2="474.94" xlink:href="#linear-gradient"/><linearGradient id="linear-gradient-3" x1="826.64" y1="396.81" x2="844.88" y2="446.64" gradientUnits="userSpaceOnUse"><stop offset="0" stop-color="#cfd4d8"/><stop offset="0.33" stop-color="#cfd4d8" stop-opacity="0.63"/><stop offset="0.65" stop-color="#cfd4d8" stop-opacity="0.29"/><stop offset="0.88" stop-color="#cfd4d8" stop-opacity="0.08"/><stop offset="1" stop-color="#cfd4d8" stop-opacity="0"/></linearGradient><radialGradient id="radial-gradient" cx="11946.03" cy="151.31" r="5.05" gradientTransform="matrix(-1, 0.05, 0.05, 1, 12738.08, -331.5)" gradientUnits="userSpaceOnUse"><stop offset="0" stop-color="#f69d7d" stop-opacity="0.7"/><stop offset="0.14" stop-color="#f69d7d" stop-opacity="0.63"/><stop offset="0.42" stop-color="#f69d7d" stop-opacity="0.44"/><stop offset="0.81" stop-color="#f69d7d" stop-opacity="0.15"/><stop offset="1" stop-color="#f69d7d" stop-opacity="0"/></radialGradient><radialGradient id="radial-gradient-2" cx="11923.18" cy="151.31" r="5.05" xlink:href="#radial-gradient"/><linearGradient id="linear-gradient-4" x1="12302.18" y1="357.2" x2="12305.95" y2="355.09" gradientTransform="matrix(-1, 0, 0, 1, 13100.63, 0)" gradientUnits="userSpaceOnUse"><stop offset="0" stop-color="#f69d7d"/><stop offset="0.23" stop-color="#f69d7d" stop-opacity="0.93"/><stop offset="0.68" stop-color="#f69d7d" stop-opacity="0.75"/><stop offset="1" stop-color="#f69d7d" stop-opacity="0.6"/></linearGradient><linearGradient id="linear-gradient-5" x1="818.11" y1="337.33" x2="814.97" y2="321.88" gradientUnits="userSpaceOnUse"><stop offset="0" stop-color="#f8e8d8" stop-opacity="0.2"/><stop offset="0.41" stop-color="#f8e8d8" stop-opacity="0.13"/><stop offset="1" stop-color="#f8e8d8" stop-opacity="0"/></linearGradient></defs><circle class="cls-2" cx="585.94" cy="77.47" r="64.12"/><circle class="cls-3" cx="490.78" cy="128.39" r="84.72"/><circle class="cls-4" cx="591.81" cy="175.23" r="55.28"/><circle class="cls-3" cx="544.46" cy="268.36" r="24.67"/><circle class="cls-2" cx="923.34" cy="63.06" r="18.35"/><path class="cls-5" d="M439.44,122.86h-6.37L426.52,112h-.07v10.88h-5.26v-27h7.12c5.33,0,9,2.36,9,8.12,0,3.44-1.89,6.87-5.5,7.48Zm-13-14.56h.68c2.9,0,4.94-.86,4.94-4.15s-2.11-4-4.9-4h-.72Z"/><path class="cls-5" d="M446.41,100.46v5.94h8.37V111h-8.37v7.3h8.69v4.58h-14v-27h14v4.58Z"/><path class="cls-5" d="M471.31,101.82a4.85,4.85,0,0,0-4-2.22,3.21,3.21,0,0,0-3.3,3c0,4.55,10.7,2.65,10.7,11.7,0,5.4-3.36,9.23-8.87,9.23-3.72,0-6.44-2.14-8.3-5.26l3.4-3.32c.71,2.07,2.61,3.93,4.86,3.93s3.47-1.82,3.47-3.9c0-2.79-2.57-3.58-4.68-4.4-3.47-1.43-6-3.18-6-7.37a7.84,7.84,0,0,1,7.87-8.08,11.11,11.11,0,0,1,7.37,3Z"/><path class="cls-5" d="M489.48,123.57c-8.23,0-13.34-6.29-13.34-14.24s5.29-14.16,13.34-14.16,13.34,6.15,13.34,14.16S497.71,123.57,489.48,123.57Zm0-23.21c-5,0-7.91,4.4-7.91,8.76,0,4.15,2.08,9.26,7.91,9.26s7.91-5.11,7.91-9.26C497.39,104.76,494.45,100.36,489.48,100.36Z"/><path class="cls-5" d="M523.64,122.86h-6.36L510.73,112h-.07v10.88H505.4v-27h7.12c5.33,0,9,2.36,9,8.12,0,3.44-1.89,6.87-5.51,7.48Zm-13-14.56h.68c2.89,0,4.93-.86,4.93-4.15s-2.11-4-4.9-4h-.71Z"/><path class="cls-5" d="M533.41,122.86h-5.26v-22.4h-5.44V95.88h16.14v4.58h-5.44Z"/><path class="cls-5" d="M559.88,122.86h-5.26v-22.4h-5.44V95.88h16.14v4.58h-5.44Z"/><path class="cls-5" d="M572.51,100.46v5.94h8.37V111h-8.37v7.3h8.69v4.58h-14v-27h14v4.58Z"/><path class="cls-5" d="M590.21,117.17,588,122.86h-5.55L593,95.17h4.08l10.23,27.69h-5.62l-2.07-5.69Zm4.55-14.1h-.07l-3,9.81h6.4Z"/><path class="cls-5" d="M629,106.11H629l-6.12,17.1H621l-5.9-17.1H615l-2.4,16.75h-5.29l4.54-27.69h3.72L622.27,113l6.36-17.78h3.8l4,27.69h-5.3Z"/><path class="cls-6" d="M847.45,267.78c17.7-15,46-30.67,90.32-11s31.9,79,65.48,96.48-11,126-11,126H701.94s-26.86-78.57,4.48-107.67-7.17-64,32.68-84.17S796.4,311.15,847.45,267.78Z"/><path class="cls-7" d="M868.58,349s1.8,4.35,2.65,5.1,2.93.1,5,2.08,3.6,13.81,6,15.8,7.66,2.83,9.17,1.51S889,355.74,886,352.43a17.8,17.8,0,0,0-6.61-4.54Z"/><path class="cls-8" d="M883.05,333.05H856.4a2.75,2.75,0,0,0-1.57.49l-.58.4a2.74,2.74,0,0,0-1.15,2.74L855,347.31a2.76,2.76,0,0,0,2.72,2.29H886.1a2.76,2.76,0,0,0,2.13-1h0a2.74,2.74,0,0,0,.54-2.4l-2.62-10.57C886,335.17,885.23,333,883.05,333.05Z"/><path class="cls-9" d="M878.36,334.11l4.45,0a1.55,1.55,0,0,1,1.49,1.09l3.19,11.15a1.51,1.51,0,0,1-1.51,1.88l-4.85,0a1.54,1.54,0,0,1-1.49-1.14l-2.8-11.15A1.5,1.5,0,0,1,878.36,334.11Z"/><path class="cls-7" d="M872.91,337.45l1.4,7.89a2.37,2.37,0,0,1-1.45-.56c-.62-.55-1.63-7.38-1.63-7.38Z"/><path class="cls-7" d="M867,337.73l1.17,6.6a2,2,0,0,1-1.22-.47c-.51-.47-1.36-6.18-1.36-6.18Z"/><path class="cls-7" d="M862.26,337.72l1,5.45a1.66,1.66,0,0,1-1-.39c-.42-.38-1.12-5.1-1.12-5.1Z"/><path class="cls-10" d="M980.77,387s5.16,1.6,11.59,27.7-1.14,54.08-1.14,54.08-6.05-56.73-15.13-80.18C976.09,388.55,976.42,387.13,980.77,387Z"/><path class="cls-11" d="M895.25,385s12.76,44,30.92,51.91,32.62-8.51,43.4-21.56,9.08-26.8,3.69-33.61-14.75,1-19.29,8.93-16.46,19.57-16.46,19.57l-31.2-34Z"/><path class="cls-12" d="M992.43,480,921,479.33l-24.7-.23s1.7-7.51,3.69-18,7.66-67.8,12.19-73.75,24-9.84,24-9.84a109.47,109.47,0,0,0,19.67,1.89c5.4,0,10.75-1.45,15.62,1.52,4.6,2.8,8.78,9.54,12.18,25.15C985.37,414.06,992.43,480,992.43,480Z"/><path class="cls-12" d="M992.43,480,921,479.33A97.45,97.45,0,0,1,956,454.25c24.18-9.85,21.26-46.11,16.34-68.72-.37-1.7-.67-3.24-.91-4.62,4.6,2.8,8.78,9.54,12.18,25.15C985.37,414.06,992.43,480,992.43,480Z"/><path class="cls-11" d="M919.64,325.81s-2.58,4.71-2.88,17-2,19.46,2.43,24.48,9.58,2,13.07,7.75,2.89,9.88,2.89,9.88l23.72.16s3.65-42.27,1.21-52.15S927.85,320.49,919.64,325.81Z"/><path class="cls-13" d="M981.37,387.84c-3.64,3.5-7.45.46-9.88,1.37s-4.26,9.73-11.1,11.25-13.23-4.56-16.27-6.69-6.84,4.71-12.92,2.13a10.13,10.13,0,0,1-6.19-8.37c-.34-3.14.59-6.86,3.3-10.79,6.08-8.82,3-13.83,3-15.35s3-.92,4.26-2.59,3.8-6.53,2.28-11.25-4.11-7.3-6.23-4.41-.92,11.25-2.89,10.49-1.83-1.06-2.59-4.1-3.34-2.59-6.69-9.12-3.19-5.17-3.19-5.17S912.58,338,906,333.51c-3.55-2.43-2.89-8.92-1.12-12.77a19.43,19.43,0,0,1,5.64-6.91,30.07,30.07,0,0,1,10.33-5.2c18.4-5.47,27.67,3.8,27.67,3.8,8.06-.16,13.68,3.5,17,12,2.29,5.83.45,17,3.19,19.31s2.89,5.17,3.35,8.66,3.8,5.93,9.57,11.56S985,384.34,981.37,387.84Z"/><path class="cls-14" d="M893.4,387s13.2-2.37,16.13-11.26c0,0-12.11-6.8-12.58-8.6s-1.61-8-3.78-10.4-3.78-3.5-6.24-3.69-7.66,2.27-7.38,3.5,4.35,1.42,6.62.57c0,0-1.13,11.44,4.64,14C890.81,371.06,892.08,382,893.4,387Z"/><path class="cls-14" d="M876.24,356.21s-2.83.9-3.07,3.36,2.46,2.6,4.45,3,5.19-.33,5.76-1.51-1.23-2.13-4.58-1.47C878.8,359.57,877.05,356.64,876.24,356.21Z"/><path class="cls-14" d="M874.78,361.37s-1.28,2.17.19,3.83,4.44,1.84,6.1,1.42,3.49-1.14,3.78-2.51-5.2-.71-5.2-.71l-1.75-2Z"/><path class="cls-14" d="M876,365a4,4,0,0,0,1.09,4.35c2.08,1.89,6.28,1.09,7.89-.52s-2.5-1.84-3.92-1.09-.76-2.41-.76-2.41Z"/><path class="cls-14" d="M879.08,369.12a3.46,3.46,0,0,0,1.8,2.84c1.84,1.13,4,.66,4.68-.33s-3.45-1-3.45-1l-.9-1.65Z"/><path class="cls-12" d="M925.61,428.07c-3.41,24.12-9.62,51.29-9.62,51.29h-30.6s7.87-37.38,13.83-64.62S912,386.66,912,386.66a9.71,9.71,0,0,1,3.29-.85C925.68,385.11,928.7,406.12,925.61,428.07Z"/><path class="cls-15" d="M916,349.6s7.22.08,8,.23.83,11.56,1.9,13.69-.75,6.25-3.12,7.37C921.32,371.57,913.71,367.32,916,349.6Z"/><polygon class="cls-15" points="924.13 350.59 930.42 347.99 930.19 349.5 924.09 352.06 924.13 350.59"/><path class="cls-15" d="M925.84,364s1.46.52,4.44-.9,3.59-3.22,3.59-3.22,1.49-.64,1.74-1.1c0,0-1,5-5.19,6s-5.1.57-5.1.57Z"/><path class="cls-10" d="M925.61,428.07c-3.41,24.12-9.62,51.29-9.62,51.29h-9c3.51-12.26,9.71-31.07,13-48.39,5.15-26.87-5.15-44.55-5.15-44.55a6,6,0,0,1,.44-.61C925.68,385.11,928.7,406.12,925.61,428.07Z"/><path class="cls-16" d="M981.37,387.84c-3.64,3.5-7.45.46-9.88,1.37s-4.26,9.73-11.1,11.25-13.23-4.56-16.27-6.69-6.84,4.71-12.92,2.13a10.13,10.13,0,0,1-6.19-8.37c1.21,1.4,3.73,2.88,8.73,1.24,8.23-2.68,11.59,0,14.44,2.69s6.55,6,14.27.5,4.87-8.39,7.73-9.06,5.87,2.52,6-4.87-6-13.6-7.22-17.3.84-5.53-1.68-10.07-5.71-8.9-4.36-14.6-2.35-12.93-6.55-16.63-14.1-.67-14.94-.67,1-3.74,4-5-4.2-3.53-14.61-3.87c-9.89-.32-22.06,7.25-20.36,4a30.07,30.07,0,0,1,10.33-5.2c18.4-5.47,27.67,3.8,27.67,3.8,8.06-.16,13.68,3.5,17,12,2.29,5.83.45,17,3.19,19.31s2.89,5.17,3.35,8.66,3.8,5.93,9.57,11.56S985,384.34,981.37,387.84Z"/><path class="cls-17" d="M935.23,346.65s-.61-2.09-2-1.69-2.24,4.38-1.67,5.84,1.11.93,1.21,2.44-1,1.22-.26,2.68,1.9.51,2.2-.06-.52-1.8-.69-2.33,1-.48-.38-2.27-1.8-2.62-.93-2.31,1.81,3.41,2.42,2.58-1.75-2.9-2-3.82-.13-1.49.31-1.47,1.49,2.87,2.12,2.72S935.23,346.65,935.23,346.65Z"/><path class="cls-18" d="M877.9,322.58c.57.2.94.64.82,1s-.68.42-1.25.21-.94-.64-.82-1S877.33,322.37,877.9,322.58Z"/><path class="cls-18" d="M886.37,321.63c.59-.15,1.14,0,1.23.34s-.32.73-.91.88-1.14,0-1.22-.33S885.79,321.79,886.37,321.63Z"/><g class="cls-19"><path class="cls-11" d="M746.38,390s-3.12,3.76-11.17,2.36-9.32-7.95-9.32-7.95c-.5-4.05-.22-9.54-.21-15.16,0-1.91,0-3.52-.09-4.51,0-.67-.05-1.06-.05-1.06s19.05,4.33,19.37,10.46h0c.11,2.16.33,4.77.56,7.24C745.9,385.93,746.38,390,746.38,390Z"/><path class="cls-20" d="M745.47,381.39c-1.77.15-4.78-.06-9.51-1.69a16.62,16.62,0,0,1-10.28-10.44c0-1.91,0-3.52-.09-4.51l.06,0,19.26,9.38C745,376.31,745.24,378.92,745.47,381.39Z"/><path class="cls-21" d="M754,339.5a29.25,29.25,0,0,1,1.81,9.54c0,5,.13,7.78.56,13s-4.77,14.17-11.05,14.77-11.73-1.85-16.2-5.63A11.93,11.93,0,0,1,725,362s-4.26,2-6.92-4.8,1.89-9.71,4.81-7.82c0,0-2.58-7.91,3.52-13.5S749,330.57,754,339.5Z"/><path class="cls-22" d="M747.32,348.36s-1.76,4.94-.6,7.56,2.41,1.93,2.66,1.72S747.45,349.52,747.32,348.36Z"/><path class="cls-15" d="M753.66,358.7s-4.65-1.87-8.1-1.7-9.13,2.21-11.45,2.77-3.4,5.62-2,9,8.79,8.44,14.12,7.7,7.88-5.44,8.9-9.8.68-6.07.5-6.75S753.66,358.7,753.66,358.7Z"/><path class="cls-15" d="M725.43,354.2s7.68,5.77,8.37,6.33l-.84.94L726,356Z"/><path class="cls-15" d="M725.24,362.37s3.44,7.25,8.21,7.17l.26,1.12a7.15,7.15,0,0,1-6.71-2.79A7.93,7.93,0,0,1,725.24,362.37Z"/><path class="cls-23" d="M733.06,348.7a6.91,6.91,0,0,1,3.48-1.2c2.32-.26,3.74,1.37,4.81,1s.86-2.06-2.41-3-5.58,1.2-6.44,1.89S732,349,733.06,348.7Z"/><path class="cls-23" d="M753.93,348.66a4.27,4.27,0,0,0-2.44-1.21c-1.63-.25-2.62,1.38-3.37,1s-.61-2.06,1.68-3,3.92,1.2,4.52,1.89S754.65,349,753.93,348.66Z"/><path class="cls-24" d="M749.3,359.91a1.6,1.6,0,0,1-1.1.9c-.79.15-1.39.65-2,.46s-1.81,0-1.89-.72,2.8-.27,4.23-1S749.3,359.91,749.3,359.91Z"/><path class="cls-25" d="M738.3,351.79a1.06,1.06,0,1,1-1-1.29A1.18,1.18,0,0,1,738.3,351.79Z"/><path class="cls-25" d="M751.71,352.18a1.06,1.06,0,1,1-1-1.29A1.19,1.19,0,0,1,751.71,352.18Z"/><path class="cls-23" d="M755.74,354.45s.3-8.11-1.63-12.05-4.15-.21-8.71-.31c-12-.27-12.35-4-12.35-4s.2,8-4,9.83,1.57,15.89-.36,23.39,2.68,14.26,3.5,18.23c.64,3.13.67,7.64-1.08,11s-5.43,5.71-12.16,4.05c-5.89-1.46-11.58-5.14-13.29-11.32s-.52-13.67,1.1-22.79,1.12-23.29,5.27-30.28,5.47-6.79,5.47-6.79,1-6.38,11.85-9.52c8.51-2.46,17-2.31,23.13,2.65a19,19,0,0,1,4.42,5.15C762.72,341.48,763.33,349,755.74,354.45Z"/><path class="cls-26" d="M752.43,326.51c-3.17,0-6.06-3.19-16-2.54-10.41.67-14.44,7.38-15.11,8.9s7.39,2.85,5.71,4.36-6-1.34-8.4-.17-4.36,4.54-5.37,20.65-4,16.46,2.18,31.4c4.26,10.23,11.5,11.56,15.64,11.4-1.78,3.45-5.43,5.71-12.16,4.05-5.89-1.46-11.58-5.14-13.29-11.32s-.52-13.67,1.1-22.79,1.12-23.29,5.27-30.28,5.47-6.79,5.47-6.79,1-6.38,11.85-9.52C737.81,321.4,746.33,321.55,752.43,326.51Z"/><path class="cls-27" d="M765.24,480.92a107.32,107.32,0,0,1-5.54-13.41H715.65a107.32,107.32,0,0,1-5.54,13.41h.12s-8.48,16.66-3,38.87H768c5.49-22.21-3-38.87-3-38.87Z"/><path class="cls-27" d="M773,398.09l30.42,53,2.32,4-3,3.22-31.07,32.84a3.12,3.12,0,0,1-4.8-4l.18-.24,26.66-36.87-.74,7.27-32.83-51.5a7.53,7.53,0,1,1,12.69-8.1c.06.09.12.18.17.27Z"/><path class="cls-27" d="M716,406.2l-36,48.68.17-6.83,27,43.72a3.13,3.13,0,0,1-5.11,3.59l-.17-.22-32-40.51a5.28,5.28,0,0,1-.25-6.21l.42-.63,33.7-50.31a7.53,7.53,0,1,1,12.51,8.38,2.48,2.48,0,0,1-.19.26Z"/><path class="cls-27" d="M767.72,394.38l-22-9.19H729.65l-22,9.19s-6.37,5.32-1.57,19.2l11.32,47.6s-1.21,7.32-7.27,19.74h55.13c-6-12.42-7.26-19.74-7.26-19.74l11.31-47.6C774.1,399.7,767.72,394.38,767.72,394.38Z"/><path class="cls-8" d="M769.22,413.8c-5.91-4.44-6.45-14.07-1.64-19.47L747.93,386l-10.34,1.17-10.49-.94-19.16,8c5,5.45,4.36,15.35-1.81,19.72l11.23,47.22s-1.21,7.32-7.27,19.74h55.13c-6.05-12.42-7.26-19.74-7.26-19.74Z"/><path class="cls-28" d="M713.87,584.07l-7.39-67.27h.1c-4.06-20.7,3.65-35.88,3.65-35.88h-.12a107.32,107.32,0,0,0,5.54-13.41H759.7a107.32,107.32,0,0,0,5.54,13.41H765s7.87,15.49,3.53,36.5h.19l-4.71,66.65Z"/><polygon class="cls-29" points="760.24 469.63 715.03 469.63 712.37 476.11 762.9 476.11 760.24 469.63"/><rect class="cls-30" x="734.05" y="469.43" width="7.27" height="6.88"/><rect class="cls-31" x="738.49" y="472.13" width="3.14" height="1.47"/><rect class="cls-32" x="751.49" y="467.46" width="2.95" height="9.83"/><rect class="cls-32" x="720.83" y="467.46" width="2.94" height="9.83"/><path class="cls-33" d="M688.2,444.83l29.33-39.91c.73-3.9-2.32-10.32-6.23-11.05s-7.45,1.95-9.27,5.61l-24.81,36Z"/><path class="cls-33" d="M784.06,442.44l13.13-8.39L773.81,400.3c-.73-3.91-5.85-7.47-9.76-6.74s-6.32,5.38-5.58,9.29Z"/><path class="cls-33" d="M726.61,480.48V386l-18.67,7.83c5,5.46,4.36,15.35-1.81,19.72l11.23,47.22s-1.21,7.33-7.27,19.74Z"/><path class="cls-33" d="M769.22,413.36c-5.91-4.43-6.45-14.07-1.64-19.47l-18.17-7.73v94.32h15.81c-6.05-12.41-7.26-19.74-7.26-19.74Z"/><polygon class="cls-34" points="737.55 387.01 729.68 381 720.4 387.44 729.62 399.18 737.55 387.01"/><polygon class="cls-34" points="737.52 387.01 745.39 381 754.68 387.44 745.45 399.18 737.52 387.01"/><path class="cls-27" d="M771.15,491.2c-.06,1.45-3.91,3.89-3.91,3.89l-2.63,3.05a.56.56,0,0,1-.79.08.5.5,0,0,1-.17-.62l1.91-3.35a32.42,32.42,0,0,1-4.86,3.6c-.57.39-.91.16-.91.16a.47.47,0,0,1-.13-.72,46.12,46.12,0,0,0,4.35-4.5c-.49.55-4.64,3.79-4.64,3.79-1,.92-1.51.75-1.51.75a.64.64,0,0,1-.36-1.05c1.53-1.14,6.08-5.22,6.08-5.22l-5.53,3.84c-1.2.86-1.45.38-1.45.38-.56-.64.59-1.53.59-1.53l8.47-6.82s1.63-.61.41-3.46C766.07,483.47,772,485.3,771.15,491.2Z"/></g><g class="cls-35"><path class="cls-36" d="M859.42,432.53c.91,4.4,2.79,4.52,5.51,30.08.55,7.26,4,14.45,4.17,21.73.17,7.48-.4,14.6,1.59,21.82.39,1.42,1.08,6,.6,7.4s-2.78-.83-3.58.27c-1.11,1.51-.42,3-3.07,3.08-2.08,0-2.73-.51-3-3-.5,1.24-3.92,1.9-5.15,1.38a2.64,2.64,0,0,1-1.31-3.37,3.69,3.69,0,0,1-2.29.52c-1-.1.79-6.35,1.08-6.92,1.21-2.4,2.85-3.3,5.36-4.15,7-2.4-8.24-26.56-7.57-41.2.25-5.39-3.28-17.55-3.33-17.78C847.52,438.18,859.42,432.53,859.42,432.53Z"/><path class="cls-37" d="M849.71,392.19c4.5,2.12,10.13,4.9,11,7.17.72,1.8.88,2.07,5.43,48.44l6.33,45.45-15.85,1.18L851.22,453Z"/><path class="cls-38" d="M849.71,392.19c4.5,2.12,10.13,4.9,11,7.17.72,1.8.88,2.07,5.43,48.44l6.33,45.45-15.85,1.18L851.22,453Z"/><path class="cls-39" d="M800.55,357s2.64-.15,3.77-1.53-2.58-12.76-2.58-12.76,3.53-3.05,3.58-7.33-2.78-6.48-7.19-6.21-10.76,6.13-10.76,6.13l3.23,1.67s1,9.7,2.42,12.19S800.55,357,800.55,357Z"/><path class="cls-39" d="M792.06,338c1.29,6.06,5.57,21,5.57,21l3.81-4.34L799.53,336Z"/><path class="cls-37" d="M855.87,469.48s5.21,66.43,5.72,72.47,6.88,96,6.88,96c-8,3.12-16.58.72-16.58.72L837.94,548l-9.19-48.34-3.09-.85s-1,58.85-1.07,58.55-1.33,79-1.33,79c-7.73,3.9-18.48-.32-18.48-.32s-3.34-76.95-4.29-81.45-1.19-90.82-1.19-90.82Z"/><path class="cls-40" d="M857.44,487.51c-11.39,3.95-37.17,9.84-58.14,1.23,0-5.39.05-12.53,0-16.32l57.16,5C856.75,480.7,857.08,482.92,857.44,487.51Z"/><path class="cls-41" d="M854,463.47c-.44-1.62-.8-2.64-.8-2.64l-50.47,2.07s-.18,1-.45,2.79c.25.35.45.61.45.61C825.24,475.49,841.55,475.5,854,463.47Z"/><path class="cls-37" d="M791.61,420.55l8.85,32.51L796,483.42s40,15.19,65-1.17l-5.15-67.86Z"/><path class="cls-37" d="M849.57,392c5.35,2.26,12.87,6.78,6.27,22.37l-2.3,48s2.56,7.39,1,9c-12.45,12.07-28.77,12.07-51.32,2.87a11,11,0,0,1-1.34-2.12c-.82-3.27,1.93-12.37,1.93-12.37l-12.6-39.18s-12.42-16.9-4.2-23C799.9,387.87,828.38,383.1,849.57,392Z"/><path class="cls-42" d="M861,482.25l-3-39.38a77.48,77.48,0,0,0-13.58,23.05,96.19,96.19,0,0,1-33.7-29.19q4.93,13.17,9.86,26.35c-8.52-10-22-37-30.47-47l10.35,37L796,483.42S835.92,498.61,861,482.25Z"/><path class="cls-43" d="M810.54,388.78h0s7.06,18.24,13.29,34.3c4.89,12.63,10.3-.58,10.3-.58l1.52-36.21c-.34,0-1-.12-1.38-.13Z"/><path class="cls-44" d="M833.89,397.85c1.41-.33,1.47-4.76,1.47-4.76l.29-6.7,0-.11c-.35,0-1-.11-1.33-.12l-21.87,2.42c.07.26-.8,2.08-.64,2.59,1.26,3.74,5.35,9.1,6.17,9.23s3.4-2.65,3.73-3.57c.5.46,1.36,1.81,1.87,2.27.27,6.52,0,15.09-.08,23L832.3,445q.42.56.84,1.05l.81-19.37q-3.71-14-7.4-28c.78-1.07,1.8-1.87,2.58-2.94A6.89,6.89,0,0,0,833.89,397.85Z"/><path class="cls-36" d="M828.83,389.85c-2.13,1.22-6.51,1.86-8.89,1.92-3.54.1-2.12-2-3.3-2.29L805.15,363l20.78,9.37,0,.88Z"/><path class="cls-45" d="M823.12,381.6a20.9,20.9,0,0,1-6.38-1.86,43.65,43.65,0,0,1-5.66-3.1L805.15,363l20.78,9.37,0,.88,1.51,8.79C826,381.85,824.57,381.77,823.12,381.6Z"/><path class="cls-12" d="M834.13,422.5l-7.4-25,3.24-3.63-5.5-3.37-4.2,3.88,3.91,3.46a234.66,234.66,0,0,0-.36,25.2c4.9,12.63,9.27,23.92,9.27,23.92Z"/><path class="cls-43" d="M813.73,382.76s8.35,8,10.49,7.65,3.26-8.41,3.26-8.41,7.63,2.19,8.56,3.26-1.34,11.5-2.35,12c-2.11,1.07-8.47-6-9.63-5.13s-4.44,7-5.52,6.85-9.68-8.61-9.2-11.73S813.73,382.76,813.73,382.76Z"/><path class="cls-36" d="M797.68,348.85s-7.18-1.64-6.18,6.93,7.19,8.73,9,9.1c0,0,3.42,15.26,22.23,13.8s15.74-16,15.6-25.7.94-26.44-11.38-27.67S796.59,324.88,797.68,348.85Z"/><path class="cls-45" d="M825,362.35c0-.18.6-.35.92-1.15a2.3,2.3,0,0,0,.12-1.43,9,9,0,0,0-.72-1.9c-1.31-2.85-2.12-5.29-1.79-5.43s1.65,2,3,4.9a7.25,7.25,0,0,1,.72,2.27,3.1,3.1,0,0,1-.08,1.14,2.7,2.7,0,0,1-.43.92,1.87,1.87,0,0,1-1.18.8C825.14,362.52,825,362.43,825,362.35Z"/><path class="cls-39" d="M819.48,347.06c-.11.15-.64-.06-1.48-.29a9,9,0,0,0-3.28-.31,9.12,9.12,0,0,0-3.14.93l-.93.46c-.24.12-.4.16-.46.1s0-.23.12-.46a3.72,3.72,0,0,1,.77-.86,6.6,6.6,0,0,1,7.27-.7C819.21,346.42,819.58,346.92,819.48,347.06Z"/><path class="cls-39" d="M826.75,346.74c-.12-.11.15-.68.9-1.32a6.55,6.55,0,0,1,3.51-1.45,6.44,6.44,0,0,1,3.75.76,4.2,4.2,0,0,1,.93.69c.18.21.24.36.2.43s-.22.06-.47,0l-1-.29a9.39,9.39,0,0,0-3.25-.31,9.25,9.25,0,0,0-3.17.93C827.37,346.56,826.88,346.87,826.75,346.74Z"/><path class="cls-46" d="M815.93,363a5.05,5.05,0,1,1-5.28-4.81A5,5,0,0,1,815.93,363Z"/><path class="cls-47" d="M838.76,361.93a5.05,5.05,0,1,1-5.28-4.81A5.06,5.06,0,0,1,838.76,361.93Z"/><path class="cls-48" d="M816.81,362.26a19.76,19.76,0,0,0,12,1.46c-.86,3.2-1.88,5.44-6.48,5.16A5.74,5.74,0,0,1,816.81,362.26Z"/><path class="cls-49" d="M816.8,362.43a7.47,7.47,0,0,1,1.13.47,16.5,16.5,0,0,1,6.5,5.9,9.09,9.09,0,0,1-2.07.08A5.71,5.71,0,0,1,816.8,362.43Z"/><path class="cls-43" d="M827.43,364a9.3,9.3,0,0,1-.42,1.47c-.16.27-5.41,1.26-10.19-1.35a5.2,5.2,0,0,1,0-1.81A24,24,0,0,0,827.43,364Z"/><path class="cls-50" d="M794,352.67c-.66,2.27.27,4.65,1.18,6.83a3.86,3.86,0,0,0,1.15,1.73,1.29,1.29,0,0,0,1.83-.3c.3-.61-.14-1.3-.48-1.89s-.53-1.47,0-1.83c.27-.18.62-.16.89-.31.61-.32.61-1.18.45-1.85a10.23,10.23,0,0,0-1-2.66c-.45-.81-1.16-1.65-2.09-1.63S794.22,351.73,794,352.67Z"/><path class="cls-39" d="M797.68,348.85a11.23,11.23,0,0,1,3.76,7h2.17v-8.28s6.56-1.81,4.07-11.45-12.26-.07-12.26-.07Z"/><path class="cls-39" d="M816.41,333.63a16.5,16.5,0,0,1-15.79,1.08c-8.78-4-8.74-9.86-8.74-9.86s7.69-.3,12.9-6.09,20.42-11.66,31.88-3.71,7.86,19.63,1,21.59-10.75-2.79-12.49-1.74S820.68,337.09,816.41,333.63Z"/><path class="cls-51" d="M840.91,318.93a18.87,18.87,0,0,0-2.52-2.55,78.71,78.71,0,0,1-45.06,12.52,11.86,11.86,0,0,0,1,1.4,28.61,28.61,0,0,0-3.77,2.34,53.65,53.65,0,0,0,50.3-13.71Z"/><path class="cls-36" d="M778.6,442.23c-.48,5.08-.68,26.09-.68,26.09.75,20.83,3.8,47.14,5.28,50.13,2,4,3.21,6.11,5.83,3.83s4.57,2.44,6.39.16,4.81,2.7,5.7-.45-4.13-7.68-4.13-7.68,2.47-5.71-5.81-7.54c-7.39-1.64,5.36-27.9,3-42.68-.86-5.46,1.34-18.2,1.37-18.44C796,441.29,778.6,442.23,778.6,442.23Z"/><path class="cls-37" d="M785.5,399c-4.51,2.94-9.64,44.89-10.85,58.17S776.51,500,776.51,500a24,24,0,0,0,17.21-.6l1.7-46.46,4.13-39.86Z"/><path class="cls-25" d="M817,351a1.25,1.25,0,1,1-1.21-1.52A1.39,1.39,0,0,1,817,351Z"/><path class="cls-25" d="M832.81,351.47a1.25,1.25,0,1,1-1.22-1.52A1.4,1.4,0,0,1,832.81,351.47Z"/><path class="cls-15" d="M801.25,354.91s19.09,2.74,24.59,2.08a103.08,103.08,0,0,0,12.5-2.62s6.5,22.94-13.25,23.82c-18.25,4.63-25-12.71-25-12.71Z"/></g><path class="cls-52" d="M197.48,277.27c.5-3.9.94-7.27,6-4.34l2.49,1.44,3.85,2.22,2.49,1.44c5.07,2.93,5.51,6.8,6,11.29.46,4.07,1.51,15.88,1.52,16l-1-.64c0-.12-1-11.67-1.5-15.72-.54-4.83-1-7.25-5-9.58l-2.49-1.44L206,275.72l-2.49-1.44c-4-2.34-4.48-.42-5,3.78-.45,3.52-1.47,13.88-1.48,14l-1-.54C196,291.4,197,280.81,197.48,277.27Z"/><path class="cls-52" d="M197,292.05l-1.53.89s.22-7.24.5-9.95,1.54-8.8,1.54-8.8l.6.48Z"/><path class="cls-52" d="M218.34,306.2l1.53-.88s-1.77-13.41-2.07-15.46-1.38-6.87-1.38-6.87l-1.69.42a22.65,22.65,0,0,1,1.45,5.16C216.36,290.64,218.34,306.2,218.34,306.2Z"/><path class="cls-53" d="M196,278.16c.51-3.9,1-7.27,6-4.34l2.49,1.44,3.85,2.22,2.49,1.44c5.08,2.93,5.52,6.81,6,11.29.46,4.07,1.51,15.88,1.52,16l-1-.63c0-.12-1-11.67-1.49-15.72-.55-4.83-1-7.25-5-9.58l-2.49-1.44-3.85-2.22L202,275.17c-4-2.33-4.48-.42-5,3.78-.46,3.52-1.48,13.88-1.49,14l-1-.54C194.44,292.3,195.49,281.7,196,278.16Z"/><path class="cls-52" d="M182.33,285.94c.51-3.9.95-7.27,6-4.34l2.49,1.44,3.85,2.23,2.49,1.43c5.08,2.93,5.52,6.81,6,11.29.45,4.08,1.51,15.88,1.51,16l-1-.63c0-.12-1-11.68-1.49-15.73-.55-4.82-1-7.25-5-9.58l-2.49-1.44-3.85-2.22L188.35,283c-4-2.33-4.48-.42-5,3.78-.46,3.52-1.48,13.89-1.49,14l-1-.55C180.82,300.08,181.87,289.48,182.33,285.94Z"/><path class="cls-52" d="M181.84,300.73l-1.53.89s.23-7.24.5-10,1.54-8.79,1.54-8.79l.61.47Z"/><path class="cls-52" d="M203.2,314.88l1.52-.89s-1.76-13.41-2.06-15.45-1.38-6.88-1.38-6.88l-1.69.43a22.87,22.87,0,0,1,1.44,5.15C201.21,299.32,203.2,314.88,203.2,314.88Z"/><path class="cls-53" d="M180.8,286.83c.51-3.9.95-7.27,6-4.34l2.5,1.45,3.85,2.22,2.49,1.44c5.07,2.92,5.51,6.8,6,11.28.46,4.08,1.5,15.88,1.52,16l-1-.63c0-.12-1-11.68-1.49-15.72-.54-4.83-1-7.26-5-9.59l-2.49-1.44-3.85-2.22-2.5-1.44c-4-2.33-4.47-.42-5,3.78-.45,3.52-1.47,13.89-1.49,14l-1-.54C179.3,301,180.35,290.38,180.8,286.83Z"/><path class="cls-54" d="M202.44,292.7l19.25-11s-14.81-6.89-18.49-9.86-6.66-9.47-7.24-22.77c-.1-2.36.16-6-.5-6.86C194,241.38,176,252.83,176,252.83s1.25,16.36,2.52,21.36,5,8.73,11.28,12.16S202.44,292.7,202.44,292.7Z"/><path class="cls-55" d="M176.93,252.79s1,12.71,1.64,17.71c.52,4.27,1.64,9.16,8.36,13.23,5.75,3.48,13.29,7.72,15.51,9V295c-1.37-.77-4.64-2.6-8.29-4.71-2.41-1.39-5-2.89-7.26-4.28-7.64-4.63-9.34-10.72-10-16.05-.63-5.14-1.67-18.13-1.67-18.13Z"/><path class="cls-54" d="M196.17,241.76s1,12.71,1.64,17.72c.53,4.27,1.65,9.16,8.36,13.23l15.52,9V284c-1.38-.77-4.65-2.61-8.3-4.71-2.41-1.39-5-2.9-7.25-4.28-7.65-4.64-9.35-10.72-10-16.06-.63-5.11-1.68-18-1.68-18Z"/><polygon class="cls-56" points="194.48 240.73 196.21 241.76 176.94 252.83 175.22 251.8 194.48 240.73"/><polygon class="cls-56" points="221.69 283.95 202.44 294.97 202.44 292.7 221.69 281.68 221.69 283.95"/><path class="cls-57" d="M218.91,275.17s4.5,3.77,4.18,7.74c-.18,2.17.09,3.14-.26,5.84-.32,2.54-.5,12.69-.35,16s2.34,6.35,3.17,7.52-1.51,3.18-3.44,1.51-2.14-2-3.21-2.51-1.95-2.84-1.26-5.52,0-7.86-1.05-12.38a35.71,35.71,0,0,1-.55-8.54c0-1.66-6.12-7-6.35-7.52C209.21,276,218.91,275.17,218.91,275.17Z"/><path d="M220.89,311.82c2.51,1.33,3.52,1.51,4.76.49a33.31,33.31,0,0,1,3.16,2.67c.8.88-1.48,2.35-3.75,1.68s-4.21-2.68-6.06-4.18-2.31-2-2.31-3.78a3.5,3.5,0,0,1,.86-1.85S218.28,310.43,220.89,311.82Z"/><path class="cls-58" d="M208.12,273.39c.95.43,2.77,4.32,6.28,7.85a6.47,6.47,0,0,1,1.73,5.52,28.43,28.43,0,0,0-.77,6c0,2.57-.5,13.13-.35,16.48s2.34,6.36,3.17,7.53-1.51,3.17-3.44,1.5-2.14-2-3.21-2.51-1.95-2.84-1.25-5.52,0-7.86-1.06-12.38.31-10.59-.62-11.71c-1.88-2.26-5.83-4.22-6-6.51C202.47,276.81,205.31,272.11,208.12,273.39Z"/><path d="M213.43,316.29c2.5,1.33,3.51,1.51,4.75.5a32.77,32.77,0,0,1,3.16,2.66c.8.88-1.48,2.35-3.75,1.69s-4.21-2.69-6.06-4.19-2.31-2-2.31-3.78a3.5,3.5,0,0,1,.86-1.85S210.81,314.91,213.43,316.29Z"/><path class="cls-59" d="M201.37,264.05s9.43,5.11,11.18,6.32c2.27,1.58,9.25,5.85,10.34,8,1.44,2.81.6,7.06.59,11.75,0,6.08,0,12.07-.28,14.72-3.43,3.34-6.76,0-6.76,0,.67.51-.6-12.77-1.14-21.09-2-1.54-7.66-3.41-8.49-3.78-4.59-2-8.8-3.39-10-5.61-2.5-4.53-.44-11.15-.44-11.15C197.24,263.18,201.37,264.05,201.37,264.05Z"/><path class="cls-60" d="M196.4,269.16s8.24,3.31,10,4.52c2.27,1.58,8.18,6.55,9.28,8.68,1.44,2.8.6,7.06.59,11.74,0,6.08,0,12.07-.28,14.72-3.43,3.34-6.76,0-6.76,0,.67.51-.59-12.77-1.14-21.08-2-1.56-7.66-3.42-8.49-3.79-4.59-2-8.8-3.39-10-5.61-2.51-4.53-.44-11.15-.44-11.15C197.88,272.23,196.4,269.16,196.4,269.16Z"/><path class="cls-60" d="M198.94,239.27c2,1,7.36,6.16,7.36,6.16a11.18,11.18,0,0,1-1.63,3.11,30.09,30.09,0,0,1-3.11,2.75l-7.19-9.95S197,238.23,198.94,239.27Z"/><path class="cls-61" d="M188.83,243.07s-2.69,3-4,4.35-1.31,2.15-1.31,2.15,4.36,6.68,4.38,9.87a45.51,45.51,0,0,1-.52,9.16,44.47,44.47,0,0,0-.53,7.19s4.58,1.14,7.45.54a17.34,17.34,0,0,0,8.12-3.95s4.9-4.33,5.47-5c-.58-.51-1.7-1.85-2.21-2.37-1.39-1.41-2.5-2-2.64-7.43a8.86,8.86,0,0,1,.35-3.34c.58-1.89,1.55-4.18.8-6.1-1.25-3.16-7.42-9.12-7.42-9.12S191.1,240.21,188.83,243.07Z"/><path class="cls-57" d="M196.12,239.69a18.37,18.37,0,0,0,.71,4.5,5.93,5.93,0,0,1,.87,3.9,20.18,20.18,0,0,1-3.64-2.15c-1.15-1-3.62-1.78-4.15-2.93a38,38,0,0,0,1-7.9Z"/><path class="cls-58" d="M191.76,228.54a5.24,5.24,0,0,1,8.18,2.78c1.75,5-2.73,11.14-5.12,10.1-1.34-.59-4.15-2.68-4.94-5.29C189,233.19,190.27,229.69,191.76,228.54Z"/><path class="cls-62" d="M187.69,231.89c0-2,.72-6,3.81-5.54,2.41-2.33,5.62-.62,8.23,1.78,1.56,1.44,1.23,3.7,1.23,6.4,0,0-4.45,1.09-6.85-.41-3.84,1.95-3,2.79-3.31,3.57C189.3,236.14,187.69,234.62,187.69,231.89Z"/><path class="cls-58" d="M205.39,247.49s1.68,3.5,3.09,7.07c1.52,3.88,8.29,9.84,8.82,11.79.31,1.15-4.69,3.29-4.76,3.49s.93-1.69.93-1.69-4.37-4.12-5.39-5.5a84,84,0,0,1-4.67-8.37,21.55,21.55,0,0,0,.92-3.72,8.06,8.06,0,0,0,.06-1.71A11.44,11.44,0,0,0,205.39,247.49Z"/><path class="cls-63" d="M221.82,257.62l-8.06,14a6,6,0,0,1-2.4,2.17l-7.47,4.33c-.84.36-1.12,0-.64-.86l8.06-14a6.19,6.19,0,0,1,2.4-2.18l7.47-4.32C222,256.4,222.3,256.79,221.82,257.62Z"/><polygon class="cls-63" points="203.14 278.17 203.94 278.63 204.42 277.62 203.41 277.62 203.14 278.17"/><polygon class="cls-63" points="222.69 257.13 221.93 256.68 221.47 257.13 222.05 257.7 222.69 257.13"/><path class="cls-52" d="M222.6,258.06l-8.07,14a6.09,6.09,0,0,1-2.39,2.18l-7.48,4.32c-.83.37-1.12,0-.63-.85l8.06-14a6,6,0,0,1,2.39-2.18l7.48-4.32C222.79,256.84,223.08,257.23,222.6,258.06Z"/><path class="cls-8" d="M215.25,266.84a5,5,0,0,1-1.78,2c-.62.31-.82-.06-.45-.84a4.74,4.74,0,0,1,1.78-2C215.41,265.7,215.62,266.07,215.25,266.84Z"/><path class="cls-58" d="M191.63,260.72a15.68,15.68,0,0,0,3.63,5.83c.71.53,6.54,3.85,8.37,4.2,1.16.22,2.2-.17,3.36,0-.14.34-.69,1.57-.1,2,1.11.74,2.39-.49,3.29,0s-.15,2.23-1.42,2.85c-2.27,1.11-4-.27-6.32-1.37s-7.06-1-10.62-3.81a15.11,15.11,0,0,1-4.65-6.3c-.78-1.69-2.32-6.77-2.32-6.77l5.58-1.17S191.19,258.84,191.63,260.72Z"/><path class="cls-60" d="M191.12,252.22c.58,2,1.55,5,1.9,6.13-.2,3-6.19,3.4-8.05,2.64a27.93,27.93,0,0,1-1.38-4.36c-.65-2.15-1.87-6.66,1.81-9.8C188,244.63,190.58,250.34,191.12,252.22Z"/><path class="cls-64" d="M196.38,244.31a1.84,1.84,0,0,0-1,1.71c-.1,1.37,2.53,6,2.57,6.45s2.21,4.33,2.21,4.33.83-5.2,0-7.14a30.71,30.71,0,0,1-1.41-3.91Z"/><path class="cls-8" d="M190.48,240.26a9.72,9.72,0,0,0-1.65,2.81c-.25,1.08,7.23,4.65,7.23,4.65l.32-3.41S191.82,242.32,190.48,240.26Z"/><path class="cls-60" d="M189.58,241.53a4.67,4.67,0,0,0-1.89,2.78,21.35,21.35,0,0,1,2.87,2.24,16.81,16.81,0,0,1,2,2.56l2.75.41-1,1.77,5.81,5.51a22.6,22.6,0,0,0-3.37-8.05C194,244.44,191.22,243,189.58,241.53Z"/><path class="cls-60" d="M196.25,241.33a11.24,11.24,0,0,1,1.48,2.46,27.64,27.64,0,0,1,1.63,6.48c.23,2.29.77,6.53.77,6.53s1.21-5.08,1.28-6.24a18,18,0,0,0,0-2.13L200.09,247s.24-.87.53-1.81a18.76,18.76,0,0,0-3.09-4.74A4,4,0,0,1,196.25,241.33Z"/><path class="cls-8" d="M196.25,241.33a9.42,9.42,0,0,1,.17,1.78c0,.76,0,1.2,0,1.2l2.1,1.71a10.31,10.31,0,0,0-.5-2.93,5.26,5.26,0,0,0-1.09-2.12Z"/><path class="cls-62" d="M187.87,230.05a18.94,18.94,0,0,1-2,4.82c-1.09,1.51-2.42,3.76-1.45,5s1,1.83.4,3.09-.42,3.29.86,3.79c1.58.61,3.53.81,3.87,2.39a2.36,2.36,0,0,0,3.64,1.55c-1.37-.47-1.4-1.76-.62-3.49a6.18,6.18,0,0,0-.4-5.2c-.9-1.77-.66-4.56-.09-6.61S187.87,230.05,187.87,230.05Z"/><path class="cls-62" d="M196.42,241.23a4.92,4.92,0,0,0,1.31,2.56c.85.83,1.91.85,2.31,1.84a1.74,1.74,0,0,1-.72,2.09,3,3,0,0,0,2.29-.94,3.61,3.61,0,0,0,.16-3.86,13.36,13.36,0,0,1-2.56-4.81,16.85,16.85,0,0,1-1.37,2A5.5,5.5,0,0,1,196.42,241.23Z"/><path class="cls-58" d="M217.72,266.51c-1-.22-2.52,1.7-2.29,2.75s1.76.23,2.35-.72S218.58,266.69,217.72,266.51Z"/><path class="cls-52" d="M131.44,313.35c.5-3.9.94-7.27,6-4.34l2.49,1.44,3.85,2.22,2.49,1.44c5.08,2.93,5.51,6.8,6,11.29.46,4.07,1.51,15.87,1.52,16l-1-.63c0-.12-1-11.68-1.5-15.72-.54-4.83-1-7.26-5-9.58L143.8,314,140,311.79l-2.49-1.43c-4-2.34-4.48-.42-5,3.78-.47,3.52-1.48,13.88-1.49,14l-1-.54C129.93,327.48,131,316.89,131.44,313.35Z"/><path class="cls-52" d="M131,328.13l-1.53.89s.22-7.24.5-9.95,1.54-8.8,1.54-8.8l.6.48Z"/><path class="cls-52" d="M152.3,342.28l1.53-.89s-1.76-13.4-2.07-15.45-1.38-6.87-1.38-6.87l-1.69.42a22.65,22.65,0,0,1,1.45,5.16C150.32,326.72,152.3,342.28,152.3,342.28Z"/><path class="cls-53" d="M129.91,314.24c.51-3.9,1-7.27,6-4.34l2.49,1.44,3.85,2.22,2.49,1.44c5.08,2.93,5.52,6.8,6,11.29.47,4.07,1.51,15.88,1.52,16l-1-.63c0-.12-1-11.67-1.49-15.72-.55-4.83-1-7.25-5-9.58l-2.49-1.44-3.85-2.22-2.49-1.44c-4-2.34-4.47-.42-5,3.78-.46,3.52-1.48,13.88-1.49,14l-1-.54C128.4,328.37,129.45,317.78,129.91,314.24Z"/><path class="cls-52" d="M116.29,322c.51-3.9.95-7.27,6-4.34l2.49,1.44,3.85,2.22,2.49,1.44c5.08,2.93,5.52,6.81,6,11.29.46,4.07,1.5,15.88,1.51,16l-1-.64c0-.12-1-11.67-1.49-15.72-.55-4.83-1-7.25-5-9.58l-2.49-1.44-3.85-2.22L122.31,319c-4-2.33-4.47-.42-5,3.78-.46,3.52-1.48,13.89-1.49,14l-1-.54C114.78,336.16,115.83,325.56,116.29,322Z"/><path class="cls-52" d="M115.8,336.8l-1.52.89s.22-7.24.5-9.95,1.54-8.79,1.54-8.79l.6.47Z"/><path class="cls-52" d="M137.16,351l1.52-.89s-1.76-13.41-2.06-15.46-1.38-6.87-1.38-6.87l-1.69.42a22.84,22.84,0,0,1,1.44,5.16C135.17,335.4,137.16,351,137.16,351Z"/><path class="cls-53" d="M114.77,322.91c.51-3.9.94-7.27,6-4.34l2.5,1.44,3.85,2.23,2.49,1.44c5.07,2.92,5.51,6.8,6,11.28.46,4.07,1.5,15.88,1.52,16l-1-.64c0-.12-1-11.67-1.5-15.72-.54-4.83-1-7.25-5-9.58l-2.49-1.44-3.85-2.22-2.5-1.44c-4-2.33-4.47-.42-5,3.78-.45,3.52-1.47,13.89-1.48,14l-1-.53C113.26,337.05,114.31,326.45,114.77,322.91Z"/><path class="cls-54" d="M136.4,328.78l19.25-11s-14.81-6.89-18.49-9.86-6.66-9.47-7.24-22.76c-.1-2.37.16-6-.5-6.87C128,277.46,110,288.91,110,288.91s1.25,16.36,2.52,21.36,5,8.73,11.28,12.15S136.4,328.78,136.4,328.78Z"/><path class="cls-55" d="M110.89,288.87s1,12.71,1.64,17.71c.52,4.27,1.64,9.16,8.36,13.23,5.75,3.48,13.29,7.72,15.51,9v2.27c-1.37-.77-4.64-2.61-8.29-4.71-2.41-1.39-5-2.9-7.26-4.28-7.64-4.63-9.34-10.72-10-16.06-.63-5.13-1.68-18.12-1.68-18.12Z"/><path class="cls-54" d="M130.13,277.84s1,12.71,1.65,17.72c.52,4.26,1.64,9.15,8.35,13.23l15.52,9V320c-1.38-.77-4.65-2.61-8.3-4.72-2.4-1.38-5-2.89-7.26-4.27-7.64-4.64-9.34-10.72-10-16.06-.63-5.11-1.68-18-1.68-18Z"/><polygon class="cls-56" points="128.44 276.81 130.16 277.84 110.9 288.91 109.17 287.88 128.44 276.81"/><polygon class="cls-56" points="155.65 320.03 136.4 331.05 136.4 328.78 155.65 317.76 155.65 320.03"/><path class="cls-63" d="M145.38,288.65c1.45,3.64,3.42,13.08,3.31,14.23-.23,2.44-4.36,4.91-5.06,3-.85-2.3-2.39-7.51-2.9-8.85a108.34,108.34,0,0,1-3.3-11c-.23-4.05-2.26-10.9-4.92-13.67,0,0,2.28-1.18,4,.38a24.51,24.51,0,0,1,4.5,5.81C141.56,279.63,144.25,285.8,145.38,288.65Z"/><path class="cls-62" d="M165,346.21c1.65,1.6,2.16,2.06,3.69,3.56.89.87.16,1.67-1.54,1.6a30.1,30.1,0,0,1-6.78-1.47,34.11,34.11,0,0,1-5.08-2.64,3.34,3.34,0,0,1-1.5-1.9v-2.68l8.1.34S163.26,344.47,165,346.21Z"/><path class="cls-62" d="M150.78,354.67c1.65,1.6,2.17,2.06,3.69,3.56.9.87.16,1.67-1.54,1.61a30.78,30.78,0,0,1-6.78-1.47,35.15,35.15,0,0,1-5.08-2.65,3.36,3.36,0,0,1-1.5-1.9v-4.73l8.1,2.39S149,352.93,150.78,354.67Z"/><path class="cls-65" d="M121.85,308,138,301.72a45.79,45.79,0,0,0,7.53,5.5c2.85,1.72,10.69,6.34,13.21,8.11,1.54,1.09,2.24,3.45,2.84,8.77,1,8.77,1.73,18.79,1.73,18.79a7,7,0,0,1-5.72,2.44,15.37,15.37,0,0,1-5.33-1l-.62-20.2-13.25-7.65s7.52,4.65,8.59,8.78a40.92,40.92,0,0,1,1.3,10c.28,8.92.37,14.76.37,14.76s-.59,3-4.56,2.94c-3,0-5.55-2.49-5.55-2.49l-.8-20.44s-11.45-8.17-14.45-11.62C120,314.59,121.85,308,121.85,308Z"/><path class="cls-64" d="M134.64,273.27s5.16,4.17,5.77,10.06c.15,1.43-.12,6.85.19,11.26.34,4.66,1,8.05-.25,9.22-3.09,2.8-13.62,6.46-19,5.66-3.14-2-.95-7.51-1.22-9.6-.85-6.55-2.13-17.13-1.89-18.86.38-2.89,7-6,7-6S129.81,271.38,134.64,273.27Z"/><path class="cls-66" d="M133.92,279l.36,2.87a62.69,62.69,0,0,1,2,6.49c.36,2,1.08,10.66,1.08,10.66l-1.22,3.41-2.41-1.88-1.11-17.92-1.8-2.14,1.71-2Z"/><path class="cls-67" d="M132.79,273.09l.32,4.54a12.05,12.05,0,0,1-2.13,2.19c-1.64-.51-5.45-4-5.45-4l1.27-7Z"/><path class="cls-68" d="M126.1,261a6,6,0,0,1,9.81.73c3.35,5,.18,13.06-2.75,12.59-1.65-.27-5.35-1.76-7-4.41C124.36,266.92,124.77,262.68,126.1,261Z"/><path class="cls-8" d="M132.88,274.33l-.37,4.2,3,1.22S135.81,275.3,132.88,274.33Z"/><path class="cls-8" d="M126,273.27a21.6,21.6,0,0,0,2.78,3.24,10.51,10.51,0,0,0,3.75,2l-1.12,3.37s-4.13-1.89-5.65-3.54C125.74,278.36,124,275.27,126,273.27Z"/><path class="cls-62" d="M132.82,261.7c-4.43,1.59-3.94,6.62-3.94,6.62a2.7,2.7,0,0,1-.82-.12c-.3-1.13-.78-1.4-1.34-.92s-.53,2.62-.53,2.62a7.63,7.63,0,0,1-2.36-5.46c0-2.13,1.87-6.75,5.77-7.23s8.36,2.34,6.64,5.06A3.62,3.62,0,0,0,132.82,261.7Z"/><path class="cls-63" d="M115.6,294.17c-1-7-.58-13.14,3.22-15.64,2.77-1.82,3.63,6.8,4.38,12.33.18,1.33,1.44,7.44,1.74,8.88,1.85.44,8.08,4.33,9.24,5.82a9.28,9.28,0,0,0-2.31,5.1c-4.17-.92-9.08-1.87-11.77-4.81S116.07,297.45,115.6,294.17Z"/><path class="cls-68" d="M134.18,311.54a10.79,10.79,0,0,1,1.33,1.18,4.88,4.88,0,0,0,3.83.89c.83-.37,2.65-3.31,2.69-4s.15-1.29-1.11-1.4c0-1.62-4.19-1.27-4.19-1.27S134.38,307.49,134.18,311.54Z"/><path class="cls-8" d="M124.39,288.42l5.15-2.15s1.58,5.11-1.74,6.46S124.39,288.42,124.39,288.42Z"/><path class="cls-8" d="M136,283.84l3.63-1.78s1.25,5.11-1.08,5.93C136.69,288.64,136,283.84,136,283.84Z"/><path class="cls-8" d="M134.18,305.56a4.61,4.61,0,0,0-2,2.49c-.74,1.91-.31,2.61-.31,2.61l2.71,1.11a13.82,13.82,0,0,1,.76-3.15,4.08,4.08,0,0,1,1.39-1.71Z"/><polygon class="cls-59" points="147.77 311.37 137.84 317.18 146.26 302.91 156.19 297.09 147.77 311.37"/><polygon class="cls-60" points="137.84 317.18 136.92 316.62 145.34 302.34 146.26 302.91 137.84 317.18"/><polygon class="cls-61" points="156.19 297.09 155.27 296.53 145.34 302.34 146.26 302.91 156.19 297.09"/><path class="cls-55" d="M141.07,308.19l-1.75-6.7a.49.49,0,0,0-.6-.35.51.51,0,0,0-.36.6l1.73,6.57A7.88,7.88,0,0,1,141.07,308.19Z"/><path class="cls-68" d="M152.3,303.5c-1.87-.47-2.77,2.39-3.61,4.4-.74,1.8,1.21,2.21,3.32.46S154.45,304.05,152.3,303.5Z"/><path class="cls-52" d="M68.49,353.1c.5-3.9.94-7.26,6-4.33L77,350.2l3.85,2.23,2.49,1.43c5.07,2.93,5.51,6.81,6,11.3.46,4.07,1.51,15.87,1.52,16l-1-.63c0-.12-1-11.68-1.49-15.73-.54-4.82-1-7.25-5-9.58l-2.49-1.44L77,351.55l-2.49-1.44c-4-2.33-4.48-.41-5,3.78-.45,3.52-1.47,13.89-1.48,14l-1-.54C67,367.24,68,356.64,68.49,353.1Z"/><path class="cls-52" d="M68,367.89l-1.53.89s.22-7.24.5-9.95,1.54-8.8,1.54-8.8l.6.48Z"/><path class="cls-52" d="M89.35,382l1.53-.89s-1.76-13.41-2.06-15.45-1.39-6.87-1.39-6.87l-1.69.42a22.68,22.68,0,0,1,1.45,5.15C87.37,366.48,89.35,382,89.35,382Z"/><path class="cls-53" d="M67,354c.51-3.9,1-7.27,6-4.34l2.49,1.43,3.85,2.23,2.49,1.44c5.07,2.92,5.52,6.8,6,11.29.47,4.07,1.51,15.87,1.52,16l-1-.63c0-.12-1-11.68-1.49-15.73-.55-4.82-1-7.25-5-9.58l-2.49-1.44-3.85-2.22L73,351c-4-2.33-4.48-.41-5,3.78-.46,3.52-1.48,13.89-1.49,14l-1-.54C65.45,368.13,66.5,357.54,67,354Z"/><path class="cls-52" d="M53.34,361.78c.51-3.9.95-7.27,6-4.34l2.49,1.44,3.85,2.22,2.5,1.44c5.07,2.93,5.51,6.8,6,11.29.47,4.07,1.52,15.88,1.52,16l-1-.64c0-.12-1-11.68-1.49-15.72-.55-4.83-1-7.26-5-9.58l-2.5-1.44-3.85-2.23-2.49-1.43c-4-2.33-4.47-.42-5,3.78-.46,3.51-1.48,13.88-1.49,14l-1-.54C51.84,375.91,52.88,365.32,53.34,361.78Z"/><path class="cls-52" d="M52.85,376.56l-1.52.89s.22-7.24.5-9.95,1.53-8.8,1.53-8.8l.61.48Z"/><path class="cls-52" d="M74.21,390.72l1.52-.89S74,376.42,73.67,374.37s-1.39-6.87-1.39-6.87l-1.68.42A22.84,22.84,0,0,1,72,373.08C72.23,375.15,74.21,390.72,74.21,390.72Z"/><path class="cls-53" d="M51.82,362.67c.5-3.9.94-7.27,6-4.34l2.5,1.44L64.17,362l2.5,1.44c5.07,2.93,5.51,6.8,6,11.29.46,4.07,1.51,15.88,1.52,16l-1-.64c0-.12-1-11.67-1.5-15.72-.55-4.83-1-7.26-5-9.58l-2.5-1.44-3.84-2.22-2.5-1.44c-4-2.33-4.47-.42-5,3.78-.46,3.52-1.48,13.88-1.48,14l-1-.54C50.31,376.8,51.36,366.21,51.82,362.67Z"/><path class="cls-54" d="M73.45,368.54l19.25-11s-14.81-6.88-18.49-9.85-6.66-9.48-7.24-22.77c-.1-2.37.16-6-.5-6.86C65.05,317.22,47,328.67,47,328.67S48.29,345,49.56,350s5.06,8.72,11.28,12.15S73.45,368.54,73.45,368.54Z"/><path class="cls-55" d="M47.94,328.63s1,12.71,1.64,17.71c.53,4.26,1.64,9.15,8.36,13.22,5.75,3.49,13.29,7.73,15.51,9v2.27c-1.37-.77-4.64-2.61-8.29-4.71-2.41-1.4-5-2.9-7.26-4.28-7.64-4.64-9.34-10.72-10-16.06-.63-5.14-1.68-18.13-1.68-18.13Z"/><path class="cls-54" d="M67.18,317.6s1,12.71,1.64,17.71c.53,4.27,1.65,9.16,8.36,13.23l15.52,9v2.28c-1.37-.77-4.65-2.61-8.3-4.72-2.4-1.39-5-2.89-7.25-4.27-7.65-4.64-9.35-10.72-10-16.06-.63-5.12-1.67-18-1.67-18Z"/><polygon class="cls-56" points="65.49 316.57 67.22 317.6 47.95 328.67 46.22 327.63 65.49 316.57"/><polygon class="cls-56" points="92.7 359.79 73.45 370.81 73.45 368.54 92.7 357.51 92.7 359.79"/><path d="M82.43,328.41c1.45,3.64,3.42,13.08,3.31,14.22-.23,2.45-4.36,4.92-5.06,3-.85-2.31-2.39-7.52-2.9-8.85a109.11,109.11,0,0,1-3.3-11c-.23-4-2.26-10.91-4.92-13.67,0,0,2.28-1.18,4,.38a24.42,24.42,0,0,1,4.5,5.8C78.61,319.4,81.3,325.56,82.43,328.41Z"/><path class="cls-62" d="M102.09,386c1.65,1.6,2.16,2.06,3.69,3.55.89.88.16,1.68-1.54,1.61a30.6,30.6,0,0,1-6.78-1.46A35.63,35.63,0,0,1,92.38,387a3.34,3.34,0,0,1-1.5-1.91v-2.68l8.1.35S100.31,384.23,102.09,386Z"/><path class="cls-62" d="M87.84,394.42C89.48,396,90,396.49,91.52,398c.9.86.16,1.67-1.54,1.6a29.56,29.56,0,0,1-6.78-1.47,33.53,33.53,0,0,1-5.07-2.64,3.39,3.39,0,0,1-1.51-1.9v-4.73l8.1,2.39S86.06,392.69,87.84,394.42Z"/><path d="M58.9,347.71l16.19-6.23a45.79,45.79,0,0,0,7.53,5.5c2.85,1.72,10.69,6.33,13.2,8.11,1.55,1.09,2.25,3.45,2.85,8.76,1,8.78,1.72,18.8,1.72,18.8a7,7,0,0,1-5.72,2.44,15.35,15.35,0,0,1-5.32-1l-.61-20.2-13.26-7.66s7.52,4.66,8.6,8.79a41,41,0,0,1,1.28,10c.29,8.92.38,14.77.38,14.77s-.58,2.95-4.56,2.94c-3,0-5.55-2.49-5.55-2.49l-.81-20.45s-11.44-8.16-14.44-11.61C57,354.35,58.9,347.71,58.9,347.71Z"/><path class="cls-69" d="M71.69,313s5.16,4.17,5.77,10.06c.31,2.92-.48,13-.51,19.4,2.49,1.69,9.58,5.84,9.58,5.84s-5.71,1.76-8,5.69a19.13,19.13,0,0,1-4.13-2.43s.23.66,1.52,3.26c-1.55.47-6.87-.77-11.8,1.37s-8.37,1.18-8.37,1.18a27.21,27.21,0,0,1-.25-8.18c.54-3.56,1.87-7.5,1.6-9.59-.85-6.55-2.13-17.13-1.9-18.86.39-2.9,7-6,7-6S66.86,311.13,71.69,313Z"/><path d="M68.69,312.48s3,0,5.57,5c.91,1.78,1.52,2.73,1.52,2.73l-1.52,1.49,2.16,1s.78,7.57.16,10.69c-.7,3.46-4.2,9.75-4.2,9.75a88,88,0,0,0-3.28-8.81c-1-1.76-4.78-6.63-4.78-6.63l1.89-2.86-3.08-1s-4.35-5.45-3.89-7.1A5.33,5.33,0,0,1,63,313Z"/><path class="cls-64" d="M72.25,318.1a71.08,71.08,0,0,1,1.89,7.07c.68,3.36-1.2,14.33-1.2,14.33s-1.65-10.72-3.84-13.82a71,71,0,0,0-6-7.19S70,317.24,72.25,318.1Z"/><path class="cls-55" d="M71,318.79l.36,2.87a7.75,7.75,0,0,1,2.06,3.63c.36,2,.26,9.5.26,9.5l-.71,4.71-1-3.24s-.78-4.46-1.44-7.21a17.88,17.88,0,0,0-.3-2.49,19.71,19.71,0,0,1-.55-4.14l-1.8-2.14,1.71-2Z"/><path class="cls-70" d="M69.85,312.85l.31,4.54A12.46,12.46,0,0,1,68,319.58c-1.64-.51-5.45-4-5.45-4l1.27-7.05Z"/><path class="cls-58" d="M63.15,300.75a6,6,0,0,1,9.81.73c3.35,4.95.18,13.06-2.75,12.59-1.65-.27-5.35-1.76-7-4.41C61.41,306.68,61.82,302.44,63.15,300.75Z"/><path class="cls-8" d="M69.93,314.09l-.37,4.19,3,1.22S72.85,315.06,69.93,314.09Z"/><path class="cls-8" d="M63,313a22.47,22.47,0,0,0,2.77,3.24,10.41,10.41,0,0,0,3.75,2l-1.12,3.38s-4.13-1.89-5.65-3.54C62.79,318.12,61,315,63,313Z"/><path class="cls-62" d="M75.6,302.12a15,15,0,0,1-4.84,2.29,22.44,22.44,0,0,1-5,.67l.19,3a2.54,2.54,0,0,1-.82-.11c-.3-1.13-.78-1.4-1.34-.92s-.53,2.62-.53,2.62a9.22,9.22,0,0,1-2.75-5.19c-.48-2.81-.71-6.94,2.95-7.59,1.34-2.09,4.43-1.6,6.51-.87,2.64.92,5,4.17,5.76,4.57a2,2,0,0,1-1.32.83A2.86,2.86,0,0,0,75.6,302.12Z"/><rect class="cls-52" x="95.05" y="352.23" width="1.14" height="0.88" transform="translate(191.24 705.34) rotate(180)"/><path class="cls-52" d="M79.93,362.94l15.7-9.06c.82-.48.72-1.32-.23-1.87L84.91,346a3.62,3.62,0,0,0-3.23-.14L66,354.88c-.83.48-.72,1.33.23,1.87L76.7,362.8A3.59,3.59,0,0,0,79.93,362.94Z"/><rect class="cls-52" x="65.42" y="354.81" width="0.71" height="0.86" transform="translate(131.55 710.49) rotate(180)"/><path class="cls-53" d="M79.93,362.11l15.7-9.06c.82-.48.72-1.32-.23-1.87l-10.49-6.05a3.59,3.59,0,0,0-3.23-.13L66,354.06c-.83.48-.72,1.32.23,1.87L76.7,362A3.59,3.59,0,0,0,79.93,362.11Z"/><polygon class="cls-52" points="82.97 345.29 94.04 351.68 77.55 361.14 66.45 354.78 82.97 345.29"/><polygon class="cls-8" points="83.92 345.19 84.77 345.68 68.28 355.15 67.4 354.67 83.92 345.19"/><polygon class="cls-8" points="71.33 354.05 72.18 354.54 69.69 355.96 68.81 355.49 71.33 354.05"/><polygon class="cls-8" points="74.07 352.45 74.92 352.95 73.17 353.96 72.29 353.49 74.07 352.45"/><polygon class="cls-69" points="76.26 351.22 77.1 351.7 75.35 352.72 74.47 352.25 76.26 351.22"/><polygon class="cls-69" points="78.43 349.97 79.28 350.46 77.53 351.47 76.65 351 78.43 349.97"/><polygon class="cls-8" points="73.2 356.4 74.04 356.9 72.81 357.61 71.94 357.14 73.2 356.4"/><polygon class="cls-8" points="75 355.36 75.84 355.85 74.61 356.56 73.73 356.09 75 355.36"/><polygon class="cls-8" points="77.21 354.1 78.06 354.6 76.31 355.61 75.43 355.13 77.21 354.1"/><polygon class="cls-8" points="74.64 357.24 75.5 357.74 74.26 358.45 73.38 357.97 74.64 357.24"/><polygon class="cls-8" points="76.44 356.2 77.29 356.69 76.06 357.4 75.18 356.93 76.44 356.2"/><polygon class="cls-8" points="76.19 358.05 77.03 358.54 75.8 359.25 74.92 358.78 76.19 358.05"/><polygon class="cls-8" points="77.98 357.01 78.83 357.5 77.6 358.21 76.72 357.74 77.98 357.01"/><polygon class="cls-69" points="78.66 354.94 79.51 355.44 77.76 356.44 76.88 355.98 78.66 354.94"/><polygon class="cls-69" points="79.32 352.87 80.16 353.35 78.41 354.37 77.54 353.9 79.32 352.87"/><polygon class="cls-69" points="81.49 351.62 82.34 352.11 80.59 353.12 79.71 352.65 81.49 351.62"/><polygon class="cls-8" points="73.28 354.61 74.13 355.1 71.21 356.77 70.33 356.3 73.28 354.61"/><polygon class="cls-8" points="75.6 353.27 76.44 353.76 74.69 354.77 73.82 354.3 75.6 353.27"/><polygon class="cls-69" points="77.78 352.03 78.63 352.52 76.88 353.53 76 353.06 77.78 352.03"/><polygon class="cls-69" points="79.95 350.79 80.8 351.28 79.05 352.29 78.17 351.81 79.95 350.79"/><path class="cls-58" d="M73,347.51s2.58,1.33,4.2,2.14,6.45,5,5.42,5.93-3.55,2.06-4.24,1.92a8.31,8.31,0,0,1-2.59-2.26c-.27-.39-3.4-1.59-4.31-2.95S73,347.51,73,347.51Z"/><path class="cls-63" d="M77.25,347.09l0,13.34a1.29,1.29,0,0,0,1.94,1.13l15.73-9a1.3,1.3,0,0,0,.65-1.12l0-13.34A1.3,1.3,0,0,0,93.64,337l-15.73,9A1.3,1.3,0,0,0,77.25,347.09Z"/><polygon class="cls-63" points="77.68 361.47 78.52 361.95 79.54 360.9 77.54 359.66 77.68 361.47"/><polygon class="cls-63" points="95 337.02 95.58 337.35 94.08 337.37 95 337.02"/><path class="cls-52" d="M77.91,347.48l0,13.34A1.29,1.29,0,0,0,79.8,362l15.73-9a1.29,1.29,0,0,0,.65-1.12l0-13.34a1.29,1.29,0,0,0-1.93-1.13l-15.74,9A1.29,1.29,0,0,0,77.91,347.48Z"/><polygon class="cls-53" points="91.18 356.44 94.9 354.3 94.9 352.67 91.18 354.82 91.18 356.44"/><polygon class="cls-53" points="81.05 362.3 84.77 360.15 84.77 358.53 81.05 360.67 81.05 362.3"/><path class="cls-8" d="M86.21,350.07c0,.77.7,1,1.55.51a3.1,3.1,0,0,0,1.54-2.3c0-.78-.69-1-1.54-.51A3.11,3.11,0,0,0,86.21,350.07Z"/><path d="M52.25,335c-1-7-1-13,2.86-15.54,2.76-1.81,4.39,5.59,5.14,11.12.18,1.33,1.44,7.43,1.74,8.88,1.86.44,11.89,7,13.14,8.16-.31.63-2.65,2.37-3.33,6.16-4.17-.92-10.75-5-15.12-7.22C53.44,344.94,52.72,338.31,52.25,335Z"/><path class="cls-15" d="M65.11,308a15.7,15.7,0,0,0,9.18,0s0,6.11-3.42,6.63-7.63-4.93-7.63-4.93Z"/><path class="cls-15" d="M128.88,268.32s4.81,2.22,8.46-.45c0,0,.32,4.23-3.16,6.32s-8-4.29-8-4.29Z"/><path class="cls-15" d="M192,236a7.67,7.67,0,0,0,7.63,1.29s-1.09,5-4.24,4.85S190.72,237.41,192,236Z"/><path class="cls-52" d="M281.74,335c.51-3.9.95-7.27,6-4.34l2.49,1.44,3.85,2.22,2.49,1.44c5.08,2.93,5.51,6.8,6,11.29.47,4.07,1.51,15.88,1.52,16l-1-.64c0-.12-1-11.67-1.49-15.72-.55-4.83-1-7.25-5-9.58l-2.49-1.44-3.85-2.22L287.76,332c-4-2.33-4.47-.42-5,3.78-.46,3.52-1.48,13.88-1.49,14l-1-.54C280.24,349.12,281.28,338.53,281.74,335Z"/><path class="cls-52" d="M281.25,349.77l-1.52.89s.22-7.24.49-10,1.54-8.79,1.54-8.79l.61.47Z"/><path class="cls-52" d="M302.6,363.93l1.53-.89s-1.76-13.41-2.06-15.46-1.39-6.87-1.39-6.87l-1.68.42a22.84,22.84,0,0,1,1.44,5.16C300.62,348.36,302.6,363.93,302.6,363.93Z"/><path class="cls-53" d="M280.21,335.88c.51-3.9,1-7.27,6-4.34l2.5,1.44,3.84,2.22,2.5,1.44c5.07,2.93,5.51,6.81,6,11.29.46,4.07,1.51,15.88,1.51,16l-1-.64c0-.12-1-11.67-1.49-15.72-.54-4.83-1-7.25-5-9.58l-2.5-1.44-3.84-2.22-2.5-1.44c-4-2.33-4.47-.42-5,3.78-.46,3.52-1.48,13.89-1.48,14l-1-.54C278.71,350,279.76,339.42,280.21,335.88Z"/><path class="cls-52" d="M266.6,343.66c.5-3.9.94-7.26,6-4.34l2.49,1.44L279,343l2.49,1.44c5.07,2.92,5.51,6.8,6,11.29.46,4.07,1.5,15.87,1.52,16l-1-.63c0-.12-1-11.68-1.5-15.73-.55-4.82-1-7.25-5-9.58L279,344.33l-3.85-2.22-2.49-1.44c-4-2.33-4.48-.41-5,3.78-.46,3.52-1.47,13.88-1.48,14l-1-.54C265.09,357.8,266.13,347.21,266.6,343.66Z"/><path class="cls-52" d="M266.11,358.45l-1.53.89s.23-7.24.5-9.95,1.54-8.8,1.54-8.8l.6.47Z"/><path class="cls-52" d="M287.46,372.6l1.53-.89s-1.76-13.41-2.06-15.46-1.39-6.86-1.39-6.86l-1.69.41A22.8,22.8,0,0,1,285.3,355C285.48,357,287.46,372.6,287.46,372.6Z"/><path class="cls-53" d="M265.07,344.55c.51-3.9.95-7.26,6-4.34l2.49,1.44,3.85,2.22,2.49,1.45c5.08,2.92,5.52,6.8,6,11.29.46,4.07,1.51,15.87,1.52,16l-1-.63c0-.12-1-11.68-1.49-15.73-.55-4.83-1-7.25-5-9.57l-2.49-1.45L273.58,343l-2.49-1.44c-4-2.33-4.47-.41-5,3.79-.45,3.51-1.47,13.88-1.48,14l-1-.54C263.56,358.69,264.61,348.1,265.07,344.55Z"/><path class="cls-54" d="M286.71,350.42l19.24-11s-14.81-6.89-18.49-9.86-6.66-9.47-7.24-22.77c-.1-2.36.16-6-.49-6.86-1.43-.81-19.43,10.64-19.43,10.64s1.25,16.36,2.52,21.37,5.05,8.71,11.28,12.15S286.71,350.42,286.71,350.42Z"/><path class="cls-55" d="M261.19,310.51s1,12.71,1.65,17.71c.52,4.27,1.64,9.16,8.35,13.23,5.75,3.49,13.29,7.72,15.52,9v2.28c-1.38-.78-4.65-2.61-8.3-4.72-2.4-1.39-5-2.89-7.25-4.28-7.65-4.63-9.35-10.71-10-16.05-.63-5.14-1.68-18.13-1.68-18.13Z"/><path class="cls-54" d="M280.44,299.48s1,12.72,1.64,17.72c.52,4.27,1.64,9.16,8.36,13.23l15.51,9v2.27c-1.37-.77-4.65-2.61-8.29-4.71-2.41-1.39-5-2.9-7.26-4.28-7.65-4.63-9.34-10.72-10-16.06-.62-5.11-1.67-18-1.67-18Z"/><polygon class="cls-56" points="278.75 298.45 280.47 299.48 261.21 310.55 259.48 309.52 278.75 298.45"/><polygon class="cls-56" points="305.95 341.67 286.71 352.7 286.71 350.42 305.95 339.4 305.95 341.67"/><path class="cls-65" d="M295.68,310.29c1.46,3.64,3.43,13.09,3.32,14.23-.24,2.44-4.37,4.91-5.07,3-.84-2.3-2.39-7.51-2.9-8.85a110.24,110.24,0,0,1-3.3-11c-.22-4-2.25-10.9-4.92-13.66,0,0,2.28-1.18,4,.38a24.47,24.47,0,0,1,4.5,5.8C291.86,301.28,294.55,307.45,295.68,310.29Z"/><path class="cls-62" d="M315.35,367.85c1.64,1.61,2.16,2.07,3.69,3.56.89.87.15,1.67-1.55,1.61a30.78,30.78,0,0,1-6.78-1.47,36,36,0,0,1-5.07-2.64,3.39,3.39,0,0,1-1.51-1.91v-2.68l8.1.34S313.57,366.11,315.35,367.85Z"/><path class="cls-62" d="M301.09,376.31c1.65,1.61,2.16,2.07,3.69,3.56.89.87.15,1.67-1.55,1.6a30.28,30.28,0,0,1-6.78-1.46,34.08,34.08,0,0,1-5.07-2.65,3.31,3.31,0,0,1-1.5-1.9v-4.73l8.1,2.39S299.31,374.57,301.09,376.31Z"/><path class="cls-65" d="M272.15,329.59l16.19-6.22a45.79,45.79,0,0,0,7.53,5.5c2.85,1.72,10.7,6.33,13.21,8.1,1.55,1.1,2.24,3.45,2.84,8.77,1,8.78,1.73,18.8,1.73,18.8a7.06,7.06,0,0,1-5.72,2.44,15.51,15.51,0,0,1-5.33-1L302,345.82l-13.26-7.66s7.52,4.65,8.6,8.78a40.53,40.53,0,0,1,1.29,10c.28,8.92.38,14.76.38,14.76s-.59,3-4.56,2.94a9.11,9.11,0,0,1-5.56-2.49l-.8-20.44s-11.45-8.17-14.45-11.61C270.27,336.24,272.15,329.59,272.15,329.59Z"/><path class="cls-66" d="M284.94,294.92s5.16,4.16,5.78,10.05c.3,2.93-.48,12.95-.51,19.41,2.48,1.69,9.57,5.84,9.57,5.84s-5.71,1.76-7.94,5.69a19.36,19.36,0,0,1-4.14-2.43s.23.66,1.53,3.25c-1.56.47-6.87-.76-11.81,1.38s-8.37,1.18-8.37,1.18a27.21,27.21,0,0,1-.25-8.18c.55-3.56,1.88-7.51,1.6-9.6-.85-6.54-2.12-17.12-1.89-18.85.39-2.9,6.95-6,6.95-6S280.12,293,284.94,294.92Z"/><path class="cls-65" d="M282,294.37s3,0,5.57,4.95c.91,1.78,1.51,2.74,1.51,2.74l-1.51,1.48,2.15,1s.79,7.56.16,10.69c-.69,3.46-4.2,9.75-4.2,9.75a88.9,88.9,0,0,0-3.28-8.82c-1-1.76-4.77-6.63-4.77-6.63l1.89-2.85-3.08-1s-4.35-5.45-3.9-7.09a5.33,5.33,0,0,1,3.8-3.7Z"/><path class="cls-64" d="M285.5,300a70,70,0,0,1,1.9,7.06c.67,3.36-1.2,14.33-1.2,14.33s-1.66-10.72-3.85-13.82a70.71,70.71,0,0,0-6-7.18S283.27,299.13,285.5,300Z"/><path class="cls-55" d="M284.22,300.67l.37,2.87a7.84,7.84,0,0,1,2.05,3.64c.36,2,.26,9.5.26,9.5l-.7,4.7-1-3.24s-.77-4.45-1.44-7.2a16.59,16.59,0,0,0-.3-2.5,19.71,19.71,0,0,1-.55-4.14l-1.79-2.14,1.7-2Z"/><path class="cls-70" d="M283.1,294.74l.31,4.53a12.25,12.25,0,0,1-2.13,2.2c-1.64-.52-5.44-4.05-5.44-4.05l1.27-7Z"/><path class="cls-58" d="M276.4,282.64a6,6,0,0,1,9.81.72c3.35,5,.18,13.07-2.75,12.6-1.64-.27-5.34-1.77-7-4.42C274.67,288.56,275.08,284.33,276.4,282.64Z"/><path class="cls-8" d="M283.19,296l-.38,4.2,3,1.22S286.11,296.94,283.19,296Z"/><path class="cls-8" d="M276.29,294.92a21.86,21.86,0,0,0,2.78,3.23,10.5,10.5,0,0,0,3.74,2l-1.12,3.37s-4.12-1.89-5.64-3.54C276.05,300,274.26,296.91,276.29,294.92Z"/><path class="cls-62" d="M287.47,285a5,5,0,0,1-4.48,2.5,10.83,10.83,0,0,1-4-.55l.19,3a2.7,2.7,0,0,1-.82-.12c-.29-1.13-.78-1.39-1.33-.92s-.54,2.62-.54,2.62a7.64,7.64,0,0,1-2.35-5.46c0-2.13,1.87-6.75,5.77-7.23s6.68,1.55,7.64,3.64A2.74,2.74,0,0,1,287.47,285Z"/><rect class="cls-71" x="308.3" y="334.12" width="1.14" height="0.88" transform="translate(617.74 669.12) rotate(180)"/><path class="cls-71" d="M293.18,344.82l15.7-9.06c.83-.47.73-1.31-.23-1.87l-10.49-6.05a3.59,3.59,0,0,0-3.23-.13l-15.7,9.06c-.82.48-.72,1.32.23,1.86L290,344.69A3.59,3.59,0,0,0,293.18,344.82Z"/><rect class="cls-71" x="278.68" y="336.7" width="0.7" height="0.86" transform="translate(558.06 674.26) rotate(180)"/><path class="cls-69" d="M293.18,344l15.7-9.06c.83-.48.73-1.32-.23-1.87L298.16,327a3.59,3.59,0,0,0-3.23-.13L279.23,336c-.82.47-.72,1.31.23,1.86L290,343.86A3.56,3.56,0,0,0,293.18,344Z"/><polygon class="cls-71" points="296.23 327.18 307.3 333.56 290.8 343.03 279.71 336.67 296.23 327.18"/><polygon class="cls-69" points="297.17 327.07 298.02 327.56 281.53 337.03 280.65 336.56 297.17 327.07"/><polygon class="cls-69" points="284.59 335.93 285.44 336.42 282.94 337.84 282.06 337.37 284.59 335.93"/><polygon class="cls-69" points="287.33 334.34 288.18 334.83 286.42 335.84 285.54 335.37 287.33 334.34"/><polygon class="cls-69" points="289.51 333.1 290.36 333.59 288.61 334.61 287.73 334.13 289.51 333.1"/><polygon class="cls-69" points="291.68 331.86 292.53 332.35 290.78 333.36 289.9 332.89 291.68 331.86"/><polygon class="cls-69" points="286.45 338.29 287.3 338.78 286.07 339.49 285.19 339.02 286.45 338.29"/><polygon class="cls-69" points="288.25 337.24 289.09 337.74 287.86 338.44 286.99 337.97 288.25 337.24"/><polygon class="cls-69" points="290.46 335.99 291.31 336.48 289.56 337.49 288.68 337.02 290.46 335.99"/><polygon class="cls-69" points="287.9 339.13 288.75 339.62 287.51 340.33 286.63 339.86 287.9 339.13"/><polygon class="cls-69" points="289.7 338.08 290.54 338.57 289.31 339.28 288.44 338.81 289.7 338.08"/><polygon class="cls-69" points="289.44 339.94 290.29 340.43 289.06 341.14 288.18 340.67 289.44 339.94"/><polygon class="cls-69" points="291.24 338.89 292.09 339.38 290.85 340.1 289.98 339.62 291.24 338.89"/><polygon class="cls-69" points="291.91 336.83 292.76 337.32 291.01 338.33 290.13 337.86 291.91 336.83"/><polygon class="cls-69" points="292.57 334.75 293.42 335.24 291.67 336.25 290.79 335.78 292.57 334.75"/><polygon class="cls-69" points="294.75 333.51 295.59 333.99 293.84 335.01 292.96 334.53 294.75 333.51"/><polygon class="cls-69" points="286.54 336.5 287.38 336.99 284.46 338.66 283.59 338.18 286.54 336.5"/><polygon class="cls-69" points="288.85 335.16 289.7 335.65 287.95 336.66 287.07 336.19 288.85 335.16"/><polygon class="cls-69" points="291.04 333.92 291.88 334.4 290.13 335.42 289.25 334.94 291.04 333.92"/><polygon class="cls-69" points="293.21 332.67 294.06 333.16 292.31 334.17 291.43 333.7 293.21 332.67"/><path class="cls-58" d="M286.27,329.4s2.57,1.33,4.2,2.14,6.45,5,5.42,5.92-3.56,2.07-4.25,1.92a8.53,8.53,0,0,1-2.59-2.25c-.26-.4-3.39-1.59-4.3-3S286.27,329.4,286.27,329.4Z"/><path class="cls-72" d="M290.51,329l-.05,13.34a1.3,1.3,0,0,0,1.94,1.13l15.73-9a1.31,1.31,0,0,0,.65-1.12l.05-13.34a1.29,1.29,0,0,0-1.93-1.13l-15.74,9A1.3,1.3,0,0,0,290.51,329Z"/><polygon class="cls-72" points="290.94 343.35 291.78 343.84 292.8 342.78 290.79 341.55 290.94 343.35"/><polygon class="cls-72" points="308.26 318.9 308.83 319.24 307.33 319.26 308.26 318.9"/><path class="cls-71" d="M291.16,329.36l-.05,13.34a1.3,1.3,0,0,0,1.94,1.14l15.73-9a1.31,1.31,0,0,0,.66-1.12l0-13.34a1.29,1.29,0,0,0-1.93-1.13l-15.74,9A1.3,1.3,0,0,0,291.16,329.36Z"/><polygon class="cls-69" points="304.44 338.32 308.15 336.18 308.15 334.56 304.44 336.7 304.44 338.32"/><polygon class="cls-69" points="294.31 344.18 298.02 342.04 298.02 340.42 294.31 342.56 294.31 344.18"/><path class="cls-8" d="M299.47,332c0,.78.69,1,1.54.52a3.08,3.08,0,0,0,1.55-2.3c0-.78-.69-1-1.55-.52A3.1,3.1,0,0,0,299.47,332Z"/><path class="cls-65" d="M265.51,316.92c-1-7-.95-13,2.85-15.53,2.77-1.82,4.4,5.58,5.15,11.11.18,1.33,1.43,7.44,1.73,8.88,1.86.45,11.89,7,13.15,8.16-.32.63-2.66,2.38-3.34,6.17-4.17-.93-10.74-5-15.12-7.23C266.7,326.82,266,320.2,265.51,316.92Z"/><path class="cls-52" d="M216.9,378.43c.51-3.9.95-7.27,6-4.34l2.49,1.43,3.86,2.23,2.49,1.44c5.07,2.93,5.51,6.8,6,11.29.46,4.07,1.5,15.88,1.52,16l-1-.64c0-.12-1-11.67-1.49-15.73-.55-4.82-1-7.24-5-9.58l-2.49-1.43-3.86-2.23-2.49-1.44c-4-2.32-4.47-.41-5,3.79-.46,3.52-1.48,13.88-1.49,14l-1-.54C215.39,392.56,216.44,382,216.9,378.43Z"/><path class="cls-52" d="M216.41,393.21l-1.52.89s.22-7.24.5-10,1.53-8.8,1.53-8.8l.61.48Z"/><path class="cls-52" d="M237.77,407.37l1.53-.89s-1.77-13.41-2.07-15.46-1.38-6.87-1.38-6.87l-1.69.42a23.22,23.22,0,0,1,1.45,5.16C235.78,391.8,237.77,407.37,237.77,407.37Z"/><path class="cls-53" d="M215.38,379.32c.5-3.9.94-7.27,6-4.34l2.49,1.44,3.85,2.22,2.49,1.44c5.07,2.93,5.51,6.8,6,11.29.46,4.07,1.51,15.88,1.52,16l-1-.64c0-.12-1-11.67-1.5-15.72-.54-4.83-1-7.26-5-9.58L227.74,380l-3.85-2.23-2.49-1.43c-4-2.33-4.48-.42-5,3.78-.46,3.52-1.47,13.88-1.48,14l-1-.54C213.87,393.46,214.92,382.86,215.38,379.32Z"/><path class="cls-52" d="M201.76,387.1c.51-3.9.94-7.26,6-4.34l2.49,1.44,3.85,2.22,2.49,1.44c5.07,2.93,5.51,6.81,6,11.29.46,4.08,1.51,15.88,1.52,16l-1-.64c0-.12-1-11.67-1.5-15.72-.54-4.83-1-7.25-5-9.58l-2.49-1.44-3.85-2.22-2.49-1.44c-4-2.33-4.48-.41-5,3.78-.46,3.52-1.48,13.89-1.49,14l-1-.53C200.25,401.24,201.3,390.64,201.76,387.1Z"/><path class="cls-52" d="M201.27,401.88l-1.53.89s.23-7.24.5-9.95,1.54-8.79,1.54-8.79l.61.48Z"/><path class="cls-52" d="M222.62,416l1.53-.89s-1.76-13.41-2.06-15.46-1.39-6.87-1.39-6.87l-1.69.43a22.68,22.68,0,0,1,1.45,5.15C220.64,400.48,222.62,416,222.62,416Z"/><path class="cls-53" d="M200.23,388c.51-3.9,1-7.26,6-4.34l2.49,1.44,3.85,2.22,2.49,1.44c5.08,2.93,5.52,6.81,6,11.3.46,4.07,1.5,15.87,1.51,16l-1-.64c0-.11-1-11.67-1.49-15.72-.55-4.83-1-7.25-5-9.58l-2.49-1.44-3.85-2.22L206.25,385c-4-2.33-4.47-.41-5,3.78-.46,3.52-1.48,13.89-1.49,14l-1-.53C198.73,402.13,199.77,391.53,200.23,388Z"/><path class="cls-54" d="M221.88,393.86l19.23-11S226.3,376,222.62,373s-6.66-9.47-7.23-22.77c-.11-2.36.16-6-.5-6.86-1.42-.81-19.43,10.64-19.43,10.64s1.25,16.36,2.52,21.36,5.05,8.73,11.28,12.15S221.88,393.86,221.88,393.86Z"/><path class="cls-55" d="M196.35,354s1,12.71,1.65,17.71c.52,4.26,1.64,9.16,8.36,13.23,5.75,3.49,13.29,7.72,15.52,9v2.27c-1.38-.77-4.66-2.61-8.3-4.72-2.41-1.38-5-2.89-7.26-4.27-7.65-4.63-9.35-10.72-10-16.06-.63-5.13-1.68-18.12-1.68-18.12Z"/><path class="cls-54" d="M215.6,342.92s1,12.72,1.64,17.72c.52,4.26,1.65,9.16,8.36,13.23l15.51,9v2.27c-1.37-.77-4.64-2.61-8.29-4.71-2.41-1.39-5-2.9-7.26-4.28-7.64-4.63-9.34-10.72-10-16.05-.62-5.12-1.67-18.05-1.67-18.05Z"/><polygon class="cls-56" points="213.9 341.89 215.63 342.92 196.37 353.99 194.64 352.96 213.9 341.89"/><polygon class="cls-56" points="241.11 385.11 221.88 396.13 221.88 393.86 241.11 382.84 241.11 385.11"/><path class="cls-71" d="M213.86,328.14s-3.19-7.92-8.18-2.69c-4.1,4.28,1.44,8.78,5,6.74C212,331.43,213.86,328.14,213.86,328.14Z"/><path class="cls-57" d="M238.34,376.33s4.5,3.77,4.18,7.74c-.18,2.18.08,3.14-.26,5.84-.32,2.54-.5,12.69-.36,16s2.35,6.35,3.18,7.53-1.52,3.17-3.44,1.5-2.14-2-3.21-2.51-2-2.84-1.26-5.52,0-7.86-1-12.38a35.66,35.66,0,0,1-.55-8.53c0-1.67-6.12-7-6.35-7.53C228.64,377.17,238.34,376.33,238.34,376.33Z"/><path d="M240.32,413c2.5,1.32,3.51,1.49,4.76.49a34.07,34.07,0,0,1,3.16,2.66c.8.88-1.48,2.36-3.75,1.69s-4.21-2.69-6.06-4.19-2.31-2-2.31-3.78A3.52,3.52,0,0,1,237,408S237.71,411.6,240.32,413Z"/><path class="cls-58" d="M227.55,374.55c.94.43,2.76,4.32,6.28,7.84a6.45,6.45,0,0,1,1.72,5.52,30,30,0,0,0-.76,6c0,2.56-.5,13.13-.36,16.48s2.35,6.36,3.18,7.52-1.52,3.18-3.44,1.51-2.14-2-3.21-2.51-2-2.84-1.26-5.52.05-7.86-1-12.38.31-10.59-.62-11.71c-1.89-2.26-5.83-4.22-6-6.51C221.89,378,224.74,373.28,227.55,374.55Z"/><path d="M232.85,417.45c2.5,1.33,3.51,1.5,4.76.49a34.66,34.66,0,0,1,3.16,2.67c.8.88-1.48,2.36-3.75,1.68s-4.21-2.68-6.06-4.18-2.31-2-2.31-3.79a3.5,3.5,0,0,1,.86-1.84S230.24,416.07,232.85,417.45Z"/><path class="cls-65" d="M220.79,365.22s9.44,5.1,11.19,6.31c2.27,1.58,9.24,5.85,10.34,8,1.44,2.79.59,7.05.59,11.73,0,6.09,0,12.08-.29,14.73-3.43,3.34-6.75,0-6.75,0,.67.51-.6-12.77-1.14-21.09-1.95-1.54-7.67-3.41-8.5-3.78-4.59-2-8.79-3.39-10-5.61-2.51-4.53-.44-11.15-.44-11.15C216.67,364.34,220.79,365.22,220.79,365.22Z"/><path class="cls-65" d="M215.83,370.32s8.24,3.31,10,4.52c2.28,1.58,8.19,6.55,9.29,8.68,1.44,2.8.6,7.05.59,11.73,0,6.09,0,12.08-.28,14.73-3.43,3.34-6.76,0-6.76,0,.67.51-.6-12.77-1.14-21.09-1.95-1.55-7.67-3.41-8.5-3.78-4.59-2-8.79-3.39-10-5.61-2.51-4.53-.44-11.15-.44-11.15C217.3,373.39,215.83,370.32,215.83,370.32Z"/><path class="cls-65" d="M218.36,340.43c2,1,7.37,6.16,7.37,6.16a11.49,11.49,0,0,1-1.63,3.11,30.09,30.09,0,0,1-3.11,2.75l-7.2-9.94S216.39,339.39,218.36,340.43Z"/><path class="cls-66" d="M208.26,344.23l-4,4.35C203,350,203,350.73,203,350.73s4.35,6.68,4.38,9.87a45.51,45.51,0,0,1-.52,9.16,44.47,44.47,0,0,0-.53,7.19s4.58,1.15,7.45.54a17.48,17.48,0,0,0,8.13-3.95s4.89-4.33,5.46-5c-.58-.51-1.7-1.85-2.22-2.38-1.38-1.4-2.5-2-2.64-7.43a9,9,0,0,1,.36-3.33c.58-1.9,1.55-4.18.79-6.1-1.25-3.16-7.41-9.13-7.41-9.13S210.53,341.37,208.26,344.23Z"/><path class="cls-57" d="M215.55,340.85a18.37,18.37,0,0,0,.71,4.5,6,6,0,0,1,.87,3.9,20.18,20.18,0,0,1-3.64-2.15c-1.15-1-3.62-1.78-4.15-2.93a38,38,0,0,0,1-7.9Z"/><path class="cls-58" d="M211.2,329.7a5.23,5.23,0,0,1,8.17,2.79c1.75,4.95-2.74,11.14-5.13,10.08-1.33-.59-4.15-2.67-4.94-5.29C208.41,334.35,209.7,330.84,211.2,329.7Z"/><path class="cls-66" d="M209,328.48a2.39,2.39,0,0,1,1.66-2.92,2.29,2.29,0,0,1,3.1,2.21C213.52,328.61,209,328.48,209,328.48Z"/><path class="cls-62" d="M207.12,333.05c0-2,.71-6,3.81-5.54,2.41-2.33,5.61-.62,8.23,1.78,1.56,1.44,1.23,3.7,1.23,6.4,0,0-4.46,1.1-6.85-.41-3.85,2-2.95,2.79-3.31,3.57C208.73,337.3,207.12,335.78,207.12,333.05Z"/><path class="cls-58" d="M224.81,348.65s1.69,3.5,3.09,7.07c1.53,3.88,8.29,9.84,8.83,11.8C237,368.66,232,370.8,232,371s.92-1.69.92-1.69-4.36-4.12-5.38-5.5a82,82,0,0,1-4.67-8.37,21.28,21.28,0,0,0,.92-3.72,8.06,8.06,0,0,0,.06-1.71A12,12,0,0,0,224.81,348.65Z"/><path class="cls-63" d="M241.25,358.78l-8.06,14a6.09,6.09,0,0,1-2.4,2.17l-7.47,4.33c-.84.36-1.12,0-.64-.86l8.06-14a6,6,0,0,1,2.39-2.17l7.48-4.33C241.44,357.56,241.73,358,241.25,358.78Z"/><polygon class="cls-63" points="222.57 379.33 223.37 379.78 223.84 378.78 222.84 378.78 222.57 379.33"/><polygon class="cls-63" points="242.12 358.29 241.36 357.84 240.9 358.29 241.48 358.86 242.12 358.29"/><path class="cls-52" d="M242,359.23l-8.06,14a6.09,6.09,0,0,1-2.39,2.18l-7.47,4.32c-.84.36-1.13,0-.64-.86l8.06-14a6,6,0,0,1,2.39-2.18l7.47-4.33C242.22,358,242.5,358.39,242,359.23Z"/><path class="cls-8" d="M234.68,368a5,5,0,0,1-1.78,2c-.63.31-.83-.07-.46-.84a4.81,4.81,0,0,1,1.78-2C234.84,366.85,235,367.23,234.68,368Z"/><path class="cls-58" d="M211.06,361.87a15.64,15.64,0,0,0,3.63,5.84c.7.53,6.54,3.85,8.37,4.2,1.16.22,2.2-.18,3.36,0-.15.33-.69,1.57-.1,2,1.1.74,2.39-.49,3.29,0s-.14,2.23-1.42,2.85c-2.27,1.11-4-.27-6.31-1.37s-7.07-1-10.63-3.81a15.3,15.3,0,0,1-4.66-6.3c-.78-1.69-2.31-6.77-2.31-6.77l5.58-1.17S210.62,360,211.06,361.87Z"/><path class="cls-65" d="M210.54,353.38c.59,2,1.55,5,1.91,6.13-.2,3-6.19,3.4-8.06,2.64a29.18,29.18,0,0,1-1.37-4.36c-.65-2.14-1.88-6.66,1.8-9.8C207.4,345.78,210,351.49,210.54,353.38Z"/><path class="cls-64" d="M215.8,345.47a1.84,1.84,0,0,0-1,1.71c-.1,1.37,2.53,6.05,2.57,6.45s2.21,4.33,2.21,4.33.83-5.2,0-7.15a30.88,30.88,0,0,1-1.41-3.9Z"/><path class="cls-8" d="M209.9,341.43a9.67,9.67,0,0,0-1.64,2.8c-.25,1.08,7.23,4.65,7.23,4.65l.31-3.41S211.24,343.47,209.9,341.43Z"/><path class="cls-65" d="M209,342.69a4.67,4.67,0,0,0-1.89,2.78,21.35,21.35,0,0,1,2.87,2.24,17,17,0,0,1,2,2.55l2.75.42-1,1.77,5.81,5.51a22.68,22.68,0,0,0-3.37-8.06C213.39,345.6,210.65,344.17,209,342.69Z"/><path class="cls-65" d="M215.68,342.49a11.24,11.24,0,0,1,1.48,2.46,28.15,28.15,0,0,1,1.63,6.48c.23,2.28.77,6.53.77,6.53s1.21-5.08,1.28-6.24a18,18,0,0,0,0-2.13l-1.32-1.45s.24-.87.53-1.81a19,19,0,0,0-3.1-4.74A4.18,4.18,0,0,1,215.68,342.49Z"/><path class="cls-8" d="M215.68,342.49a9.42,9.42,0,0,1,.17,1.78c0,.76,0,1.2,0,1.2l2.11,1.71a10.35,10.35,0,0,0-.5-2.93,5.42,5.42,0,0,0-1.09-2.12Z"/><path class="cls-58" d="M237.15,367.67c-1-.21-2.52,1.7-2.29,2.75s1.75.22,2.35-.72S238,367.85,237.15,367.67Z"/><path class="cls-52" d="M149,409.33c.5-3.9.94-7.27,6-4.35l2.49,1.44,3.85,2.23,2.49,1.44c5.07,2.93,5.51,6.8,6,11.29.46,4.07,1.51,15.87,1.51,16l-1-.64c0-.11-1-11.67-1.49-15.71-.55-4.84-1-7.26-5-9.59L161.34,410l-3.85-2.23L155,406.33c-4-2.33-4.48-.41-5,3.78-.46,3.52-1.47,13.89-1.48,14l-1-.53C147.47,423.46,148.52,412.87,149,409.33Z"/><path class="cls-52" d="M148.49,424.1,147,425s.23-7.24.5-9.95,1.54-8.8,1.54-8.8l.6.48Z"/><path class="cls-52" d="M169.84,438.26l1.52-.89s-1.75-13.41-2.05-15.46-1.39-6.86-1.39-6.86l-1.69.42a22.65,22.65,0,0,1,1.45,5.16C167.86,422.7,169.84,438.26,169.84,438.26Z"/><path class="cls-53" d="M147.45,410.21c.51-3.89,1-7.26,6-4.33l2.49,1.43,3.85,2.23L162.3,411c5.08,2.93,5.51,6.8,6,11.29.46,4.07,1.5,15.87,1.51,16l-1-.63c0-.12-1-11.68-1.5-15.73-.54-4.82-1-7.25-5-9.58l-2.49-1.43L156,408.66l-2.49-1.44c-4-2.33-4.47-.41-5,3.78-.46,3.52-1.48,13.89-1.49,14l-1-.54C145.94,424.35,147,413.76,147.45,410.21Z"/><path class="cls-52" d="M133.83,418c.51-3.9.95-7.27,6-4.34l2.49,1.44,3.85,2.22,2.5,1.44c5.07,2.93,5.51,6.8,6,11.29.46,4.07,1.5,15.88,1.51,16l-1-.64c0-.12-1-11.67-1.49-15.72-.55-4.83-1-7.25-5-9.58l-2.5-1.44-3.85-2.23L139.85,415c-4-2.33-4.47-.42-5,3.78-.46,3.52-1.48,13.88-1.49,14l-1-.54C132.32,432.13,133.37,421.54,133.83,418Z"/><path class="cls-52" d="M133.34,432.78l-1.52.89s.22-7.24.49-9.95,1.55-8.8,1.55-8.8l.6.48Z"/><path class="cls-52" d="M154.7,446.94l1.52-.89s-1.76-13.41-2.06-15.46-1.39-6.87-1.39-6.87l-1.68.43a22.69,22.69,0,0,1,1.44,5.15C152.72,431.37,154.7,446.94,154.7,446.94Z"/><path class="cls-53" d="M132.31,418.89c.51-3.9.94-7.27,6-4.34l2.49,1.44,3.85,2.22,2.5,1.44c5.08,2.93,5.51,6.81,6,11.29.46,4.08,1.51,15.87,1.52,16l-1-.64c0-.12-1-11.67-1.49-15.72-.55-4.83-1-7.25-5-9.58l-2.5-1.44-3.85-2.23-2.49-1.43c-4-2.33-4.47-.42-5,3.78-.46,3.52-1.48,13.89-1.48,14l-1-.54C130.8,433,131.85,422.43,132.31,418.89Z"/><path class="cls-54" d="M153.94,424.75l19.25-11s-14.81-6.89-18.49-9.85-6.66-9.48-7.24-22.77c-.1-2.37.16-6-.5-6.87-1.42-.81-19.43,10.65-19.43,10.65s1.25,16.36,2.52,21.36,5,8.72,11.28,12.15S153.94,424.75,153.94,424.75Z"/><path class="cls-55" d="M128.43,384.85s1,12.7,1.64,17.71c.52,4.26,1.64,9.15,8.36,13.23,5.75,3.48,13.29,7.72,15.51,9V427c-1.37-.77-4.65-2.61-8.29-4.72-2.41-1.38-5-2.89-7.26-4.27-7.64-4.64-9.34-10.72-10-16.06-.63-5.14-1.68-18.13-1.68-18.13Z"/><path class="cls-54" d="M147.67,373.82s1,12.71,1.64,17.71c.53,4.27,1.65,9.16,8.36,13.23l15.52,9V416c-1.38-.77-4.65-2.61-8.3-4.72-2.4-1.39-5-2.89-7.25-4.28-7.65-4.63-9.35-10.71-10-16.05-.63-5.12-1.68-18-1.68-18Z"/><polygon class="cls-56" points="145.98 372.79 147.71 373.82 128.44 384.89 126.71 383.85 145.98 372.79"/><polygon class="cls-56" points="173.19 416.01 153.94 427.03 153.94 424.75 173.19 413.73 173.19 416.01"/><path class="cls-71" d="M146.46,359.58s1.59-5.89-5.1-5.7-7,7.66-5.32,12.78c3.39,10.07-2.37,7.87-2.37,7.87s1.2,4.81,5.35,3.22S147.59,360.67,146.46,359.58Z"/><path class="cls-73" d="M145.82,358.4s-2.06-2.65-3.9-1.37-.84,4-.84,4Z"/><path class="cls-57" d="M170.42,407.23s4.5,3.76,4.17,7.74c-.17,2.17.09,3.14-.26,5.84-.32,2.54-.5,12.69-.36,16s2.35,6.36,3.18,7.53-1.51,3.18-3.44,1.5-2.14-2-3.21-2.5-1.95-2.85-1.26-5.52,0-7.86-1.05-12.38a36.27,36.27,0,0,1-.55-8.54c0-1.67-6.12-7-6.35-7.53C160.71,408.06,170.42,407.23,170.42,407.23Z"/><path d="M172.4,443.88c2.5,1.33,3.51,1.5,4.75.49a33.31,33.31,0,0,1,3.16,2.67c.8.88-1.48,2.35-3.75,1.68s-4.21-2.68-6.06-4.18-2.31-2-2.31-3.79a3.5,3.5,0,0,1,.86-1.84S169.78,442.49,172.4,443.88Z"/><path class="cls-58" d="M159.63,405.45c.93.43,2.76,4.32,6.27,7.84a6.45,6.45,0,0,1,1.72,5.52,29.18,29.18,0,0,0-.76,6c0,2.56-.5,13.13-.35,16.48s2.34,6.35,3.16,7.52-1.5,3.18-3.43,1.51-2.14-2-3.2-2.52-2-2.84-1.26-5.51,0-7.86-1.06-12.38.32-10.6-.62-11.72c-1.89-2.25-5.83-4.21-6-6.51C154,408.87,156.81,404.17,159.63,405.45Z"/><path d="M164.93,448.35c2.5,1.33,3.51,1.5,4.74.49a33.07,33.07,0,0,1,3.17,2.67c.8.88-1.48,2.35-3.75,1.68s-4.21-2.68-6.05-4.18-2.32-2-2.32-3.79a3.5,3.5,0,0,1,.86-1.84S162.31,447,164.93,448.35Z"/><path d="M155.17,397.13s5.65,3.34,7.4,4.55c2.27,1.57,9.4,6.35,9.4,6.35s-9.81,4.48-12.12,7.43c-2,2.58-3.22,4-3.22,4s-13.5-5.37-15.57-9.11c-2.51-4.53-.44-11.15-.44-11.15A11.22,11.22,0,0,0,155.17,397.13Z"/><path class="cls-73" d="M150.44,371.32c2,1,7.36,6.17,7.36,6.17a11.33,11.33,0,0,1-1.62,3.11,31.84,31.84,0,0,1-3.12,2.74l-7.19-9.93S148.46,370.28,150.44,371.32Z"/><path class="cls-74" d="M141.77,374.76l4.11,2.95a26.77,26.77,0,0,1,2.92,2.79h0a22.42,22.42,0,0,0-1.52-5.68,10.42,10.42,0,0,1,0-3.45s.4-.12,1-.26c.94.94,2.82,3.48,3.82,4.52s4.78,4.29,3.95,7.71a27.26,27.26,0,0,1-1.15,3c-.53,1.43-.36,4.09-.21,5.53a35.45,35.45,0,0,0,1.92,5.95s-3.6,4.59-7.68,4.61a13.6,13.6,0,0,1-8.32-3.18s.79-7.26.49-10.23c0,0-5.89-2.95-4.75-8.67C136.71,378.61,141.77,374.76,141.77,374.76Z"/><path class="cls-73" d="M152.91,379a18.68,18.68,0,0,1-3.74,1.89l-2.95-8.15,2.07-.5S153.14,377.66,152.91,379Z"/><path class="cls-57" d="M147.63,371.75a18.5,18.5,0,0,0,.69,4.5,8.61,8.61,0,0,1,.85,4.66,26.16,26.16,0,0,1-3.61-2.91c-1.15-1-3.62-1.78-4.15-2.94a37.86,37.86,0,0,0,1-7.89Z"/><path class="cls-58" d="M143.27,360.6a5.24,5.24,0,0,1,8.17,2.78c1.75,4.95-2.73,11.14-5.12,10.09-1.34-.59-4.15-2.68-4.95-5.29C140.48,365.25,141.77,361.74,143.27,360.6Z"/><path class="cls-73" d="M145,376.13c2.57,2.67,4.21,4.78,4.21,4.78s-.3,1.39-3.35,1.65c-2.47-2.38-5.1-4.65-6-6.24a12.92,12.92,0,0,1,1.57-3.05A19.66,19.66,0,0,1,145,376.13Z"/><path class="cls-62" d="M139.89,361.81c.53-1.57,2.58-3,3.78-3.5,2.77-1.14,4.34-.6,7,1.8a7.18,7.18,0,0,1,2.29,5.85s-6.27,2.38-9.35,2.08c-1.64-.17-.87,1.62-1.86,1.62A9,9,0,0,1,139.89,361.81Z"/><rect class="cls-52" x="174.6" y="406.36" width="1.07" height="0.83" transform="translate(350.26 813.56) rotate(180)"/><path class="cls-52" d="M160.45,416.38l14.69-8.48c.78-.44.68-1.23-.22-1.74l-9.8-5.67a3.39,3.39,0,0,0-3-.12l-14.69,8.48c-.77.44-.68,1.23.22,1.74l9.81,5.67A3.36,3.36,0,0,0,160.45,416.38Z"/><rect class="cls-52" x="146.88" y="408.78" width="0.66" height="0.81" transform="translate(294.42 818.37) rotate(180)"/><path class="cls-53" d="M160.45,415.61l14.69-8.48c.78-.45.68-1.23-.22-1.75l-9.8-5.66a3.42,3.42,0,0,0-3-.13l-14.69,8.49c-.77.44-.68,1.23.22,1.74l9.81,5.67A3.36,3.36,0,0,0,160.45,415.61Z"/><polygon class="cls-52" points="163.3 399.88 173.66 405.85 158.23 414.71 147.85 408.75 163.3 399.88"/><polygon class="cls-53" points="164.19 399.77 164.98 400.23 149.55 409.1 148.73 408.65 164.19 399.77"/><polygon class="cls-53" points="152.42 408.06 153.21 408.52 150.87 409.85 150.05 409.41 152.42 408.06"/><polygon class="cls-53" points="154.98 406.58 155.77 407.03 154.13 407.98 153.31 407.54 154.98 406.58"/><polygon class="cls-53" points="157.02 405.42 157.81 405.87 156.17 406.82 155.35 406.38 157.02 405.42"/><polygon class="cls-53" points="159.05 404.25 159.84 404.71 158.21 405.66 157.38 405.21 159.05 404.25"/><polygon class="cls-53" points="154.16 410.27 154.95 410.73 153.79 411.4 152.97 410.95 154.16 410.27"/><polygon class="cls-53" points="155.84 409.29 156.63 409.75 155.48 410.41 154.66 409.97 155.84 409.29"/><polygon class="cls-53" points="157.91 408.12 158.7 408.58 157.06 409.52 156.24 409.08 157.91 408.12"/><polygon class="cls-53" points="155.51 411.05 156.3 411.51 155.15 412.18 154.33 411.74 155.51 411.05"/><polygon class="cls-53" points="157.19 410.08 157.99 410.54 156.84 411.2 156.01 410.76 157.19 410.08"/><polygon class="cls-53" points="156.95 411.81 157.74 412.27 156.59 412.94 155.77 412.5 156.95 411.81"/><polygon class="cls-53" points="158.63 410.83 159.43 411.29 158.27 411.96 157.46 411.51 158.63 410.83"/><polygon class="cls-53" points="159.26 408.9 160.06 409.36 158.42 410.31 157.6 409.87 159.26 408.9"/><polygon class="cls-69" points="159.89 406.96 160.68 407.42 159.04 408.36 158.21 407.92 159.89 406.96"/><polygon class="cls-69" points="161.91 405.79 162.71 406.25 161.07 407.2 160.25 406.75 161.91 405.79"/><polygon class="cls-53" points="154.24 408.59 155.03 409.05 152.3 410.61 151.47 410.17 154.24 408.59"/><polygon class="cls-53" points="156.4 407.34 157.19 407.8 155.56 408.74 154.73 408.3 156.4 407.34"/><polygon class="cls-53" points="158.44 406.18 159.24 406.64 157.6 407.58 156.78 407.14 158.44 406.18"/><polygon class="cls-69" points="160.48 405.01 161.27 405.47 159.63 406.42 158.81 405.98 160.48 405.01"/><path class="cls-58" d="M143.13,392.77a15.72,15.72,0,0,0,3.63,5.84c.71.52,6.36,4.34,8.19,4.69a7.3,7.3,0,0,1,3.49,1.91,23.6,23.6,0,0,0,2.63,2c.28.21-.39,3-1.5,3.55-.59.28-1.36-1.14-2-1.46a8,8,0,0,1,1.21,2.08c0,.44-.48.37-1-.21a21.35,21.35,0,0,0-2.53-2.57c-1.15-.93-1.56-2-2-2.17-2.28-1-6.43-1.18-10-4a15.18,15.18,0,0,1-4.66-6.3c-.79-1.7-2.32-6.77-2.32-6.77l5.58-1.18S142.69,390.9,143.13,392.77Z"/><path class="cls-73" d="M142.62,384.27c.58,2,1.55,5,1.9,6.14-.2,3-6.19,3.4-8.06,2.63a27.44,27.44,0,0,1-1.36-4.35c-.66-2.15-2-6.13,1.72-9.27C139.39,377.22,142.08,382.39,142.62,384.27Z"/><path class="cls-58" d="M156.89,379.54s1.68,3.5,3.08,7.07c1.53,3.88,2.87,8.33,3.4,10.29a31.63,31.63,0,0,1,.67,5,14.17,14.17,0,0,1-2.77.46s-2.64-6.56-3.32-8.13-3-7.9-3-7.9a15.87,15.87,0,0,0,1.11-3.67,5.57,5.57,0,0,0-.13-1.75A11.08,11.08,0,0,0,156.89,379.54Z"/><path class="cls-63" d="M158,401.56l0,12.48a1.21,1.21,0,0,0,1.81,1.06l14.72-8.43a1.21,1.21,0,0,0,.61-1.05l0-12.48a1.21,1.21,0,0,0-1.82-1.05l-14.72,8.42A1.24,1.24,0,0,0,158,401.56Z"/><polygon class="cls-63" points="158.36 415 159.14 415.46 160.09 414.47 158.21 413.31 158.36 415"/><polygon class="cls-63" points="174.56 392.13 175.1 392.45 173.69 392.47 174.56 392.13"/><path class="cls-52" d="M158.56,401.92l0,12.48a1.21,1.21,0,0,0,1.81,1.06L175.05,407a1.19,1.19,0,0,0,.61-1l.05-12.48a1.21,1.21,0,0,0-1.82-1.05l-14.71,8.42A1.22,1.22,0,0,0,158.56,401.92Z"/><polygon class="cls-53" points="170.98 410.31 174.46 408.29 174.46 406.78 170.98 408.79 170.98 410.31"/><polygon class="cls-53" points="161.5 415.78 164.98 413.77 164.98 412.26 161.5 414.26 161.5 415.78"/><path class="cls-8" d="M166.33,404.34c0,.73.65.94,1.45.48a2.9,2.9,0,0,0,1.45-2.15c0-.72-.65-.94-1.45-.48A2.9,2.9,0,0,0,166.33,404.34Z"/><path class="cls-58" d="M143.62,369.3a1.67,1.67,0,0,0-.06-1.26c-.27-.59-.74-1.31-1.26-.84-1.11,1-.49,2.07.27,2.84C143.05,370.52,143.41,369.86,143.62,369.3Z"/><polygon class="cls-52" points="369.4 449.57 367.81 450.49 361.23 403.34 362.82 402.41 369.4 449.57"/><polygon class="cls-53" points="367.81 450.49 366.12 449.46 359.65 403.37 361.23 403.34 367.81 450.49"/><polygon class="cls-52" points="398.87 432.49 397.27 433.41 390.69 386.25 392.29 385.33 398.87 432.49"/><polygon class="cls-53" points="397.27 433.41 395.59 432.38 389.12 386.29 390.69 386.25 397.27 433.41"/><path class="cls-52" d="M352,401.39l-5.16,37,1.6.92,5.2-37.28A6.46,6.46,0,0,1,352,401.39Z"/><path class="cls-53" d="M354.24,402.17c-.21,0-.41-.11-.62-.16l-5.2,37.28,1.69-1,5.06-36.12A2.58,2.58,0,0,1,354.24,402.17Z"/><polygon class="cls-52" points="376.55 421.23 378.15 422.15 384.73 375 383.13 374.07 376.55 421.23"/><polygon class="cls-53" points="378.15 422.15 379.83 421.12 386.3 375.03 384.73 375 378.15 422.15"/><polygon class="cls-59" points="355.01 350.79 392.28 329.25 392.28 382.4 355.01 404.15 355.01 350.79"/><polygon class="cls-60" points="355.01 350.79 353.32 349.86 353.32 403.17 355.01 404.15 355.01 350.79"/><polygon class="cls-61" points="392.28 329.25 390.6 328.32 353.32 349.86 355.01 350.79 392.28 329.25"/><polygon class="cls-61" points="348.62 400.03 353.32 397.33 353.32 401.02 357.28 403.27 357.28 406.04 348.62 400.03"/><polygon class="cls-75" points="357.28 401.79 394.55 380.25 394.55 385.79 357.28 407.42 357.28 401.79"/><polygon class="cls-59" points="357.28 401.79 355.01 400.49 355.01 403.65 348.62 400.03 348.62 402.5 357.28 407.42 357.28 401.79"/><polygon class="cls-61" points="357.28 401.79 355.01 400.49 392.28 378.96 394.55 380.25 357.28 401.79"/><polygon class="cls-59" points="307.4 386.26 324.92 401.21 324.92 458.2 307.4 448.18 307.4 386.26"/><polygon class="cls-75" points="307.4 396.11 307.4 448.18 284.72 461.3 284.72 409.24 307.4 396.11"/><polygon class="cls-60" points="298.63 416.41 328.51 399.13 328.51 456.12 324.92 458.21 324.92 406.14 302.23 419.26 302.23 471.32 298.63 473.4 298.63 416.41"/><polygon class="cls-59" points="281.12 401.46 298.63 416.41 298.63 473.4 281.12 463.38 281.12 401.46"/><polygon class="cls-61" points="281.12 401.46 286.19 398.52 322.13 402.82 298.63 416.41 281.12 401.46"/><polygon class="cls-76" points="310.86 384.19 328.51 399.13 322.13 402.82 286.19 398.52 310.86 384.19"/><polygon class="cls-8" points="292.91 392.29 304.16 385.7 319.31 398.65 307.83 405.03 292.91 392.29"/><polygon class="cls-77" points="294.82 392.24 304.07 386.75 307.87 390.03 298.56 395.46 294.82 392.24"/><polygon class="cls-77" points="299.28 395.99 308.52 390.49 309.46 391.31 300.19 396.79 299.28 395.99"/><polygon class="cls-77" points="301.12 397.61 310.36 392.11 311.3 392.94 302.03 398.41 301.12 397.61"/><polygon class="cls-77" points="302.96 399.14 312.2 393.64 313.14 394.46 303.87 399.93 302.96 399.14"/><polygon class="cls-77" points="304.8 400.76 314.04 395.26 314.97 396.08 305.71 401.55 304.8 400.76"/><polygon class="cls-77" points="306.63 402.5 315.88 397 316.81 397.83 307.55 403.3 306.63 402.5"/><polygon class="cls-8" points="289.13 398.15 300.38 391.56 315.53 404.51 304.05 410.89 289.13 398.15"/><polygon class="cls-77" points="291.05 398.1 300.29 392.61 304.1 395.89 294.78 401.32 291.05 398.1"/><polygon class="cls-77" points="295.5 401.85 304.75 396.35 305.68 397.18 296.42 402.65 295.5 401.85"/><polygon class="cls-77" points="297.34 403.47 306.58 397.97 307.52 398.8 298.25 404.27 297.34 403.47"/><polygon class="cls-77" points="299.18 405 308.42 399.5 309.36 400.32 300.09 405.79 299.18 405"/><polygon class="cls-77" points="301.02 406.62 310.26 401.12 311.2 401.95 301.93 407.41 301.02 406.62"/><polygon class="cls-77" points="302.86 408.36 312.1 402.86 313.04 403.69 303.77 409.16 302.86 408.36"/><path class="cls-71" d="M292.79,408a1.85,1.85,0,0,0,2.4.88c1.1-.32,1.79-1.23,1.56-2a1.86,1.86,0,0,0-2.41-.88C293.25,406.28,292.55,407.19,292.79,408Z"/><rect class="cls-71" x="296.25" y="406.56" width="0.54" height="0.54" transform="translate(593.04 813.66) rotate(180)"/><rect class="cls-71" x="292.74" y="407.14" width="0.54" height="0.54" transform="translate(586.02 814.83) rotate(180)"/><path class="cls-72" d="M292.79,407.44a1.84,1.84,0,0,0,2.4.87c1.1-.32,1.79-1.23,1.56-2a1.86,1.86,0,0,0-2.41-.87C293.25,405.73,292.55,406.63,292.79,407.44Z"/><path class="cls-71" d="M294.46,406.87a.33.33,0,0,0,.44.16c.2-.06.33-.22.29-.37a.34.34,0,0,0-.44-.16C294.54,406.56,294.42,406.72,294.46,406.87Z"/><path class="cls-71" d="M295.19,406.73s0-6.4,0-9.77.39-5.25,1.45-6.44a28.63,28.63,0,0,1,4.89-3.45l-.37-.65a28.74,28.74,0,0,0-5.08,3.6c-1.2,1.35-1.65,3.3-1.63,6.94,0,3.37,0,9.66,0,9.85Z"/><path class="cls-71" d="M300.8,387c.27.47,1.08.52,1.81.1s1.09-1.15.82-1.62-1.08-.52-1.81-.1S300.52,386.55,300.8,387Z"/><path class="cls-70" d="M326.15,385.39s-2.92-1.5-4.79-1.11-.58,4.2,2.39,5.48S326.15,385.39,326.15,385.39Z"/><path class="cls-69" d="M319.49,472.84s-5.25-2.34-7.86-2.45-2.85,2.94,0,5.31,5,2.69,7.38,3.65c2.1.86,2.86.93,4.54-.16,2.24-1.45.44-5.3.44-5.3Z"/><path class="cls-69" d="M334.7,463.83a26.67,26.67,0,0,0-6.78-1.86c-2.6-.11-3.53,2.14-.68,4.51a21.29,21.29,0,0,0,7,3.85c2.1.87,2.85.92,4.54-.15,2.3-1.46.5-5.3.44-5.3Z"/><path d="M318.93,413.27c-2.55,8.18-4.36,23.55-4.36,31.33,0,13.73.12,28.2.12,28.2s2.28,2.39,4.5,2.39c5,0,5.49-2.49,5.49-2.49s.06-16.37.49-23.81c.31-5.17.61-12.45,2.69-18.46.06,6.17,0,8.15.55,14.87.38,5,2.44,18.27,2.55,19.14,1.58,1.91,6.48,3.23,9,.43-.2-2.19-1.58-17.57-1.39-25.54.16-7.32,2-24.67-2.16-28.05C332.76,408.36,321.78,409.94,318.93,413.27Z"/><path class="cls-63" d="M336.75,384.57c3.14,3,5.55,10.7,1.44,18.68-2.65,5.13-4.73-11.94-4.73-11.94L331,383.55A5.29,5.29,0,0,1,336.75,384.57Z"/><path class="cls-58" d="M325.22,366.67c3.37-.69,7.8,1.4,8.48,5.41-.56,5.95-2.07,5.92-2.25,9.29a8.15,8.15,0,0,0,.75,4.28l-2.33,1a7,7,0,0,1-4.76,0l.08-4.15a10.94,10.94,0,0,1-3-.78c-1.05-1-2.05-4.39-1.56-8.11C321.4,368,323.07,367.1,325.22,366.67Z"/><path class="cls-64" d="M319.86,399.76c-1.38-2.94-.2-8.76.68-10.67s4.57-3.54,4.57-3.54l8.5-1.27s5.1,3,5.59,6.83c.35,2.7,0,11.39-.1,18.25-.11,4.64.77,5.88-1.19,7.9-3,3.08-9.05,3.69-13,3.69-2.78,0-6.25-2.66-7.78-4.54C315.45,414.35,322.67,405.76,319.86,399.76Z"/><path class="cls-63" d="M325.15,384.37s3.4,1,5.4-.57c2.84-2.21,3.15.81,3.15.81a7.31,7.31,0,0,1-3.57,2.52,8.63,8.63,0,0,1-6.84-.54C323.27,385.06,325.15,384.37,325.15,384.37Z"/><path class="cls-58" d="M304.47,391.65c.28.11,1.65.62,2.1.75,1,.31,1.2-2,1.5-2.18,1.13-.69.48,2.34,1,3.45A7.9,7.9,0,0,0,311,396l-2.09,1.75s-5.31-.39-8-3.17S302.93,391.07,304.47,391.65Z"/><path class="cls-64" d="M310.29,395h0a2.05,2.05,0,0,0-2.62.34A2.07,2.07,0,0,0,307,398s1.36,3.45,2.22,2.76L312,398C312.87,397.26,311.23,395.62,310.29,395Z"/><path class="cls-63" d="M310.47,395.5c2.18.35,4.21,2.32,5.86,3.76,1.24-5.49,2.47-9.76,5.11-10.63,1.44-.48,4.67,2.94,4.29,6.49-.51,4.76-2.63,8.75-5.19,12.49-1.18,2-2,2.5-6,.38-3.09-1.66-6.41-6.25-7.43-8.48C306.45,398,308.44,395.16,310.47,395.5Z"/><path class="cls-60" d="M318.94,367.51a12.48,12.48,0,0,0,3.19,5,25.33,25.33,0,0,1,4.64,6.87,6.79,6.79,0,0,0,1.35,2.28,9,9,0,0,0,2.34,1.78,13.78,13.78,0,0,0,3.24-5.3c1-3.14,2-9.22.27-10.84a9.85,9.85,0,0,0-8.49-2.17c-1.18.22-4.43,1.23-5.77,1.42.4.34.5.4,1.49.63C320.66,367.57,320.06,367.52,318.94,367.51Z"/><path class="cls-58" d="M324.08,375.5a1.27,1.27,0,0,1,1.69-.24c1,.64.86,2.51-.55,3.28S324.08,375.5,324.08,375.5Z"/><path class="cls-15" d="M320.48,375a3.13,3.13,0,0,0,3.6.48s.12,2.67,2.11,2.61c0,0-.08,3.6-2.9,4C323.29,382.1,319.76,381.2,320.48,375Z"/><path class="cls-15" d="M143.56,368s3.34,3.08,7.21,1.62c0,0-.59,3.36-3.75,3.81s-4.45-3.43-4.45-3.43Z"/><path class="cls-15" d="M211.83,336.27a8.09,8.09,0,0,0,6.44,3.46s.28,2.88-4,2.84-4-3.72-4-3.72Z"/><path class="cls-15" d="M278.36,289.84s5.48,3.29,8.71.65c0,0,.27,5-3.48,6s-7.1-5-7.1-5Z"/></svg>