<svg xmlns="http://www.w3.org/2000/svg" xmlns:xlink="http://www.w3.org/1999/xlink" viewBox="0 0 1062 349"><defs><style>.cls-1{fill:#f5f5f5;}.cls-2{isolation:isolate;}.cls-3{fill:#ec5039;}.cls-3,.cls-4{opacity:0.1;}.cls-4,.cls-45{fill:#91278e;}.cls-5{clip-path:url(#clip-path);}.cls-6{fill:#65232b;}.cls-7{fill:#350004;}.cls-8{fill:#fcc287;}.cls-12,.cls-9{fill:#bbbdbf;}.cls-11,.cls-31,.cls-9{mix-blend-mode:multiply;}.cls-10,.cls-51{fill:#fff;}.cls-13,.cls-31{fill:#e6e7e8;}.cls-14{fill:#d1a273;}.cls-15{fill:#392112;}.cls-16{fill:#170000;}.cls-17{fill:#1b0200;}.cls-18{fill:#f59183;opacity:0.2;}.cls-19{fill:#d5675a;}.cls-20{fill:#001b22;}.cls-21{fill:#603813;}.cls-22,.cls-32{fill:none;}.cls-22{stroke:#faaf40;stroke-miterlimit:10;stroke-width:0.95px;}.cls-23{fill:#faaf40;}.cls-24{fill:#031e26;}.cls-25{fill:#50005b;}.cls-26{fill:#dddfe0;}.cls-27{fill:#eeefef;}.cls-28{fill:#dee0e0;}.cls-29{fill:#031825;}.cls-30{fill:#f8a274;}.cls-32{stroke:#140000;stroke-linecap:round;stroke-linejoin:round;stroke-width:18.26px;}.cls-33,.cls-48{fill:#7e298a;}.cls-34{fill:#c78160;}.cls-35{fill:#353435;}.cls-36{fill:#231f20;}.cls-37{fill:#3c1310;}.cls-38{fill:#d68d65;}.cls-39{fill:#cc8761;}.cls-40{fill:#2d0300;}.cls-41{fill:#1c0000;}.cls-42{fill:#140000;}.cls-43{fill:url(#linear-gradient);}.cls-44{fill:url(#linear-gradient-2);}.cls-46{fill:#f0a12c;}.cls-47{fill:#e85a43;}.cls-48{fill-rule:evenodd;}.cls-49{fill:#3dc6f3;}.cls-50{opacity:0.75;}.cls-50,.cls-51{mix-blend-mode:overlay;}.cls-52{fill:url(#linear-gradient-3);}.cls-53{fill:url(#linear-gradient-4);}</style><clipPath id="clip-path"><circle class="cls-1" cx="531" cy="174.5" r="166.86" transform="matrix(0.17, -0.99, 0.99, 0.17, 271.14, 669.36)"/></clipPath><linearGradient id="linear-gradient" x1="5247.15" y1="3929.26" x2="5262.88" y2="3952.69" gradientTransform="translate(-445.21 -6297.08) rotate(45)" gradientUnits="userSpaceOnUse"><stop offset="0" stop-color="#eebd46"/><stop offset="0.12" stop-color="#f8da77"/><stop offset="0.21" stop-color="#ffed96"/><stop offset="0.45" stop-color="#a16427"/><stop offset="0.67" stop-color="#eda44c"/><stop offset="1" stop-color="#eebd46"/></linearGradient><linearGradient id="linear-gradient-2" x1="476.82" y1="194.3" x2="491.64" y2="216.36" gradientUnits="userSpaceOnUse"><stop offset="0" stop-color="#eebd46"/><stop offset="0.12" stop-color="#f8da77"/><stop offset="0.21" stop-color="#ffed96"/><stop offset="0.67" stop-color="#eda44c"/><stop offset="1" stop-color="#eebd46"/></linearGradient><linearGradient id="linear-gradient-3" x1="5356.74" y1="3845.27" x2="5372.48" y2="3868.7" xlink:href="#linear-gradient"/><linearGradient id="linear-gradient-4" x1="613.7" y1="212.4" x2="628.52" y2="234.47" xlink:href="#linear-gradient-2"/></defs><g class="cls-2"><g id="Layer_1" data-name="Layer 1"><circle class="cls-3" cx="903.84" cy="279.64" r="41.3"/><circle class="cls-3" cx="886.84" cy="98.64" r="16.64"/><circle class="cls-4" cx="300.72" cy="220.15" r="18.88"/><circle class="cls-3" cx="93.32" cy="98.96" r="29.52"/><circle class="cls-1" cx="531" cy="174.5" r="166.86" transform="matrix(0.17, -0.99, 0.99, 0.17, 271.14, 669.36)"/><g class="cls-5"><rect class="cls-6" x="560.5" y="116.21" width="83.15" height="118.08"/><rect class="cls-7" x="568.18" y="116.21" width="67.78" height="118.08"/><path class="cls-6" d="M562.13,144.4s6,28.15,31.39,34.93h14.55s23.81-5.9,30.06-34.32Z"/><polygon class="cls-8" points="565.14 344.44 589.79 563.32 599.24 563.32 600.87 344.44 565.14 344.44"/><polygon class="cls-8" points="600.74 345.15 610.87 564.03 620.31 564.03 636.47 345.15 600.74 345.15"/><path class="cls-8" d="M632.44,303.35A124.22,124.22,0,0,1,626.09,288H575.64a122.66,122.66,0,0,1-6.35,15.36h.14s-9.71,19.09-3.43,44.53h69.64c6.28-25.44-3.43-44.53-3.43-44.53Z"/><path class="cls-8" d="M641.37,208.48l34.84,60.65,2.66,4.63-3.5,3.7-35.58,37.61a3.58,3.58,0,0,1-5.5-4.56l.21-.28L665,268l-.84,8.33-37.61-59a8.62,8.62,0,1,1,14.54-9.27c.07.1.13.21.19.31Z"/><path class="cls-8" d="M576,217.77l-41.22,55.76.2-7.83,30.94,50.08a3.58,3.58,0,0,1-5.85,4.1l-.2-.24-36.7-46.4a6,6,0,0,1-.29-7.11l.48-.72,38.6-57.63a8.62,8.62,0,1,1,14.32,9.6c-.06.1-.14.2-.21.3Z"/><polygon class="cls-8" points="610.61 199.95 590.8 199.95 593.93 178.63 607.74 178.63 610.61 199.95"/><path class="cls-9" d="M597.84,187.08c3.7-.53,8.74-1.09,10.6-4.21l-.7-4.24H593.93l-1.54,10.53A13.53,13.53,0,0,1,597.84,187.08Z"/><path class="cls-8" d="M635.28,204.23l-25.22-10.52H591.68l-25.23,10.52s-7.3,6.1-1.79,22l13,54.52s-1.39,8.39-8.33,22.61h63.15c-6.94-14.22-8.32-22.61-8.32-22.61l13-54.52C642.59,210.33,635.28,204.23,635.28,204.23Z"/><path class="cls-10" d="M637,226.47c-6.77-5.08-7.39-16.12-1.88-22.3l-22.51-9.57-11.84,1.33-12-1.06-21.94,9.2c5.68,6.25,5,17.58-2.07,22.59l12.85,54.08s-1.38,8.39-8.32,22.61h63.15c-6.94-14.22-8.32-22.61-8.32-22.61Z"/><path class="cls-8" d="M632.36,139.72c-.7,5.28,1.42,9.92,4.74,10.36s6.59-3.48,7.29-8.76S643,131.39,639.64,131,633.06,134.43,632.36,139.72Z"/><g class="cls-11"><path class="cls-12" d="M636.43,138.14s0-.3.14-.78a7.9,7.9,0,0,1,.66-1.91c.37-.71,1-1.53,1.81-1.59a2.88,2.88,0,0,1,.64.06s.26.09.33.13a2.5,2.5,0,0,1,.24.16,2.72,2.72,0,0,1,.87,1.13,5.46,5.46,0,0,1,.48,1.48,5.69,5.69,0,0,1,.12,1.51c-.07.53-.06,1.07-.14,1.53s-.16.92-.23,1.33-.19.79-.26,1.14-.18.63-.23.87c-.14.48-.21.77-.21.77l.4-.69c.11-.23.28-.49.42-.82s.31-.69.48-1.1.28-.88.42-1.38a12.34,12.34,0,0,0,.3-1.54,5.72,5.72,0,0,0,0-1.8,7.21,7.21,0,0,0-.54-1.77,4,4,0,0,0-1.25-1.52,2.84,2.84,0,0,0-.49-.27,3.18,3.18,0,0,0-.46-.14,3.29,3.29,0,0,0-1,0,2.52,2.52,0,0,0-1.55,1,4.22,4.22,0,0,0-.7,1.34,6.62,6.62,0,0,0-.3,2.12A4.66,4.66,0,0,0,636.43,138.14Z"/></g><path class="cls-9" d="M636.43,138.14s-.34-.55,1.82-.73c0,0,2.44.32,1.19,3a7.27,7.27,0,0,0-.61,1.77c-.16.88.31,2.07-.22,2.86a1.67,1.67,0,0,1-2.82-.67c-.14-.87.87-2.41,1.35-3A2.07,2.07,0,0,0,636.43,138.14Z"/><g class="cls-11"><path class="cls-12" d="M635.79,144.23a.72.72,0,0,0-.16.15,1.47,1.47,0,0,0-.29.49,2.11,2.11,0,0,0-.09.38,1.08,1.08,0,0,0,0,.44,3.69,3.69,0,0,0,.08.46,4.39,4.39,0,0,0,.21.44,1.8,1.8,0,0,0,.27.39,2.36,2.36,0,0,0,.34.3,1.42,1.42,0,0,0,.69.37,2.43,2.43,0,0,0,.75.13,4.79,4.79,0,0,0-.38-.63,2.12,2.12,0,0,0-.2-.24c-.06-.09-.11-.2-.18-.29a1.65,1.65,0,0,0-.19-.27,1,1,0,0,1-.16-.29,2.84,2.84,0,0,1-.3-.57,2.12,2.12,0,0,1-.11-.29c0-.1-.09-.19-.1-.28C635.85,144.55,635.79,144.23,635.79,144.23Z"/></g><path class="cls-8" d="M569.94,139.72c.71,5.28-1.42,9.92-4.74,10.36s-6.58-3.48-7.28-8.76,1.42-9.93,4.74-10.37S569.24,134.43,569.94,139.72Z"/><g class="cls-11"><path class="cls-12" d="M565.87,138.14s0-.3-.13-.78a8,8,0,0,0-.67-1.91c-.36-.71-1-1.53-1.81-1.59a2.88,2.88,0,0,0-.64.06s-.26.09-.33.13-.15.08-.24.16a2.72,2.72,0,0,0-.87,1.13,6.25,6.25,0,0,0-.48,1.48,6.14,6.14,0,0,0-.12,1.51c.07.53.06,1.07.15,1.53s.16.92.23,1.33.18.79.25,1.14.18.63.24.87c.14.48.2.77.2.77l-.4-.69c-.11-.23-.28-.49-.42-.82s-.3-.69-.47-1.1-.29-.88-.43-1.38a14.47,14.47,0,0,1-.3-1.54,6,6,0,0,1,0-1.8,6.81,6.81,0,0,1,.54-1.77,3.92,3.92,0,0,1,1.24-1.52,2.84,2.84,0,0,1,.49-.27,4.21,4.21,0,0,1,.46-.14,3.35,3.35,0,0,1,1,0,2.52,2.52,0,0,1,1.55,1,4.18,4.18,0,0,1,.69,1.34,6.68,6.68,0,0,1,.31,2.12A4,4,0,0,1,565.87,138.14Z"/></g><path class="cls-9" d="M565.87,138.14s.34-.55-1.82-.73c0,0-2.44.32-1.19,3a6.87,6.87,0,0,1,.61,1.77c.16.88-.3,2.07.23,2.86a1.66,1.66,0,0,0,2.81-.67c.15-.87-.87-2.41-1.34-3A2.08,2.08,0,0,1,565.87,138.14Z"/><g class="cls-11"><path class="cls-12" d="M566.52,144.23s.07,0,.16.15a1.67,1.67,0,0,1,.28.49,1.18,1.18,0,0,1,.09.38,1.08,1.08,0,0,1,0,.44,3.69,3.69,0,0,1-.08.46,2.93,2.93,0,0,1-.21.44,1.51,1.51,0,0,1-.27.39,2.36,2.36,0,0,1-.34.3,1.4,1.4,0,0,1-.68.37,2.47,2.47,0,0,1-.75.13,3.76,3.76,0,0,1,.38-.63,2.12,2.12,0,0,1,.2-.24,2.19,2.19,0,0,1,.17-.29,1.71,1.71,0,0,1,.2-.27,1.34,1.34,0,0,0,.15-.29,2.84,2.84,0,0,0,.3-.57,2.24,2.24,0,0,0,.12-.29c0-.1.08-.19.1-.28C566.46,144.55,566.52,144.23,566.52,144.23Z"/></g><path class="cls-8" d="M619,84.9a48.51,48.51,0,0,0-36.43,0S553.07,99.05,571.28,158c2.6,8.42,10.53,14.89,18,19.6,7.69,4.86,15.42,4.85,23.07,0,7.46-4.71,15.38-11.18,18-19.6C648.52,99.05,619,84.9,619,84.9Z"/><g class="cls-11"><path class="cls-13" d="M619,84.9a49.72,49.72,0,0,0-18.21-3.55,33.14,33.14,0,0,1,14.55,3.55s23.59,14.15,9,73.06c-2.08,8.42-8.42,14.89-14.37,19.6a14.81,14.81,0,0,1-9.21,3.64,21.31,21.31,0,0,0,11.52-3.64c7.46-4.71,15.38-11.18,18-19.6C648.52,99.05,619,84.9,619,84.9Z"/><path class="cls-13" d="M591.57,177.56c-6-4.71-12.28-11.18-14.37-19.6-14.55-58.91,9-73.06,9-73.06a33,33,0,0,1,14.52-3.55h0a49.52,49.52,0,0,0-18.17,3.55S553.07,99.05,571.28,158c2.6,8.42,10.53,14.89,18,19.6a21.43,21.43,0,0,0,11.54,3.64A14.86,14.86,0,0,1,591.57,177.56Z"/></g><path class="cls-14" d="M595.16,147.84l.61.16c.37.11.9.24,1.48.38a16.22,16.22,0,0,0,3.88.53c.34,0,.67,0,1,0s.66-.1,1-.12.65-.13,1-.18.61-.15.91-.21c.61-.11,1.1-.29,1.5-.36l.63-.12a5.2,5.2,0,0,1-.27.58,5.07,5.07,0,0,1-1,1.37,7,7,0,0,1-.84.77c-.35.22-.71.46-1.11.66a10.69,10.69,0,0,1-1.35.46,6.55,6.55,0,0,1-1.47.15,5.65,5.65,0,0,1-1.48-.17,6.6,6.6,0,0,1-1.34-.45,6.81,6.81,0,0,1-1.1-.66,5.45,5.45,0,0,1-.86-.77,5,5,0,0,1-1-1.38A2.92,2.92,0,0,1,595.16,147.84Z"/><path class="cls-15" d="M581.41,132.61a3.73,3.73,0,1,0,3.6-3.83A3.72,3.72,0,0,0,581.41,132.61Z"/><path class="cls-16" d="M583.8,132.63a1.35,1.35,0,1,0,1.31-1.39A1.36,1.36,0,0,0,583.8,132.63Z"/><path class="cls-17" d="M591.79,132.08a4.44,4.44,0,0,1-1.72-.61,15.64,15.64,0,0,1-1.53-1l0,0a6.29,6.29,0,0,0-1.83-1,3.91,3.91,0,0,0-2-.17,6.1,6.1,0,0,0-3.39,2.35v0a3.56,3.56,0,0,1-.72.73,2.59,2.59,0,0,1-.9.47,2.78,2.78,0,0,1-1.91-.08,3,3,0,0,0,1.77-.26,3.28,3.28,0,0,0,.71-.51,3.2,3.2,0,0,0,.53-.66v0a7.07,7.07,0,0,1,1.54-1.79,4.84,4.84,0,0,1,2.19-1.07,4.49,4.49,0,0,1,2.44.26,5.64,5.64,0,0,1,2,1.34l0,0c.43.41.87.8,1.33,1.17A5.62,5.62,0,0,0,591.79,132.08Z"/><path class="cls-17" d="M581.3,131.39a7.91,7.91,0,0,1-2.17.37,2,2,0,0,1-1.42-.45c-.09-.06-.12-.16-.17-.23a.44.44,0,0,1-.07-.2,1,1,0,0,1-.05-.18l.06.18a.66.66,0,0,0,.1.18.79.79,0,0,0,.17.2,1.88,1.88,0,0,0,1.37.28,7.83,7.83,0,0,0,2-.56Z"/><path class="cls-17" d="M581.86,130.77a8,8,0,0,1-2.2,0,2,2,0,0,1-1.34-.68,1.19,1.19,0,0,1-.12-.26.56.56,0,0,1,0-.21c0-.12,0-.18,0-.18l0,.18a.41.41,0,0,0,.06.2c0,.06.06.16.14.22a1.87,1.87,0,0,0,1.3.51,7.57,7.57,0,0,0,2.1-.22Z"/><path class="cls-10" d="M582.38,131.69a.93.93,0,1,0,.89-1A.93.93,0,0,0,582.38,131.69Z"/><path class="cls-10" d="M583.82,132.6a.47.47,0,1,0,.45-.48A.46.46,0,0,0,583.82,132.6Z"/><path class="cls-6" d="M575.71,125.07s4.24-6.17,15.42-2.83a17.75,17.75,0,0,1,4.21,1.87s1.53-.2,1-4.15C596.39,120,577.65,112.54,575.71,125.07Z"/><path class="cls-15" d="M620.89,132.61a3.72,3.72,0,1,1-3.6-3.83A3.72,3.72,0,0,1,620.89,132.61Z"/><path class="cls-16" d="M618.5,132.63a1.35,1.35,0,1,1-1.3-1.39A1.35,1.35,0,0,1,618.5,132.63Z"/><path class="cls-17" d="M610.51,132.08a5.47,5.47,0,0,0,1.51-.94c.46-.37.9-.76,1.33-1.17l0,0a5.64,5.64,0,0,1,2-1.34,4.49,4.49,0,0,1,2.44-.26,4.84,4.84,0,0,1,2.19,1.07,7.07,7.07,0,0,1,1.54,1.79v0a3.2,3.2,0,0,0,.53.66,2.94,2.94,0,0,0,.71.5,3,3,0,0,0,1.78.27,2.81,2.81,0,0,1-1.92.08,2.68,2.68,0,0,1-.9-.47,3.29,3.29,0,0,1-.71-.73v0a6.07,6.07,0,0,0-3.4-2.35,3.92,3.92,0,0,0-2,.17,6.29,6.29,0,0,0-1.83,1l0,0a15.64,15.64,0,0,1-1.53,1A4.44,4.44,0,0,1,610.51,132.08Z"/><path class="cls-17" d="M621.15,131a7.83,7.83,0,0,0,2,.56,1.88,1.88,0,0,0,1.37-.28c.09,0,.12-.14.17-.2a.47.47,0,0,0,.1-.18,1.52,1.52,0,0,1,.07-.18l0,.18a.64.64,0,0,1-.08.2.87.87,0,0,1-.16.23,2,2,0,0,1-1.43.45,7.91,7.91,0,0,1-2.17-.37Z"/><path class="cls-17" d="M620.53,130.34a7.46,7.46,0,0,0,2.09.22,1.87,1.87,0,0,0,1.3-.51c.08-.06.1-.16.14-.22a.6.6,0,0,0,.07-.2l0-.18a1.23,1.23,0,0,1,0,.18.41.41,0,0,1,0,.21,1.19,1.19,0,0,1-.12.26,2,2,0,0,1-1.33.68,8.05,8.05,0,0,1-2.21,0Z"/><path class="cls-10" d="M619.93,131.69a.93.93,0,1,1-.9-1A.94.94,0,0,1,619.93,131.69Z"/><path class="cls-10" d="M618.48,132.6a.46.46,0,0,1-.48.45.47.47,0,0,1-.45-.48.47.47,0,1,1,.93,0Z"/><path class="cls-6" d="M626.59,125.07s-4.24-6.17-15.41-2.83a17.57,17.57,0,0,0-4.21,1.87s-1.54-.2-1.06-4.15C605.91,120,624.65,112.54,626.59,125.07Z"/><path class="cls-18" d="M630.1,140.29c-.27-3-4.57-5.1-9.62-4.65s-8.91,3.27-8.64,6.28,4.58,5.1,9.62,4.65S630.37,143.31,630.1,140.29Z"/><path class="cls-18" d="M581.11,135.64c-5-.45-9.35,1.63-9.62,4.65s3.6,5.83,8.64,6.28,9.35-1.63,9.62-4.65S586.15,136.09,581.11,135.64Z"/><path class="cls-10" d="M638.76,148.74a2.16,2.16,0,1,1-2.15-2.15A2.15,2.15,0,0,1,638.76,148.74Z"/><path class="cls-10" d="M567.86,148.74a2.16,2.16,0,1,1-2.16-2.15A2.16,2.16,0,0,1,567.86,148.74Z"/><path class="cls-10" d="M590,159.2c2.3,4.85,6.41,8.1,11.11,8.1s8.81-3.25,11.11-8.1Z"/><path class="cls-19" d="M590,159.2s.33.34.86,1a9.14,9.14,0,0,0,1,1,15.53,15.53,0,0,0,1.29,1.21,13.44,13.44,0,0,0,1.63,1.25,15.35,15.35,0,0,0,1.91,1.1,11.65,11.65,0,0,0,2.16.72,6.22,6.22,0,0,0,1.13.2l.58,0,.28,0,.15,0h.13s.14,0-.12,0a12.06,12.06,0,0,0,2.46-.31,11.39,11.39,0,0,0,2.11-.71,15.31,15.31,0,0,0,1.91-1.09,14.53,14.53,0,0,0,1.63-1.25,17.83,17.83,0,0,0,1.31-1.22,14.18,14.18,0,0,0,1-1c.52-.6.85-1,.85-1s-.09.46-.32,1.25a6.76,6.76,0,0,1-.54,1.39,9,9,0,0,1-.94,1.72c-.21.3-.43.61-.65.94a11.48,11.48,0,0,1-.83.9,12.49,12.49,0,0,1-2.08,1.73,14.22,14.22,0,0,1-1.29.68,6,6,0,0,1-1.46.54,12.12,12.12,0,0,1-2.87.47H601l-.19,0-.39,0-.78-.08a6.87,6.87,0,0,1-1.49-.35,5.55,5.55,0,0,1-1.41-.53,13.13,13.13,0,0,1-1.29-.68,11.9,11.9,0,0,1-2.07-1.72,9.91,9.91,0,0,1-.83-.91c-.23-.32-.45-.63-.65-.93a9.26,9.26,0,0,1-1-1.74,6.37,6.37,0,0,1-.52-1.38C590.14,159.67,590,159.2,590,159.2Z"/><path class="cls-19" d="M612.26,159.2a32.94,32.94,0,0,1-3.47.57c-1,.13-2.26.23-3.56.3s-2.69.1-4.08.12a70.07,70.07,0,0,1-7.64-.42,30,30,0,0,1-3.47-.57,31.65,31.65,0,0,1,3.47-.56,67.64,67.64,0,0,1,7.64-.42c1.39,0,2.78,0,4.08.11s2.52.18,3.56.31A31.65,31.65,0,0,1,612.26,159.2Z"/><path class="cls-6" d="M566.81,140s0-9.62-5.34-8.91C556.66,91.25,575,86.66,575,86.66c-1-7.12,8.78-13.29,8.78-13.29,25.3-12,41.72.22,41.72.22,27.25,18.17,16.07,57.52,16.07,57.52-7.34-1.27-7.86,8.91-7.86,8.91C633,108,623,101.57,623,101.57c-23.37-12.95-45.51,0-45.51,0a22.67,22.67,0,0,0-4.93,16.74S567.34,121.15,566.81,140Z"/><polygon class="cls-8" points="581.13 101.5 578.03 91.96 582.51 100.94 581.13 101.5"/><path class="cls-20" d="M573.6,421.5l-8.46-77.06h.11c-4.66-23.7,4.18-41.09,4.18-41.09h-.14A122.66,122.66,0,0,0,575.64,288h50.45a124.22,124.22,0,0,0,6.35,15.36h-.23s9,17.74,4,41.8h.22l-5.4,76.35Z"/><polygon class="cls-21" points="626.71 290.42 574.93 290.42 571.88 297.84 629.76 297.84 626.71 290.42"/><rect class="cls-22" x="596.71" y="290.19" width="8.33" height="7.88"/><rect class="cls-23" x="601.8" y="293.29" width="3.6" height="1.69"/><rect class="cls-24" x="616.69" y="287.94" width="3.38" height="11.26"/><rect class="cls-24" x="581.58" y="287.94" width="3.37" height="11.26"/><path class="cls-25" d="M544.19,262l33.6-45.71c.84-4.48-2.66-11.82-7.14-12.66s-8.52,2.23-10.62,6.43L531.62,251.3Z"/><path class="cls-25" d="M654,259.27l15-9.6L642.25,211c-.84-4.48-6.7-8.56-11.17-7.72s-7.24,6.16-6.4,10.64Z"/><path class="cls-25" d="M588.19,302.84V194.6l-21.38,9c5.68,6.25,5,17.58-2.07,22.58l12.85,54.08s-1.38,8.4-8.32,22.61Z"/><path class="cls-25" d="M637,226c-6.77-5.07-7.39-16.11-1.88-22.3l-20.82-8.84v108h18.12c-6.94-14.21-8.32-22.61-8.32-22.61Z"/><polygon class="cls-26" points="600.73 195.79 591.71 188.9 581.08 196.28 591.64 209.72 600.73 195.79"/><polygon class="cls-26" points="600.69 195.79 609.7 188.9 620.34 196.28 609.77 209.72 600.69 195.79"/><path class="cls-8" d="M560.73,320.25c.07,1.66,4.48,4.45,4.48,4.45l3,3.5a.65.65,0,0,0,.91.09.57.57,0,0,0,.19-.71l-2.18-3.84a37.34,37.34,0,0,0,5.56,4.13c.65.44,1,.18,1,.18a.54.54,0,0,0,.14-.82,53,53,0,0,1-5-5.16c.57.63,5.32,4.35,5.32,4.35,1.12,1,1.73.85,1.73.85a.73.73,0,0,0,.41-1.2c-1.75-1.3-7-6-7-6l6.33,4.41c1.38,1,1.66.43,1.66.43.65-.72-.67-1.75-.67-1.75l-9.7-7.82s-1.86-.7-.47-4C566.55,311.39,559.8,313.49,560.73,320.25Z"/><path class="cls-8" d="M639.2,315.13c-.07,1.66-4.48,4.45-4.48,4.45l-3,3.5a.66.66,0,0,1-.91.09.57.57,0,0,1-.19-.71l2.18-3.84a37.7,37.7,0,0,1-5.57,4.13c-.65.44-1,.17-1,.17a.53.53,0,0,1-.15-.82,51.82,51.82,0,0,0,5-5.16c-.57.64-5.31,4.35-5.31,4.35-1.12,1-1.74.86-1.74.86a.73.73,0,0,1-.41-1.2c1.76-1.31,7-6,7-6l-6.34,4.41c-1.37,1-1.66.43-1.66.43-.64-.73.67-1.76.67-1.76l9.71-7.81s1.86-.7.46-4C633.38,306.27,640.14,308.37,639.2,315.13Z"/><path class="cls-27" d="M565.87,138.14s27.58-1.21,36.37-.73S633.69,140,633.69,140s3.22,38.58-33.91,41.14c-27.4-1.46-31.92-32.42-31.92-32.42Z"/><path class="cls-28" d="M591.79,146.59s3.17,5.46,16.65,1.25C608.44,147.84,596.74,155.75,591.79,146.59Z"/><polygon class="cls-29" points="483.51 539.52 496.08 320.11 454.85 324.86 465.9 539.52 483.51 539.52"/><polygon class="cls-30" points="449.31 174.3 470.15 174.3 470.15 158.36 449.31 149.23 449.31 174.3"/><path class="cls-31" d="M461.52,170.63c4.88-3.44,5.67-9.93,2.9-14.78l5.74,2.51V174.3H449.31v-1.06A17.37,17.37,0,0,0,461.52,170.63Z"/><path class="cls-13" d="M416.89,305.41l-5-115.35c1.34-17.75,13.72-19.37,13.72-19.37L455,167.58l10,6.69,9.25-6,24,15.78s3.64,2.82,6.35,15.22l-7.39,59,1.07,47.12Z"/><line class="cls-32" x1="513.12" y1="252.96" x2="492.31" y2="200.84"/><polygon class="cls-33" points="465.08 190.29 470.83 282.49 459.73 295.96 452.13 282.21 458.36 190.31 465.08 190.29"/><path class="cls-29" d="M498.32,305.41H414.61S403,351.79,459.54,347.7C459.54,347.7,504.94,349.13,498.32,305.41Z"/><polygon class="cls-29" points="442.46 536.25 455.03 316.84 413.8 321.59 424.85 536.25 442.46 536.25"/><polygon class="cls-33" points="457.21 171.87 465.52 171.87 470.83 181.71 465.08 190.29 464.74 190.31 458.36 190.31 452.73 181.71 457.21 171.87"/><path class="cls-25" d="M477.19,327.83l-2.92-159.54,24,15.78s3.64,2.82,6.35,15.22l-2.8,59.24-.22,69.3Z"/><polygon class="cls-10" points="474.2 168.01 470.21 163.31 461.48 171.73 477.19 186.51 474.2 168.01"/><path class="cls-25" d="M408.17,327.69,411.91,189c1.34-17.76,13.72-19.37,13.72-19.37l27-3L448.48,256l-2.9,71.88Z"/><polygon class="cls-10" points="445.75 164.4 449.31 160.27 461.31 171.73 442.95 186.51 445.75 164.4"/><path class="cls-30" d="M433.89,116.78c.39,5.94-2.33,11-6.07,11.18s-7.07-4.37-7.45-10.32,2.33-10.94,6.08-11.18S433.51,110.84,433.89,116.78Z"/><path class="cls-34" d="M428.6,114.66s0-.34-.08-.88a9.33,9.33,0,0,0-.6-2.18c-.36-.82-1-1.78-1.9-1.91a2.5,2.5,0,0,0-.72,0,3.09,3.09,0,0,0-.37.12,2,2,0,0,0-.29.15,3.1,3.1,0,0,0-1.05,1.2,6.47,6.47,0,0,0-.65,1.61,6.84,6.84,0,0,0-.25,1.68c0,.59,0,1.19.05,1.72s.11,1,.16,1.49.14.9.19,1.28.15.72.2,1c.12.54.17.87.17.87s-.15-.29-.39-.8c-.11-.26-.28-.57-.41-.94s-.29-.8-.44-1.26-.25-1-.38-1.57a15.92,15.92,0,0,1-.21-1.74,6.38,6.38,0,0,1,.18-2,7.5,7.5,0,0,1,.73-1.94A4.4,4.4,0,0,1,424,109a3.36,3.36,0,0,1,.57-.26c.21-.06.26-.06.52-.12a3.2,3.2,0,0,1,1.11.06,2.77,2.77,0,0,1,1.66,1.18,4.75,4.75,0,0,1,.67,1.54,7.63,7.63,0,0,1,.18,2.39A4.44,4.44,0,0,1,428.6,114.66Z"/><path class="cls-34" d="M428.6,114.66s.42-.6-2-1c0,0-2.74.16-1.55,3.2a8,8,0,0,1,.55,2c.11,1-.5,2.28,0,3.2.69,1.2,2.89.74,3.19-.52.23-1-.79-2.76-1.27-3.51A2.3,2.3,0,0,1,428.6,114.66Z"/><path class="cls-34" d="M428.86,121.49a1,1,0,0,1,.17.18,1.67,1.67,0,0,1,.28.57,1.43,1.43,0,0,1,.07.43,1.12,1.12,0,0,1,0,.48c0,.16-.07.34-.13.52a3,3,0,0,1-.26.46,2,2,0,0,1-.33.42,3.9,3.9,0,0,1-.4.31,1.68,1.68,0,0,1-.8.36,2.5,2.5,0,0,1-.84.09,4.76,4.76,0,0,1,.47-.67,2,2,0,0,1,.24-.26c.07-.1.13-.21.21-.31s.15-.2.24-.29a1.49,1.49,0,0,0,.2-.31,3.26,3.26,0,0,0,.38-.61c.06-.1.1-.21.15-.31s.1-.21.13-.31C428.77,121.84,428.86,121.49,428.86,121.49Z"/><path class="cls-30" d="M497,97.11s4.27,44.64-17.58,58.68c0,0-10.92,10.73-24,1.33,0,0-19.45-10.49-22.66-18.5,0,0-16.79-72.46,24-74.8C456.72,63.82,491.55,55.75,497,97.11Z"/><path class="cls-31" d="M456.72,63.82a32.42,32.42,0,0,1,6.87-.63C456.35,66,450.82,72,447.13,79.31A90.7,90.7,0,0,0,437.69,114c-.8,15.43,7.12,31.17,21,38.64,5.78,3.11,13,6,19.66,4-3.06,2.38-12.27,8.07-23,.41,0,0-19.45-10.49-22.66-18.5C432.74,138.62,416,66.16,456.72,63.82Z"/><path class="cls-35" d="M458.46,108.48a3.79,3.79,0,1,1-3.78-3.78A3.78,3.78,0,0,1,458.46,108.48Z"/><path class="cls-36" d="M456.69,108.26a1.89,1.89,0,1,1-1.89-1.89A1.88,1.88,0,0,1,456.69,108.26Z"/><path class="cls-10" d="M452.24,107a1.22,1.22,0,1,0,1.22-1.22A1.22,1.22,0,0,0,452.24,107Z"/><path class="cls-10" d="M454.19,108.51a.61.61,0,0,0,.61.61.61.61,0,0,0,.61-.61.61.61,0,0,0-.61-.61A.62.62,0,0,0,454.19,108.51Z"/><polygon class="cls-37" points="463.37 97.43 463.37 102.73 446.71 100.23 441.11 101.82 447.01 96.83 463.37 97.43"/><path class="cls-35" d="M479.22,108.48A3.79,3.79,0,1,0,483,104.7,3.78,3.78,0,0,0,479.22,108.48Z"/><path class="cls-36" d="M481,108.26a1.89,1.89,0,1,0,1.89-1.89A1.89,1.89,0,0,0,481,108.26Z"/><path class="cls-10" d="M485.44,107a1.22,1.22,0,1,1-1.21-1.22A1.22,1.22,0,0,1,485.44,107Z"/><path class="cls-10" d="M483.49,108.51a.61.61,0,0,1-1.22,0,.61.61,0,1,1,1.22,0Z"/><polygon class="cls-37" points="474.31 97.43 474.31 102.73 490.98 100.23 496.58 101.82 490.67 96.83 474.31 97.43"/><path class="cls-38" d="M471.1,103.7a93,93,0,0,0,1.08,11.44c.14.94.35,1.86.53,2.78s.4,1.83.65,2.73.51,1.79.82,2.66.66,1.72,1,2.58l-.05-.1a3.09,3.09,0,0,1,.35,1.48,3.35,3.35,0,0,1-.31,1.43,4.15,4.15,0,0,1-1.72,1.83,7.81,7.81,0,0,1-1.93.73,9.54,9.54,0,0,1-1.87.29,18.62,18.62,0,0,1-3.59-.12,21.49,21.49,0,0,1-3.45-.77c1.16-.28,2.3-.45,3.42-.67s2.21-.43,3.26-.7a9,9,0,0,0,2.7-1.1,1.44,1.44,0,0,0,.59-.63.52.52,0,0,0,0-.25s-.07-.26,0-.18l-.05-.1c-.34-1-.75-1.88-1-2.85a26.34,26.34,0,0,1-.77-2.9c-.2-1-.36-2-.5-2.94s-.21-2-.26-3-.09-2-.05-3,.07-2,.16-2.94A32.38,32.38,0,0,1,471.1,103.7Z"/><path class="cls-10" d="M476.2,137.45h-19s.34,7.24,9.51,8C466.68,145.45,475.07,145.94,476.2,137.45Z"/><path class="cls-39" d="M476,138.68a4.29,4.29,0,0,1,0,1.13,6.17,6.17,0,0,1-.26,1.28,6.51,6.51,0,0,1-.72,1.6,6.75,6.75,0,0,1-1.37,1.61,9.71,9.71,0,0,1-.92.71c-.34.22-.71.39-1.07.58a10.81,10.81,0,0,1-2.4.75,10.42,10.42,0,0,1-1.25.16l-.61.07c-.25,0-.46,0-.68,0a11.78,11.78,0,0,1-4.89-1.14,8.23,8.23,0,0,1-3.35-2.85,7.52,7.52,0,0,1-1.16-2.8,4.44,4.44,0,0,1-.1-.82l0-.29a10.58,10.58,0,0,0,.55.95,9.57,9.57,0,0,0,1.71,2.14,9.15,9.15,0,0,0,3.15,1.87,12.82,12.82,0,0,0,4.15.71h.51l.57,0a9.42,9.42,0,0,0,1.08-.1l1-.18,1-.27a9.37,9.37,0,0,0,1.72-.79A7.84,7.84,0,0,0,474,141.9a7.6,7.6,0,0,0,1-1.17,8.86,8.86,0,0,0,.61-1A8,8,0,0,0,476,138.68Z"/><path class="cls-39" d="M480,137.45s-.43.07-1.18.16-1.84.22-3.13.31c-2.59.21-6,.34-9.49.35s-6.9-.14-9.49-.35c-1.29-.09-2.37-.24-3.13-.31s-1.18-.16-1.18-.16.43-.07,1.18-.16,1.84-.21,3.13-.31c2.59-.2,6-.34,9.49-.34s6.9.14,9.49.35c1.29.09,2.37.23,3.13.3S480,137.45,480,137.45Z"/><path class="cls-39" d="M469.39,148.5s-.34,0-.85.07l-1.86.05-1.85-.05c-.51,0-.85-.07-.85-.07v-.25a4.93,4.93,0,0,1,.85-1.21,2.65,2.65,0,0,1,.86-.64,2.26,2.26,0,0,1,.49-.19,2.14,2.14,0,0,1,.5-.06,2.22,2.22,0,0,1,.51.06,3.3,3.3,0,0,1,.49.19,2,2,0,0,1,.45.28,2.05,2.05,0,0,1,.41.37,5,5,0,0,1,.85,1.2Z"/><path class="cls-37" d="M472.44,50.12s24,2.39,26.65,28.13c0,0,2.87,16.25-1.75,29.27,0,0-.33-10.41-4.22-14.72,0,0,1.65-15.56-10.34-20.9,0,0-1.35-1.11-10.34-.54Z"/><path class="cls-37" d="M468.32,43.65c-45.42-8.75-46.18,32.2-46.18,32.2-2.28,20.13.37,33.05.37,33.05a4.39,4.39,0,0,1,4.46-1c2.36,1.75,2.93,12,2.93,12l2.52-.15c-2-13.14,5.22-20.43,5.22-20.43-1.66-14,6.71-20.42,6.71-20.42,36.64,0,41.09-5.36,41.09-5.36s14.44-10,11.14-29.95C496.58,43.51,492.52,48.31,468.32,43.65Z"/><path class="cls-40" d="M493.82,63.19a10.18,10.18,0,0,1-.62,2.07,4.23,4.23,0,0,1-.43.92c-.18.31-.36.64-.59,1-.44.65-.94,1.32-1.48,2a20.32,20.32,0,0,1-3.39,3.21,10.2,10.2,0,0,1-1.87,1.13,11.39,11.39,0,0,1,.81-2,19.35,19.35,0,0,1,2.51-3.76,22.92,22.92,0,0,1,1.66-1.74c.28-.27.58-.51.86-.75s.52-.48.77-.68A10.43,10.43,0,0,1,493.82,63.19Z"/><line class="cls-32" x1="441.98" y1="238.46" x2="513.12" y2="252.96"/><path class="cls-30" d="M488.27,234s5.46-3.54,16.37-1.63A23.32,23.32,0,0,1,506,242.81c-.42,3.65-6.49,3-13.54,4.41Z"/><path class="cls-25" d="M492.75,252.31,408.15,268a13.13,13.13,0,0,1-15.08-16.31l.1-.36,18.05-66.23,25.72,7-18.05,66.23-15-16.66,85.72-8.73Z"/><path class="cls-41" d="M433.92,197.94c-.84,3.59-1.79,7.15-2.69,10.73l-2.86,10.67c-.93,3.57-2,7.1-3,10.65l-3,10.63-.9-1,15.36-2.05c5.12-.66,10.23-1.39,15.36-2l15.38-1.88c5.14-.57,10.27-1.2,15.41-1.72-5.09.89-10.2,1.67-15.3,2.51l-15.32,2.34c-5.1.8-10.22,1.48-15.33,2.23l-15.34,2.18a.8.8,0,0,1-.91-.69.77.77,0,0,1,0-.34l3.15-10.6c1.06-3.52,2.07-7.07,3.19-10.58l3.3-10.55C431.62,204.94,432.73,201.43,433.92,197.94Z"/><path class="cls-30" d="M430.21,237.68c9-7.19-4.9-17-4.9-17-1.2-1-2.36-2.1-3.54-3.14-.31-.28-.62-.56-.94-.83-1.37-1.27-2.4-.44-2.4-.44a1.73,1.73,0,0,0-.13,2.33l5.27,6.3-15.71-.47s-2.67-.13-2.65,1.42c0,0-.24,1,2.46,1.22l12.25,1.29s-11.18.22-14.66,0a1.16,1.16,0,0,0-.76,1.87s.53.88,3,.78c0,0,9.62.48,11,.3,0,0-8.14,1.23-11.43,1a.85.85,0,0,0-.68,1.14s.2.73,1.46.88c0,0,4.69.38,10.76.26L411.87,236a.9.9,0,0,0-.51,1.05,1.07,1.07,0,0,0,1.2.85l7.14-.15S428.39,239.61,430.21,237.68Z"/><polygon class="cls-42" points="443.52 227.1 431.85 225.28 426.87 239.03 446.02 236.09 443.52 227.1"/><path class="cls-27" d="M428.09,110.15s22.14,18.45,68.75,7.06c0,0,1,39-29.17,43.73-16.12-1.28-31.23-17.21-31.23-17.21s-6.37-2.11-6-16.79Z"/><path class="cls-28" d="M464,129.67s3.17,5.46,16.65,1.24C480.63,130.91,468.93,138.82,464,129.67Z"/><path class="cls-43" d="M493.66,214.66a13.62,13.62,0,1,1,0-19.26A13.62,13.62,0,0,1,493.66,214.66Z"/><path class="cls-44" d="M496.86,205A12.83,12.83,0,1,1,484,192.2,12.83,12.83,0,0,1,496.86,205Z"/><path class="cls-10" d="M493.44,205a9.42,9.42,0,1,1-9.41-9.41A9.41,9.41,0,0,1,493.44,205Z"/><path class="cls-45" d="M484,214.51a9.48,9.48,0,1,1,9.48-9.48A9.49,9.49,0,0,1,484,214.51Zm0-18.65A9.17,9.17,0,1,0,493.2,205,9.18,9.18,0,0,0,484,195.86Z"/><path class="cls-46" d="M481.05,202.44a.15.15,0,0,0,.22,0,.16.16,0,1,0-.22,0"/><path class="cls-46" d="M480.4,202.33a.24.24,0,0,0,.35,0,.25.25,0,1,0-.29-.41.26.26,0,0,0-.06.36"/><path class="cls-46" d="M479.5,202.44a.35.35,0,1,0,.57-.42.34.34,0,0,0-.49-.08.35.35,0,0,0-.08.5"/><path class="cls-46" d="M478.66,203a.41.41,0,0,0,.58.1.42.42,0,1,0-.58-.1"/><path class="cls-46" d="M478.07,203.92a.47.47,0,1,0,.76-.55.47.47,0,0,0-.65-.11.49.49,0,0,0-.11.66"/><path class="cls-33" d="M479.88,206.4a.15.15,0,0,0-.14.17.16.16,0,1,0,.31,0,.15.15,0,0,0-.17-.14"/><path class="cls-33" d="M480.25,205.88a.25.25,0,1,0,.27.23.25.25,0,0,0-.27-.23"/><path class="cls-33" d="M480.58,205.06a.35.35,0,0,0-.32.39.35.35,0,0,0,.38.32.36.36,0,0,0-.06-.71"/><path class="cls-33" d="M480.49,204.1a.42.42,0,0,0-.38.45.43.43,0,0,0,.46.38.41.41,0,0,0,.37-.45.42.42,0,0,0-.45-.38"/><path class="cls-33" d="M480,203.13a.46.46,0,0,0-.42.51.48.48,0,0,0,.51.42.48.48,0,0,0,.42-.51.46.46,0,0,0-.51-.42"/><path class="cls-47" d="M476.83,203.44a.16.16,0,0,0-.09-.21.14.14,0,0,0-.2.08.15.15,0,0,0,.08.21.17.17,0,0,0,.21-.08"/><path class="cls-47" d="M477.11,204a.26.26,0,0,0-.13-.33.27.27,0,0,0-.34.14.26.26,0,0,0,.14.33.25.25,0,0,0,.33-.14"/><path class="cls-47" d="M477.67,204.68a.36.36,0,0,0-.19-.47.36.36,0,0,0-.27.66.35.35,0,0,0,.46-.19"/><path class="cls-47" d="M478.56,205.05a.42.42,0,0,0-.77-.32.42.42,0,0,0,.23.55.41.41,0,0,0,.54-.23"/><path class="cls-47" d="M479.65,205.07a.47.47,0,0,0-.25-.61.46.46,0,0,0-.61.25.47.47,0,1,0,.86.36"/><path class="cls-48" d="M487,203.94a1.75,1.75,0,0,1,.06-.33,2.76,2.76,0,0,1,.28-.88,2.86,2.86,0,0,1-.18.78c0,.06,0,.1,0,.15l-.11.27h0m-1.2.06c0-.12,0-.3.14-.28a1.4,1.4,0,0,1-.14.28m1.12,0h0m-2.34.61a.41.41,0,0,1,.34-.29c0,.1-.23.33-.34.29m5.43.09c0-.12.33-.36.51-.41-.09.25-.47.58-.51.41m-.07,1.85a1.55,1.55,0,0,1,.26-.6c.1-.14.25-.38.35-.51a2.09,2.09,0,0,1-.4.89.63.63,0,0,1-.21.22m-7.81-2.76a1.53,1.53,0,0,0,.22.78,3.48,3.48,0,0,1,.28.59.31.31,0,0,1-.49.23c-.07,0-.07-.06-.14-.06a.58.58,0,0,0,.5.45.61.61,0,0,0,.48-.23c.59-.61-.44-1.48-.2-2a.8.8,0,0,1,.42-.37c.25-.1.41.1.41-.11s-.49-.29-.71-.21a1.19,1.19,0,0,0-.59.44.84.84,0,0,0-.12.23.88.88,0,0,0-.06.29m5.53.16c.14.2.35,0,.35-.12a.16.16,0,0,0-.17-.18c-.19,0-.31.13-.18.3m-3,.26a1.18,1.18,0,0,0-.31.37.63.63,0,0,0-.09.22c-.06.26,0,.61.32.64h.06a.81.81,0,0,0,.65-.29l.07-.07.19-.23a4.73,4.73,0,0,0,.35-.56l.09.05a1.84,1.84,0,0,1-.2.46c-.08.15-.15.35,0,.49a.31.31,0,0,0,.37.09,1,1,0,0,0,.41-.36,1.94,1.94,0,0,0,.15.63c.15.3.51.22.45.1A2.23,2.23,0,0,1,487,205a1.37,1.37,0,0,1,.25-1.09,4.16,4.16,0,0,0,.38-1.27.2.2,0,0,0-.27-.21.68.68,0,0,0-.2.07c-.52.34-.62,1.53-.63,2.08,0,0,0,.07,0,.09a2.17,2.17,0,0,1-.46.54,5.07,5.07,0,0,1,.26-.64c.16-.39-.11-.4-.33-.51.13-.22.26-.43.08-.57a.25.25,0,0,0-.19-.07c-.21,0-.29.38-.27.56s.07.12.11.18a1.76,1.76,0,0,1-.29.44l-.11.14a1.09,1.09,0,0,1-.25.23c-.17.12-.46.15-.51-.06a.65.65,0,0,1,0-.11c.38,0,.77-.18.6-.64-.07-.19-.35-.11-.48,0m5.09,2.48c0,.1.09.11.2.13s.32-.13.41-.22a1.6,1.6,0,0,0,.39-.58,1.27,1.27,0,0,0,.06-.18c.05-.17.09-.67.12-.71s.37-.31.48-.43a.38.38,0,0,0,.12-.29,2.14,2.14,0,0,0-.46.26,1.43,1.43,0,0,1-.15.11c0-.1,0-.12,0-.2,0-.33.07-.45-.18-.48a1,1,0,0,0-1,.58c-.06.12-.3.5-.41.53,0-.28.18-.77-.11-.86s-.46.14-.59.34h0l0-.22c.05-.26.05-.32-.26-.23s-.08.28-.2.44-.33.47-.48.48a1.4,1.4,0,0,1,.06-.43,2.69,2.69,0,0,0,.1-.41c0-.06-.33-.4-.5.25a1.18,1.18,0,0,0-.05.42c.06.43.51.45.8.08a.13.13,0,0,1,.06-.07,1.81,1.81,0,0,0,0,.25c0,.1.07.07.15.1s.11.09.17,0a3.35,3.35,0,0,1,.49-.82c0,.26,0,.35-.05.55a.45.45,0,0,0,.05.26.23.23,0,0,0,.21.08c.27,0,.48-.29.61-.49.36.24.75-.12.85-.38a1.45,1.45,0,0,1,0,.42c-.05.09-.26.33-.34.43a3.08,3.08,0,0,0-.33.55,1.56,1.56,0,0,0-.2.71m-5.8-1c0-.06,0-.27,0-.34l.17-1.21c0-.16,0-.32,0-.49.17,0,.27,0,.41-.16a1.59,1.59,0,0,0-.38,0,3.94,3.94,0,0,0,.06-.58c-.13-.08-.39-.12-.45,0a3.46,3.46,0,0,0-.09.53,1.58,1.58,0,0,0-.32,0c0,.13.17.15.29.15,0,.28-.07.57-.08.87l0,.25a5,5,0,0,0,0,.66c0,.18.3.38.33.28"/><path class="cls-49" d="M482,207.27a1,1,0,0,1,.06-.36,1.12,1.12,0,0,1,.18-.28.8.8,0,0,1,.28-.2.94.94,0,0,1,.34-.07.81.81,0,0,1,.41.11.69.69,0,0,1,.27.29l-.12.05a.56.56,0,0,0-.23-.25.69.69,0,0,0-.34-.09.72.72,0,0,0-.29.06.66.66,0,0,0-.23.17.82.82,0,0,0-.16.25.86.86,0,0,0,0,.32.81.81,0,0,0,0,.31,1,1,0,0,0,.16.26,1.08,1.08,0,0,0,.24.18.67.67,0,0,0,.28.06.69.69,0,0,0,.2,0,.53.53,0,0,0,.17-.08.5.5,0,0,0,.14-.1.34.34,0,0,0,.08-.14l.12,0a.54.54,0,0,1-.1.16.7.7,0,0,1-.16.14,1.33,1.33,0,0,1-.21.09.85.85,0,0,1-.23,0,.88.88,0,0,1-.33-.07,1,1,0,0,1-.28-.2.83.83,0,0,1-.18-.3A.84.84,0,0,1,482,207.27Z"/><path class="cls-49" d="M482.9,208.23a.85.85,0,0,1-.35-.08,1,1,0,0,1-.29-.21,1,1,0,0,1-.19-.3,1.16,1.16,0,0,1-.07-.37.9.9,0,0,1,.07-.37.89.89,0,0,1,.18-.3,1.15,1.15,0,0,1,.29-.2.86.86,0,0,1,.36-.07.79.79,0,0,1,.43.11.7.7,0,0,1,.28.31l0,0-.19.06v0a.58.58,0,0,0-.22-.22.62.62,0,0,0-.32-.09.6.6,0,0,0-.27.06.73.73,0,0,0-.23.16.72.72,0,0,0-.14.24.73.73,0,0,0-.06.3.8.8,0,0,0,.06.3,1,1,0,0,0,.15.24.87.87,0,0,0,.22.17.59.59,0,0,0,.45,0,.51.51,0,0,0,.17-.07.5.5,0,0,0,.14-.1.37.37,0,0,0,.07-.12v0l.19.06v0a.87.87,0,0,1-.11.18l-.17.14a.85.85,0,0,1-.22.09A.93.93,0,0,1,482.9,208.23Zm0-1.83a.88.88,0,0,0-.33.07.68.68,0,0,0-.26.18.88.88,0,0,0-.17.28.93.93,0,0,0-.06.34,1,1,0,0,0,.06.34,1.12,1.12,0,0,0,.18.28.83.83,0,0,0,.26.19.77.77,0,0,0,.54,0l.2-.08a.93.93,0,0,0,.15-.13l.08-.12h0a.38.38,0,0,1-.08.11l-.15.12-.18.08a.69.69,0,0,1-.51,0,.83.83,0,0,1-.41-.46.87.87,0,0,1-.06-.32.88.88,0,0,1,.06-.33.63.63,0,0,1,.16-.26.64.64,0,0,1,.25-.18.73.73,0,0,1,.3-.07.75.75,0,0,1,.36.1.63.63,0,0,1,.23.23l0,0a.51.51,0,0,0-.23-.23A.77.77,0,0,0,482.9,206.4Z"/><path class="cls-49" d="M484.43,208.19a.79.79,0,0,1-.23,0A.76.76,0,0,1,484,208a.52.52,0,0,1-.12-.17.78.78,0,0,1,0-.21.46.46,0,0,1,0-.21.75.75,0,0,1,.15-.16.64.64,0,0,1,.24-.1.85.85,0,0,1,.29,0l.3,0,.27.07V207a.6.6,0,0,0-.15-.42.56.56,0,0,0-.4-.16.74.74,0,0,0-.28.06,1.4,1.4,0,0,0-.29.16l-.06-.08a1.13,1.13,0,0,1,.63-.24.66.66,0,0,1,.49.19.68.68,0,0,1,.18.5V208c0,.05,0,.08.06.08v.1h0a.13.13,0,0,1-.09,0,.15.15,0,0,1,0-.11v-.15a.87.87,0,0,1-.32.24A1,1,0,0,1,484.43,208.19Zm0-.1a1.07,1.07,0,0,0,.25,0l.23-.1a.76.76,0,0,0,.17-.13.29.29,0,0,0,.06-.17v-.33a1.5,1.5,0,0,0-.56-.1,1.09,1.09,0,0,0-.26,0l-.19.08a.4.4,0,0,0-.13.13.34.34,0,0,0-.05.17.34.34,0,0,0,0,.18.45.45,0,0,0,.1.14.56.56,0,0,0,.15.1A.58.58,0,0,0,484.44,208.09Z"/><path class="cls-49" d="M484.43,208.23a.7.7,0,0,1-.25,0,.76.76,0,0,1-.19-.12.46.46,0,0,1-.13-.18.64.64,0,0,1-.05-.23.44.44,0,0,1,.06-.23.64.64,0,0,1,.16-.17.66.66,0,0,1,.24-.11,1.55,1.55,0,0,1,.61,0l.23.06V207a.51.51,0,0,0-.14-.39.47.47,0,0,0-.37-.15.62.62,0,0,0-.26.06,1,1,0,0,0-.29.15l0,0-.1-.16,0,0a1.22,1.22,0,0,1,.65-.23.69.69,0,0,1,.52.19.76.76,0,0,1,.18.53V208s0,0,0,0h0v.17h-.08a.14.14,0,0,1-.12-.06.19.19,0,0,1-.05-.13v0a1,1,0,0,1-.26.18A1,1,0,0,1,484.43,208.23Zm.15-1a1.2,1.2,0,0,0-.28,0,.9.9,0,0,0-.22.1.4.4,0,0,0-.14.15.32.32,0,0,0-.05.19.41.41,0,0,0,0,.19.46.46,0,0,0,.11.16.62.62,0,0,0,.17.11.54.54,0,0,0,.22,0,1.1,1.1,0,0,0,.4-.08.94.94,0,0,0,.23-.16l-.12.09a.85.85,0,0,1-.24.09.66.66,0,0,1-.46,0,.48.48,0,0,1-.17-.1.64.64,0,0,1-.11-.16.53.53,0,0,1,0-.19.41.41,0,0,1,.05-.19.62.62,0,0,1,.14-.14.63.63,0,0,1,.22-.09,1,1,0,0,1,.26,0,1.56,1.56,0,0,1,.57.1h0v.36a.28.28,0,0,1,0,.15l.05-.07V208a.11.11,0,0,0,0,.08.06.06,0,0,0,.06,0v0a.11.11,0,0,1-.06-.11v-.92a.69.69,0,0,0-.17-.48.62.62,0,0,0-.46-.17,1,1,0,0,0-.57.21v0a1.22,1.22,0,0,1,.27-.15.75.75,0,0,1,.29-.06.6.6,0,0,1,.43.17.64.64,0,0,1,.16.45v.25l-.05,0a1.07,1.07,0,0,0-.27-.07A1.42,1.42,0,0,0,484.58,207.18Zm0,.08a1,1,0,0,0-.25,0,.75.75,0,0,0-.18.08.46.46,0,0,0-.12.12.28.28,0,0,0,0,.15.41.41,0,0,0,0,.16.45.45,0,0,0,.1.13.34.34,0,0,0,.14.09.64.64,0,0,0,.41,0,.73.73,0,0,0,.22-.09.7.7,0,0,0,.16-.13.19.19,0,0,0,.05-.14v-.31A1.5,1.5,0,0,0,484.59,207.26Z"/><path class="cls-49" d="M486.38,206.5a.76.76,0,0,0-.42.15.73.73,0,0,0-.25.4v1.1h-.12v-1.76h.11v.45a1,1,0,0,1,.25-.31.59.59,0,0,1,.32-.13h.11Z"/><path class="cls-49" d="M485.75,208.19h-.2v-1.84h.19v.35a.86.86,0,0,1,.18-.2.7.7,0,0,1,.35-.14h.15v.19h0a.63.63,0,0,0-.4.14.71.71,0,0,0-.23.37Zm-.12-.07h0V207a.88.88,0,0,1,.26-.41.86.86,0,0,1,.41-.16v0h-.06a.76.76,0,0,0-.31.13,1,1,0,0,0-.23.3l-.07.15v-.58h0Z"/><path class="cls-49" d="M487.14,208.19a.88.88,0,0,1-.33-.07,1,1,0,0,1-.28-.2.92.92,0,0,1-.18-.3.86.86,0,0,1-.07-.36.93.93,0,0,1,.25-.63.7.7,0,0,1,.26-.19.76.76,0,0,1,.68,0,.83.83,0,0,1,.27.19,1,1,0,0,1,.18.29,1,1,0,0,1,.06.35v0H486.4a1.09,1.09,0,0,0,.08.31.78.78,0,0,0,.16.24.73.73,0,0,0,.23.16.67.67,0,0,0,.28.06.57.57,0,0,0,.18,0,.48.48,0,0,0,.18-.07l.14-.11a.49.49,0,0,0,.1-.15l.11,0a1,1,0,0,1-.11.17.58.58,0,0,1-.17.14,1,1,0,0,1-.21.09A.85.85,0,0,1,487.14,208.19Zm.73-1a.83.83,0,0,0-.23-.55.75.75,0,0,0-.79-.16.89.89,0,0,0-.22.16.78.78,0,0,0-.16.24,1.08,1.08,0,0,0-.07.31Z"/><path class="cls-49" d="M487.14,208.23a.85.85,0,0,1-.35-.08,1,1,0,0,1-.29-.21,1.08,1.08,0,0,1-.19-.31,1.11,1.11,0,0,1-.07-.37,1,1,0,0,1,.07-.36,1.17,1.17,0,0,1,.19-.3,1,1,0,0,1,.28-.2.81.81,0,0,1,.35-.07.84.84,0,0,1,.35.07.86.86,0,0,1,.29.21.75.75,0,0,1,.18.3.86.86,0,0,1,.07.36v0a.07.07,0,0,1,0,0h-1.57a1.82,1.82,0,0,0,.07.25.63.63,0,0,0,.16.23.69.69,0,0,0,.22.16.64.64,0,0,0,.43,0l.17-.07a.47.47,0,0,0,.13-.11.64.64,0,0,0,.1-.13v0l.18.05,0,0a.58.58,0,0,1-.11.18.86.86,0,0,1-.18.14.85.85,0,0,1-.22.09A1,1,0,0,1,487.14,208.23Zm0-1.83a.83.83,0,0,0-.32.07,1,1,0,0,0-.26.19.73.73,0,0,0-.17.27.88.88,0,0,0-.06.33.84.84,0,0,0,.07.35,1,1,0,0,0,.17.28,1,1,0,0,0,.26.19.77.77,0,0,0,.54,0,.72.72,0,0,0,.2-.09.61.61,0,0,0,.16-.12l.08-.12h0a.34.34,0,0,1-.09.12.44.44,0,0,1-.15.12.74.74,0,0,1-.68,0,1,1,0,0,1-.24-.17,1,1,0,0,1-.17-.26,1,1,0,0,1-.08-.31v0H488v0a.75.75,0,0,0-.07-.33.88.88,0,0,0-.17-.28.83.83,0,0,0-.26-.19A.88.88,0,0,0,487.13,206.4Zm.78.86h-1.55v0a1,1,0,0,1,.08-.31.72.72,0,0,1,.16-.25.81.81,0,0,1,.24-.17.73.73,0,0,1,.58,0,.67.67,0,0,1,.24.16,1,1,0,0,1,.25.57Zm-1.47-.07h1.39a.66.66,0,0,0-.07-.25.76.76,0,0,0-.15-.23.54.54,0,0,0-.22-.15.67.67,0,0,0-.52,0,.8.8,0,0,0-.21.15.51.51,0,0,0-.15.23A.72.72,0,0,0,486.44,207.19Z"/><path class="cls-49" d="M488.7,208.19a1,1,0,0,1-.38-.07.78.78,0,0,1-.31-.21l.07-.08a1.08,1.08,0,0,0,.29.2.88.88,0,0,0,.33.06.76.76,0,0,0,.4-.1.34.34,0,0,0,.15-.3.24.24,0,0,0,0-.15.27.27,0,0,0-.11-.1.75.75,0,0,0-.18-.07l-.26-.07a1.26,1.26,0,0,1-.25-.07.75.75,0,0,1-.18-.07.26.26,0,0,1-.1-.11.34.34,0,0,1,0-.18.48.48,0,0,1,.05-.22.44.44,0,0,1,.14-.16.72.72,0,0,1,.2-.09,1,1,0,0,1,.24,0,.81.81,0,0,1,.37.08.47.47,0,0,1,.23.18l-.08,0a.45.45,0,0,0-.22-.15.81.81,0,0,0-.31-.06.58.58,0,0,0-.19,0,.36.36,0,0,0-.17.07.29.29,0,0,0-.1.12.35.35,0,0,0-.05.18.25.25,0,0,0,0,.13.2.2,0,0,0,.09.09.34.34,0,0,0,.15.06l.22.06.28.07.22.09a.4.4,0,0,1,.13.13.36.36,0,0,1,.05.19.46.46,0,0,1-.05.21.65.65,0,0,1-.13.16.68.68,0,0,1-.21.1A.86.86,0,0,1,488.7,208.19Z"/><path class="cls-49" d="M488.7,208.23a1.23,1.23,0,0,1-.39-.07,1,1,0,0,1-.33-.22l0,0,.11-.13,0,0a.93.93,0,0,0,.28.19.83.83,0,0,0,.32.06.63.63,0,0,0,.38-.1.29.29,0,0,0,.13-.26.28.28,0,0,0,0-.13.3.3,0,0,0-.1-.09l-.18-.07-.24-.06-.26-.07a.68.68,0,0,1-.19-.08.3.3,0,0,1-.12-.13.49.49,0,0,1,0-.19.48.48,0,0,1,.06-.24.5.5,0,0,1,.15-.17.51.51,0,0,1,.21-.1,1.07,1.07,0,0,1,.25,0,.94.94,0,0,1,.39.07.6.6,0,0,1,.24.19l0,0-.14.1,0,0a.5.5,0,0,0-.2-.15.94.94,0,0,0-.3-.05l-.18,0a.52.52,0,0,0-.15.07.27.27,0,0,0-.1.11.38.38,0,0,0,0,.16.27.27,0,0,0,0,.12.15.15,0,0,0,.07.07l.14.06.22,0,.29.08a.73.73,0,0,1,.22.09.38.38,0,0,1,.14.14.33.33,0,0,1,.06.21.46.46,0,0,1-.06.23.55.55,0,0,1-.14.17.57.57,0,0,1-.22.11A1.35,1.35,0,0,1,488.7,208.23Zm-.64-.32a.68.68,0,0,0,.28.17.86.86,0,0,0,.36.07,1.12,1.12,0,0,0,.27,0,.85.85,0,0,0,.19-.1.47.47,0,0,0,.13-.15.58.58,0,0,0,0-.19.29.29,0,0,0,0-.17.25.25,0,0,0-.12-.11.67.67,0,0,0-.21-.09l-.28-.07-.22-.06-.16-.06a.26.26,0,0,1-.1-.11.33.33,0,0,1,0-.15.42.42,0,0,1,0-.2.53.53,0,0,1,.12-.14.48.48,0,0,1,.18-.07.64.64,0,0,1,.2,0,.83.83,0,0,1,.32.06.69.69,0,0,1,.22.14h0a.41.41,0,0,0-.19-.14.87.87,0,0,0-.35-.07.85.85,0,0,0-.23,0,.66.66,0,0,0-.19.09.53.53,0,0,0-.12.14.46.46,0,0,0-.05.21.35.35,0,0,0,0,.16.28.28,0,0,0,.09.1l.17.07.25.06.26.07.19.08a.47.47,0,0,1,.13.11.31.31,0,0,1,0,.17.39.39,0,0,1-.17.33.77.77,0,0,1-.42.11.81.81,0,0,1-.35-.07,1.34,1.34,0,0,1-.27-.17Z"/><g class="cls-50"><path class="cls-10" d="M475.09,212.63a.91.91,0,0,1,.38-.69,1,1,0,0,1,.71-.19,1,1,0,0,1,.68.45,2.09,2.09,0,0,1,.21.3c0,.08.07.15.11.22s0,0,0,0,0,0-.11.08l-.21.16s-.05,0-.07,0,0,0,0,0a.34.34,0,0,0,.12-.22.73.73,0,0,0-.19-.49.65.65,0,0,0-.41-.27.82.82,0,0,0-.64.22.83.83,0,0,0-.21,1.15c.14.17.24.26.39.27l.18,0s0,0,.06,0,0,0,0,0a1.78,1.78,0,0,1-.29.16.08.08,0,0,1-.1,0,1.29,1.29,0,0,1-.31-.31A1.2,1.2,0,0,1,475.09,212.63Z"/><path class="cls-10" d="M478.68,214.94h0l0-.05c.22-.3.26-.35.3-.42s.06-.12,0-.18l-.07-.06s0,0,0,0,0,0,.05,0l.28.21.26.18s0,0,0,0,0,0-.05,0l-.06,0c-.06,0-.1,0-.16.06s-.09.11-.31.42l-.25.35a4,4,0,0,0-.3.43c0,.06-.06.11,0,.16a.38.38,0,0,0,.09.09s0,0,0,0,0,0-.05,0l-.31-.24-.25-.17s0,0,0,0,0,0,.05,0l.07,0c.05,0,.09,0,.14-.07s.18-.23.32-.41l.12-.18s0,0,0,0l-.76-.55h0l-.13.18-.3.43c0,.06-.05.11,0,.16l.1.09s0,0,0,0,0,0-.06,0l-.3-.24-.26-.17a.05.05,0,0,1,0,0s0,0,.05,0l.08,0s.08,0,.13-.07a2.74,2.74,0,0,0,.32-.42l.26-.35c.22-.3.26-.35.3-.42s.05-.12,0-.18l-.08-.06s0,0,0,0,0,0,.06,0l.28.21.26.18s0,0,0,0,0,0,0,0l-.06,0c-.06,0-.1,0-.15.06a4.24,4.24,0,0,0-.31.41l0,.05s0,0,0,0Z"/><path class="cls-10" d="M480.4,216.36s0,0,0,0l-.25.27-.09.12c0,.05,0,.08.07.11h0s0,0,0,0,0,0-.05,0l-.24-.09-.27-.1s0,0,0,0h0l.07,0c.11,0,.19,0,.28-.14l1.11-1.21c.05-.06.07-.08.1-.07s0,0,0,.09,0,1.21.05,1.62c0,.24.06.3.1.33l.1,0s0,0,0,0,0,0-.11,0l-.44-.16s-.07,0-.06-.05h0s0,0,0,0v-.55s0,0,0,0Zm.52.06h0v-.65s0,0,0,0h0l-.42.49s0,0,0,0Z"/><path class="cls-10" d="M483.18,215.91s0-.06,0-.06,0,0,.07.08l.56,1.42.78-1.34s0,0,.05,0,0,0,0,.08l.11,1.52c0,.16,0,.23.1.26l.16,0s0,0,0,0,0,0-.06,0l-.5-.05c-.06,0-.07,0-.07,0s0,0,0,0,0,0,0-.11l-.07-1.08h0l-.62,1.06c-.06.11-.08.13-.1.13s0,0-.08-.13-.21-.51-.23-.58-.15-.35-.22-.54h0l-.2.95c0,.05,0,.08,0,.12a.08.08,0,0,0,.07.08.22.22,0,0,0,.1,0s0,0,0,0,0,0-.06,0l-.26,0h-.24s-.05,0,0,0,0,0,0,0h.07c.07,0,.1-.1.11-.19Z"/><path class="cls-10" d="M486.48,216.56c-.07-.37-.09-.44-.11-.52s0-.11-.13-.11h-.1s0,0,0,0,0,0,0,0l.35-.06.35-.08a.61.61,0,0,1,.47.05.4.4,0,0,1,.18.27.58.58,0,0,1-.48.7h0s0,0,0,0,0,0,.06,0a.39.39,0,0,0,.25-.46.52.52,0,0,0-.22-.34.37.37,0,0,0-.26,0l-.09,0a.06.06,0,0,0,0,.06l.19,1c0,.22.08.42.11.52s0,.11.12.11l.13,0s0,0,0,0l0,0-.38.07-.3.06s-.05,0-.05,0,0,0,0,0l.09,0s0-.07,0-.14a4.38,4.38,0,0,0-.09-.52Z"/><path class="cls-10" d="M488.87,215.88a4.58,4.58,0,0,0-.21-.48c0-.07-.07-.1-.13-.09l-.08,0h-.05s0,0,.05-.05l.3-.11L489,215s.05,0,.05,0,0,0,0,0l-.07,0c-.05,0-.05.09,0,.17l.21.48.16.4c.1.22.17.4.22.49s.07.09.14.08l.12,0s0,0,.05,0,0,0,0,0l-.35.14-.29.13h-.05s0,0,0,0l.07,0s0-.07,0-.14a4.56,4.56,0,0,0-.2-.5Z"/><path class="cls-10" d="M490.55,215.33a1,1,0,0,1,.24-1.38.89.89,0,0,1,1.35.15,1,1,0,0,1-.22,1.42A.93.93,0,0,1,490.55,215.33Zm1.37-1a.8.8,0,0,0-1.12-.29c-.22.17-.39.49,0,1a.81.81,0,0,0,1.16.28C492.07,215.25,492.34,215,491.92,214.37Z"/><path class="cls-10" d="M493.74,213.33c.16.12.23.13.27.1a.38.38,0,0,0,.09-.09s0,0,0,0,0,0,0,.05l-.19.24a2.36,2.36,0,0,1-.16.22s0,0,0,0,0,0,0,0l.06-.1c0-.06,0-.11-.2-.24l-1.14-.9s-.07-.06,0-.07,0,0,.11,0l1.09-.14.78-.09h0l-.89-.65c-.12-.09-.18-.1-.23-.06a.26.26,0,0,0-.09.09s0,0,0,0,0,0,0-.07.15-.19.18-.23l.14-.2s0,0,.06,0,0,0,0,0l0,.06c0,.07,0,.12.11.2l1.22,1s.06.06,0,.08-.05,0-.09,0l-1,.14-.84.1h0Z"/></g><path class="cls-36" d="M474.37,211.91a.91.91,0,0,1,.38-.69,1,1,0,0,1,.71-.19,1,1,0,0,1,.68.45,2.09,2.09,0,0,1,.21.3l.11.22s0,0,0,0,0,0-.11.08l-.21.16s-.05,0-.07,0,0,0,0,0a.34.34,0,0,0,.12-.22.73.73,0,0,0-.19-.49.65.65,0,0,0-.41-.27.82.82,0,0,0-.64.22.83.83,0,0,0-.21,1.15c.14.17.24.26.39.27l.18,0s0,0,.06,0,0,0,0,0a1.78,1.78,0,0,1-.29.16.08.08,0,0,1-.1,0,1.29,1.29,0,0,1-.31-.31A1.2,1.2,0,0,1,474.37,211.91Z"/><path class="cls-36" d="M478,214.22h0l0-.05c.22-.3.26-.35.3-.42s.06-.12,0-.18l-.07-.06s0,0,0,0,0,0,0,0l.28.21.26.18s0,0,0,0,0,0,0,0l-.06,0c-.06,0-.1,0-.16.06s-.09.11-.31.42l-.25.35a4,4,0,0,0-.3.43c0,.06-.06.11,0,.16a.38.38,0,0,0,.09.09s0,0,0,0,0,0-.05,0l-.31-.24-.25-.17s0,0,0,0,0,0,.05,0l.07,0c.05,0,.09,0,.14-.07s.18-.23.32-.41l.12-.18s0,0,0,0l-.76-.55h0L477,214l-.3.43c0,.06-.05.11,0,.16l.1.09s0,0,0,0,0,0-.06,0l-.3-.24-.26-.17a.05.05,0,0,1,0,0s0,0,.05,0l.08,0s.08,0,.13-.07a2.74,2.74,0,0,0,.32-.42l.26-.35c.22-.3.26-.35.3-.42s.05-.12,0-.18l-.08-.06s0,0,0,0,0,0,.06,0l.28.21.26.18s0,0,0,0,0,0-.05,0l-.06,0c-.06,0-.1,0-.15.06a4.24,4.24,0,0,0-.31.41l0,.05s0,0,0,0Z"/><path class="cls-36" d="M479.68,215.64s0,0,0,0l-.25.27-.09.12c0,.05,0,.08.07.11h0s0,0,0,0,0,0-.05,0-.16-.07-.24-.09l-.27-.1s0,0,0,0h0l.07,0c.11,0,.19,0,.28-.14l1.11-1.21c0-.06.07-.08.1-.07s0,0,0,.09,0,1.21,0,1.62c0,.24.06.3.1.33l.1,0s0,0,0,0,0,0-.11,0l-.44-.16s-.07,0-.06-.05h0s0,0,0,0v-.55s0,0,0,0Zm.52.06h0V215s0,0,0,0h0l-.42.49s0,0,0,0Z"/><path class="cls-36" d="M482.46,215.19s0-.06,0-.06,0,0,.07.08l.56,1.42.78-1.34s0,0,0,0,0,0,0,.08l.11,1.52c0,.16,0,.23.1.26l.16,0s0,0,0,0,0,0-.06,0l-.5-.05c-.06,0-.07,0-.07,0s0,0,0,0,0,0,0-.11l-.07-1.08h0l-.62,1.06c-.06.11-.08.13-.1.13s0,0-.08-.13-.21-.51-.23-.58-.15-.35-.22-.54h0l-.2.95c0,.05,0,.08,0,.12a.08.08,0,0,0,.07.08.22.22,0,0,0,.1,0l0,0s0,0-.06,0l-.26,0h-.24s-.05,0,0,0,0,0,0,0H482c.07,0,.1-.1.11-.19Z"/><path class="cls-36" d="M485.76,215.84c-.07-.37-.09-.44-.11-.52s0-.11-.13-.11h-.1s0,0,0,0,0,0,.05,0l.35-.06.35-.08a.61.61,0,0,1,.47.05.4.4,0,0,1,.18.27.58.58,0,0,1-.48.7h-.05s0,0,0,0,0,0,.06,0a.39.39,0,0,0,.25-.46.52.52,0,0,0-.22-.34.37.37,0,0,0-.26,0l-.09,0a.06.06,0,0,0,0,.06l.19,1c0,.22.08.42.11.52s.05.11.12.11l.13,0s0,0,0,0l0,0-.38.07-.3.06s-.05,0-.05,0,0,0,0,0l.09,0s0-.07,0-.14a4.38,4.38,0,0,0-.09-.52Z"/><path class="cls-36" d="M488.15,215.16a4.58,4.58,0,0,0-.21-.48c0-.07-.07-.1-.13-.09l-.08,0h-.05s0,0,.05-.05l.3-.11.27-.13s.05,0,.05,0,0,0,0,0l-.07,0c-.05,0-.05.09,0,.17l.21.48.16.4c.1.22.17.4.22.49s.07.09.14.08l.12,0s0,0,.05,0,0,0,0,0l-.35.14-.29.13h-.05s0,0,0,0l.07,0s0-.07,0-.14a4.56,4.56,0,0,0-.2-.5Z"/><path class="cls-36" d="M489.83,214.61a1,1,0,0,1,.24-1.38.89.89,0,0,1,1.35.15,1,1,0,0,1-.22,1.42A.93.93,0,0,1,489.83,214.61Zm1.37-1a.8.8,0,0,0-1.12-.29c-.22.17-.39.49,0,1a.81.81,0,0,0,1.16.28C491.35,214.53,491.62,214.23,491.2,213.65Z"/><path class="cls-36" d="M493,212.61c.16.12.23.13.27.1a.38.38,0,0,0,.09-.09s0,0,0,0,0,0,0,.05l-.19.24-.16.22s0,0-.05,0,0,0,0,0l.06-.1c0-.06,0-.11-.2-.24l-1.14-.9s-.07-.06-.05-.07.05,0,.11,0l1.09-.14.78-.09h0l-.89-.65c-.12-.09-.18-.1-.23-.06a.26.26,0,0,0-.09.09s0,0,0,0,0,0,0-.07.15-.19.18-.23l.14-.2s0,0,.06,0,0,0,0,.05l0,.06c0,.07,0,.12.11.2l1.22,1s.06.06,0,.08-.05,0-.09,0l-1,.14-.84.1h0Z"/><polygon class="cls-51" points="483.37 194.79 483.53 194.06 482.97 193.57 483.71 193.5 484 192.81 484.31 193.49 485.05 193.56 484.49 194.06 484.66 194.78 484.01 194.41 483.37 194.79"/><polygon class="cls-51" points="480.76 195.09 480.88 194.66 480.56 194.35 481 194.34 481.2 193.94 481.35 194.35 481.79 194.42 481.44 194.69 481.51 195.13 481.15 194.88 480.76 195.09"/><polygon class="cls-51" points="486.17 194.81 486.48 194.5 486.35 194.08 486.74 194.28 487.11 194.03 487.04 194.47 487.38 194.73 486.95 194.8 486.8 195.22 486.6 194.82 486.17 194.81"/><polygon class="cls-51" points="473.67 206.12 473.03 205.74 472.38 206.12 472.55 205.4 471.99 204.9 472.73 204.83 473.03 204.14 473.32 204.83 474.07 204.9 473.51 205.4 473.67 206.12"/><polygon class="cls-51" points="495.67 206.12 495.03 205.74 494.38 206.12 494.55 205.4 493.99 204.9 494.73 204.83 495.03 204.14 495.32 204.83 496.07 204.9 495.51 205.4 495.67 206.12"/><polygon class="cls-51" points="473.9 208.49 473.47 208.37 473.17 208.68 473.15 208.24 472.75 208.05 473.17 207.89 473.23 207.46 473.5 207.8 473.93 207.73 473.69 208.1 473.9 208.49"/><polygon class="cls-51" points="495.14 202.78 494.72 202.66 494.41 202.98 494.39 202.54 494 202.34 494.41 202.19 494.47 201.75 494.75 202.1 495.18 202.03 494.94 202.39 495.14 202.78"/><polygon class="cls-51" points="473.62 203.08 473.31 202.77 472.89 202.89 473.09 202.5 472.84 202.14 473.28 202.21 473.54 201.86 473.61 202.29 474.03 202.44 473.63 202.64 473.62 203.08"/><polygon class="cls-51" points="494.92 208.57 494.61 208.26 494.19 208.38 494.39 207.99 494.15 207.63 494.58 207.7 494.85 207.35 494.92 207.78 495.33 207.93 494.94 208.13 494.92 208.57"/><path class="cls-52" d="M630.54,232.77a13.62,13.62,0,1,1,0-19.26A13.62,13.62,0,0,1,630.54,232.77Z"/><path class="cls-53" d="M633.74,223.14a12.83,12.83,0,1,1-12.83-12.83A12.83,12.83,0,0,1,633.74,223.14Z"/><path class="cls-10" d="M630.33,223.14a9.42,9.42,0,1,1-9.42-9.41A9.41,9.41,0,0,1,630.33,223.14Z"/><path class="cls-45" d="M620.91,232.62a9.48,9.48,0,1,1,9.48-9.48A9.49,9.49,0,0,1,620.91,232.62Zm0-18.65a9.17,9.17,0,1,0,9.17,9.17A9.18,9.18,0,0,0,620.91,214Z"/><path class="cls-46" d="M617.93,220.55a.17.17,0,0,0,.23,0,.15.15,0,0,0,0-.22.16.16,0,1,0-.26.18"/><path class="cls-46" d="M617.28,220.43a.25.25,0,0,0,.35.06.25.25,0,1,0-.35-.06"/><path class="cls-46" d="M616.38,220.54a.36.36,0,1,0,.58-.41.36.36,0,1,0-.58.41"/><path class="cls-46" d="M615.55,221.1a.42.42,0,0,0,.58.1.42.42,0,0,0,.1-.58.42.42,0,0,0-.59-.1.41.41,0,0,0-.09.58"/><path class="cls-46" d="M615,222a.47.47,0,1,0,.11-.65.47.47,0,0,0-.11.65"/><path class="cls-33" d="M616.77,224.5a.17.17,0,0,0-.15.18.17.17,0,0,0,.18.14.16.16,0,0,0,.14-.17.16.16,0,0,0-.17-.15"/><path class="cls-33" d="M617.13,224a.25.25,0,0,0-.23.27.26.26,0,0,0,.28.23.24.24,0,0,0,.22-.28.23.23,0,0,0-.27-.22"/><path class="cls-33" d="M617.46,223.17a.36.36,0,1,0,.07.71.36.36,0,0,0-.07-.71"/><path class="cls-33" d="M617.37,222.21a.41.41,0,0,0-.37.45.42.42,0,1,0,.83-.08.42.42,0,0,0-.46-.37"/><path class="cls-33" d="M616.87,221.23a.47.47,0,0,0-.41.51.46.46,0,1,0,.92-.09.47.47,0,0,0-.51-.42"/><path class="cls-47" d="M613.71,221.54a.16.16,0,0,0-.08-.21.16.16,0,0,0-.12.3.16.16,0,0,0,.2-.09"/><path class="cls-47" d="M614,222.11a.25.25,0,0,0-.14-.33.25.25,0,1,0,.14.33"/><path class="cls-47" d="M614.56,222.79a.36.36,0,0,0-.19-.47.36.36,0,0,0-.47.19.36.36,0,0,0,.66.28"/><path class="cls-47" d="M615.44,223.16a.41.41,0,1,0-.54.23.42.42,0,0,0,.54-.23"/><path class="cls-47" d="M616.53,223.17a.47.47,0,0,0-.25-.61.46.46,0,0,0-.6.25.47.47,0,0,0,.25.62.46.46,0,0,0,.6-.26"/><path class="cls-48" d="M623.93,222.05a1.86,1.86,0,0,1,.05-.34,2.78,2.78,0,0,1,.29-.87,3.53,3.53,0,0,1-.18.78l-.05.15-.1.27h0m-1.21.06c0-.12,0-.3.14-.29a.91.91,0,0,1-.14.29m1.13-.05h0m-2.35.62a.42.42,0,0,1,.35-.29c0,.1-.23.33-.35.29m5.43.09c0-.12.34-.36.51-.41-.09.24-.47.58-.51.41m-.07,1.85a1.63,1.63,0,0,1,.26-.6c.1-.15.25-.38.36-.51a2.36,2.36,0,0,1-.4.89.66.66,0,0,1-.22.22m-7.8-2.76a1.52,1.52,0,0,0,.21.78,2.63,2.63,0,0,1,.28.59c0,.22-.23.37-.48.23-.08-.05-.08-.06-.15-.06a.6.6,0,0,0,.5.45.61.61,0,0,0,.49-.23c.59-.61-.45-1.48-.2-2a.75.75,0,0,1,.41-.37c.26-.11.42.1.41-.11s-.49-.29-.7-.21a1.19,1.19,0,0,0-.59.44.71.71,0,0,0-.12.23.65.65,0,0,0-.06.29m5.52.16c.14.2.35,0,.35-.12s-.06-.19-.16-.18-.31.12-.19.3m-3,.26a1.19,1.19,0,0,0-.32.36,1.12,1.12,0,0,0-.09.22c0,.27,0,.62.33.65h.06a.77.77,0,0,0,.64-.28.27.27,0,0,0,.07-.08l.2-.22a4.65,4.65,0,0,0,.34-.56l.1,0a2.29,2.29,0,0,1-.2.46c-.08.15-.15.35,0,.49a.32.32,0,0,0,.38.09,1.09,1.09,0,0,0,.41-.36,1.92,1.92,0,0,0,.14.63c.16.3.52.22.46.09a2.11,2.11,0,0,1-.15-.68,4.69,4.69,0,0,1,0-.53,6.07,6.07,0,0,1,.26-.55,3.89,3.89,0,0,0,.37-1.27c0-.08,0-.29-.26-.22a.6.6,0,0,0-.2.08c-.53.34-.63,1.53-.63,2.08a.64.64,0,0,1,0,.09,1.82,1.82,0,0,1-.46.53,5.94,5.94,0,0,1,.27-.63c.15-.39-.11-.41-.33-.51.12-.23.26-.43.08-.58a.34.34,0,0,0-.2-.06c-.21,0-.29.37-.27.56s.07.11.12.18a2.57,2.57,0,0,1-.29.44l-.12.13a1,1,0,0,1-.25.24c-.16.11-.45.15-.5-.06a.28.28,0,0,1,0-.11c.38,0,.76-.19.59-.64-.07-.19-.34-.11-.47,0m5.09,2.48c0,.1.09.11.2.13s.32-.13.4-.22a1.58,1.58,0,0,0,.4-.59c0-.07,0-.1.06-.18s.09-.66.11-.7.38-.31.48-.44a.41.41,0,0,0,.13-.29,2,2,0,0,0-.46.27l-.16.1a1.11,1.11,0,0,0,0-.19c0-.33.08-.45-.17-.48a1,1,0,0,0-1,.58c-.06.12-.31.5-.41.52,0-.27.17-.77-.11-.85s-.46.14-.6.34h0l0-.22c.06-.26.05-.33-.26-.23s-.08.27-.19.43-.34.48-.48.49a1.84,1.84,0,0,1,0-.44,2.43,2.43,0,0,0,.1-.41c0-.06-.33-.39-.49.25a1.28,1.28,0,0,0-.06.43c.06.43.51.44.8.08l.06-.07a1.77,1.77,0,0,0,0,.24c0,.11.07.08.15.11s.1.09.17,0a3,3,0,0,1,.49-.82c0,.25,0,.35-.05.55a.3.3,0,0,0,.05.25c.06.07.08.09.21.09s.48-.29.6-.49c.37.23.76-.13.86-.38a1.91,1.91,0,0,1,0,.42c0,.09-.27.33-.35.43a3.4,3.4,0,0,0-.33.54,1.44,1.44,0,0,0-.19.72m-5.81-1c0-.06,0-.28,0-.34l.16-1.21c0-.16,0-.32.05-.5.17,0,.27,0,.4-.15a1,1,0,0,0-.37,0,3.81,3.81,0,0,0,.06-.57c-.13-.09-.4-.12-.46,0a3.4,3.4,0,0,0-.08.53,1.69,1.69,0,0,0-.33,0c0,.13.17.15.3.15,0,.27-.07.57-.09.87v.25a5.5,5.5,0,0,0,0,.65c0,.19.31.39.33.29"/><path class="cls-49" d="M618.92,225.37A1,1,0,0,1,619,225a.79.79,0,0,1,.18-.29,1,1,0,0,1,.27-.19,1,1,0,0,1,.34-.07.78.78,0,0,1,.41.11.69.69,0,0,1,.27.29l-.11,0a.69.69,0,0,0-.24-.24.64.64,0,0,0-.34-.09.67.67,0,0,0-.28.06.81.81,0,0,0-.24.17.64.64,0,0,0-.15.25.81.81,0,0,0-.06.31.87.87,0,0,0,.22.58.66.66,0,0,0,.23.17.58.58,0,0,0,.28.07.64.64,0,0,0,.2,0l.18-.08.14-.11a.35.35,0,0,0,.08-.13l.11,0a.42.42,0,0,1-.1.17.73.73,0,0,1-.16.14l-.2.08a1,1,0,0,1-.23,0,.77.77,0,0,1-.34-.08.86.86,0,0,1-.27-.2,1,1,0,0,1-.19-.29A1,1,0,0,1,618.92,225.37Z"/><path class="cls-49" d="M619.79,226.34a.86.86,0,0,1-.36-.08.94.94,0,0,1-.28-.21.85.85,0,0,1-.19-.3,1,1,0,0,1-.07-.38A1,1,0,0,1,619,225a.91.91,0,0,1,.19-.3.76.76,0,0,1,.28-.2.94.94,0,0,1,.36-.08.77.77,0,0,1,.43.12.72.72,0,0,1,.29.31v0l-.18.07v0a.63.63,0,0,0-.23-.23.66.66,0,0,0-.59,0,.69.69,0,0,0-.22.16.7.7,0,0,0-.15.24.93.93,0,0,0,0,.29.94.94,0,0,0,0,.3.72.72,0,0,0,.16.25.62.62,0,0,0,.22.17.63.63,0,0,0,.45,0l.17-.07.13-.1a.25.25,0,0,0,.07-.12v0l.19.06v0a.52.52,0,0,1-.11.19.79.79,0,0,1-.17.14.67.67,0,0,1-.21.09A1,1,0,0,1,619.79,226.34Zm0-1.83a.71.71,0,0,0-.32.07.68.68,0,0,0-.26.18.82.82,0,0,0-.24.61,1,1,0,0,0,.07.35.89.89,0,0,0,.44.47.83.83,0,0,0,.54,0,.66.66,0,0,0,.19-.09.61.61,0,0,0,.15-.12.42.42,0,0,0,.08-.12h0a.34.34,0,0,1-.07.11l-.15.12-.19.08a.71.71,0,0,1-.5,0,.79.79,0,0,1-.25-.19,1,1,0,0,1-.17-.27.88.88,0,0,1-.06-.33.87.87,0,0,1,.06-.32.92.92,0,0,1,.16-.27.85.85,0,0,1,.25-.17.78.78,0,0,1,.3-.07.74.74,0,0,1,.36.09.69.69,0,0,1,.24.24l0,0a.59.59,0,0,0-.23-.24A.81.81,0,0,0,619.78,224.51Z"/><path class="cls-49" d="M621.31,226.3a.59.59,0,0,1-.23-.05.42.42,0,0,1-.18-.11.66.66,0,0,1-.12-.17.54.54,0,0,1,0-.22.36.36,0,0,1,.06-.2.46.46,0,0,1,.15-.16.7.7,0,0,1,.23-.11,1.36,1.36,0,0,1,.29,0,1.51,1.51,0,0,1,.3,0,1.28,1.28,0,0,1,.28.07v-.19a.61.61,0,0,0-.15-.42.53.53,0,0,0-.41-.16.74.74,0,0,0-.28.06,1.21,1.21,0,0,0-.29.16l0-.09a1.19,1.19,0,0,1,.63-.23.62.62,0,0,1,.48.19.68.68,0,0,1,.18.5v.92s0,.07.06.07v.11h0a.13.13,0,0,1-.1,0,.15.15,0,0,1,0-.1V226a.76.76,0,0,1-.31.25A1,1,0,0,1,621.31,226.3Zm0-.1a.78.78,0,0,0,.26,0,.92.92,0,0,0,.23-.09.54.54,0,0,0,.16-.14.28.28,0,0,0,.07-.16v-.34a1.8,1.8,0,0,0-.57-.1,1,1,0,0,0-.25,0,.61.61,0,0,0-.2.09.4.4,0,0,0-.13.13.33.33,0,0,0,0,.17.57.57,0,0,0,0,.18.49.49,0,0,0,.11.14.38.38,0,0,0,.15.09A.37.37,0,0,0,621.32,226.2Z"/><path class="cls-49" d="M621.31,226.34a.6.6,0,0,1-.24-.05.62.62,0,0,1-.19-.12.85.85,0,0,1-.14-.19.56.56,0,0,1,0-.23.43.43,0,0,1,.06-.22.37.37,0,0,1,.16-.17.66.66,0,0,1,.24-.11,1.55,1.55,0,0,1,.61,0l.23.05v-.13a.55.55,0,0,0-.14-.39.5.5,0,0,0-.38-.15.85.85,0,0,0-.26,0,1.33,1.33,0,0,0-.28.16l0,0-.09-.15,0,0a1.16,1.16,0,0,1,.65-.24.68.68,0,0,1,.51.2.72.72,0,0,1,.19.53v.92s0,0,0,0h0v.18h-.07a.21.21,0,0,1-.13-.05.2.2,0,0,1,0-.13v-.05a1,1,0,0,1-.27.17A1,1,0,0,1,621.31,226.34Zm.15-1.06a.86.86,0,0,0-.28,0,.74.74,0,0,0-.22.1.5.5,0,0,0-.14.15.37.37,0,0,0-.05.18.65.65,0,0,0,0,.2.61.61,0,0,0,.12.16.5.5,0,0,0,.17.11.71.71,0,0,0,.21,0,.9.9,0,0,0,.4-.09.76.76,0,0,0,.23-.15l-.11.08a.82.82,0,0,1-.24.1.83.83,0,0,1-.47,0l-.16-.1a.57.57,0,0,1-.11-.16.41.41,0,0,1,0-.19.32.32,0,0,1,.05-.19.38.38,0,0,1,.14-.14.67.67,0,0,1,.21-.09,1.09,1.09,0,0,1,.26,0,1.58,1.58,0,0,1,.58.11h0v.36a.24.24,0,0,1-.05.14l.05-.06v.27a.11.11,0,0,0,0,.08.09.09,0,0,0,.06,0v0a.11.11,0,0,1-.06-.11v-.92a.68.68,0,0,0-.16-.48.64.64,0,0,0-.46-.17,1.12,1.12,0,0,0-.58.2v0a1.16,1.16,0,0,1,.27-.14.79.79,0,0,1,.29-.06.56.56,0,0,1,.43.17.61.61,0,0,1,.17.45v.25l-.06,0a1.11,1.11,0,0,0-.26-.07A1.53,1.53,0,0,0,621.46,225.28Zm0,.09a.88.88,0,0,0-.24,0l-.19.08a.34.34,0,0,0-.12.12.33.33,0,0,0,0,.15.41.41,0,0,0,0,.16.38.38,0,0,0,.09.13.42.42,0,0,0,.14.09.75.75,0,0,0,.42,0,.85.85,0,0,0,.22-.09.64.64,0,0,0,.15-.13.22.22,0,0,0,.06-.14v-.31A1.55,1.55,0,0,0,621.47,225.37Z"/><path class="cls-49" d="M623.27,224.61a.7.7,0,0,0-.43.15.8.8,0,0,0-.25.39v1.11h-.11V224.5h.11V225a.83.83,0,0,1,.24-.31.69.69,0,0,1,.33-.14h.11Z"/><path class="cls-49" d="M622.63,226.3h-.19v-1.84h.19v.34a.81.81,0,0,1,.18-.19.79.79,0,0,1,.34-.15h.16v.18h0a.61.61,0,0,0-.4.14.73.73,0,0,0-.24.37Zm-.11-.08h0v-1.08a.78.78,0,0,1,.27-.41.82.82,0,0,1,.41-.16v0h-.07a.61.61,0,0,0-.3.13,1,1,0,0,0-.24.29l-.07.15v-.57h0Z"/><path class="cls-49" d="M624,226.3a.77.77,0,0,1-.34-.08.86.86,0,0,1-.27-.2,1,1,0,0,1-.19-.29,1,1,0,0,1-.06-.36,1,1,0,0,1,.06-.35.9.9,0,0,1,.18-.28,1.05,1.05,0,0,1,.27-.2.88.88,0,0,1,.33-.07.94.94,0,0,1,.34.07.9.9,0,0,1,.27.2.79.79,0,0,1,.18.29.84.84,0,0,1,.07.35v.05h-1.58a1.08,1.08,0,0,0,.07.31,1,1,0,0,0,.17.24.79.79,0,0,0,.23.16.6.6,0,0,0,.27.06.58.58,0,0,0,.19,0,.51.51,0,0,0,.17-.07.58.58,0,0,0,.15-.11,1.3,1.3,0,0,0,.1-.15l.1,0a.45.45,0,0,1-.11.17.79.79,0,0,1-.17.14l-.2.08A1,1,0,0,1,624,226.3Zm.72-1a.73.73,0,0,0-.07-.3.78.78,0,0,0-.16-.24.73.73,0,0,0-.23-.16.61.61,0,0,0-.28-.06.63.63,0,0,0-.27.06.73.73,0,0,0-.23.16,1,1,0,0,0-.15.24.78.78,0,0,0-.07.3Z"/><path class="cls-49" d="M624,226.34a.86.86,0,0,1-.36-.08.94.94,0,0,1-.28-.21.89.89,0,0,1-.19-.31.9.9,0,0,1-.07-.37.86.86,0,0,1,.07-.36.89.89,0,0,1,.18-.3,1.1,1.1,0,0,1,.28-.2.85.85,0,0,1,.35-.08.86.86,0,0,1,.36.08,1.1,1.1,0,0,1,.28.2,1.17,1.17,0,0,1,.19.3,1.16,1.16,0,0,1,.07.37v0s0,0,0,.05h-1.56a.72.72,0,0,0,.07.25.76.76,0,0,0,.15.23,1.07,1.07,0,0,0,.22.15.67.67,0,0,0,.44,0,.48.48,0,0,0,.16-.08.36.36,0,0,0,.14-.1.42.42,0,0,0,.09-.14v0l.18,0v0a.57.57,0,0,1-.12.18.65.65,0,0,1-.18.15.78.78,0,0,1-.21.09A1,1,0,0,1,624,226.34Zm0-1.83a.64.64,0,0,0-.31.07.81.81,0,0,0-.26.18,1,1,0,0,0-.17.27,1,1,0,0,0-.07.34.94.94,0,0,0,.07.34.79.79,0,0,0,.18.29.83.83,0,0,0,.26.19.8.8,0,0,0,.53,0,.61.61,0,0,0,.2-.09.51.51,0,0,0,.16-.13.38.38,0,0,0,.09-.12h0a.83.83,0,0,1-.08.12.61.61,0,0,1-.16.12.49.49,0,0,1-.18.08.69.69,0,0,1-.49,0,.66.66,0,0,1-.24-.17.74.74,0,0,1-.17-.25.84.84,0,0,1-.08-.32v0h1.59a1,1,0,0,0-.06-.34.71.71,0,0,0-.18-.27.76.76,0,0,0-.25-.19A.72.72,0,0,0,624,224.51Zm.79.86h-1.55v0a1,1,0,0,1,.07-.31,1.13,1.13,0,0,1,.16-.26.78.78,0,0,1,.24-.16.71.71,0,0,1,.83.16.85.85,0,0,1,.17.25.88.88,0,0,1,.07.32Zm-1.47-.08h1.38a1,1,0,0,0-.06-.25.87.87,0,0,0-.16-.23.8.8,0,0,0-.21-.15.7.7,0,0,0-.53,0,.51.51,0,0,0-.21.15.76.76,0,0,0-.15.23A.94.94,0,0,0,623.33,225.29Z"/><path class="cls-49" d="M625.59,226.3a1.17,1.17,0,0,1-.38-.07,1,1,0,0,1-.31-.21l.06-.08a1,1,0,0,0,.29.19.72.72,0,0,0,.33.07.68.68,0,0,0,.4-.11.33.33,0,0,0,.16-.29.33.33,0,0,0,0-.15.4.4,0,0,0-.12-.1.75.75,0,0,0-.18-.08l-.25-.06-.25-.07a.84.84,0,0,1-.18-.07.32.32,0,0,1-.11-.12.4.4,0,0,1,0-.17.43.43,0,0,1,0-.23.4.4,0,0,1,.14-.15.42.42,0,0,1,.2-.1.88.88,0,0,1,.24,0,1.06,1.06,0,0,1,.37.07.58.58,0,0,1,.22.18l-.08.06a.49.49,0,0,0-.21-.16,1.06,1.06,0,0,0-.31-.05l-.2,0-.16.07a.45.45,0,0,0-.11.13.33.33,0,0,0,0,.17.29.29,0,0,0,0,.14.18.18,0,0,0,.08.09l.15.06.22.06.29.07a1,1,0,0,1,.21.09.33.33,0,0,1,.14.12.38.38,0,0,1,0,.19.54.54,0,0,1,0,.22.48.48,0,0,1-.13.16.68.68,0,0,1-.21.1A1.1,1.1,0,0,1,625.59,226.3Z"/><path class="cls-49" d="M625.59,226.34a1.1,1.1,0,0,1-.4-.08.77.77,0,0,1-.32-.22l0,0,.11-.14,0,0a1,1,0,0,0,.28.19.78.78,0,0,0,.31.06.61.61,0,0,0,.38-.1.3.3,0,0,0,.14-.26.25.25,0,0,0,0-.13l-.1-.09-.18-.07-.25-.06-.26-.07a.75.75,0,0,1-.18-.08.25.25,0,0,1-.12-.13.36.36,0,0,1,0-.19.57.57,0,0,1,0-.24.5.5,0,0,1,.15-.17.55.55,0,0,1,.22-.1.66.66,0,0,1,.25,0,.86.86,0,0,1,.38.08.52.52,0,0,1,.24.19l0,0-.13.1,0,0a.38.38,0,0,0-.2-.14.93.93,0,0,0-.29,0l-.19,0a.3.3,0,0,0-.15.07.36.36,0,0,0-.1.11.33.33,0,0,0,0,.15.37.37,0,0,0,0,.12.27.27,0,0,0,.07.08l.14.05.22.06.29.07.22.09a.36.36,0,0,1,.15.15.39.39,0,0,1,0,.2.52.52,0,0,1,0,.23.62.62,0,0,1-.14.18.82.82,0,0,1-.23.11A1.18,1.18,0,0,1,625.59,226.34ZM625,226a1,1,0,0,0,.27.17.9.9,0,0,0,.37.07.75.75,0,0,0,.26,0,.61.61,0,0,0,.2-.09.57.57,0,0,0,.12-.15.42.42,0,0,0,0-.2.31.31,0,0,0,0-.17.26.26,0,0,0-.12-.11.76.76,0,0,0-.2-.08l-.29-.08-.22-.05-.16-.07a.32.32,0,0,1-.1-.1.41.41,0,0,1,0-.35.41.41,0,0,1,.12-.14l.17-.08.21,0a.87.87,0,0,1,.32.06.46.46,0,0,1,.21.14l0,0a.7.7,0,0,0-.19-.13.78.78,0,0,0-.35-.07.85.85,0,0,0-.23,0,.56.56,0,0,0-.19.09.35.35,0,0,0-.13.14.46.46,0,0,0,0,.21.38.38,0,0,0,0,.16.2.2,0,0,0,.09.09.54.54,0,0,0,.17.07,1.26,1.26,0,0,0,.25.07,1.49,1.49,0,0,1,.25.07.68.68,0,0,1,.19.08.36.36,0,0,1,.13.11.29.29,0,0,1,0,.17.36.36,0,0,1-.17.32.71.71,0,0,1-.43.12.94.94,0,0,1-.34-.07A1.17,1.17,0,0,1,625,226Z"/><g class="cls-50"><path class="cls-10" d="M612,230.74a1,1,0,0,1,.38-.69.89.89,0,0,1,.71-.19,1.08,1.08,0,0,1,.69.45,3.11,3.11,0,0,1,.2.3c0,.08.08.15.12.21s0,0,0,.05L614,231l-.21.16s0,0-.06,0,0,0,0-.06a.36.36,0,0,0,.11-.21.76.76,0,0,0-.18-.49.66.66,0,0,0-.41-.27.8.8,0,0,0-.64.22.82.82,0,0,0-.21,1.15c.13.17.23.26.38.27a.44.44,0,0,0,.18,0s0,0,.06,0,0,0,0,0l-.29.16a.12.12,0,0,1-.1,0,1.52,1.52,0,0,1-.32-.31A1.27,1.27,0,0,1,612,230.74Z"/><path class="cls-10" d="M615.56,233.05h0l0,0,.3-.42c0-.07.05-.12,0-.18l-.08-.06s0,0,0,0,0,0,.06,0l.28.21.26.18s0,0,0,.05,0,0,0,0l-.07,0c-.06,0-.1,0-.15.06l-.31.42-.26.35c-.13.19-.25.34-.3.44s0,.11,0,.16l.1.08s0,0,0,0,0,0-.06,0l-.3-.23-.26-.17s0,0,0-.05h0a.25.25,0,0,0,.08.05s.08,0,.13-.07a4.76,4.76,0,0,0,.32-.42l.13-.17a0,0,0,0,0,0,0l-.77-.56h0l-.12.17a5.06,5.06,0,0,0-.3.44c0,.06-.06.11,0,.16a.34.34,0,0,0,.09.08s0,0,0,0,0,0,0,0l-.31-.23-.25-.17s0,0,0-.05h0a.25.25,0,0,0,.08.05s.09,0,.14-.07.18-.23.32-.42l.25-.35.31-.42c0-.07.05-.12,0-.18s0,0-.07-.06,0,0,0,0,0,0,.05,0l.29.21s.17.12.25.18,0,0,0,.05,0,0,0,0l-.06,0c-.06,0-.1,0-.16.06l-.31.42,0,0s0,0,0,0Z"/><path class="cls-10" d="M617.29,234.46s0,0,0,0l-.24.26a.38.38,0,0,0-.09.13s0,.08.06.11h0s0,0,0,0,0,0,0,0l-.24-.1-.28-.09s0,0,0,0,0,0,0,0l.08,0c.11,0,.18,0,.27-.13l1.11-1.22c.06-.05.08-.07.1-.06s0,0,0,.09,0,1.21,0,1.62c0,.24.07.29.11.32l.09,0s0,0,0,0,0,0-.12,0l-.43-.16s-.07,0-.06-.05,0,0,0,0a0,0,0,0,0,0,0v-.55a0,0,0,0,0,0,0Zm.51.07h0v-.68a0,0,0,0,0,0,0l-.43.49s0,0,0,0Z"/><path class="cls-10" d="M620.06,234s0-.07.05-.06,0,0,.06.08l.57,1.41.77-1.33s0-.06.06-.05,0,0,0,.08l.11,1.52c0,.15,0,.23.1.25a.41.41,0,0,0,.15,0l0,0s0,0-.07,0-.4,0-.5-.05-.07,0-.07,0l0,0s0,0,0-.1l-.06-1.08h0l-.62,1.06c-.07.11-.08.13-.1.13a.32.32,0,0,1-.08-.13c0-.12-.22-.51-.24-.58s-.14-.36-.22-.55h0l-.21,1s0,.08,0,.12,0,.07.07.08l.1,0s0,0,0,0,0,0-.06,0l-.26,0h-.24s0,0,0,0h.11c.07,0,.1-.11.12-.19Z"/><path class="cls-10" d="M623.36,234.66c-.07-.36-.08-.43-.1-.51a.13.13,0,0,0-.13-.12H623s0,0,0,0,0,0,0,0l.35-.06.35-.08a.6.6,0,0,1,.48,0,.47.47,0,0,1,.18.27.59.59,0,0,1-.48.7h-.09s0,0,.07,0a.39.39,0,0,0,.24-.46.5.5,0,0,0-.21-.34.39.39,0,0,0-.26-.05l-.1,0a.07.07,0,0,0,0,.05l.19,1c0,.22.09.41.12.52s0,.11.12.11l.12,0h0s0,0,0,0l-.37.06-.31.07s0,0,0,0,0,0,0,0l.08,0s0-.07,0-.14,0-.3-.09-.52Z"/><path class="cls-10" d="M625.76,234c-.15-.35-.17-.41-.21-.48s-.08-.11-.13-.1l-.09,0s0,0,0,0,0,0,0,0l.3-.12.28-.12s0,0,.05,0,0,0,0,0l-.06,0c-.06,0-.06.08,0,.17s0,.13.2.48l.17.4c.09.22.17.4.22.49s.06.09.14.07l.12,0s0,0,0,0,0,0,0,0l-.36.14-.28.13s0,0-.06,0,0,0,0,0l.08,0s0-.08,0-.15-.11-.27-.2-.49Z"/><path class="cls-10" d="M627.43,233.44a1,1,0,0,1,.25-1.39.9.9,0,0,1,1.35.15,1,1,0,0,1-.23,1.42A.94.94,0,0,1,627.43,233.44Zm1.37-1a.79.79,0,0,0-1.11-.29c-.23.17-.39.49,0,1a.81.81,0,0,0,1.15.29C629,233.36,629.22,233.06,628.8,232.48Z"/><path class="cls-10" d="M630.63,231.44c.15.11.22.13.27.1l.09-.1s0,0,0,0,0,0,0,.06-.16.2-.19.24l-.15.22s0,0,0,0,0,0,0-.05a.28.28,0,0,0,.06-.09c0-.06,0-.12-.2-.25l-1.14-.89s-.06-.06-.05-.08.06,0,.12,0l1.08-.14.78-.09h0l-.9-.65c-.12-.09-.17-.1-.23-.07a.43.43,0,0,0-.09.1l0,0s0,0,0-.07l.19-.23a1.06,1.06,0,0,1,.14-.2s0,0,0,0,0,0,0,.05,0,0,0,.06,0,.11.11.2l1.23,1s0,0,0,.07a.25.25,0,0,1-.09,0l-1,.14-.84.09h0Z"/></g><path class="cls-36" d="M611.25,230a1,1,0,0,1,.38-.69.89.89,0,0,1,.71-.19,1.08,1.08,0,0,1,.69.45,3.11,3.11,0,0,1,.2.3c0,.08.08.15.12.21s0,0,0,.05l-.12.08-.21.16s0,0-.06,0,0,0,0-.06a.36.36,0,0,0,.11-.21.76.76,0,0,0-.18-.49.66.66,0,0,0-.41-.27.8.8,0,0,0-.64.22.82.82,0,0,0-.21,1.15c.13.17.23.26.38.27a.44.44,0,0,0,.18,0s0,0,.06,0,0,0,0,0l-.29.16a.12.12,0,0,1-.1,0,1.52,1.52,0,0,1-.32-.31A1.27,1.27,0,0,1,611.25,230Z"/><path class="cls-36" d="M614.84,232.33h0l0,0,.3-.42c0-.07,0-.12,0-.18l-.08-.06s0,0,0,0,0,0,.06,0l.28.21.26.18s0,0,0,.05,0,0,0,0l-.07,0c-.06,0-.1,0-.15.06l-.31.42-.26.35c-.13.19-.25.34-.3.44s-.05.11,0,.16l.1.08s0,0,0,0,0,0-.06,0l-.3-.23-.26-.17s0,0,0-.05h0a.25.25,0,0,0,.08.05s.08,0,.13-.07a4.76,4.76,0,0,0,.32-.42l.13-.17a0,0,0,0,0,0,0l-.77-.56h0l-.12.17a5.06,5.06,0,0,0-.3.44c0,.06-.06.11,0,.16a.34.34,0,0,0,.09.08s0,0,0,0,0,0,0,0l-.31-.23-.25-.17s0,0,0-.05h0a.25.25,0,0,0,.08.05c.05,0,.09,0,.14-.07s.18-.23.32-.42l.25-.35.31-.42c0-.07.05-.12,0-.18s0,0-.07-.06,0,0,0,0,0,0,0,0l.29.21s.17.12.25.18,0,0,0,.05,0,0-.05,0l-.06,0c-.06,0-.1,0-.16.06l-.31.42,0,0s0,0,0,0Z"/><path class="cls-36" d="M616.57,233.74s0,0,0,0l-.24.26a.38.38,0,0,0-.09.13s0,.08.06.11h0s0,0,0,0,0,0-.05,0l-.24-.1-.28-.09s0,0,0,0,0,0,0,0l.08,0c.11,0,.18,0,.27-.13l1.11-1.22c.06-.05.08-.07.1-.06s0,0,0,.09,0,1.21,0,1.62c0,.24.07.29.11.32l.09,0s0,0,0,0,0,0-.12,0l-.43-.16s-.07,0-.06-.05,0,0,0,0a0,0,0,0,0,0,0V234a0,0,0,0,0,0,0Zm.51.07h0v-.68l0,0-.43.49v0Z"/><path class="cls-36" d="M619.34,233.3s0-.07,0-.06,0,0,.06.08l.57,1.41.77-1.33s0-.06.06-.05,0,0,0,.08L621,235c0,.15,0,.23.1.25a.41.41,0,0,0,.15,0l0,0s0,0-.07,0-.4,0-.5-.05-.07,0-.07,0l0,0s0,0,0-.1l-.06-1.08h0l-.62,1.06c-.07.11-.08.13-.1.13a.32.32,0,0,1-.08-.13c-.05-.12-.22-.51-.24-.58s-.14-.36-.22-.55h0l-.21,1s0,.08,0,.12,0,.07.07.08l.1,0s0,0,0,0,0,0-.06,0l-.26,0h-.24s0,0,0,0h.11c.07,0,.1-.11.12-.19Z"/><path class="cls-36" d="M622.64,233.94c-.07-.36-.08-.43-.1-.51a.13.13,0,0,0-.13-.12h-.1s0,0,0,0,0,0,0,0l.35-.06.35-.08a.6.6,0,0,1,.48.05.47.47,0,0,1,.18.27.59.59,0,0,1-.48.7h-.09s0,0,.07,0a.39.39,0,0,0,.24-.46.5.5,0,0,0-.21-.34.39.39,0,0,0-.26-.05l-.1,0a.07.07,0,0,0,0,.05l.19,1c.05.22.09.41.12.52s0,.11.12.11l.12,0h0s0,0,0,0L623,235l-.31.07s-.05,0-.05,0,0,0,0,0l.08,0c.05,0,.05-.07.05-.14s-.05-.3-.09-.52Z"/><path class="cls-36" d="M625,233.27c-.15-.35-.17-.41-.21-.48s-.08-.11-.13-.1l-.09,0s0,0,0,0,0,0,0,0l.3-.12.28-.12s0,0,0,0,0,0,0,0l-.06,0c-.06,0-.06.08,0,.17s0,.13.2.48l.17.4c.09.22.17.4.22.49s.06.09.14.07l.12,0s0,0,0,0,0,0,0,0l-.36.14-.28.13s-.05,0-.06,0,0,0,0,0l.08,0s0-.08,0-.15-.11-.27-.2-.49Z"/><path class="cls-36" d="M626.71,232.72a1,1,0,0,1,.25-1.39.9.9,0,0,1,1.35.15,1,1,0,0,1-.23,1.42A.94.94,0,0,1,626.71,232.72Zm1.37-1a.79.79,0,0,0-1.11-.29c-.23.17-.39.49,0,1a.81.81,0,0,0,1.15.29C628.23,232.64,628.5,232.34,628.08,231.76Z"/><path class="cls-36" d="M629.91,230.72c.15.11.22.13.27.1l.09-.1s0,0,0,0,0,0,0,.06-.16.2-.19.24l-.15.22s0,0-.05,0,0,0,0-.05a.28.28,0,0,0,.06-.09c0-.06,0-.12-.2-.25l-1.14-.89s-.06-.06,0-.08.06,0,.12,0l1.08-.14.78-.09h0l-.9-.65c-.12-.09-.17-.1-.23-.07a.43.43,0,0,0-.09.1s0,0,0,0,0,0,0-.07l.19-.23a1.06,1.06,0,0,1,.14-.2s0,0,.05,0,0,0,0,.05,0,0,0,.06,0,.11.11.2l1.23,1s0,0,0,.07a.25.25,0,0,1-.09,0l-1,.14-.84.09h0Z"/><polygon class="cls-51" points="620.26 212.9 620.42 212.17 619.85 211.68 620.6 211.6 620.89 210.91 621.19 211.6 621.93 211.67 621.38 212.16 621.54 212.89 620.9 212.51 620.26 212.9"/><polygon class="cls-51" points="617.64 213.19 617.76 212.77 617.45 212.46 617.89 212.44 618.08 212.05 618.24 212.46 618.67 212.53 618.33 212.8 618.4 213.23 618.03 212.99 617.64 213.19"/><polygon class="cls-51" points="623.05 212.92 623.36 212.61 623.24 212.19 623.63 212.39 623.99 212.14 623.92 212.57 624.27 212.84 623.84 212.91 623.69 213.32 623.49 212.93 623.05 212.92"/><polygon class="cls-51" points="610.56 224.23 609.91 223.85 609.27 224.23 609.43 223.5 608.87 223.01 609.62 222.94 609.91 222.25 610.21 222.94 610.95 223.01 610.39 223.5 610.56 224.23"/><polygon class="cls-51" points="632.56 224.23 631.91 223.85 631.27 224.23 631.43 223.5 630.87 223.01 631.62 222.94 631.91 222.25 632.21 222.94 632.95 223.01 632.39 223.5 632.56 224.23"/><polygon class="cls-51" points="610.78 226.59 610.36 226.47 610.05 226.79 610.03 226.35 609.64 226.16 610.05 226 610.11 225.57 610.39 225.91 610.82 225.84 610.58 226.2 610.78 226.59"/><polygon class="cls-51" points="632.03 220.89 631.6 220.77 631.3 221.08 631.28 220.64 630.88 220.45 631.29 220.3 631.36 219.86 631.63 220.21 632.07 220.13 631.82 220.5 632.03 220.89"/><polygon class="cls-51" points="610.5 221.19 610.2 220.87 609.77 221 609.97 220.61 609.73 220.24 610.16 220.31 610.43 219.97 610.5 220.4 610.91 220.55 610.52 220.75 610.5 221.19"/><polygon class="cls-51" points="631.81 226.68 631.5 226.37 631.08 226.49 631.28 226.1 631.03 225.74 631.46 225.8 631.73 225.46 631.8 225.89 632.21 226.04 631.82 226.24 631.81 226.68"/></g></g></g></svg>