<svg xmlns="http://www.w3.org/2000/svg" xmlns:xlink="http://www.w3.org/1999/xlink" viewBox="0 0 449 354"><defs><style>.cls-1,.cls-15,.cls-21,.cls-32,.cls-37{fill:none;}.cls-2,.cls-35{fill:#e85a43;}.cls-3{isolation:isolate;}.cls-4{fill:#f5f5f5;}.cls-5{fill:#c1e0c7;}.cls-6{fill:#d9fce0;}.cls-7{fill:#bddbc3;}.cls-8{fill:#d5edf2;}.cls-9{clip-path:url(#clip-path);}.cls-10{fill:#fff;}.cls-11{fill:#868f8d;}.cls-12{fill:#818a88;}.cls-13{fill:#a5b0af;}.cls-14,.cls-19,.cls-23{fill:#d1dedd;}.cls-15{stroke:#868f8d;stroke-width:5.31px;}.cls-15,.cls-21,.cls-32,.cls-37{stroke-miterlimit:10;}.cls-16{fill:#65e7e2;}.cls-17{fill:#b9b9b9;}.cls-17,.cls-19,.cls-23,.cls-24,.cls-35,.cls-40{mix-blend-mode:multiply;}.cls-18{fill:url(#Degradado_sin_nombre_3);}.cls-19{opacity:0.3;}.cls-20{fill:#dfb28b;}.cls-21{stroke:#eeefef;stroke-width:0.5px;}.cls-22{fill:#a6332e;}.cls-25,.cls-40{fill:#bcbec0;}.cls-26{fill:#7e298a;}.cls-27{fill:#f0a12c;}.cls-28{fill:#2d320a;}.cls-29{clip-path:url(#clip-path-2);}.cls-30{fill:url(#linear-gradient);}.cls-31{fill:#eeefef;}.cls-32,.cls-37{stroke:#2d320a;}.cls-32{stroke-width:2.32px;}.cls-33{fill:#8e572a;}.cls-34{clip-path:url(#clip-path-3);}.cls-36{clip-path:url(#clip-path-4);}.cls-37{stroke-width:1.09px;}.cls-38{fill:url(#Degradado_sin_nombre_38);}.cls-39{fill:#a46c35;}.cls-41{clip-path:url(#clip-path-5);}.cls-42{fill:#ffe3b3;}.cls-43{fill:#ec5039;opacity:0.1;}</style><clipPath id="clip-path"><path class="cls-1" d="M75.7,17.46c-16,13.72-6.55,81.45,1.45,88.73s320,18.91,325.83,8S413.89,13.82,397.89,7.27,85.88,8.73,75.7,17.46Z"/></clipPath><linearGradient id="Degradado_sin_nombre_3" x1="301.98" y1="225.83" x2="301.98" y2="231.66" gradientUnits="userSpaceOnUse"><stop offset="0" stop-color="#d1dedd"/><stop offset="1" stop-color="#b0a8b1"/></linearGradient><clipPath id="clip-path-2"><path class="cls-2" d="M254.56,178.67s-9,2.39-11.58,9.55-2.15,9.56-2.15,9.56-1.32.71-1.2,1.91,3.94,6.74,5.14,14.09c.76,4.7-2.81,29.44-2.81,29.44a168.52,168.52,0,0,1,11,32.42,163.32,163.32,0,0,1,3.1,33.92h-10s-10.51-38.46-15-45.86c-.48.71-14.57,35.11-26.76,46.33,0,0-6.68-.71-9.31-5,0,0,13.61-27,14.81-32.72s1.67-20.07,2.15-23.17S215.51,237,215.51,237s-10.27-5.26-10.27-11,14.33-24.12,17.2-25.8,7.4-1.19,7.88-2.62,1.84-2.42,1.43-4.06c-.71-2.87-8.69-9.92-.48-20.31C237.6,165.17,252.17,167.92,254.56,178.67Z"/></clipPath><linearGradient id="linear-gradient" x1="285.82" y1="263.88" x2="313.53" y2="275.66" gradientUnits="userSpaceOnUse"><stop offset="0" stop-color="#fff"/><stop offset="1" stop-color="#fff" stop-opacity="0"/></linearGradient><clipPath id="clip-path-3"><path class="cls-2" d="M372.13,153.89s-5.66,4.64-9.4,7.93-11.09,13.81-12.32,16a55.56,55.56,0,0,0-2.56,5.35,23.2,23.2,0,0,0-1.47,5,4.4,4.4,0,0,0,4.39,5c3.74.17,5.56-3.59,5.56-3.59a11.16,11.16,0,0,0,1.5-1.68c.85-1.13,1.77-3.16,2.11-3.58s2.8-2.93,2.8-2.93,2.76,10.57,2,12.35-5.71,25-5.46,38.06a99.68,99.68,0,0,0,3.41,23.76s6,1.4,9.88.6c0,0,1.76-23.54,4-28.77,0,0,7.64,21.86,11.09,26.44a12,12,0,0,0,11.7-4.89s-6.13-18.34-6.85-25.85,8.07-20.76,1.92-44.3c0,0,8-3.39,7.85-7.46S389,151.7,383.92,150.59,374.3,152.27,372.13,153.89Z"/></clipPath><clipPath id="clip-path-4"><path class="cls-1" d="M355.87,135.25c2.7-5.18,11.08-9.67,17.94-6.72s8.93,10.57,7.61,15.53-3,5.85-2.14,6.6-7.68,4.2-7.68,4.2-.1-8.25-6-14.05C358.89,134.29,355.87,135.25,355.87,135.25Z"/></clipPath><linearGradient id="Degradado_sin_nombre_38" x1="501" y1="2759.27" x2="483" y2="2791.97" gradientTransform="matrix(0.94, 0.34, -0.34, 0.94, 774.97, -2561.32)" xlink:href="#linear-gradient"/><clipPath id="clip-path-5"><path class="cls-1" d="M104.71,134.18s16.25,14.36,17.56,16,11,7.05,11,7.05l9-29.3s5.07-.19,9.95,8.08c5.65,9.55-.75,18.21-5.44,19.53s-5.83,2.44-5.64,3,4.51,6,6.39,9,6.19,28.92,7.7,32.12S160.48,210,161.05,214s2.81,19.15,3.38,22,9.76,26.85,9.76,26.85l-8.82,4.32-18.22-35.3,1.13,37.74-11.64.38s-6-27.61-8.08-37.18-1.69-26.48-1.69-26.48-.56-.57-1.69-4.32-2.07-25.73-2.07-25.73S112.79,163.1,106.21,156,96.07,138.87,97,137.37,104.71,134.18,104.71,134.18Z"/></clipPath></defs><g class="cls-3"><g id="Layer_1" data-name="Layer 1"><path id="Floor" class="cls-4" d="M375.37,101.91c76.49,56.86,76.49,149.07,0,205.94s-200.49,56.87-277,0-76.49-149.07,0-205.94S298.89,45,375.37,101.91Z"/><path class="cls-5" d="M371.28,174c-1.92-1.92-6-1.51-6.52,1.16a52.31,52.31,0,0,0-7.06-12.86c-1.14-1.53-2.8-3.15-4.66-2.72a5,5,0,0,0-2.55,2,46.59,46.59,0,0,0-5.68,9c-2.86-3.76-9-3.48-12.73-.56s-5.51,7.63-6.75,12.2c-1.2-2.17-2.56-4.49-4.86-5.41s-5.6.61-5.37,3.07c-.94-2.42-4.84-2.13-6.4,0s-1.47,4.92-1.31,7.51a6.78,6.78,0,0,0-8.51,2.15,3.39,3.39,0,1,0-6.72-.82l-3.46-3.17a11.68,11.68,0,0,0-3.81,5.85c-.49-2.67-4.9-2.5-6.29-.17s-.72,5.3,0,7.92c-4.39-4.46-11.77-1.78-18-1.61-5.59.15-11-2-16.59-2.36-10.61-.7-21.59,5-31.57,1.33-3.65-1.35-6.76-3.85-10.21-5.65s-7.7-2.86-11.2-1.16a5.72,5.72,0,0,0-8.76-.29c-.78-4.46-7.05-6.76-10.54-3.88.15-3.92-6.52-5.53-8.18-2-.32-2.49-1.24-5.33-3.61-6.19-1.79-.66-3.91,1.14-4,2.74a42.38,42.38,0,0,0-5.39-8.7,6.71,6.71,0,0,0-3.58-2.68c-4.1-.82-6,4.91-6,9.09-1.15-3.72-2.48-7.69-5.61-10s-8.61-1.71-9.77,2c.12-4.48-4.48-8.16-9-8s-8.39,3.48-10.4,7.48-2.4,8.63-2.33,13.11l2,19.67,236.52,6.77,19.9-.35c2.23,0,4.65-.16,6.32-1.64,1.35-1.19,1.89-3,2.32-4.79a87.23,87.23,0,0,0,2.49-20.41C373.43,178.9,373.2,175.91,371.28,174Z"/><ellipse class="cls-6" cx="176.92" cy="183.72" rx="8.49" ry="20.56"/><path class="cls-7" d="M176.58,172.1v21a.27.27,0,0,0,.54,0v-21a.27.27,0,0,0-.54,0Z"/><path class="cls-7" d="M176.85,187.8c.39,0,.62-.32.85-.6s.51-.66.75-1a22.05,22.05,0,0,0,1.32-2.12c.16-.31-.31-.58-.47-.27-.36.65-.75,1.29-1.17,1.9-.2.3-.41.59-.64.87s-.22.3-.34.44-.17.23-.3.24a.27.27,0,0,0,0,.54Z"/><path class="cls-7" d="M176.9,180.68a8.62,8.62,0,0,1-2.67-4.84c-.06-.34-.58-.2-.52.14a9.1,9.1,0,0,0,2.81,5.09c.26.24.64-.15.38-.39Z"/><path class="cls-7" d="M177.16,177.7a9.07,9.07,0,0,0,2.37-3.82.27.27,0,0,0-.52-.15,8.54,8.54,0,0,1-2.24,3.59c-.25.24.13.62.39.38Z"/><path class="cls-7" d="M176.76,190.22a4.16,4.16,0,0,1-3-2.1c-.17-.3-.64,0-.47.28a4.68,4.68,0,0,0,3.35,2.35.28.28,0,0,0,.33-.19.27.27,0,0,0-.19-.34Z"/><ellipse class="cls-6" cx="323.26" cy="187.01" rx="8.49" ry="20.56"/><path class="cls-7" d="M322.91,175.39v21a.27.27,0,0,0,.54,0v-21a.27.27,0,0,0-.54,0Z"/><path class="cls-7" d="M323.18,191.09c.39,0,.62-.32.85-.6s.51-.66.75-1a20.24,20.24,0,0,0,1.32-2.12c.17-.3-.3-.58-.47-.27a19.35,19.35,0,0,1-1.17,1.9q-.3.45-.63.87c-.12.15-.23.3-.35.44s-.17.23-.3.24a.27.27,0,0,0,0,.54Z"/><path class="cls-7" d="M323.24,184a8.62,8.62,0,0,1-2.67-4.85c-.07-.34-.59-.2-.53.14a9.1,9.1,0,0,0,2.81,5.09c.26.24.65-.15.39-.38Z"/><path class="cls-7" d="M323.49,181a9,9,0,0,0,2.37-3.82c.11-.34-.42-.48-.52-.15a8.44,8.44,0,0,1-2.24,3.59c-.25.24.13.62.39.38Z"/><path class="cls-7" d="M323.1,193.51a4.13,4.13,0,0,1-3-2.1c-.17-.3-.64,0-.47.28A4.68,4.68,0,0,0,323,194a.28.28,0,0,0,.15-.53Z"/><ellipse class="cls-6" cx="194.47" cy="190.78" rx="5.08" ry="12.3"/><path class="cls-7" d="M194.45,181.78V195a.27.27,0,0,0,.54,0V181.79a.27.27,0,0,0-.54,0Z"/><path class="cls-7" d="M194.86,190.59a7.08,7.08,0,0,1-1.69-2.46.27.27,0,1,0-.52.14,7.54,7.54,0,0,0,1.82,2.7c.26.24.64-.14.39-.38Z"/><path class="cls-7" d="M195.06,186.14a12,12,0,0,0,1.31-2,.27.27,0,1,0-.47-.27,11.69,11.69,0,0,1-1.23,1.88.28.28,0,0,0,0,.39.27.27,0,0,0,.38,0Z"/><path class="cls-7" d="M194.77,183.75a2.43,2.43,0,0,1-.29-.26l-.14-.15-.06-.08,0,0h0a3.62,3.62,0,0,1-.41-.68.28.28,0,0,0-.37-.1.29.29,0,0,0-.1.38,3.82,3.82,0,0,0,1,1.32.28.28,0,0,0,.39-.39Z"/><ellipse class="cls-6" cx="301.27" cy="189.89" rx="5.08" ry="12.3"/><path class="cls-7" d="M301.25,180.89v13.26a.27.27,0,0,0,.54,0V180.89a.27.27,0,0,0-.54,0Z"/><path class="cls-7" d="M301.65,189.69a6.92,6.92,0,0,1-1.68-2.45.28.28,0,0,0-.33-.2.28.28,0,0,0-.19.34,7.63,7.63,0,0,0,1.82,2.7c.26.24.64-.15.38-.39Z"/><path class="cls-7" d="M301.86,185.25a12.43,12.43,0,0,0,1.31-2,.27.27,0,0,0-.47-.27,12.15,12.15,0,0,1-1.23,1.88.27.27,0,0,0,.39.38Z"/><path class="cls-7" d="M301.56,182.86a3.57,3.57,0,0,1-.28-.27l-.14-.15-.06-.07,0,0s0,0,0,0a4.66,4.66,0,0,1-.4-.68.27.27,0,1,0-.47.27,3.64,3.64,0,0,0,1,1.32.28.28,0,0,0,.39,0,.27.27,0,0,0,0-.38Z"/><path class="cls-6" d="M89.79,194.41c-9.68,1.41,0,33.1,5.36,36.35s294,8.44,298.5,2,13.4-32.46,1.79-37.65S98.72,193.11,89.79,194.41Z"/><path class="cls-8" d="M75.7,17.46c-16,13.72-6.55,81.45,1.45,88.73s320,18.91,325.83,8S413.89,13.82,397.89,7.27,85.88,8.73,75.7,17.46Z"/><g class="cls-9"><path class="cls-10" d="M126.75,29.67c-3.56-2.91-8.74-5.87-12.33-3-1.61,1.28-2.83,3.67-4.87,3.38-1.31-.18-2.13-1.45-2.9-2.53a15.47,15.47,0,0,0-10-6.56,11,11,0,0,0-10.75,4.5A6.36,6.36,0,0,1,83.76,28c-2.34,1.18-4.49-1.75-6.61-3.29-4-2.92-9.71-.76-13.85,2a13.55,13.55,0,0,1-3.37,1.86,17.59,17.59,0,0,1-4.17.45,20.08,20.08,0,0,0-13.91,7.23h93Z"/><path class="cls-10" d="M429.86,92.62c-3.56-2.91-8.73-5.87-12.33-3-1.61,1.28-2.83,3.67-4.87,3.39-1.31-.19-2.13-1.46-2.9-2.54a15.54,15.54,0,0,0-10-6.56A11,11,0,0,0,389,88.4c-.6.95-1.1,2.07-2.11,2.57-2.34,1.18-4.48-1.75-6.61-3.29-4-2.92-9.71-.75-13.85,2A13.24,13.24,0,0,1,363,91.54a17.59,17.59,0,0,1-4.17.45A20.08,20.08,0,0,0,345,99.22h93Z"/><circle class="cls-10" cx="368.1" cy="24.32" r="8.73"/></g><path class="cls-11" d="M251.34,207.09V224a1,1,0,1,0,2,0V207.11a1,1,0,0,0-1-1,1,1,0,0,0-1,1Z"/><path class="cls-11" d="M263.35,207.09V224a1,1,0,1,0,2,0V207.11a1,1,0,0,0-2,0Z"/><path class="cls-11" d="M275.35,207.09V224a1,1,0,1,0,2,0V207.11a1,1,0,0,0-2,0Z"/><path class="cls-11" d="M287.35,207.09V224a1,1,0,1,0,2,0V207.11a1,1,0,0,0-2,0Z"/><path class="cls-11" d="M299.35,207.09V224a1,1,0,1,0,2,0V207.11a1,1,0,0,0-2,0Z"/><path class="cls-11" d="M311.35,207.09V224a1,1,0,1,0,2,0V207.11a1,1,0,0,0-2,0Z"/><path class="cls-11" d="M323.35,207.09V224a1,1,0,1,0,2,0V207.11a1,1,0,0,0-2,0Z"/><path class="cls-11" d="M335.35,207.09V224a1,1,0,1,0,2,0V207.11a1,1,0,0,0-2,0Z"/><path class="cls-11" d="M347.35,207.09V224a1,1,0,1,0,2,0V207.11a1,1,0,0,0-2,0Z"/><path class="cls-11" d="M357.16,64.61,156.79,62.7,107,73.52l7.09,10.67c0-5.52,251.65-5.52,251.65,0l2.36-11.62Z"/><polygon class="cls-12" points="372.8 55.22 388.8 45.83 388.8 54.74 365.71 84.19 365.53 77.66 372.8 55.22"/><polygon class="cls-12" points="106.97 55.22 90.97 45.83 90.97 54.74 114.06 84.19 114.24 77.66 106.97 55.22"/><path class="cls-13" d="M91,45.82l23.27,31.84c0-6.79,250.92-6.79,250.92,0l23.28-31.84C388.44,35.64,91,35.64,91,45.82Z"/><path class="cls-14" d="M388.66,45.82c0-5.07-74.68-7.62-148.78-7.64h-.09C165.7,38.2,91,40.75,91,45.82v8.92s5.63-5.41,148.87-5.41,148.82,5.41,148.82,5.41Z"/><line class="cls-15" x1="237.56" y1="77.82" x2="237.56" y2="260.56"/><line class="cls-15" x1="114.06" y1="77.82" x2="114.06" y2="260.56"/><line class="cls-15" x1="364.98" y1="75.64" x2="364.98" y2="260.56"/><polygon class="cls-11" points="94.21 74.56 94.21 270.36 114.06 252.92 114.06 96.03 94.21 74.56"/><rect class="cls-13" x="90.61" y="74.56" width="3.61" height="195.75"/><path class="cls-16" d="M96.62,81.35l15,15.94V251.83l-15,13.22V81.35"/><polygon class="cls-17" points="96.62 81.36 96.62 83.78 110.56 98.56 110.56 252.79 111.66 251.83 111.66 97.29 96.62 81.36"/><path class="cls-18" d="M368.67,223.47H235.29l-6.31,3.2a2.06,2.06,0,0,0,.93,3.89H374.05a2.06,2.06,0,0,0,.93-3.89Z"/><path class="cls-11" d="M237.14,208.55H364.79a2,2,0,0,0,0-4H237.17a2,2,0,0,0-2,2,2,2,0,0,0,2,2Z"/><polygon class="cls-19" points="377.53 278.56 90.47 278.42 111.65 260.06 366.62 260.06 377.53 278.56"/><path class="cls-20" d="M252.13,188.46c1.44-1.75,2.91-6.93,2.43-9.79l-7.2-2.31-2.07,1.43-4,5.26-1.6,8.44,1.12,6.29s4.14,1.19,5.41,1,3.82-3.66,4.46-4.3,1.75-1.27,2.07-2.23S250.7,190.21,252.13,188.46Z"/><line class="cls-21" x1="244.65" y1="190.05" x2="240.59" y2="189.66"/><line class="cls-21" x1="243.47" y1="196.54" x2="239.86" y2="194.63"/><path class="cls-22" d="M226.28,194.72a1.13,1.13,0,0,0-.59-.37,45.87,45.87,0,0,0-11.85-2.73,1.31,1.31,0,0,0-1.85,1.23l-.3,2.16,13.14,5.19a17.89,17.89,0,0,0,1.52-4.62A1.11,1.11,0,0,0,226.28,194.72Z"/><ellipse class="cls-23" cx="225.4" cy="317.2" rx="38.45" ry="5.49"/><g class="cls-24"><path class="cls-25" d="M211.8,194.25l-.11.76,13.14,5.19a17.89,17.89,0,0,0,1.52-4.62,1.11,1.11,0,0,0-.07-.86,1,1,0,0,0-.42-.3A31.19,31.19,0,0,1,211.8,194.25Z"/></g><path class="cls-26" d="M230.48,199.77s-18.63-6.85-21.66-6.05c-.51.13-1.24,1.29-2.08,3.12l24,8.27C231.07,202.36,231,200.4,230.48,199.77Z"/><path class="cls-26" d="M196.68,230.24a10.63,10.63,0,0,0-.28,3.44c1,3.19,22,11.47,24,10.51.34-.16.93-1.4,1.65-3.38a57.06,57.06,0,0,1-7.29-1.92A97.54,97.54,0,0,1,196.68,230.24Z"/><path class="cls-27" d="M206.74,196.84c-3.38,7.33-8.68,25.56-10.06,33.4a97.54,97.54,0,0,0,18.13,8.65,57.06,57.06,0,0,0,7.29,1.92c2.81-7.65,7.71-26.32,8.68-35.7Z"/><path class="cls-28" d="M261.85,312.78c-1.68-1.07-4.66-.95-5.38-1.55a6.88,6.88,0,0,1-1.31-2.27l-8.24.12a10.5,10.5,0,0,0-.48,7.4H250V314.1l2.15,2.26h10.27S263.52,313.86,261.85,312.78Z"/><path class="cls-28" d="M196.16,305.26c-.36.24-3.82,4.77-3.94,5.49a4.49,4.49,0,0,0,.6,2l1.07-.36s.12,4.42,1.68,5.38,9.79,1.31,10.15.24a4.6,4.6,0,0,0-2.63-4.9l1.43-4.42"/><path class="cls-2" d="M254.56,178.67s-9,2.39-11.58,9.55-2.15,9.56-2.15,9.56-1.32.71-1.2,1.91,3.94,6.74,5.14,14.09c.76,4.7-2.81,29.44-2.81,29.44a168.52,168.52,0,0,1,11,32.42,163.32,163.32,0,0,1,3.1,33.92h-10s-10.51-38.46-15-45.86c-.48.71-14.57,35.11-26.76,46.33,0,0-6.68-.71-9.31-5,0,0,13.61-27,14.81-32.72s1.67-20.07,2.15-23.17S215.51,237,215.51,237s-10.27-5.26-10.27-11,14.33-24.12,17.2-25.8,7.4-1.19,7.88-2.62,1.84-2.42,1.43-4.06c-.71-2.87-8.69-9.92-.48-20.31C237.6,165.17,252.17,167.92,254.56,178.67Z"/><g class="cls-29"><path class="cls-2" d="M254.56,178.67s-9,2.39-11.58,9.55-2.15,9.56-2.15,9.56-1.32.71-1.2,1.91,3.94,6.74,5.14,14.09c.76,4.7-2.81,29.44-2.81,29.44a168.52,168.52,0,0,1,11,32.42,163.32,163.32,0,0,1,3.1,33.92h-10s-10.51-38.46-15-45.86c-.48.71-14.57,35.11-26.76,46.33,0,0-6.68-.71-9.31-5,0,0,13.61-27,14.81-32.72s1.67-20.07,2.15-23.17S215.51,237,215.51,237s-10.27-5.26-10.27-11,14.33-24.12,17.2-25.8,7.4-1.19,7.88-2.62,1.84-2.42,1.43-4.06c-.71-2.87-8.84-10-.48-20.31S252.17,167.92,254.56,178.67Z"/><path class="cls-2" d="M214,236.54a53.47,53.47,0,0,0,9.76,3.32"/><path class="cls-2" d="M227,231.77c-2.55-2-4.76-4.52-7.64-6-1.55-.79-5.77-.47-5.77-.47"/><path class="cls-2" d="M238.32,195.5a5.19,5.19,0,0,0,3.61-.42"/><path class="cls-2" d="M239,191.82a7.43,7.43,0,0,0,3.59,1.43"/><path class="cls-2" d="M239.74,190.87a7.67,7.67,0,0,0,3.13,1.85"/><path class="cls-2" d="M241.07,185.84a10.06,10.06,0,0,1,3.7,1.55"/><path class="cls-2" d="M242.5,184.64a19.08,19.08,0,0,1,3.22,1.55"/><path class="cls-2" d="M244.53,179.86a11.48,11.48,0,0,1,3.24,3.82"/><path class="cls-2" d="M247,180.34l2.13,2.41"/><path class="cls-2" d="M250.26,176.88a14.9,14.9,0,0,1,2.14,4.06"/><path class="cls-2" d="M250,179.14a11,11,0,0,0,1.1,1.65"/><path class="cls-2" d="M253.31,177.39a16,16,0,0,1,.92,3.4"/><path class="cls-2" d="M219.53,225.77a9.59,9.59,0,0,0-2.18-1.52,3.27,3.27,0,0,0-2.58-.16"/><path class="cls-2" d="M218.74,225.18a35.5,35.5,0,0,1,5.94-10.2"/><path class="cls-2" d="M223.07,217.28a14.2,14.2,0,0,0,2.42-1.47"/><path class="cls-2" d="M230.71,265.1a15.2,15.2,0,0,1,5.22-7.25"/><path class="cls-2" d="M233.31,262.51a11.3,11.3,0,0,1,3.42-3.18"/></g><path class="cls-28" d="M250.67,186.89a19.74,19.74,0,0,1-1,2,.58.58,0,1,0,1,.58,16.35,16.35,0,0,0,1-2,.61.61,0,0,0,.06-.44.62.62,0,0,0-.27-.35.59.59,0,0,0-.79.21Z"/><path class="cls-28" d="M250.93,185.35s.07-.1,0,0,0,0,0,0l.1-.11c.08-.07-.08.06,0,0l.05,0,.13-.08h0c-.09,0,0,0,0,0l.14,0s.13,0,0,0,0,0,0,0h.15c-.1,0,0,0,0,0l.14,0s.09,0,0,0h0l.12.07s.08.06,0,0,0,0,0,0l.1.1.05.05c0,.06-.08-.11,0,0l.09.14a.57.57,0,0,0,.79.2.58.58,0,0,0,.21-.79,1.86,1.86,0,0,0-3.22-.12.59.59,0,0,0,.21.8.61.61,0,0,0,.8-.22Z"/><polygon class="cls-30" points="283.2 262.11 308.68 293 326.51 261.79 283.2 262.11"/><path class="cls-31" d="M252.77,192.28c.2-.6-.66-1.26-1-2.1l-7.86-.37-1.75,6.13,2.16,2.68a7.32,7.32,0,0,0,1.9.19c1.28-.16,3.82-3.66,4.46-4.3S252.45,193.24,252.77,192.28Z"/><path class="cls-28" d="M230.48,247.06s8-3.35,11.06-2,19.67,7.72,19.67,7.72l1.59-3.34L242.74,238.5s-4.78-2.27-7-1.79-9.71,3.5-9.87,4.3S229.2,246.58,230.48,247.06Z"/><polygon class="cls-28" points="283.2 259.64 281.85 262.58 283.68 263.78 284.95 260.51 283.2 259.64"/><line class="cls-32" x1="259.86" y1="250.32" x2="282.96" y2="261.47"/><path class="cls-28" d="M230,242.08c-4.42,1.11-7.2,5.11-8.69,9.18-2,5.37-2.31,11.27-6.08,15.83a14.17,14.17,0,0,1-6.46,4.75,6.22,6.22,0,0,1-6.83-2.63c-1.7-2.39-1.94-5.46-1.73-8.29a28.11,28.11,0,0,1,2.21-9c1.17-2.73,2.84-5.29,3.26-8.28a10.22,10.22,0,0,0-.37-4.34l-1.83-.83a9.63,9.63,0,0,1,.48,6.39c-.81,2.85-2.5,5.37-3.5,8.14-1.8,5-3,11.88,0,16.62a8.34,8.34,0,0,0,5.27,3.77,9,9,0,0,0,6.89-2c4.69-3.36,6.91-8.27,8.31-13.7s3.09-12.69,9.4-14.26A.72.72,0,0,0,230,242.08Z"/><path class="cls-10" d="M226.62,230.74a18.34,18.34,0,0,0-4.42,9.43c.59.36,9.43,1.08,10.39,1.55s5.85,4.42,6.69,4.42a5.64,5.64,0,0,0,2.26-1.07s-1.79-1.55-2-3,.6-3.58,1.56-3.82a2.23,2.23,0,0,1,1.67.24,1.76,1.76,0,0,0-.48-2.63c-1.67-1-4.18-1.55-5.49-1s-1.44.71-2.15.71S226.62,230.74,226.62,230.74Z"/><path class="cls-10" d="M355.19,188.91l-7.4.73s-2.51,3.06-2.56,5a3.46,3.46,0,0,0,3.08,3.65c1.69,0,4.31-1.67,4.77-1.74s2.31-.6,2.74-1.69S357.61,190.92,355.19,188.91Z"/><path class="cls-28" d="M371.31,255.52l-7.55-.48s-.65,1.45-1.51,1.75-4.68.28-5.75,2.23a3.36,3.36,0,0,0-.34,3.2,51.75,51.75,0,0,0,5.25,1,13.59,13.59,0,0,0,5.54-.59l.06,1.06,3.52.14S372.58,258.34,371.31,255.52Z"/><path class="cls-28" d="M397.28,249.11l-6.62,3.68a3.81,3.81,0,0,1-.31,2.29c-.55.72-3.52,1.08-3.86,3.38s-.06,2.48-.06,2.48l6.19.59a16.81,16.81,0,0,0,4.86-4l.62.86,3-1.78S399.87,250.8,397.28,249.11Z"/><polygon class="cls-28" points="328.03 197.86 328.2 200.03 372.71 197.39 373.62 193.58 328.03 197.86"/><path class="cls-28" d="M364.36,193c3.37.27,6.71-.55,10-1.25a35.08,35.08,0,0,1,4.89-.79,16.22,16.22,0,0,1,4.2.2,16.57,16.57,0,0,1,11.94,9.4c.12.26.21.48.33.81s.22.64.31,1a16.57,16.57,0,0,1,.45,2c0,.3.06.47.1.82s.05.72.06,1.09a16.64,16.64,0,0,1-.06,2,13.91,13.91,0,0,1-.29,1.87,19.25,19.25,0,0,1-.53,2,16.7,16.7,0,0,1-1.69,3.55,16.27,16.27,0,0,1-5.91,5.47A29.56,29.56,0,0,1,380,224c-2.93.63-5.9,1-8.86,1.48s-6.21,1.1-9.26,1.88a53.85,53.85,0,0,0-17.2,7.38,19.21,19.21,0,0,0-6.23,6.26c-1.35,2.4-1.9,5.46-.17,7.83a8.28,8.28,0,0,0,3.73,2.68,28.68,28.68,0,0,0,4.56,1.32,43.41,43.41,0,0,0,20.64-.43c3.19-.85,6.27-2.06,9.39-3.15a41.55,41.55,0,0,1,9.35-2.38c.8-.08,1.6-.13,2.4-.13.35,0,.7,0,1,0l.42,0,.24,0c-.13,0,.1,0,.12,0a9.87,9.87,0,0,1,1.87.48,4,4,0,0,1,.64.27,7,7,0,0,1,.84.48l.16.12c.11.08-.14-.12,0,0s.22.18.32.28a2.76,2.76,0,0,1,.29.3l.08.09.07.09a4,4,0,0,1,.41.73c-.06-.15,0,0,0,0l.06.19a3.84,3.84,0,0,1,.11.46.82.82,0,0,0,1,.58.83.83,0,0,0,.58-1c-.47-2.67-3.11-4.13-5.55-4.64a16,16,0,0,0-4.32-.21,30.1,30.1,0,0,0-4.9.77,93,93,0,0,0-9.49,3.09,56.22,56.22,0,0,1-9.68,2.67,41.89,41.89,0,0,1-10.19.39,41.11,41.11,0,0,1-5.06-.73,30.82,30.82,0,0,1-4.74-1.32,6.48,6.48,0,0,1-3.18-2.25,4.21,4.21,0,0,1-.42-.78c.06.15,0-.11,0-.11a2.25,2.25,0,0,1-.08-.24,4.37,4.37,0,0,1-.12-.49,1.87,1.87,0,0,1,0-.25s0,.14,0,0a4.19,4.19,0,0,1,0-.5c0-.14,0-.28,0-.42a2.17,2.17,0,0,1,0-.38,11.78,11.78,0,0,1,4.38-6.74,37.68,37.68,0,0,1,7.75-4.86,54.62,54.62,0,0,1,8.69-3.32,88.78,88.78,0,0,1,9.26-2.15c3-.54,6-.92,9-1.45,5.75-1,11.82-2.75,15.82-7.28A18.3,18.3,0,0,0,397.89,203a17.88,17.88,0,0,0-18.75-13.72c-3.42.27-6.71,1.28-10.09,1.81a20.39,20.39,0,0,1-4.68.22.82.82,0,0,0-.83.81.85.85,0,0,0,.82.83Z"/><path class="cls-33" d="M373.38,141.7,366.69,134l-4.26-.24-6.56,1.47c-1.1,2.39-2.05,5.59-.29,8.78s3.15,4.22,2.81,5.54-1.87,2.1-1.71,2.9,1.8,1.4,1.8,1.4,2.88,3.29,4,4.4,6.7-.56,6.7-.56l3.24-2.21,1.07-4.77Z"/><path class="cls-2" d="M372.13,153.89s-5.66,4.64-9.4,7.93-11.09,13.81-12.32,16a55.56,55.56,0,0,0-2.56,5.35,23.2,23.2,0,0,0-1.47,5,4.4,4.4,0,0,0,4.39,5c3.74.17,5.56-3.59,5.56-3.59a11.16,11.16,0,0,0,1.5-1.68c.85-1.13,1.77-3.16,2.11-3.58s2.8-2.93,2.8-2.93,2.76,10.57,2,12.35-5.71,25-5.46,38.06a99.68,99.68,0,0,0,3.41,23.76s6,1.4,9.88.6c0,0,1.76-23.54,4-28.77,0,0,7.64,21.86,11.09,26.44a12,12,0,0,0,11.7-4.89s-6.13-18.34-6.85-25.85,8.07-20.76,1.92-44.3c0,0,8-3.39,7.85-7.46S389,151.7,383.92,150.59,374.3,152.27,372.13,153.89Z"/><g class="cls-34"><path class="cls-2" d="M372.13,153.89s-5.66,4.64-9.4,7.93-11.09,13.81-12.32,16a55.56,55.56,0,0,0-2.56,5.35,23.2,23.2,0,0,0-1.47,5,4.4,4.4,0,0,0,4.39,5c3.74.17,5.56-3.59,5.56-3.59a11.16,11.16,0,0,0,1.5-1.68c.85-1.13,1.77-3.16,2.11-3.58s2.8-2.93,2.8-2.93,2.76,10.57,2,12.35-5.71,25-5.46,38.06a99.68,99.68,0,0,0,3.41,23.76s6,1.4,9.88.6c0,0,1.76-23.54,4-28.77,0,0,7.64,21.86,11.09,26.44a12,12,0,0,0,11.7-4.89s-6.13-18.34-6.85-25.85,8.07-20.76,1.92-44.3c0,0,8-3.39,7.85-7.46S389,151.7,383.92,150.59,374.3,152.27,372.13,153.89Z"/><path class="cls-35" d="M390.59,253.92c-.83-2.32-2.52-7.08-4.35-12.18-2.56-7.14-6.38-24.31-6.19-24.75-2.19,3.92-3.51,10.39-3.51,10.39s7.64,21.86,11.09,26.44A11.93,11.93,0,0,0,390.59,253.92Z"/><path class="cls-35" d="M362.74,181.38s2.76,10.57,2,12.35a31.74,31.74,0,0,0-1,3.71,9.47,9.47,0,0,0,4.07-2.84c3.32-3.79,1.81-19.71,1.81-19.71Z"/><path class="cls-2" d="M394.94,180a71.51,71.51,0,0,0-4.84-14.16"/><path class="cls-2" d="M376.19,228.69a44.1,44.1,0,0,1,4.71-13.18,2.94,2.94,0,0,1,.47-.68,3.14,3.14,0,0,1,.95-.56,23.27,23.27,0,0,0,4-2.33"/><path class="cls-2" d="M381.41,213.52a27.61,27.61,0,0,1,4.24-2.39"/></g><path class="cls-2" d="M355.87,135.25c2.7-5.18,11.08-9.67,17.94-6.72s8.93,10.57,7.61,15.53-3,5.85-2.14,6.6-7.68,4.2-7.68,4.2-.1-8.25-6-14.05C358.89,134.29,355.87,135.25,355.87,135.25Z"/><g class="cls-36"><path class="cls-28" d="M357.71,136.1a4.35,4.35,0,0,1,1.25-2,.28.28,0,0,0-.39-.39,4.9,4.9,0,0,0-1.38,2.27.27.27,0,0,0,.52.15Z"/><path class="cls-28" d="M358.92,136.87a4.86,4.86,0,0,1,1-1.6.27.27,0,0,0-.39-.38,5.21,5.21,0,0,0-1.12,1.84.27.27,0,1,0,.52.14Z"/><path class="cls-28" d="M361.67,138.15a6.81,6.81,0,0,1,1.3-1.63.28.28,0,0,0-.39-.39,7.56,7.56,0,0,0-1.38,1.75.26.26,0,0,0,.1.37.27.27,0,0,0,.37-.1Z"/><path class="cls-28" d="M362.27,139a3.27,3.27,0,0,1,.25-.36l0,0h0l.07-.09.14-.16a5.2,5.2,0,0,1,.63-.61.27.27,0,0,0,0-.38.28.28,0,0,0-.39,0,5.49,5.49,0,0,0-1.21,1.38.29.29,0,0,0,.1.38.27.27,0,0,0,.37-.1Z"/><path class="cls-28" d="M363.4,139.79a4.36,4.36,0,0,0,1.76-1.27.27.27,0,0,0,0-.38.26.26,0,0,0-.38,0,3.89,3.89,0,0,1-.34.36l-.18.17-.09.07,0,0-.05,0-.41.26-.23.11-.11.05h0l-.07,0a.27.27,0,0,0-.19.33.28.28,0,0,0,.33.2Z"/><path class="cls-28" d="M365.45,142l1.71-1.67a.29.29,0,0,0,0-.39.28.28,0,0,0-.39,0l-1.71,1.67a.29.29,0,0,0,0,.39.28.28,0,0,0,.39,0Z"/><path class="cls-28" d="M366.84,143.23a13.87,13.87,0,0,1,1.81-1.43.28.28,0,0,0,.1-.38.26.26,0,0,0-.37-.09,14.18,14.18,0,0,0-1.93,1.52.27.27,0,0,0,0,.38.28.28,0,0,0,.39,0Z"/><path class="cls-28" d="M367.1,144l1.54-1.14a.27.27,0,0,0,.09-.37.28.28,0,0,0-.37-.1l-1.54,1.14a.27.27,0,1,0,.28.47Z"/><path class="cls-28" d="M368.07,146a10.65,10.65,0,0,0,2.65-1.17c.3-.18,0-.66-.28-.47a9.56,9.56,0,0,1-2.51,1.11.27.27,0,0,0,.14.53Z"/><path class="cls-28" d="M369.2,147.8a11,11,0,0,0,2-.75.27.27,0,0,0-.27-.47,10.32,10.32,0,0,1-1.88.69.27.27,0,0,0,.14.53Z"/><path class="cls-28" d="M369.2,148.63a5.22,5.22,0,0,0,2.33-1.15.28.28,0,0,0,0-.39.29.29,0,0,0-.39,0,4.6,4.6,0,0,1-2.08,1,.28.28,0,0,0-.19.34.27.27,0,0,0,.33.19Z"/><path class="cls-28" d="M370.11,150.45a7.13,7.13,0,0,0,2.14-.42.27.27,0,1,0-.14-.53,6.48,6.48,0,0,1-2,.41.27.27,0,1,0,0,.54Z"/><path class="cls-28" d="M370.5,152.08a9,9,0,0,0,2.05-.41.27.27,0,0,0,.19-.33.28.28,0,0,0-.33-.2,8.31,8.31,0,0,1-1.91.39.28.28,0,0,0,0,.55Z"/><path class="cls-28" d="M370.49,153.05a2.8,2.8,0,0,0,1.81-.37.29.29,0,0,0,.1-.38.29.29,0,0,0-.38-.09l-.2.1a.2.2,0,0,1-.08,0s0,0,0,0l-.05,0a2.64,2.64,0,0,1-.4.12l-.09,0h-.06s0,0,0,0h-.2a3.17,3.17,0,0,1-.43,0,.26.26,0,0,0-.27.27.28.28,0,0,0,.27.27Z"/></g><path class="cls-28" d="M359.64,147.22s.14.16,0,.05l.09.12.18.26a6,6,0,0,1,.31.55,2.44,2.44,0,0,1,.14.28s.09.19,0,0a.94.94,0,0,1,.06.15c.08.2.14.4.2.6a.54.54,0,1,0,1.05-.28,6.79,6.79,0,0,0-1.32-2.54.54.54,0,0,0-.77,0,.56.56,0,0,0,0,.77Z"/><path class="cls-28" d="M358.56,145.07s.07-.1,0,0,0,0,0,0l.1-.11a.69.69,0,0,1,.13-.11s0,0,.05-.05-.09.07,0,0a2.26,2.26,0,0,1,.26-.16l.13-.06h0l.07,0,.3-.08h.06c.12,0-.09,0,0,0h.15l.32,0c.07,0-.11,0,0,0l.08,0,.17,0a.56.56,0,0,0,.67-.38.56.56,0,0,0-.38-.68,2.73,2.73,0,0,0-3,1.07.54.54,0,0,0,.2.75.56.56,0,0,0,.74-.2Z"/><path class="cls-31" d="M357.8,150.67c-.55.71-1.23,1.25-1.12,1.8.15.81,1.8,1.4,1.8,1.4s2.88,3.29,4,4.4a2.86,2.86,0,0,0,2,.36l4-4.32L366,148.92Z"/><path class="cls-37" d="M329.93,199l-13.88,1.39a7.73,7.73,0,0,0-4.82,2.33L307,207.06"/><path class="cls-38" d="M306.16,207.69,272.1,211.2s9.91,28.47,10.58,28.15S306.16,207.69,306.16,207.69Z"/><polygon class="cls-28" points="306.48 206.13 304.72 207.01 306.84 209.29 307.86 207.59 306.48 206.13"/><line class="cls-21" x1="366.07" y1="149.13" x2="370" y2="147.49"/><line class="cls-21" x1="368.25" y1="154.29" x2="371.49" y2="152.68"/><path class="cls-39" d="M129.5,131.74c-2.63,3.94-1.69,7.32-3.57,7.7s-3.57-.94-4.13-.38,0,3.94,0,3.94-3,6.95-.94,9,6.57,2.81,7.14,3.38,2.06,4.88,2.06,4.88l6.58.19,4.69-10.33.94-22.16C138.14,126.85,132.13,127.79,129.5,131.74Z"/><path class="cls-31" d="M131.94,145.45l-6.7-5.95c-1.59,0-2.95-.93-3.44-.44s0,3.94,0,3.94-2.11,4.91-1.56,7.7l8.41,2.16Z"/><line class="cls-21" x1="131.05" y1="145.73" x2="136.73" y2="148.36"/><line class="cls-21" x1="128.68" y1="152.31" x2="134.59" y2="154.35"/><path class="cls-28" d="M147.53,269.29l-9.39-1.22a8.38,8.38,0,0,1-.1,2.63c-.28.47-3.28,0-5.35,1.41s-1.59,4.13-1.59,4.13l10.14-.1,1.59-1.31-.09,1.78,5.26-.28A17.09,17.09,0,0,0,147.53,269.29Z"/><path class="cls-28" d="M175,267.13a11.25,11.25,0,0,0-.28-2.44c-.29-1-2-2-2-2l-6.57,2.91,2.16,5.44c-2.72.1-3.47,3.38-3.38,3.85s7.89.47,8.83-.37,1.22-5.64,1.22-5.64l-.85-1.22Z"/><path class="cls-2" d="M104.71,134.18s16.25,14.36,17.56,16,11,7.05,11,7.05l9-29.3s5.07-.19,9.95,8.08c5.65,9.55-.75,18.21-5.44,19.53s-5.83,2.44-5.64,3,4.51,6,6.39,9,6.19,28.92,7.7,32.12S160.48,210,161.05,214s2.81,19.15,3.38,22,9.76,26.85,9.76,26.85l-8.82,4.32-18.22-35.3,1.13,37.74-11.64.38s-6-27.61-8.08-37.18-1.69-26.48-1.69-26.48-.56-.57-1.69-4.32-2.07-25.73-2.07-25.73S112.79,163.1,106.21,156,96.07,138.87,97,137.37,104.71,134.18,104.71,134.18Z"/><path class="cls-40" d="M110.68,139.49c-3.28-2.93-6-5.31-6-5.31S98,135.87,97,137.37c-.39.62,0,2.7,1,5.41a4.82,4.82,0,0,1,2.09,0c2.94.49,3.27,1.31,5.07-.32s2-2,4.08-2.46A6,6,0,0,0,110.68,139.49Z"/><g class="cls-41"><path class="cls-28" d="M147.81,232.34c0-1-.24-2-.32-3a5,5,0,0,1,.54-2.93,26.81,26.81,0,0,1,1.73-2.61c.63-.87,1.29-1.71,2-2.53.29-.33-.2-.82-.48-.48-.73.86-1.42,1.75-2.08,2.66a24.41,24.41,0,0,0-1.79,2.71,5.38,5.38,0,0,0-.59,3c.06,1.09.3,2.16.33,3.26a.35.35,0,0,0,.69,0Z"/><path class="cls-28" d="M149.9,225.47a28.65,28.65,0,0,1,3-2.42.34.34,0,0,0,.12-.46.36.36,0,0,0-.47-.13,29.9,29.9,0,0,0-3.09,2.53c-.32.3.16.78.48.48Z"/><path class="cls-28" d="M131.89,156.91a19.92,19.92,0,0,1,2.82,1.67,16.66,16.66,0,0,1,2.27,2,45,45,0,0,1,3.86,4.73c.26.35.86,0,.59-.35a47.55,47.55,0,0,0-4-4.87,19.73,19.73,0,0,0-2.33-2.06,20.68,20.68,0,0,0-2.9-1.72c-.39-.21-.74.39-.35.59Z"/><path class="cls-28" d="M141.19,130.1l2.12.52a.35.35,0,0,0,.18-.67l-2.12-.51a.34.34,0,1,0-.18.66Z"/><path class="cls-28" d="M140.63,132a14.53,14.53,0,0,1,2.4.84.34.34,0,1,0,.34-.59,15.59,15.59,0,0,0-2.56-.91.34.34,0,1,0-.18.66Z"/><path class="cls-28" d="M139.9,133a8.36,8.36,0,0,0,2.07,1,.34.34,0,0,0,.42-.24.36.36,0,0,0-.24-.42,7.6,7.6,0,0,1-1.91-.91.34.34,0,1,0-.34.59Z"/><path class="cls-28" d="M139.08,135.5a23.55,23.55,0,0,1,2.54,1.2c.39.21.73-.38.34-.59a24.59,24.59,0,0,0-2.7-1.27.34.34,0,0,0-.42.24.35.35,0,0,0,.24.42Z"/><path class="cls-28" d="M138.87,137.17a13.16,13.16,0,0,1,1.82.69.36.36,0,0,0,.47-.13.34.34,0,0,0-.13-.47,15.21,15.21,0,0,0-2-.75.34.34,0,0,0-.42.24.36.36,0,0,0,.24.42Z"/><path class="cls-28" d="M137.62,140a11.73,11.73,0,0,1,2.33.53.34.34,0,0,0,.42-.23.36.36,0,0,0-.24-.43,13.58,13.58,0,0,0-2.51-.56.34.34,0,0,0-.34.34.34.34,0,0,0,.34.35Z"/><path class="cls-28" d="M137.25,142.61c.32.08.64.18.95.29a7.46,7.46,0,0,1,.88.37.34.34,0,0,0,.34-.6,10.75,10.75,0,0,0-2-.72.35.35,0,0,0-.42.24.34.34,0,0,0,.24.42Z"/><path class="cls-28" d="M136.61,144l1.76.35a.36.36,0,0,0,.43-.24.36.36,0,0,0-.24-.42l-1.76-.35a.34.34,0,1,0-.19.66Z"/><path class="cls-28" d="M135,147.22c.89.37,1.77.78,2.63,1.23a.35.35,0,0,0,.47-.12.34.34,0,0,0-.13-.47c-.91-.48-1.84-.91-2.79-1.3a.34.34,0,0,0-.42.24.35.35,0,0,0,.24.42Z"/><path class="cls-28" d="M134.72,149.51l2,.84a.35.35,0,0,0,.42-.24.35.35,0,0,0-.24-.42l-2-.85a.35.35,0,0,0-.42.24.36.36,0,0,0,.24.43Z"/><path class="cls-28" d="M133.92,151.39c.66.31,1.3.65,1.93,1a.34.34,0,0,0,.47-.13.34.34,0,0,0-.12-.46c-.64-.36-1.28-.69-1.94-1a.34.34,0,0,0-.46.12.35.35,0,0,0,.12.47Z"/><path class="cls-28" d="M133.3,153.29a12.13,12.13,0,0,0,1.95,1.63.34.34,0,0,0,.47-.13.35.35,0,0,0-.12-.47,5.62,5.62,0,0,1-.5-.35l0,0,0,0s0,0,0,0l-.12-.1-.23-.19a11.65,11.65,0,0,1-.89-.83.34.34,0,0,0-.48,0,.36.36,0,0,0,0,.49Z"/><path class="cls-28" d="M132.94,155.27a10.14,10.14,0,0,0,2.12,1.74.34.34,0,0,0,.34-.59l-.54-.36-.13-.1-.07-.05s0,0,0,0l-.27-.22a10,10,0,0,1-.94-.9.35.35,0,0,0-.49.49Z"/></g><path class="cls-28" d="M129.32,138.13c-.08.38-.17.76-.29,1.14-.06.18-.12.36-.19.54a1.36,1.36,0,0,0-.11.28l0-.07,0,.06-.07.16a.72.72,0,0,0-.07.52.66.66,0,0,0,.32.41.68.68,0,0,0,.93-.25,11,11,0,0,0,.79-2.43.81.81,0,0,0-.07-.53.74.74,0,0,0-.41-.31.68.68,0,0,0-.84.48Z"/><path class="cls-28" d="M130.43,135.07a1.82,1.82,0,0,1,.33,0l-.18,0a1.69,1.69,0,0,1,.44.12l-.16-.07a1.87,1.87,0,0,1,.41.25l-.13-.11a2,2,0,0,1,.36.36l-.11-.14a2,2,0,0,1,.26.44l-.07-.17a1.69,1.69,0,0,1,.12.44l0-.18a1.94,1.94,0,0,1,0,.24.69.69,0,0,0,.68.69.71.71,0,0,0,.69-.68,2.59,2.59,0,0,0-2.62-2.55.68.68,0,0,0-.69.68.7.7,0,0,0,.68.69Z"/><path class="cls-40" d="M124.13,193.5l4.34-10.31-5.36-6.95S123.53,185.9,124.13,193.5Z"/><path class="cls-42" d="M97.46,112.21c-5.44-.51-5.23,7.52-5.07,11.45s-6,14.06-6,14.06,2.78,0,4.09,1.63,2.29,4.26,4.41,2.62,1.8-2.62,4.74-2.13,3.27,1.31,5.07-.32,2-2,4.09-2.46a10.9,10.9,0,0,0,4.25-2.61s-5.56-5.4-7.68-9.81S102.69,112.7,97.46,112.21Z"/><circle class="cls-43" cx="27.47" cy="292.27" r="13.97"/></g></g></svg>