<svg id="Layer_1" data-name="Layer 1" xmlns="http://www.w3.org/2000/svg" viewBox="0 0 1062 418"><defs><style>.cls-1{fill:#91278e;opacity:0.1;}.cls-2{fill:#852880;}</style></defs><circle class="cls-1" cx="933.55" cy="324.41" r="27.95"/><circle class="cls-1" cx="183.45" cy="327.64" r="24.81"/><path d="M307.32,40.86h27v5.39h-21.2V61.72H333.7V67.1H313.12V87.54h21.2v5.39h-27Z"/><path d="M348,38.65l40.6,42.54V40.86h5.8V95.27l-40.6-42.46V92.93H348Z"/><path d="M432.3,51a13.77,13.77,0,0,0-3.62-4.17,8.91,8.91,0,0,0-5.36-1.49,9.16,9.16,0,0,0-3.27.59,8.74,8.74,0,0,0-2.77,1.66,7.6,7.6,0,0,0-2.59,5.83,5.47,5.47,0,0,0,.8,2.94,9,9,0,0,0,2,2.24,12.68,12.68,0,0,0,2.62,1.66l2.76,1.31,3.45,1.52a46.64,46.64,0,0,1,4.8,2.38,19,19,0,0,1,4,3,12.84,12.84,0,0,1,2.73,3.93,13,13,0,0,1,1,5.36,15.64,15.64,0,0,1-1.28,6.38A15.38,15.38,0,0,1,434,89.2a16.84,16.84,0,0,1-5.21,3.38,16.27,16.27,0,0,1-6.35,1.24,17.13,17.13,0,0,1-5.8-1,15.61,15.61,0,0,1-8.36-7,18.24,18.24,0,0,1-2.07-5.52l5.66-1.59A11.79,11.79,0,0,0,413,82.53a11.4,11.4,0,0,0,2.24,3.08,10.21,10.21,0,0,0,3.14,2.07,9.79,9.79,0,0,0,3.87.76,10.77,10.77,0,0,0,4-.76,11.09,11.09,0,0,0,3.42-2.11,10.15,10.15,0,0,0,2.38-3.21,9.23,9.23,0,0,0,.9-4.07,8.2,8.2,0,0,0-.83-3.87A9.25,9.25,0,0,0,430,71.66a14.9,14.9,0,0,0-3.07-2c-1.16-.57-2.33-1.14-3.53-1.69l-3.17-1.38q-2.28-1-4.35-2.21a17.64,17.64,0,0,1-3.63-2.69,11.37,11.37,0,0,1-2.45-3.56,12,12,0,0,1-.9-4.87,12.34,12.34,0,0,1,4.39-9.66,14.8,14.8,0,0,1,4.66-2.66,16.41,16.41,0,0,1,5.52-.93A14.86,14.86,0,0,1,436.93,48Z"/><path d="M456.4,71.87v3a22,22,0,0,0,.21,3,14.31,14.31,0,0,0,.69,2.94,10.06,10.06,0,0,0,1.38,2.66,10.92,10.92,0,0,0,4.66,3.69,14.52,14.52,0,0,0,5.83,1.28,14,14,0,0,0,5.63-1.21,11.8,11.8,0,0,0,4.59-3.42A8.91,8.91,0,0,0,481,81.12a16.88,16.88,0,0,0,.75-3A19.49,19.49,0,0,0,482,75V40.86h5.8V73.45c0,1.43-.05,2.78-.14,4a21.47,21.47,0,0,1-.59,3.7,13.83,13.83,0,0,1-1.38,3.45,16.21,16.21,0,0,1-2.45,3.25,18,18,0,0,1-6.39,4.41,19.71,19.71,0,0,1-7.63,1.52,20.35,20.35,0,0,1-7.28-1.34,17.32,17.32,0,0,1-6.18-4A16.21,16.21,0,0,1,453,85.16a14.69,14.69,0,0,1-1.52-3.56,22.05,22.05,0,0,1-.69-3.9c-.11-1.36-.17-2.77-.17-4.25V40.86h5.8Z"/><path d="M507.29,92.93h-5.8V40.86H509a42.33,42.33,0,0,1,7.15.59,17.53,17.53,0,0,1,6.08,2.18A11.81,11.81,0,0,1,526.48,48a14.51,14.51,0,0,1,1.59,7.22,14.26,14.26,0,0,1-3.49,9.94A14,14,0,0,1,515,69.59l16.57,23.34h-7.11L508.74,70.07h-1.45Zm0-28h1.79a36.45,36.45,0,0,0,4.84-.31,12.29,12.29,0,0,0,4.21-1.31,7.91,7.91,0,0,0,3-2.83,9.12,9.12,0,0,0,1.14-4.87,10.09,10.09,0,0,0-1.1-5.07,7.16,7.16,0,0,0-2.94-2.84,12.26,12.26,0,0,0-4.21-1.2,42.27,42.27,0,0,0-5-.28h-1.72Z"/><path d="M548.3,92.93h-5.8V40.86h5.8Z"/><path d="M562.66,38.65l40.6,42.54V40.86h5.8V95.27l-40.6-42.46V92.93h-5.8Z"/><path d="M671.76,66.76c0,1.75,0,3.43-.1,5a26.84,26.84,0,0,1-.76,4.69,22.9,22.9,0,0,1-1.66,4.42,20,20,0,0,1-2.87,4.21,24.51,24.51,0,0,1-8.7,6.43,25.76,25.76,0,0,1-10.56,2.27,25.46,25.46,0,0,1-10.39-2.14,27.3,27.3,0,0,1-14.26-14.26A25.43,25.43,0,0,1,620.32,67a26.16,26.16,0,0,1,2.14-10.53,27.12,27.12,0,0,1,14.43-14.39A26.37,26.37,0,0,1,647.45,40a25.83,25.83,0,0,1,12.4,2.93,30,30,0,0,1,9.63,8.32l-4.21,3.94a25.39,25.39,0,0,0-7.7-7.22,19.7,19.7,0,0,0-10.18-2.59A20,20,0,0,0,639,47.11a21.89,21.89,0,0,0-6.73,4.73,22.18,22.18,0,0,0-4.52,6.91,21.2,21.2,0,0,0-1.66,8.35A20.36,20.36,0,0,0,627.71,75a21.54,21.54,0,0,0,4.48,6.77A24.65,24.65,0,0,0,639,86.57a18.16,18.16,0,0,0,8,1.87,20.41,20.41,0,0,0,12.67-4.52,17.35,17.35,0,0,0,4.28-5.15,13.62,13.62,0,0,0,1.63-6.63H650.08V66.76Z"/><path d="M364.17,347.51V326.39H370v52.06h-5.8V352.9H337.51v25.55h-5.8V326.39h5.8v21.12Z"/><path d="M408.7,325.49a26.61,26.61,0,0,1,10.53,2.1,27.26,27.26,0,0,1,8.63,5.8,27.92,27.92,0,0,1,5.84,8.6,26.8,26.8,0,0,1,0,21,27,27,0,0,1-5.84,8.53,27.57,27.57,0,0,1-8.63,5.73,27.33,27.33,0,0,1-21.06,0,27.57,27.57,0,0,1-8.63-5.73,26.84,26.84,0,0,1-5.83-8.53,26.69,26.69,0,0,1,0-21,27.72,27.72,0,0,1,5.83-8.6,27.26,27.26,0,0,1,8.63-5.8A26.61,26.61,0,0,1,408.7,325.49Zm0,5.38a21.14,21.14,0,0,0-15.16,6.32,22.05,22.05,0,0,0-4.52,6.87,21.42,21.42,0,0,0-1.65,8.36,21.15,21.15,0,0,0,1.65,8.32,21.71,21.71,0,0,0,11.36,11.49,20.87,20.87,0,0,0,16.64,0,21.83,21.83,0,0,0,6.8-4.66,21.42,21.42,0,0,0,4.56-6.83,21,21,0,0,0,1.66-8.32,21.25,21.25,0,0,0-1.66-8.36,21.88,21.88,0,0,0-4.52-6.87,21.14,21.14,0,0,0-15.16-6.32Z"/><path d="M453,373.06h14.36v5.39H447.16V326.39H453Z"/><path d="M482.44,378.45h-5.79V326.39h5.79Z"/><path d="M496.46,326.39h9.81c1.93,0,3.79.08,5.59.24a29.07,29.07,0,0,1,5.18.93,24.8,24.8,0,0,1,4.87,1.93,25.7,25.7,0,0,1,4.66,3.18,23.52,23.52,0,0,1,6.56,8.91,28.41,28.41,0,0,1,2.07,10.91,27,27,0,0,1-2.07,10.63,24.42,24.42,0,0,1-6.43,8.77,25.71,25.71,0,0,1-4.69,3.35,24.13,24.13,0,0,1-4.87,2,28,28,0,0,1-5.25,1q-2.73.24-5.76.24h-9.67Zm10,46.67c1.57,0,3.09-.07,4.56-.2a23.48,23.48,0,0,0,4.25-.8,18,18,0,0,0,3.93-1.66,20.11,20.11,0,0,0,8.57-9.7,21.51,21.51,0,0,0,1.62-8.28,22.31,22.31,0,0,0-1.69-8.57,19,19,0,0,0-5.08-7,17.57,17.57,0,0,0-7.56-4.11,37.66,37.66,0,0,0-8.6-.93h-4.21v41.29Z"/><path d="M554.53,363.67l-6.28,14.78H541.9l24-54.55,23.41,54.55h-6.42l-6.15-14.78Zm11.26-26.24-8.91,20.86h17.61Z"/><path d="M586.85,326.39h6.69l13.26,23.2,13.26-23.2h6.7L609.7,356.08v22.37h-5.8V356.08Z"/><path d="M642.36,371.61a3.78,3.78,0,0,1,2.73,1.11,3.59,3.59,0,0,1,1.14,2.69,3.82,3.82,0,0,1-1.14,2.76,3.75,3.75,0,0,1-5.46,0,3.82,3.82,0,0,1-1.14-2.76,3.59,3.59,0,0,1,1.14-2.69A3.78,3.78,0,0,1,642.36,371.61Zm-2.83-45.22h5.66v41.49h-5.66Z"/><path class="cls-2" d="M477,281.31l-12.92-14.77q-10,9.81-19.69,14.1a53.33,53.33,0,0,1-21.86,4.29q-22.32,0-35.5-11.88t-13.17-31.52a40,40,0,0,1,7.9-23.88q7.9-11,24.13-20.56-8.57-8.47-12.14-16.23A39.88,39.88,0,0,1,390.16,164q0-15.4,11-24.6t29.61-9.2q17.88,0,28.42,8.69t10.54,23.25a30.84,30.84,0,0,1-6.15,18.5q-6.15,8.47-21.54,18.91l25.63,29.66q6.6-6.3,12-12t10-11.42l16.64,17.77q-5.28,5.9-10.86,11.84t-12.19,12.45L511,281.31Zm-28.42-32.76L420,214.24l-3.2,2.28q-7.76,5.68-11.37,11.26a21.48,21.48,0,0,0-3.61,11.89,19.33,19.33,0,0,0,6.3,14.36,20.79,20.79,0,0,0,15,6.1,34.36,34.36,0,0,0,14.37-2.95A29.67,29.67,0,0,0,448.55,248.55Zm-21.19-63.76,5.38-3.2a27.46,27.46,0,0,0,8.83-8.12,17.64,17.64,0,0,0,2.95-9.87,14.37,14.37,0,0,0-4-10.54,13.74,13.74,0,0,0-10.18-4,14.73,14.73,0,0,0-10.85,4.09,14.34,14.34,0,0,0-4.14,10.69,17,17,0,0,0,1.19,6.1A20,20,0,0,0,420,175.7Z"/><path d="M555.39,256.11H537.85v25.2H526.2V221.55h29.19v10.29H537.85v13.94h17.54Z"/><path d="M605.71,258.09q0,11.88-5.63,18.19t-16.16,6.31q-10.38,0-16.09-6.48t-5.71-18V221.55h12v38.59q0,5.76,2.5,8.75t7.26,3q5,0,7.35-2.9t2.4-8.83V221.55h12Z"/><path d="M665.52,281.31H654.1L626.27,241v40.33H614.85V221.55h11.42l27.83,40.18V221.55h11.42Z"/><path d="M695.17,266.49H673.53v-10.3h21.64Z"/><path d="M731.75,256.11H714.21v25.2H702.56V221.55h29.19v10.29H714.21v13.94h17.54Z"/><path d="M750.06,281.31H738.41V221.55h11.65Z"/><path d="M785.94,281.31H759.62V221.55h11.65V271h14.67Z"/><path d="M817.8,281.31H791.48V221.55h11.65V271H817.8Z"/><path d="M853.3,281.31h-30V221.55h30v10.29H835.22v13.94H853.3v10.33H835.22V271H853.3Z"/><path d="M906.1,251.51q0,14.16-8.44,22t-23.61,7.82H861.2V221.55h11.92q15.95,0,24.46,7.68T906.1,251.51Zm-12.16-.08q0-9.26-4.79-14.42t-13.44-5.17h-2.86V271h2.86q8.6,0,13.42-5.13T893.94,251.43Z"/><path d="M186.45,193.51h-13l-3.91-13.24H149l-4,13.24h-13l20.29-59.77h13.86Zm-19.66-22.76-7.55-25.43-7.51,25.43Z"/><path d="M248.35,177q0,8.55-5,13.16t-14.48,4.61a25.45,25.45,0,0,1-11.38-2.38,14.9,14.9,0,0,1-7-6.68l7.36-8.24a10.33,10.33,0,0,0,4.31,5,12.45,12.45,0,0,0,6.72,2,8.1,8.1,0,0,0,5.57-1.7,6.35,6.35,0,0,0,1.9-5,6.94,6.94,0,0,0-2.54-5.19,50.55,50.55,0,0,0-9-5.89q-7-3.9-9.95-7.93a15.87,15.87,0,0,1-2.9-9.52q0-7.67,5-12.24t13.65-4.56a20.73,20.73,0,0,1,9.21,1.95,17.21,17.21,0,0,1,6.66,5.83l-7.16,7.82a9.13,9.13,0,0,0-3.64-3.8,10.09,10.09,0,0,0-5.23-1.51,7.15,7.15,0,0,0-4.91,1.61,5.06,5.06,0,0,0-1.82,4q0,4.75,8.47,9.33c1,.54,1.84,1,2.4,1.27q7.44,4.16,10.57,8.25A15.71,15.71,0,0,1,248.35,177Z"/><path d="M303.08,193.51h-13l-3.91-13.24H265.65l-3.95,13.24h-13L269,133.74h13.86Zm-19.66-22.76-7.55-25.43-7.51,25.43Z"/><path d="M337,168.31H319.46v25.2H307.81V133.74H337V144H319.46V158H337Z"/><path d="M374.08,193.51h-30V133.74h30V144H356V158h18.08v10.33H356v14.9h18.08Z"/></svg>