<svg id="Layer_1" data-name="Layer 1" xmlns="http://www.w3.org/2000/svg" viewBox="0 0 1062 153"><defs><style>.cls-1{fill:#ec5039;opacity:0.1;}.cls-2{fill:#f4aa1b;opacity:0.15;}.cls-3{fill:#7e298a;}.cls-4{fill:#fff;}</style></defs><circle class="cls-1" cx="540.06" cy="37.26" r="11.26"/><circle class="cls-2" cx="872.61" cy="22.44" r="14.44"/><rect class="cls-3" x="185.15" y="42.48" width="278.41" height="74.97" rx="12"/><path class="cls-4" d="M263,57a3,3,0,0,0-2.49-1.36,2,2,0,0,0-2,1.87c0,2.79,6.58,1.62,6.58,7.19,0,3.32-2.07,5.68-5.46,5.68a5.86,5.86,0,0,1-5.1-3.24l2.09-2a3.41,3.41,0,0,0,3,2.42,2.21,2.21,0,0,0,2.13-2.4c0-1.72-1.58-2.2-2.88-2.71-2.13-.88-3.69-2-3.69-4.53a4.82,4.82,0,0,1,4.84-5,6.77,6.77,0,0,1,4.53,1.85Z"/><path class="cls-4" d="M270.09,69.9H267V61.69H266v-2.6H267V55.44h3.08v3.65H272v2.6h-1.89Z"/><path class="cls-4" d="M275.15,65c0,1.37.52,2.91,2.13,2.91a2.27,2.27,0,0,0,2.07-1.48l2.84.46a5,5,0,0,1-4.91,3.37c-3.34,0-5.39-2.38-5.39-5.66s1.74-5.85,5.24-5.85,5.12,2.62,5.12,5.88V65Zm4.2-1.91a2.26,2.26,0,0,0-2.05-2.18,2.21,2.21,0,0,0-2.06,2.18Z"/><path class="cls-4" d="M286.76,60.22h.05a3.08,3.08,0,0,1,2.68-1.48,3.49,3.49,0,0,1,1.28.27l-.38,2.86a2.13,2.13,0,0,0-1.27-.4c-2.14,0-2.36,1.89-2.36,3.56V69.9h-3.08V59.09h3.08Z"/><path class="cls-4" d="M294.84,69.9h-3.08V51.24h3.08Z"/><path class="cls-4" d="M300.54,54.56a1.83,1.83,0,1,1-1.83-1.82A1.83,1.83,0,0,1,300.54,54.56Zm-.29,15.34h-3.08V59.09h3.08Z"/><path class="cls-4" d="M305.66,60.08h0a3.25,3.25,0,0,1,2.82-1.34c2.9,0,3.74,2,3.74,4.56v6.6h-3.08V64.18c0-1.3.07-3-1.67-3s-1.85,2-1.85,3.34V69.9h-3.08V59.09h3.08Z"/><path class="cls-4" d="M324.63,69.24c0,3.52-1.19,6.42-5.24,6.42-2.64,0-5.3-1.6-5.46-4.49h3.26a2.06,2.06,0,0,0,2.13,1.9c2.18,0,2.22-1.92,2.22-3.55v-.7h0a3.75,3.75,0,0,1-2.95,1.43c-3.17,0-4.86-2.77-4.86-5.68s1.8-5.83,5-5.83a3.58,3.58,0,0,1,2.79,1.39h0v-1h3.09Zm-2.71-4.73c0-1.45-1-3-2.55-3s-2.56,1.59-2.56,3a2.59,2.59,0,1,0,5.11,0Z"/><path class="cls-4" d="M344.36,57.71A4.79,4.79,0,0,0,340.71,56c-3.11,0-4.89,2.86-4.89,5.72s1.85,5.59,4.86,5.59a5.08,5.08,0,0,0,3.68-1.76v3.85a8.73,8.73,0,0,1-3.76,1,8.36,8.36,0,0,1-8.12-8.6c0-4.71,3.32-8.87,8.18-8.87a7.78,7.78,0,0,1,3.7,1Z"/><path class="cls-4" d="M349.88,66.4l-1.36,3.5H345.1l6.47-17h2.51l6.3,17h-3.46l-1.28-3.5Zm2.79-8.67h0l-1.83,6h3.94Z"/><path class="cls-4" d="M372.59,69.9h-3.92l-4-6.69h0V69.9h-3.24V53.31h4.38c3.28,0,5.55,1.45,5.55,5,0,2.11-1.17,4.23-3.39,4.6Zm-8-9H365c1.78,0,3-.53,3-2.55S366.75,56,365,56h-.44Z"/><path class="cls-4" d="M376.87,56.12v3.66H382v2.81h-5.15v4.49h5.35V69.9h-8.58V53.31h8.58v2.81Z"/><path class="cls-4" d="M392.19,57a3,3,0,0,0-2.49-1.36,2,2,0,0,0-2,1.87c0,2.79,6.58,1.62,6.58,7.19,0,3.32-2.06,5.68-5.45,5.68a5.89,5.89,0,0,1-5.11-3.24l2.09-2a3.42,3.42,0,0,0,3,2.42,2.21,2.21,0,0,0,2.13-2.4c0-1.72-1.58-2.2-2.88-2.71-2.14-.88-3.7-2-3.7-4.53a4.83,4.83,0,0,1,4.84-5,6.75,6.75,0,0,1,4.53,1.85Z"/><path class="cls-4" d="M283.57,88.71A4.77,4.77,0,0,0,279.92,87c-3.1,0-4.88,2.86-4.88,5.72s1.85,5.59,4.86,5.59a5.06,5.06,0,0,0,3.67-1.76v3.85a8.73,8.73,0,0,1-3.76,1,8.37,8.37,0,0,1-8.12-8.6c0-4.71,3.33-8.87,8.19-8.87a7.74,7.74,0,0,1,3.69,1Z"/><path class="cls-4" d="M288.7,82.24V91h0a3.39,3.39,0,0,1,2.82-1.26c2.9,0,3.74,2.05,3.74,4.56v6.6h-3.08V95.18c0-1.3.07-3-1.67-3s-1.85,2-1.85,3.34v5.35h-3.08V82.24Z"/><path class="cls-4" d="M307.71,100.9h-3v-1h0a3.74,3.74,0,0,1-2.93,1.34c-3.17,0-5-2.88-5-5.81s1.82-5.7,4.93-5.7a4,4,0,0,1,3,1.37v-1h3ZM305,95.49a2.6,2.6,0,1,0-2.57,3A2.84,2.84,0,0,0,305,95.49Z"/><path class="cls-4" d="M313,91.06h0a3.25,3.25,0,0,1,2.64-1.32,3.43,3.43,0,0,1,3.11,1.7,3.73,3.73,0,0,1,3.14-1.7c2.75,0,3.43,2.07,3.43,4.42v6.74h-3.08V95.22c0-1.06.07-3-1.45-3s-1.65,2.26-1.65,3.38v5.31h-3.08V95.42c0-1.06.13-3.21-1.47-3.21S313,94.45,313,95.59v5.31h-3.08V90.09H313Z"/><path class="cls-4" d="M330.65,91.08a4,4,0,0,1,3-1.34c3.06,0,4.93,2.86,4.93,5.7s-1.8,5.81-5,5.81a3.55,3.55,0,0,1-2.88-1.36h-.05v6.77h-3.08V90.09h3.08Zm4.8,4.41a2.59,2.59,0,1,0-2.55,3C334.48,98.52,335.45,96.94,335.45,95.49Z"/><path class="cls-4" d="M343.52,85.56a1.83,1.83,0,1,1-1.82-1.82A1.82,1.82,0,0,1,343.52,85.56Zm-.28,15.34h-3.08V90.09h3.08Z"/><path class="cls-4" d="M356.17,95.51a5.68,5.68,0,1,1-5.67-5.77A5.46,5.46,0,0,1,356.17,95.51Zm-8.23,0a2.59,2.59,0,1,0,2.56-3A2.82,2.82,0,0,0,347.94,95.51Z"/><path class="cls-4" d="M360.7,91.08h.05a3.22,3.22,0,0,1,2.81-1.34c2.91,0,3.74,2.05,3.74,4.56v6.6h-3.08V95.18c0-1.3.07-3-1.67-3s-1.85,2-1.85,3.34v5.35h-3.08V90.09h3.08Z"/><path class="cls-4" d="M375.05,92.65a2.43,2.43,0,0,0-1.63-.75,1,1,0,0,0-1,.92c0,.79,1.12,1,2.22,1.5a3.12,3.12,0,0,1,2.22,3.1c0,2.4-1.93,3.83-4.2,3.83a5,5,0,0,1-3.81-1.8l1.41-1.83a3.25,3.25,0,0,0,2.29,1.25,1.16,1.16,0,0,0,1.23-1.16c0-.95-1.08-1.17-2.15-1.63a2.89,2.89,0,0,1-2.16-2.84,3.34,3.34,0,0,1,3.43-3.5,5.61,5.61,0,0,1,3.48,1.12Z"/><rect class="cls-3" x="598.43" y="42.48" width="278.41" height="74.97" rx="12"/><path class="cls-4" d="M686.84,61.2v.42c0,4.69-2.4,8.85-7.55,8.85-4.84,0-7.9-4.1-7.9-8.67,0-4.73,3.15-8.8,8.1-8.8A7.15,7.15,0,0,1,686,57l-2.86,1.54a4.21,4.21,0,0,0-3.78-2.64c-3.13,0-4.67,3.19-4.67,5.94s1.56,5.81,4.69,5.81a3.91,3.91,0,0,0,3.78-3.77h-3.52V61.2Z"/><path class="cls-4" d="M699,64.64a5.68,5.68,0,1,1-5.68-5.77A5.46,5.46,0,0,1,699,64.64Zm-8.23,0a2.59,2.59,0,1,0,2.55-3A2.82,2.82,0,0,0,690.73,64.64Z"/><path class="cls-4" d="M704.83,65.32l2.22-6.1h3.37l-5,11h-1.58l-5-11h3.39Z"/><path class="cls-4" d="M714.6,70h-3.08V61.82h-1.06v-2.6h1.06V55.57h3.08v3.65h1.89v2.6H714.6Z"/><path class="cls-4" d="M721.22,68.49a2,2,0,1,1-3.92,0,2,2,0,0,1,3.92,0Z"/><path class="cls-4" d="M739.13,68.35a7.26,7.26,0,0,1-4.76,2.12,4.71,4.71,0,0,1-4.86-4.84,5.07,5.07,0,0,1,2.4-4.32l1-.68a6,6,0,0,1-1.34-3.52,4.24,4.24,0,0,1,8.47,0c0,1.82-1.32,3.08-2.73,4l2.31,3,1.67-2.13,2.05,1.91-1.79,2.4L744.41,70h-3.94Zm-4.49-5.67c-.88.66-1.87,1.45-1.87,2.66a2.22,2.22,0,0,0,2,2.22,3.8,3.8,0,0,0,2.46-1.43Zm1.16-3.48.55-.46a2.23,2.23,0,0,0,.93-1.8,1.47,1.47,0,0,0-1.3-1.63,1.42,1.42,0,0,0-1.37,1.54,2.12,2.12,0,0,0,.4,1.23Z"/><path class="cls-4" d="M757,64.75h0l3.3-11.53h1.92l3.43,11.53h0L769,53.44h3.39l-5.61,16.92H764.4l-3.3-10.85h0l-3.13,10.85h-2.37l-5.28-16.92h3.39Z"/><path class="cls-4" d="M782.49,60V53.44h3.23V70h-3.23V62.61h-6V70h-3.23V53.44h3.23V60Z"/><path class="cls-4" d="M795.51,70.47c-5.06,0-8.21-3.88-8.21-8.76S790.56,53,795.51,53s8.21,3.78,8.21,8.71S800.57,70.47,795.51,70.47Zm0-14.28c-3.06,0-4.86,2.7-4.86,5.39s1.27,5.7,4.86,5.7,4.86-3.15,4.86-5.7S798.57,56.19,795.51,56.19Z"/><path class="cls-4" d="M703.5,92.2v.42c0,4.69-2.4,8.85-7.55,8.85-4.84,0-7.9-4.1-7.9-8.67,0-4.73,3.15-8.8,8.1-8.8a7.16,7.16,0,0,1,6.56,4l-2.86,1.54a4.22,4.22,0,0,0-3.79-2.64c-3.12,0-4.66,3.19-4.66,5.94s1.56,5.81,4.68,5.81a3.92,3.92,0,0,0,3.79-3.77h-3.52V92.2Z"/><path class="cls-4" d="M708,90.22v5.86c0,1.23.2,2.7,1.76,2.7s1.76-1.47,1.76-2.7V90.22h3.08v6.36c0,3.15-1.63,4.8-4.84,4.8S705,99.73,705,96.58V90.22Z"/><path class="cls-4" d="M720.3,85.69a1.83,1.83,0,1,1-3.65,0,1.83,1.83,0,1,1,3.65,0ZM720,101h-3.08V90.22H720Z"/><path class="cls-4" d="M729.5,100h0a3.6,3.6,0,0,1-2.91,1.37c-3.17,0-5-2.88-5-5.81s1.83-5.7,4.93-5.7a3.85,3.85,0,0,1,3,1.34h0V82.37h3.08V101H729.5Zm.31-4.4a2.59,2.59,0,1,0-5.11,0c0,1.46,1,3,2.56,3S729.81,97.07,729.81,95.61Z"/><path class="cls-4" d="M737.27,96.12c0,1.37.52,2.9,2.13,2.9a2.26,2.26,0,0,0,2.07-1.47l2.84.46a5,5,0,0,1-4.91,3.37c-3.35,0-5.39-2.38-5.39-5.66s1.74-5.85,5.24-5.85,5.12,2.62,5.12,5.88v.37Zm4.2-1.91A2.27,2.27,0,0,0,739.42,92a2.23,2.23,0,0,0-2.07,2.18Z"/><path class="cls-4" d="M748.88,101H745.8V82.37h3.08Z"/><path class="cls-4" d="M754.58,85.69a1.83,1.83,0,1,1-1.83-1.83A1.83,1.83,0,0,1,754.58,85.69ZM754.29,101h-3.08V90.22h3.08Z"/><path class="cls-4" d="M759.7,91.21h0a3.21,3.21,0,0,1,2.81-1.34c2.91,0,3.74,2,3.74,4.56V101h-3.08V95.31c0-1.3.07-3-1.67-3s-1.85,2-1.85,3.34V101h-3.08V90.22h3.08Z"/><path class="cls-4" d="M771,96.12c0,1.37.53,2.9,2.13,2.9a2.25,2.25,0,0,0,2.07-1.47L778,98a5,5,0,0,1-4.91,3.37c-3.34,0-5.39-2.38-5.39-5.66s1.74-5.85,5.24-5.85,5.13,2.62,5.13,5.88v.37Zm4.2-1.91a2.26,2.26,0,0,0-2-2.18,2.21,2.21,0,0,0-2.07,2.18Z"/><path class="cls-4" d="M785.07,92.78a2.43,2.43,0,0,0-1.63-.75,1,1,0,0,0-1,.92c0,.79,1.12,1,2.22,1.5a3.12,3.12,0,0,1,2.22,3.1c0,2.4-1.93,3.83-4.2,3.83a4.93,4.93,0,0,1-3.8-1.81l1.4-1.82A3.27,3.27,0,0,0,782.56,99a1.16,1.16,0,0,0,1.23-1.16c0-1-1.07-1.17-2.15-1.63a2.89,2.89,0,0,1-2.16-2.84,3.34,3.34,0,0,1,3.43-3.5A5.61,5.61,0,0,1,786.39,91Z"/></svg>