<svg xmlns="http://www.w3.org/2000/svg" xmlns:xlink="http://www.w3.org/1999/xlink" viewBox="0 0 1062 575"><defs><style>.cls-1{fill:none;}.cls-2{isolation:isolate;}.cls-3{fill:#ec5039;}.cls-3,.cls-4{opacity:0.1;}.cls-4{fill:#91278e;}.cls-5{fill:#f4aa1b;opacity:0.15;}.cls-6{fill:#852880;}.cls-7{fill:#f5f5f5;}.cls-8{clip-path:url(#clip-path);}.cls-9{fill:#69bad1;}.cls-10,.cls-30,.cls-31,.cls-36{opacity:0.3;}.cls-11{fill:#fff;}.cls-12{fill:#ededed;}.cls-13{fill:#706f6f;}.cls-14{fill:#878787;}.cls-15,.cls-38{fill:#ea4a49;}.cls-16{fill:#b2b2b2;}.cls-17{fill:#3c3c3b;}.cls-18{fill:#9d9d9c;}.cls-19{fill:#7e298a;}.cls-20,.cls-27,.cls-38{opacity:0.5;}.cls-21,.cls-22,.cls-23,.cls-24{mix-blend-mode:screen;}.cls-21{fill:url(#linear-gradient);}.cls-22{fill:url(#linear-gradient-2);}.cls-23{fill:url(#linear-gradient-3);}.cls-24{fill:url(#linear-gradient-4);}.cls-25{fill:#ffbb7d;}.cls-26,.cls-27,.cls-31{fill:#cea55f;}.cls-27,.cls-30,.cls-31,.cls-36,.cls-38,.cls-40{mix-blend-mode:multiply;}.cls-28{fill:#2f4b66;}.cls-29,.cls-30{fill:#3f668a;}.cls-32{fill:#dadada;}.cls-33{fill:#9e7f49;}.cls-34,.cls-40{fill:#1d1d1b;}.cls-35,.cls-36{fill:#404041;}.cls-37{fill:#203e79;}.cls-39{fill:#eeefef;}.cls-40{opacity:0.2;}</style><clipPath id="clip-path"><polygon class="cls-1" points="384.52 332.94 384.52 280.48 694.32 280.48 694.32 511.81 384.52 332.94"/></clipPath><linearGradient id="linear-gradient" x1="-622.3" y1="354.37" x2="-622.3" y2="185.46" gradientTransform="matrix(1, 0, -0.39, 1, 1165.68, 0)" gradientUnits="userSpaceOnUse"><stop offset="0"/><stop offset="1" stop-color="#fff"/></linearGradient><linearGradient id="linear-gradient-2" x1="-567.73" y1="354.37" x2="-567.73" y2="185.46" xlink:href="#linear-gradient"/><linearGradient id="linear-gradient-3" x1="-463.78" y1="354.37" x2="-463.78" y2="185.46" xlink:href="#linear-gradient"/><linearGradient id="linear-gradient-4" x1="-397.33" y1="354.37" x2="-397.33" y2="185.46" xlink:href="#linear-gradient"/></defs><g class="cls-2"><g id="Layer_1" data-name="Layer 1"><circle class="cls-3" cx="602.31" cy="92.46" r="64.12"/><circle class="cls-4" cx="507.15" cy="143.38" r="84.72"/><circle class="cls-5" cx="608.18" cy="190.22" r="55.28"/><path class="cls-6" d="M452.41,147.05h-5.26v-27h5.26Z"/><path class="cls-6" d="M456.24,119.36H460l14.2,18.85h.07V120.07h5.26v27.51h-3.79l-14.2-18.85h-.07v18.32h-5.26Z"/><path class="cls-6" d="M491.72,133.52v4.12H483v-4.12Z"/><path class="cls-6" d="M500.45,147.05h-5.26v-27h7.16c5.65,0,9.33,2.26,9.33,8.38,0,5.72-3.11,8.51-8.62,8.51h-2.61Zm0-14.46h1.07c3.12,0,4.8-.68,4.8-4.18s-2-4-4.94-4h-.93Z"/><path class="cls-6" d="M532.32,147.05H526l-6.55-10.88h-.07v10.88h-5.26v-27h7.12c5.33,0,9,2.37,9,8.12,0,3.44-1.89,6.87-5.51,7.48Zm-13-14.56H520c2.9,0,4.93-.86,4.93-4.15s-2.11-4-4.9-4h-.71Z"/><path class="cls-6" d="M539.3,124.65v5.94h8.37v4.58H539.3v7.3H548v4.58H534v-27h14v4.58Z"/><path class="cls-6" d="M571.64,130.31h-.07l-6.12,17.09h-1.83l-5.9-17.09h-.07l-2.4,16.74H550l4.54-27.69h3.72l6.66,17.78,6.36-17.78H575l4,27.69h-5.3Z"/><path class="cls-6" d="M586.66,147.05H581.4v-27h5.26Z"/><path class="cls-6" d="M603.19,126a4.84,4.84,0,0,0-4-2.21,3.21,3.21,0,0,0-3.3,3c0,4.54,10.7,2.64,10.7,11.69,0,5.4-3.36,9.23-8.87,9.23-3.72,0-6.44-2.14-8.3-5.26l3.4-3.32c.71,2.07,2.61,3.93,4.86,3.93s3.47-1.82,3.47-3.9c0-2.79-2.57-3.57-4.68-4.4-3.47-1.43-6-3.18-6-7.37a7.84,7.84,0,0,1,7.87-8.08,11.11,11.11,0,0,1,7.37,3Z"/><path class="cls-6" d="M614.56,124.65v5.94h8.37v4.58h-8.37v7.3h8.7v4.58h-14v-27h14v4.58Z"/><path class="cls-6" d="M639.46,126a4.84,4.84,0,0,0-4-2.21,3.21,3.21,0,0,0-3.29,3c0,4.54,10.69,2.64,10.69,11.69,0,5.4-3.36,9.23-8.87,9.23-3.72,0-6.44-2.14-8.3-5.26l3.4-3.32c.72,2.07,2.61,3.93,4.87,3.93a3.61,3.61,0,0,0,3.47-3.9c0-2.79-2.58-3.57-4.69-4.4-3.47-1.43-6-3.18-6-7.37a7.85,7.85,0,0,1,7.87-8.08,11.09,11.09,0,0,1,7.37,3Z"/><path id="Floor" class="cls-7" d="M678.91,307.78c74.71,55.55,74.71,145.61,0,201.16s-195.85,55.55-270.56,0-74.71-145.61,0-201.16S604.2,252.23,678.91,307.78Z"/><g class="cls-8"><rect class="cls-9" x="379.01" y="240.18" width="324.49" height="289.17"/><g class="cls-10"><rect class="cls-11" x="384.52" y="224.01" width="23.99" height="324.65"/><rect class="cls-11" x="432.16" y="224.01" width="23.99" height="324.65"/><rect class="cls-11" x="479.79" y="224.01" width="23.99" height="324.65"/><rect class="cls-11" x="527.42" y="224.01" width="23.99" height="324.65"/><rect class="cls-11" x="575.06" y="224.01" width="23.99" height="324.65"/><rect class="cls-11" x="622.69" y="224.01" width="23.99" height="324.65"/><rect class="cls-11" x="670.33" y="224.01" width="23.99" height="324.65"/></g><polygon class="cls-12" points="706.02 510.25 372.82 317.87 372.82 550.86 378.54 554.16 706.02 554.16 706.02 510.25"/><polygon class="cls-13" points="706.02 518.57 372.82 326.19 372.82 559.18 378.54 562.48 706.02 562.48 706.02 518.57"/><path class="cls-14" d="M543.78,352.52l-5.18-3a2.55,2.55,0,0,1-1.16-2V336a.81.81,0,0,1,.34-.75.83.83,0,0,1,.82.08l5.18,3a2.56,2.56,0,0,1,1.15,2v11.53C544.93,352.59,544.42,352.89,543.78,352.52Z"/><polygon class="cls-14" points="535.92 336.32 537.78 335.24 544.59 352.61 542.74 353.68 535.92 336.32 535.92 336.32"/><path class="cls-12" d="M536.74,350.61l5.18,3c.64.37,1.16.07,1.16-.67V341.39a2.57,2.57,0,0,0-1.16-2l-5.18-3a.78.78,0,0,0-.82-.08.81.81,0,0,0-.33.75V348.6A2.57,2.57,0,0,0,536.74,350.61Z"/><polygon class="cls-15" points="536.83 342.85 541.83 345.73 539.33 339.83 536.83 342.85"/><polygon class="cls-15" points="541.83 347.14 536.83 344.26 539.33 350.16 541.83 347.14"/><polygon class="cls-16" points="634.11 308.96 634.1 477.06 556.21 432.09 556.21 263.99 634.11 308.96"/><polygon class="cls-17" points="596.18 287.06 596.18 455.17 594.13 453.99 594.14 285.88 596.18 287.06"/><polygon class="cls-18" points="550.35 256.95 547.59 258.56 547.1 430.06 556.21 435.32 558.97 433.71 559.42 275.05 632.05 316.98 631.59 478.84 640.7 484.1 643.46 482.49 643.95 310.99 550.35 256.95"/><g class="cls-2"><polygon class="cls-19" points="556.21 435.32 558.97 433.71 559.43 271.85 556.67 273.46 556.21 435.32"/><polygon class="cls-19" points="550.35 256.95 547.59 258.56 641.18 312.6 640.7 484.1 643.46 482.49 643.95 310.99 550.35 256.95"/><polygon class="cls-19" points="641.18 312.6 640.7 484.1 631.59 478.84 632.05 316.98 556.67 273.46 556.21 435.32 547.1 430.06 547.59 258.56 641.18 312.6"/></g></g><g class="cls-8"><g class="cls-20"><polygon class="cls-21" points="327.12 413.14 379.16 244.23 501.94 244.23 449.89 413.14 327.12 413.14"/><polygon class="cls-22" points="381.7 413.14 433.74 244.23 556.52 244.23 504.47 413.14 381.7 413.14"/><polygon class="cls-23" points="485.65 413.14 537.69 244.23 660.47 244.23 608.42 413.14 485.65 413.14"/><polygon class="cls-24" points="552.1 413.14 604.14 244.23 726.92 244.23 674.87 413.14 552.1 413.14"/></g></g><path class="cls-25" d="M524.19,337c-1.55.88-3.05.68-3.55,2.61-.45,1.73-.21,3,1.52,3.39,1.07.24,5.5,2.29,6.56,1.91a7.51,7.51,0,0,1,1.51-.62,3.28,3.28,0,0,1,1.56.11c.48.18,1.16.14,1.33-.34.07-.18,0-1.25-2.63-1.78a34.82,34.82,0,0,1,7.63.61c.65.12,1.75-.75.52-1.71a14.58,14.58,0,0,0-4.58-1.17,5.63,5.63,0,0,0-.48-3c-.55-.79-4-2.11-5.06-2.09C527.71,334.89,524.9,336.56,524.19,337Z"/><path class="cls-26" d="M522.84,342.29a5.88,5.88,0,0,0,.57,1.08c-5.74,1.54-13.29,2.39-21.34,2.84-6,0-11.94-1.18-17.94-2.6-1.79-.42-3.59-.87-5.38-1.3l1.82-14c8.8,2.37,16.12,4.5,22.16,7.93a55.9,55.9,0,0,1,20.68,1.09C522.24,338.09,522,340.3,522.84,342.29Z"/><path class="cls-27" d="M484.13,338.6v.15A.14.14,0,0,1,484.13,338.6Z"/><path class="cls-27" d="M523.41,343.37c-5.74,1.54-13.29,2.39-21.34,2.84-6,0-11.94-1.18-17.94-2.6v-4.86c.57,1.07,11.37,4.69,15.92,5,1.53.11,18.5-.43,22.79-1.48A5.88,5.88,0,0,0,523.41,343.37Z"/><path d="M474.74,438.25s-.68,3.68-.34,5.27,4.54,2.6,4.54,2.6,5.89,5.54,10.88,5.16c2.95-.23,3.94-1,4.4-1.87a2.78,2.78,0,0,0-.55-2.78c-.58-.8-6.69-3.4-8.21-5.83-.75-1.19-2-3.69-2-3.69l-.51-4.64-8.1-.34.4,5.49Z"/><path class="cls-28" d="M467.61,380l5.15,25.91a78.82,78.82,0,0,0,1.13,32.35c1.59,4.26,7.25,3.07,10.77,0a206.94,206.94,0,0,1-1-28.49l1-6.77s.84-3.47.79-16.58c0-6.74-3.85-21.4-3.85-21.4Z"/><path d="M456.89,447.31c-.61,1.17-.61,3.14-.67,6a6.29,6.29,0,0,0,3.39,3.35,10.55,10.55,0,0,0,9.3,6.18c6.43.16,6.38-2.45,6.34-2.44a3.83,3.83,0,0,0-1.47-2.72c-.92-.77-5.67-4.56-6.52-5.66a14.08,14.08,0,0,1-1.52-2.84l-.29-4.64h-8.67Z"/><path class="cls-29" d="M471.91,385.61c0,13.12.48,20.88-3,27.53a75.92,75.92,0,0,1-1.7,8.84c-1,3.5-.84,18.76-.43,27.8-1.79,3-6,3.42-8.81,1.52a5.83,5.83,0,0,1-2.32-3.23c-2.27-14.18-3.83-25.41,1.78-35.86-1.8-9.17-1.59-18.18-1-28.15a28.6,28.6,0,0,1,1.88-14.95,26.88,26.88,0,0,1,1.52-3l23.34,5.54C480.75,380,476.53,384.58,471.91,385.61Z"/><path class="cls-30" d="M461.27,413.09c-7.16,7.35-5.09,21.61-3.27,38.2a5.77,5.77,0,0,1-2.32-3.22c-2.27-14.18-3.83-25.41,1.78-35.86-1.8-9.17-1.59-18.18-1-28.15a28.6,28.6,0,0,1,1.88-14.95l8.09,9.12C458.36,383.27,456.85,400.85,461.27,413.09Z"/><path class="cls-26" d="M485.65,343.28c-.13,8.2-1.9,23.62-2.37,27.49-.06.58-.1.9-.1.9-23.23,14.1-26.27,1.75-26.27,1.75l-1-21.74-.64-14.31a23.5,23.5,0,0,1,7.75-6c6.11-4.06,11.67-5.79,19.12-3.67a75.05,75.05,0,0,1,3.28,11.39c0,.17.06.37.08.59l0,.23a2.64,2.64,0,0,1,0,.28c0,.1,0,.2,0,.3l0,.46v.25c0,.23,0,.42,0,.55Z"/><path class="cls-27" d="M483.18,371.67c-23.23,14.1-26.27,1.75-26.27,1.75l-1-21.74,6.79-3.09,3.67,16.46C469.25,375.37,483.18,371.67,483.18,371.67Z"/><path class="cls-27" d="M485.54,339.66l0,.23a2,2,0,0,0,0-.25Z"/><path class="cls-25" d="M464.46,331.25l3.48-7.21,9.66,4.82-2.06,5.43C473.8,340.83,463.38,336.79,464.46,331.25Z"/><path class="cls-31" d="M478.75,331c0,3.92-1.15,8.23-3,8.23-3,0-4.72-2.31-4.83-9.27l-.06-3.21Z"/><path d="M495.24,374.57c0-.88-.62-1.24-1.38-.8a3.06,3.06,0,0,0-1.39,2.4c0,.88.62,1.24,1.39.8A3.07,3.07,0,0,0,495.24,374.57Z"/><rect x="497.03" y="372.41" width="3.92" height="11.85" transform="translate(-78.16 621.29) rotate(-60)"/><path d="M505.5,380.49c0-.88-.62-1.24-1.38-.8a3.07,3.07,0,0,0-1.39,2.4c0,.89.62,1.25,1.39.8A3.06,3.06,0,0,0,505.5,380.49Z"/><path d="M495.24,374.57c0-.88-.62-1.24-1.38-.8a3.06,3.06,0,0,0-1.39,2.4c0,.88.62,1.24,1.39.8A3.07,3.07,0,0,0,495.24,374.57Z"/><rect x="497.03" y="372.41" width="3.92" height="11.85" transform="translate(-78.16 621.29) rotate(-60)"/><path d="M505.5,380.49c0-.88-.62-1.24-1.38-.8a3.07,3.07,0,0,0-1.39,2.4c0,.89.62,1.25,1.39.8A3.06,3.06,0,0,0,505.5,380.49Z"/><path d="M467,391c0-.88-.62-1.24-1.38-.8a3.07,3.07,0,0,0-1.39,2.4c0,.89.62,1.25,1.39.8A3.06,3.06,0,0,0,467,391Z"/><rect x="468.83" y="388.85" width="3.92" height="11.85" transform="translate(-106.5 605.08) rotate(-60)"/><path d="M477.3,396.94c0-.89-.62-1.24-1.38-.8a3,3,0,0,0-1.39,2.4c0,.88.62,1.24,1.39.8A3.07,3.07,0,0,0,477.3,396.94Z"/><path d="M467,391c0-.88-.62-1.24-1.38-.8a3.07,3.07,0,0,0-1.39,2.4c0,.89.62,1.25,1.39.8A3.06,3.06,0,0,0,467,391Z"/><rect x="468.83" y="388.85" width="3.92" height="11.85" transform="translate(-106.5 605.08) rotate(-60)"/><path d="M477.3,396.94c0-.89-.62-1.24-1.38-.8a3,3,0,0,0-1.39,2.4c0,.88.62,1.24,1.39.8A3.07,3.07,0,0,0,477.3,396.94Z"/><path d="M543.94,460.55a4.25,4.25,0,0,0-1.3,2,7.63,7.63,0,0,0-.32,2.25,13.52,13.52,0,0,0,1.21,5.27,15.36,15.36,0,0,0,5.88,7,6.94,6.94,0,0,0,2.76,1,4,4,0,0,0,1.74-.22,3.58,3.58,0,0,0,1-.55,5.36,5.36,0,0,0,1.61-4.27,14.52,14.52,0,0,0-2.07-7,16.94,16.94,0,0,0-1-1.6,13.35,13.35,0,0,0-4-3.68C547.21,459.46,545.24,459.48,543.94,460.55Z"/><path class="cls-32" d="M541.06,465.93c0-4.31,3-6.05,6.76-3.9a14.92,14.92,0,0,1,6.75,11.69c0,4.31-3,6.06-6.75,3.9A14.93,14.93,0,0,1,541.06,465.93Z"/><path d="M547.82,475.71a11.28,11.28,0,0,1-5.1-8.83c0-3.24,2.29-4.56,5.1-2.94a11.27,11.27,0,0,1,5.09,8.83c0,3.24-2.28,4.56-5.09,2.94Zm0,2.3c3.91,2.25,7.08.42,7.08-4.09a15.64,15.64,0,0,0-7.08-12.27c-3.92-2.26-7.09-.43-7.09,4.09A15.66,15.66,0,0,0,547.82,478Z"/><path d="M546.22,470.75c-1.77-3.72.86-5.23,3.19-1.84C551.18,472.62,548.55,474.14,546.22,470.75Z"/><polygon class="cls-16" points="549.77 473.23 523.96 488.14 519.17 485.38 544.99 470.47 549.77 473.23"/><path d="M506.2,409.92a10.55,10.55,0,0,0-1.95,1.89c-2.14,2.65-3.34,6.49-3.4,11.13a36.72,36.72,0,0,0,1.46,10.24c.07.26.15.52.23.79.17.57.35,1.13.55,1.7A51.88,51.88,0,0,0,512.25,452c.38.47.77.92,1.17,1.37a38.09,38.09,0,0,0,9.59,7.88,21.14,21.14,0,0,0,7.4,2.6,13.16,13.16,0,0,0,3.92,0,10.56,10.56,0,0,0,2.54-.73c6.72-2.87,9.42-12.42,6-24.5-4.32-15.43-16.9-29.15-28.12-30.65A11.34,11.34,0,0,0,506.2,409.92Zm7.44,43,1.16-2.35c-.41-.44-.8-.9-1.19-1.36l-1.17,2.39a43.9,43.9,0,0,1-8.88-15.86l2.69.35c-.2-.57-.39-1.14-.56-1.7l-2.61-.35c-1.4-5.5-1.4-10.75.31-14.68l1.3,1.41c.1-.44.22-.87.34-1.29l-1.09-1.2a9.08,9.08,0,0,1,4.62-4.2,8.8,8.8,0,0,1,4.39-1.82,10.51,10.51,0,0,1,1.15-.09,13.49,13.49,0,0,1,1.66.07c4.45.51,9.59,3.4,14.31,8.56.26.28.53.58.78.87a.19.19,0,0,1,.07.08,44.11,44.11,0,0,1,8,13.69s0,0,0,.06c2.42,6.78,2.83,13.54.68,18.29-.06.14-.12.27-.19.41a10.78,10.78,0,0,1-1,1.66,6.94,6.94,0,0,1-.72.87,8.63,8.63,0,0,1-3.18,2.21,9.41,9.41,0,0,1-6.79,1.86l-.49-1.72c-.44-.12-.86-.25-1.3-.41l.55,2C522.42,459.94,517.88,457.33,513.64,452.92Z"/><path class="cls-32" d="M512.63,411.14l1.23.17.15.52.09.34.41,1.45,4.77,17.1s1.08,3.82,1.08,3.82l.18.67.33,1.2.14.49s.2.7.2.7l.14.51.34,1.19.16.57,1.06,3.83,4.3,15.38.49,1.72.49,1.78.17.62-1.23-.16-.17-.61-.5-1.78-.55-2-4.22-15.13-1.08-3.83s-.15-.57-.15-.57l-.34-1.2-.14-.49s-.2-.71-.2-.71l-.13-.5-.34-1.19-.18-.67-1.08-3.83-4.77-17.09-.33-1.2-.17-.59Z"/><path class="cls-32" d="M528.09,419.94l1.21,1.31-.18.38-.56,1.13-5.42,10.93L522,436.1s-.2.43-.2.43l-.39.76-.15.31-.22.45-.16.32-.37.77-.2.37L519.05,442l-4.25,8.6-1.16,2.35-.22.43-.34.69-.18.36-1.21-1.31.19-.37.37-.74.19-.38,1.17-2.39,4.23-8.54,1.21-2.45.2-.39.37-.77.16-.32.23-.45.16-.31.37-.77.21-.43,1.2-2.42,5.4-10.92.56-1.13Z"/><path class="cls-32" d="M501.4,433.82l.39.05.75.1.54.07,2.61.35,9.83,1.31,2.8.36.45.07.88.11.36.05.5.07.36.05.88.12.45.05,2.74.37,12.43,1.65,1.29.18.45.06.47,1.69-.43,0-1.31-.18-12.44-1.65-2.75-.38-.43,0-.87-.11-.36-.06-.51-.06-.36-.05-.87-.11-.44-.07L516,437.4l-9.74-1.31-2.69-.35-.47-.06-.82-.12-.38-.05Z"/><path class="cls-32" d="M502.31,416.51l.37.4,1.26,1.37,1.09,1.2,11.07,12.08,2.74,3,.47.52.86.93.34.38.5.54s.35.39.35.39l.86.93.42.46,2.69,2.93,12.17,13.28.89,1,.36.39.47.51-.54,1.08-.46-.51-.55-.6L537,456,524.8,442.71l-2.71-3-.4-.44-.86-.93-.35-.38-.5-.54s-.36-.39-.36-.39l-.84-.93s-.46-.49-.46-.49l-2.75-3-10.88-11.86-1.3-1.41L502.14,418l-.37-.41Z"/><path class="cls-32" d="M504.25,411.81A11.45,11.45,0,0,0,501,415.9c-4.77,9.65.08,27,10.82,38.71,7.75,8.45,16.48,11.68,22.53,9.2a11,11,0,0,0,5.59-5.46c2.87-5.8,2.26-14.38-1-22.85,0,0,0,0,0-.06a51.64,51.64,0,0,0-8-13.69.19.19,0,0,0-.07-.08c-.56-.69-1.14-1.37-1.75-2C520.29,410,510.21,407.18,504.25,411.81Zm23.1,9.63q.28.29.57.6c.22.24.43.47.64.72a43.87,43.87,0,0,1,8.81,15.84c.17.57.33,1.13.47,1.7,1.39,5.47,1.37,10.69-.34,14.59-.08.19-.16.37-.25.55s-.18.36-.28.53a10,10,0,0,1-2.48,3,9.41,9.41,0,0,1-6.79,1.86,10.74,10.74,0,0,1-1.24-.15c-4-.71-8.58-3.32-12.82-7.73l-.66-.7-.54-.62a43.9,43.9,0,0,1-8.88-15.86c-.17-.57-.33-1.13-.48-1.7-1.4-5.5-1.4-10.75.31-14.68.08-.19.17-.37.26-.55a5.25,5.25,0,0,1,.29-.53,9.08,9.08,0,0,1,4.62-4.2,10.2,10.2,0,0,1,4.72-.62,10.63,10.63,0,0,1,1.23.16C518.57,414.36,523.11,417,527.35,421.44Z"/><path d="M500.15,434.42c4.32,15.44,16.9,29.16,28.11,30.65a11.39,11.39,0,0,0,8.61-2c5.1-3.86,6.87-12.57,3.88-23.26-4.31-15.42-16.9-29.15-28.11-30.64a12.08,12.08,0,0,0-6.44.74C499.48,412.77,496.78,422.33,500.15,434.42Zm12.63-22.75.58.06c.22,0,.44.06.65.1.58.11,1.17.24,1.75.41,4.14,1.22,8.38,4.11,12.15,8.07.41.43.81.86,1.21,1.32a47.11,47.11,0,0,1,9.54,17.15c.09.27.16.53.24.8s.16.61.25.9a27.32,27.32,0,0,1,.44,13.31,14.2,14.2,0,0,1-.84,2.46,9,9,0,0,1-.53,1.08,9.86,9.86,0,0,1-10,5.25l-.65-.06-.58-.09a17.17,17.17,0,0,1-4-1.2,31,31,0,0,1-9.93-7.19c-.4-.43-.8-.86-1.2-1.32a46.85,46.85,0,0,1-9.61-17.16c-.1-.29-.18-.59-.27-.89l-.21-.8a30.07,30.07,0,0,1-.94-10.93,17.52,17.52,0,0,1,1.29-4.94c.17-.38.35-.75.54-1.09A9.88,9.88,0,0,1,512.78,411.67Z"/><path class="cls-32" d="M508.56,414.08a10.15,10.15,0,0,0-2.76,3.48,16.35,16.35,0,0,0-.77,1.92l-1.09-1.2A9.08,9.08,0,0,1,508.56,414.08Z"/><path class="cls-32" d="M503.39,419.36l1.3,1.41c-.89,3.93-.48,8.72,1,13.62l-2.61-.35C501.68,428.54,501.68,423.29,503.39,419.36Z"/><path class="cls-32" d="M503.56,435.74l2.69.35a44.1,44.1,0,0,0,7.36,13.12l-1.17,2.39A43.9,43.9,0,0,1,503.56,435.74Z"/><path class="cls-32" d="M527.21,459.08a11.39,11.39,0,0,0,7.28-.14,9.41,9.41,0,0,1-6.79,1.86Z"/><path class="cls-32" d="M514.8,450.57c.11.13.22.27.35.4a28.34,28.34,0,0,0,10.76,7.7l.55,2c-4-.71-8.58-3.32-12.82-7.73Z"/><path class="cls-32" d="M518.38,441.31c-2.57-2.81-3.73-6.95-2.59-9.26s4.16-1.91,6.73.89,3.73,6.95,2.59,9.26S521,444.11,518.38,441.31Z"/><path d="M519.57,439c-2.49-3.21-1-6.26,1.83-3.69C523.89,438.49,522.38,441.54,519.57,439Z"/><path class="cls-16" d="M547.45,472.89a.33.33,0,0,0,.51-.28V445.18l-30.34-17.81v14.79l1.74,1.3V430.68l26.86,15.51v24.57A2.46,2.46,0,0,0,547.45,472.89Z"/><path class="cls-32" d="M517.7,426.58l.57.33v-2l-.57-.33a5.86,5.86,0,0,1-2.6-4.18l-3-31a8.4,8.4,0,0,0-4.62-7.42l-2.33-1.36a.89.89,0,0,0-1.18,1.33l3.5,2a6.57,6.57,0,0,1,2.9,4.65l3,31A9.74,9.74,0,0,0,517.7,426.58Z"/><path class="cls-33" d="M545.69,437.19l-24.2-14.28a5.13,5.13,0,0,1-2.28-3.67L517,394a7.51,7.51,0,0,0-3.87-5.73l-1.14-.49-28.33,16.36,3,32.45A7.58,7.58,0,0,0,490,442L517,457.56l2.22,4.75,27.69-16.21C551.54,443.9,548.17,438.63,545.69,437.19Z"/><path class="cls-32" d="M489.33,443.2l.57.33v-2l-.57-.33a5.88,5.88,0,0,1-2.6-4.19l-3-31a8.41,8.41,0,0,0-4.62-7.42l-2.33-1.35a.89.89,0,0,0-1.18,1.32l3.5,2a6.51,6.51,0,0,1,2.89,4.65l3,31A9.77,9.77,0,0,0,489.33,443.2Z"/><path class="cls-34" d="M535.84,469c-1.19,1.2-1.37,3.54-1,5.83a4.61,4.61,0,0,0,2.91,2.43,22.75,22.75,0,0,1,3.62,1.68c3.49,3.62,6.71,4.05,7.9,3.61,4-1.49-.29-4.93-1.45-5.77-.34-.25-4.82-4.51-4.82-4.51l-1-1.67.12-3.67-5.82-1.72Z"/><path class="cls-35" d="M547.85,442.42c-.77,9.1-3.62,15.95-5.87,28.18a5.93,5.93,0,0,1-4.9,1.07,2.86,2.86,0,0,1-1.9-2.2c-.36-10.42-.27-18.49,2.61-25.22-8.75-3.86-20.33-5.07-27.47-11.05-2.77-2.4-4.87-4.6-5.52-6.78a4.49,4.49,0,0,1,.17-3.24,6.54,6.54,0,0,1,1.11-1.71l2.28-1.63,9.82-1.4c1.25.66,2.65,1.42,4.12,2.27C532.91,426.76,547.9,436.8,547.85,442.42Z"/><path class="cls-36" d="M537.78,471.43l-.7.24a2.86,2.86,0,0,1-1.9-2.2c-.36-10.42-.27-18.49,2.61-25.22-8.75-3.86-20.33-5.07-27.47-11.05-2.77-2.4-4.87-4.6-5.52-6.78l.17-3.24a6.54,6.54,0,0,1,1.11-1.71l2.28-1.63,9.82-1.4c1.25.66,2.65,1.42,4.12,2.27.75,9.24,9.75,15.76,19.72,22C538.27,451.28,537.2,461,537.78,471.43Z"/><path class="cls-34" d="M520,478c-1.19,1.2-1.22,3.4-1,5.83a6.38,6.38,0,0,0,3.71,2.56s5.56,5.3,10.86,4.51,0-4.6,0-4.6L527.44,481l-1.18-1.63,0-3.45-5.82-1.72Z"/><path class="cls-35" d="M534.47,449.14c-.77,9.1-6,18-8.21,30.2-2,1.56-3.85,1.83-5.3.19a7.17,7.17,0,0,1-1.11-1.78c-.36-10.42.36-19.62,3.23-26.35-8.75-3.86-15.66-7.67-22.8-13.64a11.09,11.09,0,0,1-1.16-15.32l1-.15.19,0,16.06,3.33c.87,1,1.76,2,2.65,3l3.56,4C528.42,439.29,533.69,445.59,534.47,449.14Z"/><path class="cls-36" d="M522,479.91l-1-.38a7.17,7.17,0,0,1-1.11-1.78c-.36-10.42.36-19.62,3.23-26.35-8.75-3.86-15.66-7.67-22.8-13.64a11.09,11.09,0,0,1-1.16-15.32l1-.15,16.77,3.89,5.69,6.44c-2.06.32-6.57.42-16,.31,3.34,7.07,11.19,13.07,20.78,17.22C523,457.71,521.86,468.26,522,479.91Z"/><path class="cls-25" d="M537.39,430.73a10.79,10.79,0,0,0-.52,3.08l.45,1.57.95,1.66c.51.88,1.19.41.82-.51l-.68-1.44.26-1,1.88,2,1.8,2.83c.62.62.84.36.89-.28l.62.78c.53.66,1.19.05,1-.48l.23.2c.5.63,1.19.1.81-.67l-.3-.52c.62.42.6-.28.05-1.16l-1.7-3.15a13.46,13.46,0,0,0-4-3.7l-1.1-1-2.15.91Z"/><path class="cls-37" d="M540.26,430.14c-1.29-.62-2.55,0-3.14,1.51-4.43-3.53-10.67-11.81-12.27-16-3.11-10.79.84-9.19-3.05-22.66L520,389.74l3.09-2.34c4.58-.68,6.07,1.45,7.1,6.44l1.5,17.44C534.83,417.48,538.47,423.61,540.26,430.14Z"/><path class="cls-34" d="M512.84,380.76c-9.11,3-7.17,11.56-4.71,18.29l6.43-6Z"/><path class="cls-37" d="M530.23,409.4a.91.91,0,0,1,0,.17c-.22,5.24-7.36,4.75-7.36,4.75L520,420.59c-.74,9.09-16.45,11.38-20.86,1.85,3.18-4.5,3.18-4.5,3.44-7.6-.25-.82-.47-1.62-.65-2.4a21.61,21.61,0,0,1,1.88-15.95c2.58-3.35,8.37-6.69,12-8.05l10.67-.25,2.13,7.74C528,405.65,530.29,405.32,530.23,409.4Z"/><path class="cls-25" d="M514.05,386.63c-.58,2-2.14,5.07-2.52,7-.43,2.34,3.88,6,6.77,5.77,2-.4,2.57-3,2.87-5.44Z"/><path class="cls-31" d="M515.53,388.15s-1.7,14,5,12.84c4.39-.76,3.47-8,3.47-8Z"/><path class="cls-25" d="M519.77,375.34c6.74.93,8.82,4.88,8.14,10.25-.08,4.49-3.82,10.45-6.43,10.34-3.72.2-5.56-4.15-8.74-8.8C510.28,379.48,513.5,374.47,519.77,375.34Z"/><path class="cls-34" d="M527.82,385.74c-1.4,1.49-3.64,2.34-6.44,3-2.15.89-4.24.89-5.29,1.88a1.74,1.74,0,0,0-.28.32l-2.73-1.13c-2.75-3.17-3-12.22,1.69-14.13C522.34,372.6,531.34,380.2,527.82,385.74Z"/><path class="cls-25" d="M515.71,389.54c-.41-1.65-1.56-2.73-2.54-1.78-.46.44-.43,1.25,0,2.29a1.84,1.84,0,0,0,1.47,1.27C515.57,391.46,516,390.81,515.71,389.54Z"/><path class="cls-25" d="M521.71,440.31c.39,1.82,1.12,2.49,2.89,3.38l1.85,1.36,1.24,1.68c.67.95,1.52.26,1-.51l1.35,1.19c.91.67,1.41-.05,1-.81,1.41,1.5,2.3.57,1.52-.5l-.5-.58c.66.65,1.61.15.66-1-1.72-2.28-2.15-3.2-4-4.85a9.71,9.71,0,0,0-3.38-1.79l-4.14-2.8-2,2.74Z"/><path class="cls-38" d="M530.22,409.57c-.22,5.24-7.36,4.75-7.36,4.75L520,420.59c-.74,9.09-16.45,11.38-20.86,1.85,3.18-4.5,3.18-4.5,3.44-7.6-.25-.82-.47-1.62-.65-2.4l6.34-6.79,3.66,8.23c3,6.4,9.94,3.66,10.51-1.49C523.44,414,528.75,413.63,530.22,409.57Z"/><path class="cls-37" d="M503.8,396.49c-3.09,2.56-3.93,5.14-3.36,10.59,1.3,12.48,4.36,19.34,4.36,19.34,3,4.32,9.75,9.64,16.91,13.89-.1-1.59,1.65-3,3.67-2.44-4.17-4.94-11-13.07-13.88-16a75.81,75.81,0,0,0-2.58-17C507.89,400.87,506.37,397.74,503.8,396.49Z"/><path class="cls-32" d="M517.89,488.89l1.74,1V463.42a7.85,7.85,0,0,0-3.86-6.76l-26.48-15.54,2.64,13.46,1.74,1.3L491,444.43l23.74,13.7a6.26,6.26,0,0,1,3.12,5.42Z"/><path d="M478.08,426a10.55,10.55,0,0,0-1.95,1.89c-2.14,2.65-3.34,6.49-3.4,11.13a36.62,36.62,0,0,0,1.46,10.24c.07.26.15.52.24.79.16.57.34,1.13.54,1.7a52.08,52.08,0,0,0,9.16,16.31c.38.47.78.92,1.17,1.37a38.27,38.27,0,0,0,9.59,7.88,21.14,21.14,0,0,0,7.4,2.6,13.23,13.23,0,0,0,3.93,0,10.61,10.61,0,0,0,2.53-.73c6.73-2.87,9.42-12.42,6-24.5-4.32-15.43-16.89-29.15-28.11-30.65A11.36,11.36,0,0,0,478.08,426Zm7.44,43,1.16-2.35c-.41-.44-.8-.9-1.19-1.36l-1.17,2.39a43.9,43.9,0,0,1-8.88-15.86l2.69.35c-.2-.57-.39-1.14-.56-1.7l-2.61-.35c-1.4-5.49-1.4-10.75.31-14.68l1.3,1.41c.1-.44.22-.87.35-1.28l-1.1-1.21a9.06,9.06,0,0,1,4.63-4.2,8.73,8.73,0,0,1,4.38-1.82,10.51,10.51,0,0,1,1.15-.09,13.41,13.41,0,0,1,1.66.07c4.45.51,9.59,3.4,14.32,8.56.26.28.52.58.77.87a.19.19,0,0,1,.07.08,44,44,0,0,1,8,13.7s0,0,0,.05c2.42,6.78,2.83,13.54.69,18.29-.06.14-.13.28-.2.41a10,10,0,0,1-1,1.66,7.86,7.86,0,0,1-.72.88,8.72,8.72,0,0,1-3.18,2.2,9.41,9.41,0,0,1-6.79,1.86l-.49-1.72c-.43-.12-.85-.25-1.3-.41l.56,2C494.31,476,489.76,473.43,485.52,469Z"/><path class="cls-32" d="M484.51,427.24l1.23.17.15.52.09.34.41,1.45,4.77,17.1s1.08,3.83,1.08,3.83l.18.66.34,1.2.13.49.2.71.14.5.34,1.19.16.57,1.06,3.83,4.3,15.38.49,1.72.49,1.78.17.63-1.22-.17-.18-.61-.49-1.78-.56-2-4.22-15.13-1.08-3.83-.15-.57L492,454l-.14-.48-.2-.72-.13-.5-.33-1.19-.19-.67-1.08-3.83-4.77-17.09-.33-1.2-.17-.59Z"/><path class="cls-32" d="M500,436l1.2,1.32-.18.37-.56,1.13L495,449.79l-1.2,2.41s-.2.43-.2.43l-.38.76-.16.32-.22.44-.16.32-.37.77-.2.37-1.21,2.46-4.25,8.6L485.52,469l-.22.43-.34.69-.18.37-1.2-1.32.18-.37.37-.74.19-.38,1.17-2.39,4.24-8.54,1.2-2.45.2-.39.37-.77.16-.32.23-.45.16-.31.37-.77.21-.43,1.2-2.42,5.4-10.92.57-1.13Z"/><path class="cls-32" d="M473.29,449.92l.38.05.76.1.53.07,2.61.35,9.83,1.31,2.8.37.45.06.88.11.36.05.5.07.37.05.87.12.46.05,2.74.37,12.42,1.65,1.29.18.45.06.47,1.7-.43-.06-1.31-.18-12.43-1.65-2.76-.37-.43-.06-.87-.11-.36-.06-.51-.06-.36,0-.87-.11-.44-.07-2.82-.36-9.74-1.31-2.69-.35-.47-.06-.82-.12-.38-.05Z"/><path class="cls-32" d="M474.19,432.61l.38.4,1.25,1.37,1.1,1.21L488,447.66l2.74,3,.48.51.85.93.34.38s.5.54.5.54l.36.39.85.93.42.46,2.7,2.94L509.38,471l.89,1,.36.39.47.51-.54,1.08-.45-.51-.56-.59-.7-.77-12.17-13.26-2.71-3-.4-.44-.86-.93-.35-.38-.5-.53-.36-.4-.84-.93s-.46-.49-.46-.49l-2.75-3-10.88-11.86-1.3-1.41L474,434.1l-.38-.41Z"/><path class="cls-32" d="M476.13,427.91a11.45,11.45,0,0,0-3.27,4.09c-4.76,9.65.09,27,10.83,38.71,7.74,8.45,16.47,11.68,22.53,9.2a11,11,0,0,0,5.58-5.46c2.87-5.8,2.26-14.38-1-22.85,0,0,0,0,0-.05a51.43,51.43,0,0,0-8-13.7.19.19,0,0,0-.07-.08c-.56-.69-1.14-1.37-1.75-2C492.17,426.14,482.09,423.28,476.13,427.91Zm23.1,9.63c.2.19.38.39.57.6s.43.47.64.72a43.73,43.73,0,0,1,8.81,15.84c.17.57.33,1.13.47,1.7,1.39,5.47,1.38,10.69-.34,14.59-.08.19-.16.37-.25.55s-.18.36-.28.53a9.87,9.87,0,0,1-2.48,3,9.41,9.41,0,0,1-6.79,1.86,10.32,10.32,0,0,1-1.23-.15c-4-.71-8.59-3.32-12.83-7.73l-.65-.7c-.19-.2-.37-.41-.55-.62a43.9,43.9,0,0,1-8.88-15.86c-.17-.57-.33-1.13-.48-1.7-1.4-5.49-1.4-10.75.31-14.68.08-.19.17-.37.26-.55a5.25,5.25,0,0,1,.29-.53,9.06,9.06,0,0,1,4.63-4.2,10.14,10.14,0,0,1,4.71-.62,10.63,10.63,0,0,1,1.23.16C490.45,430.47,495,433.1,499.23,437.54Z"/><path d="M472,450.52c4.32,15.44,16.9,29.16,28.11,30.65a11.39,11.39,0,0,0,8.61-2c5.1-3.86,6.87-12.57,3.88-23.26-4.31-15.42-16.89-29.14-28.11-30.64a12.08,12.08,0,0,0-6.44.74C471.36,428.87,468.66,438.43,472,450.52Zm12.63-22.75a5.7,5.7,0,0,1,.58.06l.65.1c.58.11,1.17.24,1.75.41,4.14,1.23,8.39,4.11,12.16,8.07q.6.64,1.2,1.32a47,47,0,0,1,9.54,17.15c.09.27.17.53.24.8s.16.61.25.9a27.46,27.46,0,0,1,.45,13.31,15.1,15.1,0,0,1-.85,2.46,10.8,10.8,0,0,1-.52,1.08,9.87,9.87,0,0,1-10,5.25l-.65-.06-.58-.09a17.17,17.17,0,0,1-3.95-1.2,31.09,31.09,0,0,1-9.93-7.19c-.4-.43-.8-.86-1.2-1.32a46.91,46.91,0,0,1-9.61-17.16c-.09-.29-.18-.59-.26-.88s-.15-.55-.22-.81a30.29,30.29,0,0,1-.94-10.93,17.19,17.19,0,0,1,1.3-4.94c.17-.38.35-.75.54-1.09A9.86,9.86,0,0,1,484.66,427.77Z"/><path class="cls-16" d="M480.45,430.18a10,10,0,0,0-2.76,3.49,12.61,12.61,0,0,0-.77,1.92l-1.1-1.21A9.06,9.06,0,0,1,480.45,430.18Z"/><path class="cls-16" d="M475.27,435.46l1.3,1.41c-.89,3.93-.48,8.72,1,13.62l-2.61-.35C473.56,444.65,473.56,439.39,475.27,435.46Z"/><path class="cls-16" d="M475.44,451.84l2.69.35a44.54,44.54,0,0,0,7.36,13.12l-1.17,2.39A43.9,43.9,0,0,1,475.44,451.84Z"/><path class="cls-16" d="M499.09,475.18a11.32,11.32,0,0,0,7.28-.14,9.41,9.41,0,0,1-6.79,1.86Z"/><path class="cls-16" d="M486.68,466.67a4.36,4.36,0,0,0,.35.4,28.34,28.34,0,0,0,10.76,7.7l.56,2c-4-.71-8.59-3.32-12.83-7.73Z"/><path class="cls-32" d="M490.26,457.41c-2.57-2.8-3.73-7-2.58-9.26s4.15-1.91,6.72.89,3.73,6.95,2.59,9.26S492.84,460.21,490.26,457.41Z"/><path d="M491.45,455.08c-2.49-3.22-1-6.27,1.83-3.7C495.77,454.59,494.26,457.64,491.45,455.08Z"/><path d="M515.82,476.65a4.17,4.17,0,0,0-1.29,2,7.31,7.31,0,0,0-.32,2.25,13.35,13.35,0,0,0,1.21,5.27,15.29,15.29,0,0,0,5.87,7,6.94,6.94,0,0,0,2.76.95,4,4,0,0,0,1.75-.22,3.52,3.52,0,0,0,1-.55,5.34,5.34,0,0,0,1.61-4.27,14.48,14.48,0,0,0-2.07-7,15.89,15.89,0,0,0-1-1.61,13.35,13.35,0,0,0-4-3.68C519.09,475.56,517.12,475.58,515.82,476.65Z"/><path class="cls-32" d="M513,482c0-4.31,3-6,6.75-3.9a14.92,14.92,0,0,1,6.75,11.7c0,4.3-3,6.05-6.75,3.89A14.9,14.9,0,0,1,513,482Z"/><path d="M519.7,491.81a11.28,11.28,0,0,1-5.1-8.82c0-3.25,2.29-4.57,5.1-2.95a11.28,11.28,0,0,1,5.09,8.83c0,3.24-2.28,4.56-5.09,2.94Zm0,2.3c3.91,2.26,7.08.42,7.08-4.09a15.66,15.66,0,0,0-7.08-12.27c-3.91-2.26-7.09-.43-7.09,4.09a15.67,15.67,0,0,0,7.09,12.27Z"/><path d="M518.1,486.85c-1.77-3.71.86-5.23,3.19-1.84C523.06,488.72,520.43,490.24,518.1,486.85Z"/><path class="cls-25" d="M468.73,313.2c6-2.32,10.91.31,13.23,5.68a7.6,7.6,0,0,1,.46,4.27l-.31,1.76,1,2.21c.93,1.5-.48,1.43-.88,1.88a21.82,21.82,0,0,1-1.1,4.62c-.38,1-4.51,2.82-7.34,1-1.77-1.12-2.37-3.88-3.3-6.26l-3.1-.34c-1.42-1-2.39-2.88-3-5.43C463.64,318.75,464.59,314.79,468.73,313.2Z"/><path d="M482.81,320.88c-.8,2.14-4.6,3.25-7.25,2.76a19.94,19.94,0,0,0-1.12,2.26l-3.33,1.25c-1.11,3.43-4.65,2.13-5.67.62,0,0-3-5.3-1.78-9.49,2.18-7.38,10.09-6.49,12.7-6C480.09,313,484.2,317.32,482.81,320.88Z"/><path class="cls-25" d="M471,324a2.08,2.08,0,0,0-.74,1.51,3.68,3.68,0,0,0,.36,1.69,2.36,2.36,0,0,0,.59.87,1.11,1.11,0,0,0,1,.27,1.48,1.48,0,0,0,.89-1.13,4.8,4.8,0,0,0,.11-2.1,1.83,1.83,0,0,0-.7-1.27A1.36,1.36,0,0,0,471,324Z"/><path class="cls-25" d="M464.38,390l.3,3.49L466,396a11.32,11.32,0,0,0,4.27,2.29l1.75-.5-1.42-.82c-1.16-1-.33-3.84,1.77-3.5l1.31.75a8.73,8.73,0,0,0-.48-3.6,35.28,35.28,0,0,0-3.12-2.8l-1.54-3.12-4.95,2Z"/><path class="cls-26" d="M462.67,350.72c.69-6.69-3.11-11.63-7.36-13.35-4.26,4.14-4.81,7.81-3.16,17.44.94,5.59,1.76,11.89,3.8,15.84,2.17,7.38,4.83,14.05,8.43,19.37a5.18,5.18,0,0,1,5.89-2.1c-1.71-8.15-3.89-16.37-6.91-22.87C464.12,363,463.36,356.08,462.67,350.72Z"/><path class="cls-39" d="M473.25,326.07s4.37,5.58,9.37,0a7.79,7.79,0,0,1,1.41,2.75c.27,1.34-2.07,4.9-4.78,6-6.86,2.72-9.78-4.3-8.4-7Z"/><path class="cls-39" d="M526.53,390.87s-9.16.64-10.44-.26l-1.09.72s3.46,5.73,6.89,4.56C521.89,395.89,523.92,396.4,526.53,390.87Z"/><path class="cls-40" d="M558.12,478.45,531.5,493.82a14.57,14.57,0,0,1-13.18,0l-61-35.69c-10.16-5.86-10.16-15.37,0-21.23l3-1.75c10.15-5.86,26.61-5.86,36.77,0l61,35.69C561.76,472.94,561.76,476.35,558.12,478.45Z"/><circle class="cls-5" cx="859.9" cy="219.94" r="17.52"/><circle class="cls-4" cx="258.96" cy="415.41" r="17.91"/><circle class="cls-3" cx="109.16" cy="134.28" r="26.33"/><circle class="cls-3" cx="952.95" cy="436.67" r="30.55"/><circle class="cls-3" cx="971.95" cy="108.67" r="24.55"/></g></g></svg>