<svg id="Layer_1" data-name="Layer 1" xmlns="http://www.w3.org/2000/svg" viewBox="0 0 1062 127"><defs><style>.cls-1{fill:#7e298a;}.cls-2{fill:#fff;}</style></defs><rect class="cls-1" x="391.79" y="26.02" width="278.41" height="74.97" rx="12"/><path class="cls-2" d="M472.22,54.42H468.3l-4-6.69h0v6.69H461V37.83h4.38c3.28,0,5.54,1.45,5.54,5,0,2.11-1.16,4.22-3.39,4.59Zm-8-9h.42c1.78,0,3-.53,3-2.56s-1.3-2.44-3-2.44h-.44Z"/><path class="cls-2" d="M475.67,49.51c0,1.37.53,2.91,2.14,2.91A2.27,2.27,0,0,0,479.88,51l2.83.46a5,5,0,0,1-4.9,3.36c-3.35,0-5.39-2.37-5.39-5.65s1.73-5.85,5.23-5.85,5.13,2.61,5.13,5.87v.37Zm4.21-1.91a2.27,2.27,0,0,0-2.05-2.18,2.23,2.23,0,0,0-2.07,2.18Z"/><path class="cls-2" d="M489.75,46.17a2.43,2.43,0,0,0-1.63-.75,1,1,0,0,0-1,.93c0,.79,1.12,1,2.22,1.49A3.13,3.13,0,0,1,491.56,51c0,2.39-1.94,3.82-4.2,3.82a5,5,0,0,1-3.81-1.8L485,51.14a3.24,3.24,0,0,0,2.28,1.26,1.16,1.16,0,0,0,1.24-1.17c0-.94-1.08-1.17-2.16-1.63a2.89,2.89,0,0,1-2.16-2.84,3.33,3.33,0,0,1,3.44-3.49,5.61,5.61,0,0,1,3.47,1.12Z"/><path class="cls-2" d="M503.83,49a5.68,5.68,0,1,1-11.35,0,5.68,5.68,0,1,1,11.35,0Zm-8.23,0a2.59,2.59,0,1,0,2.56-3A2.82,2.82,0,0,0,495.6,49Z"/><path class="cls-2" d="M508.36,44.74h.05a3.07,3.07,0,0,1,2.68-1.47,3.7,3.7,0,0,1,1.28.26L512,46.39a2.2,2.2,0,0,0-1.27-.4c-2.14,0-2.36,1.9-2.36,3.57v4.86h-3.08V43.62h3.08Z"/><path class="cls-2" d="M517.69,54.42h-3.08V46.21h-1.05V43.62h1.05V40h3.08v3.66h1.89v2.59h-1.89Z"/><path class="cls-2" d="M525.81,46.17a2.43,2.43,0,0,0-1.63-.75,1,1,0,0,0-1,.93c0,.79,1.12,1,2.22,1.49A3.13,3.13,0,0,1,527.61,51c0,2.39-1.93,3.82-4.2,3.82a5,5,0,0,1-3.8-1.8l1.4-1.83a3.29,3.29,0,0,0,2.29,1.26,1.16,1.16,0,0,0,1.23-1.17c0-.94-1.07-1.17-2.15-1.63a2.89,2.89,0,0,1-2.16-2.84,3.33,3.33,0,0,1,3.43-3.49,5.61,5.61,0,0,1,3.48,1.12Z"/><path class="cls-2" d="M543.54,41.48a3,3,0,0,0-2.49-1.36A2,2,0,0,0,539,42c0,2.79,6.58,1.63,6.58,7.19,0,3.33-2.07,5.68-5.46,5.68a5.87,5.87,0,0,1-5.1-3.23l2.09-2.05a3.4,3.4,0,0,0,3,2.42,2.21,2.21,0,0,0,2.13-2.4c0-1.71-1.58-2.2-2.88-2.7-2.13-.88-3.69-2-3.69-4.54a4.82,4.82,0,0,1,4.84-5,6.82,6.82,0,0,1,4.53,1.85Z"/><path class="cls-2" d="M550.29,44.61a4,4,0,0,1,3-1.34c3.05,0,4.92,2.86,4.92,5.69s-1.8,5.81-5,5.81a3.55,3.55,0,0,1-2.88-1.36h-.05v6.78h-3.08V43.62h3.08Zm4.8,4.4a2.59,2.59,0,1,0-5.1,0c0,1.45,1,3,2.55,3S555.09,50.46,555.09,49Z"/><path class="cls-2" d="M562.72,44.74h0a3.07,3.07,0,0,1,2.68-1.47,3.7,3.7,0,0,1,1.28.26l-.38,2.86a2.2,2.2,0,0,0-1.27-.4c-2.14,0-2.36,1.9-2.36,3.57v4.86h-3.08V43.62h3.08Z"/><path class="cls-2" d="M570.2,49.51c0,1.37.53,2.91,2.14,2.91A2.27,2.27,0,0,0,574.41,51l2.83.46a5,5,0,0,1-4.9,3.36c-3.35,0-5.39-2.37-5.39-5.65s1.74-5.85,5.23-5.85,5.13,2.61,5.13,5.87v.37Zm4.21-1.91a2.27,2.27,0,0,0-2-2.18,2.23,2.23,0,0,0-2.07,2.18Z"/><path class="cls-2" d="M589,54.42h-3v-1h0a3.74,3.74,0,0,1-2.93,1.34c-3.17,0-5-2.88-5-5.81s1.82-5.69,4.93-5.69a4,4,0,0,1,3,1.36v-1h3ZM586.22,49a2.6,2.6,0,1,0-2.57,3A2.85,2.85,0,0,0,586.22,49Z"/><path class="cls-2" d="M598.32,53.41h-.05a3.59,3.59,0,0,1-2.9,1.36c-3.17,0-5-2.88-5-5.81s1.82-5.69,4.93-5.69a3.79,3.79,0,0,1,2.94,1.34h.05V35.76h3.08V54.42h-3.08Zm.31-4.4a2.59,2.59,0,1,0-5.11,0c0,1.45,1,3,2.55,3A2.84,2.84,0,0,0,598.63,49Z"/><path class="cls-2" d="M508.37,81.92,507,85.42H503.6l6.47-17h2.51l6.29,17h-3.45l-1.28-3.5Zm2.8-8.67h-.05l-1.82,6h3.94Z"/><path class="cls-2" d="M522.85,75.61a4,4,0,0,1,3-1.34c3.06,0,4.93,2.86,4.93,5.69s-1.8,5.81-5,5.81a3.59,3.59,0,0,1-2.89-1.36h0v6.78h-3.08V74.62h3.08Zm4.8,4.4a2.59,2.59,0,1,0-5.11,0c0,1.45,1,3,2.55,3A2.84,2.84,0,0,0,527.65,80Z"/><path class="cls-2" d="M542.41,85.42h-3v-1h0a3.74,3.74,0,0,1-2.93,1.34c-3.17,0-5-2.88-5-5.81s1.83-5.69,4.93-5.69a4,4,0,0,1,3,1.36v-1h3ZM539.68,80a2.6,2.6,0,1,0-2.57,3A2.85,2.85,0,0,0,539.68,80Z"/><path class="cls-2" d="M547.71,75.74h0a3.08,3.08,0,0,1,2.69-1.47,3.6,3.6,0,0,1,1.27.26l-.37,2.86a2.21,2.21,0,0,0-1.28-.4c-2.13,0-2.35,1.9-2.35,3.57v4.86h-3.08V74.62h3.08Z"/><path class="cls-2" d="M557,85.42H554V77.21H552.9V74.62H554V71H557v3.66h1.89v2.59H557Z"/></svg>