<svg id="Layer_1" data-name="Layer 1" xmlns="http://www.w3.org/2000/svg" viewBox="0 0 1062 115"><defs><style>.cls-1{fill:#7e298a;}.cls-2{fill:#fff;}</style></defs><rect class="cls-1" x="391.79" y="20.02" width="278.41" height="74.97" rx="12"/><path class="cls-2" d="M458.11,30.84h3.23v9.28c0,2.05.18,4.93,2.93,4.93s2.92-2.88,2.92-4.93V30.84h3.24v9.92c0,4.05-1.72,7.11-6.16,7.11s-6.16-3.06-6.16-7.11Z"/><path class="cls-2" d="M475.7,37.61h.05a3.23,3.23,0,0,1,2.81-1.34c2.91,0,3.75,2,3.75,4.56v6.6h-3.08V41.71c0-1.3.06-3-1.68-3s-1.85,2-1.85,3.34v5.35h-3.08V36.62h3.08Z"/><path class="cls-2" d="M488,32.09a1.83,1.83,0,1,1-1.82-1.82A1.82,1.82,0,0,1,488,32.09Zm-.28,15.34h-3.08V36.62h3.08Z"/><path class="cls-2" d="M500.3,53.19h-3.08V46.42h0a3.62,3.62,0,0,1-2.91,1.36c-3.17,0-5-2.88-5-5.81s1.83-5.7,4.93-5.7a3.85,3.85,0,0,1,2.95,1.34h0v-1h3.08ZM497.53,42a2.59,2.59,0,1,0-2.55,3C496.56,45.05,497.53,43.47,497.53,42Z"/><path class="cls-2" d="M505.51,36.62v5.86c0,1.23.2,2.7,1.76,2.7s1.76-1.47,1.76-2.7V36.62h3.08V43c0,3.15-1.62,4.8-4.84,4.8s-4.84-1.65-4.84-4.8V36.62Z"/><path class="cls-2" d="M516.76,42.52c0,1.37.52,2.91,2.13,2.91A2.27,2.27,0,0,0,521,44l2.84.46a5,5,0,0,1-4.91,3.37c-3.35,0-5.39-2.38-5.39-5.65s1.74-5.86,5.23-5.86,5.13,2.62,5.13,5.88v.37Zm4.2-1.91a2.27,2.27,0,0,0-2.05-2.18,2.23,2.23,0,0,0-2.07,2.18Z"/><path class="cls-2" d="M541,37.37V30.84h3.24V47.43H541V40h-6v7.42h-3.23V30.84H535v6.53Z"/><path class="cls-2" d="M557.08,42a5.68,5.68,0,1,1-11.35,0,5.68,5.68,0,1,1,11.35,0Zm-8.23,0A2.59,2.59,0,1,0,554,42a2.59,2.59,0,1,0-5.11,0Z"/><path class="cls-2" d="M561.61,47.43h-3.08V28.77h3.08Z"/><path class="cls-2" d="M567.31,32.09a1.83,1.83,0,1,1-1.83-1.82A1.82,1.82,0,0,1,567.31,32.09ZM567,47.43h-3.08V36.62H567Z"/><path class="cls-2" d="M576.51,46.42h0a3.6,3.6,0,0,1-2.9,1.36c-3.17,0-5-2.88-5-5.81s1.83-5.7,4.93-5.7a3.82,3.82,0,0,1,3,1.34h0V28.77h3.08V47.43h-3.08Zm.3-4.4a2.59,2.59,0,1,0-5.1,0c0,1.45,1,3,2.55,3S576.81,43.47,576.81,42Z"/><path class="cls-2" d="M592,47.43h-3v-1h-.05A3.72,3.72,0,0,1,586,47.78c-3.17,0-5-2.88-5-5.81s1.83-5.7,4.93-5.7a4,4,0,0,1,3,1.37v-1h3ZM589.27,42a2.6,2.6,0,1,0-5.13,0c0,1.45,1,3,2.55,3A2.86,2.86,0,0,0,589.27,42Z"/><path class="cls-2" d="M592.72,36.62h3.5l2.57,6.14,2.77-6.14H605l-7.86,16.57h-3.39l3.57-7.41Z"/><path class="cls-2" d="M489.74,78.43h-3.23V61.84h3.23Z"/><path class="cls-2" d="M495.09,68.61h0A3.25,3.25,0,0,1,498,67.27c2.9,0,3.74,2,3.74,4.56v6.6h-3.08V72.71c0-1.3.06-3-1.67-3s-1.85,2-1.85,3.34v5.35H492V67.62h3.08Z"/><path class="cls-2" d="M509.43,70.18a2.43,2.43,0,0,0-1.63-.75,1,1,0,0,0-1,.92c0,.8,1.12,1,2.22,1.5a3.12,3.12,0,0,1,2.22,3.1c0,2.4-1.93,3.83-4.2,3.83a5,5,0,0,1-3.8-1.8l1.4-1.83a3.27,3.27,0,0,0,2.29,1.25,1.16,1.16,0,0,0,1.23-1.16c0-.95-1.07-1.17-2.15-1.63a2.89,2.89,0,0,1-2.16-2.84,3.34,3.34,0,0,1,3.43-3.5,5.56,5.56,0,0,1,3.48,1.13Z"/><path class="cls-2" d="M515.92,67.62v5.86c0,1.23.2,2.7,1.76,2.7s1.76-1.47,1.76-2.7V67.62h3.08V74c0,3.15-1.63,4.8-4.84,4.8s-4.84-1.65-4.84-4.8V67.62Z"/><path class="cls-2" d="M527.76,68.75h0a3.09,3.09,0,0,1,2.68-1.48,3.49,3.49,0,0,1,1.28.27l-.37,2.86a2.18,2.18,0,0,0-1.28-.4c-2.13,0-2.35,1.89-2.35,3.56v4.87h-3.08V67.62h3.08Z"/><path class="cls-2" d="M543,78.43h-3v-1h0A3.74,3.74,0,0,1,537,78.78c-3.17,0-5-2.88-5-5.81s1.83-5.7,4.93-5.7a4,4,0,0,1,3,1.37v-1h3ZM540.23,73a2.6,2.6,0,1,0-2.57,3A2.84,2.84,0,0,0,540.23,73Z"/><path class="cls-2" d="M548.26,68.61h0a3.25,3.25,0,0,1,2.82-1.34c2.9,0,3.74,2,3.74,4.56v6.6h-3.08V72.71c0-1.3.07-3-1.67-3s-1.85,2-1.85,3.34v5.35h-3.08V67.62h3.08Z"/><path class="cls-2" d="M564.41,70.93a3,3,0,0,0-2.27-1.06,3,3,0,0,0-2.73,3.21,2.87,2.87,0,0,0,2.84,3.1,2.92,2.92,0,0,0,2.16-1v3a5.41,5.41,0,0,1-2.66.66,5.52,5.52,0,0,1-5.46-5.72,5.59,5.59,0,0,1,5.61-5.79,4.86,4.86,0,0,1,2.51.68Z"/><path class="cls-2" d="M568.81,73.52c0,1.37.52,2.91,2.13,2.91A2.27,2.27,0,0,0,573,75l2.84.46a5,5,0,0,1-4.91,3.37c-3.34,0-5.39-2.38-5.39-5.65s1.74-5.86,5.24-5.86,5.12,2.62,5.12,5.88v.37Zm4.2-1.91a2.26,2.26,0,0,0-2-2.18,2.21,2.21,0,0,0-2.06,2.18Z"/></svg>